ISO-10303-21;
HEADER;
/* Generated by software containing ST-Developer
 * from STEP Tools, Inc. (www.steptools.com) 
 */
/* OPTION: strings as raw bytes, not using required /X/ escapes */

FILE_DESCRIPTION(
/* description */ ('Unknown'),
/* implementation_level */ '2;1');

FILE_NAME(
/* name */ 'heye',
/* time_stamp */ '2024-10-08T11:21:19+08:00',
/* author */ ('Unknown'),
/* organization */ ('Unknown'),
/* preprocessor_version */ 'ST-DEVELOPER v19.4',
/* originating_system */ 'Solid Edge',
/* authorisation */ 'Unknown');

FILE_SCHEMA (('AUTOMOTIVE_DESIGN {1 0 10303 214 3 1 1}'));
ENDSEC;

DATA;
#10=PROPERTY_DEFINITION_REPRESENTATION(#14,#12);
#11=PROPERTY_DEFINITION_REPRESENTATION(#15,#13);
#12=REPRESENTATION('',(#16),#289);
#13=REPRESENTATION('',(#17),#289);
#14=PROPERTY_DEFINITION('pmi validation property','',#294);
#15=PROPERTY_DEFINITION('pmi validation property','',#294);
#16=VALUE_REPRESENTATION_ITEM('number of annotations',COUNT_MEASURE(0.));
#17=VALUE_REPRESENTATION_ITEM('number of views',COUNT_MEASURE(0.));
#18=SHAPE_REPRESENTATION_RELATIONSHIP('','',#181,#19);
#19=ADVANCED_BREP_SHAPE_REPRESENTATION('',(#179),#289);
#20=CYLINDRICAL_SURFACE('',#196,3.20156211871642);
#21=CYLINDRICAL_SURFACE('',#197,2.);
#22=CYLINDRICAL_SURFACE('',#198,3.);
#23=CYLINDRICAL_SURFACE('',#199,3.);
#24=LINE('',#250,#34);
#25=LINE('',#255,#35);
#26=LINE('',#257,#36);
#27=LINE('',#261,#37);
#28=LINE('',#264,#38);
#29=LINE('',#266,#39);
#30=LINE('',#270,#40);
#31=LINE('',#271,#41);
#32=LINE('',#277,#42);
#33=LINE('',#283,#43);
#34=VECTOR('',#206,1000.);
#35=VECTOR('',#209,1000.);
#36=VECTOR('',#210,1000.);
#37=VECTOR('',#215,1000.);
#38=VECTOR('',#216,1000.);
#39=VECTOR('',#217,1000.);
#40=VECTOR('',#222,1000.);
#41=VECTOR('',#223,1000.);
#42=VECTOR('',#230,1000.);
#43=VECTOR('',#237,1000.);
#44=ORIENTED_EDGE('',*,*,#80,.F.);
#45=ORIENTED_EDGE('',*,*,#81,.T.);
#46=ORIENTED_EDGE('',*,*,#82,.T.);
#47=ORIENTED_EDGE('',*,*,#83,.F.);
#48=ORIENTED_EDGE('',*,*,#84,.T.);
#49=ORIENTED_EDGE('',*,*,#85,.T.);
#50=ORIENTED_EDGE('',*,*,#86,.T.);
#51=ORIENTED_EDGE('',*,*,#87,.F.);
#52=ORIENTED_EDGE('',*,*,#88,.F.);
#53=ORIENTED_EDGE('',*,*,#89,.F.);
#54=ORIENTED_EDGE('',*,*,#90,.T.);
#55=ORIENTED_EDGE('',*,*,#84,.F.);
#56=ORIENTED_EDGE('',*,*,#91,.F.);
#57=ORIENTED_EDGE('',*,*,#87,.T.);
#58=ORIENTED_EDGE('',*,*,#92,.T.);
#59=ORIENTED_EDGE('',*,*,#93,.T.);
#60=ORIENTED_EDGE('',*,*,#83,.T.);
#61=ORIENTED_EDGE('',*,*,#94,.T.);
#62=ORIENTED_EDGE('',*,*,#88,.T.);
#63=ORIENTED_EDGE('',*,*,#91,.T.);
#64=ORIENTED_EDGE('',*,*,#95,.F.);
#65=ORIENTED_EDGE('',*,*,#96,.F.);
#66=ORIENTED_EDGE('',*,*,#81,.F.);
#67=ORIENTED_EDGE('',*,*,#90,.F.);
#68=ORIENTED_EDGE('',*,*,#86,.F.);
#69=ORIENTED_EDGE('',*,*,#97,.F.);
#70=ORIENTED_EDGE('',*,*,#89,.T.);
#71=ORIENTED_EDGE('',*,*,#94,.F.);
#72=ORIENTED_EDGE('',*,*,#82,.F.);
#73=ORIENTED_EDGE('',*,*,#97,.T.);
#74=ORIENTED_EDGE('',*,*,#85,.F.);
#75=ORIENTED_EDGE('',*,*,#80,.T.);
#76=ORIENTED_EDGE('',*,*,#93,.F.);
#77=ORIENTED_EDGE('',*,*,#96,.T.);
#78=ORIENTED_EDGE('',*,*,#92,.F.);
#79=ORIENTED_EDGE('',*,*,#95,.T.);
#80=EDGE_CURVE('',#98,#98,#112,.F.);
#81=EDGE_CURVE('',#99,#100,#24,.T.);
#82=EDGE_CURVE('',#100,#101,#113,.T.);
#83=EDGE_CURVE('',#102,#101,#25,.T.);
#84=EDGE_CURVE('',#102,#99,#26,.T.);
#85=EDGE_CURVE('',#103,#103,#114,.T.);
#86=EDGE_CURVE('',#104,#105,#27,.T.);
#87=EDGE_CURVE('',#106,#105,#28,.T.);
#88=EDGE_CURVE('',#107,#106,#29,.T.);
#89=EDGE_CURVE('',#104,#107,#115,.T.);
#90=EDGE_CURVE('',#105,#99,#30,.T.);
#91=EDGE_CURVE('',#106,#102,#31,.T.);
#92=EDGE_CURVE('',#108,#108,#116,.T.);
#93=EDGE_CURVE('',#109,#109,#117,.T.);
#94=EDGE_CURVE('',#101,#107,#32,.T.);
#95=EDGE_CURVE('',#110,#110,#118,.F.);
#96=EDGE_CURVE('',#111,#111,#119,.F.);
#97=EDGE_CURVE('',#100,#104,#33,.T.);
#98=VERTEX_POINT('',#249);
#99=VERTEX_POINT('',#251);
#100=VERTEX_POINT('',#252);
#101=VERTEX_POINT('',#254);
#102=VERTEX_POINT('',#256);
#103=VERTEX_POINT('',#260);
#104=VERTEX_POINT('',#262);
#105=VERTEX_POINT('',#263);
#106=VERTEX_POINT('',#265);
#107=VERTEX_POINT('',#267);
#108=VERTEX_POINT('',#274);
#109=VERTEX_POINT('',#276);
#110=VERTEX_POINT('',#280);
#111=VERTEX_POINT('',#282);
#112=CIRCLE('',#184,2.);
#113=CIRCLE('',#185,3.20156211871642);
#114=CIRCLE('',#187,2.);
#115=CIRCLE('',#188,3.20156211871642);
#116=CIRCLE('',#191,3.);
#117=CIRCLE('',#192,3.);
#118=CIRCLE('',#194,3.);
#119=CIRCLE('',#195,3.);
#120=EDGE_LOOP('',(#44));
#121=EDGE_LOOP('',(#45,#46,#47,#48));
#122=EDGE_LOOP('',(#49));
#123=EDGE_LOOP('',(#50,#51,#52,#53));
#124=EDGE_LOOP('',(#54,#55,#56,#57));
#125=EDGE_LOOP('',(#58));
#126=EDGE_LOOP('',(#59));
#127=EDGE_LOOP('',(#60,#61,#62,#63));
#128=EDGE_LOOP('',(#64));
#129=EDGE_LOOP('',(#65));
#130=EDGE_LOOP('',(#66,#67,#68,#69));
#131=EDGE_LOOP('',(#70,#71,#72,#73));
#132=EDGE_LOOP('',(#74));
#133=EDGE_LOOP('',(#75));
#134=EDGE_LOOP('',(#76));
#135=EDGE_LOOP('',(#77));
#136=EDGE_LOOP('',(#78));
#137=EDGE_LOOP('',(#79));
#138=FACE_BOUND('',#120,.T.);
#139=FACE_BOUND('',#121,.T.);
#140=FACE_BOUND('',#122,.T.);
#141=FACE_BOUND('',#123,.T.);
#142=FACE_BOUND('',#124,.T.);
#143=FACE_BOUND('',#125,.T.);
#144=FACE_BOUND('',#126,.T.);
#145=FACE_BOUND('',#127,.T.);
#146=FACE_BOUND('',#128,.T.);
#147=FACE_BOUND('',#129,.T.);
#148=FACE_BOUND('',#130,.T.);
#149=FACE_BOUND('',#131,.T.);
#150=FACE_BOUND('',#132,.T.);
#151=FACE_BOUND('',#133,.T.);
#152=FACE_BOUND('',#134,.T.);
#153=FACE_BOUND('',#135,.T.);
#154=FACE_BOUND('',#136,.T.);
#155=FACE_BOUND('',#137,.T.);
#156=PLANE('',#183);
#157=PLANE('',#186);
#158=PLANE('',#189);
#159=PLANE('',#190);
#160=PLANE('',#193);
#161=ADVANCED_FACE('',(#138,#139),#156,.F.);
#162=ADVANCED_FACE('',(#140,#141),#157,.F.);
#163=ADVANCED_FACE('',(#142),#158,.F.);
#164=ADVANCED_FACE('',(#143,#144,#145),#159,.T.);
#165=ADVANCED_FACE('',(#146,#147,#148),#160,.F.);
#166=ADVANCED_FACE('',(#149),#20,.T.);
#167=ADVANCED_FACE('',(#150,#151),#21,.F.);
#168=ADVANCED_FACE('',(#152,#153),#22,.F.);
#169=ADVANCED_FACE('',(#154,#155),#23,.F.);
#170=CLOSED_SHELL('',(#161,#162,#163,#164,#165,#166,#167,#168,#169));
#171=STYLED_ITEM('',(#172),#179);
#172=PRESENTATION_STYLE_ASSIGNMENT((#173));
#173=SURFACE_STYLE_USAGE(.BOTH.,#174);
#174=SURFACE_SIDE_STYLE('',(#175));
#175=SURFACE_STYLE_FILL_AREA(#176);
#176=FILL_AREA_STYLE('',(#177));
#177=FILL_AREA_STYLE_COLOUR('',#178);
#178=COLOUR_RGB('',0.506983280181885,0.531564235687256,0.550000011920929);
#179=MANIFOLD_SOLID_BREP('',#170);
#180=SHAPE_DEFINITION_REPRESENTATION(#294,#181);
#181=SHAPE_REPRESENTATION('Áã¼þ',(#182),#289);
#182=AXIS2_PLACEMENT_3D('',#246,#200,#201);
#183=AXIS2_PLACEMENT_3D('',#247,#202,#203);
#184=AXIS2_PLACEMENT_3D('',#248,#204,#205);
#185=AXIS2_PLACEMENT_3D('',#253,#207,#208);
#186=AXIS2_PLACEMENT_3D('',#258,#211,#212);
#187=AXIS2_PLACEMENT_3D('',#259,#213,#214);
#188=AXIS2_PLACEMENT_3D('',#268,#218,#219);
#189=AXIS2_PLACEMENT_3D('',#269,#220,#221);
#190=AXIS2_PLACEMENT_3D('',#272,#224,#225);
#191=AXIS2_PLACEMENT_3D('',#273,#226,#227);
#192=AXIS2_PLACEMENT_3D('',#275,#228,#229);
#193=AXIS2_PLACEMENT_3D('',#278,#231,#232);
#194=AXIS2_PLACEMENT_3D('',#279,#233,#234);
#195=AXIS2_PLACEMENT_3D('',#281,#235,#236);
#196=AXIS2_PLACEMENT_3D('',#284,#238,#239);
#197=AXIS2_PLACEMENT_3D('',#285,#240,#241);
#198=AXIS2_PLACEMENT_3D('',#286,#242,#243);
#199=AXIS2_PLACEMENT_3D('',#287,#244,#245);
#200=DIRECTION('',(0.,0.,1.));
#201=DIRECTION('',(1.,0.,0.));
#202=DIRECTION('',(0.,0.,1.));
#203=DIRECTION('',(1.,0.,0.));
#204=DIRECTION('',(0.,0.,1.));
#205=DIRECTION('',(1.,0.,0.));
#206=DIRECTION('',(1.,0.,0.));
#207=DIRECTION('',(0.,0.,-1.));
#208=DIRECTION('',(-1.,0.,0.));
#209=DIRECTION('',(1.,0.,0.));
#210=DIRECTION('',(0.,1.,0.));
#211=DIRECTION('',(0.,0.,-1.));
#212=DIRECTION('',(-1.,0.,0.));
#213=DIRECTION('',(0.,0.,-1.));
#214=DIRECTION('',(1.,0.,0.));
#215=DIRECTION('',(-1.,0.,0.));
#216=DIRECTION('',(0.,1.,0.));
#217=DIRECTION('',(-1.,0.,0.));
#218=DIRECTION('',(0.,0.,-1.));
#219=DIRECTION('',(-1.,0.,0.));
#220=DIRECTION('',(1.,0.,0.));
#221=DIRECTION('',(0.,0.,-1.));
#222=DIRECTION('',(0.,0.,-1.));
#223=DIRECTION('',(0.,0.,-1.));
#224=DIRECTION('',(0.,-1.,0.));
#225=DIRECTION('',(0.,0.,-1.));
#226=DIRECTION('',(0.,1.,0.));
#227=DIRECTION('',(0.,0.,1.));
#228=DIRECTION('',(0.,1.,0.));
#229=DIRECTION('',(0.,0.,1.));
#230=DIRECTION('',(0.,0.,1.));
#231=DIRECTION('',(0.,-1.,0.));
#232=DIRECTION('',(0.,0.,-1.));
#233=DIRECTION('',(0.,-1.,0.));
#234=DIRECTION('',(0.,0.,-1.));
#235=DIRECTION('',(0.,-1.,0.));
#236=DIRECTION('',(0.,0.,-1.));
#237=DIRECTION('',(0.,0.,1.));
#238=DIRECTION('',(0.,0.,1.));
#239=DIRECTION('',(1.,0.,0.));
#240=DIRECTION('',(0.,0.,1.));
#241=DIRECTION('',(1.,0.,0.));
#242=DIRECTION('',(0.,-1.,0.));
#243=DIRECTION('',(0.,0.,-1.));
#244=DIRECTION('',(0.,-1.,0.));
#245=DIRECTION('',(0.,0.,-1.));
#246=CARTESIAN_POINT('',(0.,0.,0.));
#247=CARTESIAN_POINT('',(-30.,-4.,-50.));
#248=CARTESIAN_POINT('',(32.5,-2.,-50.));
#249=CARTESIAN_POINT('',(34.5,-2.,-50.));
#250=CARTESIAN_POINT('',(-30.,0.,-50.));
#251=CARTESIAN_POINT('',(-30.,0.,-50.));
#252=CARTESIAN_POINT('',(30.,-4.33680868994202E-15,-50.));
#253=CARTESIAN_POINT('',(32.5,-2.,-50.));
#254=CARTESIAN_POINT('',(30.,-3.99999999999999,-50.));
#255=CARTESIAN_POINT('',(-30.,-4.,-50.));
#256=CARTESIAN_POINT('',(-30.,-4.,-50.));
#257=CARTESIAN_POINT('',(-30.,-4.,-50.));
#258=CARTESIAN_POINT('',(30.,-4.,50.));
#259=CARTESIAN_POINT('',(32.5,-2.,50.));
#260=CARTESIAN_POINT('',(34.5,-2.,50.));
#261=CARTESIAN_POINT('',(30.,0.,50.));
#262=CARTESIAN_POINT('',(30.,-4.33680868994202E-15,50.));
#263=CARTESIAN_POINT('',(-30.,0.,50.));
#264=CARTESIAN_POINT('',(-30.,-4.,50.));
#265=CARTESIAN_POINT('',(-30.,-4.,50.));
#266=CARTESIAN_POINT('',(30.,-4.,50.));
#267=CARTESIAN_POINT('',(30.,-4.,50.));
#268=CARTESIAN_POINT('',(32.5,-2.,50.));
#269=CARTESIAN_POINT('',(-30.,-4.,50.));
#270=CARTESIAN_POINT('',(-30.,0.,50.));
#271=CARTESIAN_POINT('',(-30.,-4.,50.));
#272=CARTESIAN_POINT('',(0.,-4.,0.));
#273=CARTESIAN_POINT('',(6.1257422745431E-15,-4.,-25.));
#274=CARTESIAN_POINT('',(6.1257422745431E-15,-4.,-22.));
#275=CARTESIAN_POINT('',(3.06287113727155E-15,-4.,25.));
#276=CARTESIAN_POINT('',(3.06287113727155E-15,-4.,28.));
#277=CARTESIAN_POINT('',(30.,-4.,-50.));
#278=CARTESIAN_POINT('',(0.,0.,0.));
#279=CARTESIAN_POINT('',(6.1257422745431E-15,0.,-25.));
#280=CARTESIAN_POINT('',(6.1257422745431E-15,0.,-28.));
#281=CARTESIAN_POINT('',(3.06287113727155E-15,0.,25.));
#282=CARTESIAN_POINT('',(3.06287113727155E-15,0.,22.));
#283=CARTESIAN_POINT('',(30.,0.,-50.));
#284=CARTESIAN_POINT('',(32.5,-2.,-50.));
#285=CARTESIAN_POINT('',(32.5,-2.,-95.9624886519893));
#286=CARTESIAN_POINT('',(3.06287113727155E-15,6.10285478142519,25.));
#287=CARTESIAN_POINT('',(6.1257422745431E-15,1.34719053601891,-25.));
#288=MECHANICAL_DESIGN_GEOMETRIC_PRESENTATION_REPRESENTATION('',(#171),
#289);
#289=(
GEOMETRIC_REPRESENTATION_CONTEXT(3)
GLOBAL_UNCERTAINTY_ASSIGNED_CONTEXT((#290))
GLOBAL_UNIT_ASSIGNED_CONTEXT((#293,#292,#291))
REPRESENTATION_CONTEXT('Áã¼þ»¶2','TOP_LEVEL_ASSEMBLY_PART')
);
#290=UNCERTAINTY_MEASURE_WITH_UNIT(LENGTH_MEASURE(0.005),#293,
'DISTANCE_ACCURACY_VALUE','Maximum Tolerance applied to model');
#291=(
NAMED_UNIT(*)
SI_UNIT($,.STERADIAN.)
SOLID_ANGLE_UNIT()
);
#292=(
NAMED_UNIT(*)
PLANE_ANGLE_UNIT()
SI_UNIT($,.RADIAN.)
);
#293=(
LENGTH_UNIT()
NAMED_UNIT(*)
SI_UNIT(.MILLI.,.METRE.)
);
#294=PRODUCT_DEFINITION_SHAPE('','',#295);
#295=PRODUCT_DEFINITION('','',#297,#296);
#296=PRODUCT_DEFINITION_CONTEXT('',#303,'design');
#297=PRODUCT_DEFINITION_FORMATION_WITH_SPECIFIED_SOURCE('','',#299,
 .NOT_KNOWN.);
#298=PRODUCT_RELATED_PRODUCT_CATEGORY('','',(#299));
#299=PRODUCT('Áã¼þ»¶2','Áã¼þ»¶2','Áã¼þ»¶2',(#301));
#300=PRODUCT_CATEGORY('','');
#301=PRODUCT_CONTEXT('',#303,'mechanical');
#302=APPLICATION_PROTOCOL_DEFINITION('international standard',
'automotive_design',2010,#303);
#303=APPLICATION_CONTEXT(
'core data for automotive mechanical design processes');
ENDSEC;
END-ISO-10303-21;
