ISO-10303-21;
HEADER;
/* Generated by software containing ST-Developer
 * from STEP Tools, Inc. (www.steptools.com) 
 */
/* OPTION: strings as raw bytes, not using required /X/ escapes */

FILE_DESCRIPTION(
/* description */ ('Unknown'),
/* implementation_level */ '2;1');

FILE_NAME(
/* name */ 'lianjie',
/* time_stamp */ '2024-10-22T10:14:44+08:00',
/* author */ ('Unknown'),
/* organization */ ('Unknown'),
/* preprocessor_version */ 'ST-DEVELOPER v16.7',
/* originating_system */ 'Solid Edge',
/* authorisation */ 'Unknown');

FILE_SCHEMA (('AUTOMOTIVE_DESIGN {1 0 10303 214 3 1 1}'));
ENDSEC;

DATA;
#10=PROPERTY_DEFINITION_REPRESENTATION(#14,#12);
#11=PROPERTY_DEFINITION_REPRESENTATION(#15,#13);
#12=REPRESENTATION('',(#16),#457);
#13=REPRESENTATION('',(#17),#457);
#14=PROPERTY_DEFINITION('pmi validation property','',#462);
#15=PROPERTY_DEFINITION('pmi validation property','',#462);
#16=VALUE_REPRESENTATION_ITEM('number of annotations',COUNT_MEASURE(0.));
#17=VALUE_REPRESENTATION_ITEM('number of views',COUNT_MEASURE(0.));
#18=SHAPE_REPRESENTATION_RELATIONSHIP('','',#283,#19);
#19=ADVANCED_BREP_SHAPE_REPRESENTATION('',(#281),#457);
#20=CIRCLE('',#289,1.5);
#21=CIRCLE('',#290,1.5);
#22=CIRCLE('',#292,1.5);
#23=CIRCLE('',#293,1.5);
#24=CIRCLE('',#295,1.5);
#25=CIRCLE('',#296,1.5);
#26=CIRCLE('',#298,1.5);
#27=CIRCLE('',#299,1.5);
#28=CIRCLE('',#301,1.5);
#29=CIRCLE('',#302,1.5);
#30=CIRCLE('',#304,1.5);
#31=CIRCLE('',#305,1.5);
#32=CIRCLE('',#307,1.5);
#33=CIRCLE('',#308,1.5);
#34=CIRCLE('',#310,1.5);
#35=CIRCLE('',#311,1.5);
#36=CYLINDRICAL_SURFACE('',#288,1.5);
#37=CYLINDRICAL_SURFACE('',#291,1.5);
#38=CYLINDRICAL_SURFACE('',#294,1.5);
#39=CYLINDRICAL_SURFACE('',#297,1.5);
#40=CYLINDRICAL_SURFACE('',#300,1.5);
#41=CYLINDRICAL_SURFACE('',#303,1.5);
#42=CYLINDRICAL_SURFACE('',#306,1.5);
#43=CYLINDRICAL_SURFACE('',#309,1.5);
#44=ORIENTED_EDGE('',*,*,#100,.F.);
#45=ORIENTED_EDGE('',*,*,#101,.F.);
#46=ORIENTED_EDGE('',*,*,#102,.T.);
#47=ORIENTED_EDGE('',*,*,#103,.T.);
#48=ORIENTED_EDGE('',*,*,#104,.F.);
#49=ORIENTED_EDGE('',*,*,#103,.F.);
#50=ORIENTED_EDGE('',*,*,#105,.T.);
#51=ORIENTED_EDGE('',*,*,#106,.T.);
#52=ORIENTED_EDGE('',*,*,#107,.F.);
#53=ORIENTED_EDGE('',*,*,#106,.F.);
#54=ORIENTED_EDGE('',*,*,#108,.T.);
#55=ORIENTED_EDGE('',*,*,#109,.T.);
#56=ORIENTED_EDGE('',*,*,#110,.T.);
#57=ORIENTED_EDGE('',*,*,#111,.F.);
#58=ORIENTED_EDGE('',*,*,#112,.T.);
#59=ORIENTED_EDGE('',*,*,#113,.F.);
#60=ORIENTED_EDGE('',*,*,#114,.T.);
#61=ORIENTED_EDGE('',*,*,#115,.F.);
#62=ORIENTED_EDGE('',*,*,#116,.T.);
#63=ORIENTED_EDGE('',*,*,#117,.F.);
#64=ORIENTED_EDGE('',*,*,#118,.T.);
#65=ORIENTED_EDGE('',*,*,#119,.F.);
#66=ORIENTED_EDGE('',*,*,#120,.T.);
#67=ORIENTED_EDGE('',*,*,#121,.F.);
#68=ORIENTED_EDGE('',*,*,#122,.T.);
#69=ORIENTED_EDGE('',*,*,#123,.F.);
#70=ORIENTED_EDGE('',*,*,#124,.T.);
#71=ORIENTED_EDGE('',*,*,#125,.F.);
#72=ORIENTED_EDGE('',*,*,#126,.F.);
#73=ORIENTED_EDGE('',*,*,#109,.F.);
#74=ORIENTED_EDGE('',*,*,#127,.T.);
#75=ORIENTED_EDGE('',*,*,#101,.T.);
#76=ORIENTED_EDGE('',*,*,#124,.F.);
#77=ORIENTED_EDGE('',*,*,#122,.F.);
#78=ORIENTED_EDGE('',*,*,#120,.F.);
#79=ORIENTED_EDGE('',*,*,#118,.F.);
#80=ORIENTED_EDGE('',*,*,#116,.F.);
#81=ORIENTED_EDGE('',*,*,#114,.F.);
#82=ORIENTED_EDGE('',*,*,#112,.F.);
#83=ORIENTED_EDGE('',*,*,#110,.F.);
#84=ORIENTED_EDGE('',*,*,#102,.F.);
#85=ORIENTED_EDGE('',*,*,#127,.F.);
#86=ORIENTED_EDGE('',*,*,#108,.F.);
#87=ORIENTED_EDGE('',*,*,#105,.F.);
#88=ORIENTED_EDGE('',*,*,#125,.T.);
#89=ORIENTED_EDGE('',*,*,#123,.T.);
#90=ORIENTED_EDGE('',*,*,#121,.T.);
#91=ORIENTED_EDGE('',*,*,#119,.T.);
#92=ORIENTED_EDGE('',*,*,#117,.T.);
#93=ORIENTED_EDGE('',*,*,#115,.T.);
#94=ORIENTED_EDGE('',*,*,#113,.T.);
#95=ORIENTED_EDGE('',*,*,#111,.T.);
#96=ORIENTED_EDGE('',*,*,#100,.T.);
#97=ORIENTED_EDGE('',*,*,#104,.T.);
#98=ORIENTED_EDGE('',*,*,#107,.T.);
#99=ORIENTED_EDGE('',*,*,#126,.T.);
#100=EDGE_CURVE('',#128,#129,#152,.T.);
#101=EDGE_CURVE('',#130,#128,#153,.T.);
#102=EDGE_CURVE('',#130,#131,#154,.T.);
#103=EDGE_CURVE('',#131,#129,#155,.T.);
#104=EDGE_CURVE('',#129,#132,#156,.T.);
#105=EDGE_CURVE('',#131,#133,#157,.T.);
#106=EDGE_CURVE('',#133,#132,#158,.T.);
#107=EDGE_CURVE('',#132,#134,#159,.T.);
#108=EDGE_CURVE('',#133,#135,#160,.T.);
#109=EDGE_CURVE('',#135,#134,#161,.T.);
#110=EDGE_CURVE('',#136,#136,#20,.T.);
#111=EDGE_CURVE('',#137,#137,#21,.T.);
#112=EDGE_CURVE('',#138,#138,#22,.T.);
#113=EDGE_CURVE('',#139,#139,#23,.T.);
#114=EDGE_CURVE('',#140,#140,#24,.T.);
#115=EDGE_CURVE('',#141,#141,#25,.T.);
#116=EDGE_CURVE('',#142,#142,#26,.T.);
#117=EDGE_CURVE('',#143,#143,#27,.T.);
#118=EDGE_CURVE('',#144,#144,#28,.T.);
#119=EDGE_CURVE('',#145,#145,#29,.T.);
#120=EDGE_CURVE('',#146,#146,#30,.T.);
#121=EDGE_CURVE('',#147,#147,#31,.T.);
#122=EDGE_CURVE('',#148,#148,#32,.T.);
#123=EDGE_CURVE('',#149,#149,#33,.T.);
#124=EDGE_CURVE('',#150,#150,#34,.T.);
#125=EDGE_CURVE('',#151,#151,#35,.T.);
#126=EDGE_CURVE('',#134,#128,#162,.T.);
#127=EDGE_CURVE('',#135,#130,#163,.T.);
#128=VERTEX_POINT('',#392);
#129=VERTEX_POINT('',#393);
#130=VERTEX_POINT('',#395);
#131=VERTEX_POINT('',#397);
#132=VERTEX_POINT('',#401);
#133=VERTEX_POINT('',#403);
#134=VERTEX_POINT('',#407);
#135=VERTEX_POINT('',#409);
#136=VERTEX_POINT('',#413);
#137=VERTEX_POINT('',#415);
#138=VERTEX_POINT('',#418);
#139=VERTEX_POINT('',#420);
#140=VERTEX_POINT('',#423);
#141=VERTEX_POINT('',#425);
#142=VERTEX_POINT('',#428);
#143=VERTEX_POINT('',#430);
#144=VERTEX_POINT('',#433);
#145=VERTEX_POINT('',#435);
#146=VERTEX_POINT('',#438);
#147=VERTEX_POINT('',#440);
#148=VERTEX_POINT('',#443);
#149=VERTEX_POINT('',#445);
#150=VERTEX_POINT('',#448);
#151=VERTEX_POINT('',#450);
#152=LINE('',#391,#164);
#153=LINE('',#394,#165);
#154=LINE('',#396,#166);
#155=LINE('',#398,#167);
#156=LINE('',#400,#168);
#157=LINE('',#402,#169);
#158=LINE('',#404,#170);
#159=LINE('',#406,#171);
#160=LINE('',#408,#172);
#161=LINE('',#410,#173);
#162=LINE('',#452,#174);
#163=LINE('',#453,#175);
#164=VECTOR('',#319,1000.);
#165=VECTOR('',#320,1000.);
#166=VECTOR('',#321,1000.);
#167=VECTOR('',#322,1000.);
#168=VECTOR('',#325,1000.);
#169=VECTOR('',#326,1000.);
#170=VECTOR('',#327,1000.);
#171=VECTOR('',#330,1000.);
#172=VECTOR('',#331,1000.);
#173=VECTOR('',#332,1000.);
#174=VECTOR('',#383,1000.);
#175=VECTOR('',#384,1000.);
#176=EDGE_LOOP('',(#44,#45,#46,#47));
#177=EDGE_LOOP('',(#48,#49,#50,#51));
#178=EDGE_LOOP('',(#52,#53,#54,#55));
#179=EDGE_LOOP('',(#56));
#180=EDGE_LOOP('',(#57));
#181=EDGE_LOOP('',(#58));
#182=EDGE_LOOP('',(#59));
#183=EDGE_LOOP('',(#60));
#184=EDGE_LOOP('',(#61));
#185=EDGE_LOOP('',(#62));
#186=EDGE_LOOP('',(#63));
#187=EDGE_LOOP('',(#64));
#188=EDGE_LOOP('',(#65));
#189=EDGE_LOOP('',(#66));
#190=EDGE_LOOP('',(#67));
#191=EDGE_LOOP('',(#68));
#192=EDGE_LOOP('',(#69));
#193=EDGE_LOOP('',(#70));
#194=EDGE_LOOP('',(#71));
#195=EDGE_LOOP('',(#72,#73,#74,#75));
#196=EDGE_LOOP('',(#76));
#197=EDGE_LOOP('',(#77));
#198=EDGE_LOOP('',(#78));
#199=EDGE_LOOP('',(#79));
#200=EDGE_LOOP('',(#80));
#201=EDGE_LOOP('',(#81));
#202=EDGE_LOOP('',(#82));
#203=EDGE_LOOP('',(#83));
#204=EDGE_LOOP('',(#84,#85,#86,#87));
#205=EDGE_LOOP('',(#88));
#206=EDGE_LOOP('',(#89));
#207=EDGE_LOOP('',(#90));
#208=EDGE_LOOP('',(#91));
#209=EDGE_LOOP('',(#92));
#210=EDGE_LOOP('',(#93));
#211=EDGE_LOOP('',(#94));
#212=EDGE_LOOP('',(#95));
#213=EDGE_LOOP('',(#96,#97,#98,#99));
#214=FACE_BOUND('',#176,.T.);
#215=FACE_BOUND('',#177,.T.);
#216=FACE_BOUND('',#178,.T.);
#217=FACE_BOUND('',#179,.T.);
#218=FACE_BOUND('',#180,.T.);
#219=FACE_BOUND('',#181,.T.);
#220=FACE_BOUND('',#182,.T.);
#221=FACE_BOUND('',#183,.T.);
#222=FACE_BOUND('',#184,.T.);
#223=FACE_BOUND('',#185,.T.);
#224=FACE_BOUND('',#186,.T.);
#225=FACE_BOUND('',#187,.T.);
#226=FACE_BOUND('',#188,.T.);
#227=FACE_BOUND('',#189,.T.);
#228=FACE_BOUND('',#190,.T.);
#229=FACE_BOUND('',#191,.T.);
#230=FACE_BOUND('',#192,.T.);
#231=FACE_BOUND('',#193,.T.);
#232=FACE_BOUND('',#194,.T.);
#233=FACE_BOUND('',#195,.T.);
#234=FACE_BOUND('',#196,.T.);
#235=FACE_BOUND('',#197,.T.);
#236=FACE_BOUND('',#198,.T.);
#237=FACE_BOUND('',#199,.T.);
#238=FACE_BOUND('',#200,.T.);
#239=FACE_BOUND('',#201,.T.);
#240=FACE_BOUND('',#202,.T.);
#241=FACE_BOUND('',#203,.T.);
#242=FACE_BOUND('',#204,.T.);
#243=FACE_BOUND('',#205,.T.);
#244=FACE_BOUND('',#206,.T.);
#245=FACE_BOUND('',#207,.T.);
#246=FACE_BOUND('',#208,.T.);
#247=FACE_BOUND('',#209,.T.);
#248=FACE_BOUND('',#210,.T.);
#249=FACE_BOUND('',#211,.T.);
#250=FACE_BOUND('',#212,.T.);
#251=FACE_BOUND('',#213,.T.);
#252=PLANE('',#285);
#253=PLANE('',#286);
#254=PLANE('',#287);
#255=PLANE('',#312);
#256=PLANE('',#313);
#257=PLANE('',#314);
#258=ADVANCED_FACE('',(#214),#252,.T.);
#259=ADVANCED_FACE('',(#215),#253,.T.);
#260=ADVANCED_FACE('',(#216),#254,.T.);
#261=ADVANCED_FACE('',(#217,#218),#36,.F.);
#262=ADVANCED_FACE('',(#219,#220),#37,.F.);
#263=ADVANCED_FACE('',(#221,#222),#38,.F.);
#264=ADVANCED_FACE('',(#223,#224),#39,.F.);
#265=ADVANCED_FACE('',(#225,#226),#40,.F.);
#266=ADVANCED_FACE('',(#227,#228),#41,.F.);
#267=ADVANCED_FACE('',(#229,#230),#42,.F.);
#268=ADVANCED_FACE('',(#231,#232),#43,.F.);
#269=ADVANCED_FACE('',(#233),#255,.T.);
#270=ADVANCED_FACE('',(#234,#235,#236,#237,#238,#239,#240,#241,#242),#256,
 .F.);
#271=ADVANCED_FACE('',(#243,#244,#245,#246,#247,#248,#249,#250,#251),#257,
 .T.);
#272=CLOSED_SHELL('',(#258,#259,#260,#261,#262,#263,#264,#265,#266,#267,
#268,#269,#270,#271));
#273=STYLED_ITEM('',(#274),#281);
#274=PRESENTATION_STYLE_ASSIGNMENT((#275));
#275=SURFACE_STYLE_USAGE(.BOTH.,#276);
#276=SURFACE_SIDE_STYLE('',(#277));
#277=SURFACE_STYLE_FILL_AREA(#278);
#278=FILL_AREA_STYLE('',(#279));
#279=FILL_AREA_STYLE_COLOUR('',#280);
#280=COLOUR_RGB('',0.506983280181885,0.531564235687256,0.550000011920929);
#281=MANIFOLD_SOLID_BREP('',#272);
#282=SHAPE_DEFINITION_REPRESENTATION(#462,#283);
#283=SHAPE_REPRESENTATION('lianjie',(#284),#457);
#284=AXIS2_PLACEMENT_3D('',#389,#315,#316);
#285=AXIS2_PLACEMENT_3D('',#390,#317,#318);
#286=AXIS2_PLACEMENT_3D('',#399,#323,#324);
#287=AXIS2_PLACEMENT_3D('',#405,#328,#329);
#288=AXIS2_PLACEMENT_3D('',#411,#333,#334);
#289=AXIS2_PLACEMENT_3D('',#412,#335,#336);
#290=AXIS2_PLACEMENT_3D('',#414,#337,#338);
#291=AXIS2_PLACEMENT_3D('',#416,#339,#340);
#292=AXIS2_PLACEMENT_3D('',#417,#341,#342);
#293=AXIS2_PLACEMENT_3D('',#419,#343,#344);
#294=AXIS2_PLACEMENT_3D('',#421,#345,#346);
#295=AXIS2_PLACEMENT_3D('',#422,#347,#348);
#296=AXIS2_PLACEMENT_3D('',#424,#349,#350);
#297=AXIS2_PLACEMENT_3D('',#426,#351,#352);
#298=AXIS2_PLACEMENT_3D('',#427,#353,#354);
#299=AXIS2_PLACEMENT_3D('',#429,#355,#356);
#300=AXIS2_PLACEMENT_3D('',#431,#357,#358);
#301=AXIS2_PLACEMENT_3D('',#432,#359,#360);
#302=AXIS2_PLACEMENT_3D('',#434,#361,#362);
#303=AXIS2_PLACEMENT_3D('',#436,#363,#364);
#304=AXIS2_PLACEMENT_3D('',#437,#365,#366);
#305=AXIS2_PLACEMENT_3D('',#439,#367,#368);
#306=AXIS2_PLACEMENT_3D('',#441,#369,#370);
#307=AXIS2_PLACEMENT_3D('',#442,#371,#372);
#308=AXIS2_PLACEMENT_3D('',#444,#373,#374);
#309=AXIS2_PLACEMENT_3D('',#446,#375,#376);
#310=AXIS2_PLACEMENT_3D('',#447,#377,#378);
#311=AXIS2_PLACEMENT_3D('',#449,#379,#380);
#312=AXIS2_PLACEMENT_3D('',#451,#381,#382);
#313=AXIS2_PLACEMENT_3D('',#454,#385,#386);
#314=AXIS2_PLACEMENT_3D('',#455,#387,#388);
#315=DIRECTION('',(0.,0.,1.));
#316=DIRECTION('',(1.,0.,0.));
#317=DIRECTION('',(1.,0.,0.));
#318=DIRECTION('',(0.,0.,-1.));
#319=DIRECTION('',(0.,0.,-1.));
#320=DIRECTION('',(0.,1.,0.));
#321=DIRECTION('',(0.,0.,-1.));
#322=DIRECTION('',(0.,1.,0.));
#323=DIRECTION('',(0.,0.,-1.));
#324=DIRECTION('',(-1.,0.,0.));
#325=DIRECTION('',(-1.,0.,0.));
#326=DIRECTION('',(-1.,0.,0.));
#327=DIRECTION('',(0.,1.,0.));
#328=DIRECTION('',(-1.,0.,0.));
#329=DIRECTION('',(0.,0.,1.));
#330=DIRECTION('',(0.,0.,1.));
#331=DIRECTION('',(0.,0.,1.));
#332=DIRECTION('',(0.,1.,0.));
#333=DIRECTION('',(0.,1.,0.));
#334=DIRECTION('',(0.,0.,1.));
#335=DIRECTION('',(0.,-1.,0.));
#336=DIRECTION('',(1.,0.,0.));
#337=DIRECTION('',(0.,-1.,0.));
#338=DIRECTION('',(1.,0.,0.));
#339=DIRECTION('',(0.,1.,0.));
#340=DIRECTION('',(0.,0.,1.));
#341=DIRECTION('',(0.,-1.,0.));
#342=DIRECTION('',(1.,0.,0.));
#343=DIRECTION('',(0.,-1.,0.));
#344=DIRECTION('',(1.,0.,0.));
#345=DIRECTION('',(0.,1.,0.));
#346=DIRECTION('',(0.,0.,1.));
#347=DIRECTION('',(0.,-1.,0.));
#348=DIRECTION('',(1.,0.,0.));
#349=DIRECTION('',(0.,-1.,0.));
#350=DIRECTION('',(1.,0.,0.));
#351=DIRECTION('',(0.,1.,0.));
#352=DIRECTION('',(0.,0.,1.));
#353=DIRECTION('',(0.,-1.,0.));
#354=DIRECTION('',(1.,0.,0.));
#355=DIRECTION('',(0.,-1.,0.));
#356=DIRECTION('',(1.,0.,0.));
#357=DIRECTION('',(0.,1.,0.));
#358=DIRECTION('',(0.,0.,1.));
#359=DIRECTION('',(0.,-1.,0.));
#360=DIRECTION('',(1.,0.,0.));
#361=DIRECTION('',(0.,-1.,0.));
#362=DIRECTION('',(1.,0.,0.));
#363=DIRECTION('',(0.,1.,0.));
#364=DIRECTION('',(0.,0.,1.));
#365=DIRECTION('',(0.,-1.,0.));
#366=DIRECTION('',(1.,0.,0.));
#367=DIRECTION('',(0.,-1.,0.));
#368=DIRECTION('',(1.,0.,0.));
#369=DIRECTION('',(0.,1.,0.));
#370=DIRECTION('',(0.,0.,1.));
#371=DIRECTION('',(0.,-1.,0.));
#372=DIRECTION('',(1.,0.,0.));
#373=DIRECTION('',(0.,-1.,0.));
#374=DIRECTION('',(1.,0.,0.));
#375=DIRECTION('',(0.,1.,0.));
#376=DIRECTION('',(0.,0.,1.));
#377=DIRECTION('',(0.,-1.,0.));
#378=DIRECTION('',(1.,0.,0.));
#379=DIRECTION('',(0.,-1.,0.));
#380=DIRECTION('',(1.,0.,0.));
#381=DIRECTION('',(0.,0.,1.));
#382=DIRECTION('',(1.,0.,0.));
#383=DIRECTION('',(1.,0.,0.));
#384=DIRECTION('',(1.,0.,0.));
#385=DIRECTION('',(0.,1.,0.));
#386=DIRECTION('',(0.,0.,1.));
#387=DIRECTION('',(0.,1.,0.));
#388=DIRECTION('',(0.,0.,1.));
#389=CARTESIAN_POINT('',(0.,0.,0.));
#390=CARTESIAN_POINT('',(12.,-3.,100.));
#391=CARTESIAN_POINT('',(12.,0.,100.));
#392=CARTESIAN_POINT('',(12.,0.,100.));
#393=CARTESIAN_POINT('',(12.,0.,-100.));
#394=CARTESIAN_POINT('',(12.,-3.,100.));
#395=CARTESIAN_POINT('',(12.,-3.,100.));
#396=CARTESIAN_POINT('',(12.,-3.,100.));
#397=CARTESIAN_POINT('',(12.,-3.,-100.));
#398=CARTESIAN_POINT('',(12.,-3.,-100.));
#399=CARTESIAN_POINT('',(12.,-3.,-100.));
#400=CARTESIAN_POINT('',(12.,0.,-100.));
#401=CARTESIAN_POINT('',(-12.,0.,-100.));
#402=CARTESIAN_POINT('',(12.,-3.,-100.));
#403=CARTESIAN_POINT('',(-12.,-3.,-100.));
#404=CARTESIAN_POINT('',(-12.,-3.,-100.));
#405=CARTESIAN_POINT('',(-12.,-3.,-100.));
#406=CARTESIAN_POINT('',(-12.,0.,-100.));
#407=CARTESIAN_POINT('',(-12.,0.,100.));
#408=CARTESIAN_POINT('',(-12.,-3.,-100.));
#409=CARTESIAN_POINT('',(-12.,-3.,100.));
#410=CARTESIAN_POINT('',(-12.,-3.,100.));
#411=CARTESIAN_POINT('',(6.,-3.,-30.));
#412=CARTESIAN_POINT('',(6.,-3.,-30.));
#413=CARTESIAN_POINT('',(7.5,-3.,-30.));
#414=CARTESIAN_POINT('',(6.,0.,-30.));
#415=CARTESIAN_POINT('',(7.5,0.,-30.));
#416=CARTESIAN_POINT('',(6.,-3.,30.));
#417=CARTESIAN_POINT('',(6.,-3.,30.));
#418=CARTESIAN_POINT('',(7.5,-3.,30.));
#419=CARTESIAN_POINT('',(6.,0.,30.));
#420=CARTESIAN_POINT('',(7.5,0.,30.));
#421=CARTESIAN_POINT('',(6.,-3.,90.));
#422=CARTESIAN_POINT('',(6.,-3.,90.));
#423=CARTESIAN_POINT('',(7.5,-3.,90.));
#424=CARTESIAN_POINT('',(6.,0.,90.));
#425=CARTESIAN_POINT('',(7.5,0.,90.));
#426=CARTESIAN_POINT('',(6.,-3.,-90.));
#427=CARTESIAN_POINT('',(6.,-3.,-90.));
#428=CARTESIAN_POINT('',(7.5,-3.,-90.));
#429=CARTESIAN_POINT('',(6.,0.,-90.));
#430=CARTESIAN_POINT('',(7.5,0.,-90.));
#431=CARTESIAN_POINT('',(-6.,-3.,90.));
#432=CARTESIAN_POINT('',(-6.,-3.,90.));
#433=CARTESIAN_POINT('',(-4.5,-3.,90.));
#434=CARTESIAN_POINT('',(-6.,0.,90.));
#435=CARTESIAN_POINT('',(-4.5,0.,90.));
#436=CARTESIAN_POINT('',(-6.,-3.,30.));
#437=CARTESIAN_POINT('',(-6.,-3.,30.));
#438=CARTESIAN_POINT('',(-4.5,-3.,30.));
#439=CARTESIAN_POINT('',(-6.,0.,30.));
#440=CARTESIAN_POINT('',(-4.5,0.,30.));
#441=CARTESIAN_POINT('',(-6.,-3.,-30.));
#442=CARTESIAN_POINT('',(-6.,-3.,-30.));
#443=CARTESIAN_POINT('',(-4.5,-3.,-30.));
#444=CARTESIAN_POINT('',(-6.,0.,-30.));
#445=CARTESIAN_POINT('',(-4.5,0.,-30.));
#446=CARTESIAN_POINT('',(-6.,-3.,-90.));
#447=CARTESIAN_POINT('',(-6.,-3.,-90.));
#448=CARTESIAN_POINT('',(-4.5,-3.,-90.));
#449=CARTESIAN_POINT('',(-6.,0.,-90.));
#450=CARTESIAN_POINT('',(-4.5,0.,-90.));
#451=CARTESIAN_POINT('',(-12.,-3.,100.));
#452=CARTESIAN_POINT('',(-12.,0.,100.));
#453=CARTESIAN_POINT('',(-12.,-3.,100.));
#454=CARTESIAN_POINT('',(0.,-3.,0.));
#455=CARTESIAN_POINT('',(0.,0.,0.));
#456=MECHANICAL_DESIGN_GEOMETRIC_PRESENTATION_REPRESENTATION('',(#273),
#457);
#457=(
GEOMETRIC_REPRESENTATION_CONTEXT(3)
GLOBAL_UNCERTAINTY_ASSIGNED_CONTEXT((#458))
GLOBAL_UNIT_ASSIGNED_CONTEXT((#461,#460,#459))
REPRESENTATION_CONTEXT('lianjie','TOP_LEVEL_ASSEMBLY_PART')
);
#458=UNCERTAINTY_MEASURE_WITH_UNIT(LENGTH_MEASURE(0.005),#461,
'DISTANCE_ACCURACY_VALUE','Maximum Tolerance applied to model');
#459=(
NAMED_UNIT(*)
SI_UNIT($,.STERADIAN.)
SOLID_ANGLE_UNIT()
);
#460=(
NAMED_UNIT(*)
PLANE_ANGLE_UNIT()
SI_UNIT($,.RADIAN.)
);
#461=(
LENGTH_UNIT()
NAMED_UNIT(*)
SI_UNIT(.MILLI.,.METRE.)
);
#462=PRODUCT_DEFINITION_SHAPE('','',#463);
#463=PRODUCT_DEFINITION('','',#465,#464);
#464=PRODUCT_DEFINITION_CONTEXT('',#471,'design');
#465=PRODUCT_DEFINITION_FORMATION_WITH_SPECIFIED_SOURCE('','',#467,
 .NOT_KNOWN.);
#466=PRODUCT_RELATED_PRODUCT_CATEGORY('','',(#467));
#467=PRODUCT('lianjie','lianjie','lianjie',(#469));
#468=PRODUCT_CATEGORY('','');
#469=PRODUCT_CONTEXT('',#471,'mechanical');
#470=APPLICATION_PROTOCOL_DEFINITION('international standard',
'automotive_design',2010,#471);
#471=APPLICATION_CONTEXT(
'core data for automotive mechanical design processes');
ENDSEC;
END-ISO-10303-21;
