ISO-10303-21;
HEADER;
/* Generated by software containing ST-Developer
 * from STEP Tools, Inc. (www.steptools.com) 
 */
/* OPTION: strings as raw bytes, not using required /X/ escapes */

FILE_DESCRIPTION(
/* description */ ('Unknown'),
/* implementation_level */ '2;1');

FILE_NAME(
/* name */ 'åˆšä½“å›ºå®šæž¶',
/* time_stamp */ '2024-10-22T10:03:35+08:00',
/* author */ ('Unknown'),
/* organization */ ('Unknown'),
/* preprocessor_version */ 'ST-DEVELOPER v16.7',
/* originating_system */ 'Solid Edge',
/* authorisation */ 'Unknown');

FILE_SCHEMA (('AUTOMOTIVE_DESIGN {1 0 10303 214 3 1 1}'));
ENDSEC;

DATA;
#10=PROPERTY_DEFINITION_REPRESENTATION(#14,#12);
#11=PROPERTY_DEFINITION_REPRESENTATION(#15,#13);
#12=REPRESENTATION('',(#16),#527);
#13=REPRESENTATION('',(#17),#527);
#14=PROPERTY_DEFINITION('pmi validation property','',#532);
#15=PROPERTY_DEFINITION('pmi validation property','',#532);
#16=VALUE_REPRESENTATION_ITEM('number of annotations',COUNT_MEASURE(0.));
#17=VALUE_REPRESENTATION_ITEM('number of views',COUNT_MEASURE(0.));
#18=SHAPE_REPRESENTATION_RELATIONSHIP('','',#321,#19);
#19=ADVANCED_BREP_SHAPE_REPRESENTATION('',(#319),#527);
#20=PLANE('',#326);
#21=PLANE('',#330);
#22=PLANE('',#334);
#23=PLANE('',#336);
#24=PLANE('',#337);
#25=PLANE('',#340);
#26=PLANE('',#341);
#27=PLANE('',#343);
#28=PLANE('',#346);
#29=LINE('',#446,#55);
#30=LINE('',#450,#56);
#31=LINE('',#452,#57);
#32=LINE('',#454,#58);
#33=LINE('',#456,#59);
#34=LINE('',#460,#60);
#35=LINE('',#464,#61);
#36=LINE('',#466,#62);
#37=LINE('',#468,#63);
#38=LINE('',#472,#64);
#39=LINE('',#478,#65);
#40=LINE('',#480,#66);
#41=LINE('',#482,#67);
#42=LINE('',#484,#68);
#43=LINE('',#486,#69);
#44=LINE('',#488,#70);
#45=LINE('',#494,#71);
#46=LINE('',#497,#72);
#47=LINE('',#499,#73);
#48=LINE('',#501,#74);
#49=LINE('',#503,#75);
#50=LINE('',#506,#76);
#51=LINE('',#508,#77);
#52=LINE('',#510,#78);
#53=LINE('',#514,#79);
#54=LINE('',#515,#80);
#55=VECTOR('',#359,1000.);
#56=VECTOR('',#362,1000.);
#57=VECTOR('',#365,1000.);
#58=VECTOR('',#366,1000.);
#59=VECTOR('',#367,1000.);
#60=VECTOR('',#372,1000.);
#61=VECTOR('',#377,1000.);
#62=VECTOR('',#378,1000.);
#63=VECTOR('',#379,1000.);
#64=VECTOR('',#384,1000.);
#65=VECTOR('',#391,1000.);
#66=VECTOR('',#392,1000.);
#67=VECTOR('',#393,1000.);
#68=VECTOR('',#396,1000.);
#69=VECTOR('',#397,1000.);
#70=VECTOR('',#398,1000.);
#71=VECTOR('',#405,1000.);
#72=VECTOR('',#406,1000.);
#73=VECTOR('',#407,1000.);
#74=VECTOR('',#408,1000.);
#75=VECTOR('',#411,1000.);
#76=VECTOR('',#412,1000.);
#77=VECTOR('',#413,1000.);
#78=VECTOR('',#414,1000.);
#79=VECTOR('',#419,1000.);
#80=VECTOR('',#420,1000.);
#81=ORIENTED_EDGE('',*,*,#161,.T.);
#82=ORIENTED_EDGE('',*,*,#162,.F.);
#83=ORIENTED_EDGE('',*,*,#163,.F.);
#84=ORIENTED_EDGE('',*,*,#164,.T.);
#85=ORIENTED_EDGE('',*,*,#165,.T.);
#86=ORIENTED_EDGE('',*,*,#166,.F.);
#87=ORIENTED_EDGE('',*,*,#167,.F.);
#88=ORIENTED_EDGE('',*,*,#162,.T.);
#89=ORIENTED_EDGE('',*,*,#168,.T.);
#90=ORIENTED_EDGE('',*,*,#169,.F.);
#91=ORIENTED_EDGE('',*,*,#170,.F.);
#92=ORIENTED_EDGE('',*,*,#166,.T.);
#93=ORIENTED_EDGE('',*,*,#171,.T.);
#94=ORIENTED_EDGE('',*,*,#172,.F.);
#95=ORIENTED_EDGE('',*,*,#173,.F.);
#96=ORIENTED_EDGE('',*,*,#169,.T.);
#97=ORIENTED_EDGE('',*,*,#174,.T.);
#98=ORIENTED_EDGE('',*,*,#175,.F.);
#99=ORIENTED_EDGE('',*,*,#176,.F.);
#100=ORIENTED_EDGE('',*,*,#172,.T.);
#101=ORIENTED_EDGE('',*,*,#177,.F.);
#102=ORIENTED_EDGE('',*,*,#178,.T.);
#103=ORIENTED_EDGE('',*,*,#179,.F.);
#104=ORIENTED_EDGE('',*,*,#180,.F.);
#105=ORIENTED_EDGE('',*,*,#175,.T.);
#106=ORIENTED_EDGE('',*,*,#181,.T.);
#107=ORIENTED_EDGE('',*,*,#182,.T.);
#108=ORIENTED_EDGE('',*,*,#183,.F.);
#109=ORIENTED_EDGE('',*,*,#179,.T.);
#110=ORIENTED_EDGE('',*,*,#184,.T.);
#111=ORIENTED_EDGE('',*,*,#185,.T.);
#112=ORIENTED_EDGE('',*,*,#186,.T.);
#113=ORIENTED_EDGE('',*,*,#187,.T.);
#114=ORIENTED_EDGE('',*,*,#188,.F.);
#115=ORIENTED_EDGE('',*,*,#189,.T.);
#116=ORIENTED_EDGE('',*,*,#190,.F.);
#117=ORIENTED_EDGE('',*,*,#191,.T.);
#118=ORIENTED_EDGE('',*,*,#192,.T.);
#119=ORIENTED_EDGE('',*,*,#193,.F.);
#120=ORIENTED_EDGE('',*,*,#194,.F.);
#121=ORIENTED_EDGE('',*,*,#195,.T.);
#122=ORIENTED_EDGE('',*,*,#164,.F.);
#123=ORIENTED_EDGE('',*,*,#196,.F.);
#124=ORIENTED_EDGE('',*,*,#193,.T.);
#125=ORIENTED_EDGE('',*,*,#188,.T.);
#126=ORIENTED_EDGE('',*,*,#197,.T.);
#127=ORIENTED_EDGE('',*,*,#190,.T.);
#128=ORIENTED_EDGE('',*,*,#196,.T.);
#129=ORIENTED_EDGE('',*,*,#163,.T.);
#130=ORIENTED_EDGE('',*,*,#167,.T.);
#131=ORIENTED_EDGE('',*,*,#170,.T.);
#132=ORIENTED_EDGE('',*,*,#173,.T.);
#133=ORIENTED_EDGE('',*,*,#176,.T.);
#134=ORIENTED_EDGE('',*,*,#180,.T.);
#135=ORIENTED_EDGE('',*,*,#183,.T.);
#136=ORIENTED_EDGE('',*,*,#198,.T.);
#137=ORIENTED_EDGE('',*,*,#192,.F.);
#138=ORIENTED_EDGE('',*,*,#199,.T.);
#139=ORIENTED_EDGE('',*,*,#186,.F.);
#140=ORIENTED_EDGE('',*,*,#200,.T.);
#141=ORIENTED_EDGE('',*,*,#181,.F.);
#142=ORIENTED_EDGE('',*,*,#178,.F.);
#143=ORIENTED_EDGE('',*,*,#174,.F.);
#144=ORIENTED_EDGE('',*,*,#171,.F.);
#145=ORIENTED_EDGE('',*,*,#168,.F.);
#146=ORIENTED_EDGE('',*,*,#165,.F.);
#147=ORIENTED_EDGE('',*,*,#161,.F.);
#148=ORIENTED_EDGE('',*,*,#195,.F.);
#149=ORIENTED_EDGE('',*,*,#185,.F.);
#150=ORIENTED_EDGE('',*,*,#194,.T.);
#151=ORIENTED_EDGE('',*,*,#184,.F.);
#152=ORIENTED_EDGE('',*,*,#177,.T.);
#153=ORIENTED_EDGE('',*,*,#198,.F.);
#154=ORIENTED_EDGE('',*,*,#182,.F.);
#155=ORIENTED_EDGE('',*,*,#200,.F.);
#156=ORIENTED_EDGE('',*,*,#189,.F.);
#157=ORIENTED_EDGE('',*,*,#197,.F.);
#158=ORIENTED_EDGE('',*,*,#187,.F.);
#159=ORIENTED_EDGE('',*,*,#199,.F.);
#160=ORIENTED_EDGE('',*,*,#191,.F.);
#161=EDGE_CURVE('',#201,#202,#229,.T.);
#162=EDGE_CURVE('',#203,#202,#29,.T.);
#163=EDGE_CURVE('',#204,#203,#230,.T.);
#164=EDGE_CURVE('',#204,#201,#30,.T.);
#165=EDGE_CURVE('',#202,#205,#31,.T.);
#166=EDGE_CURVE('',#206,#205,#32,.T.);
#167=EDGE_CURVE('',#203,#206,#33,.T.);
#168=EDGE_CURVE('',#205,#207,#231,.T.);
#169=EDGE_CURVE('',#208,#207,#34,.T.);
#170=EDGE_CURVE('',#206,#208,#232,.T.);
#171=EDGE_CURVE('',#207,#209,#35,.T.);
#172=EDGE_CURVE('',#210,#209,#36,.T.);
#173=EDGE_CURVE('',#208,#210,#37,.T.);
#174=EDGE_CURVE('',#209,#211,#233,.T.);
#175=EDGE_CURVE('',#212,#211,#38,.T.);
#176=EDGE_CURVE('',#210,#212,#234,.T.);
#177=EDGE_CURVE('',#213,#213,#235,.F.);
#178=EDGE_CURVE('',#211,#214,#39,.T.);
#179=EDGE_CURVE('',#215,#214,#40,.T.);
#180=EDGE_CURVE('',#212,#215,#41,.T.);
#181=EDGE_CURVE('',#214,#216,#42,.T.);
#182=EDGE_CURVE('',#216,#217,#43,.F.);
#183=EDGE_CURVE('',#215,#217,#44,.T.);
#184=EDGE_CURVE('',#218,#218,#236,.T.);
#185=EDGE_CURVE('',#219,#219,#237,.T.);
#186=EDGE_CURVE('',#220,#221,#45,.T.);
#187=EDGE_CURVE('',#221,#222,#46,.F.);
#188=EDGE_CURVE('',#223,#222,#47,.T.);
#189=EDGE_CURVE('',#223,#220,#48,.T.);
#190=EDGE_CURVE('',#224,#225,#49,.T.);
#191=EDGE_CURVE('',#224,#226,#50,.T.);
#192=EDGE_CURVE('',#226,#227,#51,.T.);
#193=EDGE_CURVE('',#225,#227,#52,.T.);
#194=EDGE_CURVE('',#228,#228,#238,.F.);
#195=EDGE_CURVE('',#227,#201,#53,.T.);
#196=EDGE_CURVE('',#225,#204,#54,.T.);
#197=EDGE_CURVE('',#222,#224,#239,.F.);
#198=EDGE_CURVE('',#217,#223,#240,.F.);
#199=EDGE_CURVE('',#226,#221,#241,.T.);
#200=EDGE_CURVE('',#220,#216,#242,.T.);
#201=VERTEX_POINT('',#444);
#202=VERTEX_POINT('',#445);
#203=VERTEX_POINT('',#447);
#204=VERTEX_POINT('',#449);
#205=VERTEX_POINT('',#453);
#206=VERTEX_POINT('',#455);
#207=VERTEX_POINT('',#459);
#208=VERTEX_POINT('',#461);
#209=VERTEX_POINT('',#465);
#210=VERTEX_POINT('',#467);
#211=VERTEX_POINT('',#471);
#212=VERTEX_POINT('',#473);
#213=VERTEX_POINT('',#477);
#214=VERTEX_POINT('',#479);
#215=VERTEX_POINT('',#481);
#216=VERTEX_POINT('',#485);
#217=VERTEX_POINT('',#487);
#218=VERTEX_POINT('',#491);
#219=VERTEX_POINT('',#493);
#220=VERTEX_POINT('',#495);
#221=VERTEX_POINT('',#496);
#222=VERTEX_POINT('',#498);
#223=VERTEX_POINT('',#500);
#224=VERTEX_POINT('',#504);
#225=VERTEX_POINT('',#505);
#226=VERTEX_POINT('',#507);
#227=VERTEX_POINT('',#509);
#228=VERTEX_POINT('',#513);
#229=CIRCLE('',#324,15.);
#230=CIRCLE('',#325,15.);
#231=CIRCLE('',#328,15.);
#232=CIRCLE('',#329,15.);
#233=CIRCLE('',#332,15.);
#234=CIRCLE('',#333,15.);
#235=CIRCLE('',#335,5.5);
#236=CIRCLE('',#338,5.5);
#237=CIRCLE('',#339,5.5);
#238=CIRCLE('',#342,5.5);
#239=CIRCLE('',#344,0.999999999999999);
#240=CIRCLE('',#345,0.999999999999999);
#241=CIRCLE('',#347,0.999999999999999);
#242=CIRCLE('',#348,0.999999999999999);
#243=EDGE_LOOP('',(#81,#82,#83,#84));
#244=EDGE_LOOP('',(#85,#86,#87,#88));
#245=EDGE_LOOP('',(#89,#90,#91,#92));
#246=EDGE_LOOP('',(#93,#94,#95,#96));
#247=EDGE_LOOP('',(#97,#98,#99,#100));
#248=EDGE_LOOP('',(#101));
#249=EDGE_LOOP('',(#102,#103,#104,#105));
#250=EDGE_LOOP('',(#106,#107,#108,#109));
#251=EDGE_LOOP('',(#110));
#252=EDGE_LOOP('',(#111));
#253=EDGE_LOOP('',(#112,#113,#114,#115));
#254=EDGE_LOOP('',(#116,#117,#118,#119));
#255=EDGE_LOOP('',(#120));
#256=EDGE_LOOP('',(#121,#122,#123,#124));
#257=EDGE_LOOP('',(#125,#126,#127,#128,#129,#130,#131,#132,#133,#134,#135,
#136));
#258=EDGE_LOOP('',(#137,#138,#139,#140,#141,#142,#143,#144,#145,#146,#147,
#148));
#259=EDGE_LOOP('',(#149));
#260=EDGE_LOOP('',(#150));
#261=EDGE_LOOP('',(#151));
#262=EDGE_LOOP('',(#152));
#263=EDGE_LOOP('',(#153,#154,#155,#156));
#264=EDGE_LOOP('',(#157,#158,#159,#160));
#265=FACE_BOUND('',#243,.T.);
#266=FACE_BOUND('',#244,.T.);
#267=FACE_BOUND('',#245,.T.);
#268=FACE_BOUND('',#246,.T.);
#269=FACE_BOUND('',#247,.T.);
#270=FACE_BOUND('',#248,.T.);
#271=FACE_BOUND('',#249,.T.);
#272=FACE_BOUND('',#250,.T.);
#273=FACE_BOUND('',#251,.T.);
#274=FACE_BOUND('',#252,.T.);
#275=FACE_BOUND('',#253,.T.);
#276=FACE_BOUND('',#254,.T.);
#277=FACE_BOUND('',#255,.T.);
#278=FACE_BOUND('',#256,.T.);
#279=FACE_BOUND('',#257,.T.);
#280=FACE_BOUND('',#258,.T.);
#281=FACE_BOUND('',#259,.T.);
#282=FACE_BOUND('',#260,.T.);
#283=FACE_BOUND('',#261,.T.);
#284=FACE_BOUND('',#262,.T.);
#285=FACE_BOUND('',#263,.T.);
#286=FACE_BOUND('',#264,.T.);
#287=CYLINDRICAL_SURFACE('',#323,15.);
#288=CYLINDRICAL_SURFACE('',#327,15.);
#289=CYLINDRICAL_SURFACE('',#331,15.);
#290=CYLINDRICAL_SURFACE('',#349,5.5);
#291=CYLINDRICAL_SURFACE('',#350,5.5);
#292=CYLINDRICAL_SURFACE('',#351,0.999999999999999);
#293=CYLINDRICAL_SURFACE('',#352,0.999999999999999);
#294=ADVANCED_FACE('',(#265),#287,.F.);
#295=ADVANCED_FACE('',(#266),#20,.F.);
#296=ADVANCED_FACE('',(#267),#288,.F.);
#297=ADVANCED_FACE('',(#268),#21,.F.);
#298=ADVANCED_FACE('',(#269),#289,.F.);
#299=ADVANCED_FACE('',(#270,#271),#22,.F.);
#300=ADVANCED_FACE('',(#272),#23,.F.);
#301=ADVANCED_FACE('',(#273,#274,#275),#24,.F.);
#302=ADVANCED_FACE('',(#276),#25,.F.);
#303=ADVANCED_FACE('',(#277,#278),#26,.F.);
#304=ADVANCED_FACE('',(#279),#27,.F.);
#305=ADVANCED_FACE('',(#280),#28,.T.);
#306=ADVANCED_FACE('',(#281,#282),#290,.F.);
#307=ADVANCED_FACE('',(#283,#284),#291,.F.);
#308=ADVANCED_FACE('',(#285),#292,.T.);
#309=ADVANCED_FACE('',(#286),#293,.T.);
#310=CLOSED_SHELL('',(#294,#295,#296,#297,#298,#299,#300,#301,#302,#303,
#304,#305,#306,#307,#308,#309));
#311=STYLED_ITEM('',(#312),#319);
#312=PRESENTATION_STYLE_ASSIGNMENT((#313));
#313=SURFACE_STYLE_USAGE(.BOTH.,#314);
#314=SURFACE_SIDE_STYLE('',(#315));
#315=SURFACE_STYLE_FILL_AREA(#316);
#316=FILL_AREA_STYLE('',(#317));
#317=FILL_AREA_STYLE_COLOUR('',#318);
#318=COLOUR_RGB('',0.506983280181885,0.531564235687256,0.550000011920929);
#319=MANIFOLD_SOLID_BREP('',#310);
#320=SHAPE_DEFINITION_REPRESENTATION(#532,#321);
#321=SHAPE_REPRESENTATION('¸ÕÌå¹Ì',(#322),#527);
#322=AXIS2_PLACEMENT_3D('',#441,#353,#354);
#323=AXIS2_PLACEMENT_3D('',#442,#355,#356);
#324=AXIS2_PLACEMENT_3D('',#443,#357,#358);
#325=AXIS2_PLACEMENT_3D('',#448,#360,#361);
#326=AXIS2_PLACEMENT_3D('',#451,#363,#364);
#327=AXIS2_PLACEMENT_3D('',#457,#368,#369);
#328=AXIS2_PLACEMENT_3D('',#458,#370,#371);
#329=AXIS2_PLACEMENT_3D('',#462,#373,#374);
#330=AXIS2_PLACEMENT_3D('',#463,#375,#376);
#331=AXIS2_PLACEMENT_3D('',#469,#380,#381);
#332=AXIS2_PLACEMENT_3D('',#470,#382,#383);
#333=AXIS2_PLACEMENT_3D('',#474,#385,#386);
#334=AXIS2_PLACEMENT_3D('',#475,#387,#388);
#335=AXIS2_PLACEMENT_3D('',#476,#389,#390);
#336=AXIS2_PLACEMENT_3D('',#483,#394,#395);
#337=AXIS2_PLACEMENT_3D('',#489,#399,#400);
#338=AXIS2_PLACEMENT_3D('',#490,#401,#402);
#339=AXIS2_PLACEMENT_3D('',#492,#403,#404);
#340=AXIS2_PLACEMENT_3D('',#502,#409,#410);
#341=AXIS2_PLACEMENT_3D('',#511,#415,#416);
#342=AXIS2_PLACEMENT_3D('',#512,#417,#418);
#343=AXIS2_PLACEMENT_3D('',#516,#421,#422);
#344=AXIS2_PLACEMENT_3D('',#517,#423,#424);
#345=AXIS2_PLACEMENT_3D('',#518,#425,#426);
#346=AXIS2_PLACEMENT_3D('',#519,#427,#428);
#347=AXIS2_PLACEMENT_3D('',#520,#429,#430);
#348=AXIS2_PLACEMENT_3D('',#521,#431,#432);
#349=AXIS2_PLACEMENT_3D('',#522,#433,#434);
#350=AXIS2_PLACEMENT_3D('',#523,#435,#436);
#351=AXIS2_PLACEMENT_3D('',#524,#437,#438);
#352=AXIS2_PLACEMENT_3D('',#525,#439,#440);
#353=DIRECTION('',(0.,0.,1.));
#354=DIRECTION('',(1.,0.,0.));
#355=DIRECTION('',(0.,-1.,0.));
#356=DIRECTION('',(0.,0.,-1.));
#357=DIRECTION('',(0.,-1.,0.));
#358=DIRECTION('',(1.,0.,0.));
#359=DIRECTION('',(0.,-1.,0.));
#360=DIRECTION('',(0.,-1.,0.));
#361=DIRECTION('',(1.,0.,0.));
#362=DIRECTION('',(0.,-1.,0.));
#363=DIRECTION('',(-6.93889390390722E-16,0.,1.));
#364=DIRECTION('',(1.,0.,6.93889390390722E-16));
#365=DIRECTION('',(-1.,0.,-6.93889390390722E-16));
#366=DIRECTION('',(0.,-1.,0.));
#367=DIRECTION('',(-1.,0.,-6.93889390390722E-16));
#368=DIRECTION('',(0.,-1.,0.));
#369=DIRECTION('',(0.,0.,-1.));
#370=DIRECTION('',(0.,-1.,0.));
#371=DIRECTION('',(1.,0.,0.));
#372=DIRECTION('',(0.,-1.,0.));
#373=DIRECTION('',(0.,-1.,0.));
#374=DIRECTION('',(1.,0.,0.));
#375=DIRECTION('',(0.,0.,1.));
#376=DIRECTION('',(1.,0.,0.));
#377=DIRECTION('',(-1.,0.,0.));
#378=DIRECTION('',(0.,-1.,0.));
#379=DIRECTION('',(-1.,0.,0.));
#380=DIRECTION('',(0.,-1.,0.));
#381=DIRECTION('',(0.,0.,-1.));
#382=DIRECTION('',(0.,-1.,0.));
#383=DIRECTION('',(1.,0.,0.));
#384=DIRECTION('',(0.,-1.,0.));
#385=DIRECTION('',(0.,-1.,0.));
#386=DIRECTION('',(1.,0.,0.));
#387=DIRECTION('',(-1.5419764230905E-16,0.,1.));
#388=DIRECTION('',(1.,0.,1.5419764230905E-16));
#389=DIRECTION('',(-1.5419764230905E-16,0.,1.));
#390=DIRECTION('',(1.,0.,1.5419764230905E-16));
#391=DIRECTION('',(-1.,0.,-1.5419764230905E-16));
#392=DIRECTION('',(0.,-1.,0.));
#393=DIRECTION('',(-1.,0.,-1.5419764230905E-16));
#394=DIRECTION('',(1.,0.,0.));
#395=DIRECTION('',(0.,0.,-1.));
#396=DIRECTION('',(0.,0.,1.));
#397=DIRECTION('',(0.,-1.,0.));
#398=DIRECTION('',(0.,0.,1.));
#399=DIRECTION('',(0.,0.,-1.));
#400=DIRECTION('',(-1.,0.,0.));
#401=DIRECTION('',(0.,0.,-1.));
#402=DIRECTION('',(1.,0.,0.));
#403=DIRECTION('',(0.,0.,-1.));
#404=DIRECTION('',(1.,0.,0.));
#405=DIRECTION('',(1.,0.,0.));
#406=DIRECTION('',(0.,-1.,0.));
#407=DIRECTION('',(1.,0.,0.));
#408=DIRECTION('',(0.,-1.,0.));
#409=DIRECTION('',(-1.,0.,0.));
#410=DIRECTION('',(0.,0.,1.));
#411=DIRECTION('',(0.,0.,-1.));
#412=DIRECTION('',(0.,-1.,0.));
#413=DIRECTION('',(0.,0.,-1.));
#414=DIRECTION('',(0.,-1.,0.));
#415=DIRECTION('',(0.,0.,1.));
#416=DIRECTION('',(1.,0.,0.));
#417=DIRECTION('',(0.,0.,1.));
#418=DIRECTION('',(1.,0.,0.));
#419=DIRECTION('',(-1.,0.,0.));
#420=DIRECTION('',(-1.,0.,0.));
#421=DIRECTION('',(0.,-1.,0.));
#422=DIRECTION('',(0.,0.,-1.));
#423=DIRECTION('',(0.,-1.,0.));
#424=DIRECTION('',(0.,0.,-1.));
#425=DIRECTION('',(0.,-1.,0.));
#426=DIRECTION('',(0.,0.,-1.));
#427=DIRECTION('',(0.,-1.,0.));
#428=DIRECTION('',(0.,0.,-1.));
#429=DIRECTION('',(0.,-1.,0.));
#430=DIRECTION('',(0.,0.,-1.));
#431=DIRECTION('',(0.,-1.,0.));
#432=DIRECTION('',(0.,0.,-1.));
#433=DIRECTION('',(0.,0.,1.));
#434=DIRECTION('',(1.,0.,0.));
#435=DIRECTION('',(0.,0.,1.));
#436=DIRECTION('',(1.,0.,0.));
#437=DIRECTION('',(0.,-1.,0.));
#438=DIRECTION('',(0.,0.,-1.));
#439=DIRECTION('',(0.,-1.,0.));
#440=DIRECTION('',(0.,0.,-1.));
#441=CARTESIAN_POINT('',(0.,0.,0.));
#442=CARTESIAN_POINT('',(35.,16.,-16.25));
#443=CARTESIAN_POINT('',(35.,0.,-16.25));
#444=CARTESIAN_POINT('',(50.,0.,-16.25));
#445=CARTESIAN_POINT('',(20.,0.,-16.25));
#446=CARTESIAN_POINT('',(20.,16.,-16.25));
#447=CARTESIAN_POINT('',(20.,16.,-16.25));
#448=CARTESIAN_POINT('',(35.,16.,-16.25));
#449=CARTESIAN_POINT('',(50.,16.,-16.25));
#450=CARTESIAN_POINT('',(50.,16.,-16.25));
#451=CARTESIAN_POINT('',(20.,16.,-16.25));
#452=CARTESIAN_POINT('',(20.,0.,-16.25));
#453=CARTESIAN_POINT('',(15.,0.,-16.25));
#454=CARTESIAN_POINT('',(15.,16.,-16.25));
#455=CARTESIAN_POINT('',(15.,16.,-16.25));
#456=CARTESIAN_POINT('',(20.,16.,-16.25));
#457=CARTESIAN_POINT('',(0.,16.,-16.25));
#458=CARTESIAN_POINT('',(0.,0.,-16.25));
#459=CARTESIAN_POINT('',(-15.,0.,-16.25));
#460=CARTESIAN_POINT('',(-15.,16.,-16.25));
#461=CARTESIAN_POINT('',(-15.,16.,-16.25));
#462=CARTESIAN_POINT('',(0.,16.,-16.25));
#463=CARTESIAN_POINT('',(-15.,16.,-16.25));
#464=CARTESIAN_POINT('',(-15.,0.,-16.25));
#465=CARTESIAN_POINT('',(-20.,0.,-16.25));
#466=CARTESIAN_POINT('',(-20.,16.,-16.25));
#467=CARTESIAN_POINT('',(-20.,16.,-16.25));
#468=CARTESIAN_POINT('',(-15.,16.,-16.25));
#469=CARTESIAN_POINT('',(-35.,16.,-16.25));
#470=CARTESIAN_POINT('',(-35.,0.,-16.25));
#471=CARTESIAN_POINT('',(-50.,0.,-16.25));
#472=CARTESIAN_POINT('',(-50.,16.,-16.25));
#473=CARTESIAN_POINT('',(-50.,16.,-16.25));
#474=CARTESIAN_POINT('',(-35.,16.,-16.25));
#475=CARTESIAN_POINT('',(-50.,16.,-16.25));
#476=CARTESIAN_POINT('',(-60.,8.,-16.25));
#477=CARTESIAN_POINT('',(-54.5,8.,-16.25));
#478=CARTESIAN_POINT('',(-50.,0.,-16.25));
#479=CARTESIAN_POINT('',(-72.5,0.,-16.25));
#480=CARTESIAN_POINT('',(-72.5,16.,-16.25));
#481=CARTESIAN_POINT('',(-72.5,16.,-16.25));
#482=CARTESIAN_POINT('',(-50.,16.,-16.25));
#483=CARTESIAN_POINT('',(-72.5,16.,-16.25));
#484=CARTESIAN_POINT('',(-72.5,0.,-16.25));
#485=CARTESIAN_POINT('',(-72.5,0.,15.25));
#486=CARTESIAN_POINT('',(-72.5,16.,15.25));
#487=CARTESIAN_POINT('',(-72.5,16.,15.25));
#488=CARTESIAN_POINT('',(-72.5,16.,-16.25));
#489=CARTESIAN_POINT('',(35.,16.,16.25));
#490=CARTESIAN_POINT('',(-60.,8.,16.25));
#491=CARTESIAN_POINT('',(-54.5,8.,16.25));
#492=CARTESIAN_POINT('',(60.,8.,16.25));
#493=CARTESIAN_POINT('',(65.5,8.,16.25));
#494=CARTESIAN_POINT('',(35.,0.,16.25));
#495=CARTESIAN_POINT('',(-71.5,0.,16.25));
#496=CARTESIAN_POINT('',(71.5,0.,16.25));
#497=CARTESIAN_POINT('',(71.5,16.,16.25));
#498=CARTESIAN_POINT('',(71.5,16.,16.25));
#499=CARTESIAN_POINT('',(-72.5,16.,16.25));
#500=CARTESIAN_POINT('',(-71.5,16.,16.25));
#501=CARTESIAN_POINT('',(-71.5,16.,16.25));
#502=CARTESIAN_POINT('',(72.5,16.,16.25));
#503=CARTESIAN_POINT('',(72.5,16.,16.25));
#504=CARTESIAN_POINT('',(72.5,16.,15.25));
#505=CARTESIAN_POINT('',(72.5,16.,-16.25));
#506=CARTESIAN_POINT('',(72.5,16.,15.25));
#507=CARTESIAN_POINT('',(72.5,0.,15.25));
#508=CARTESIAN_POINT('',(72.5,0.,16.25));
#509=CARTESIAN_POINT('',(72.5,0.,-16.25));
#510=CARTESIAN_POINT('',(72.5,16.,-16.25));
#511=CARTESIAN_POINT('',(72.5,16.,-16.25));
#512=CARTESIAN_POINT('',(60.,8.,-16.25));
#513=CARTESIAN_POINT('',(65.5,8.,-16.25));
#514=CARTESIAN_POINT('',(72.5,0.,-16.25));
#515=CARTESIAN_POINT('',(72.5,16.,-16.25));
#516=CARTESIAN_POINT('',(35.,16.,-16.25));
#517=CARTESIAN_POINT('',(71.5,16.,15.25));
#518=CARTESIAN_POINT('',(-71.5,16.,15.25));
#519=CARTESIAN_POINT('',(35.,0.,-16.25));
#520=CARTESIAN_POINT('',(71.5,0.,15.25));
#521=CARTESIAN_POINT('',(-71.5,0.,15.25));
#522=CARTESIAN_POINT('',(60.,8.,-33.2314230340251));
#523=CARTESIAN_POINT('',(-60.,8.,-33.2314230340251));
#524=CARTESIAN_POINT('',(-71.5,16.,15.25));
#525=CARTESIAN_POINT('',(71.5,16.,15.25));
#526=MECHANICAL_DESIGN_GEOMETRIC_PRESENTATION_REPRESENTATION('',(#311),
#527);
#527=(
GEOMETRIC_REPRESENTATION_CONTEXT(3)
GLOBAL_UNCERTAINTY_ASSIGNED_CONTEXT((#528))
GLOBAL_UNIT_ASSIGNED_CONTEXT((#531,#530,#529))
REPRESENTATION_CONTEXT('¸ÕÌå¹Ì','TOP_LEVEL_ASSEMBLY_PART')
);
#528=UNCERTAINTY_MEASURE_WITH_UNIT(LENGTH_MEASURE(0.005),#531,
'DISTANCE_ACCURACY_VALUE','Maximum Tolerance applied to model');
#529=(
NAMED_UNIT(*)
SI_UNIT($,.STERADIAN.)
SOLID_ANGLE_UNIT()
);
#530=(
NAMED_UNIT(*)
PLANE_ANGLE_UNIT()
SI_UNIT($,.RADIAN.)
);
#531=(
LENGTH_UNIT()
NAMED_UNIT(*)
SI_UNIT(.MILLI.,.METRE.)
);
#532=PRODUCT_DEFINITION_SHAPE('','',#533);
#533=PRODUCT_DEFINITION('','',#535,#534);
#534=PRODUCT_DEFINITION_CONTEXT('',#541,'design');
#535=PRODUCT_DEFINITION_FORMATION_WITH_SPECIFIED_SOURCE('','',#537,
 .NOT_KNOWN.);
#536=PRODUCT_RELATED_PRODUCT_CATEGORY('','',(#537));
#537=PRODUCT('¸ÕÌå¹Ì','¸ÕÌå¹Ì','¸ÕÌå¹Ì',(#539));
#538=PRODUCT_CATEGORY('','');
#539=PRODUCT_CONTEXT('',#541,'mechanical');
#540=APPLICATION_PROTOCOL_DEFINITION('international standard',
'automotive_design',2010,#541);
#541=APPLICATION_CONTEXT(
'core data for automotive mechanical design processes');
ENDSEC;
END-ISO-10303-21;
