ISO-10303-21;
HEADER;
/* Generated by software containing ST-Developer
 * from STEP Tools, Inc. (www.steptools.com) 
 */
/* OPTION: strings as raw bytes, not using required /X/ escapes */

FILE_DESCRIPTION(
/* description */ ('Unknown'),
/* implementation_level */ '2;1');

FILE_NAME(
/* name */ 'é›¶ä»¶5',
/* time_stamp */ '2024-10-15T09:59:45+08:00',
/* author */ ('Unknown'),
/* organization */ ('Unknown'),
/* preprocessor_version */ 'ST-DEVELOPER v16.7',
/* originating_system */ 'Solid Edge',
/* authorisation */ 'Unknown');

FILE_SCHEMA (('AUTOMOTIVE_DESIGN {1 0 10303 214 3 1 1}'));
ENDSEC;

DATA;
#10=PROPERTY_DEFINITION_REPRESENTATION(#14,#12);
#11=PROPERTY_DEFINITION_REPRESENTATION(#15,#13);
#12=REPRESENTATION('',(#16),#445);
#13=REPRESENTATION('',(#17),#445);
#14=PROPERTY_DEFINITION('pmi validation property','',#450);
#15=PROPERTY_DEFINITION('pmi validation property','',#450);
#16=VALUE_REPRESENTATION_ITEM('number of annotations',COUNT_MEASURE(0.));
#17=VALUE_REPRESENTATION_ITEM('number of views',COUNT_MEASURE(0.));
#18=SHAPE_REPRESENTATION_RELATIONSHIP('','',#280,#19);
#19=ADVANCED_BREP_SHAPE_REPRESENTATION('',(#278),#445);
#20=CYLINDRICAL_SURFACE('',#302,5.5);
#21=CYLINDRICAL_SURFACE('',#303,5.5);
#22=SPHERICAL_SURFACE('',#299,10.);
#23=SPHERICAL_SURFACE('',#300,10.);
#24=SPHERICAL_SURFACE('',#301,10.);
#25=CIRCLE('',#284,5.5);
#26=CIRCLE('',#285,5.5);
#27=CIRCLE('',#288,5.5);
#28=CIRCLE('',#293,5.5);
#29=CIRCLE('',#296,10.);
#30=CIRCLE('',#297,10.);
#31=CIRCLE('',#298,10.);
#32=ORIENTED_EDGE('',*,*,#94,.F.);
#33=ORIENTED_EDGE('',*,*,#95,.F.);
#34=ORIENTED_EDGE('',*,*,#96,.T.);
#35=ORIENTED_EDGE('',*,*,#97,.T.);
#36=ORIENTED_EDGE('',*,*,#98,.T.);
#37=ORIENTED_EDGE('',*,*,#99,.T.);
#38=ORIENTED_EDGE('',*,*,#100,.F.);
#39=ORIENTED_EDGE('',*,*,#97,.F.);
#40=ORIENTED_EDGE('',*,*,#101,.T.);
#41=ORIENTED_EDGE('',*,*,#102,.T.);
#42=ORIENTED_EDGE('',*,*,#103,.F.);
#43=ORIENTED_EDGE('',*,*,#102,.F.);
#44=ORIENTED_EDGE('',*,*,#104,.T.);
#45=ORIENTED_EDGE('',*,*,#105,.T.);
#46=ORIENTED_EDGE('',*,*,#106,.T.);
#47=ORIENTED_EDGE('',*,*,#107,.F.);
#48=ORIENTED_EDGE('',*,*,#105,.F.);
#49=ORIENTED_EDGE('',*,*,#108,.T.);
#50=ORIENTED_EDGE('',*,*,#109,.T.);
#51=ORIENTED_EDGE('',*,*,#110,.F.);
#52=ORIENTED_EDGE('',*,*,#109,.F.);
#53=ORIENTED_EDGE('',*,*,#111,.T.);
#54=ORIENTED_EDGE('',*,*,#112,.T.);
#55=ORIENTED_EDGE('',*,*,#113,.F.);
#56=ORIENTED_EDGE('',*,*,#112,.F.);
#57=ORIENTED_EDGE('',*,*,#114,.T.);
#58=ORIENTED_EDGE('',*,*,#115,.T.);
#59=ORIENTED_EDGE('',*,*,#116,.F.);
#60=ORIENTED_EDGE('',*,*,#115,.F.);
#61=ORIENTED_EDGE('',*,*,#117,.T.);
#62=ORIENTED_EDGE('',*,*,#118,.T.);
#63=ORIENTED_EDGE('',*,*,#119,.T.);
#64=ORIENTED_EDGE('',*,*,#120,.F.);
#65=ORIENTED_EDGE('',*,*,#118,.F.);
#66=ORIENTED_EDGE('',*,*,#121,.T.);
#67=ORIENTED_EDGE('',*,*,#95,.T.);
#68=ORIENTED_EDGE('',*,*,#96,.F.);
#69=ORIENTED_EDGE('',*,*,#121,.F.);
#70=ORIENTED_EDGE('',*,*,#117,.F.);
#71=ORIENTED_EDGE('',*,*,#114,.F.);
#72=ORIENTED_EDGE('',*,*,#111,.F.);
#73=ORIENTED_EDGE('',*,*,#108,.F.);
#74=ORIENTED_EDGE('',*,*,#104,.F.);
#75=ORIENTED_EDGE('',*,*,#101,.F.);
#76=ORIENTED_EDGE('',*,*,#122,.F.);
#77=ORIENTED_EDGE('',*,*,#123,.F.);
#78=ORIENTED_EDGE('',*,*,#124,.F.);
#79=ORIENTED_EDGE('',*,*,#94,.T.);
#80=ORIENTED_EDGE('',*,*,#100,.T.);
#81=ORIENTED_EDGE('',*,*,#103,.T.);
#82=ORIENTED_EDGE('',*,*,#107,.T.);
#83=ORIENTED_EDGE('',*,*,#110,.T.);
#84=ORIENTED_EDGE('',*,*,#113,.T.);
#85=ORIENTED_EDGE('',*,*,#116,.T.);
#86=ORIENTED_EDGE('',*,*,#120,.T.);
#87=ORIENTED_EDGE('',*,*,#124,.T.);
#88=ORIENTED_EDGE('',*,*,#123,.T.);
#89=ORIENTED_EDGE('',*,*,#122,.T.);
#90=ORIENTED_EDGE('',*,*,#99,.F.);
#91=ORIENTED_EDGE('',*,*,#106,.F.);
#92=ORIENTED_EDGE('',*,*,#98,.F.);
#93=ORIENTED_EDGE('',*,*,#119,.F.);
#94=EDGE_CURVE('',#125,#126,#148,.T.);
#95=EDGE_CURVE('',#127,#125,#149,.T.);
#96=EDGE_CURVE('',#127,#128,#150,.T.);
#97=EDGE_CURVE('',#128,#126,#151,.T.);
#98=EDGE_CURVE('',#129,#129,#25,.F.);
#99=EDGE_CURVE('',#130,#130,#26,.F.);
#100=EDGE_CURVE('',#126,#131,#152,.T.);
#101=EDGE_CURVE('',#128,#132,#153,.T.);
#102=EDGE_CURVE('',#132,#131,#154,.T.);
#103=EDGE_CURVE('',#131,#133,#155,.T.);
#104=EDGE_CURVE('',#132,#134,#156,.T.);
#105=EDGE_CURVE('',#134,#133,#157,.T.);
#106=EDGE_CURVE('',#135,#135,#27,.F.);
#107=EDGE_CURVE('',#133,#136,#158,.T.);
#108=EDGE_CURVE('',#134,#137,#159,.T.);
#109=EDGE_CURVE('',#137,#136,#160,.T.);
#110=EDGE_CURVE('',#136,#138,#161,.T.);
#111=EDGE_CURVE('',#137,#139,#162,.T.);
#112=EDGE_CURVE('',#139,#138,#163,.T.);
#113=EDGE_CURVE('',#138,#140,#164,.T.);
#114=EDGE_CURVE('',#139,#141,#165,.T.);
#115=EDGE_CURVE('',#141,#140,#166,.T.);
#116=EDGE_CURVE('',#140,#142,#167,.T.);
#117=EDGE_CURVE('',#141,#143,#168,.T.);
#118=EDGE_CURVE('',#143,#142,#169,.T.);
#119=EDGE_CURVE('',#144,#144,#28,.F.);
#120=EDGE_CURVE('',#142,#125,#170,.T.);
#121=EDGE_CURVE('',#143,#127,#171,.T.);
#122=EDGE_CURVE('',#145,#145,#29,.T.);
#123=EDGE_CURVE('',#146,#146,#30,.T.);
#124=EDGE_CURVE('',#147,#147,#31,.T.);
#125=VERTEX_POINT('',#377);
#126=VERTEX_POINT('',#378);
#127=VERTEX_POINT('',#380);
#128=VERTEX_POINT('',#382);
#129=VERTEX_POINT('',#386);
#130=VERTEX_POINT('',#388);
#131=VERTEX_POINT('',#390);
#132=VERTEX_POINT('',#392);
#133=VERTEX_POINT('',#396);
#134=VERTEX_POINT('',#398);
#135=VERTEX_POINT('',#402);
#136=VERTEX_POINT('',#404);
#137=VERTEX_POINT('',#406);
#138=VERTEX_POINT('',#410);
#139=VERTEX_POINT('',#412);
#140=VERTEX_POINT('',#416);
#141=VERTEX_POINT('',#418);
#142=VERTEX_POINT('',#422);
#143=VERTEX_POINT('',#424);
#144=VERTEX_POINT('',#428);
#145=VERTEX_POINT('',#434);
#146=VERTEX_POINT('',#436);
#147=VERTEX_POINT('',#438);
#148=LINE('',#376,#172);
#149=LINE('',#379,#173);
#150=LINE('',#381,#174);
#151=LINE('',#383,#175);
#152=LINE('',#389,#176);
#153=LINE('',#391,#177);
#154=LINE('',#393,#178);
#155=LINE('',#395,#179);
#156=LINE('',#397,#180);
#157=LINE('',#399,#181);
#158=LINE('',#403,#182);
#159=LINE('',#405,#183);
#160=LINE('',#407,#184);
#161=LINE('',#409,#185);
#162=LINE('',#411,#186);
#163=LINE('',#413,#187);
#164=LINE('',#415,#188);
#165=LINE('',#417,#189);
#166=LINE('',#419,#190);
#167=LINE('',#421,#191);
#168=LINE('',#423,#192);
#169=LINE('',#425,#193);
#170=LINE('',#429,#194);
#171=LINE('',#430,#195);
#172=VECTOR('',#308,1000.);
#173=VECTOR('',#309,1000.);
#174=VECTOR('',#310,1000.);
#175=VECTOR('',#311,1000.);
#176=VECTOR('',#318,1000.);
#177=VECTOR('',#319,1000.);
#178=VECTOR('',#320,1000.);
#179=VECTOR('',#323,1000.);
#180=VECTOR('',#324,1000.);
#181=VECTOR('',#325,1000.);
#182=VECTOR('',#330,1000.);
#183=VECTOR('',#331,1000.);
#184=VECTOR('',#332,1000.);
#185=VECTOR('',#335,1000.);
#186=VECTOR('',#336,1000.);
#187=VECTOR('',#337,1000.);
#188=VECTOR('',#340,1000.);
#189=VECTOR('',#341,1000.);
#190=VECTOR('',#342,1000.);
#191=VECTOR('',#345,1000.);
#192=VECTOR('',#346,1000.);
#193=VECTOR('',#347,1000.);
#194=VECTOR('',#352,1000.);
#195=VECTOR('',#353,1000.);
#196=EDGE_LOOP('',(#32,#33,#34,#35));
#197=EDGE_LOOP('',(#36));
#198=EDGE_LOOP('',(#37));
#199=EDGE_LOOP('',(#38,#39,#40,#41));
#200=EDGE_LOOP('',(#42,#43,#44,#45));
#201=EDGE_LOOP('',(#46));
#202=EDGE_LOOP('',(#47,#48,#49,#50));
#203=EDGE_LOOP('',(#51,#52,#53,#54));
#204=EDGE_LOOP('',(#55,#56,#57,#58));
#205=EDGE_LOOP('',(#59,#60,#61,#62));
#206=EDGE_LOOP('',(#63));
#207=EDGE_LOOP('',(#64,#65,#66,#67));
#208=EDGE_LOOP('',(#68,#69,#70,#71,#72,#73,#74,#75));
#209=EDGE_LOOP('',(#76));
#210=EDGE_LOOP('',(#77));
#211=EDGE_LOOP('',(#78));
#212=EDGE_LOOP('',(#79,#80,#81,#82,#83,#84,#85,#86));
#213=EDGE_LOOP('',(#87));
#214=EDGE_LOOP('',(#88));
#215=EDGE_LOOP('',(#89));
#216=EDGE_LOOP('',(#90));
#217=EDGE_LOOP('',(#91));
#218=EDGE_LOOP('',(#92));
#219=EDGE_LOOP('',(#93));
#220=FACE_BOUND('',#196,.T.);
#221=FACE_BOUND('',#197,.T.);
#222=FACE_BOUND('',#198,.T.);
#223=FACE_BOUND('',#199,.T.);
#224=FACE_BOUND('',#200,.T.);
#225=FACE_BOUND('',#201,.T.);
#226=FACE_BOUND('',#202,.T.);
#227=FACE_BOUND('',#203,.T.);
#228=FACE_BOUND('',#204,.T.);
#229=FACE_BOUND('',#205,.T.);
#230=FACE_BOUND('',#206,.T.);
#231=FACE_BOUND('',#207,.T.);
#232=FACE_BOUND('',#208,.T.);
#233=FACE_BOUND('',#209,.T.);
#234=FACE_BOUND('',#210,.T.);
#235=FACE_BOUND('',#211,.T.);
#236=FACE_BOUND('',#212,.T.);
#237=FACE_BOUND('',#213,.T.);
#238=FACE_BOUND('',#214,.T.);
#239=FACE_BOUND('',#215,.T.);
#240=FACE_BOUND('',#216,.T.);
#241=FACE_BOUND('',#217,.T.);
#242=FACE_BOUND('',#218,.T.);
#243=FACE_BOUND('',#219,.T.);
#244=PLANE('',#282);
#245=PLANE('',#283);
#246=PLANE('',#286);
#247=PLANE('',#287);
#248=PLANE('',#289);
#249=PLANE('',#290);
#250=PLANE('',#291);
#251=PLANE('',#292);
#252=PLANE('',#294);
#253=PLANE('',#295);
#254=ADVANCED_FACE('',(#220),#244,.T.);
#255=ADVANCED_FACE('',(#221,#222,#223),#245,.T.);
#256=ADVANCED_FACE('',(#224),#246,.T.);
#257=ADVANCED_FACE('',(#225,#226),#247,.T.);
#258=ADVANCED_FACE('',(#227),#248,.T.);
#259=ADVANCED_FACE('',(#228),#249,.T.);
#260=ADVANCED_FACE('',(#229),#250,.T.);
#261=ADVANCED_FACE('',(#230,#231),#251,.T.);
#262=ADVANCED_FACE('',(#232),#252,.F.);
#263=ADVANCED_FACE('',(#233,#234,#235,#236),#253,.T.);
#264=ADVANCED_FACE('',(#237),#22,.F.);
#265=ADVANCED_FACE('',(#238),#23,.F.);
#266=ADVANCED_FACE('',(#239),#24,.F.);
#267=ADVANCED_FACE('',(#240,#241),#20,.F.);
#268=ADVANCED_FACE('',(#242,#243),#21,.F.);
#269=CLOSED_SHELL('',(#254,#255,#256,#257,#258,#259,#260,#261,#262,#263,
#264,#265,#266,#267,#268));
#270=STYLED_ITEM('',(#271),#278);
#271=PRESENTATION_STYLE_ASSIGNMENT((#272));
#272=SURFACE_STYLE_USAGE(.BOTH.,#273);
#273=SURFACE_SIDE_STYLE('',(#274));
#274=SURFACE_STYLE_FILL_AREA(#275);
#275=FILL_AREA_STYLE('',(#276));
#276=FILL_AREA_STYLE_COLOUR('',#277);
#277=COLOUR_RGB('',0.506983280181885,0.531564235687256,0.550000011920929);
#278=MANIFOLD_SOLID_BREP('',#269);
#279=SHAPE_DEFINITION_REPRESENTATION(#450,#280);
#280=SHAPE_REPRESENTATION('Áã¼þ',(#281),#445);
#281=AXIS2_PLACEMENT_3D('',#374,#304,#305);
#282=AXIS2_PLACEMENT_3D('',#375,#306,#307);
#283=AXIS2_PLACEMENT_3D('',#384,#312,#313);
#284=AXIS2_PLACEMENT_3D('',#385,#314,#315);
#285=AXIS2_PLACEMENT_3D('',#387,#316,#317);
#286=AXIS2_PLACEMENT_3D('',#394,#321,#322);
#287=AXIS2_PLACEMENT_3D('',#400,#326,#327);
#288=AXIS2_PLACEMENT_3D('',#401,#328,#329);
#289=AXIS2_PLACEMENT_3D('',#408,#333,#334);
#290=AXIS2_PLACEMENT_3D('',#414,#338,#339);
#291=AXIS2_PLACEMENT_3D('',#420,#343,#344);
#292=AXIS2_PLACEMENT_3D('',#426,#348,#349);
#293=AXIS2_PLACEMENT_3D('',#427,#350,#351);
#294=AXIS2_PLACEMENT_3D('',#431,#354,#355);
#295=AXIS2_PLACEMENT_3D('',#432,#356,#357);
#296=AXIS2_PLACEMENT_3D('',#433,#358,#359);
#297=AXIS2_PLACEMENT_3D('',#435,#360,#361);
#298=AXIS2_PLACEMENT_3D('',#437,#362,#363);
#299=AXIS2_PLACEMENT_3D('',#439,#364,#365);
#300=AXIS2_PLACEMENT_3D('',#440,#366,#367);
#301=AXIS2_PLACEMENT_3D('',#441,#368,#369);
#302=AXIS2_PLACEMENT_3D('',#442,#370,#371);
#303=AXIS2_PLACEMENT_3D('',#443,#372,#373);
#304=DIRECTION('',(0.,0.,1.));
#305=DIRECTION('',(1.,0.,0.));
#306=DIRECTION('',(1.,0.,0.));
#307=DIRECTION('',(0.,0.,-1.));
#308=DIRECTION('',(0.,1.,0.));
#309=DIRECTION('',(0.,0.,1.));
#310=DIRECTION('',(0.,1.,0.));
#311=DIRECTION('',(0.,0.,1.));
#312=DIRECTION('',(-1.43563322149805E-16,1.,0.));
#313=DIRECTION('',(-1.,-1.43563322149805E-16,0.));
#314=DIRECTION('',(-1.43563322149805E-16,1.,0.));
#315=DIRECTION('',(-1.,-1.43563322149805E-16,0.));
#316=DIRECTION('',(-1.43563322149805E-16,1.,0.));
#317=DIRECTION('',(-1.,-1.43563322149805E-16,0.));
#318=DIRECTION('',(-1.,-1.43563322149805E-16,0.));
#319=DIRECTION('',(-1.,-1.43563322149805E-16,0.));
#320=DIRECTION('',(0.,0.,1.));
#321=DIRECTION('',(-1.,0.,0.));
#322=DIRECTION('',(0.,0.,1.));
#323=DIRECTION('',(0.,-1.,0.));
#324=DIRECTION('',(0.,-1.,0.));
#325=DIRECTION('',(0.,0.,1.));
#326=DIRECTION('',(0.,-1.,0.));
#327=DIRECTION('',(0.,0.,-1.));
#328=DIRECTION('',(0.,-1.,0.));
#329=DIRECTION('',(0.,0.,-1.));
#330=DIRECTION('',(1.,0.,0.));
#331=DIRECTION('',(1.,0.,0.));
#332=DIRECTION('',(0.,0.,1.));
#333=DIRECTION('',(-1.,-2.31296463463574E-16,0.));
#334=DIRECTION('',(2.31296463463574E-16,-1.,0.));
#335=DIRECTION('',(2.31296463463574E-16,-1.,0.));
#336=DIRECTION('',(2.31296463463574E-16,-1.,0.));
#337=DIRECTION('',(0.,0.,1.));
#338=DIRECTION('',(0.,-1.,0.));
#339=DIRECTION('',(0.,0.,-1.));
#340=DIRECTION('',(1.,0.,0.));
#341=DIRECTION('',(1.,0.,0.));
#342=DIRECTION('',(0.,0.,1.));
#343=DIRECTION('',(1.,0.,0.));
#344=DIRECTION('',(0.,0.,-1.));
#345=DIRECTION('',(0.,1.,0.));
#346=DIRECTION('',(0.,1.,0.));
#347=DIRECTION('',(0.,0.,1.));
#348=DIRECTION('',(0.,-1.,0.));
#349=DIRECTION('',(0.,0.,-1.));
#350=DIRECTION('',(0.,-1.,0.));
#351=DIRECTION('',(0.,0.,-1.));
#352=DIRECTION('',(1.,0.,0.));
#353=DIRECTION('',(1.,0.,0.));
#354=DIRECTION('',(0.,0.,1.));
#355=DIRECTION('',(1.,0.,0.));
#356=DIRECTION('',(0.,0.,1.));
#357=DIRECTION('',(1.,0.,0.));
#358=DIRECTION('',(0.,0.,1.));
#359=DIRECTION('',(1.,0.,0.));
#360=DIRECTION('',(0.,0.,1.));
#361=DIRECTION('',(1.,0.,0.));
#362=DIRECTION('',(0.,0.,1.));
#363=DIRECTION('',(1.,0.,0.));
#364=DIRECTION('',(1.,-6.07153216591882E-17,0.));
#365=DIRECTION('',(6.07153216591882E-17,1.,0.));
#366=DIRECTION('',(1.,-6.07153216591882E-17,0.));
#367=DIRECTION('',(6.07153216591882E-17,1.,0.));
#368=DIRECTION('',(1.,-6.07153216591882E-17,0.));
#369=DIRECTION('',(6.07153216591882E-17,1.,0.));
#370=DIRECTION('',(0.,-1.,0.));
#371=DIRECTION('',(0.,0.,-1.));
#372=DIRECTION('',(0.,-1.,0.));
#373=DIRECTION('',(0.,0.,-1.));
#374=CARTESIAN_POINT('',(0.,0.,0.));
#375=CARTESIAN_POINT('',(145.,0.,-16.));
#376=CARTESIAN_POINT('',(145.,0.,0.));
#377=CARTESIAN_POINT('',(145.,0.,0.));
#378=CARTESIAN_POINT('',(145.,35.,0.));
#379=CARTESIAN_POINT('',(145.,0.,-16.));
#380=CARTESIAN_POINT('',(145.,0.,-16.));
#381=CARTESIAN_POINT('',(145.,0.,-16.));
#382=CARTESIAN_POINT('',(145.,35.,-16.));
#383=CARTESIAN_POINT('',(145.,35.,-16.));
#384=CARTESIAN_POINT('',(145.,35.,-16.));
#385=CARTESIAN_POINT('',(132.5,35.,-8.));
#386=CARTESIAN_POINT('',(127.,35.,-8.));
#387=CARTESIAN_POINT('',(12.5,35.,-8.));
#388=CARTESIAN_POINT('',(7.00000000000001,35.,-8.));
#389=CARTESIAN_POINT('',(145.,35.,0.));
#390=CARTESIAN_POINT('',(0.,35.,0.));
#391=CARTESIAN_POINT('',(145.,35.,-16.));
#392=CARTESIAN_POINT('',(0.,35.,-16.));
#393=CARTESIAN_POINT('',(0.,35.,-16.));
#394=CARTESIAN_POINT('',(0.,35.,-16.));
#395=CARTESIAN_POINT('',(0.,35.,0.));
#396=CARTESIAN_POINT('',(0.,0.,0.));
#397=CARTESIAN_POINT('',(0.,35.,-16.));
#398=CARTESIAN_POINT('',(0.,0.,-16.));
#399=CARTESIAN_POINT('',(0.,0.,-16.));
#400=CARTESIAN_POINT('',(0.,0.,-16.));
#401=CARTESIAN_POINT('',(12.5,0.,-8.));
#402=CARTESIAN_POINT('',(12.5,0.,-13.5));
#403=CARTESIAN_POINT('',(0.,0.,0.));
#404=CARTESIAN_POINT('',(25.,0.,0.));
#405=CARTESIAN_POINT('',(0.,0.,-16.));
#406=CARTESIAN_POINT('',(25.,0.,-16.));
#407=CARTESIAN_POINT('',(25.,0.,-16.));
#408=CARTESIAN_POINT('',(25.,0.,-16.));
#409=CARTESIAN_POINT('',(25.,0.,0.));
#410=CARTESIAN_POINT('',(25.,-15.,0.));
#411=CARTESIAN_POINT('',(25.,0.,-16.));
#412=CARTESIAN_POINT('',(25.,-15.,-16.));
#413=CARTESIAN_POINT('',(25.,-15.,-16.));
#414=CARTESIAN_POINT('',(25.,-15.,-16.));
#415=CARTESIAN_POINT('',(25.,-15.,0.));
#416=CARTESIAN_POINT('',(120.,-15.,0.));
#417=CARTESIAN_POINT('',(25.,-15.,-16.));
#418=CARTESIAN_POINT('',(120.,-15.,-16.));
#419=CARTESIAN_POINT('',(120.,-15.,-16.));
#420=CARTESIAN_POINT('',(120.,-15.,-16.));
#421=CARTESIAN_POINT('',(120.,-15.,0.));
#422=CARTESIAN_POINT('',(120.,0.,0.));
#423=CARTESIAN_POINT('',(120.,-15.,-16.));
#424=CARTESIAN_POINT('',(120.,0.,-16.));
#425=CARTESIAN_POINT('',(120.,0.,-16.));
#426=CARTESIAN_POINT('',(120.,0.,-16.));
#427=CARTESIAN_POINT('',(132.5,0.,-8.));
#428=CARTESIAN_POINT('',(132.5,0.,-13.5));
#429=CARTESIAN_POINT('',(120.,0.,0.));
#430=CARTESIAN_POINT('',(120.,0.,-16.));
#431=CARTESIAN_POINT('',(0.,0.,-16.));
#432=CARTESIAN_POINT('',(0.,0.,0.));
#433=CARTESIAN_POINT('',(107.5,2.49999999999999,0.));
#434=CARTESIAN_POINT('',(117.5,2.49999999999999,0.));
#435=CARTESIAN_POINT('',(72.5,2.49999999999999,0.));
#436=CARTESIAN_POINT('',(82.5,2.49999999999999,0.));
#437=CARTESIAN_POINT('',(37.5,2.49999999999999,0.));
#438=CARTESIAN_POINT('',(47.5,2.49999999999999,0.));
#439=CARTESIAN_POINT('',(37.5,2.49999999999999,0.));
#440=CARTESIAN_POINT('',(72.5,2.49999999999999,0.));
#441=CARTESIAN_POINT('',(107.5,2.49999999999999,0.));
#442=CARTESIAN_POINT('',(12.5,57.7665613260769,-8.));
#443=CARTESIAN_POINT('',(132.5,57.7665613260769,-8.));
#444=MECHANICAL_DESIGN_GEOMETRIC_PRESENTATION_REPRESENTATION('',(#270),
#445);
#445=(
GEOMETRIC_REPRESENTATION_CONTEXT(3)
GLOBAL_UNCERTAINTY_ASSIGNED_CONTEXT((#446))
GLOBAL_UNIT_ASSIGNED_CONTEXT((#449,#448,#447))
REPRESENTATION_CONTEXT('Áã¼þ»¶5','TOP_LEVEL_ASSEMBLY_PART')
);
#446=UNCERTAINTY_MEASURE_WITH_UNIT(LENGTH_MEASURE(0.005),#449,
'DISTANCE_ACCURACY_VALUE','Maximum Tolerance applied to model');
#447=(
NAMED_UNIT(*)
SI_UNIT($,.STERADIAN.)
SOLID_ANGLE_UNIT()
);
#448=(
NAMED_UNIT(*)
PLANE_ANGLE_UNIT()
SI_UNIT($,.RADIAN.)
);
#449=(
LENGTH_UNIT()
NAMED_UNIT(*)
SI_UNIT(.MILLI.,.METRE.)
);
#450=PRODUCT_DEFINITION_SHAPE('','',#451);
#451=PRODUCT_DEFINITION('','',#453,#452);
#452=PRODUCT_DEFINITION_CONTEXT('',#459,'design');
#453=PRODUCT_DEFINITION_FORMATION_WITH_SPECIFIED_SOURCE('','',#455,
 .NOT_KNOWN.);
#454=PRODUCT_RELATED_PRODUCT_CATEGORY('','',(#455));
#455=PRODUCT('Áã¼þ»¶5','Áã¼þ»¶5','Áã¼þ»¶5',(#457));
#456=PRODUCT_CATEGORY('','');
#457=PRODUCT_CONTEXT('',#459,'mechanical');
#458=APPLICATION_PROTOCOL_DEFINITION('international standard',
'automotive_design',2010,#459);
#459=APPLICATION_CONTEXT(
'core data for automotive mechanical design processes');
ENDSEC;
END-ISO-10303-21;
