ISO-10303-21;
HEADER;
/* Generated by software containing ST-Developer
 * from STEP Tools, Inc. (www.steptools.com) 
 */
/* OPTION: strings as raw bytes, not using required /X/ escapes */

FILE_DESCRIPTION(
/* description */ ('Unknown'),
/* implementation_level */ '2;1');

FILE_NAME(
/* name */ 'é›¶ä»¶6',
/* time_stamp */ '2024-10-15T09:59:30+08:00',
/* author */ ('Unknown'),
/* organization */ ('Unknown'),
/* preprocessor_version */ 'ST-DEVELOPER v16.7',
/* originating_system */ 'Solid Edge',
/* authorisation */ 'Unknown');

FILE_SCHEMA (('AUTOMOTIVE_DESIGN {1 0 10303 214 3 1 1}'));
ENDSEC;

DATA;
#10=PROPERTY_DEFINITION_REPRESENTATION(#14,#12);
#11=PROPERTY_DEFINITION_REPRESENTATION(#15,#13);
#12=REPRESENTATION('',(#16),#381);
#13=REPRESENTATION('',(#17),#381);
#14=PROPERTY_DEFINITION('pmi validation property','',#386);
#15=PROPERTY_DEFINITION('pmi validation property','',#386);
#16=VALUE_REPRESENTATION_ITEM('number of annotations',COUNT_MEASURE(0.));
#17=VALUE_REPRESENTATION_ITEM('number of views',COUNT_MEASURE(0.));
#18=SHAPE_REPRESENTATION_RELATIONSHIP('','',#236,#19);
#19=ADVANCED_BREP_SHAPE_REPRESENTATION('',(#234),#381);
#20=SPHERICAL_SURFACE('',#259,10.);
#21=SPHERICAL_SURFACE('',#260,10.);
#22=SPHERICAL_SURFACE('',#261,10.);
#23=CYLINDRICAL_SURFACE('',#255,2.);
#24=CYLINDRICAL_SURFACE('',#256,2.);
#25=CYLINDRICAL_SURFACE('',#257,2.);
#26=CYLINDRICAL_SURFACE('',#258,2.);
#27=CIRCLE('',#243,2.);
#28=CIRCLE('',#244,2.);
#29=CIRCLE('',#245,2.);
#30=CIRCLE('',#246,2.);
#31=CIRCLE('',#248,10.);
#32=CIRCLE('',#249,10.);
#33=CIRCLE('',#250,10.);
#34=CIRCLE('',#251,2.);
#35=CIRCLE('',#252,2.);
#36=CIRCLE('',#253,2.);
#37=CIRCLE('',#254,2.);
#38=ORIENTED_EDGE('',*,*,#84,.F.);
#39=ORIENTED_EDGE('',*,*,#85,.F.);
#40=ORIENTED_EDGE('',*,*,#86,.T.);
#41=ORIENTED_EDGE('',*,*,#87,.T.);
#42=ORIENTED_EDGE('',*,*,#88,.F.);
#43=ORIENTED_EDGE('',*,*,#87,.F.);
#44=ORIENTED_EDGE('',*,*,#89,.T.);
#45=ORIENTED_EDGE('',*,*,#90,.T.);
#46=ORIENTED_EDGE('',*,*,#91,.F.);
#47=ORIENTED_EDGE('',*,*,#90,.F.);
#48=ORIENTED_EDGE('',*,*,#92,.T.);
#49=ORIENTED_EDGE('',*,*,#93,.T.);
#50=ORIENTED_EDGE('',*,*,#94,.F.);
#51=ORIENTED_EDGE('',*,*,#93,.F.);
#52=ORIENTED_EDGE('',*,*,#95,.T.);
#53=ORIENTED_EDGE('',*,*,#85,.T.);
#54=ORIENTED_EDGE('',*,*,#96,.F.);
#55=ORIENTED_EDGE('',*,*,#97,.F.);
#56=ORIENTED_EDGE('',*,*,#98,.F.);
#57=ORIENTED_EDGE('',*,*,#99,.F.);
#58=ORIENTED_EDGE('',*,*,#86,.F.);
#59=ORIENTED_EDGE('',*,*,#95,.F.);
#60=ORIENTED_EDGE('',*,*,#92,.F.);
#61=ORIENTED_EDGE('',*,*,#89,.F.);
#62=ORIENTED_EDGE('',*,*,#100,.F.);
#63=ORIENTED_EDGE('',*,*,#101,.F.);
#64=ORIENTED_EDGE('',*,*,#102,.F.);
#65=ORIENTED_EDGE('',*,*,#103,.T.);
#66=ORIENTED_EDGE('',*,*,#104,.T.);
#67=ORIENTED_EDGE('',*,*,#105,.T.);
#68=ORIENTED_EDGE('',*,*,#106,.T.);
#69=ORIENTED_EDGE('',*,*,#84,.T.);
#70=ORIENTED_EDGE('',*,*,#88,.T.);
#71=ORIENTED_EDGE('',*,*,#91,.T.);
#72=ORIENTED_EDGE('',*,*,#94,.T.);
#73=ORIENTED_EDGE('',*,*,#106,.F.);
#74=ORIENTED_EDGE('',*,*,#99,.T.);
#75=ORIENTED_EDGE('',*,*,#105,.F.);
#76=ORIENTED_EDGE('',*,*,#98,.T.);
#77=ORIENTED_EDGE('',*,*,#104,.F.);
#78=ORIENTED_EDGE('',*,*,#97,.T.);
#79=ORIENTED_EDGE('',*,*,#103,.F.);
#80=ORIENTED_EDGE('',*,*,#96,.T.);
#81=ORIENTED_EDGE('',*,*,#102,.T.);
#82=ORIENTED_EDGE('',*,*,#101,.T.);
#83=ORIENTED_EDGE('',*,*,#100,.T.);
#84=EDGE_CURVE('',#107,#108,#126,.T.);
#85=EDGE_CURVE('',#109,#107,#127,.T.);
#86=EDGE_CURVE('',#109,#110,#128,.T.);
#87=EDGE_CURVE('',#110,#108,#129,.T.);
#88=EDGE_CURVE('',#108,#111,#130,.T.);
#89=EDGE_CURVE('',#110,#112,#131,.T.);
#90=EDGE_CURVE('',#112,#111,#132,.T.);
#91=EDGE_CURVE('',#111,#113,#133,.T.);
#92=EDGE_CURVE('',#112,#114,#134,.T.);
#93=EDGE_CURVE('',#114,#113,#135,.T.);
#94=EDGE_CURVE('',#113,#107,#136,.T.);
#95=EDGE_CURVE('',#114,#109,#137,.T.);
#96=EDGE_CURVE('',#115,#115,#27,.F.);
#97=EDGE_CURVE('',#116,#116,#28,.F.);
#98=EDGE_CURVE('',#117,#117,#29,.F.);
#99=EDGE_CURVE('',#118,#118,#30,.F.);
#100=EDGE_CURVE('',#119,#119,#31,.T.);
#101=EDGE_CURVE('',#120,#120,#32,.T.);
#102=EDGE_CURVE('',#121,#121,#33,.T.);
#103=EDGE_CURVE('',#122,#122,#34,.T.);
#104=EDGE_CURVE('',#123,#123,#35,.T.);
#105=EDGE_CURVE('',#124,#124,#36,.T.);
#106=EDGE_CURVE('',#125,#125,#37,.T.);
#107=VERTEX_POINT('',#327);
#108=VERTEX_POINT('',#328);
#109=VERTEX_POINT('',#330);
#110=VERTEX_POINT('',#332);
#111=VERTEX_POINT('',#336);
#112=VERTEX_POINT('',#338);
#113=VERTEX_POINT('',#342);
#114=VERTEX_POINT('',#344);
#115=VERTEX_POINT('',#351);
#116=VERTEX_POINT('',#353);
#117=VERTEX_POINT('',#355);
#118=VERTEX_POINT('',#357);
#119=VERTEX_POINT('',#360);
#120=VERTEX_POINT('',#362);
#121=VERTEX_POINT('',#364);
#122=VERTEX_POINT('',#366);
#123=VERTEX_POINT('',#368);
#124=VERTEX_POINT('',#370);
#125=VERTEX_POINT('',#372);
#126=LINE('',#326,#138);
#127=LINE('',#329,#139);
#128=LINE('',#331,#140);
#129=LINE('',#333,#141);
#130=LINE('',#335,#142);
#131=LINE('',#337,#143);
#132=LINE('',#339,#144);
#133=LINE('',#341,#145);
#134=LINE('',#343,#146);
#135=LINE('',#345,#147);
#136=LINE('',#347,#148);
#137=LINE('',#348,#149);
#138=VECTOR('',#266,1000.);
#139=VECTOR('',#267,1000.);
#140=VECTOR('',#268,1000.);
#141=VECTOR('',#269,1000.);
#142=VECTOR('',#272,1000.);
#143=VECTOR('',#273,1000.);
#144=VECTOR('',#274,1000.);
#145=VECTOR('',#277,1000.);
#146=VECTOR('',#278,1000.);
#147=VECTOR('',#279,1000.);
#148=VECTOR('',#282,1000.);
#149=VECTOR('',#283,1000.);
#150=EDGE_LOOP('',(#38,#39,#40,#41));
#151=EDGE_LOOP('',(#42,#43,#44,#45));
#152=EDGE_LOOP('',(#46,#47,#48,#49));
#153=EDGE_LOOP('',(#50,#51,#52,#53));
#154=EDGE_LOOP('',(#54));
#155=EDGE_LOOP('',(#55));
#156=EDGE_LOOP('',(#56));
#157=EDGE_LOOP('',(#57));
#158=EDGE_LOOP('',(#58,#59,#60,#61));
#159=EDGE_LOOP('',(#62));
#160=EDGE_LOOP('',(#63));
#161=EDGE_LOOP('',(#64));
#162=EDGE_LOOP('',(#65));
#163=EDGE_LOOP('',(#66));
#164=EDGE_LOOP('',(#67));
#165=EDGE_LOOP('',(#68));
#166=EDGE_LOOP('',(#69,#70,#71,#72));
#167=EDGE_LOOP('',(#73));
#168=EDGE_LOOP('',(#74));
#169=EDGE_LOOP('',(#75));
#170=EDGE_LOOP('',(#76));
#171=EDGE_LOOP('',(#77));
#172=EDGE_LOOP('',(#78));
#173=EDGE_LOOP('',(#79));
#174=EDGE_LOOP('',(#80));
#175=EDGE_LOOP('',(#81));
#176=EDGE_LOOP('',(#82));
#177=EDGE_LOOP('',(#83));
#178=FACE_BOUND('',#150,.T.);
#179=FACE_BOUND('',#151,.T.);
#180=FACE_BOUND('',#152,.T.);
#181=FACE_BOUND('',#153,.T.);
#182=FACE_BOUND('',#154,.T.);
#183=FACE_BOUND('',#155,.T.);
#184=FACE_BOUND('',#156,.T.);
#185=FACE_BOUND('',#157,.T.);
#186=FACE_BOUND('',#158,.T.);
#187=FACE_BOUND('',#159,.T.);
#188=FACE_BOUND('',#160,.T.);
#189=FACE_BOUND('',#161,.T.);
#190=FACE_BOUND('',#162,.T.);
#191=FACE_BOUND('',#163,.T.);
#192=FACE_BOUND('',#164,.T.);
#193=FACE_BOUND('',#165,.T.);
#194=FACE_BOUND('',#166,.T.);
#195=FACE_BOUND('',#167,.T.);
#196=FACE_BOUND('',#168,.T.);
#197=FACE_BOUND('',#169,.T.);
#198=FACE_BOUND('',#170,.T.);
#199=FACE_BOUND('',#171,.T.);
#200=FACE_BOUND('',#172,.T.);
#201=FACE_BOUND('',#173,.T.);
#202=FACE_BOUND('',#174,.T.);
#203=FACE_BOUND('',#175,.T.);
#204=FACE_BOUND('',#176,.T.);
#205=FACE_BOUND('',#177,.T.);
#206=PLANE('',#238);
#207=PLANE('',#239);
#208=PLANE('',#240);
#209=PLANE('',#241);
#210=PLANE('',#242);
#211=PLANE('',#247);
#212=ADVANCED_FACE('',(#178),#206,.T.);
#213=ADVANCED_FACE('',(#179),#207,.T.);
#214=ADVANCED_FACE('',(#180),#208,.T.);
#215=ADVANCED_FACE('',(#181),#209,.T.);
#216=ADVANCED_FACE('',(#182,#183,#184,#185,#186),#210,.F.);
#217=ADVANCED_FACE('',(#187,#188,#189,#190,#191,#192,#193,#194),#211,.T.);
#218=ADVANCED_FACE('',(#195,#196),#23,.F.);
#219=ADVANCED_FACE('',(#197,#198),#24,.F.);
#220=ADVANCED_FACE('',(#199,#200),#25,.F.);
#221=ADVANCED_FACE('',(#201,#202),#26,.F.);
#222=ADVANCED_FACE('',(#203),#20,.F.);
#223=ADVANCED_FACE('',(#204),#21,.F.);
#224=ADVANCED_FACE('',(#205),#22,.F.);
#225=CLOSED_SHELL('',(#212,#213,#214,#215,#216,#217,#218,#219,#220,#221,
#222,#223,#224));
#226=STYLED_ITEM('',(#227),#234);
#227=PRESENTATION_STYLE_ASSIGNMENT((#228));
#228=SURFACE_STYLE_USAGE(.BOTH.,#229);
#229=SURFACE_SIDE_STYLE('',(#230));
#230=SURFACE_STYLE_FILL_AREA(#231);
#231=FILL_AREA_STYLE('',(#232));
#232=FILL_AREA_STYLE_COLOUR('',#233);
#233=COLOUR_RGB('',0.506983280181885,0.531564235687256,0.550000011920929);
#234=MANIFOLD_SOLID_BREP('',#225);
#235=SHAPE_DEFINITION_REPRESENTATION(#386,#236);
#236=SHAPE_REPRESENTATION('Áã¼þ',(#237),#381);
#237=AXIS2_PLACEMENT_3D('',#324,#262,#263);
#238=AXIS2_PLACEMENT_3D('',#325,#264,#265);
#239=AXIS2_PLACEMENT_3D('',#334,#270,#271);
#240=AXIS2_PLACEMENT_3D('',#340,#275,#276);
#241=AXIS2_PLACEMENT_3D('',#346,#280,#281);
#242=AXIS2_PLACEMENT_3D('',#349,#284,#285);
#243=AXIS2_PLACEMENT_3D('',#350,#286,#287);
#244=AXIS2_PLACEMENT_3D('',#352,#288,#289);
#245=AXIS2_PLACEMENT_3D('',#354,#290,#291);
#246=AXIS2_PLACEMENT_3D('',#356,#292,#293);
#247=AXIS2_PLACEMENT_3D('',#358,#294,#295);
#248=AXIS2_PLACEMENT_3D('',#359,#296,#297);
#249=AXIS2_PLACEMENT_3D('',#361,#298,#299);
#250=AXIS2_PLACEMENT_3D('',#363,#300,#301);
#251=AXIS2_PLACEMENT_3D('',#365,#302,#303);
#252=AXIS2_PLACEMENT_3D('',#367,#304,#305);
#253=AXIS2_PLACEMENT_3D('',#369,#306,#307);
#254=AXIS2_PLACEMENT_3D('',#371,#308,#309);
#255=AXIS2_PLACEMENT_3D('',#373,#310,#311);
#256=AXIS2_PLACEMENT_3D('',#374,#312,#313);
#257=AXIS2_PLACEMENT_3D('',#375,#314,#315);
#258=AXIS2_PLACEMENT_3D('',#376,#316,#317);
#259=AXIS2_PLACEMENT_3D('',#377,#318,#319);
#260=AXIS2_PLACEMENT_3D('',#378,#320,#321);
#261=AXIS2_PLACEMENT_3D('',#379,#322,#323);
#262=DIRECTION('',(0.,0.,1.));
#263=DIRECTION('',(1.,0.,0.));
#264=DIRECTION('',(0.,-1.,0.));
#265=DIRECTION('',(0.,0.,-1.));
#266=DIRECTION('',(1.,0.,0.));
#267=DIRECTION('',(0.,0.,1.));
#268=DIRECTION('',(1.,0.,0.));
#269=DIRECTION('',(0.,0.,1.));
#270=DIRECTION('',(1.,0.,0.));
#271=DIRECTION('',(0.,0.,-1.));
#272=DIRECTION('',(0.,1.,0.));
#273=DIRECTION('',(0.,1.,0.));
#274=DIRECTION('',(0.,0.,1.));
#275=DIRECTION('',(0.,1.,0.));
#276=DIRECTION('',(0.,0.,1.));
#277=DIRECTION('',(-1.,0.,0.));
#278=DIRECTION('',(-1.,0.,0.));
#279=DIRECTION('',(0.,0.,1.));
#280=DIRECTION('',(-1.,0.,0.));
#281=DIRECTION('',(0.,0.,1.));
#282=DIRECTION('',(0.,-1.,0.));
#283=DIRECTION('',(0.,-1.,0.));
#284=DIRECTION('',(0.,0.,1.));
#285=DIRECTION('',(1.,0.,0.));
#286=DIRECTION('',(0.,0.,1.));
#287=DIRECTION('',(1.,0.,0.));
#288=DIRECTION('',(0.,0.,1.));
#289=DIRECTION('',(1.,0.,0.));
#290=DIRECTION('',(0.,0.,1.));
#291=DIRECTION('',(1.,0.,0.));
#292=DIRECTION('',(0.,0.,1.));
#293=DIRECTION('',(1.,0.,0.));
#294=DIRECTION('',(0.,0.,1.));
#295=DIRECTION('',(1.,0.,0.));
#296=DIRECTION('',(0.,0.,1.));
#297=DIRECTION('',(1.,0.,0.));
#298=DIRECTION('',(0.,0.,1.));
#299=DIRECTION('',(1.,0.,0.));
#300=DIRECTION('',(0.,0.,1.));
#301=DIRECTION('',(1.,0.,0.));
#302=DIRECTION('',(0.,0.,-1.));
#303=DIRECTION('',(1.,0.,0.));
#304=DIRECTION('',(0.,0.,-1.));
#305=DIRECTION('',(1.,0.,0.));
#306=DIRECTION('',(0.,0.,-1.));
#307=DIRECTION('',(1.,0.,0.));
#308=DIRECTION('',(0.,0.,-1.));
#309=DIRECTION('',(1.,0.,0.));
#310=DIRECTION('',(0.,0.,1.));
#311=DIRECTION('',(1.,0.,0.));
#312=DIRECTION('',(0.,0.,1.));
#313=DIRECTION('',(1.,0.,0.));
#314=DIRECTION('',(0.,0.,1.));
#315=DIRECTION('',(1.,0.,0.));
#316=DIRECTION('',(0.,0.,1.));
#317=DIRECTION('',(1.,0.,0.));
#318=DIRECTION('',(1.,-6.12323399573677E-17,0.));
#319=DIRECTION('',(6.12323399573677E-17,1.,0.));
#320=DIRECTION('',(1.,-6.12323399573677E-17,0.));
#321=DIRECTION('',(6.12323399573677E-17,1.,0.));
#322=DIRECTION('',(1.,-6.12323399573677E-17,0.));
#323=DIRECTION('',(6.12323399573677E-17,1.,0.));
#324=CARTESIAN_POINT('',(0.,0.,0.));
#325=CARTESIAN_POINT('',(-60.,-25.,-16.));
#326=CARTESIAN_POINT('',(-60.,-25.,0.));
#327=CARTESIAN_POINT('',(-60.,-25.,0.));
#328=CARTESIAN_POINT('',(60.,-25.,0.));
#329=CARTESIAN_POINT('',(-60.,-25.,-16.));
#330=CARTESIAN_POINT('',(-60.,-25.,-16.));
#331=CARTESIAN_POINT('',(-60.,-25.,-16.));
#332=CARTESIAN_POINT('',(60.,-25.,-16.));
#333=CARTESIAN_POINT('',(60.,-25.,-16.));
#334=CARTESIAN_POINT('',(60.,-25.,-16.));
#335=CARTESIAN_POINT('',(60.,-25.,0.));
#336=CARTESIAN_POINT('',(60.,25.,0.));
#337=CARTESIAN_POINT('',(60.,-25.,-16.));
#338=CARTESIAN_POINT('',(60.,25.,-16.));
#339=CARTESIAN_POINT('',(60.,25.,-16.));
#340=CARTESIAN_POINT('',(60.,25.,-16.));
#341=CARTESIAN_POINT('',(60.,25.,0.));
#342=CARTESIAN_POINT('',(-60.,25.,0.));
#343=CARTESIAN_POINT('',(60.,25.,-16.));
#344=CARTESIAN_POINT('',(-60.,25.,-16.));
#345=CARTESIAN_POINT('',(-60.,25.,-16.));
#346=CARTESIAN_POINT('',(-60.,25.,-16.));
#347=CARTESIAN_POINT('',(-60.,25.,0.));
#348=CARTESIAN_POINT('',(-60.,25.,-16.));
#349=CARTESIAN_POINT('',(0.,0.,-16.));
#350=CARTESIAN_POINT('',(50.,17.5,-16.));
#351=CARTESIAN_POINT('',(52.,17.5,-16.));
#352=CARTESIAN_POINT('',(50.,-17.5,-16.));
#353=CARTESIAN_POINT('',(52.,-17.5,-16.));
#354=CARTESIAN_POINT('',(-50.,17.5,-16.));
#355=CARTESIAN_POINT('',(-48.,17.5,-16.));
#356=CARTESIAN_POINT('',(-50.,-17.5,-16.));
#357=CARTESIAN_POINT('',(-48.,-17.5,-16.));
#358=CARTESIAN_POINT('',(0.,0.,0.));
#359=CARTESIAN_POINT('',(35.,0.,0.));
#360=CARTESIAN_POINT('',(45.,0.,0.));
#361=CARTESIAN_POINT('',(0.,0.,0.));
#362=CARTESIAN_POINT('',(10.,0.,0.));
#363=CARTESIAN_POINT('',(-35.,0.,0.));
#364=CARTESIAN_POINT('',(-25.,0.,0.));
#365=CARTESIAN_POINT('',(50.,17.5,0.));
#366=CARTESIAN_POINT('',(52.,17.5,0.));
#367=CARTESIAN_POINT('',(50.,-17.5,0.));
#368=CARTESIAN_POINT('',(52.,-17.5,0.));
#369=CARTESIAN_POINT('',(-50.,17.5,0.));
#370=CARTESIAN_POINT('',(-48.,17.5,0.));
#371=CARTESIAN_POINT('',(-50.,-17.5,0.));
#372=CARTESIAN_POINT('',(-48.,-17.5,0.));
#373=CARTESIAN_POINT('',(-50.,-17.5,-38.0953181031254));
#374=CARTESIAN_POINT('',(-50.,17.5,-38.0953181031254));
#375=CARTESIAN_POINT('',(50.,-17.5,-38.0953181031254));
#376=CARTESIAN_POINT('',(50.,17.5,-38.0953181031254));
#377=CARTESIAN_POINT('',(-35.,0.,0.));
#378=CARTESIAN_POINT('',(0.,0.,0.));
#379=CARTESIAN_POINT('',(35.,0.,0.));
#380=MECHANICAL_DESIGN_GEOMETRIC_PRESENTATION_REPRESENTATION('',(#226),
#381);
#381=(
GEOMETRIC_REPRESENTATION_CONTEXT(3)
GLOBAL_UNCERTAINTY_ASSIGNED_CONTEXT((#382))
GLOBAL_UNIT_ASSIGNED_CONTEXT((#385,#384,#383))
REPRESENTATION_CONTEXT('Áã¼þ»¶6','TOP_LEVEL_ASSEMBLY_PART')
);
#382=UNCERTAINTY_MEASURE_WITH_UNIT(LENGTH_MEASURE(0.005),#385,
'DISTANCE_ACCURACY_VALUE','Maximum Tolerance applied to model');
#383=(
NAMED_UNIT(*)
SI_UNIT($,.STERADIAN.)
SOLID_ANGLE_UNIT()
);
#384=(
NAMED_UNIT(*)
PLANE_ANGLE_UNIT()
SI_UNIT($,.RADIAN.)
);
#385=(
LENGTH_UNIT()
NAMED_UNIT(*)
SI_UNIT(.MILLI.,.METRE.)
);
#386=PRODUCT_DEFINITION_SHAPE('','',#387);
#387=PRODUCT_DEFINITION('','',#389,#388);
#388=PRODUCT_DEFINITION_CONTEXT('',#395,'design');
#389=PRODUCT_DEFINITION_FORMATION_WITH_SPECIFIED_SOURCE('','',#391,
 .NOT_KNOWN.);
#390=PRODUCT_RELATED_PRODUCT_CATEGORY('','',(#391));
#391=PRODUCT('Áã¼þ»¶6','Áã¼þ»¶6','Áã¼þ»¶6',(#393));
#392=PRODUCT_CATEGORY('','');
#393=PRODUCT_CONTEXT('',#395,'mechanical');
#394=APPLICATION_PROTOCOL_DEFINITION('international standard',
'automotive_design',2010,#395);
#395=APPLICATION_CONTEXT(
'core data for automotive mechanical design processes');
ENDSEC;
END-ISO-10303-21;
