ISO-10303-21;
HEADER;
/* Generated by software containing ST-Developer
 * from STEP Tools, Inc. (www.steptools.com) 
 */
/* OPTION: strings as raw bytes, not using required /X/ escapes */

FILE_DESCRIPTION(
/* description */ ('Unknown'),
/* implementation_level */ '2;1');

FILE_NAME(
/* name */ '绠变綋',
/* time_stamp */ '2024-10-08T11:32:11+08:00',
/* author */ ('Unknown'),
/* organization */ ('Unknown'),
/* preprocessor_version */ 'ST-DEVELOPER v19.4',
/* originating_system */ 'Solid Edge',
/* authorisation */ 'Unknown');

FILE_SCHEMA (('AUTOMOTIVE_DESIGN {1 0 10303 214 3 1 1}'));
ENDSEC;

DATA;
#10=PROPERTY_DEFINITION_REPRESENTATION(#14,#12);
#11=PROPERTY_DEFINITION_REPRESENTATION(#15,#13);
#12=REPRESENTATION('',(#16),#1207);
#13=REPRESENTATION('',(#17),#1207);
#14=PROPERTY_DEFINITION('pmi validation property','',#1212);
#15=PROPERTY_DEFINITION('pmi validation property','',#1212);
#16=VALUE_REPRESENTATION_ITEM('number of annotations',COUNT_MEASURE(0.));
#17=VALUE_REPRESENTATION_ITEM('number of views',COUNT_MEASURE(0.));
#18=SHAPE_REPRESENTATION_RELATIONSHIP('','',#701,#19);
#19=ADVANCED_BREP_SHAPE_REPRESENTATION('',(#699),#1207);
#20=SPHERICAL_SURFACE('',#740,9.99999999999998);
#21=SPHERICAL_SURFACE('',#751,9.99999999999998);
#22=SPHERICAL_SURFACE('',#753,9.99999999999998);
#23=SPHERICAL_SURFACE('',#759,9.99999999999998);
#24=SPHERICAL_SURFACE('',#764,9.99999999999998);
#25=SPHERICAL_SURFACE('',#775,9.99999999999998);
#26=SPHERICAL_SURFACE('',#777,9.99999999999998);
#27=SPHERICAL_SURFACE('',#783,9.99999999999998);
#28=CYLINDRICAL_SURFACE('',#738,9.99999999999998);
#29=CYLINDRICAL_SURFACE('',#743,9.99999999999998);
#30=CYLINDRICAL_SURFACE('',#745,9.99999999999998);
#31=CYLINDRICAL_SURFACE('',#747,9.99999999999998);
#32=CYLINDRICAL_SURFACE('',#749,9.99999999999998);
#33=CYLINDRICAL_SURFACE('',#755,9.99999999999998);
#34=CYLINDRICAL_SURFACE('',#757,9.99999999999998);
#35=CYLINDRICAL_SURFACE('',#761,9.99999999999998);
#36=CYLINDRICAL_SURFACE('',#762,9.99999999999998);
#37=CYLINDRICAL_SURFACE('',#767,9.99999999999998);
#38=CYLINDRICAL_SURFACE('',#769,9.99999999999998);
#39=CYLINDRICAL_SURFACE('',#771,9.99999999999998);
#40=CYLINDRICAL_SURFACE('',#773,9.99999999999998);
#41=CYLINDRICAL_SURFACE('',#779,9.99999999999998);
#42=CYLINDRICAL_SURFACE('',#781,9.99999999999998);
#43=CYLINDRICAL_SURFACE('',#785,9.99999999999998);
#44=CYLINDRICAL_SURFACE('',#786,3.);
#45=CYLINDRICAL_SURFACE('',#787,3.);
#46=CYLINDRICAL_SURFACE('',#788,3.);
#47=CYLINDRICAL_SURFACE('',#789,3.);
#48=CYLINDRICAL_SURFACE('',#790,3.);
#49=CYLINDRICAL_SURFACE('',#791,3.);
#50=CYLINDRICAL_SURFACE('',#792,3.);
#51=CYLINDRICAL_SURFACE('',#793,3.);
#52=LINE('',#1028,#92);
#53=LINE('',#1031,#93);
#54=LINE('',#1033,#94);
#55=LINE('',#1035,#95);
#56=LINE('',#1045,#96);
#57=LINE('',#1048,#97);
#58=LINE('',#1050,#98);
#59=LINE('',#1052,#99);
#60=LINE('',#1054,#100);
#61=LINE('',#1057,#101);
#62=LINE('',#1059,#102);
#63=LINE('',#1061,#103);
#64=LINE('',#1063,#104);
#65=LINE('',#1066,#105);
#66=LINE('',#1068,#106);
#67=LINE('',#1070,#107);
#68=LINE('',#1072,#108);
#69=LINE('',#1075,#109);
#70=LINE('',#1077,#110);
#71=LINE('',#1079,#111);
#72=LINE('',#1081,#112);
#73=LINE('',#1084,#113);
#74=LINE('',#1086,#114);
#75=LINE('',#1088,#115);
#76=LINE('',#1090,#116);
#77=LINE('',#1093,#117);
#78=LINE('',#1095,#118);
#79=LINE('',#1097,#119);
#80=LINE('',#1099,#120);
#81=LINE('',#1102,#121);
#82=LINE('',#1104,#122);
#83=LINE('',#1106,#123);
#84=LINE('',#1116,#124);
#85=LINE('',#1119,#125);
#86=LINE('',#1121,#126);
#87=LINE('',#1123,#127);
#88=LINE('',#1142,#128);
#89=LINE('',#1145,#129);
#90=LINE('',#1147,#130);
#91=LINE('',#1149,#131);
#92=VECTOR('',#806,1000.);
#93=VECTOR('',#807,1000.);
#94=VECTOR('',#808,1000.);
#95=VECTOR('',#809,1000.);
#96=VECTOR('',#820,1000.);
#97=VECTOR('',#821,1000.);
#98=VECTOR('',#822,1000.);
#99=VECTOR('',#823,1000.);
#100=VECTOR('',#826,1000.);
#101=VECTOR('',#827,1000.);
#102=VECTOR('',#828,1000.);
#103=VECTOR('',#829,1000.);
#104=VECTOR('',#832,1000.);
#105=VECTOR('',#833,1000.);
#106=VECTOR('',#834,1000.);
#107=VECTOR('',#835,1000.);
#108=VECTOR('',#838,1000.);
#109=VECTOR('',#839,1000.);
#110=VECTOR('',#840,1000.);
#111=VECTOR('',#841,1000.);
#112=VECTOR('',#844,1000.);
#113=VECTOR('',#845,1000.);
#114=VECTOR('',#846,1000.);
#115=VECTOR('',#847,1000.);
#116=VECTOR('',#850,1000.);
#117=VECTOR('',#851,1000.);
#118=VECTOR('',#852,1000.);
#119=VECTOR('',#853,1000.);
#120=VECTOR('',#856,1000.);
#121=VECTOR('',#857,1000.);
#122=VECTOR('',#858,1000.);
#123=VECTOR('',#859,1000.);
#124=VECTOR('',#870,1000.);
#125=VECTOR('',#871,1000.);
#126=VECTOR('',#872,1000.);
#127=VECTOR('',#873,1000.);
#128=VECTOR('',#902,1000.);
#129=VECTOR('',#903,1000.);
#130=VECTOR('',#904,1000.);
#131=VECTOR('',#905,1000.);
#132=ORIENTED_EDGE('',*,*,#308,.T.);
#133=ORIENTED_EDGE('',*,*,#309,.T.);
#134=ORIENTED_EDGE('',*,*,#310,.T.);
#135=ORIENTED_EDGE('',*,*,#311,.T.);
#136=ORIENTED_EDGE('',*,*,#312,.T.);
#137=ORIENTED_EDGE('',*,*,#313,.T.);
#138=ORIENTED_EDGE('',*,*,#314,.T.);
#139=ORIENTED_EDGE('',*,*,#315,.T.);
#140=ORIENTED_EDGE('',*,*,#316,.T.);
#141=ORIENTED_EDGE('',*,*,#317,.T.);
#142=ORIENTED_EDGE('',*,*,#318,.T.);
#143=ORIENTED_EDGE('',*,*,#319,.T.);
#144=ORIENTED_EDGE('',*,*,#320,.T.);
#145=ORIENTED_EDGE('',*,*,#321,.T.);
#146=ORIENTED_EDGE('',*,*,#322,.T.);
#147=ORIENTED_EDGE('',*,*,#323,.T.);
#148=ORIENTED_EDGE('',*,*,#324,.T.);
#149=ORIENTED_EDGE('',*,*,#325,.T.);
#150=ORIENTED_EDGE('',*,*,#326,.T.);
#151=ORIENTED_EDGE('',*,*,#327,.T.);
#152=ORIENTED_EDGE('',*,*,#328,.T.);
#153=ORIENTED_EDGE('',*,*,#329,.T.);
#154=ORIENTED_EDGE('',*,*,#330,.T.);
#155=ORIENTED_EDGE('',*,*,#331,.T.);
#156=ORIENTED_EDGE('',*,*,#332,.T.);
#157=ORIENTED_EDGE('',*,*,#333,.T.);
#158=ORIENTED_EDGE('',*,*,#334,.T.);
#159=ORIENTED_EDGE('',*,*,#335,.T.);
#160=ORIENTED_EDGE('',*,*,#336,.T.);
#161=ORIENTED_EDGE('',*,*,#337,.T.);
#162=ORIENTED_EDGE('',*,*,#338,.F.);
#163=ORIENTED_EDGE('',*,*,#339,.T.);
#164=ORIENTED_EDGE('',*,*,#340,.F.);
#165=ORIENTED_EDGE('',*,*,#341,.T.);
#166=ORIENTED_EDGE('',*,*,#342,.T.);
#167=ORIENTED_EDGE('',*,*,#343,.T.);
#168=ORIENTED_EDGE('',*,*,#344,.F.);
#169=ORIENTED_EDGE('',*,*,#345,.T.);
#170=ORIENTED_EDGE('',*,*,#346,.T.);
#171=ORIENTED_EDGE('',*,*,#347,.T.);
#172=ORIENTED_EDGE('',*,*,#348,.T.);
#173=ORIENTED_EDGE('',*,*,#349,.T.);
#174=ORIENTED_EDGE('',*,*,#350,.T.);
#175=ORIENTED_EDGE('',*,*,#351,.T.);
#176=ORIENTED_EDGE('',*,*,#352,.T.);
#177=ORIENTED_EDGE('',*,*,#353,.T.);
#178=ORIENTED_EDGE('',*,*,#354,.F.);
#179=ORIENTED_EDGE('',*,*,#355,.T.);
#180=ORIENTED_EDGE('',*,*,#332,.F.);
#181=ORIENTED_EDGE('',*,*,#356,.T.);
#182=ORIENTED_EDGE('',*,*,#328,.F.);
#183=ORIENTED_EDGE('',*,*,#357,.T.);
#184=ORIENTED_EDGE('',*,*,#326,.F.);
#185=ORIENTED_EDGE('',*,*,#358,.T.);
#186=ORIENTED_EDGE('',*,*,#322,.F.);
#187=ORIENTED_EDGE('',*,*,#359,.T.);
#188=ORIENTED_EDGE('',*,*,#338,.T.);
#189=ORIENTED_EDGE('',*,*,#360,.T.);
#190=ORIENTED_EDGE('',*,*,#340,.T.);
#191=ORIENTED_EDGE('',*,*,#361,.T.);
#192=ORIENTED_EDGE('',*,*,#344,.T.);
#193=ORIENTED_EDGE('',*,*,#362,.T.);
#194=ORIENTED_EDGE('',*,*,#354,.T.);
#195=ORIENTED_EDGE('',*,*,#363,.T.);
#196=ORIENTED_EDGE('',*,*,#364,.T.);
#197=ORIENTED_EDGE('',*,*,#365,.T.);
#198=ORIENTED_EDGE('',*,*,#366,.T.);
#199=ORIENTED_EDGE('',*,*,#367,.T.);
#200=ORIENTED_EDGE('',*,*,#368,.T.);
#201=ORIENTED_EDGE('',*,*,#369,.T.);
#202=ORIENTED_EDGE('',*,*,#370,.T.);
#203=ORIENTED_EDGE('',*,*,#371,.T.);
#204=ORIENTED_EDGE('',*,*,#372,.F.);
#205=ORIENTED_EDGE('',*,*,#327,.F.);
#206=ORIENTED_EDGE('',*,*,#357,.F.);
#207=ORIENTED_EDGE('',*,*,#331,.F.);
#208=ORIENTED_EDGE('',*,*,#373,.F.);
#209=ORIENTED_EDGE('',*,*,#372,.T.);
#210=ORIENTED_EDGE('',*,*,#374,.F.);
#211=ORIENTED_EDGE('',*,*,#356,.F.);
#212=ORIENTED_EDGE('',*,*,#335,.F.);
#213=ORIENTED_EDGE('',*,*,#375,.F.);
#214=ORIENTED_EDGE('',*,*,#329,.F.);
#215=ORIENTED_EDGE('',*,*,#374,.T.);
#216=ORIENTED_EDGE('',*,*,#330,.F.);
#217=ORIENTED_EDGE('',*,*,#376,.F.);
#218=ORIENTED_EDGE('',*,*,#371,.F.);
#219=ORIENTED_EDGE('',*,*,#373,.T.);
#220=ORIENTED_EDGE('',*,*,#370,.F.);
#221=ORIENTED_EDGE('',*,*,#377,.F.);
#222=ORIENTED_EDGE('',*,*,#324,.F.);
#223=ORIENTED_EDGE('',*,*,#358,.F.);
#224=ORIENTED_EDGE('',*,*,#325,.F.);
#225=ORIENTED_EDGE('',*,*,#378,.F.);
#226=ORIENTED_EDGE('',*,*,#323,.F.);
#227=ORIENTED_EDGE('',*,*,#376,.T.);
#228=ORIENTED_EDGE('',*,*,#375,.T.);
#229=ORIENTED_EDGE('',*,*,#379,.F.);
#230=ORIENTED_EDGE('',*,*,#378,.T.);
#231=ORIENTED_EDGE('',*,*,#377,.T.);
#232=ORIENTED_EDGE('',*,*,#380,.F.);
#233=ORIENTED_EDGE('',*,*,#379,.T.);
#234=ORIENTED_EDGE('',*,*,#334,.F.);
#235=ORIENTED_EDGE('',*,*,#381,.F.);
#236=ORIENTED_EDGE('',*,*,#368,.F.);
#237=ORIENTED_EDGE('',*,*,#380,.T.);
#238=ORIENTED_EDGE('',*,*,#369,.F.);
#239=ORIENTED_EDGE('',*,*,#382,.F.);
#240=ORIENTED_EDGE('',*,*,#320,.F.);
#241=ORIENTED_EDGE('',*,*,#382,.T.);
#242=ORIENTED_EDGE('',*,*,#381,.T.);
#243=ORIENTED_EDGE('',*,*,#383,.F.);
#244=ORIENTED_EDGE('',*,*,#359,.F.);
#245=ORIENTED_EDGE('',*,*,#321,.F.);
#246=ORIENTED_EDGE('',*,*,#383,.T.);
#247=ORIENTED_EDGE('',*,*,#333,.F.);
#248=ORIENTED_EDGE('',*,*,#384,.F.);
#249=ORIENTED_EDGE('',*,*,#355,.F.);
#250=ORIENTED_EDGE('',*,*,#362,.F.);
#251=ORIENTED_EDGE('',*,*,#347,.F.);
#252=ORIENTED_EDGE('',*,*,#385,.F.);
#253=ORIENTED_EDGE('',*,*,#384,.T.);
#254=ORIENTED_EDGE('',*,*,#386,.F.);
#255=ORIENTED_EDGE('',*,*,#361,.F.);
#256=ORIENTED_EDGE('',*,*,#343,.F.);
#257=ORIENTED_EDGE('',*,*,#387,.F.);
#258=ORIENTED_EDGE('',*,*,#345,.F.);
#259=ORIENTED_EDGE('',*,*,#386,.T.);
#260=ORIENTED_EDGE('',*,*,#346,.F.);
#261=ORIENTED_EDGE('',*,*,#388,.F.);
#262=ORIENTED_EDGE('',*,*,#315,.F.);
#263=ORIENTED_EDGE('',*,*,#385,.T.);
#264=ORIENTED_EDGE('',*,*,#314,.F.);
#265=ORIENTED_EDGE('',*,*,#389,.F.);
#266=ORIENTED_EDGE('',*,*,#352,.F.);
#267=ORIENTED_EDGE('',*,*,#363,.F.);
#268=ORIENTED_EDGE('',*,*,#353,.F.);
#269=ORIENTED_EDGE('',*,*,#390,.F.);
#270=ORIENTED_EDGE('',*,*,#339,.F.);
#271=ORIENTED_EDGE('',*,*,#388,.T.);
#272=ORIENTED_EDGE('',*,*,#387,.T.);
#273=ORIENTED_EDGE('',*,*,#391,.F.);
#274=ORIENTED_EDGE('',*,*,#390,.T.);
#275=ORIENTED_EDGE('',*,*,#389,.T.);
#276=ORIENTED_EDGE('',*,*,#392,.F.);
#277=ORIENTED_EDGE('',*,*,#391,.T.);
#278=ORIENTED_EDGE('',*,*,#342,.F.);
#279=ORIENTED_EDGE('',*,*,#393,.F.);
#280=ORIENTED_EDGE('',*,*,#312,.F.);
#281=ORIENTED_EDGE('',*,*,#392,.T.);
#282=ORIENTED_EDGE('',*,*,#313,.F.);
#283=ORIENTED_EDGE('',*,*,#394,.F.);
#284=ORIENTED_EDGE('',*,*,#336,.F.);
#285=ORIENTED_EDGE('',*,*,#394,.T.);
#286=ORIENTED_EDGE('',*,*,#393,.T.);
#287=ORIENTED_EDGE('',*,*,#395,.F.);
#288=ORIENTED_EDGE('',*,*,#360,.F.);
#289=ORIENTED_EDGE('',*,*,#337,.F.);
#290=ORIENTED_EDGE('',*,*,#395,.T.);
#291=ORIENTED_EDGE('',*,*,#341,.F.);
#292=ORIENTED_EDGE('',*,*,#367,.F.);
#293=ORIENTED_EDGE('',*,*,#311,.F.);
#294=ORIENTED_EDGE('',*,*,#366,.F.);
#295=ORIENTED_EDGE('',*,*,#310,.F.);
#296=ORIENTED_EDGE('',*,*,#365,.F.);
#297=ORIENTED_EDGE('',*,*,#309,.F.);
#298=ORIENTED_EDGE('',*,*,#364,.F.);
#299=ORIENTED_EDGE('',*,*,#308,.F.);
#300=ORIENTED_EDGE('',*,*,#319,.F.);
#301=ORIENTED_EDGE('',*,*,#351,.F.);
#302=ORIENTED_EDGE('',*,*,#318,.F.);
#303=ORIENTED_EDGE('',*,*,#350,.F.);
#304=ORIENTED_EDGE('',*,*,#317,.F.);
#305=ORIENTED_EDGE('',*,*,#349,.F.);
#306=ORIENTED_EDGE('',*,*,#316,.F.);
#307=ORIENTED_EDGE('',*,*,#348,.F.);
#308=EDGE_CURVE('',#396,#396,#452,.T.);
#309=EDGE_CURVE('',#397,#397,#453,.T.);
#310=EDGE_CURVE('',#398,#398,#454,.T.);
#311=EDGE_CURVE('',#399,#399,#455,.T.);
#312=EDGE_CURVE('',#400,#401,#52,.F.);
#313=EDGE_CURVE('',#401,#402,#53,.F.);
#314=EDGE_CURVE('',#402,#403,#54,.F.);
#315=EDGE_CURVE('',#403,#400,#55,.F.);
#316=EDGE_CURVE('',#404,#404,#456,.F.);
#317=EDGE_CURVE('',#405,#405,#457,.F.);
#318=EDGE_CURVE('',#406,#406,#458,.F.);
#319=EDGE_CURVE('',#407,#407,#459,.F.);
#320=EDGE_CURVE('',#408,#409,#56,.F.);
#321=EDGE_CURVE('',#409,#410,#57,.F.);
#322=EDGE_CURVE('',#410,#411,#58,.T.);
#323=EDGE_CURVE('',#411,#408,#59,.T.);
#324=EDGE_CURVE('',#412,#413,#60,.F.);
#325=EDGE_CURVE('',#413,#414,#61,.F.);
#326=EDGE_CURVE('',#414,#415,#62,.T.);
#327=EDGE_CURVE('',#415,#412,#63,.T.);
#328=EDGE_CURVE('',#416,#417,#64,.T.);
#329=EDGE_CURVE('',#417,#418,#65,.T.);
#330=EDGE_CURVE('',#418,#419,#66,.F.);
#331=EDGE_CURVE('',#419,#416,#67,.F.);
#332=EDGE_CURVE('',#420,#421,#68,.T.);
#333=EDGE_CURVE('',#421,#422,#69,.T.);
#334=EDGE_CURVE('',#422,#423,#70,.F.);
#335=EDGE_CURVE('',#423,#420,#71,.F.);
#336=EDGE_CURVE('',#424,#425,#72,.T.);
#337=EDGE_CURVE('',#425,#426,#73,.F.);
#338=EDGE_CURVE('',#427,#426,#74,.T.);
#339=EDGE_CURVE('',#427,#424,#75,.T.);
#340=EDGE_CURVE('',#428,#429,#76,.T.);
#341=EDGE_CURVE('',#428,#430,#77,.T.);
#342=EDGE_CURVE('',#430,#431,#78,.T.);
#343=EDGE_CURVE('',#431,#429,#79,.F.);
#344=EDGE_CURVE('',#432,#433,#80,.T.);
#345=EDGE_CURVE('',#432,#434,#81,.T.);
#346=EDGE_CURVE('',#434,#435,#82,.T.);
#347=EDGE_CURVE('',#435,#433,#83,.F.);
#348=EDGE_CURVE('',#436,#436,#460,.T.);
#349=EDGE_CURVE('',#437,#437,#461,.T.);
#350=EDGE_CURVE('',#438,#438,#462,.T.);
#351=EDGE_CURVE('',#439,#439,#463,.T.);
#352=EDGE_CURVE('',#440,#441,#84,.T.);
#353=EDGE_CURVE('',#441,#442,#85,.F.);
#354=EDGE_CURVE('',#443,#442,#86,.T.);
#355=EDGE_CURVE('',#443,#440,#87,.T.);
#356=EDGE_CURVE('',#420,#417,#464,.F.);
#357=EDGE_CURVE('',#416,#415,#465,.F.);
#358=EDGE_CURVE('',#414,#411,#466,.F.);
#359=EDGE_CURVE('',#410,#421,#467,.F.);
#360=EDGE_CURVE('',#426,#428,#468,.T.);
#361=EDGE_CURVE('',#429,#432,#469,.T.);
#362=EDGE_CURVE('',#433,#443,#470,.T.);
#363=EDGE_CURVE('',#442,#427,#471,.T.);
#364=EDGE_CURVE('',#444,#444,#472,.F.);
#365=EDGE_CURVE('',#445,#445,#473,.F.);
#366=EDGE_CURVE('',#446,#446,#474,.F.);
#367=EDGE_CURVE('',#447,#447,#475,.F.);
#368=EDGE_CURVE('',#448,#449,#88,.T.);
#369=EDGE_CURVE('',#449,#450,#89,.T.);
#370=EDGE_CURVE('',#450,#451,#90,.T.);
#371=EDGE_CURVE('',#451,#448,#91,.T.);
#372=EDGE_CURVE('',#412,#419,#476,.T.);
#373=EDGE_CURVE('',#412,#451,#477,.F.);
#374=EDGE_CURVE('',#451,#419,#478,.F.);
#375=EDGE_CURVE('',#418,#423,#479,.T.);
#376=EDGE_CURVE('',#448,#418,#480,.T.);
#377=EDGE_CURVE('',#413,#450,#481,.T.);
#378=EDGE_CURVE('',#408,#413,#482,.T.);
#379=EDGE_CURVE('',#448,#423,#483,.F.);
#380=EDGE_CURVE('',#408,#450,#484,.F.);
#381=EDGE_CURVE('',#449,#422,#485,.T.);
#382=EDGE_CURVE('',#409,#449,#486,.T.);
#383=EDGE_CURVE('',#409,#422,#487,.F.);
#384=EDGE_CURVE('',#440,#435,#488,.T.);
#385=EDGE_CURVE('',#440,#403,#489,.F.);
#386=EDGE_CURVE('',#403,#435,#490,.F.);
#387=EDGE_CURVE('',#434,#431,#491,.T.);
#388=EDGE_CURVE('',#400,#434,#492,.T.);
#389=EDGE_CURVE('',#441,#402,#493,.T.);
#390=EDGE_CURVE('',#424,#441,#494,.T.);
#391=EDGE_CURVE('',#400,#431,#495,.F.);
#392=EDGE_CURVE('',#424,#402,#496,.F.);
#393=EDGE_CURVE('',#401,#430,#497,.T.);
#394=EDGE_CURVE('',#425,#401,#498,.T.);
#395=EDGE_CURVE('',#425,#430,#499,.F.);
#396=VERTEX_POINT('',#1021);
#397=VERTEX_POINT('',#1023);
#398=VERTEX_POINT('',#1025);
#399=VERTEX_POINT('',#1027);
#400=VERTEX_POINT('',#1029);
#401=VERTEX_POINT('',#1030);
#402=VERTEX_POINT('',#1032);
#403=VERTEX_POINT('',#1034);
#404=VERTEX_POINT('',#1038);
#405=VERTEX_POINT('',#1040);
#406=VERTEX_POINT('',#1042);
#407=VERTEX_POINT('',#1044);
#408=VERTEX_POINT('',#1046);
#409=VERTEX_POINT('',#1047);
#410=VERTEX_POINT('',#1049);
#411=VERTEX_POINT('',#1051);
#412=VERTEX_POINT('',#1055);
#413=VERTEX_POINT('',#1056);
#414=VERTEX_POINT('',#1058);
#415=VERTEX_POINT('',#1060);
#416=VERTEX_POINT('',#1064);
#417=VERTEX_POINT('',#1065);
#418=VERTEX_POINT('',#1067);
#419=VERTEX_POINT('',#1069);
#420=VERTEX_POINT('',#1073);
#421=VERTEX_POINT('',#1074);
#422=VERTEX_POINT('',#1076);
#423=VERTEX_POINT('',#1078);
#424=VERTEX_POINT('',#1082);
#425=VERTEX_POINT('',#1083);
#426=VERTEX_POINT('',#1085);
#427=VERTEX_POINT('',#1087);
#428=VERTEX_POINT('',#1091);
#429=VERTEX_POINT('',#1092);
#430=VERTEX_POINT('',#1094);
#431=VERTEX_POINT('',#1096);
#432=VERTEX_POINT('',#1100);
#433=VERTEX_POINT('',#1101);
#434=VERTEX_POINT('',#1103);
#435=VERTEX_POINT('',#1105);
#436=VERTEX_POINT('',#1109);
#437=VERTEX_POINT('',#1111);
#438=VERTEX_POINT('',#1113);
#439=VERTEX_POINT('',#1115);
#440=VERTEX_POINT('',#1117);
#441=VERTEX_POINT('',#1118);
#442=VERTEX_POINT('',#1120);
#443=VERTEX_POINT('',#1122);
#444=VERTEX_POINT('',#1135);
#445=VERTEX_POINT('',#1137);
#446=VERTEX_POINT('',#1139);
#447=VERTEX_POINT('',#1141);
#448=VERTEX_POINT('',#1143);
#449=VERTEX_POINT('',#1144);
#450=VERTEX_POINT('',#1146);
#451=VERTEX_POINT('',#1148);
#452=CIRCLE('',#704,3.);
#453=CIRCLE('',#705,3.);
#454=CIRCLE('',#706,3.);
#455=CIRCLE('',#707,3.);
#456=CIRCLE('',#709,3.);
#457=CIRCLE('',#710,3.);
#458=CIRCLE('',#711,3.);
#459=CIRCLE('',#712,3.);
#460=CIRCLE('',#720,3.);
#461=CIRCLE('',#721,3.);
#462=CIRCLE('',#722,3.);
#463=CIRCLE('',#723,3.);
#464=CIRCLE('',#725,9.99999999999998);
#465=CIRCLE('',#726,9.99999999999998);
#466=CIRCLE('',#727,9.99999999999998);
#467=CIRCLE('',#728,9.99999999999998);
#468=CIRCLE('',#729,9.99999999999998);
#469=CIRCLE('',#730,9.99999999999998);
#470=CIRCLE('',#731,9.99999999999998);
#471=CIRCLE('',#732,9.99999999999998);
#472=CIRCLE('',#734,3.);
#473=CIRCLE('',#735,3.);
#474=CIRCLE('',#736,3.);
#475=CIRCLE('',#737,3.);
#476=CIRCLE('',#739,9.99999999999998);
#477=CIRCLE('',#741,9.99999999999998);
#478=CIRCLE('',#742,9.99999999999998);
#479=CIRCLE('',#744,9.99999999999998);
#480=CIRCLE('',#746,9.99999999999998);
#481=CIRCLE('',#748,9.99999999999998);
#482=CIRCLE('',#750,9.99999999999998);
#483=CIRCLE('',#752,9.99999999999998);
#484=CIRCLE('',#754,9.99999999999998);
#485=CIRCLE('',#756,9.99999999999998);
#486=CIRCLE('',#758,9.99999999999998);
#487=CIRCLE('',#760,9.99999999999998);
#488=CIRCLE('',#763,9.99999999999998);
#489=CIRCLE('',#765,9.99999999999998);
#490=CIRCLE('',#766,9.99999999999998);
#491=CIRCLE('',#768,9.99999999999998);
#492=CIRCLE('',#770,9.99999999999998);
#493=CIRCLE('',#772,9.99999999999998);
#494=CIRCLE('',#774,9.99999999999998);
#495=CIRCLE('',#776,9.99999999999998);
#496=CIRCLE('',#778,9.99999999999998);
#497=CIRCLE('',#780,9.99999999999998);
#498=CIRCLE('',#782,9.99999999999998);
#499=CIRCLE('',#784,9.99999999999998);
#500=EDGE_LOOP('',(#132));
#501=EDGE_LOOP('',(#133));
#502=EDGE_LOOP('',(#134));
#503=EDGE_LOOP('',(#135));
#504=EDGE_LOOP('',(#136,#137,#138,#139));
#505=EDGE_LOOP('',(#140));
#506=EDGE_LOOP('',(#141));
#507=EDGE_LOOP('',(#142));
#508=EDGE_LOOP('',(#143));
#509=EDGE_LOOP('',(#144,#145,#146,#147));
#510=EDGE_LOOP('',(#148,#149,#150,#151));
#511=EDGE_LOOP('',(#152,#153,#154,#155));
#512=EDGE_LOOP('',(#156,#157,#158,#159));
#513=EDGE_LOOP('',(#160,#161,#162,#163));
#514=EDGE_LOOP('',(#164,#165,#166,#167));
#515=EDGE_LOOP('',(#168,#169,#170,#171));
#516=EDGE_LOOP('',(#172));
#517=EDGE_LOOP('',(#173));
#518=EDGE_LOOP('',(#174));
#519=EDGE_LOOP('',(#175));
#520=EDGE_LOOP('',(#176,#177,#178,#179));
#521=EDGE_LOOP('',(#180,#181,#182,#183,#184,#185,#186,#187));
#522=EDGE_LOOP('',(#188,#189,#190,#191,#192,#193,#194,#195));
#523=EDGE_LOOP('',(#196));
#524=EDGE_LOOP('',(#197));
#525=EDGE_LOOP('',(#198));
#526=EDGE_LOOP('',(#199));
#527=EDGE_LOOP('',(#200,#201,#202,#203));
#528=EDGE_LOOP('',(#204,#205,#206,#207));
#529=EDGE_LOOP('',(#208,#209,#210));
#530=EDGE_LOOP('',(#211,#212,#213,#214));
#531=EDGE_LOOP('',(#215,#216,#217,#218));
#532=EDGE_LOOP('',(#219,#220,#221,#222));
#533=EDGE_LOOP('',(#223,#224,#225,#226));
#534=EDGE_LOOP('',(#227,#228,#229));
#535=EDGE_LOOP('',(#230,#231,#232));
#536=EDGE_LOOP('',(#233,#234,#235,#236));
#537=EDGE_LOOP('',(#237,#238,#239,#240));
#538=EDGE_LOOP('',(#241,#242,#243));
#539=EDGE_LOOP('',(#244,#245,#246,#247));
#540=EDGE_LOOP('',(#248,#249,#250,#251));
#541=EDGE_LOOP('',(#252,#253,#254));
#542=EDGE_LOOP('',(#255,#256,#257,#258));
#543=EDGE_LOOP('',(#259,#260,#261,#262));
#544=EDGE_LOOP('',(#263,#264,#265,#266));
#545=EDGE_LOOP('',(#267,#268,#269,#270));
#546=EDGE_LOOP('',(#271,#272,#273));
#547=EDGE_LOOP('',(#274,#275,#276));
#548=EDGE_LOOP('',(#277,#278,#279,#280));
#549=EDGE_LOOP('',(#281,#282,#283,#284));
#550=EDGE_LOOP('',(#285,#286,#287));
#551=EDGE_LOOP('',(#288,#289,#290,#291));
#552=EDGE_LOOP('',(#292));
#553=EDGE_LOOP('',(#293));
#554=EDGE_LOOP('',(#294));
#555=EDGE_LOOP('',(#295));
#556=EDGE_LOOP('',(#296));
#557=EDGE_LOOP('',(#297));
#558=EDGE_LOOP('',(#298));
#559=EDGE_LOOP('',(#299));
#560=EDGE_LOOP('',(#300));
#561=EDGE_LOOP('',(#301));
#562=EDGE_LOOP('',(#302));
#563=EDGE_LOOP('',(#303));
#564=EDGE_LOOP('',(#304));
#565=EDGE_LOOP('',(#305));
#566=EDGE_LOOP('',(#306));
#567=EDGE_LOOP('',(#307));
#568=FACE_BOUND('',#500,.T.);
#569=FACE_BOUND('',#501,.T.);
#570=FACE_BOUND('',#502,.T.);
#571=FACE_BOUND('',#503,.T.);
#572=FACE_BOUND('',#504,.T.);
#573=FACE_BOUND('',#505,.T.);
#574=FACE_BOUND('',#506,.T.);
#575=FACE_BOUND('',#507,.T.);
#576=FACE_BOUND('',#508,.T.);
#577=FACE_BOUND('',#509,.T.);
#578=FACE_BOUND('',#510,.T.);
#579=FACE_BOUND('',#511,.T.);
#580=FACE_BOUND('',#512,.T.);
#581=FACE_BOUND('',#513,.T.);
#582=FACE_BOUND('',#514,.T.);
#583=FACE_BOUND('',#515,.T.);
#584=FACE_BOUND('',#516,.T.);
#585=FACE_BOUND('',#517,.T.);
#586=FACE_BOUND('',#518,.T.);
#587=FACE_BOUND('',#519,.T.);
#588=FACE_BOUND('',#520,.T.);
#589=FACE_BOUND('',#521,.T.);
#590=FACE_BOUND('',#522,.T.);
#591=FACE_BOUND('',#523,.T.);
#592=FACE_BOUND('',#524,.T.);
#593=FACE_BOUND('',#525,.T.);
#594=FACE_BOUND('',#526,.T.);
#595=FACE_BOUND('',#527,.T.);
#596=FACE_BOUND('',#528,.T.);
#597=FACE_BOUND('',#529,.T.);
#598=FACE_BOUND('',#530,.T.);
#599=FACE_BOUND('',#531,.T.);
#600=FACE_BOUND('',#532,.T.);
#601=FACE_BOUND('',#533,.T.);
#602=FACE_BOUND('',#534,.T.);
#603=FACE_BOUND('',#535,.T.);
#604=FACE_BOUND('',#536,.T.);
#605=FACE_BOUND('',#537,.T.);
#606=FACE_BOUND('',#538,.T.);
#607=FACE_BOUND('',#539,.T.);
#608=FACE_BOUND('',#540,.T.);
#609=FACE_BOUND('',#541,.T.);
#610=FACE_BOUND('',#542,.T.);
#611=FACE_BOUND('',#543,.T.);
#612=FACE_BOUND('',#544,.T.);
#613=FACE_BOUND('',#545,.T.);
#614=FACE_BOUND('',#546,.T.);
#615=FACE_BOUND('',#547,.T.);
#616=FACE_BOUND('',#548,.T.);
#617=FACE_BOUND('',#549,.T.);
#618=FACE_BOUND('',#550,.T.);
#619=FACE_BOUND('',#551,.T.);
#620=FACE_BOUND('',#552,.T.);
#621=FACE_BOUND('',#553,.T.);
#622=FACE_BOUND('',#554,.T.);
#623=FACE_BOUND('',#555,.T.);
#624=FACE_BOUND('',#556,.T.);
#625=FACE_BOUND('',#557,.T.);
#626=FACE_BOUND('',#558,.T.);
#627=FACE_BOUND('',#559,.T.);
#628=FACE_BOUND('',#560,.T.);
#629=FACE_BOUND('',#561,.T.);
#630=FACE_BOUND('',#562,.T.);
#631=FACE_BOUND('',#563,.T.);
#632=FACE_BOUND('',#564,.T.);
#633=FACE_BOUND('',#565,.T.);
#634=FACE_BOUND('',#566,.T.);
#635=FACE_BOUND('',#567,.T.);
#636=PLANE('',#703);
#637=PLANE('',#708);
#638=PLANE('',#713);
#639=PLANE('',#714);
#640=PLANE('',#715);
#641=PLANE('',#716);
#642=PLANE('',#717);
#643=PLANE('',#718);
#644=PLANE('',#719);
#645=PLANE('',#724);
#646=PLANE('',#733);
#647=ADVANCED_FACE('',(#568,#569,#570,#571,#572),#636,.F.);
#648=ADVANCED_FACE('',(#573,#574,#575,#576,#577),#637,.T.);
#649=ADVANCED_FACE('',(#578),#638,.T.);
#650=ADVANCED_FACE('',(#579),#639,.T.);
#651=ADVANCED_FACE('',(#580),#640,.T.);
#652=ADVANCED_FACE('',(#581),#641,.F.);
#653=ADVANCED_FACE('',(#582),#642,.F.);
#654=ADVANCED_FACE('',(#583),#643,.F.);
#655=ADVANCED_FACE('',(#584,#585,#586,#587,#588),#644,.F.);
#656=ADVANCED_FACE('',(#589,#590),#645,.T.);
#657=ADVANCED_FACE('',(#591,#592,#593,#594,#595),#646,.T.);
#658=ADVANCED_FACE('',(#596),#28,.F.);
#659=ADVANCED_FACE('',(#597),#20,.F.);
#660=ADVANCED_FACE('',(#598),#29,.F.);
#661=ADVANCED_FACE('',(#599),#30,.F.);
#662=ADVANCED_FACE('',(#600),#31,.F.);
#663=ADVANCED_FACE('',(#601),#32,.F.);
#664=ADVANCED_FACE('',(#602),#21,.F.);
#665=ADVANCED_FACE('',(#603),#22,.F.);
#666=ADVANCED_FACE('',(#604),#33,.F.);
#667=ADVANCED_FACE('',(#605),#34,.F.);
#668=ADVANCED_FACE('',(#606),#23,.F.);
#669=ADVANCED_FACE('',(#607),#35,.F.);
#670=ADVANCED_FACE('',(#608),#36,.T.);
#671=ADVANCED_FACE('',(#609),#24,.T.);
#672=ADVANCED_FACE('',(#610),#37,.T.);
#673=ADVANCED_FACE('',(#611),#38,.T.);
#674=ADVANCED_FACE('',(#612),#39,.T.);
#675=ADVANCED_FACE('',(#613),#40,.T.);
#676=ADVANCED_FACE('',(#614),#25,.T.);
#677=ADVANCED_FACE('',(#615),#26,.T.);
#678=ADVANCED_FACE('',(#616),#41,.T.);
#679=ADVANCED_FACE('',(#617),#42,.T.);
#680=ADVANCED_FACE('',(#618),#27,.T.);
#681=ADVANCED_FACE('',(#619),#43,.T.);
#682=ADVANCED_FACE('',(#620,#621),#44,.F.);
#683=ADVANCED_FACE('',(#622,#623),#45,.F.);
#684=ADVANCED_FACE('',(#624,#625),#46,.F.);
#685=ADVANCED_FACE('',(#626,#627),#47,.F.);
#686=ADVANCED_FACE('',(#628,#629),#48,.F.);
#687=ADVANCED_FACE('',(#630,#631),#49,.F.);
#688=ADVANCED_FACE('',(#632,#633),#50,.F.);
#689=ADVANCED_FACE('',(#634,#635),#51,.F.);
#690=CLOSED_SHELL('',(#647,#648,#649,#650,#651,#652,#653,#654,#655,#656,
#657,#658,#659,#660,#661,#662,#663,#664,#665,#666,#667,#668,#669,#670,#671,
#672,#673,#674,#675,#676,#677,#678,#679,#680,#681,#682,#683,#684,#685,#686,
#687,#688,#689));
#691=STYLED_ITEM('',(#692),#699);
#692=PRESENTATION_STYLE_ASSIGNMENT((#693));
#693=SURFACE_STYLE_USAGE(.BOTH.,#694);
#694=SURFACE_SIDE_STYLE('',(#695));
#695=SURFACE_STYLE_FILL_AREA(#696);
#696=FILL_AREA_STYLE('',(#697));
#697=FILL_AREA_STYLE_COLOUR('',#698);
#698=COLOUR_RGB('',0.506983280181885,0.531564235687256,0.550000011920929);
#699=MANIFOLD_SOLID_BREP('',#690);
#700=SHAPE_DEFINITION_REPRESENTATION(#1212,#701);
#701=SHAPE_REPRESENTATION('零件',(#702),#1207);
#702=AXIS2_PLACEMENT_3D('',#1018,#794,#795);
#703=AXIS2_PLACEMENT_3D('',#1019,#796,#797);
#704=AXIS2_PLACEMENT_3D('',#1020,#798,#799);
#705=AXIS2_PLACEMENT_3D('',#1022,#800,#801);
#706=AXIS2_PLACEMENT_3D('',#1024,#802,#803);
#707=AXIS2_PLACEMENT_3D('',#1026,#804,#805);
#708=AXIS2_PLACEMENT_3D('',#1036,#810,#811);
#709=AXIS2_PLACEMENT_3D('',#1037,#812,#813);
#710=AXIS2_PLACEMENT_3D('',#1039,#814,#815);
#711=AXIS2_PLACEMENT_3D('',#1041,#816,#817);
#712=AXIS2_PLACEMENT_3D('',#1043,#818,#819);
#713=AXIS2_PLACEMENT_3D('',#1053,#824,#825);
#714=AXIS2_PLACEMENT_3D('',#1062,#830,#831);
#715=AXIS2_PLACEMENT_3D('',#1071,#836,#837);
#716=AXIS2_PLACEMENT_3D('',#1080,#842,#843);
#717=AXIS2_PLACEMENT_3D('',#1089,#848,#849);
#718=AXIS2_PLACEMENT_3D('',#1098,#854,#855);
#719=AXIS2_PLACEMENT_3D('',#1107,#860,#861);
#720=AXIS2_PLACEMENT_3D('',#1108,#862,#863);
#721=AXIS2_PLACEMENT_3D('',#1110,#864,#865);
#722=AXIS2_PLACEMENT_3D('',#1112,#866,#867);
#723=AXIS2_PLACEMENT_3D('',#1114,#868,#869);
#724=AXIS2_PLACEMENT_3D('',#1124,#874,#875);
#725=AXIS2_PLACEMENT_3D('',#1125,#876,#877);
#726=AXIS2_PLACEMENT_3D('',#1126,#878,#879);
#727=AXIS2_PLACEMENT_3D('',#1127,#880,#881);
#728=AXIS2_PLACEMENT_3D('',#1128,#882,#883);
#729=AXIS2_PLACEMENT_3D('',#1129,#884,#885);
#730=AXIS2_PLACEMENT_3D('',#1130,#886,#887);
#731=AXIS2_PLACEMENT_3D('',#1131,#888,#889);
#732=AXIS2_PLACEMENT_3D('',#1132,#890,#891);
#733=AXIS2_PLACEMENT_3D('',#1133,#892,#893);
#734=AXIS2_PLACEMENT_3D('',#1134,#894,#895);
#735=AXIS2_PLACEMENT_3D('',#1136,#896,#897);
#736=AXIS2_PLACEMENT_3D('',#1138,#898,#899);
#737=AXIS2_PLACEMENT_3D('',#1140,#900,#901);
#738=AXIS2_PLACEMENT_3D('',#1150,#906,#907);
#739=AXIS2_PLACEMENT_3D('',#1151,#908,#909);
#740=AXIS2_PLACEMENT_3D('',#1152,#910,#911);
#741=AXIS2_PLACEMENT_3D('',#1153,#912,#913);
#742=AXIS2_PLACEMENT_3D('',#1154,#914,#915);
#743=AXIS2_PLACEMENT_3D('',#1155,#916,#917);
#744=AXIS2_PLACEMENT_3D('',#1156,#918,#919);
#745=AXIS2_PLACEMENT_3D('',#1157,#920,#921);
#746=AXIS2_PLACEMENT_3D('',#1158,#922,#923);
#747=AXIS2_PLACEMENT_3D('',#1159,#924,#925);
#748=AXIS2_PLACEMENT_3D('',#1160,#926,#927);
#749=AXIS2_PLACEMENT_3D('',#1161,#928,#929);
#750=AXIS2_PLACEMENT_3D('',#1162,#930,#931);
#751=AXIS2_PLACEMENT_3D('',#1163,#932,#933);
#752=AXIS2_PLACEMENT_3D('',#1164,#934,#935);
#753=AXIS2_PLACEMENT_3D('',#1165,#936,#937);
#754=AXIS2_PLACEMENT_3D('',#1166,#938,#939);
#755=AXIS2_PLACEMENT_3D('',#1167,#940,#941);
#756=AXIS2_PLACEMENT_3D('',#1168,#942,#943);
#757=AXIS2_PLACEMENT_3D('',#1169,#944,#945);
#758=AXIS2_PLACEMENT_3D('',#1170,#946,#947);
#759=AXIS2_PLACEMENT_3D('',#1171,#948,#949);
#760=AXIS2_PLACEMENT_3D('',#1172,#950,#951);
#761=AXIS2_PLACEMENT_3D('',#1173,#952,#953);
#762=AXIS2_PLACEMENT_3D('',#1174,#954,#955);
#763=AXIS2_PLACEMENT_3D('',#1175,#956,#957);
#764=AXIS2_PLACEMENT_3D('',#1176,#958,#959);
#765=AXIS2_PLACEMENT_3D('',#1177,#960,#961);
#766=AXIS2_PLACEMENT_3D('',#1178,#962,#963);
#767=AXIS2_PLACEMENT_3D('',#1179,#964,#965);
#768=AXIS2_PLACEMENT_3D('',#1180,#966,#967);
#769=AXIS2_PLACEMENT_3D('',#1181,#968,#969);
#770=AXIS2_PLACEMENT_3D('',#1182,#970,#971);
#771=AXIS2_PLACEMENT_3D('',#1183,#972,#973);
#772=AXIS2_PLACEMENT_3D('',#1184,#974,#975);
#773=AXIS2_PLACEMENT_3D('',#1185,#976,#977);
#774=AXIS2_PLACEMENT_3D('',#1186,#978,#979);
#775=AXIS2_PLACEMENT_3D('',#1187,#980,#981);
#776=AXIS2_PLACEMENT_3D('',#1188,#982,#983);
#777=AXIS2_PLACEMENT_3D('',#1189,#984,#985);
#778=AXIS2_PLACEMENT_3D('',#1190,#986,#987);
#779=AXIS2_PLACEMENT_3D('',#1191,#988,#989);
#780=AXIS2_PLACEMENT_3D('',#1192,#990,#991);
#781=AXIS2_PLACEMENT_3D('',#1193,#992,#993);
#782=AXIS2_PLACEMENT_3D('',#1194,#994,#995);
#783=AXIS2_PLACEMENT_3D('',#1195,#996,#997);
#784=AXIS2_PLACEMENT_3D('',#1196,#998,#999);
#785=AXIS2_PLACEMENT_3D('',#1197,#1000,#1001);
#786=AXIS2_PLACEMENT_3D('',#1198,#1002,#1003);
#787=AXIS2_PLACEMENT_3D('',#1199,#1004,#1005);
#788=AXIS2_PLACEMENT_3D('',#1200,#1006,#1007);
#789=AXIS2_PLACEMENT_3D('',#1201,#1008,#1009);
#790=AXIS2_PLACEMENT_3D('',#1202,#1010,#1011);
#791=AXIS2_PLACEMENT_3D('',#1203,#1012,#1013);
#792=AXIS2_PLACEMENT_3D('',#1204,#1014,#1015);
#793=AXIS2_PLACEMENT_3D('',#1205,#1016,#1017);
#794=DIRECTION('',(0.,0.,1.));
#795=DIRECTION('',(1.,0.,0.));
#796=DIRECTION('',(0.,-1.,0.));
#797=DIRECTION('',(0.,0.,-1.));
#798=DIRECTION('',(0.,-1.,0.));
#799=DIRECTION('',(-1.,0.,0.));
#800=DIRECTION('',(0.,-1.,0.));
#801=DIRECTION('',(-1.,0.,0.));
#802=DIRECTION('',(0.,-1.,0.));
#803=DIRECTION('',(-1.,0.,0.));
#804=DIRECTION('',(0.,-1.,0.));
#805=DIRECTION('',(-1.,0.,0.));
#806=DIRECTION('',(0.,0.,-1.));
#807=DIRECTION('',(-1.,0.,0.));
#808=DIRECTION('',(0.,0.,1.));
#809=DIRECTION('',(1.,0.,0.));
#810=DIRECTION('',(-1.,0.,0.));
#811=DIRECTION('',(0.,0.,1.));
#812=DIRECTION('',(-1.,0.,0.));
#813=DIRECTION('',(0.,0.,1.));
#814=DIRECTION('',(-1.,0.,0.));
#815=DIRECTION('',(0.,0.,1.));
#816=DIRECTION('',(-1.,0.,0.));
#817=DIRECTION('',(0.,0.,1.));
#818=DIRECTION('',(-1.,0.,0.));
#819=DIRECTION('',(0.,0.,1.));
#820=DIRECTION('',(0.,0.,1.));
#821=DIRECTION('',(0.,1.,0.));
#822=DIRECTION('',(0.,0.,1.));
#823=DIRECTION('',(0.,1.,0.));
#824=DIRECTION('',(0.,0.,-1.));
#825=DIRECTION('',(-1.,0.,0.));
#826=DIRECTION('',(-1.,0.,0.));
#827=DIRECTION('',(0.,1.,0.));
#828=DIRECTION('',(-1.,0.,0.));
#829=DIRECTION('',(0.,1.,0.));
#830=DIRECTION('',(1.,0.,0.));
#831=DIRECTION('',(0.,0.,-1.));
#832=DIRECTION('',(0.,0.,-1.));
#833=DIRECTION('',(0.,1.,0.));
#834=DIRECTION('',(0.,0.,-1.));
#835=DIRECTION('',(0.,1.,0.));
#836=DIRECTION('',(0.,0.,1.));
#837=DIRECTION('',(1.,0.,0.));
#838=DIRECTION('',(1.,0.,0.));
#839=DIRECTION('',(0.,1.,0.));
#840=DIRECTION('',(1.,0.,0.));
#841=DIRECTION('',(0.,1.,0.));
#842=DIRECTION('',(0.,0.,-1.));
#843=DIRECTION('',(-1.,0.,0.));
#844=DIRECTION('',(-1.,0.,0.));
#845=DIRECTION('',(0.,1.,0.));
#846=DIRECTION('',(-1.,0.,0.));
#847=DIRECTION('',(0.,1.,0.));
#848=DIRECTION('',(1.,0.,0.));
#849=DIRECTION('',(0.,0.,-1.));
#850=DIRECTION('',(0.,0.,-1.));
#851=DIRECTION('',(0.,1.,0.));
#852=DIRECTION('',(0.,0.,-1.));
#853=DIRECTION('',(0.,1.,0.));
#854=DIRECTION('',(0.,0.,1.));
#855=DIRECTION('',(1.,0.,0.));
#856=DIRECTION('',(1.,0.,0.));
#857=DIRECTION('',(0.,1.,0.));
#858=DIRECTION('',(1.,0.,0.));
#859=DIRECTION('',(0.,1.,0.));
#860=DIRECTION('',(-1.,0.,0.));
#861=DIRECTION('',(0.,0.,1.));
#862=DIRECTION('',(-1.,0.,0.));
#863=DIRECTION('',(0.,-1.,2.64338815386942E-16));
#864=DIRECTION('',(-1.,0.,0.));
#865=DIRECTION('',(0.,-1.,2.64338815386942E-16));
#866=DIRECTION('',(-1.,0.,0.));
#867=DIRECTION('',(0.,-1.,2.64338815386942E-16));
#868=DIRECTION('',(-1.,0.,0.));
#869=DIRECTION('',(0.,-1.,2.64338815386942E-16));
#870=DIRECTION('',(0.,0.,1.));
#871=DIRECTION('',(0.,1.,0.));
#872=DIRECTION('',(0.,0.,1.));
#873=DIRECTION('',(0.,1.,0.));
#874=DIRECTION('',(0.,-1.,0.));
#875=DIRECTION('',(0.,0.,-1.));
#876=DIRECTION('',(0.,-1.,0.));
#877=DIRECTION('',(0.,0.,-1.));
#878=DIRECTION('',(0.,-1.,0.));
#879=DIRECTION('',(0.,0.,-1.));
#880=DIRECTION('',(0.,-1.,0.));
#881=DIRECTION('',(0.,0.,-1.));
#882=DIRECTION('',(0.,-1.,0.));
#883=DIRECTION('',(0.,0.,-1.));
#884=DIRECTION('',(0.,-1.,0.));
#885=DIRECTION('',(0.,0.,-1.));
#886=DIRECTION('',(0.,-1.,0.));
#887=DIRECTION('',(0.,0.,-1.));
#888=DIRECTION('',(0.,-1.,0.));
#889=DIRECTION('',(0.,0.,-1.));
#890=DIRECTION('',(0.,-1.,0.));
#891=DIRECTION('',(0.,0.,-1.));
#892=DIRECTION('',(0.,-1.,0.));
#893=DIRECTION('',(0.,0.,-1.));
#894=DIRECTION('',(0.,-1.,0.));
#895=DIRECTION('',(0.,0.,-1.));
#896=DIRECTION('',(0.,-1.,0.));
#897=DIRECTION('',(0.,0.,-1.));
#898=DIRECTION('',(0.,-1.,0.));
#899=DIRECTION('',(0.,0.,-1.));
#900=DIRECTION('',(0.,-1.,0.));
#901=DIRECTION('',(0.,0.,-1.));
#902=DIRECTION('',(1.,0.,0.));
#903=DIRECTION('',(0.,0.,1.));
#904=DIRECTION('',(-1.,0.,0.));
#905=DIRECTION('',(0.,0.,-1.));
#906=DIRECTION('',(0.,-1.,0.));
#907=DIRECTION('',(0.,0.,-1.));
#908=DIRECTION('',(0.,-1.,0.));
#909=DIRECTION('',(0.,0.,-1.));
#910=DIRECTION('',(-1.,0.,0.));
#911=DIRECTION('',(0.,0.,1.));
#912=DIRECTION('',(1.,0.,-2.7755575615629E-15));
#913=DIRECTION('',(-2.7755575615629E-15,0.,-1.));
#914=DIRECTION('',(0.,0.,-1.));
#915=DIRECTION('',(-1.,0.,0.));
#916=DIRECTION('',(0.,-1.,0.));
#917=DIRECTION('',(0.,0.,-1.));
#918=DIRECTION('',(0.,-1.,0.));
#919=DIRECTION('',(0.,0.,-1.));
#920=DIRECTION('',(0.,0.,1.));
#921=DIRECTION('',(1.,0.,0.));
#922=DIRECTION('',(-5.55111512312579E-15,0.,1.));
#923=DIRECTION('',(1.,0.,5.55111512312579E-15));
#924=DIRECTION('',(1.,0.,0.));
#925=DIRECTION('',(0.,0.,-1.));
#926=DIRECTION('',(-1.,0.,0.));
#927=DIRECTION('',(0.,0.,1.));
#928=DIRECTION('',(0.,-1.,0.));
#929=DIRECTION('',(0.,0.,-1.));
#930=DIRECTION('',(0.,-1.,0.));
#931=DIRECTION('',(0.,0.,-1.));
#932=DIRECTION('',(-1.,0.,-5.55111512312579E-15));
#933=DIRECTION('',(-5.55111512312579E-15,0.,1.));
#934=DIRECTION('',(1.,0.,0.));
#935=DIRECTION('',(0.,0.,-1.));
#936=DIRECTION('',(0.,0.,1.));
#937=DIRECTION('',(1.,0.,0.));
#938=DIRECTION('',(5.55111512312579E-15,0.,-1.));
#939=DIRECTION('',(-1.,0.,-5.55111512312579E-15));
#940=DIRECTION('',(-1.,0.,0.));
#941=DIRECTION('',(0.,0.,1.));
#942=DIRECTION('',(-1.,0.,2.7755575615629E-15));
#943=DIRECTION('',(2.7755575615629E-15,0.,1.));
#944=DIRECTION('',(0.,0.,-1.));
#945=DIRECTION('',(-1.,0.,0.));
#946=DIRECTION('',(0.,0.,1.));
#947=DIRECTION('',(1.,0.,0.));
#948=DIRECTION('',(0.,1.,0.));
#949=DIRECTION('',(0.,0.,1.));
#950=DIRECTION('',(0.,-1.,0.));
#951=DIRECTION('',(0.,0.,-1.));
#952=DIRECTION('',(0.,-1.,0.));
#953=DIRECTION('',(0.,0.,-1.));
#954=DIRECTION('',(0.,1.,0.));
#955=DIRECTION('',(0.,0.,1.));
#956=DIRECTION('',(0.,1.,0.));
#957=DIRECTION('',(0.,0.,1.));
#958=DIRECTION('',(0.,-5.20417042793045E-16,-1.));
#959=DIRECTION('',(0.,1.,-5.20417042793045E-16));
#960=DIRECTION('',(0.,0.,-1.));
#961=DIRECTION('',(-1.,0.,0.));
#962=DIRECTION('',(1.,0.,0.));
#963=DIRECTION('',(0.,0.,-1.));
#964=DIRECTION('',(0.,1.,0.));
#965=DIRECTION('',(0.,0.,1.));
#966=DIRECTION('',(0.,1.,0.));
#967=DIRECTION('',(0.,0.,1.));
#968=DIRECTION('',(1.,0.,0.));
#969=DIRECTION('',(0.,0.,-1.));
#970=DIRECTION('',(-1.,0.,0.));
#971=DIRECTION('',(0.,0.,1.));
#972=DIRECTION('',(0.,0.,1.));
#973=DIRECTION('',(1.,0.,0.));
#974=DIRECTION('',(0.,0.,1.));
#975=DIRECTION('',(1.,0.,0.));
#976=DIRECTION('',(0.,1.,0.));
#977=DIRECTION('',(0.,0.,1.));
#978=DIRECTION('',(0.,1.,0.));
#979=DIRECTION('',(0.,0.,1.));
#980=DIRECTION('',(0.,-5.20417042793045E-16,-1.));
#981=DIRECTION('',(0.,1.,-5.20417042793045E-16));
#982=DIRECTION('',(0.,0.,-1.));
#983=DIRECTION('',(-1.,0.,0.));
#984=DIRECTION('',(1.,-5.20417042793043E-16,0.));
#985=DIRECTION('',(5.20417042793043E-16,1.,0.));
#986=DIRECTION('',(1.,0.,0.));
#987=DIRECTION('',(0.,0.,-1.));
#988=DIRECTION('',(0.,0.,-1.));
#989=DIRECTION('',(-1.,0.,0.));
#990=DIRECTION('',(0.,0.,1.));
#991=DIRECTION('',(1.,0.,0.));
#992=DIRECTION('',(-1.,0.,0.));
#993=DIRECTION('',(0.,0.,1.));
#994=DIRECTION('',(-1.,0.,0.));
#995=DIRECTION('',(0.,0.,1.));
#996=DIRECTION('',(0.,1.,0.));
#997=DIRECTION('',(0.,0.,1.));
#998=DIRECTION('',(0.,1.,0.));
#999=DIRECTION('',(0.,0.,1.));
#1000=DIRECTION('',(0.,1.,0.));
#1001=DIRECTION('',(0.,0.,1.));
#1002=DIRECTION('',(0.,1.,0.));
#1003=DIRECTION('',(0.,0.,1.));
#1004=DIRECTION('',(0.,1.,0.));
#1005=DIRECTION('',(0.,0.,1.));
#1006=DIRECTION('',(0.,1.,0.));
#1007=DIRECTION('',(0.,0.,1.));
#1008=DIRECTION('',(0.,1.,0.));
#1009=DIRECTION('',(0.,0.,1.));
#1010=DIRECTION('',(1.,0.,0.));
#1011=DIRECTION('',(0.,0.,-1.));
#1012=DIRECTION('',(1.,0.,0.));
#1013=DIRECTION('',(0.,0.,-1.));
#1014=DIRECTION('',(1.,0.,0.));
#1015=DIRECTION('',(0.,0.,-1.));
#1016=DIRECTION('',(1.,0.,0.));
#1017=DIRECTION('',(0.,0.,-1.));
#1018=CARTESIAN_POINT('',(0.,0.,0.));
#1019=CARTESIAN_POINT('',(0.,0.,0.));
#1020=CARTESIAN_POINT('',(79.,0.,154.));
#1021=CARTESIAN_POINT('',(76.,0.,154.));
#1022=CARTESIAN_POINT('',(154.,0.,154.));
#1023=CARTESIAN_POINT('',(151.,0.,154.));
#1024=CARTESIAN_POINT('',(154.,0.,54.));
#1025=CARTESIAN_POINT('',(151.,0.,54.));
#1026=CARTESIAN_POINT('',(79.,0.,54.));
#1027=CARTESIAN_POINT('',(76.,0.,54.));
#1028=CARTESIAN_POINT('',(-194.,0.,0.));
#1029=CARTESIAN_POINT('',(-194.,0.,-294.));
#1030=CARTESIAN_POINT('',(-194.,0.,294.));
#1031=CARTESIAN_POINT('',(0.,0.,294.));
#1032=CARTESIAN_POINT('',(194.,0.,294.));
#1033=CARTESIAN_POINT('',(194.,0.,0.));
#1034=CARTESIAN_POINT('',(194.,0.,-294.));
#1035=CARTESIAN_POINT('',(0.,0.,-294.));
#1036=CARTESIAN_POINT('',(200.,-220.,-300.));
#1037=CARTESIAN_POINT('',(200.,-190.,-144.));
#1038=CARTESIAN_POINT('',(200.,-190.,-141.));
#1039=CARTESIAN_POINT('',(200.,-190.,-194.));
#1040=CARTESIAN_POINT('',(200.,-190.,-191.));
#1041=CARTESIAN_POINT('',(200.,-190.,145.));
#1042=CARTESIAN_POINT('',(200.,-190.,148.));
#1043=CARTESIAN_POINT('',(200.,-190.,195.));
#1044=CARTESIAN_POINT('',(200.,-190.,198.));
#1045=CARTESIAN_POINT('',(200.,-12.,-300.));
#1046=CARTESIAN_POINT('',(200.,-12.,290.));
#1047=CARTESIAN_POINT('',(200.,-12.,-290.));
#1048=CARTESIAN_POINT('',(200.,-220.,-290.));
#1049=CARTESIAN_POINT('',(200.,-220.,-290.));
#1050=CARTESIAN_POINT('',(200.,-220.,-300.));
#1051=CARTESIAN_POINT('',(200.,-220.,290.));
#1052=CARTESIAN_POINT('',(200.,-2.,290.));
#1053=CARTESIAN_POINT('',(200.,-220.,300.));
#1054=CARTESIAN_POINT('',(200.,-12.,300.));
#1055=CARTESIAN_POINT('',(-190.,-12.,300.));
#1056=CARTESIAN_POINT('',(190.,-12.,300.));
#1057=CARTESIAN_POINT('',(190.,-220.,300.));
#1058=CARTESIAN_POINT('',(190.,-220.,300.));
#1059=CARTESIAN_POINT('',(200.,-220.,300.));
#1060=CARTESIAN_POINT('',(-190.,-220.,300.));
#1061=CARTESIAN_POINT('',(-190.,-2.,300.));
#1062=CARTESIAN_POINT('',(-200.,-220.,300.));
#1063=CARTESIAN_POINT('',(-200.,-220.,300.));
#1064=CARTESIAN_POINT('',(-200.,-220.,290.));
#1065=CARTESIAN_POINT('',(-200.,-220.,-290.));
#1066=CARTESIAN_POINT('',(-200.,-2.,-290.));
#1067=CARTESIAN_POINT('',(-200.,-12.,-290.));
#1068=CARTESIAN_POINT('',(-200.,-12.,300.));
#1069=CARTESIAN_POINT('',(-200.,-12.,290.));
#1070=CARTESIAN_POINT('',(-200.,-220.,290.));
#1071=CARTESIAN_POINT('',(-200.,-220.,-300.));
#1072=CARTESIAN_POINT('',(-200.,-220.,-300.));
#1073=CARTESIAN_POINT('',(-190.,-220.,-300.));
#1074=CARTESIAN_POINT('',(190.,-220.,-300.));
#1075=CARTESIAN_POINT('',(190.,-2.,-300.));
#1076=CARTESIAN_POINT('',(190.,-12.,-300.));
#1077=CARTESIAN_POINT('',(-200.,-12.,-300.));
#1078=CARTESIAN_POINT('',(-190.,-12.,-300.));
#1079=CARTESIAN_POINT('',(-190.,-220.,-300.));
#1080=CARTESIAN_POINT('',(204.,-220.,304.));
#1081=CARTESIAN_POINT('',(204.,-9.99999999999998,304.));
#1082=CARTESIAN_POINT('',(194.,-9.99999999999998,304.));
#1083=CARTESIAN_POINT('',(-194.,-9.99999999999998,304.));
#1084=CARTESIAN_POINT('',(-194.,-220.,304.));
#1085=CARTESIAN_POINT('',(-194.,-220.,304.));
#1086=CARTESIAN_POINT('',(204.,-220.,304.));
#1087=CARTESIAN_POINT('',(194.,-220.,304.));
#1088=CARTESIAN_POINT('',(194.,-220.,304.));
#1089=CARTESIAN_POINT('',(-204.,-220.,304.));
#1090=CARTESIAN_POINT('',(-204.,-220.,304.));
#1091=CARTESIAN_POINT('',(-204.,-220.,294.));
#1092=CARTESIAN_POINT('',(-204.,-220.,-294.));
#1093=CARTESIAN_POINT('',(-204.,-220.,294.));
#1094=CARTESIAN_POINT('',(-204.,-9.99999999999998,294.));
#1095=CARTESIAN_POINT('',(-204.,-9.99999999999998,304.));
#1096=CARTESIAN_POINT('',(-204.,-9.99999999999998,-294.));
#1097=CARTESIAN_POINT('',(-204.,-220.,-294.));
#1098=CARTESIAN_POINT('',(-204.,-220.,-304.));
#1099=CARTESIAN_POINT('',(-204.,-220.,-304.));
#1100=CARTESIAN_POINT('',(-194.,-220.,-304.));
#1101=CARTESIAN_POINT('',(194.,-220.,-304.));
#1102=CARTESIAN_POINT('',(-194.,-220.,-304.));
#1103=CARTESIAN_POINT('',(-194.,-9.99999999999998,-304.));
#1104=CARTESIAN_POINT('',(-204.,-9.99999999999998,-304.));
#1105=CARTESIAN_POINT('',(194.,-9.99999999999998,-304.));
#1106=CARTESIAN_POINT('',(194.,-220.,-304.));
#1107=CARTESIAN_POINT('',(204.,-220.,-304.));
#1108=CARTESIAN_POINT('',(204.,-190.,-144.));
#1109=CARTESIAN_POINT('',(204.,-193.,-144.));
#1110=CARTESIAN_POINT('',(204.,-190.,-194.));
#1111=CARTESIAN_POINT('',(204.,-193.,-194.));
#1112=CARTESIAN_POINT('',(204.,-190.,145.));
#1113=CARTESIAN_POINT('',(204.,-193.,145.));
#1114=CARTESIAN_POINT('',(204.,-190.,195.));
#1115=CARTESIAN_POINT('',(204.,-193.,195.));
#1116=CARTESIAN_POINT('',(204.,-9.99999999999998,-304.));
#1117=CARTESIAN_POINT('',(204.,-9.99999999999998,-294.));
#1118=CARTESIAN_POINT('',(204.,-9.99999999999998,294.));
#1119=CARTESIAN_POINT('',(204.,-220.,294.));
#1120=CARTESIAN_POINT('',(204.,-220.,294.));
#1121=CARTESIAN_POINT('',(204.,-220.,-304.));
#1122=CARTESIAN_POINT('',(204.,-220.,-294.));
#1123=CARTESIAN_POINT('',(204.,-220.,-294.));
#1124=CARTESIAN_POINT('',(0.,-220.,0.));
#1125=CARTESIAN_POINT('',(-190.,-220.,-290.));
#1126=CARTESIAN_POINT('',(-190.,-220.,290.));
#1127=CARTESIAN_POINT('',(190.,-220.,290.));
#1128=CARTESIAN_POINT('',(190.,-220.,-290.));
#1129=CARTESIAN_POINT('',(-194.,-220.,294.));
#1130=CARTESIAN_POINT('',(-194.,-220.,-294.));
#1131=CARTESIAN_POINT('',(194.,-220.,-294.));
#1132=CARTESIAN_POINT('',(194.,-220.,294.));
#1133=CARTESIAN_POINT('',(0.,-2.,0.));
#1134=CARTESIAN_POINT('',(79.,-2.,154.));
#1135=CARTESIAN_POINT('',(79.,-2.,151.));
#1136=CARTESIAN_POINT('',(154.,-2.,154.));
#1137=CARTESIAN_POINT('',(154.,-2.,151.));
#1138=CARTESIAN_POINT('',(154.,-2.,54.));
#1139=CARTESIAN_POINT('',(154.,-2.,51.));
#1140=CARTESIAN_POINT('',(79.,-2.,54.));
#1141=CARTESIAN_POINT('',(79.,-2.,51.));
#1142=CARTESIAN_POINT('',(200.,-2.,-290.));
#1143=CARTESIAN_POINT('',(-190.,-2.,-290.));
#1144=CARTESIAN_POINT('',(190.,-2.,-290.));
#1145=CARTESIAN_POINT('',(190.,-2.,300.));
#1146=CARTESIAN_POINT('',(190.,-2.,290.));
#1147=CARTESIAN_POINT('',(-200.,-2.,290.));
#1148=CARTESIAN_POINT('',(-190.,-2.,290.));
#1149=CARTESIAN_POINT('',(-190.,-2.,-300.));
#1150=CARTESIAN_POINT('',(-190.,-220.,290.));
#1151=CARTESIAN_POINT('',(-190.,-12.,290.));
#1152=CARTESIAN_POINT('',(-190.,-12.,290.));
#1153=CARTESIAN_POINT('',(-190.,-12.,290.));
#1154=CARTESIAN_POINT('',(-190.,-12.,290.));
#1155=CARTESIAN_POINT('',(-190.,-220.,-290.));
#1156=CARTESIAN_POINT('',(-190.,-12.,-290.));
#1157=CARTESIAN_POINT('',(-190.,-12.,0.));
#1158=CARTESIAN_POINT('',(-190.,-12.,-290.));
#1159=CARTESIAN_POINT('',(0.,-12.,290.));
#1160=CARTESIAN_POINT('',(190.,-12.,290.));
#1161=CARTESIAN_POINT('',(190.,-220.,290.));
#1162=CARTESIAN_POINT('',(190.,-12.,290.));
#1163=CARTESIAN_POINT('',(-190.,-12.,-290.));
#1164=CARTESIAN_POINT('',(-190.,-12.,-290.));
#1165=CARTESIAN_POINT('',(190.,-12.,290.));
#1166=CARTESIAN_POINT('',(190.,-12.,290.));
#1167=CARTESIAN_POINT('',(0.,-12.,-290.));
#1168=CARTESIAN_POINT('',(190.,-12.,-290.));
#1169=CARTESIAN_POINT('',(190.,-12.,0.));
#1170=CARTESIAN_POINT('',(190.,-12.,-290.));
#1171=CARTESIAN_POINT('',(190.,-12.,-290.));
#1172=CARTESIAN_POINT('',(190.,-12.,-290.));
#1173=CARTESIAN_POINT('',(190.,-220.,-290.));
#1174=CARTESIAN_POINT('',(194.,-220.,-294.));
#1175=CARTESIAN_POINT('',(194.,-9.99999999999998,-294.));
#1176=CARTESIAN_POINT('',(194.,-9.99999999999998,-294.));
#1177=CARTESIAN_POINT('',(194.,-9.99999999999998,-294.));
#1178=CARTESIAN_POINT('',(194.,-9.99999999999998,-294.));
#1179=CARTESIAN_POINT('',(-194.,-220.,-294.));
#1180=CARTESIAN_POINT('',(-194.,-9.99999999999998,-294.));
#1181=CARTESIAN_POINT('',(-204.,-9.99999999999998,-294.));
#1182=CARTESIAN_POINT('',(-194.,-9.99999999999998,-294.));
#1183=CARTESIAN_POINT('',(194.,-9.99999999999998,-304.));
#1184=CARTESIAN_POINT('',(194.,-9.99999999999998,294.));
#1185=CARTESIAN_POINT('',(194.,-220.,294.));
#1186=CARTESIAN_POINT('',(194.,-9.99999999999998,294.));
#1187=CARTESIAN_POINT('',(-194.,-9.99999999999998,-294.));
#1188=CARTESIAN_POINT('',(-194.,-9.99999999999998,-294.));
#1189=CARTESIAN_POINT('',(194.,-9.99999999999998,294.));
#1190=CARTESIAN_POINT('',(194.,-9.99999999999998,294.));
#1191=CARTESIAN_POINT('',(-194.,-9.99999999999998,304.));
#1192=CARTESIAN_POINT('',(-194.,-9.99999999999998,294.));
#1193=CARTESIAN_POINT('',(204.,-9.99999999999998,294.));
#1194=CARTESIAN_POINT('',(-194.,-9.99999999999998,294.));
#1195=CARTESIAN_POINT('',(-194.,-9.99999999999998,294.));
#1196=CARTESIAN_POINT('',(-194.,-9.99999999999998,294.));
#1197=CARTESIAN_POINT('',(-194.,-220.,294.));
#1198=CARTESIAN_POINT('',(79.,-19.9895739705716,54.));
#1199=CARTESIAN_POINT('',(154.,-4.69000260563148,54.));
#1200=CARTESIAN_POINT('',(154.,-4.68505447703618,154.));
#1201=CARTESIAN_POINT('',(79.,-3.90891219785888,154.));
#1202=CARTESIAN_POINT('',(183.680573859258,-190.,195.));
#1203=CARTESIAN_POINT('',(195.513389522599,-190.,145.));
#1204=CARTESIAN_POINT('',(191.59591611211,-190.,-194.));
#1205=CARTESIAN_POINT('',(189.227831447779,-190.,-144.));
#1206=MECHANICAL_DESIGN_GEOMETRIC_PRESENTATION_REPRESENTATION('',(#691),
#1207);
#1207=(
GEOMETRIC_REPRESENTATION_CONTEXT(3)
GLOBAL_UNCERTAINTY_ASSIGNED_CONTEXT((#1208))
GLOBAL_UNIT_ASSIGNED_CONTEXT((#1211,#1210,#1209))
REPRESENTATION_CONTEXT('零件','TOP_LEVEL_ASSEMBLY_PART')
);
#1208=UNCERTAINTY_MEASURE_WITH_UNIT(LENGTH_MEASURE(0.005),#1211,
'DISTANCE_ACCURACY_VALUE','Maximum Tolerance applied to model');
#1209=(
NAMED_UNIT(*)
SI_UNIT($,.STERADIAN.)
SOLID_ANGLE_UNIT()
);
#1210=(
NAMED_UNIT(*)
PLANE_ANGLE_UNIT()
SI_UNIT($,.RADIAN.)
);
#1211=(
LENGTH_UNIT()
NAMED_UNIT(*)
SI_UNIT(.MILLI.,.METRE.)
);
#1212=PRODUCT_DEFINITION_SHAPE('','',#1213);
#1213=PRODUCT_DEFINITION('','',#1215,#1214);
#1214=PRODUCT_DEFINITION_CONTEXT('',#1221,'design');
#1215=PRODUCT_DEFINITION_FORMATION_WITH_SPECIFIED_SOURCE('','',#1217,
 .NOT_KNOWN.);
#1216=PRODUCT_RELATED_PRODUCT_CATEGORY('','',(#1217));
#1217=PRODUCT('零件','零件','零件',(#1219));
#1218=PRODUCT_CATEGORY('','');
#1219=PRODUCT_CONTEXT('',#1221,'mechanical');
#1220=APPLICATION_PROTOCOL_DEFINITION('international standard',
'automotive_design',2010,#1221);
#1221=APPLICATION_CONTEXT(
'core data for automotive mechanical design processes');
ENDSEC;
END-ISO-10303-21;
