ISO-10303-21;
HEADER;
/* Generated by software containing ST-Developer
 * from STEP Tools, Inc. (www.steptools.com) 
 */
/* OPTION: strings as raw bytes, not using required /X/ escapes */

FILE_DESCRIPTION(
/* description */ ('Unknown'),
/* implementation_level */ '2;1');

FILE_NAME(
/* name */ 'è®¡æ•°å™¨',
/* time_stamp */ '2024-10-08T17:29:06+08:00',
/* author */ ('Unknown'),
/* organization */ ('Unknown'),
/* preprocessor_version */ 'ST-DEVELOPER v19.4',
/* originating_system */ 'Solid Edge',
/* authorisation */ 'Unknown');

FILE_SCHEMA (('AUTOMOTIVE_DESIGN {1 0 10303 214 3 1 1}'));
ENDSEC;

DATA;
#10=PROPERTY_DEFINITION_REPRESENTATION(#14,#12);
#11=PROPERTY_DEFINITION_REPRESENTATION(#15,#13);
#12=REPRESENTATION('',(#16),#537);
#13=REPRESENTATION('',(#17),#537);
#14=PROPERTY_DEFINITION('pmi validation property','',#542);
#15=PROPERTY_DEFINITION('pmi validation property','',#542);
#16=VALUE_REPRESENTATION_ITEM('number of annotations',COUNT_MEASURE(0.));
#17=VALUE_REPRESENTATION_ITEM('number of views',COUNT_MEASURE(0.));
#18=SHAPE_REPRESENTATION_RELATIONSHIP('','',#327,#19);
#19=ADVANCED_BREP_SHAPE_REPRESENTATION('',(#325),#537);
#20=ELLIPSE('',#339,14.1421356237309,9.99999999999998);
#21=ELLIPSE('',#340,14.1421356237309,9.99999999999998);
#22=ELLIPSE('',#342,14.1421356237309,9.99999999999998);
#23=ELLIPSE('',#343,14.1421356237309,9.99999999999998);
#24=ELLIPSE('',#344,14.1421356237309,9.99999999999998);
#25=ELLIPSE('',#346,14.1421356237309,9.99999999999998);
#26=ELLIPSE('',#347,14.1421356237309,9.99999999999998);
#27=ELLIPSE('',#348,14.1421356237309,9.99999999999998);
#28=ELLIPSE('',#351,14.1421356237309,9.99999999999998);
#29=ELLIPSE('',#352,14.1421356237309,9.99999999999998);
#30=ELLIPSE('',#354,14.1421356237309,9.99999999999998);
#31=ELLIPSE('',#356,14.1421356237309,9.99999999999998);
#32=CYLINDRICAL_SURFACE('',#338,9.99999999999998);
#33=CYLINDRICAL_SURFACE('',#341,9.99999999999998);
#34=CYLINDRICAL_SURFACE('',#345,9.99999999999998);
#35=CYLINDRICAL_SURFACE('',#349,9.99999999999998);
#36=CYLINDRICAL_SURFACE('',#350,9.99999999999998);
#37=CYLINDRICAL_SURFACE('',#353,9.99999999999998);
#38=CYLINDRICAL_SURFACE('',#355,9.99999999999998);
#39=CYLINDRICAL_SURFACE('',#357,9.99999999999998);
#40=ORIENTED_EDGE('',*,*,#124,.T.);
#41=ORIENTED_EDGE('',*,*,#125,.T.);
#42=ORIENTED_EDGE('',*,*,#126,.T.);
#43=ORIENTED_EDGE('',*,*,#127,.T.);
#44=ORIENTED_EDGE('',*,*,#128,.F.);
#45=ORIENTED_EDGE('',*,*,#129,.T.);
#46=ORIENTED_EDGE('',*,*,#130,.T.);
#47=ORIENTED_EDGE('',*,*,#131,.F.);
#48=ORIENTED_EDGE('',*,*,#132,.F.);
#49=ORIENTED_EDGE('',*,*,#131,.T.);
#50=ORIENTED_EDGE('',*,*,#133,.T.);
#51=ORIENTED_EDGE('',*,*,#134,.F.);
#52=ORIENTED_EDGE('',*,*,#135,.F.);
#53=ORIENTED_EDGE('',*,*,#134,.T.);
#54=ORIENTED_EDGE('',*,*,#136,.T.);
#55=ORIENTED_EDGE('',*,*,#137,.F.);
#56=ORIENTED_EDGE('',*,*,#138,.F.);
#57=ORIENTED_EDGE('',*,*,#137,.T.);
#58=ORIENTED_EDGE('',*,*,#139,.T.);
#59=ORIENTED_EDGE('',*,*,#129,.F.);
#60=ORIENTED_EDGE('',*,*,#130,.F.);
#61=ORIENTED_EDGE('',*,*,#139,.F.);
#62=ORIENTED_EDGE('',*,*,#136,.F.);
#63=ORIENTED_EDGE('',*,*,#133,.F.);
#64=ORIENTED_EDGE('',*,*,#132,.T.);
#65=ORIENTED_EDGE('',*,*,#135,.T.);
#66=ORIENTED_EDGE('',*,*,#138,.T.);
#67=ORIENTED_EDGE('',*,*,#128,.T.);
#68=ORIENTED_EDGE('',*,*,#140,.F.);
#69=ORIENTED_EDGE('',*,*,#141,.F.);
#70=ORIENTED_EDGE('',*,*,#142,.F.);
#71=ORIENTED_EDGE('',*,*,#143,.F.);
#72=ORIENTED_EDGE('',*,*,#144,.T.);
#73=ORIENTED_EDGE('',*,*,#145,.T.);
#74=ORIENTED_EDGE('',*,*,#146,.T.);
#75=ORIENTED_EDGE('',*,*,#147,.T.);
#76=ORIENTED_EDGE('',*,*,#148,.T.);
#77=ORIENTED_EDGE('',*,*,#149,.T.);
#78=ORIENTED_EDGE('',*,*,#150,.T.);
#79=ORIENTED_EDGE('',*,*,#151,.T.);
#80=ORIENTED_EDGE('',*,*,#152,.F.);
#81=ORIENTED_EDGE('',*,*,#153,.T.);
#82=ORIENTED_EDGE('',*,*,#154,.F.);
#83=ORIENTED_EDGE('',*,*,#148,.F.);
#84=ORIENTED_EDGE('',*,*,#154,.T.);
#85=ORIENTED_EDGE('',*,*,#155,.T.);
#86=ORIENTED_EDGE('',*,*,#124,.F.);
#87=ORIENTED_EDGE('',*,*,#156,.T.);
#88=ORIENTED_EDGE('',*,*,#157,.F.);
#89=ORIENTED_EDGE('',*,*,#149,.F.);
#90=ORIENTED_EDGE('',*,*,#146,.F.);
#91=ORIENTED_EDGE('',*,*,#158,.T.);
#92=ORIENTED_EDGE('',*,*,#152,.T.);
#93=ORIENTED_EDGE('',*,*,#151,.F.);
#94=ORIENTED_EDGE('',*,*,#159,.F.);
#95=ORIENTED_EDGE('',*,*,#160,.T.);
#96=ORIENTED_EDGE('',*,*,#157,.T.);
#97=ORIENTED_EDGE('',*,*,#161,.T.);
#98=ORIENTED_EDGE('',*,*,#159,.T.);
#99=ORIENTED_EDGE('',*,*,#150,.F.);
#100=ORIENTED_EDGE('',*,*,#162,.F.);
#101=ORIENTED_EDGE('',*,*,#141,.T.);
#102=ORIENTED_EDGE('',*,*,#163,.F.);
#103=ORIENTED_EDGE('',*,*,#144,.F.);
#104=ORIENTED_EDGE('',*,*,#163,.T.);
#105=ORIENTED_EDGE('',*,*,#140,.T.);
#106=ORIENTED_EDGE('',*,*,#164,.F.);
#107=ORIENTED_EDGE('',*,*,#125,.F.);
#108=ORIENTED_EDGE('',*,*,#155,.F.);
#109=ORIENTED_EDGE('',*,*,#153,.F.);
#110=ORIENTED_EDGE('',*,*,#158,.F.);
#111=ORIENTED_EDGE('',*,*,#145,.F.);
#112=ORIENTED_EDGE('',*,*,#156,.F.);
#113=ORIENTED_EDGE('',*,*,#127,.F.);
#114=ORIENTED_EDGE('',*,*,#165,.F.);
#115=ORIENTED_EDGE('',*,*,#142,.T.);
#116=ORIENTED_EDGE('',*,*,#162,.T.);
#117=ORIENTED_EDGE('',*,*,#147,.F.);
#118=ORIENTED_EDGE('',*,*,#160,.F.);
#119=ORIENTED_EDGE('',*,*,#161,.F.);
#120=ORIENTED_EDGE('',*,*,#164,.T.);
#121=ORIENTED_EDGE('',*,*,#143,.T.);
#122=ORIENTED_EDGE('',*,*,#165,.T.);
#123=ORIENTED_EDGE('',*,*,#126,.F.);
#124=EDGE_CURVE('',#166,#167,#194,.F.);
#125=EDGE_CURVE('',#167,#168,#195,.T.);
#126=EDGE_CURVE('',#168,#169,#196,.T.);
#127=EDGE_CURVE('',#169,#166,#197,.T.);
#128=EDGE_CURVE('',#170,#171,#198,.T.);
#129=EDGE_CURVE('',#170,#172,#199,.T.);
#130=EDGE_CURVE('',#172,#173,#200,.T.);
#131=EDGE_CURVE('',#171,#173,#201,.T.);
#132=EDGE_CURVE('',#171,#174,#202,.T.);
#133=EDGE_CURVE('',#173,#175,#203,.T.);
#134=EDGE_CURVE('',#174,#175,#204,.T.);
#135=EDGE_CURVE('',#174,#176,#205,.T.);
#136=EDGE_CURVE('',#175,#177,#206,.T.);
#137=EDGE_CURVE('',#176,#177,#207,.T.);
#138=EDGE_CURVE('',#176,#170,#208,.T.);
#139=EDGE_CURVE('',#177,#172,#209,.T.);
#140=EDGE_CURVE('',#178,#179,#210,.T.);
#141=EDGE_CURVE('',#180,#178,#211,.T.);
#142=EDGE_CURVE('',#181,#180,#212,.T.);
#143=EDGE_CURVE('',#179,#181,#213,.T.);
#144=EDGE_CURVE('',#182,#183,#214,.T.);
#145=EDGE_CURVE('',#183,#184,#215,.T.);
#146=EDGE_CURVE('',#184,#185,#216,.F.);
#147=EDGE_CURVE('',#185,#182,#217,.T.);
#148=EDGE_CURVE('',#186,#187,#218,.T.);
#149=EDGE_CURVE('',#187,#188,#219,.T.);
#150=EDGE_CURVE('',#188,#189,#220,.T.);
#151=EDGE_CURVE('',#189,#186,#221,.T.);
#152=EDGE_CURVE('',#190,#186,#20,.T.);
#153=EDGE_CURVE('',#190,#191,#222,.F.);
#154=EDGE_CURVE('',#187,#191,#21,.F.);
#155=EDGE_CURVE('',#191,#167,#22,.F.);
#156=EDGE_CURVE('',#166,#192,#23,.T.);
#157=EDGE_CURVE('',#188,#192,#24,.F.);
#158=EDGE_CURVE('',#184,#190,#25,.T.);
#159=EDGE_CURVE('',#193,#189,#26,.T.);
#160=EDGE_CURVE('',#193,#185,#27,.F.);
#161=EDGE_CURVE('',#192,#193,#223,.F.);
#162=EDGE_CURVE('',#180,#182,#28,.T.);
#163=EDGE_CURVE('',#183,#178,#29,.F.);
#164=EDGE_CURVE('',#168,#179,#30,.F.);
#165=EDGE_CURVE('',#181,#169,#31,.T.);
#166=VERTEX_POINT('',#451);
#167=VERTEX_POINT('',#452);
#168=VERTEX_POINT('',#454);
#169=VERTEX_POINT('',#456);
#170=VERTEX_POINT('',#460);
#171=VERTEX_POINT('',#461);
#172=VERTEX_POINT('',#463);
#173=VERTEX_POINT('',#465);
#174=VERTEX_POINT('',#469);
#175=VERTEX_POINT('',#471);
#176=VERTEX_POINT('',#475);
#177=VERTEX_POINT('',#477);
#178=VERTEX_POINT('',#485);
#179=VERTEX_POINT('',#486);
#180=VERTEX_POINT('',#488);
#181=VERTEX_POINT('',#490);
#182=VERTEX_POINT('',#494);
#183=VERTEX_POINT('',#495);
#184=VERTEX_POINT('',#497);
#185=VERTEX_POINT('',#499);
#186=VERTEX_POINT('',#503);
#187=VERTEX_POINT('',#504);
#188=VERTEX_POINT('',#506);
#189=VERTEX_POINT('',#508);
#190=VERTEX_POINT('',#512);
#191=VERTEX_POINT('',#514);
#192=VERTEX_POINT('',#519);
#193=VERTEX_POINT('',#524);
#194=LINE('',#450,#224);
#195=LINE('',#453,#225);
#196=LINE('',#455,#226);
#197=LINE('',#457,#227);
#198=LINE('',#459,#228);
#199=LINE('',#462,#229);
#200=LINE('',#464,#230);
#201=LINE('',#466,#231);
#202=LINE('',#468,#232);
#203=LINE('',#470,#233);
#204=LINE('',#472,#234);
#205=LINE('',#474,#235);
#206=LINE('',#476,#236);
#207=LINE('',#478,#237);
#208=LINE('',#480,#238);
#209=LINE('',#481,#239);
#210=LINE('',#484,#240);
#211=LINE('',#487,#241);
#212=LINE('',#489,#242);
#213=LINE('',#491,#243);
#214=LINE('',#493,#244);
#215=LINE('',#496,#245);
#216=LINE('',#498,#246);
#217=LINE('',#500,#247);
#218=LINE('',#502,#248);
#219=LINE('',#505,#249);
#220=LINE('',#507,#250);
#221=LINE('',#509,#251);
#222=LINE('',#513,#252);
#223=LINE('',#527,#253);
#224=VECTOR('',#362,1000.);
#225=VECTOR('',#363,1000.);
#226=VECTOR('',#364,1000.);
#227=VECTOR('',#365,1000.);
#228=VECTOR('',#368,1000.);
#229=VECTOR('',#369,1000.);
#230=VECTOR('',#370,1000.);
#231=VECTOR('',#371,1000.);
#232=VECTOR('',#374,1000.);
#233=VECTOR('',#375,1000.);
#234=VECTOR('',#376,1000.);
#235=VECTOR('',#379,1000.);
#236=VECTOR('',#380,1000.);
#237=VECTOR('',#381,1000.);
#238=VECTOR('',#384,1000.);
#239=VECTOR('',#385,1000.);
#240=VECTOR('',#390,1000.);
#241=VECTOR('',#391,1000.);
#242=VECTOR('',#392,1000.);
#243=VECTOR('',#393,1000.);
#244=VECTOR('',#396,1000.);
#245=VECTOR('',#397,1000.);
#246=VECTOR('',#398,1000.);
#247=VECTOR('',#399,1000.);
#248=VECTOR('',#402,1000.);
#249=VECTOR('',#403,1000.);
#250=VECTOR('',#404,1000.);
#251=VECTOR('',#405,1000.);
#252=VECTOR('',#410,1000.);
#253=VECTOR('',#431,1000.);
#254=EDGE_LOOP('',(#40,#41,#42,#43));
#255=EDGE_LOOP('',(#44,#45,#46,#47));
#256=EDGE_LOOP('',(#48,#49,#50,#51));
#257=EDGE_LOOP('',(#52,#53,#54,#55));
#258=EDGE_LOOP('',(#56,#57,#58,#59));
#259=EDGE_LOOP('',(#60,#61,#62,#63));
#260=EDGE_LOOP('',(#64,#65,#66,#67));
#261=EDGE_LOOP('',(#68,#69,#70,#71));
#262=EDGE_LOOP('',(#72,#73,#74,#75));
#263=EDGE_LOOP('',(#76,#77,#78,#79));
#264=EDGE_LOOP('',(#80,#81,#82,#83));
#265=EDGE_LOOP('',(#84,#85,#86,#87,#88,#89));
#266=EDGE_LOOP('',(#90,#91,#92,#93,#94,#95));
#267=EDGE_LOOP('',(#96,#97,#98,#99));
#268=EDGE_LOOP('',(#100,#101,#102,#103));
#269=EDGE_LOOP('',(#104,#105,#106,#107,#108,#109,#110,#111));
#270=EDGE_LOOP('',(#112,#113,#114,#115,#116,#117,#118,#119));
#271=EDGE_LOOP('',(#120,#121,#122,#123));
#272=FACE_BOUND('',#254,.T.);
#273=FACE_BOUND('',#255,.T.);
#274=FACE_BOUND('',#256,.T.);
#275=FACE_BOUND('',#257,.T.);
#276=FACE_BOUND('',#258,.T.);
#277=FACE_BOUND('',#259,.T.);
#278=FACE_BOUND('',#260,.T.);
#279=FACE_BOUND('',#261,.T.);
#280=FACE_BOUND('',#262,.T.);
#281=FACE_BOUND('',#263,.T.);
#282=FACE_BOUND('',#264,.T.);
#283=FACE_BOUND('',#265,.T.);
#284=FACE_BOUND('',#266,.T.);
#285=FACE_BOUND('',#267,.T.);
#286=FACE_BOUND('',#268,.T.);
#287=FACE_BOUND('',#269,.T.);
#288=FACE_BOUND('',#270,.T.);
#289=FACE_BOUND('',#271,.T.);
#290=PLANE('',#329);
#291=PLANE('',#330);
#292=PLANE('',#331);
#293=PLANE('',#332);
#294=PLANE('',#333);
#295=PLANE('',#334);
#296=PLANE('',#335);
#297=PLANE('',#336);
#298=PLANE('',#337);
#299=ADVANCED_FACE('',(#272),#290,.T.);
#300=ADVANCED_FACE('',(#273),#291,.F.);
#301=ADVANCED_FACE('',(#274),#292,.F.);
#302=ADVANCED_FACE('',(#275),#293,.F.);
#303=ADVANCED_FACE('',(#276),#294,.F.);
#304=ADVANCED_FACE('',(#277),#295,.F.);
#305=ADVANCED_FACE('',(#278,#279),#296,.F.);
#306=ADVANCED_FACE('',(#280),#297,.T.);
#307=ADVANCED_FACE('',(#281),#298,.T.);
#308=ADVANCED_FACE('',(#282),#32,.T.);
#309=ADVANCED_FACE('',(#283),#33,.T.);
#310=ADVANCED_FACE('',(#284),#34,.T.);
#311=ADVANCED_FACE('',(#285),#35,.T.);
#312=ADVANCED_FACE('',(#286),#36,.T.);
#313=ADVANCED_FACE('',(#287),#37,.T.);
#314=ADVANCED_FACE('',(#288),#38,.T.);
#315=ADVANCED_FACE('',(#289),#39,.T.);
#316=CLOSED_SHELL('',(#299,#300,#301,#302,#303,#304,#305,#306,#307,#308,
#309,#310,#311,#312,#313,#314,#315));
#317=STYLED_ITEM('',(#318),#325);
#318=PRESENTATION_STYLE_ASSIGNMENT((#319));
#319=SURFACE_STYLE_USAGE(.BOTH.,#320);
#320=SURFACE_SIDE_STYLE('',(#321));
#321=SURFACE_STYLE_FILL_AREA(#322);
#322=FILL_AREA_STYLE('',(#323));
#323=FILL_AREA_STYLE_COLOUR('',#324);
#324=COLOUR_RGB('',0.506983280181885,0.531564235687256,0.550000011920929);
#325=MANIFOLD_SOLID_BREP('',#316);
#326=SHAPE_DEFINITION_REPRESENTATION(#542,#327);
#327=SHAPE_REPRESENTATION('Áã¼þø',(#328),#537);
#328=AXIS2_PLACEMENT_3D('',#448,#358,#359);
#329=AXIS2_PLACEMENT_3D('',#449,#360,#361);
#330=AXIS2_PLACEMENT_3D('',#458,#366,#367);
#331=AXIS2_PLACEMENT_3D('',#467,#372,#373);
#332=AXIS2_PLACEMENT_3D('',#473,#377,#378);
#333=AXIS2_PLACEMENT_3D('',#479,#382,#383);
#334=AXIS2_PLACEMENT_3D('',#482,#386,#387);
#335=AXIS2_PLACEMENT_3D('',#483,#388,#389);
#336=AXIS2_PLACEMENT_3D('',#492,#394,#395);
#337=AXIS2_PLACEMENT_3D('',#501,#400,#401);
#338=AXIS2_PLACEMENT_3D('',#510,#406,#407);
#339=AXIS2_PLACEMENT_3D('',#511,#408,#409);
#340=AXIS2_PLACEMENT_3D('',#515,#411,#412);
#341=AXIS2_PLACEMENT_3D('',#516,#413,#414);
#342=AXIS2_PLACEMENT_3D('',#517,#415,#416);
#343=AXIS2_PLACEMENT_3D('',#518,#417,#418);
#344=AXIS2_PLACEMENT_3D('',#520,#419,#420);
#345=AXIS2_PLACEMENT_3D('',#521,#421,#422);
#346=AXIS2_PLACEMENT_3D('',#522,#423,#424);
#347=AXIS2_PLACEMENT_3D('',#523,#425,#426);
#348=AXIS2_PLACEMENT_3D('',#525,#427,#428);
#349=AXIS2_PLACEMENT_3D('',#526,#429,#430);
#350=AXIS2_PLACEMENT_3D('',#528,#432,#433);
#351=AXIS2_PLACEMENT_3D('',#529,#434,#435);
#352=AXIS2_PLACEMENT_3D('',#530,#436,#437);
#353=AXIS2_PLACEMENT_3D('',#531,#438,#439);
#354=AXIS2_PLACEMENT_3D('',#532,#440,#441);
#355=AXIS2_PLACEMENT_3D('',#533,#442,#443);
#356=AXIS2_PLACEMENT_3D('',#534,#444,#445);
#357=AXIS2_PLACEMENT_3D('',#535,#446,#447);
#358=DIRECTION('',(0.,0.,1.));
#359=DIRECTION('',(1.,0.,0.));
#360=DIRECTION('',(0.,-1.,0.));
#361=DIRECTION('',(0.,0.,-1.));
#362=DIRECTION('',(0.,0.,1.));
#363=DIRECTION('',(1.,0.,0.));
#364=DIRECTION('',(0.,0.,1.));
#365=DIRECTION('',(-1.,0.,0.));
#366=DIRECTION('',(0.,0.,1.));
#367=DIRECTION('',(1.,0.,0.));
#368=DIRECTION('',(1.,0.,0.));
#369=DIRECTION('',(0.,1.,0.));
#370=DIRECTION('',(1.,0.,0.));
#371=DIRECTION('',(0.,1.,0.));
#372=DIRECTION('',(-1.,0.,0.));
#373=DIRECTION('',(0.,0.,1.));
#374=DIRECTION('',(0.,0.,1.));
#375=DIRECTION('',(0.,0.,1.));
#376=DIRECTION('',(0.,1.,0.));
#377=DIRECTION('',(0.,0.,-1.));
#378=DIRECTION('',(-1.,0.,0.));
#379=DIRECTION('',(-1.,0.,0.));
#380=DIRECTION('',(-1.,0.,0.));
#381=DIRECTION('',(0.,1.,0.));
#382=DIRECTION('',(1.,0.,0.));
#383=DIRECTION('',(0.,0.,-1.));
#384=DIRECTION('',(0.,0.,-1.));
#385=DIRECTION('',(0.,0.,-1.));
#386=DIRECTION('',(0.,-1.,0.));
#387=DIRECTION('',(0.,0.,-1.));
#388=DIRECTION('',(0.,-1.,0.));
#389=DIRECTION('',(0.,0.,-1.));
#390=DIRECTION('',(1.,0.,0.));
#391=DIRECTION('',(0.,0.,-1.));
#392=DIRECTION('',(-1.,0.,0.));
#393=DIRECTION('',(0.,0.,1.));
#394=DIRECTION('',(0.,-1.,0.));
#395=DIRECTION('',(0.,0.,-1.));
#396=DIRECTION('',(0.,0.,-1.));
#397=DIRECTION('',(1.,0.,0.));
#398=DIRECTION('',(0.,0.,-1.));
#399=DIRECTION('',(-1.,0.,0.));
#400=DIRECTION('',(0.,-1.,0.));
#401=DIRECTION('',(0.,0.,-1.));
#402=DIRECTION('',(1.,0.,0.));
#403=DIRECTION('',(0.,0.,1.));
#404=DIRECTION('',(-1.,0.,0.));
#405=DIRECTION('',(0.,0.,-1.));
#406=DIRECTION('',(-1.,0.,0.));
#407=DIRECTION('',(0.,0.,1.));
#408=DIRECTION('',(-0.707106781186547,0.,0.707106781186547));
#409=DIRECTION('',(0.707106781186547,0.,0.707106781186547));
#410=DIRECTION('',(-1.,0.,0.));
#411=DIRECTION('',(-0.707106781186547,0.,-0.707106781186547));
#412=DIRECTION('',(0.707106781186547,0.,-0.707106781186547));
#413=DIRECTION('',(0.,0.,-1.));
#414=DIRECTION('',(-1.,0.,0.));
#415=DIRECTION('',(0.707106781186547,0.,-0.707106781186547));
#416=DIRECTION('',(-0.707106781186547,0.,-0.707106781186547));
#417=DIRECTION('',(-0.707106781186547,0.,-0.707106781186547));
#418=DIRECTION('',(0.707106781186547,0.,-0.707106781186547));
#419=DIRECTION('',(0.707106781186547,0.,-0.707106781186547));
#420=DIRECTION('',(0.707106781186547,0.,0.707106781186547));
#421=DIRECTION('',(0.,0.,1.));
#422=DIRECTION('',(1.,0.,0.));
#423=DIRECTION('',(0.707106781186547,0.,0.707106781186547));
#424=DIRECTION('',(-0.707106781186547,0.,0.707106781186547));
#425=DIRECTION('',(0.707106781186547,0.,0.707106781186547));
#426=DIRECTION('',(0.707106781186547,0.,-0.707106781186547));
#427=DIRECTION('',(-0.707106781186547,0.,0.707106781186547));
#428=DIRECTION('',(0.707106781186547,0.,0.707106781186547));
#429=DIRECTION('',(1.,0.,0.));
#430=DIRECTION('',(0.,0.,-1.));
#431=DIRECTION('',(1.,0.,0.));
#432=DIRECTION('',(0.,0.,1.));
#433=DIRECTION('',(1.,0.,0.));
#434=DIRECTION('',(0.707106781186547,0.,0.707106781186547));
#435=DIRECTION('',(-0.707106781186547,0.,0.707106781186547));
#436=DIRECTION('',(-0.707106781186547,0.,0.707106781186547));
#437=DIRECTION('',(0.707106781186547,0.,0.707106781186547));
#438=DIRECTION('',(-1.,0.,0.));
#439=DIRECTION('',(0.,0.,1.));
#440=DIRECTION('',(-0.707106781186547,0.,-0.707106781186547));
#441=DIRECTION('',(-0.707106781186547,0.,0.707106781186547));
#442=DIRECTION('',(1.,0.,0.));
#443=DIRECTION('',(0.,0.,-1.));
#444=DIRECTION('',(0.707106781186547,0.,-0.707106781186547));
#445=DIRECTION('',(0.707106781186547,0.,0.707106781186547));
#446=DIRECTION('',(0.,0.,-1.));
#447=DIRECTION('',(-1.,0.,0.));
#448=CARTESIAN_POINT('',(0.,0.,0.));
#449=CARTESIAN_POINT('',(0.,-30.,0.));
#450=CARTESIAN_POINT('',(19.3495577730773,-30.,-7.5));
#451=CARTESIAN_POINT('',(19.3495577730773,-30.,10.7872555341905));
#452=CARTESIAN_POINT('',(19.3495577730773,-30.,-10.7872555341905));
#453=CARTESIAN_POINT('',(35.,-30.,-10.7872555341905));
#454=CARTESIAN_POINT('',(25.7872555341905,-30.,-10.7872555341905));
#455=CARTESIAN_POINT('',(25.7872555341905,-30.,20.));
#456=CARTESIAN_POINT('',(25.7872555341905,-30.,10.7872555341905));
#457=CARTESIAN_POINT('',(-35.,-30.,10.7872555341905));
#458=CARTESIAN_POINT('',(-30.5,-30.,-18.));
#459=CARTESIAN_POINT('',(-30.5,-23.8891309321872,-18.));
#460=CARTESIAN_POINT('',(-30.5,-23.8891309321872,-18.));
#461=CARTESIAN_POINT('',(30.5,-23.8891309321872,-18.));
#462=CARTESIAN_POINT('',(-30.5,-30.,-18.));
#463=CARTESIAN_POINT('',(-30.5,0.,-18.));
#464=CARTESIAN_POINT('',(-30.5,0.,-18.));
#465=CARTESIAN_POINT('',(30.5,0.,-18.));
#466=CARTESIAN_POINT('',(30.5,-30.,-18.));
#467=CARTESIAN_POINT('',(30.5,-30.,-18.));
#468=CARTESIAN_POINT('',(30.5,-23.8891309321872,-18.));
#469=CARTESIAN_POINT('',(30.5,-23.8891309321872,18.));
#470=CARTESIAN_POINT('',(30.5,0.,-18.));
#471=CARTESIAN_POINT('',(30.5,0.,18.));
#472=CARTESIAN_POINT('',(30.5,-30.,18.));
#473=CARTESIAN_POINT('',(30.5,-30.,18.));
#474=CARTESIAN_POINT('',(30.5,-23.8891309321872,18.));
#475=CARTESIAN_POINT('',(-30.5,-23.8891309321872,18.));
#476=CARTESIAN_POINT('',(30.5,0.,18.));
#477=CARTESIAN_POINT('',(-30.5,0.,18.));
#478=CARTESIAN_POINT('',(-30.5,-30.,18.));
#479=CARTESIAN_POINT('',(-30.5,-30.,18.));
#480=CARTESIAN_POINT('',(-30.5,-23.8891309321872,18.));
#481=CARTESIAN_POINT('',(-30.5,0.,18.));
#482=CARTESIAN_POINT('',(0.,0.,0.));
#483=CARTESIAN_POINT('',(0.,-23.8891309321872,0.));
#484=CARTESIAN_POINT('',(-35.,-23.8891309321872,-20.));
#485=CARTESIAN_POINT('',(-35.,-23.8891309321872,-20.));
#486=CARTESIAN_POINT('',(35.,-23.8891309321872,-20.));
#487=CARTESIAN_POINT('',(-35.,-23.8891309321872,20.));
#488=CARTESIAN_POINT('',(-35.,-23.8891309321872,20.));
#489=CARTESIAN_POINT('',(35.,-23.8891309321872,20.));
#490=CARTESIAN_POINT('',(35.,-23.8891309321872,20.));
#491=CARTESIAN_POINT('',(35.,-23.8891309321872,-20.));
#492=CARTESIAN_POINT('',(0.,-30.,0.));
#493=CARTESIAN_POINT('',(-25.7872555341905,-30.,-20.));
#494=CARTESIAN_POINT('',(-25.7872555341905,-30.,10.7872555341905));
#495=CARTESIAN_POINT('',(-25.7872555341905,-30.,-10.7872555341905));
#496=CARTESIAN_POINT('',(35.,-30.,-10.7872555341905));
#497=CARTESIAN_POINT('',(-19.3495577730773,-30.,-10.7872555341905));
#498=CARTESIAN_POINT('',(-19.3495577730773,-30.,7.5));
#499=CARTESIAN_POINT('',(-19.3495577730773,-30.,10.7872555341905));
#500=CARTESIAN_POINT('',(-35.,-30.,10.7872555341905));
#501=CARTESIAN_POINT('',(0.,-27.2858464376678,0.));
#502=CARTESIAN_POINT('',(-12.5,-27.2858464376678,-7.5));
#503=CARTESIAN_POINT('',(-12.5,-27.2858464376678,-7.5));
#504=CARTESIAN_POINT('',(12.5,-27.2858464376678,-7.5));
#505=CARTESIAN_POINT('',(12.5,-27.2858464376678,-7.5));
#506=CARTESIAN_POINT('',(12.5,-27.2858464376678,7.5));
#507=CARTESIAN_POINT('',(12.5,-27.2858464376678,7.5));
#508=CARTESIAN_POINT('',(-12.5,-27.2858464376678,7.5));
#509=CARTESIAN_POINT('',(-12.5,-27.2858464376678,7.5));
#510=CARTESIAN_POINT('',(-12.5,-20.,-14.3495577730773));
#511=CARTESIAN_POINT('',(-19.3495577730773,-20.,-14.3495577730773));
#512=CARTESIAN_POINT('',(-17.5684066536339,-29.8400965792875,-12.5684066536339));
#513=CARTESIAN_POINT('',(-17.5684066536339,-29.8400965792875,-12.5684066536339));
#514=CARTESIAN_POINT('',(17.5684066536339,-29.8400965792875,-12.5684066536339));
#515=CARTESIAN_POINT('',(19.3495577730773,-20.,-14.3495577730773));
#516=CARTESIAN_POINT('',(19.3495577730773,-20.,-7.5));
#517=CARTESIAN_POINT('',(19.3495577730773,-20.,-10.7872555341905));
#518=CARTESIAN_POINT('',(19.3495577730773,-20.,10.7872555341905));
#519=CARTESIAN_POINT('',(17.5684066536339,-29.8400965792875,12.5684066536339));
#520=CARTESIAN_POINT('',(19.3495577730773,-20.,14.3495577730773));
#521=CARTESIAN_POINT('',(-19.3495577730773,-20.,7.5));
#522=CARTESIAN_POINT('',(-19.3495577730773,-20.,-10.7872555341905));
#523=CARTESIAN_POINT('',(-19.3495577730773,-20.,14.3495577730773));
#524=CARTESIAN_POINT('',(-17.5684066536339,-29.8400965792875,12.5684066536339));
#525=CARTESIAN_POINT('',(-19.3495577730773,-20.,10.7872555341905));
#526=CARTESIAN_POINT('',(12.5,-20.,14.3495577730773));
#527=CARTESIAN_POINT('',(17.5684066536339,-29.8400965792875,12.5684066536339));
#528=CARTESIAN_POINT('',(-25.7872555341905,-20.,20.));
#529=CARTESIAN_POINT('',(-25.7872555341905,-20.,10.7872555341905));
#530=CARTESIAN_POINT('',(-25.7872555341905,-20.,-10.7872555341905));
#531=CARTESIAN_POINT('',(-35.,-20.,-10.7872555341905));
#532=CARTESIAN_POINT('',(25.7872555341905,-20.,-10.7872555341905));
#533=CARTESIAN_POINT('',(35.,-20.,10.7872555341905));
#534=CARTESIAN_POINT('',(25.7872555341905,-20.,10.7872555341905));
#535=CARTESIAN_POINT('',(25.7872555341905,-20.,-20.));
#536=MECHANICAL_DESIGN_GEOMETRIC_PRESENTATION_REPRESENTATION('',(#317),
#537);
#537=(
GEOMETRIC_REPRESENTATION_CONTEXT(3)
GLOBAL_UNCERTAINTY_ASSIGNED_CONTEXT((#538))
GLOBAL_UNIT_ASSIGNED_CONTEXT((#541,#540,#539))
REPRESENTATION_CONTEXT('Áã¼þ1','TOP_LEVEL_ASSEMBLY_PART')
);
#538=UNCERTAINTY_MEASURE_WITH_UNIT(LENGTH_MEASURE(0.005),#541,
'DISTANCE_ACCURACY_VALUE','Maximum Tolerance applied to model');
#539=(
NAMED_UNIT(*)
SI_UNIT($,.STERADIAN.)
SOLID_ANGLE_UNIT()
);
#540=(
NAMED_UNIT(*)
PLANE_ANGLE_UNIT()
SI_UNIT($,.RADIAN.)
);
#541=(
LENGTH_UNIT()
NAMED_UNIT(*)
SI_UNIT(.MILLI.,.METRE.)
);
#542=PRODUCT_DEFINITION_SHAPE('','',#543);
#543=PRODUCT_DEFINITION('','',#545,#544);
#544=PRODUCT_DEFINITION_CONTEXT('',#551,'design');
#545=PRODUCT_DEFINITION_FORMATION_WITH_SPECIFIED_SOURCE('','',#547,
 .NOT_KNOWN.);
#546=PRODUCT_RELATED_PRODUCT_CATEGORY('','',(#547));
#547=PRODUCT('Áã¼þ1','Áã¼þ1','Áã¼þ1',(#549));
#548=PRODUCT_CATEGORY('','');
#549=PRODUCT_CONTEXT('',#551,'mechanical');
#550=APPLICATION_PROTOCOL_DEFINITION('international standard',
'automotive_design',2010,#551);
#551=APPLICATION_CONTEXT(
'core data for automotive mechanical design processes');
ENDSEC;
END-ISO-10303-21;
