ISO-10303-21;
HEADER;
/* Generated by software containing ST-Developer
 * from STEP Tools, Inc. (www.steptools.com) 
 */
/* OPTION: strings as raw bytes, not using required /X/ escapes */

FILE_DESCRIPTION(
/* description */ ('Unknown'),
/* implementation_level */ '2;1');

FILE_NAME(
/* name */ 'ÂØºËΩ®',
/* time_stamp */ '2024-10-29T10:48:57+08:00',
/* author */ ('Unknown'),
/* organization */ ('Unknown'),
/* preprocessor_version */ 'ST-DEVELOPER v16.7',
/* originating_system */ 'Solid Edge',
/* authorisation */ 'Unknown');

FILE_SCHEMA (('AUTOMOTIVE_DESIGN {1 0 10303 214 3 1 1}'));
ENDSEC;

DATA;
#10=PROPERTY_DEFINITION_REPRESENTATION(#14,#12);
#11=PROPERTY_DEFINITION_REPRESENTATION(#15,#13);
#12=REPRESENTATION('',(#16),#585);
#13=REPRESENTATION('',(#17),#585);
#14=PROPERTY_DEFINITION('pmi validation property','',#590);
#15=PROPERTY_DEFINITION('pmi validation property','',#590);
#16=VALUE_REPRESENTATION_ITEM('number of annotations',COUNT_MEASURE(0.));
#17=VALUE_REPRESENTATION_ITEM('number of views',COUNT_MEASURE(0.));
#18=SHAPE_REPRESENTATION_RELATIONSHIP('','',#371,#19);
#19=ADVANCED_BREP_SHAPE_REPRESENTATION('',(#369),#585);
#20=CYLINDRICAL_SURFACE('',#395,1.5);
#21=CYLINDRICAL_SURFACE('',#396,1.5);
#22=CYLINDRICAL_SURFACE('',#397,1.5);
#23=CYLINDRICAL_SURFACE('',#398,1.5);
#24=CIRCLE('',#378,1.5);
#25=CIRCLE('',#379,1.5);
#26=CIRCLE('',#380,1.5);
#27=CIRCLE('',#381,1.5);
#28=CIRCLE('',#388,1.5);
#29=CIRCLE('',#389,1.5);
#30=CIRCLE('',#390,1.5);
#31=CIRCLE('',#391,1.5);
#32=ORIENTED_EDGE('',*,*,#120,.F.);
#33=ORIENTED_EDGE('',*,*,#121,.F.);
#34=ORIENTED_EDGE('',*,*,#122,.T.);
#35=ORIENTED_EDGE('',*,*,#123,.T.);
#36=ORIENTED_EDGE('',*,*,#124,.F.);
#37=ORIENTED_EDGE('',*,*,#123,.F.);
#38=ORIENTED_EDGE('',*,*,#125,.T.);
#39=ORIENTED_EDGE('',*,*,#126,.T.);
#40=ORIENTED_EDGE('',*,*,#127,.F.);
#41=ORIENTED_EDGE('',*,*,#126,.F.);
#42=ORIENTED_EDGE('',*,*,#128,.T.);
#43=ORIENTED_EDGE('',*,*,#129,.T.);
#44=ORIENTED_EDGE('',*,*,#130,.F.);
#45=ORIENTED_EDGE('',*,*,#129,.F.);
#46=ORIENTED_EDGE('',*,*,#131,.T.);
#47=ORIENTED_EDGE('',*,*,#132,.T.);
#48=ORIENTED_EDGE('',*,*,#133,.T.);
#49=ORIENTED_EDGE('',*,*,#134,.T.);
#50=ORIENTED_EDGE('',*,*,#135,.T.);
#51=ORIENTED_EDGE('',*,*,#136,.T.);
#52=ORIENTED_EDGE('',*,*,#137,.F.);
#53=ORIENTED_EDGE('',*,*,#132,.F.);
#54=ORIENTED_EDGE('',*,*,#138,.T.);
#55=ORIENTED_EDGE('',*,*,#139,.T.);
#56=ORIENTED_EDGE('',*,*,#140,.F.);
#57=ORIENTED_EDGE('',*,*,#139,.F.);
#58=ORIENTED_EDGE('',*,*,#141,.T.);
#59=ORIENTED_EDGE('',*,*,#142,.T.);
#60=ORIENTED_EDGE('',*,*,#143,.F.);
#61=ORIENTED_EDGE('',*,*,#142,.F.);
#62=ORIENTED_EDGE('',*,*,#144,.T.);
#63=ORIENTED_EDGE('',*,*,#145,.T.);
#64=ORIENTED_EDGE('',*,*,#146,.F.);
#65=ORIENTED_EDGE('',*,*,#145,.F.);
#66=ORIENTED_EDGE('',*,*,#147,.T.);
#67=ORIENTED_EDGE('',*,*,#148,.T.);
#68=ORIENTED_EDGE('',*,*,#149,.F.);
#69=ORIENTED_EDGE('',*,*,#148,.F.);
#70=ORIENTED_EDGE('',*,*,#150,.T.);
#71=ORIENTED_EDGE('',*,*,#151,.T.);
#72=ORIENTED_EDGE('',*,*,#152,.F.);
#73=ORIENTED_EDGE('',*,*,#151,.F.);
#74=ORIENTED_EDGE('',*,*,#153,.T.);
#75=ORIENTED_EDGE('',*,*,#154,.T.);
#76=ORIENTED_EDGE('',*,*,#155,.T.);
#77=ORIENTED_EDGE('',*,*,#156,.T.);
#78=ORIENTED_EDGE('',*,*,#157,.T.);
#79=ORIENTED_EDGE('',*,*,#158,.T.);
#80=ORIENTED_EDGE('',*,*,#159,.F.);
#81=ORIENTED_EDGE('',*,*,#154,.F.);
#82=ORIENTED_EDGE('',*,*,#160,.T.);
#83=ORIENTED_EDGE('',*,*,#161,.T.);
#84=ORIENTED_EDGE('',*,*,#162,.F.);
#85=ORIENTED_EDGE('',*,*,#161,.F.);
#86=ORIENTED_EDGE('',*,*,#163,.T.);
#87=ORIENTED_EDGE('',*,*,#121,.T.);
#88=ORIENTED_EDGE('',*,*,#122,.F.);
#89=ORIENTED_EDGE('',*,*,#163,.F.);
#90=ORIENTED_EDGE('',*,*,#160,.F.);
#91=ORIENTED_EDGE('',*,*,#153,.F.);
#92=ORIENTED_EDGE('',*,*,#150,.F.);
#93=ORIENTED_EDGE('',*,*,#147,.F.);
#94=ORIENTED_EDGE('',*,*,#144,.F.);
#95=ORIENTED_EDGE('',*,*,#141,.F.);
#96=ORIENTED_EDGE('',*,*,#138,.F.);
#97=ORIENTED_EDGE('',*,*,#131,.F.);
#98=ORIENTED_EDGE('',*,*,#128,.F.);
#99=ORIENTED_EDGE('',*,*,#125,.F.);
#100=ORIENTED_EDGE('',*,*,#120,.T.);
#101=ORIENTED_EDGE('',*,*,#124,.T.);
#102=ORIENTED_EDGE('',*,*,#127,.T.);
#103=ORIENTED_EDGE('',*,*,#130,.T.);
#104=ORIENTED_EDGE('',*,*,#137,.T.);
#105=ORIENTED_EDGE('',*,*,#140,.T.);
#106=ORIENTED_EDGE('',*,*,#143,.T.);
#107=ORIENTED_EDGE('',*,*,#146,.T.);
#108=ORIENTED_EDGE('',*,*,#149,.T.);
#109=ORIENTED_EDGE('',*,*,#152,.T.);
#110=ORIENTED_EDGE('',*,*,#159,.T.);
#111=ORIENTED_EDGE('',*,*,#162,.T.);
#112=ORIENTED_EDGE('',*,*,#158,.F.);
#113=ORIENTED_EDGE('',*,*,#136,.F.);
#114=ORIENTED_EDGE('',*,*,#157,.F.);
#115=ORIENTED_EDGE('',*,*,#135,.F.);
#116=ORIENTED_EDGE('',*,*,#156,.F.);
#117=ORIENTED_EDGE('',*,*,#134,.F.);
#118=ORIENTED_EDGE('',*,*,#155,.F.);
#119=ORIENTED_EDGE('',*,*,#133,.F.);
#120=EDGE_CURVE('',#164,#165,#196,.T.);
#121=EDGE_CURVE('',#166,#164,#197,.T.);
#122=EDGE_CURVE('',#166,#167,#198,.T.);
#123=EDGE_CURVE('',#167,#165,#199,.T.);
#124=EDGE_CURVE('',#165,#168,#200,.T.);
#125=EDGE_CURVE('',#167,#169,#201,.T.);
#126=EDGE_CURVE('',#169,#168,#202,.T.);
#127=EDGE_CURVE('',#168,#170,#203,.T.);
#128=EDGE_CURVE('',#169,#171,#204,.T.);
#129=EDGE_CURVE('',#171,#170,#205,.T.);
#130=EDGE_CURVE('',#170,#172,#206,.T.);
#131=EDGE_CURVE('',#171,#173,#207,.T.);
#132=EDGE_CURVE('',#173,#172,#208,.T.);
#133=EDGE_CURVE('',#174,#174,#24,.T.);
#134=EDGE_CURVE('',#175,#175,#25,.T.);
#135=EDGE_CURVE('',#176,#176,#26,.T.);
#136=EDGE_CURVE('',#177,#177,#27,.T.);
#137=EDGE_CURVE('',#172,#178,#209,.T.);
#138=EDGE_CURVE('',#173,#179,#210,.T.);
#139=EDGE_CURVE('',#179,#178,#211,.T.);
#140=EDGE_CURVE('',#178,#180,#212,.T.);
#141=EDGE_CURVE('',#179,#181,#213,.T.);
#142=EDGE_CURVE('',#181,#180,#214,.T.);
#143=EDGE_CURVE('',#180,#182,#215,.T.);
#144=EDGE_CURVE('',#181,#183,#216,.T.);
#145=EDGE_CURVE('',#183,#182,#217,.T.);
#146=EDGE_CURVE('',#182,#184,#218,.T.);
#147=EDGE_CURVE('',#183,#185,#219,.T.);
#148=EDGE_CURVE('',#185,#184,#220,.T.);
#149=EDGE_CURVE('',#184,#186,#221,.T.);
#150=EDGE_CURVE('',#185,#187,#222,.T.);
#151=EDGE_CURVE('',#187,#186,#223,.T.);
#152=EDGE_CURVE('',#186,#188,#224,.T.);
#153=EDGE_CURVE('',#187,#189,#225,.T.);
#154=EDGE_CURVE('',#189,#188,#226,.T.);
#155=EDGE_CURVE('',#190,#190,#28,.F.);
#156=EDGE_CURVE('',#191,#191,#29,.F.);
#157=EDGE_CURVE('',#192,#192,#30,.F.);
#158=EDGE_CURVE('',#193,#193,#31,.F.);
#159=EDGE_CURVE('',#188,#194,#227,.T.);
#160=EDGE_CURVE('',#189,#195,#228,.T.);
#161=EDGE_CURVE('',#195,#194,#229,.T.);
#162=EDGE_CURVE('',#194,#164,#230,.T.);
#163=EDGE_CURVE('',#195,#166,#231,.T.);
#164=VERTEX_POINT('',#492);
#165=VERTEX_POINT('',#493);
#166=VERTEX_POINT('',#495);
#167=VERTEX_POINT('',#497);
#168=VERTEX_POINT('',#501);
#169=VERTEX_POINT('',#503);
#170=VERTEX_POINT('',#507);
#171=VERTEX_POINT('',#509);
#172=VERTEX_POINT('',#513);
#173=VERTEX_POINT('',#515);
#174=VERTEX_POINT('',#519);
#175=VERTEX_POINT('',#521);
#176=VERTEX_POINT('',#523);
#177=VERTEX_POINT('',#525);
#178=VERTEX_POINT('',#527);
#179=VERTEX_POINT('',#529);
#180=VERTEX_POINT('',#533);
#181=VERTEX_POINT('',#535);
#182=VERTEX_POINT('',#539);
#183=VERTEX_POINT('',#541);
#184=VERTEX_POINT('',#545);
#185=VERTEX_POINT('',#547);
#186=VERTEX_POINT('',#551);
#187=VERTEX_POINT('',#553);
#188=VERTEX_POINT('',#557);
#189=VERTEX_POINT('',#559);
#190=VERTEX_POINT('',#563);
#191=VERTEX_POINT('',#565);
#192=VERTEX_POINT('',#567);
#193=VERTEX_POINT('',#569);
#194=VERTEX_POINT('',#571);
#195=VERTEX_POINT('',#573);
#196=LINE('',#491,#232);
#197=LINE('',#494,#233);
#198=LINE('',#496,#234);
#199=LINE('',#498,#235);
#200=LINE('',#500,#236);
#201=LINE('',#502,#237);
#202=LINE('',#504,#238);
#203=LINE('',#506,#239);
#204=LINE('',#508,#240);
#205=LINE('',#510,#241);
#206=LINE('',#512,#242);
#207=LINE('',#514,#243);
#208=LINE('',#516,#244);
#209=LINE('',#526,#245);
#210=LINE('',#528,#246);
#211=LINE('',#530,#247);
#212=LINE('',#532,#248);
#213=LINE('',#534,#249);
#214=LINE('',#536,#250);
#215=LINE('',#538,#251);
#216=LINE('',#540,#252);
#217=LINE('',#542,#253);
#218=LINE('',#544,#254);
#219=LINE('',#546,#255);
#220=LINE('',#548,#256);
#221=LINE('',#550,#257);
#222=LINE('',#552,#258);
#223=LINE('',#554,#259);
#224=LINE('',#556,#260);
#225=LINE('',#558,#261);
#226=LINE('',#560,#262);
#227=LINE('',#570,#263);
#228=LINE('',#572,#264);
#229=LINE('',#574,#265);
#230=LINE('',#576,#266);
#231=LINE('',#577,#267);
#232=VECTOR('',#403,1000.);
#233=VECTOR('',#404,1000.);
#234=VECTOR('',#405,1000.);
#235=VECTOR('',#406,1000.);
#236=VECTOR('',#409,1000.);
#237=VECTOR('',#410,1000.);
#238=VECTOR('',#411,1000.);
#239=VECTOR('',#414,1000.);
#240=VECTOR('',#415,1000.);
#241=VECTOR('',#416,1000.);
#242=VECTOR('',#419,1000.);
#243=VECTOR('',#420,1000.);
#244=VECTOR('',#421,1000.);
#245=VECTOR('',#432,1000.);
#246=VECTOR('',#433,1000.);
#247=VECTOR('',#434,1000.);
#248=VECTOR('',#437,1000.);
#249=VECTOR('',#438,1000.);
#250=VECTOR('',#439,1000.);
#251=VECTOR('',#442,1000.);
#252=VECTOR('',#443,1000.);
#253=VECTOR('',#444,1000.);
#254=VECTOR('',#447,1000.);
#255=VECTOR('',#448,1000.);
#256=VECTOR('',#449,1000.);
#257=VECTOR('',#452,1000.);
#258=VECTOR('',#453,1000.);
#259=VECTOR('',#454,1000.);
#260=VECTOR('',#457,1000.);
#261=VECTOR('',#458,1000.);
#262=VECTOR('',#459,1000.);
#263=VECTOR('',#470,1000.);
#264=VECTOR('',#471,1000.);
#265=VECTOR('',#472,1000.);
#266=VECTOR('',#475,1000.);
#267=VECTOR('',#476,1000.);
#268=EDGE_LOOP('',(#32,#33,#34,#35));
#269=EDGE_LOOP('',(#36,#37,#38,#39));
#270=EDGE_LOOP('',(#40,#41,#42,#43));
#271=EDGE_LOOP('',(#44,#45,#46,#47));
#272=EDGE_LOOP('',(#48));
#273=EDGE_LOOP('',(#49));
#274=EDGE_LOOP('',(#50));
#275=EDGE_LOOP('',(#51));
#276=EDGE_LOOP('',(#52,#53,#54,#55));
#277=EDGE_LOOP('',(#56,#57,#58,#59));
#278=EDGE_LOOP('',(#60,#61,#62,#63));
#279=EDGE_LOOP('',(#64,#65,#66,#67));
#280=EDGE_LOOP('',(#68,#69,#70,#71));
#281=EDGE_LOOP('',(#72,#73,#74,#75));
#282=EDGE_LOOP('',(#76));
#283=EDGE_LOOP('',(#77));
#284=EDGE_LOOP('',(#78));
#285=EDGE_LOOP('',(#79));
#286=EDGE_LOOP('',(#80,#81,#82,#83));
#287=EDGE_LOOP('',(#84,#85,#86,#87));
#288=EDGE_LOOP('',(#88,#89,#90,#91,#92,#93,#94,#95,#96,#97,#98,#99));
#289=EDGE_LOOP('',(#100,#101,#102,#103,#104,#105,#106,#107,#108,#109,#110,
#111));
#290=EDGE_LOOP('',(#112));
#291=EDGE_LOOP('',(#113));
#292=EDGE_LOOP('',(#114));
#293=EDGE_LOOP('',(#115));
#294=EDGE_LOOP('',(#116));
#295=EDGE_LOOP('',(#117));
#296=EDGE_LOOP('',(#118));
#297=EDGE_LOOP('',(#119));
#298=FACE_BOUND('',#268,.T.);
#299=FACE_BOUND('',#269,.T.);
#300=FACE_BOUND('',#270,.T.);
#301=FACE_BOUND('',#271,.T.);
#302=FACE_BOUND('',#272,.T.);
#303=FACE_BOUND('',#273,.T.);
#304=FACE_BOUND('',#274,.T.);
#305=FACE_BOUND('',#275,.T.);
#306=FACE_BOUND('',#276,.T.);
#307=FACE_BOUND('',#277,.T.);
#308=FACE_BOUND('',#278,.T.);
#309=FACE_BOUND('',#279,.T.);
#310=FACE_BOUND('',#280,.T.);
#311=FACE_BOUND('',#281,.T.);
#312=FACE_BOUND('',#282,.T.);
#313=FACE_BOUND('',#283,.T.);
#314=FACE_BOUND('',#284,.T.);
#315=FACE_BOUND('',#285,.T.);
#316=FACE_BOUND('',#286,.T.);
#317=FACE_BOUND('',#287,.T.);
#318=FACE_BOUND('',#288,.T.);
#319=FACE_BOUND('',#289,.T.);
#320=FACE_BOUND('',#290,.T.);
#321=FACE_BOUND('',#291,.T.);
#322=FACE_BOUND('',#292,.T.);
#323=FACE_BOUND('',#293,.T.);
#324=FACE_BOUND('',#294,.T.);
#325=FACE_BOUND('',#295,.T.);
#326=FACE_BOUND('',#296,.T.);
#327=FACE_BOUND('',#297,.T.);
#328=PLANE('',#373);
#329=PLANE('',#374);
#330=PLANE('',#375);
#331=PLANE('',#376);
#332=PLANE('',#377);
#333=PLANE('',#382);
#334=PLANE('',#383);
#335=PLANE('',#384);
#336=PLANE('',#385);
#337=PLANE('',#386);
#338=PLANE('',#387);
#339=PLANE('',#392);
#340=PLANE('',#393);
#341=PLANE('',#394);
#342=ADVANCED_FACE('',(#298),#328,.T.);
#343=ADVANCED_FACE('',(#299),#329,.T.);
#344=ADVANCED_FACE('',(#300),#330,.T.);
#345=ADVANCED_FACE('',(#301),#331,.T.);
#346=ADVANCED_FACE('',(#302,#303,#304,#305,#306),#332,.T.);
#347=ADVANCED_FACE('',(#307),#333,.T.);
#348=ADVANCED_FACE('',(#308),#334,.T.);
#349=ADVANCED_FACE('',(#309),#335,.T.);
#350=ADVANCED_FACE('',(#310),#336,.T.);
#351=ADVANCED_FACE('',(#311),#337,.T.);
#352=ADVANCED_FACE('',(#312,#313,#314,#315,#316),#338,.T.);
#353=ADVANCED_FACE('',(#317),#339,.T.);
#354=ADVANCED_FACE('',(#318),#340,.F.);
#355=ADVANCED_FACE('',(#319),#341,.T.);
#356=ADVANCED_FACE('',(#320,#321),#20,.F.);
#357=ADVANCED_FACE('',(#322,#323),#21,.F.);
#358=ADVANCED_FACE('',(#324,#325),#22,.F.);
#359=ADVANCED_FACE('',(#326,#327),#23,.F.);
#360=CLOSED_SHELL('',(#342,#343,#344,#345,#346,#347,#348,#349,#350,#351,
#352,#353,#354,#355,#356,#357,#358,#359));
#361=STYLED_ITEM('',(#362),#369);
#362=PRESENTATION_STYLE_ASSIGNMENT((#363));
#363=SURFACE_STYLE_USAGE(.BOTH.,#364);
#364=SURFACE_SIDE_STYLE('',(#365));
#365=SURFACE_STYLE_FILL_AREA(#366);
#366=FILL_AREA_STYLE('',(#367));
#367=FILL_AREA_STYLE_COLOUR('',#368);
#368=COLOUR_RGB('',0.506983280181885,0.531564235687256,0.550000011920929);
#369=MANIFOLD_SOLID_BREP('',#360);
#370=SHAPE_DEFINITION_REPRESENTATION(#590,#371);
#371=SHAPE_REPRESENTATION('µºhè',(#372),#585);
#372=AXIS2_PLACEMENT_3D('',#489,#399,#400);
#373=AXIS2_PLACEMENT_3D('',#490,#401,#402);
#374=AXIS2_PLACEMENT_3D('',#499,#407,#408);
#375=AXIS2_PLACEMENT_3D('',#505,#412,#413);
#376=AXIS2_PLACEMENT_3D('',#511,#417,#418);
#377=AXIS2_PLACEMENT_3D('',#517,#422,#423);
#378=AXIS2_PLACEMENT_3D('',#518,#424,#425);
#379=AXIS2_PLACEMENT_3D('',#520,#426,#427);
#380=AXIS2_PLACEMENT_3D('',#522,#428,#429);
#381=AXIS2_PLACEMENT_3D('',#524,#430,#431);
#382=AXIS2_PLACEMENT_3D('',#531,#435,#436);
#383=AXIS2_PLACEMENT_3D('',#537,#440,#441);
#384=AXIS2_PLACEMENT_3D('',#543,#445,#446);
#385=AXIS2_PLACEMENT_3D('',#549,#450,#451);
#386=AXIS2_PLACEMENT_3D('',#555,#455,#456);
#387=AXIS2_PLACEMENT_3D('',#561,#460,#461);
#388=AXIS2_PLACEMENT_3D('',#562,#462,#463);
#389=AXIS2_PLACEMENT_3D('',#564,#464,#465);
#390=AXIS2_PLACEMENT_3D('',#566,#466,#467);
#391=AXIS2_PLACEMENT_3D('',#568,#468,#469);
#392=AXIS2_PLACEMENT_3D('',#575,#473,#474);
#393=AXIS2_PLACEMENT_3D('',#578,#477,#478);
#394=AXIS2_PLACEMENT_3D('',#579,#479,#480);
#395=AXIS2_PLACEMENT_3D('',#580,#481,#482);
#396=AXIS2_PLACEMENT_3D('',#581,#483,#484);
#397=AXIS2_PLACEMENT_3D('',#582,#485,#486);
#398=AXIS2_PLACEMENT_3D('',#583,#487,#488);
#399=DIRECTION('',(0.,0.,1.));
#400=DIRECTION('',(1.,0.,0.));
#401=DIRECTION('',(0.,-1.,0.));
#402=DIRECTION('',(0.,0.,-1.));
#403=DIRECTION('',(1.,0.,0.));
#404=DIRECTION('',(0.,0.,1.));
#405=DIRECTION('',(1.,0.,0.));
#406=DIRECTION('',(0.,0.,1.));
#407=DIRECTION('',(1.,0.,0.));
#408=DIRECTION('',(0.,0.,-1.));
#409=DIRECTION('',(0.,1.,0.));
#410=DIRECTION('',(0.,1.,0.));
#411=DIRECTION('',(0.,0.,1.));
#412=DIRECTION('',(0.,1.,0.));
#413=DIRECTION('',(0.,0.,1.));
#414=DIRECTION('',(-1.,0.,0.));
#415=DIRECTION('',(-1.,0.,0.));
#416=DIRECTION('',(0.,0.,1.));
#417=DIRECTION('',(-1.,0.,0.));
#418=DIRECTION('',(0.,0.,1.));
#419=DIRECTION('',(0.,-1.,0.));
#420=DIRECTION('',(0.,-1.,0.));
#421=DIRECTION('',(0.,0.,1.));
#422=DIRECTION('',(0.,-1.,0.));
#423=DIRECTION('',(0.,0.,-1.));
#424=DIRECTION('',(0.,1.,0.));
#425=DIRECTION('',(0.,0.,1.));
#426=DIRECTION('',(0.,1.,0.));
#427=DIRECTION('',(0.,0.,1.));
#428=DIRECTION('',(0.,1.,0.));
#429=DIRECTION('',(0.,0.,1.));
#430=DIRECTION('',(0.,1.,0.));
#431=DIRECTION('',(0.,0.,1.));
#432=DIRECTION('',(1.,0.,0.));
#433=DIRECTION('',(1.,0.,0.));
#434=DIRECTION('',(0.,0.,1.));
#435=DIRECTION('',(1.,0.,0.));
#436=DIRECTION('',(0.,0.,-1.));
#437=DIRECTION('',(0.,1.,0.));
#438=DIRECTION('',(0.,1.,0.));
#439=DIRECTION('',(0.,0.,1.));
#440=DIRECTION('',(4.33680868994202E-16,1.,0.));
#441=DIRECTION('',(-1.,4.33680868994202E-16,0.));
#442=DIRECTION('',(-1.,4.33680868994202E-16,0.));
#443=DIRECTION('',(-1.,4.33680868994202E-16,0.));
#444=DIRECTION('',(0.,0.,1.));
#445=DIRECTION('',(-1.,0.,0.));
#446=DIRECTION('',(0.,0.,1.));
#447=DIRECTION('',(0.,-1.,0.));
#448=DIRECTION('',(0.,-1.,0.));
#449=DIRECTION('',(0.,0.,1.));
#450=DIRECTION('',(-4.33680868994202E-16,-1.,0.));
#451=DIRECTION('',(1.,-4.33680868994202E-16,0.));
#452=DIRECTION('',(1.,-4.33680868994202E-16,0.));
#453=DIRECTION('',(1.,-4.33680868994202E-16,0.));
#454=DIRECTION('',(0.,0.,1.));
#455=DIRECTION('',(-1.,-4.33680868994202E-16,0.));
#456=DIRECTION('',(4.33680868994202E-16,-1.,0.));
#457=DIRECTION('',(4.33680868994202E-16,-1.,0.));
#458=DIRECTION('',(4.33680868994202E-16,-1.,0.));
#459=DIRECTION('',(0.,0.,1.));
#460=DIRECTION('',(-1.0842021724855E-16,1.,0.));
#461=DIRECTION('',(-1.,-1.0842021724855E-16,0.));
#462=DIRECTION('',(-1.0842021724855E-16,1.,0.));
#463=DIRECTION('',(-1.,-1.0842021724855E-16,0.));
#464=DIRECTION('',(-1.0842021724855E-16,1.,0.));
#465=DIRECTION('',(-1.,-1.0842021724855E-16,0.));
#466=DIRECTION('',(-1.0842021724855E-16,1.,0.));
#467=DIRECTION('',(-1.,-1.0842021724855E-16,0.));
#468=DIRECTION('',(-1.0842021724855E-16,1.,0.));
#469=DIRECTION('',(-1.,-1.0842021724855E-16,0.));
#470=DIRECTION('',(-1.,-1.0842021724855E-16,0.));
#471=DIRECTION('',(-1.,-1.0842021724855E-16,0.));
#472=DIRECTION('',(0.,0.,1.));
#473=DIRECTION('',(1.,-1.0842021724855E-16,0.));
#474=DIRECTION('',(1.0842021724855E-16,1.,0.));
#475=DIRECTION('',(1.0842021724855E-16,1.,0.));
#476=DIRECTION('',(1.0842021724855E-16,1.,0.));
#477=DIRECTION('',(0.,0.,1.));
#478=DIRECTION('',(1.,0.,0.));
#479=DIRECTION('',(0.,0.,1.));
#480=DIRECTION('',(1.,0.,0.));
#481=DIRECTION('',(0.,-1.,0.));
#482=DIRECTION('',(0.,0.,-1.));
#483=DIRECTION('',(0.,-1.,0.));
#484=DIRECTION('',(0.,0.,-1.));
#485=DIRECTION('',(0.,-1.,0.));
#486=DIRECTION('',(0.,0.,-1.));
#487=DIRECTION('',(0.,-1.,0.));
#488=DIRECTION('',(0.,0.,-1.));
#489=CARTESIAN_POINT('',(0.,0.,0.));
#490=CARTESIAN_POINT('',(4.,12.,-200.));
#491=CARTESIAN_POINT('',(4.,12.,0.));
#492=CARTESIAN_POINT('',(4.,12.,0.));
#493=CARTESIAN_POINT('',(8.,12.,0.));
#494=CARTESIAN_POINT('',(4.,12.,-200.));
#495=CARTESIAN_POINT('',(4.,12.,-200.));
#496=CARTESIAN_POINT('',(4.,12.,-200.));
#497=CARTESIAN_POINT('',(8.,12.,-200.));
#498=CARTESIAN_POINT('',(8.,12.,-200.));
#499=CARTESIAN_POINT('',(8.,12.,-200.));
#500=CARTESIAN_POINT('',(8.,12.,0.));
#501=CARTESIAN_POINT('',(8.,16.,0.));
#502=CARTESIAN_POINT('',(8.,12.,-200.));
#503=CARTESIAN_POINT('',(8.,16.,-200.));
#504=CARTESIAN_POINT('',(8.,16.,-200.));
#505=CARTESIAN_POINT('',(8.,16.,-200.));
#506=CARTESIAN_POINT('',(8.,16.,0.));
#507=CARTESIAN_POINT('',(0.,16.,0.));
#508=CARTESIAN_POINT('',(8.,16.,-200.));
#509=CARTESIAN_POINT('',(0.,16.,-200.));
#510=CARTESIAN_POINT('',(0.,16.,-200.));
#511=CARTESIAN_POINT('',(0.,16.,-200.));
#512=CARTESIAN_POINT('',(0.,16.,0.));
#513=CARTESIAN_POINT('',(0.,-9.,0.));
#514=CARTESIAN_POINT('',(0.,16.,-200.));
#515=CARTESIAN_POINT('',(0.,-9.,-200.));
#516=CARTESIAN_POINT('',(0.,-9.,-200.));
#517=CARTESIAN_POINT('',(0.,-9.,-200.));
#518=CARTESIAN_POINT('',(6.,-9.,-10.));
#519=CARTESIAN_POINT('',(6.,-9.,-8.50000000000001));
#520=CARTESIAN_POINT('',(6.00000000000002,-9.,-70.));
#521=CARTESIAN_POINT('',(6.00000000000002,-9.,-68.5));
#522=CARTESIAN_POINT('',(6.00000000000002,-9.,-130.));
#523=CARTESIAN_POINT('',(6.00000000000002,-9.,-128.5));
#524=CARTESIAN_POINT('',(6.00000000000002,-9.,-190.));
#525=CARTESIAN_POINT('',(6.00000000000002,-9.,-188.5));
#526=CARTESIAN_POINT('',(0.,-9.,0.));
#527=CARTESIAN_POINT('',(24.,-9.,0.));
#528=CARTESIAN_POINT('',(0.,-9.,-200.));
#529=CARTESIAN_POINT('',(24.,-9.,-200.));
#530=CARTESIAN_POINT('',(24.,-9.,-200.));
#531=CARTESIAN_POINT('',(24.,0.,-200.));
#532=CARTESIAN_POINT('',(24.,0.,0.));
#533=CARTESIAN_POINT('',(24.,16.,0.));
#534=CARTESIAN_POINT('',(24.,0.,-200.));
#535=CARTESIAN_POINT('',(24.,16.,-200.));
#536=CARTESIAN_POINT('',(24.,16.,-200.));
#537=CARTESIAN_POINT('',(24.,16.,-200.));
#538=CARTESIAN_POINT('',(24.,16.,0.));
#539=CARTESIAN_POINT('',(16.,16.,0.));
#540=CARTESIAN_POINT('',(24.,16.,-200.));
#541=CARTESIAN_POINT('',(16.,16.,-200.));
#542=CARTESIAN_POINT('',(16.,16.,-200.));
#543=CARTESIAN_POINT('',(16.,16.,-200.));
#544=CARTESIAN_POINT('',(16.,16.,0.));
#545=CARTESIAN_POINT('',(16.,12.,0.));
#546=CARTESIAN_POINT('',(16.,16.,-200.));
#547=CARTESIAN_POINT('',(16.,12.,-200.));
#548=CARTESIAN_POINT('',(16.,12.,-200.));
#549=CARTESIAN_POINT('',(16.,12.,-200.));
#550=CARTESIAN_POINT('',(16.,12.,0.));
#551=CARTESIAN_POINT('',(20.,12.,0.));
#552=CARTESIAN_POINT('',(16.,12.,-200.));
#553=CARTESIAN_POINT('',(20.,12.,-200.));
#554=CARTESIAN_POINT('',(20.,12.,-200.));
#555=CARTESIAN_POINT('',(20.,12.,-200.));
#556=CARTESIAN_POINT('',(20.,12.,0.));
#557=CARTESIAN_POINT('',(20.,4.,0.));
#558=CARTESIAN_POINT('',(20.,12.,-200.));
#559=CARTESIAN_POINT('',(20.,4.,-200.));
#560=CARTESIAN_POINT('',(20.,4.,-200.));
#561=CARTESIAN_POINT('',(20.,4.,-200.));
#562=CARTESIAN_POINT('',(6.,4.,-10.));
#563=CARTESIAN_POINT('',(4.5,4.,-10.));
#564=CARTESIAN_POINT('',(6.00000000000002,4.,-70.));
#565=CARTESIAN_POINT('',(4.50000000000002,4.,-70.));
#566=CARTESIAN_POINT('',(6.00000000000002,4.,-130.));
#567=CARTESIAN_POINT('',(4.50000000000002,4.,-130.));
#568=CARTESIAN_POINT('',(6.00000000000002,4.,-190.));
#569=CARTESIAN_POINT('',(4.50000000000002,4.,-190.));
#570=CARTESIAN_POINT('',(20.,4.,0.));
#571=CARTESIAN_POINT('',(4.,4.,0.));
#572=CARTESIAN_POINT('',(20.,4.,-200.));
#573=CARTESIAN_POINT('',(4.,4.,-200.));
#574=CARTESIAN_POINT('',(4.,4.,-200.));
#575=CARTESIAN_POINT('',(4.,4.,-200.));
#576=CARTESIAN_POINT('',(4.,4.,0.));
#577=CARTESIAN_POINT('',(4.,4.,-200.));
#578=CARTESIAN_POINT('',(0.,0.,-200.));
#579=CARTESIAN_POINT('',(0.,0.,0.));
#580=CARTESIAN_POINT('',(6.00000000000002,7.8295433934414,-190.));
#581=CARTESIAN_POINT('',(6.00000000000002,7.8295433934414,-130.));
#582=CARTESIAN_POINT('',(6.00000000000002,7.8295433934414,-70.));
#583=CARTESIAN_POINT('',(6.,7.8295433934414,-10.));
#584=MECHANICAL_DESIGN_GEOMETRIC_PRESENTATION_REPRESENTATION('',(#361),
#585);
#585=(
GEOMETRIC_REPRESENTATION_CONTEXT(3)
GLOBAL_UNCERTAINTY_ASSIGNED_CONTEXT((#586))
GLOBAL_UNIT_ASSIGNED_CONTEXT((#589,#588,#587))
REPRESENTATION_CONTEXT('µºknown','TOP_LEVEL_ASSEMBLY_PART')
);
#586=UNCERTAINTY_MEASURE_WITH_UNIT(LENGTH_MEASURE(0.005),#589,
'DISTANCE_ACCURACY_VALUE','Maximum Tolerance applied to model');
#587=(
NAMED_UNIT(*)
SI_UNIT($,.STERADIAN.)
SOLID_ANGLE_UNIT()
);
#588=(
NAMED_UNIT(*)
PLANE_ANGLE_UNIT()
SI_UNIT($,.RADIAN.)
);
#589=(
LENGTH_UNIT()
NAMED_UNIT(*)
SI_UNIT(.MILLI.,.METRE.)
);
#590=PRODUCT_DEFINITION_SHAPE('','',#591);
#591=PRODUCT_DEFINITION('','',#593,#592);
#592=PRODUCT_DEFINITION_CONTEXT('',#599,'design');
#593=PRODUCT_DEFINITION_FORMATION_WITH_SPECIFIED_SOURCE('','',#595,
 .NOT_KNOWN.);
#594=PRODUCT_RELATED_PRODUCT_CATEGORY('','',(#595));
#595=PRODUCT('µºknown','µºknown','µºknown',(#597));
#596=PRODUCT_CATEGORY('','');
#597=PRODUCT_CONTEXT('',#599,'mechanical');
#598=APPLICATION_PROTOCOL_DEFINITION('international standard',
'automotive_design',2010,#599);
#599=APPLICATION_CONTEXT(
'core data for automotive mechanical design processes');
ENDSEC;
END-ISO-10303-21;
