ISO-10303-21;
HEADER;
/* Generated by software containing ST-Developer
 * from STEP Tools, Inc. (www.steptools.com) 
 */
/* OPTION: strings as raw bytes, not using required /X/ escapes */

FILE_DESCRIPTION(
/* description */ ('Unknown'),
/* implementation_level */ '2;1');

FILE_NAME(
/* name */ 'Ê¢ØÂΩ¢Ëû∫ÊØç',
/* time_stamp */ '2024-10-29T10:21:49+08:00',
/* author */ ('Unknown'),
/* organization */ ('Unknown'),
/* preprocessor_version */ 'ST-DEVELOPER v16.7',
/* originating_system */ 'Solid Edge',
/* authorisation */ 'Unknown');

FILE_SCHEMA (('AUTOMOTIVE_DESIGN {1 0 10303 214 3 1 1}'));
ENDSEC;

DATA;
#10=PROPERTY_DEFINITION_REPRESENTATION(#14,#12);
#11=PROPERTY_DEFINITION_REPRESENTATION(#15,#13);
#12=REPRESENTATION('',(#16),#351);
#13=REPRESENTATION('',(#17),#351);
#14=PROPERTY_DEFINITION('pmi validation property','',#356);
#15=PROPERTY_DEFINITION('pmi validation property','',#356);
#16=VALUE_REPRESENTATION_ITEM('number of annotations',COUNT_MEASURE(0.));
#17=VALUE_REPRESENTATION_ITEM('number of views',COUNT_MEASURE(0.));
#18=SHAPE_REPRESENTATION_RELATIONSHIP('','',#227,#19);
#19=ADVANCED_BREP_SHAPE_REPRESENTATION('',(#225),#351);
#20=CYLINDRICAL_SURFACE('',#241,4.);
#21=CIRCLE('',#233,4.);
#22=CIRCLE('',#238,4.);
#23=ORIENTED_EDGE('',*,*,#75,.F.);
#24=ORIENTED_EDGE('',*,*,#76,.F.);
#25=ORIENTED_EDGE('',*,*,#77,.T.);
#26=ORIENTED_EDGE('',*,*,#78,.T.);
#27=ORIENTED_EDGE('',*,*,#79,.F.);
#28=ORIENTED_EDGE('',*,*,#78,.F.);
#29=ORIENTED_EDGE('',*,*,#80,.T.);
#30=ORIENTED_EDGE('',*,*,#81,.T.);
#31=ORIENTED_EDGE('',*,*,#82,.F.);
#32=ORIENTED_EDGE('',*,*,#81,.F.);
#33=ORIENTED_EDGE('',*,*,#83,.T.);
#34=ORIENTED_EDGE('',*,*,#84,.T.);
#35=ORIENTED_EDGE('',*,*,#85,.T.);
#36=ORIENTED_EDGE('',*,*,#86,.F.);
#37=ORIENTED_EDGE('',*,*,#84,.F.);
#38=ORIENTED_EDGE('',*,*,#87,.T.);
#39=ORIENTED_EDGE('',*,*,#88,.T.);
#40=ORIENTED_EDGE('',*,*,#89,.F.);
#41=ORIENTED_EDGE('',*,*,#88,.F.);
#42=ORIENTED_EDGE('',*,*,#90,.T.);
#43=ORIENTED_EDGE('',*,*,#91,.T.);
#44=ORIENTED_EDGE('',*,*,#92,.F.);
#45=ORIENTED_EDGE('',*,*,#91,.F.);
#46=ORIENTED_EDGE('',*,*,#93,.T.);
#47=ORIENTED_EDGE('',*,*,#94,.T.);
#48=ORIENTED_EDGE('',*,*,#95,.F.);
#49=ORIENTED_EDGE('',*,*,#94,.F.);
#50=ORIENTED_EDGE('',*,*,#96,.T.);
#51=ORIENTED_EDGE('',*,*,#97,.T.);
#52=ORIENTED_EDGE('',*,*,#98,.T.);
#53=ORIENTED_EDGE('',*,*,#99,.F.);
#54=ORIENTED_EDGE('',*,*,#97,.F.);
#55=ORIENTED_EDGE('',*,*,#100,.T.);
#56=ORIENTED_EDGE('',*,*,#76,.T.);
#57=ORIENTED_EDGE('',*,*,#100,.F.);
#58=ORIENTED_EDGE('',*,*,#96,.F.);
#59=ORIENTED_EDGE('',*,*,#93,.F.);
#60=ORIENTED_EDGE('',*,*,#90,.F.);
#61=ORIENTED_EDGE('',*,*,#87,.F.);
#62=ORIENTED_EDGE('',*,*,#83,.F.);
#63=ORIENTED_EDGE('',*,*,#80,.F.);
#64=ORIENTED_EDGE('',*,*,#77,.F.);
#65=ORIENTED_EDGE('',*,*,#99,.T.);
#66=ORIENTED_EDGE('',*,*,#75,.T.);
#67=ORIENTED_EDGE('',*,*,#79,.T.);
#68=ORIENTED_EDGE('',*,*,#82,.T.);
#69=ORIENTED_EDGE('',*,*,#86,.T.);
#70=ORIENTED_EDGE('',*,*,#89,.T.);
#71=ORIENTED_EDGE('',*,*,#92,.T.);
#72=ORIENTED_EDGE('',*,*,#95,.T.);
#73=ORIENTED_EDGE('',*,*,#98,.F.);
#74=ORIENTED_EDGE('',*,*,#85,.F.);
#75=EDGE_CURVE('',#101,#102,#119,.T.);
#76=EDGE_CURVE('',#103,#101,#120,.T.);
#77=EDGE_CURVE('',#103,#104,#121,.T.);
#78=EDGE_CURVE('',#104,#102,#122,.T.);
#79=EDGE_CURVE('',#102,#105,#123,.T.);
#80=EDGE_CURVE('',#104,#106,#124,.T.);
#81=EDGE_CURVE('',#106,#105,#125,.T.);
#82=EDGE_CURVE('',#105,#107,#126,.T.);
#83=EDGE_CURVE('',#106,#108,#127,.T.);
#84=EDGE_CURVE('',#108,#107,#128,.T.);
#85=EDGE_CURVE('',#109,#109,#21,.T.);
#86=EDGE_CURVE('',#107,#110,#129,.T.);
#87=EDGE_CURVE('',#108,#111,#130,.T.);
#88=EDGE_CURVE('',#111,#110,#131,.T.);
#89=EDGE_CURVE('',#110,#112,#132,.T.);
#90=EDGE_CURVE('',#111,#113,#133,.T.);
#91=EDGE_CURVE('',#113,#112,#134,.T.);
#92=EDGE_CURVE('',#112,#114,#135,.T.);
#93=EDGE_CURVE('',#113,#115,#136,.T.);
#94=EDGE_CURVE('',#115,#114,#137,.T.);
#95=EDGE_CURVE('',#114,#116,#138,.T.);
#96=EDGE_CURVE('',#115,#117,#139,.T.);
#97=EDGE_CURVE('',#117,#116,#140,.T.);
#98=EDGE_CURVE('',#118,#118,#22,.F.);
#99=EDGE_CURVE('',#116,#101,#141,.T.);
#100=EDGE_CURVE('',#117,#103,#142,.T.);
#101=VERTEX_POINT('',#297);
#102=VERTEX_POINT('',#298);
#103=VERTEX_POINT('',#300);
#104=VERTEX_POINT('',#302);
#105=VERTEX_POINT('',#306);
#106=VERTEX_POINT('',#308);
#107=VERTEX_POINT('',#312);
#108=VERTEX_POINT('',#314);
#109=VERTEX_POINT('',#318);
#110=VERTEX_POINT('',#320);
#111=VERTEX_POINT('',#322);
#112=VERTEX_POINT('',#326);
#113=VERTEX_POINT('',#328);
#114=VERTEX_POINT('',#332);
#115=VERTEX_POINT('',#334);
#116=VERTEX_POINT('',#338);
#117=VERTEX_POINT('',#340);
#118=VERTEX_POINT('',#344);
#119=LINE('',#296,#143);
#120=LINE('',#299,#144);
#121=LINE('',#301,#145);
#122=LINE('',#303,#146);
#123=LINE('',#305,#147);
#124=LINE('',#307,#148);
#125=LINE('',#309,#149);
#126=LINE('',#311,#150);
#127=LINE('',#313,#151);
#128=LINE('',#315,#152);
#129=LINE('',#319,#153);
#130=LINE('',#321,#154);
#131=LINE('',#323,#155);
#132=LINE('',#325,#156);
#133=LINE('',#327,#157);
#134=LINE('',#329,#158);
#135=LINE('',#331,#159);
#136=LINE('',#333,#160);
#137=LINE('',#335,#161);
#138=LINE('',#337,#162);
#139=LINE('',#339,#163);
#140=LINE('',#341,#164);
#141=LINE('',#345,#165);
#142=LINE('',#346,#166);
#143=VECTOR('',#246,1000.);
#144=VECTOR('',#247,1000.);
#145=VECTOR('',#248,1000.);
#146=VECTOR('',#249,1000.);
#147=VECTOR('',#252,1000.);
#148=VECTOR('',#253,1000.);
#149=VECTOR('',#254,1000.);
#150=VECTOR('',#257,1000.);
#151=VECTOR('',#258,1000.);
#152=VECTOR('',#259,1000.);
#153=VECTOR('',#264,1000.);
#154=VECTOR('',#265,1000.);
#155=VECTOR('',#266,1000.);
#156=VECTOR('',#269,1000.);
#157=VECTOR('',#270,1000.);
#158=VECTOR('',#271,1000.);
#159=VECTOR('',#274,1000.);
#160=VECTOR('',#275,1000.);
#161=VECTOR('',#276,1000.);
#162=VECTOR('',#279,1000.);
#163=VECTOR('',#280,1000.);
#164=VECTOR('',#281,1000.);
#165=VECTOR('',#286,1000.);
#166=VECTOR('',#287,1000.);
#167=EDGE_LOOP('',(#23,#24,#25,#26));
#168=EDGE_LOOP('',(#27,#28,#29,#30));
#169=EDGE_LOOP('',(#31,#32,#33,#34));
#170=EDGE_LOOP('',(#35));
#171=EDGE_LOOP('',(#36,#37,#38,#39));
#172=EDGE_LOOP('',(#40,#41,#42,#43));
#173=EDGE_LOOP('',(#44,#45,#46,#47));
#174=EDGE_LOOP('',(#48,#49,#50,#51));
#175=EDGE_LOOP('',(#52));
#176=EDGE_LOOP('',(#53,#54,#55,#56));
#177=EDGE_LOOP('',(#57,#58,#59,#60,#61,#62,#63,#64));
#178=EDGE_LOOP('',(#65,#66,#67,#68,#69,#70,#71,#72));
#179=EDGE_LOOP('',(#73));
#180=EDGE_LOOP('',(#74));
#181=FACE_BOUND('',#167,.T.);
#182=FACE_BOUND('',#168,.T.);
#183=FACE_BOUND('',#169,.T.);
#184=FACE_BOUND('',#170,.T.);
#185=FACE_BOUND('',#171,.T.);
#186=FACE_BOUND('',#172,.T.);
#187=FACE_BOUND('',#173,.T.);
#188=FACE_BOUND('',#174,.T.);
#189=FACE_BOUND('',#175,.T.);
#190=FACE_BOUND('',#176,.T.);
#191=FACE_BOUND('',#177,.T.);
#192=FACE_BOUND('',#178,.T.);
#193=FACE_BOUND('',#179,.T.);
#194=FACE_BOUND('',#180,.T.);
#195=PLANE('',#229);
#196=PLANE('',#230);
#197=PLANE('',#231);
#198=PLANE('',#232);
#199=PLANE('',#234);
#200=PLANE('',#235);
#201=PLANE('',#236);
#202=PLANE('',#237);
#203=PLANE('',#239);
#204=PLANE('',#240);
#205=ADVANCED_FACE('',(#181),#195,.T.);
#206=ADVANCED_FACE('',(#182),#196,.T.);
#207=ADVANCED_FACE('',(#183),#197,.T.);
#208=ADVANCED_FACE('',(#184,#185),#198,.T.);
#209=ADVANCED_FACE('',(#186),#199,.T.);
#210=ADVANCED_FACE('',(#187),#200,.T.);
#211=ADVANCED_FACE('',(#188),#201,.T.);
#212=ADVANCED_FACE('',(#189,#190),#202,.T.);
#213=ADVANCED_FACE('',(#191),#203,.F.);
#214=ADVANCED_FACE('',(#192),#204,.T.);
#215=ADVANCED_FACE('',(#193,#194),#20,.F.);
#216=CLOSED_SHELL('',(#205,#206,#207,#208,#209,#210,#211,#212,#213,#214,
#215));
#217=STYLED_ITEM('',(#218),#225);
#218=PRESENTATION_STYLE_ASSIGNMENT((#219));
#219=SURFACE_STYLE_USAGE(.BOTH.,#220);
#220=SURFACE_SIDE_STYLE('',(#221));
#221=SURFACE_STYLE_FILL_AREA(#222);
#222=FILL_AREA_STYLE('',(#223));
#223=FILL_AREA_STYLE_COLOUR('',#224);
#224=COLOUR_RGB('',0.506983280181885,0.531564235687256,0.550000011920929);
#225=MANIFOLD_SOLID_BREP('',#216);
#226=SHAPE_DEFINITION_REPRESENTATION(#356,#227);
#227=SHAPE_REPRESENTATION('Ã›–Œ',(#228),#351);
#228=AXIS2_PLACEMENT_3D('',#294,#242,#243);
#229=AXIS2_PLACEMENT_3D('',#295,#244,#245);
#230=AXIS2_PLACEMENT_3D('',#304,#250,#251);
#231=AXIS2_PLACEMENT_3D('',#310,#255,#256);
#232=AXIS2_PLACEMENT_3D('',#316,#260,#261);
#233=AXIS2_PLACEMENT_3D('',#317,#262,#263);
#234=AXIS2_PLACEMENT_3D('',#324,#267,#268);
#235=AXIS2_PLACEMENT_3D('',#330,#272,#273);
#236=AXIS2_PLACEMENT_3D('',#336,#277,#278);
#237=AXIS2_PLACEMENT_3D('',#342,#282,#283);
#238=AXIS2_PLACEMENT_3D('',#343,#284,#285);
#239=AXIS2_PLACEMENT_3D('',#347,#288,#289);
#240=AXIS2_PLACEMENT_3D('',#348,#290,#291);
#241=AXIS2_PLACEMENT_3D('',#349,#292,#293);
#242=DIRECTION('',(0.,0.,1.));
#243=DIRECTION('',(1.,0.,0.));
#244=DIRECTION('',(-1.,0.,0.));
#245=DIRECTION('',(0.,0.,1.));
#246=DIRECTION('',(0.,-1.,0.));
#247=DIRECTION('',(0.,0.,1.));
#248=DIRECTION('',(0.,-1.,0.));
#249=DIRECTION('',(0.,0.,1.));
#250=DIRECTION('',(0.,-1.,0.));
#251=DIRECTION('',(0.,0.,-1.));
#252=DIRECTION('',(1.,0.,0.));
#253=DIRECTION('',(1.,0.,0.));
#254=DIRECTION('',(0.,0.,1.));
#255=DIRECTION('',(-1.,0.,0.));
#256=DIRECTION('',(0.,0.,1.));
#257=DIRECTION('',(0.,-1.,0.));
#258=DIRECTION('',(0.,-1.,0.));
#259=DIRECTION('',(0.,0.,1.));
#260=DIRECTION('',(0.,-1.,0.));
#261=DIRECTION('',(0.,0.,-1.));
#262=DIRECTION('',(0.,1.,0.));
#263=DIRECTION('',(1.,0.,0.));
#264=DIRECTION('',(1.,0.,0.));
#265=DIRECTION('',(1.,0.,0.));
#266=DIRECTION('',(0.,0.,1.));
#267=DIRECTION('',(1.,0.,0.));
#268=DIRECTION('',(0.,0.,-1.));
#269=DIRECTION('',(0.,1.,0.));
#270=DIRECTION('',(0.,1.,0.));
#271=DIRECTION('',(0.,0.,1.));
#272=DIRECTION('',(-1.44560289664734E-16,-1.,0.));
#273=DIRECTION('',(1.,-1.44560289664734E-16,0.));
#274=DIRECTION('',(1.,-1.44560289664734E-16,0.));
#275=DIRECTION('',(1.,-1.44560289664734E-16,0.));
#276=DIRECTION('',(0.,0.,1.));
#277=DIRECTION('',(1.,0.,0.));
#278=DIRECTION('',(0.,0.,-1.));
#279=DIRECTION('',(0.,1.,0.));
#280=DIRECTION('',(0.,1.,0.));
#281=DIRECTION('',(0.,0.,1.));
#282=DIRECTION('',(0.,1.,0.));
#283=DIRECTION('',(0.,0.,1.));
#284=DIRECTION('',(0.,1.,0.));
#285=DIRECTION('',(0.,0.,1.));
#286=DIRECTION('',(-1.,0.,0.));
#287=DIRECTION('',(-1.,0.,0.));
#288=DIRECTION('',(0.,0.,1.));
#289=DIRECTION('',(1.,0.,0.));
#290=DIRECTION('',(0.,0.,1.));
#291=DIRECTION('',(1.,0.,0.));
#292=DIRECTION('',(0.,-1.,0.));
#293=DIRECTION('',(0.,0.,-1.));
#294=CARTESIAN_POINT('',(0.,0.,0.));
#295=CARTESIAN_POINT('',(-9.,3.5,-20.));
#296=CARTESIAN_POINT('',(-9.,3.5,0.));
#297=CARTESIAN_POINT('',(-9.,3.5,0.));
#298=CARTESIAN_POINT('',(-9.,-3.5,0.));
#299=CARTESIAN_POINT('',(-9.,3.5,-20.));
#300=CARTESIAN_POINT('',(-9.,3.5,-20.));
#301=CARTESIAN_POINT('',(-9.,3.5,-20.));
#302=CARTESIAN_POINT('',(-9.,-3.5,-20.));
#303=CARTESIAN_POINT('',(-9.,-3.5,-20.));
#304=CARTESIAN_POINT('',(-9.,-3.5,-20.));
#305=CARTESIAN_POINT('',(-9.,-3.5,0.));
#306=CARTESIAN_POINT('',(-6.,-3.5,0.));
#307=CARTESIAN_POINT('',(-9.,-3.5,-20.));
#308=CARTESIAN_POINT('',(-6.,-3.5,-20.));
#309=CARTESIAN_POINT('',(-6.,-3.5,-20.));
#310=CARTESIAN_POINT('',(-6.,-3.5,-20.));
#311=CARTESIAN_POINT('',(-6.,-3.5,0.));
#312=CARTESIAN_POINT('',(-6.,-10.5,0.));
#313=CARTESIAN_POINT('',(-6.,-3.5,-20.));
#314=CARTESIAN_POINT('',(-6.,-10.5,-20.));
#315=CARTESIAN_POINT('',(-6.,-10.5,-20.));
#316=CARTESIAN_POINT('',(-6.,-10.5,-20.));
#317=CARTESIAN_POINT('',(6.12323343574523E-16,-10.5,-10.));
#318=CARTESIAN_POINT('',(4.,-10.5,-10.));
#319=CARTESIAN_POINT('',(-6.,-10.5,0.));
#320=CARTESIAN_POINT('',(6.,-10.5,0.));
#321=CARTESIAN_POINT('',(-6.,-10.5,-20.));
#322=CARTESIAN_POINT('',(6.,-10.5,-20.));
#323=CARTESIAN_POINT('',(6.,-10.5,-20.));
#324=CARTESIAN_POINT('',(6.,-10.5,-20.));
#325=CARTESIAN_POINT('',(6.,-10.5,0.));
#326=CARTESIAN_POINT('',(6.,-3.5,0.));
#327=CARTESIAN_POINT('',(6.,-10.5,-20.));
#328=CARTESIAN_POINT('',(6.,-3.5,-20.));
#329=CARTESIAN_POINT('',(6.,-3.5,-20.));
#330=CARTESIAN_POINT('',(6.,-3.5,-20.));
#331=CARTESIAN_POINT('',(6.,-3.5,0.));
#332=CARTESIAN_POINT('',(9.,-3.5,0.));
#333=CARTESIAN_POINT('',(6.,-3.5,-20.));
#334=CARTESIAN_POINT('',(9.,-3.5,-20.));
#335=CARTESIAN_POINT('',(9.,-3.5,-20.));
#336=CARTESIAN_POINT('',(9.,-3.5,-20.));
#337=CARTESIAN_POINT('',(9.,-3.5,0.));
#338=CARTESIAN_POINT('',(9.,3.5,0.));
#339=CARTESIAN_POINT('',(9.,-3.5,-20.));
#340=CARTESIAN_POINT('',(9.,3.5,-20.));
#341=CARTESIAN_POINT('',(9.,3.5,-20.));
#342=CARTESIAN_POINT('',(9.,3.5,-20.));
#343=CARTESIAN_POINT('',(6.12323343574523E-16,3.5,-10.));
#344=CARTESIAN_POINT('',(6.12323343574523E-16,3.5,-6.));
#345=CARTESIAN_POINT('',(9.,3.5,0.));
#346=CARTESIAN_POINT('',(-6.,3.5,-20.));
#347=CARTESIAN_POINT('',(0.,0.,-20.));
#348=CARTESIAN_POINT('',(0.,0.,0.));
#349=CARTESIAN_POINT('',(6.12323343574523E-16,9.08158979444465,-10.));
#350=MECHANICAL_DESIGN_GEOMETRIC_PRESENTATION_REPRESENTATION('',(#217),
#351);
#351=(
GEOMETRIC_REPRESENTATION_CONTEXT(3)
GLOBAL_UNCERTAINTY_ASSIGNED_CONTEXT((#352))
GLOBAL_UNIT_ASSIGNED_CONTEXT((#355,#354,#353))
REPRESENTATION_CONTEXT('Ã›–Œ','TOP_LEVEL_ASSEMBLY_PART')
);
#352=UNCERTAINTY_MEASURE_WITH_UNIT(LENGTH_MEASURE(0.005),#355,
'DISTANCE_ACCURACY_VALUE','Maximum Tolerance applied to model');
#353=(
NAMED_UNIT(*)
SI_UNIT($,.STERADIAN.)
SOLID_ANGLE_UNIT()
);
#354=(
NAMED_UNIT(*)
PLANE_ANGLE_UNIT()
SI_UNIT($,.RADIAN.)
);
#355=(
LENGTH_UNIT()
NAMED_UNIT(*)
SI_UNIT(.MILLI.,.METRE.)
);
#356=PRODUCT_DEFINITION_SHAPE('','',#357);
#357=PRODUCT_DEFINITION('','',#359,#358);
#358=PRODUCT_DEFINITION_CONTEXT('',#365,'design');
#359=PRODUCT_DEFINITION_FORMATION_WITH_SPECIFIED_SOURCE('','',#361,
 .NOT_KNOWN.);
#360=PRODUCT_RELATED_PRODUCT_CATEGORY('','',(#361));
#361=PRODUCT('Ã›–Œ','Ã›–Œ','Ã›–Œ',(#363));
#362=PRODUCT_CATEGORY('','');
#363=PRODUCT_CONTEXT('',#365,'mechanical');
#364=APPLICATION_PROTOCOL_DEFINITION('international standard',
'automotive_design',2010,#365);
#365=APPLICATION_CONTEXT(
'core data for automotive mechanical design processes');
ENDSEC;
END-ISO-10303-21;
