ISO-10303-21;
HEADER;
/* Generated by software containing ST-Developer
 * from STEP Tools, Inc. (www.steptools.com) 
 */
/* OPTION: strings as raw bytes, not using required /X/ escapes */

FILE_DESCRIPTION(
/* description */ ('Unknown'),
/* implementation_level */ '2;1');

FILE_NAME(
/* name */ 'ÊªëÂùó',
/* time_stamp */ '2024-10-29T11:08:43+08:00',
/* author */ ('Unknown'),
/* organization */ ('Unknown'),
/* preprocessor_version */ 'ST-DEVELOPER v16.7',
/* originating_system */ 'Solid Edge',
/* authorisation */ 'Unknown');

FILE_SCHEMA (('AUTOMOTIVE_DESIGN {1 0 10303 214 3 1 1}'));
ENDSEC;

DATA;
#10=PROPERTY_DEFINITION_REPRESENTATION(#14,#12);
#11=PROPERTY_DEFINITION_REPRESENTATION(#15,#13);
#12=REPRESENTATION('',(#16),#805);
#13=REPRESENTATION('',(#17),#805);
#14=PROPERTY_DEFINITION('pmi validation property','',#810);
#15=PROPERTY_DEFINITION('pmi validation property','',#810);
#16=VALUE_REPRESENTATION_ITEM('number of annotations',COUNT_MEASURE(0.));
#17=VALUE_REPRESENTATION_ITEM('number of views',COUNT_MEASURE(0.));
#18=SHAPE_REPRESENTATION_RELATIONSHIP('','',#501,#19);
#19=ADVANCED_BREP_SHAPE_REPRESENTATION('',(#499),#805);
#20=CYLINDRICAL_SURFACE('',#529,3.);
#21=CYLINDRICAL_SURFACE('',#532,3.);
#22=CYLINDRICAL_SURFACE('',#535,3.);
#23=CYLINDRICAL_SURFACE('',#538,3.);
#24=CYLINDRICAL_SURFACE('',#541,2.5);
#25=LINE('',#677,#75);
#26=LINE('',#679,#76);
#27=LINE('',#681,#77);
#28=LINE('',#683,#78);
#29=LINE('',#685,#79);
#30=LINE('',#689,#80);
#31=LINE('',#699,#81);
#32=LINE('',#702,#82);
#33=LINE('',#704,#83);
#34=LINE('',#706,#84);
#35=LINE('',#708,#85);
#36=LINE('',#711,#86);
#37=LINE('',#713,#87);
#38=LINE('',#715,#88);
#39=LINE('',#717,#89);
#40=LINE('',#719,#90);
#41=LINE('',#721,#91);
#42=LINE('',#723,#92);
#43=LINE('',#725,#93);
#44=LINE('',#727,#94);
#45=LINE('',#729,#95);
#46=LINE('',#731,#96);
#47=LINE('',#733,#97);
#48=LINE('',#735,#98);
#49=LINE('',#737,#99);
#50=LINE('',#739,#100);
#51=LINE('',#741,#101);
#52=LINE('',#743,#102);
#53=LINE('',#745,#103);
#54=LINE('',#747,#104);
#55=LINE('',#749,#105);
#56=LINE('',#751,#106);
#57=LINE('',#753,#107);
#58=LINE('',#755,#108);
#59=LINE('',#756,#109);
#60=LINE('',#760,#110);
#61=LINE('',#762,#111);
#62=LINE('',#763,#112);
#63=LINE('',#764,#113);
#64=LINE('',#766,#114);
#65=LINE('',#768,#115);
#66=LINE('',#770,#116);
#67=LINE('',#772,#117);
#68=LINE('',#776,#118);
#69=LINE('',#777,#119);
#70=LINE('',#779,#120);
#71=LINE('',#781,#121);
#72=LINE('',#783,#122);
#73=LINE('',#785,#123);
#74=LINE('',#789,#124);
#75=VECTOR('',#548,1000.);
#76=VECTOR('',#549,1000.);
#77=VECTOR('',#550,1000.);
#78=VECTOR('',#551,1000.);
#79=VECTOR('',#552,1000.);
#80=VECTOR('',#555,1000.);
#81=VECTOR('',#566,1000.);
#82=VECTOR('',#567,1000.);
#83=VECTOR('',#568,1000.);
#84=VECTOR('',#569,1000.);
#85=VECTOR('',#572,1000.);
#86=VECTOR('',#573,1000.);
#87=VECTOR('',#574,1000.);
#88=VECTOR('',#575,1000.);
#89=VECTOR('',#576,1000.);
#90=VECTOR('',#577,1000.);
#91=VECTOR('',#578,1000.);
#92=VECTOR('',#579,1000.);
#93=VECTOR('',#582,1000.);
#94=VECTOR('',#583,1000.);
#95=VECTOR('',#584,1000.);
#96=VECTOR('',#587,1000.);
#97=VECTOR('',#588,1000.);
#98=VECTOR('',#589,1000.);
#99=VECTOR('',#592,1000.);
#100=VECTOR('',#593,1000.);
#101=VECTOR('',#594,1000.);
#102=VECTOR('',#597,1000.);
#103=VECTOR('',#598,1000.);
#104=VECTOR('',#599,1000.);
#105=VECTOR('',#602,1000.);
#106=VECTOR('',#603,1000.);
#107=VECTOR('',#604,1000.);
#108=VECTOR('',#607,1000.);
#109=VECTOR('',#608,1000.);
#110=VECTOR('',#613,1000.);
#111=VECTOR('',#614,1000.);
#112=VECTOR('',#615,1000.);
#113=VECTOR('',#616,1000.);
#114=VECTOR('',#617,1000.);
#115=VECTOR('',#620,1000.);
#116=VECTOR('',#621,1000.);
#117=VECTOR('',#622,1000.);
#118=VECTOR('',#627,1000.);
#119=VECTOR('',#628,1000.);
#120=VECTOR('',#631,1000.);
#121=VECTOR('',#632,1000.);
#122=VECTOR('',#635,1000.);
#123=VECTOR('',#636,1000.);
#124=VECTOR('',#643,1000.);
#125=ORIENTED_EDGE('',*,*,#253,.F.);
#126=ORIENTED_EDGE('',*,*,#254,.T.);
#127=ORIENTED_EDGE('',*,*,#255,.F.);
#128=ORIENTED_EDGE('',*,*,#256,.F.);
#129=ORIENTED_EDGE('',*,*,#257,.T.);
#130=ORIENTED_EDGE('',*,*,#258,.T.);
#131=ORIENTED_EDGE('',*,*,#259,.F.);
#132=ORIENTED_EDGE('',*,*,#260,.T.);
#133=ORIENTED_EDGE('',*,*,#261,.T.);
#134=ORIENTED_EDGE('',*,*,#262,.T.);
#135=ORIENTED_EDGE('',*,*,#263,.T.);
#136=ORIENTED_EDGE('',*,*,#264,.T.);
#137=ORIENTED_EDGE('',*,*,#265,.F.);
#138=ORIENTED_EDGE('',*,*,#266,.F.);
#139=ORIENTED_EDGE('',*,*,#267,.T.);
#140=ORIENTED_EDGE('',*,*,#268,.F.);
#141=ORIENTED_EDGE('',*,*,#269,.F.);
#142=ORIENTED_EDGE('',*,*,#270,.T.);
#143=ORIENTED_EDGE('',*,*,#271,.T.);
#144=ORIENTED_EDGE('',*,*,#272,.F.);
#145=ORIENTED_EDGE('',*,*,#273,.F.);
#146=ORIENTED_EDGE('',*,*,#274,.F.);
#147=ORIENTED_EDGE('',*,*,#275,.F.);
#148=ORIENTED_EDGE('',*,*,#276,.F.);
#149=ORIENTED_EDGE('',*,*,#277,.F.);
#150=ORIENTED_EDGE('',*,*,#271,.F.);
#151=ORIENTED_EDGE('',*,*,#278,.T.);
#152=ORIENTED_EDGE('',*,*,#279,.T.);
#153=ORIENTED_EDGE('',*,*,#280,.F.);
#154=ORIENTED_EDGE('',*,*,#279,.F.);
#155=ORIENTED_EDGE('',*,*,#281,.T.);
#156=ORIENTED_EDGE('',*,*,#282,.T.);
#157=ORIENTED_EDGE('',*,*,#283,.F.);
#158=ORIENTED_EDGE('',*,*,#282,.F.);
#159=ORIENTED_EDGE('',*,*,#284,.T.);
#160=ORIENTED_EDGE('',*,*,#285,.T.);
#161=ORIENTED_EDGE('',*,*,#286,.F.);
#162=ORIENTED_EDGE('',*,*,#285,.F.);
#163=ORIENTED_EDGE('',*,*,#287,.T.);
#164=ORIENTED_EDGE('',*,*,#288,.T.);
#165=ORIENTED_EDGE('',*,*,#289,.F.);
#166=ORIENTED_EDGE('',*,*,#288,.F.);
#167=ORIENTED_EDGE('',*,*,#290,.T.);
#168=ORIENTED_EDGE('',*,*,#291,.T.);
#169=ORIENTED_EDGE('',*,*,#292,.F.);
#170=ORIENTED_EDGE('',*,*,#291,.F.);
#171=ORIENTED_EDGE('',*,*,#293,.T.);
#172=ORIENTED_EDGE('',*,*,#256,.T.);
#173=ORIENTED_EDGE('',*,*,#294,.T.);
#174=ORIENTED_EDGE('',*,*,#295,.F.);
#175=ORIENTED_EDGE('',*,*,#254,.F.);
#176=ORIENTED_EDGE('',*,*,#296,.F.);
#177=ORIENTED_EDGE('',*,*,#260,.F.);
#178=ORIENTED_EDGE('',*,*,#297,.F.);
#179=ORIENTED_EDGE('',*,*,#258,.F.);
#180=ORIENTED_EDGE('',*,*,#298,.T.);
#181=ORIENTED_EDGE('',*,*,#299,.T.);
#182=ORIENTED_EDGE('',*,*,#300,.F.);
#183=ORIENTED_EDGE('',*,*,#299,.F.);
#184=ORIENTED_EDGE('',*,*,#301,.T.);
#185=ORIENTED_EDGE('',*,*,#302,.T.);
#186=ORIENTED_EDGE('',*,*,#303,.T.);
#187=ORIENTED_EDGE('',*,*,#304,.F.);
#188=ORIENTED_EDGE('',*,*,#302,.F.);
#189=ORIENTED_EDGE('',*,*,#305,.T.);
#190=ORIENTED_EDGE('',*,*,#266,.T.);
#191=ORIENTED_EDGE('',*,*,#267,.F.);
#192=ORIENTED_EDGE('',*,*,#305,.F.);
#193=ORIENTED_EDGE('',*,*,#301,.F.);
#194=ORIENTED_EDGE('',*,*,#298,.F.);
#195=ORIENTED_EDGE('',*,*,#257,.F.);
#196=ORIENTED_EDGE('',*,*,#293,.F.);
#197=ORIENTED_EDGE('',*,*,#290,.F.);
#198=ORIENTED_EDGE('',*,*,#287,.F.);
#199=ORIENTED_EDGE('',*,*,#284,.F.);
#200=ORIENTED_EDGE('',*,*,#281,.F.);
#201=ORIENTED_EDGE('',*,*,#278,.F.);
#202=ORIENTED_EDGE('',*,*,#270,.F.);
#203=ORIENTED_EDGE('',*,*,#306,.F.);
#204=ORIENTED_EDGE('',*,*,#307,.F.);
#205=ORIENTED_EDGE('',*,*,#265,.T.);
#206=ORIENTED_EDGE('',*,*,#308,.F.);
#207=ORIENTED_EDGE('',*,*,#309,.T.);
#208=ORIENTED_EDGE('',*,*,#272,.T.);
#209=ORIENTED_EDGE('',*,*,#277,.T.);
#210=ORIENTED_EDGE('',*,*,#280,.T.);
#211=ORIENTED_EDGE('',*,*,#283,.T.);
#212=ORIENTED_EDGE('',*,*,#286,.T.);
#213=ORIENTED_EDGE('',*,*,#289,.T.);
#214=ORIENTED_EDGE('',*,*,#292,.T.);
#215=ORIENTED_EDGE('',*,*,#255,.T.);
#216=ORIENTED_EDGE('',*,*,#295,.T.);
#217=ORIENTED_EDGE('',*,*,#300,.T.);
#218=ORIENTED_EDGE('',*,*,#304,.T.);
#219=ORIENTED_EDGE('',*,*,#310,.F.);
#220=ORIENTED_EDGE('',*,*,#275,.T.);
#221=ORIENTED_EDGE('',*,*,#311,.F.);
#222=ORIENTED_EDGE('',*,*,#273,.T.);
#223=ORIENTED_EDGE('',*,*,#309,.F.);
#224=ORIENTED_EDGE('',*,*,#312,.F.);
#225=ORIENTED_EDGE('',*,*,#306,.T.);
#226=ORIENTED_EDGE('',*,*,#269,.T.);
#227=ORIENTED_EDGE('',*,*,#268,.T.);
#228=ORIENTED_EDGE('',*,*,#307,.T.);
#229=ORIENTED_EDGE('',*,*,#312,.T.);
#230=ORIENTED_EDGE('',*,*,#308,.T.);
#231=ORIENTED_EDGE('',*,*,#264,.F.);
#232=ORIENTED_EDGE('',*,*,#313,.T.);
#233=ORIENTED_EDGE('',*,*,#311,.T.);
#234=ORIENTED_EDGE('',*,*,#274,.T.);
#235=ORIENTED_EDGE('',*,*,#313,.F.);
#236=ORIENTED_EDGE('',*,*,#263,.F.);
#237=ORIENTED_EDGE('',*,*,#314,.T.);
#238=ORIENTED_EDGE('',*,*,#310,.T.);
#239=ORIENTED_EDGE('',*,*,#276,.T.);
#240=ORIENTED_EDGE('',*,*,#314,.F.);
#241=ORIENTED_EDGE('',*,*,#262,.F.);
#242=ORIENTED_EDGE('',*,*,#315,.T.);
#243=ORIENTED_EDGE('',*,*,#259,.T.);
#244=ORIENTED_EDGE('',*,*,#297,.T.);
#245=ORIENTED_EDGE('',*,*,#315,.F.);
#246=ORIENTED_EDGE('',*,*,#261,.F.);
#247=ORIENTED_EDGE('',*,*,#316,.T.);
#248=ORIENTED_EDGE('',*,*,#253,.T.);
#249=ORIENTED_EDGE('',*,*,#296,.T.);
#250=ORIENTED_EDGE('',*,*,#316,.F.);
#251=ORIENTED_EDGE('',*,*,#294,.F.);
#252=ORIENTED_EDGE('',*,*,#303,.F.);
#253=EDGE_CURVE('',#317,#318,#359,.T.);
#254=EDGE_CURVE('',#317,#319,#25,.T.);
#255=EDGE_CURVE('',#320,#319,#26,.T.);
#256=EDGE_CURVE('',#321,#320,#27,.T.);
#257=EDGE_CURVE('',#321,#322,#28,.T.);
#258=EDGE_CURVE('',#322,#323,#29,.T.);
#259=EDGE_CURVE('',#324,#323,#360,.T.);
#260=EDGE_CURVE('',#324,#318,#30,.T.);
#261=EDGE_CURVE('',#325,#325,#361,.T.);
#262=EDGE_CURVE('',#326,#326,#362,.T.);
#263=EDGE_CURVE('',#327,#327,#363,.T.);
#264=EDGE_CURVE('',#328,#328,#364,.T.);
#265=EDGE_CURVE('',#329,#330,#31,.T.);
#266=EDGE_CURVE('',#331,#329,#32,.T.);
#267=EDGE_CURVE('',#331,#332,#33,.T.);
#268=EDGE_CURVE('',#330,#332,#34,.T.);
#269=EDGE_CURVE('',#333,#334,#35,.T.);
#270=EDGE_CURVE('',#333,#335,#36,.T.);
#271=EDGE_CURVE('',#335,#336,#37,.T.);
#272=EDGE_CURVE('',#337,#336,#38,.T.);
#273=EDGE_CURVE('',#338,#337,#39,.T.);
#274=EDGE_CURVE('',#339,#338,#40,.T.);
#275=EDGE_CURVE('',#340,#339,#41,.T.);
#276=EDGE_CURVE('',#334,#340,#42,.T.);
#277=EDGE_CURVE('',#336,#341,#43,.T.);
#278=EDGE_CURVE('',#335,#342,#44,.T.);
#279=EDGE_CURVE('',#342,#341,#45,.T.);
#280=EDGE_CURVE('',#341,#343,#46,.T.);
#281=EDGE_CURVE('',#342,#344,#47,.T.);
#282=EDGE_CURVE('',#344,#343,#48,.T.);
#283=EDGE_CURVE('',#343,#345,#49,.T.);
#284=EDGE_CURVE('',#344,#346,#50,.T.);
#285=EDGE_CURVE('',#346,#345,#51,.T.);
#286=EDGE_CURVE('',#345,#347,#52,.T.);
#287=EDGE_CURVE('',#346,#348,#53,.T.);
#288=EDGE_CURVE('',#348,#347,#54,.T.);
#289=EDGE_CURVE('',#347,#349,#55,.T.);
#290=EDGE_CURVE('',#348,#350,#56,.T.);
#291=EDGE_CURVE('',#350,#349,#57,.T.);
#292=EDGE_CURVE('',#349,#320,#58,.T.);
#293=EDGE_CURVE('',#350,#321,#59,.T.);
#294=EDGE_CURVE('',#351,#351,#365,.F.);
#295=EDGE_CURVE('',#319,#352,#60,.T.);
#296=EDGE_CURVE('',#318,#317,#61,.T.);
#297=EDGE_CURVE('',#323,#324,#62,.T.);
#298=EDGE_CURVE('',#322,#353,#63,.T.);
#299=EDGE_CURVE('',#353,#352,#64,.T.);
#300=EDGE_CURVE('',#352,#354,#65,.T.);
#301=EDGE_CURVE('',#353,#355,#66,.T.);
#302=EDGE_CURVE('',#355,#354,#67,.T.);
#303=EDGE_CURVE('',#356,#356,#366,.T.);
#304=EDGE_CURVE('',#354,#329,#68,.T.);
#305=EDGE_CURVE('',#355,#331,#69,.T.);
#306=EDGE_CURVE('',#357,#333,#70,.T.);
#307=EDGE_CURVE('',#332,#357,#71,.T.);
#308=EDGE_CURVE('',#358,#330,#72,.T.);
#309=EDGE_CURVE('',#358,#337,#73,.T.);
#310=EDGE_CURVE('',#340,#334,#367,.T.);
#311=EDGE_CURVE('',#338,#339,#368,.T.);
#312=EDGE_CURVE('',#357,#358,#74,.T.);
#313=EDGE_CURVE('',#339,#338,#369,.T.);
#314=EDGE_CURVE('',#334,#340,#370,.T.);
#315=EDGE_CURVE('',#323,#324,#371,.T.);
#316=EDGE_CURVE('',#318,#317,#372,.T.);
#317=VERTEX_POINT('',#675);
#318=VERTEX_POINT('',#676);
#319=VERTEX_POINT('',#678);
#320=VERTEX_POINT('',#680);
#321=VERTEX_POINT('',#682);
#322=VERTEX_POINT('',#684);
#323=VERTEX_POINT('',#686);
#324=VERTEX_POINT('',#688);
#325=VERTEX_POINT('',#692);
#326=VERTEX_POINT('',#694);
#327=VERTEX_POINT('',#696);
#328=VERTEX_POINT('',#698);
#329=VERTEX_POINT('',#700);
#330=VERTEX_POINT('',#701);
#331=VERTEX_POINT('',#703);
#332=VERTEX_POINT('',#705);
#333=VERTEX_POINT('',#709);
#334=VERTEX_POINT('',#710);
#335=VERTEX_POINT('',#712);
#336=VERTEX_POINT('',#714);
#337=VERTEX_POINT('',#716);
#338=VERTEX_POINT('',#718);
#339=VERTEX_POINT('',#720);
#340=VERTEX_POINT('',#722);
#341=VERTEX_POINT('',#726);
#342=VERTEX_POINT('',#728);
#343=VERTEX_POINT('',#732);
#344=VERTEX_POINT('',#734);
#345=VERTEX_POINT('',#738);
#346=VERTEX_POINT('',#740);
#347=VERTEX_POINT('',#744);
#348=VERTEX_POINT('',#746);
#349=VERTEX_POINT('',#750);
#350=VERTEX_POINT('',#752);
#351=VERTEX_POINT('',#759);
#352=VERTEX_POINT('',#761);
#353=VERTEX_POINT('',#765);
#354=VERTEX_POINT('',#769);
#355=VERTEX_POINT('',#771);
#356=VERTEX_POINT('',#775);
#357=VERTEX_POINT('',#780);
#358=VERTEX_POINT('',#784);
#359=CIRCLE('',#504,3.);
#360=CIRCLE('',#505,3.);
#361=CIRCLE('',#507,3.);
#362=CIRCLE('',#508,3.);
#363=CIRCLE('',#509,3.);
#364=CIRCLE('',#510,3.);
#365=CIRCLE('',#519,2.5);
#366=CIRCLE('',#522,2.5);
#367=CIRCLE('',#526,3.);
#368=CIRCLE('',#527,3.);
#369=CIRCLE('',#530,3.);
#370=CIRCLE('',#533,3.);
#371=CIRCLE('',#536,3.);
#372=CIRCLE('',#539,3.);
#373=EDGE_LOOP('',(#125,#126,#127,#128,#129,#130,#131,#132));
#374=EDGE_LOOP('',(#133));
#375=EDGE_LOOP('',(#134));
#376=EDGE_LOOP('',(#135));
#377=EDGE_LOOP('',(#136));
#378=EDGE_LOOP('',(#137,#138,#139,#140));
#379=EDGE_LOOP('',(#141,#142,#143,#144,#145,#146,#147,#148));
#380=EDGE_LOOP('',(#149,#150,#151,#152));
#381=EDGE_LOOP('',(#153,#154,#155,#156));
#382=EDGE_LOOP('',(#157,#158,#159,#160));
#383=EDGE_LOOP('',(#161,#162,#163,#164));
#384=EDGE_LOOP('',(#165,#166,#167,#168));
#385=EDGE_LOOP('',(#169,#170,#171,#172));
#386=EDGE_LOOP('',(#173));
#387=EDGE_LOOP('',(#174,#175,#176,#177,#178,#179,#180,#181));
#388=EDGE_LOOP('',(#182,#183,#184,#185));
#389=EDGE_LOOP('',(#186));
#390=EDGE_LOOP('',(#187,#188,#189,#190));
#391=EDGE_LOOP('',(#191,#192,#193,#194,#195,#196,#197,#198,#199,#200,#201,
#202,#203,#204));
#392=EDGE_LOOP('',(#205,#206,#207,#208,#209,#210,#211,#212,#213,#214,#215,
#216,#217,#218));
#393=EDGE_LOOP('',(#219,#220,#221,#222,#223,#224,#225,#226));
#394=EDGE_LOOP('',(#227,#228,#229,#230));
#395=EDGE_LOOP('',(#231));
#396=EDGE_LOOP('',(#232,#233));
#397=EDGE_LOOP('',(#234,#235));
#398=EDGE_LOOP('',(#236));
#399=EDGE_LOOP('',(#237,#238));
#400=EDGE_LOOP('',(#239,#240));
#401=EDGE_LOOP('',(#241));
#402=EDGE_LOOP('',(#242,#243));
#403=EDGE_LOOP('',(#244,#245));
#404=EDGE_LOOP('',(#246));
#405=EDGE_LOOP('',(#247,#248));
#406=EDGE_LOOP('',(#249,#250));
#407=EDGE_LOOP('',(#251));
#408=EDGE_LOOP('',(#252));
#409=FACE_BOUND('',#373,.T.);
#410=FACE_BOUND('',#374,.T.);
#411=FACE_BOUND('',#375,.T.);
#412=FACE_BOUND('',#376,.T.);
#413=FACE_BOUND('',#377,.T.);
#414=FACE_BOUND('',#378,.T.);
#415=FACE_BOUND('',#379,.T.);
#416=FACE_BOUND('',#380,.T.);
#417=FACE_BOUND('',#381,.T.);
#418=FACE_BOUND('',#382,.T.);
#419=FACE_BOUND('',#383,.T.);
#420=FACE_BOUND('',#384,.T.);
#421=FACE_BOUND('',#385,.T.);
#422=FACE_BOUND('',#386,.T.);
#423=FACE_BOUND('',#387,.T.);
#424=FACE_BOUND('',#388,.T.);
#425=FACE_BOUND('',#389,.T.);
#426=FACE_BOUND('',#390,.T.);
#427=FACE_BOUND('',#391,.T.);
#428=FACE_BOUND('',#392,.T.);
#429=FACE_BOUND('',#393,.T.);
#430=FACE_BOUND('',#394,.T.);
#431=FACE_BOUND('',#395,.T.);
#432=FACE_BOUND('',#396,.T.);
#433=FACE_BOUND('',#397,.T.);
#434=FACE_BOUND('',#398,.T.);
#435=FACE_BOUND('',#399,.T.);
#436=FACE_BOUND('',#400,.T.);
#437=FACE_BOUND('',#401,.T.);
#438=FACE_BOUND('',#402,.T.);
#439=FACE_BOUND('',#403,.T.);
#440=FACE_BOUND('',#404,.T.);
#441=FACE_BOUND('',#405,.T.);
#442=FACE_BOUND('',#406,.T.);
#443=FACE_BOUND('',#407,.T.);
#444=FACE_BOUND('',#408,.T.);
#445=PLANE('',#503);
#446=PLANE('',#506);
#447=PLANE('',#511);
#448=PLANE('',#512);
#449=PLANE('',#513);
#450=PLANE('',#514);
#451=PLANE('',#515);
#452=PLANE('',#516);
#453=PLANE('',#517);
#454=PLANE('',#518);
#455=PLANE('',#520);
#456=PLANE('',#521);
#457=PLANE('',#523);
#458=PLANE('',#524);
#459=PLANE('',#525);
#460=PLANE('',#528);
#461=PLANE('',#531);
#462=PLANE('',#534);
#463=PLANE('',#537);
#464=PLANE('',#540);
#465=ADVANCED_FACE('',(#409),#445,.T.);
#466=ADVANCED_FACE('',(#410,#411,#412,#413,#414),#446,.T.);
#467=ADVANCED_FACE('',(#415),#447,.T.);
#468=ADVANCED_FACE('',(#416),#448,.T.);
#469=ADVANCED_FACE('',(#417),#449,.T.);
#470=ADVANCED_FACE('',(#418),#450,.T.);
#471=ADVANCED_FACE('',(#419),#451,.T.);
#472=ADVANCED_FACE('',(#420),#452,.T.);
#473=ADVANCED_FACE('',(#421),#453,.T.);
#474=ADVANCED_FACE('',(#422,#423),#454,.T.);
#475=ADVANCED_FACE('',(#424),#455,.T.);
#476=ADVANCED_FACE('',(#425,#426),#456,.T.);
#477=ADVANCED_FACE('',(#427),#457,.F.);
#478=ADVANCED_FACE('',(#428),#458,.T.);
#479=ADVANCED_FACE('',(#429),#459,.F.);
#480=ADVANCED_FACE('',(#430),#460,.T.);
#481=ADVANCED_FACE('',(#431,#432),#20,.F.);
#482=ADVANCED_FACE('',(#433),#461,.F.);
#483=ADVANCED_FACE('',(#434,#435),#21,.F.);
#484=ADVANCED_FACE('',(#436),#462,.F.);
#485=ADVANCED_FACE('',(#437,#438),#22,.F.);
#486=ADVANCED_FACE('',(#439),#463,.F.);
#487=ADVANCED_FACE('',(#440,#441),#23,.F.);
#488=ADVANCED_FACE('',(#442),#464,.F.);
#489=ADVANCED_FACE('',(#443,#444),#24,.F.);
#490=CLOSED_SHELL('',(#465,#466,#467,#468,#469,#470,#471,#472,#473,#474,
#475,#476,#477,#478,#479,#480,#481,#482,#483,#484,#485,#486,#487,#488,#489));
#491=STYLED_ITEM('',(#492),#499);
#492=PRESENTATION_STYLE_ASSIGNMENT((#493));
#493=SURFACE_STYLE_USAGE(.BOTH.,#494);
#494=SURFACE_SIDE_STYLE('',(#495));
#495=SURFACE_STYLE_FILL_AREA(#496);
#496=FILL_AREA_STYLE('',(#497));
#497=FILL_AREA_STYLE_COLOUR('',#498);
#498=COLOUR_RGB('',0.506983280181885,0.531564235687256,0.550000011920929);
#499=MANIFOLD_SOLID_BREP('',#490);
#500=SHAPE_DEFINITION_REPRESENTATION(#810,#501);
#501=SHAPE_REPRESENTATION('ª¨ëÂùó',(#502),#805);
#502=AXIS2_PLACEMENT_3D('',#672,#542,#543);
#503=AXIS2_PLACEMENT_3D('',#673,#544,#545);
#504=AXIS2_PLACEMENT_3D('',#674,#546,#547);
#505=AXIS2_PLACEMENT_3D('',#687,#553,#554);
#506=AXIS2_PLACEMENT_3D('',#690,#556,#557);
#507=AXIS2_PLACEMENT_3D('',#691,#558,#559);
#508=AXIS2_PLACEMENT_3D('',#693,#560,#561);
#509=AXIS2_PLACEMENT_3D('',#695,#562,#563);
#510=AXIS2_PLACEMENT_3D('',#697,#564,#565);
#511=AXIS2_PLACEMENT_3D('',#707,#570,#571);
#512=AXIS2_PLACEMENT_3D('',#724,#580,#581);
#513=AXIS2_PLACEMENT_3D('',#730,#585,#586);
#514=AXIS2_PLACEMENT_3D('',#736,#590,#591);
#515=AXIS2_PLACEMENT_3D('',#742,#595,#596);
#516=AXIS2_PLACEMENT_3D('',#748,#600,#601);
#517=AXIS2_PLACEMENT_3D('',#754,#605,#606);
#518=AXIS2_PLACEMENT_3D('',#757,#609,#610);
#519=AXIS2_PLACEMENT_3D('',#758,#611,#612);
#520=AXIS2_PLACEMENT_3D('',#767,#618,#619);
#521=AXIS2_PLACEMENT_3D('',#773,#623,#624);
#522=AXIS2_PLACEMENT_3D('',#774,#625,#626);
#523=AXIS2_PLACEMENT_3D('',#778,#629,#630);
#524=AXIS2_PLACEMENT_3D('',#782,#633,#634);
#525=AXIS2_PLACEMENT_3D('',#786,#637,#638);
#526=AXIS2_PLACEMENT_3D('',#787,#639,#640);
#527=AXIS2_PLACEMENT_3D('',#788,#641,#642);
#528=AXIS2_PLACEMENT_3D('',#790,#644,#645);
#529=AXIS2_PLACEMENT_3D('',#791,#646,#647);
#530=AXIS2_PLACEMENT_3D('',#792,#648,#649);
#531=AXIS2_PLACEMENT_3D('',#793,#650,#651);
#532=AXIS2_PLACEMENT_3D('',#794,#652,#653);
#533=AXIS2_PLACEMENT_3D('',#795,#654,#655);
#534=AXIS2_PLACEMENT_3D('',#796,#656,#657);
#535=AXIS2_PLACEMENT_3D('',#797,#658,#659);
#536=AXIS2_PLACEMENT_3D('',#798,#660,#661);
#537=AXIS2_PLACEMENT_3D('',#799,#662,#663);
#538=AXIS2_PLACEMENT_3D('',#800,#664,#665);
#539=AXIS2_PLACEMENT_3D('',#801,#666,#667);
#540=AXIS2_PLACEMENT_3D('',#802,#668,#669);
#541=AXIS2_PLACEMENT_3D('',#803,#670,#671);
#542=DIRECTION('',(0.,0.,1.));
#543=DIRECTION('',(1.,0.,0.));
#544=DIRECTION('',(-2.16840434497101E-16,-1.,0.));
#545=DIRECTION('',(1.,-2.16840434497101E-16,0.));
#546=DIRECTION('',(0.,-1.,0.));
#547=DIRECTION('',(0.,0.,1.));
#548=DIRECTION('',(0.,0.,1.));
#549=DIRECTION('',(1.,-2.16840434497101E-16,0.));
#550=DIRECTION('',(0.,0.,1.));
#551=DIRECTION('',(1.,-2.16840434497101E-16,0.));
#552=DIRECTION('',(0.,0.,1.));
#553=DIRECTION('',(0.,-1.,0.));
#554=DIRECTION('',(0.,0.,-1.));
#555=DIRECTION('',(0.,0.,1.));
#556=DIRECTION('',(0.,1.,0.));
#557=DIRECTION('',(0.,0.,1.));
#558=DIRECTION('',(0.,-1.,0.));
#559=DIRECTION('',(0.,0.,1.));
#560=DIRECTION('',(0.,-1.,0.));
#561=DIRECTION('',(0.,0.,-1.));
#562=DIRECTION('',(0.,-1.,0.));
#563=DIRECTION('',(0.,0.,-1.));
#564=DIRECTION('',(0.,-1.,0.));
#565=DIRECTION('',(0.,0.,-1.));
#566=DIRECTION('',(-1.,0.,0.));
#567=DIRECTION('',(0.,0.,1.));
#568=DIRECTION('',(-1.,0.,0.));
#569=DIRECTION('',(0.,0.,-1.));
#570=DIRECTION('',(-1.,0.,0.));
#571=DIRECTION('',(0.,0.,1.));
#572=DIRECTION('',(0.,1.38777878078145E-16,1.));
#573=DIRECTION('',(0.,-1.,0.));
#574=DIRECTION('',(0.,0.,1.));
#575=DIRECTION('',(0.,-1.,0.));
#576=DIRECTION('',(0.,1.38777878078145E-16,1.));
#577=DIRECTION('',(0.,1.38777878078145E-16,1.));
#578=DIRECTION('',(0.,1.38777878078145E-16,1.));
#579=DIRECTION('',(0.,1.38777878078145E-16,1.));
#580=DIRECTION('',(0.,1.,0.));
#581=DIRECTION('',(0.,0.,1.));
#582=DIRECTION('',(-1.,0.,0.));
#583=DIRECTION('',(-1.,0.,0.));
#584=DIRECTION('',(0.,0.,1.));
#585=DIRECTION('',(-1.,0.,0.));
#586=DIRECTION('',(0.,0.,1.));
#587=DIRECTION('',(0.,-1.,0.));
#588=DIRECTION('',(0.,-1.,0.));
#589=DIRECTION('',(0.,0.,1.));
#590=DIRECTION('',(0.,-1.,0.));
#591=DIRECTION('',(0.,0.,-1.));
#592=DIRECTION('',(1.,0.,0.));
#593=DIRECTION('',(1.,0.,0.));
#594=DIRECTION('',(0.,0.,1.));
#595=DIRECTION('',(1.,0.,0.));
#596=DIRECTION('',(0.,0.,-1.));
#597=DIRECTION('',(0.,1.,0.));
#598=DIRECTION('',(0.,1.,0.));
#599=DIRECTION('',(0.,0.,1.));
#600=DIRECTION('',(0.,1.,0.));
#601=DIRECTION('',(0.,0.,1.));
#602=DIRECTION('',(-1.,0.,0.));
#603=DIRECTION('',(-1.,0.,0.));
#604=DIRECTION('',(0.,0.,1.));
#605=DIRECTION('',(1.,0.,0.));
#606=DIRECTION('',(0.,0.,-1.));
#607=DIRECTION('',(0.,1.,0.));
#608=DIRECTION('',(0.,1.,0.));
#609=DIRECTION('',(-1.,-4.33680868994202E-16,0.));
#610=DIRECTION('',(4.33680868994202E-16,-1.,0.));
#611=DIRECTION('',(-1.,-4.33680868994202E-16,0.));
#612=DIRECTION('',(4.33680868994202E-16,-1.,0.));
#613=DIRECTION('',(4.33680868994202E-16,-1.,0.));
#614=DIRECTION('',(0.,0.,1.));
#615=DIRECTION('',(0.,0.,1.));
#616=DIRECTION('',(4.33680868994202E-16,-1.,0.));
#617=DIRECTION('',(0.,0.,1.));
#618=DIRECTION('',(0.,-1.,0.));
#619=DIRECTION('',(0.,0.,-1.));
#620=DIRECTION('',(1.,0.,0.));
#621=DIRECTION('',(1.,0.,0.));
#622=DIRECTION('',(0.,0.,1.));
#623=DIRECTION('',(1.,0.,0.));
#624=DIRECTION('',(0.,0.,-1.));
#625=DIRECTION('',(-1.,0.,0.));
#626=DIRECTION('',(0.,0.,-1.));
#627=DIRECTION('',(0.,1.,0.));
#628=DIRECTION('',(0.,1.,0.));
#629=DIRECTION('',(0.,0.,1.));
#630=DIRECTION('',(1.,0.,0.));
#631=DIRECTION('',(1.,0.,0.));
#632=DIRECTION('',(0.,-1.,0.));
#633=DIRECTION('',(0.,0.,1.));
#634=DIRECTION('',(1.,0.,0.));
#635=DIRECTION('',(0.,1.,0.));
#636=DIRECTION('',(1.,0.,0.));
#637=DIRECTION('',(0.,1.,-1.38777878078145E-16));
#638=DIRECTION('',(0.,1.38777878078145E-16,1.));
#639=DIRECTION('',(0.,-1.,0.));
#640=DIRECTION('',(0.,0.,-1.));
#641=DIRECTION('',(0.,-1.,0.));
#642=DIRECTION('',(0.,0.,-1.));
#643=DIRECTION('',(0.,1.38777878078145E-16,1.));
#644=DIRECTION('',(-1.,0.,0.));
#645=DIRECTION('',(0.,0.,1.));
#646=DIRECTION('',(0.,1.,0.));
#647=DIRECTION('',(0.,0.,1.));
#648=DIRECTION('',(0.,-1.,0.));
#649=DIRECTION('',(0.,0.,-1.));
#650=DIRECTION('',(0.,-1.,0.));
#651=DIRECTION('',(0.,0.,-1.));
#652=DIRECTION('',(0.,1.,0.));
#653=DIRECTION('',(0.,0.,1.));
#654=DIRECTION('',(0.,-1.,0.));
#655=DIRECTION('',(0.,0.,-1.));
#656=DIRECTION('',(0.,-1.,0.));
#657=DIRECTION('',(0.,0.,-1.));
#658=DIRECTION('',(0.,1.,0.));
#659=DIRECTION('',(0.,0.,1.));
#660=DIRECTION('',(0.,-1.,0.));
#661=DIRECTION('',(0.,0.,-1.));
#662=DIRECTION('',(0.,-1.,0.));
#663=DIRECTION('',(0.,0.,-1.));
#664=DIRECTION('',(0.,1.,0.));
#665=DIRECTION('',(0.,0.,1.));
#666=DIRECTION('',(0.,-1.,0.));
#667=DIRECTION('',(0.,0.,1.));
#668=DIRECTION('',(0.,-1.,0.));
#669=DIRECTION('',(0.,0.,-1.));
#670=DIRECTION('',(1.,0.,0.));
#671=DIRECTION('',(0.,0.,-1.));
#672=CARTESIAN_POINT('',(0.,0.,0.));
#673=CARTESIAN_POINT('',(12.,12.,-40.));
#674=CARTESIAN_POINT('',(19.,12.,-8.));
#675=CARTESIAN_POINT('',(20.,12.,-5.17157287525381));
#676=CARTESIAN_POINT('',(20.,12.,-10.8284271247462));
#677=CARTESIAN_POINT('',(20.,12.,-40.));
#678=CARTESIAN_POINT('',(20.,12.,0.));
#679=CARTESIAN_POINT('',(12.,12.,0.));
#680=CARTESIAN_POINT('',(12.,12.,0.));
#681=CARTESIAN_POINT('',(12.,12.,-40.));
#682=CARTESIAN_POINT('',(12.,12.,-50.));
#683=CARTESIAN_POINT('',(12.,12.,-50.));
#684=CARTESIAN_POINT('',(20.,12.,-50.));
#685=CARTESIAN_POINT('',(20.,12.,-40.));
#686=CARTESIAN_POINT('',(20.,12.,-29.3284271247462));
#687=CARTESIAN_POINT('',(19.,12.,-26.5));
#688=CARTESIAN_POINT('',(20.,12.,-23.6715728752538));
#689=CARTESIAN_POINT('',(20.,12.,-40.));
#690=CARTESIAN_POINT('',(26.,16.,-40.));
#691=CARTESIAN_POINT('',(19.,16.,-8.));
#692=CARTESIAN_POINT('',(19.,16.,-5.));
#693=CARTESIAN_POINT('',(19.,16.,-26.5));
#694=CARTESIAN_POINT('',(19.,16.,-29.5));
#695=CARTESIAN_POINT('',(3.00000000000001,16.,-26.5));
#696=CARTESIAN_POINT('',(3.00000000000001,16.,-29.5));
#697=CARTESIAN_POINT('',(3.00000000000001,16.,-8.));
#698=CARTESIAN_POINT('',(3.00000000000001,16.,-11.));
#699=CARTESIAN_POINT('',(26.,16.,0.));
#700=CARTESIAN_POINT('',(26.,16.,0.));
#701=CARTESIAN_POINT('',(-3.99999999999999,16.,0.));
#702=CARTESIAN_POINT('',(26.,16.,-40.));
#703=CARTESIAN_POINT('',(26.,16.,-50.));
#704=CARTESIAN_POINT('',(26.,16.,-50.));
#705=CARTESIAN_POINT('',(-3.99999999999999,16.,-50.));
#706=CARTESIAN_POINT('',(-3.99999999999999,16.,-50.));
#707=CARTESIAN_POINT('',(4.00000000000001,16.,-40.));
#708=CARTESIAN_POINT('',(4.00000000000001,12.,0.));
#709=CARTESIAN_POINT('',(4.00000000000001,12.,-50.));
#710=CARTESIAN_POINT('',(4.00000000000001,12.,-29.3284271247462));
#711=CARTESIAN_POINT('',(4.00000000000001,16.,-50.));
#712=CARTESIAN_POINT('',(4.00000000000001,8.,-50.));
#713=CARTESIAN_POINT('',(4.00000000000001,8.,-40.));
#714=CARTESIAN_POINT('',(4.00000000000001,8.,0.));
#715=CARTESIAN_POINT('',(4.00000000000001,16.,0.));
#716=CARTESIAN_POINT('',(4.00000000000001,12.,0.));
#717=CARTESIAN_POINT('',(4.00000000000001,12.,0.));
#718=CARTESIAN_POINT('',(4.00000000000001,12.,-5.17157287525381));
#719=CARTESIAN_POINT('',(4.00000000000001,12.,0.));
#720=CARTESIAN_POINT('',(4.00000000000001,12.,-10.8284271247462));
#721=CARTESIAN_POINT('',(4.00000000000001,12.,0.));
#722=CARTESIAN_POINT('',(4.00000000000001,12.,-23.6715728752538));
#723=CARTESIAN_POINT('',(4.00000000000001,12.,0.));
#724=CARTESIAN_POINT('',(4.00000000000001,8.,-40.));
#725=CARTESIAN_POINT('',(4.00000000000001,8.,0.));
#726=CARTESIAN_POINT('',(0.,8.,0.));
#727=CARTESIAN_POINT('',(4.00000000000001,8.,-50.));
#728=CARTESIAN_POINT('',(0.,8.,-50.));
#729=CARTESIAN_POINT('',(0.,8.,-40.));
#730=CARTESIAN_POINT('',(0.,8.,-40.));
#731=CARTESIAN_POINT('',(0.,8.,0.));
#732=CARTESIAN_POINT('',(0.,0.,0.));
#733=CARTESIAN_POINT('',(0.,8.,-50.));
#734=CARTESIAN_POINT('',(0.,0.,-50.));
#735=CARTESIAN_POINT('',(0.,0.,-40.));
#736=CARTESIAN_POINT('',(0.,0.,-40.));
#737=CARTESIAN_POINT('',(0.,0.,0.));
#738=CARTESIAN_POINT('',(16.,0.,0.));
#739=CARTESIAN_POINT('',(0.,0.,-50.));
#740=CARTESIAN_POINT('',(16.,0.,-50.));
#741=CARTESIAN_POINT('',(16.,0.,-40.));
#742=CARTESIAN_POINT('',(16.,0.,-40.));
#743=CARTESIAN_POINT('',(16.,0.,0.));
#744=CARTESIAN_POINT('',(16.,8.,0.));
#745=CARTESIAN_POINT('',(16.,0.,-50.));
#746=CARTESIAN_POINT('',(16.,8.,-50.));
#747=CARTESIAN_POINT('',(16.,8.,-40.));
#748=CARTESIAN_POINT('',(16.,8.,-40.));
#749=CARTESIAN_POINT('',(16.,8.,0.));
#750=CARTESIAN_POINT('',(12.,8.,0.));
#751=CARTESIAN_POINT('',(16.,8.,-50.));
#752=CARTESIAN_POINT('',(12.,8.,-50.));
#753=CARTESIAN_POINT('',(12.,8.,-40.));
#754=CARTESIAN_POINT('',(12.,8.,-40.));
#755=CARTESIAN_POINT('',(12.,8.,0.));
#756=CARTESIAN_POINT('',(12.,8.,-50.));
#757=CARTESIAN_POINT('',(20.,12.,-40.));
#758=CARTESIAN_POINT('',(20.,6.06660807520635,-38.25));
#759=CARTESIAN_POINT('',(20.,3.56660807520635,-38.25));
#760=CARTESIAN_POINT('',(20.,12.,0.));
#761=CARTESIAN_POINT('',(20.,-4.,0.));
#762=CARTESIAN_POINT('',(20.,12.,-40.));
#763=CARTESIAN_POINT('',(20.,12.,-40.));
#764=CARTESIAN_POINT('',(20.,12.,-50.));
#765=CARTESIAN_POINT('',(20.,-4.,-50.));
#766=CARTESIAN_POINT('',(20.,-4.,-40.));
#767=CARTESIAN_POINT('',(20.,-4.,-40.));
#768=CARTESIAN_POINT('',(20.,-4.,0.));
#769=CARTESIAN_POINT('',(26.,-4.,0.));
#770=CARTESIAN_POINT('',(20.,-4.,-50.));
#771=CARTESIAN_POINT('',(26.,-4.,-50.));
#772=CARTESIAN_POINT('',(26.,-4.,-40.));
#773=CARTESIAN_POINT('',(26.,-4.,-40.));
#774=CARTESIAN_POINT('',(26.,6.06660807520635,-38.25));
#775=CARTESIAN_POINT('',(26.,6.06660807520635,-40.75));
#776=CARTESIAN_POINT('',(26.,-4.,0.));
#777=CARTESIAN_POINT('',(26.,-4.,-50.));
#778=CARTESIAN_POINT('',(0.,0.,-50.));
#779=CARTESIAN_POINT('',(-3.99999999999999,12.,-50.));
#780=CARTESIAN_POINT('',(-3.99999999999999,12.,-50.));
#781=CARTESIAN_POINT('',(-3.99999999999999,16.,-50.));
#782=CARTESIAN_POINT('',(0.,0.,0.));
#783=CARTESIAN_POINT('',(-3.99999999999999,16.,0.));
#784=CARTESIAN_POINT('',(-3.99999999999999,12.,0.));
#785=CARTESIAN_POINT('',(-3.99999999999999,12.,0.));
#786=CARTESIAN_POINT('',(-3.99999999999999,12.,0.));
#787=CARTESIAN_POINT('',(3.00000000000001,12.,-26.5));
#788=CARTESIAN_POINT('',(3.00000000000001,12.,-8.));
#789=CARTESIAN_POINT('',(-3.99999999999999,12.,0.));
#790=CARTESIAN_POINT('',(-3.99999999999999,0.,0.));
#791=CARTESIAN_POINT('',(3.00000000000001,12.,-8.));
#792=CARTESIAN_POINT('',(3.00000000000001,12.,-8.));
#793=CARTESIAN_POINT('',(3.00000000000001,12.,-8.));
#794=CARTESIAN_POINT('',(3.00000000000001,12.,-26.5));
#795=CARTESIAN_POINT('',(3.00000000000001,12.,-26.5));
#796=CARTESIAN_POINT('',(3.00000000000001,12.,-26.5));
#797=CARTESIAN_POINT('',(19.,12.,-26.5));
#798=CARTESIAN_POINT('',(19.,12.,-26.5));
#799=CARTESIAN_POINT('',(19.,12.,-26.5));
#800=CARTESIAN_POINT('',(19.,12.,-8.));
#801=CARTESIAN_POINT('',(19.,12.,-8.));
#802=CARTESIAN_POINT('',(19.,12.,-8.));
#803=CARTESIAN_POINT('',(17.7752792809798,6.06660807520635,-38.25));
#804=MECHANICAL_DESIGN_GEOMETRIC_PRESENTATION_REPRESENTATION('',(#491),
#805);
#805=(
GEOMETRIC_REPRESENTATION_CONTEXT(3)
GLOBAL_UNCERTAINTY_ASSIGNED_CONTEXT((#806))
GLOBAL_UNIT_ASSIGNED_CONTEXT((#809,#808,#807))
REPRESENTATION_CONTEXT('ª¨LY˘','TOP_LEVEL_ASSEMBLY_PART')
);
#806=UNCERTAINTY_MEASURE_WITH_UNIT(LENGTH_MEASURE(0.005),#809,
'DISTANCE_ACCURACY_VALUE','Maximum Tolerance applied to model');
#807=(
NAMED_UNIT(*)
SI_UNIT($,.STERADIAN.)
SOLID_ANGLE_UNIT()
);
#808=(
NAMED_UNIT(*)
PLANE_ANGLE_UNIT()
SI_UNIT($,.RADIAN.)
);
#809=(
LENGTH_UNIT()
NAMED_UNIT(*)
SI_UNIT(.MILLI.,.METRE.)
);
#810=PRODUCT_DEFINITION_SHAPE('','',#811);
#811=PRODUCT_DEFINITION('','',#813,#812);
#812=PRODUCT_DEFINITION_CONTEXT('',#819,'design');
#813=PRODUCT_DEFINITION_FORMATION_WITH_SPECIFIED_SOURCE('','',#815,
 .NOT_KNOWN.);
#814=PRODUCT_RELATED_PRODUCT_CATEGORY('','',(#815));
#815=PRODUCT('ª¨LY˘','ª¨LY˘','ª¨LY˘',(#817));
#816=PRODUCT_CATEGORY('','');
#817=PRODUCT_CONTEXT('',#819,'mechanical');
#818=APPLICATION_PROTOCOL_DEFINITION('international standard',
'automotive_design',2010,#819);
#819=APPLICATION_CONTEXT(
'core data for automotive mechanical design processes');
ENDSEC;
END-ISO-10303-21;
