ISO-10303-21;
HEADER;
/* Generated by software containing ST-Developer
 * from STEP Tools, Inc. (www.steptools.com) 
 */
/* OPTION: strings as raw bytes, not using required /X/ escapes */

FILE_DESCRIPTION(
/* description */ ('Unknown'),
/* implementation_level */ '2;1');

FILE_NAME(
/* name */ 'è§¦ç¢°å¼€å…³ç›’',
/* time_stamp */ '2024-10-29T11:35:46+08:00',
/* author */ ('Unknown'),
/* organization */ ('Unknown'),
/* preprocessor_version */ 'ST-DEVELOPER v16.7',
/* originating_system */ 'Solid Edge',
/* authorisation */ 'Unknown');

FILE_SCHEMA (('AUTOMOTIVE_DESIGN {1 0 10303 214 3 1 1}'));
ENDSEC;

DATA;
#10=PROPERTY_DEFINITION_REPRESENTATION(#14,#12);
#11=PROPERTY_DEFINITION_REPRESENTATION(#15,#13);
#12=REPRESENTATION('',(#16),#457);
#13=REPRESENTATION('',(#17),#457);
#14=PROPERTY_DEFINITION('pmi validation property','',#462);
#15=PROPERTY_DEFINITION('pmi validation property','',#462);
#16=VALUE_REPRESENTATION_ITEM('number of annotations',COUNT_MEASURE(0.));
#17=VALUE_REPRESENTATION_ITEM('number of views',COUNT_MEASURE(0.));
#18=SHAPE_REPRESENTATION_RELATIONSHIP('','',#285,#19);
#19=ADVANCED_BREP_SHAPE_REPRESENTATION('',(#283),#457);
#20=CYLINDRICAL_SURFACE('',#302,3.);
#21=CYLINDRICAL_SURFACE('',#303,3.);
#22=CYLINDRICAL_SURFACE('',#304,3.);
#23=CYLINDRICAL_SURFACE('',#305,3.);
#24=CYLINDRICAL_SURFACE('',#310,5.);
#25=CIRCLE('',#292,5.);
#26=CIRCLE('',#293,3.);
#27=CIRCLE('',#294,3.);
#28=CIRCLE('',#295,3.);
#29=CIRCLE('',#296,3.);
#30=CIRCLE('',#298,3.);
#31=CIRCLE('',#299,3.);
#32=CIRCLE('',#300,3.);
#33=CIRCLE('',#301,3.);
#34=CIRCLE('',#311,5.);
#35=ORIENTED_EDGE('',*,*,#95,.F.);
#36=ORIENTED_EDGE('',*,*,#96,.T.);
#37=ORIENTED_EDGE('',*,*,#97,.T.);
#38=ORIENTED_EDGE('',*,*,#98,.F.);
#39=ORIENTED_EDGE('',*,*,#97,.F.);
#40=ORIENTED_EDGE('',*,*,#99,.T.);
#41=ORIENTED_EDGE('',*,*,#100,.T.);
#42=ORIENTED_EDGE('',*,*,#101,.F.);
#43=ORIENTED_EDGE('',*,*,#100,.F.);
#44=ORIENTED_EDGE('',*,*,#102,.T.);
#45=ORIENTED_EDGE('',*,*,#103,.T.);
#46=ORIENTED_EDGE('',*,*,#104,.F.);
#47=ORIENTED_EDGE('',*,*,#103,.F.);
#48=ORIENTED_EDGE('',*,*,#105,.T.);
#49=ORIENTED_EDGE('',*,*,#95,.T.);
#50=ORIENTED_EDGE('',*,*,#106,.F.);
#51=ORIENTED_EDGE('',*,*,#107,.T.);
#52=ORIENTED_EDGE('',*,*,#108,.T.);
#53=ORIENTED_EDGE('',*,*,#109,.T.);
#54=ORIENTED_EDGE('',*,*,#110,.T.);
#55=ORIENTED_EDGE('',*,*,#111,.T.);
#56=ORIENTED_EDGE('',*,*,#112,.T.);
#57=ORIENTED_EDGE('',*,*,#113,.T.);
#58=ORIENTED_EDGE('',*,*,#114,.T.);
#59=ORIENTED_EDGE('',*,*,#115,.T.);
#60=ORIENTED_EDGE('',*,*,#116,.T.);
#61=ORIENTED_EDGE('',*,*,#117,.T.);
#62=ORIENTED_EDGE('',*,*,#118,.T.);
#63=ORIENTED_EDGE('',*,*,#119,.T.);
#64=ORIENTED_EDGE('',*,*,#98,.T.);
#65=ORIENTED_EDGE('',*,*,#101,.T.);
#66=ORIENTED_EDGE('',*,*,#104,.T.);
#67=ORIENTED_EDGE('',*,*,#106,.T.);
#68=ORIENTED_EDGE('',*,*,#119,.F.);
#69=ORIENTED_EDGE('',*,*,#115,.F.);
#70=ORIENTED_EDGE('',*,*,#118,.F.);
#71=ORIENTED_EDGE('',*,*,#114,.F.);
#72=ORIENTED_EDGE('',*,*,#117,.F.);
#73=ORIENTED_EDGE('',*,*,#113,.F.);
#74=ORIENTED_EDGE('',*,*,#116,.F.);
#75=ORIENTED_EDGE('',*,*,#112,.F.);
#76=ORIENTED_EDGE('',*,*,#120,.F.);
#77=ORIENTED_EDGE('',*,*,#111,.F.);
#78=ORIENTED_EDGE('',*,*,#121,.F.);
#79=ORIENTED_EDGE('',*,*,#99,.F.);
#80=ORIENTED_EDGE('',*,*,#121,.T.);
#81=ORIENTED_EDGE('',*,*,#110,.F.);
#82=ORIENTED_EDGE('',*,*,#122,.F.);
#83=ORIENTED_EDGE('',*,*,#102,.F.);
#84=ORIENTED_EDGE('',*,*,#120,.T.);
#85=ORIENTED_EDGE('',*,*,#96,.F.);
#86=ORIENTED_EDGE('',*,*,#123,.F.);
#87=ORIENTED_EDGE('',*,*,#108,.F.);
#88=ORIENTED_EDGE('',*,*,#122,.T.);
#89=ORIENTED_EDGE('',*,*,#109,.F.);
#90=ORIENTED_EDGE('',*,*,#123,.T.);
#91=ORIENTED_EDGE('',*,*,#105,.F.);
#92=ORIENTED_EDGE('',*,*,#124,.T.);
#93=ORIENTED_EDGE('',*,*,#107,.F.);
#94=ORIENTED_EDGE('',*,*,#124,.F.);
#95=EDGE_CURVE('',#125,#126,#147,.T.);
#96=EDGE_CURVE('',#125,#127,#148,.T.);
#97=EDGE_CURVE('',#127,#128,#149,.T.);
#98=EDGE_CURVE('',#126,#128,#150,.T.);
#99=EDGE_CURVE('',#127,#129,#151,.T.);
#100=EDGE_CURVE('',#129,#130,#152,.T.);
#101=EDGE_CURVE('',#128,#130,#153,.T.);
#102=EDGE_CURVE('',#129,#131,#154,.T.);
#103=EDGE_CURVE('',#131,#132,#155,.T.);
#104=EDGE_CURVE('',#130,#132,#156,.T.);
#105=EDGE_CURVE('',#131,#125,#157,.T.);
#106=EDGE_CURVE('',#132,#126,#158,.T.);
#107=EDGE_CURVE('',#133,#133,#25,.T.);
#108=EDGE_CURVE('',#134,#135,#159,.T.);
#109=EDGE_CURVE('',#135,#136,#160,.T.);
#110=EDGE_CURVE('',#136,#137,#161,.T.);
#111=EDGE_CURVE('',#137,#134,#162,.T.);
#112=EDGE_CURVE('',#138,#138,#26,.T.);
#113=EDGE_CURVE('',#139,#139,#27,.T.);
#114=EDGE_CURVE('',#140,#140,#28,.T.);
#115=EDGE_CURVE('',#141,#141,#29,.T.);
#116=EDGE_CURVE('',#142,#142,#30,.F.);
#117=EDGE_CURVE('',#143,#143,#31,.F.);
#118=EDGE_CURVE('',#144,#144,#32,.F.);
#119=EDGE_CURVE('',#145,#145,#33,.F.);
#120=EDGE_CURVE('',#134,#127,#163,.T.);
#121=EDGE_CURVE('',#129,#137,#164,.F.);
#122=EDGE_CURVE('',#131,#136,#165,.F.);
#123=EDGE_CURVE('',#135,#125,#166,.F.);
#124=EDGE_CURVE('',#146,#146,#34,.T.);
#125=VERTEX_POINT('',#390);
#126=VERTEX_POINT('',#391);
#127=VERTEX_POINT('',#393);
#128=VERTEX_POINT('',#395);
#129=VERTEX_POINT('',#399);
#130=VERTEX_POINT('',#401);
#131=VERTEX_POINT('',#405);
#132=VERTEX_POINT('',#407);
#133=VERTEX_POINT('',#414);
#134=VERTEX_POINT('',#416);
#135=VERTEX_POINT('',#417);
#136=VERTEX_POINT('',#419);
#137=VERTEX_POINT('',#421);
#138=VERTEX_POINT('',#424);
#139=VERTEX_POINT('',#426);
#140=VERTEX_POINT('',#428);
#141=VERTEX_POINT('',#430);
#142=VERTEX_POINT('',#433);
#143=VERTEX_POINT('',#435);
#144=VERTEX_POINT('',#437);
#145=VERTEX_POINT('',#439);
#146=VERTEX_POINT('',#454);
#147=LINE('',#389,#167);
#148=LINE('',#392,#168);
#149=LINE('',#394,#169);
#150=LINE('',#396,#170);
#151=LINE('',#398,#171);
#152=LINE('',#400,#172);
#153=LINE('',#402,#173);
#154=LINE('',#404,#174);
#155=LINE('',#406,#175);
#156=LINE('',#408,#176);
#157=LINE('',#410,#177);
#158=LINE('',#411,#178);
#159=LINE('',#415,#179);
#160=LINE('',#418,#180);
#161=LINE('',#420,#181);
#162=LINE('',#422,#182);
#163=LINE('',#445,#183);
#164=LINE('',#446,#184);
#165=LINE('',#448,#185);
#166=LINE('',#450,#186);
#167=VECTOR('',#317,1000.);
#168=VECTOR('',#318,1000.);
#169=VECTOR('',#319,1000.);
#170=VECTOR('',#320,1000.);
#171=VECTOR('',#323,1000.);
#172=VECTOR('',#324,1000.);
#173=VECTOR('',#325,1000.);
#174=VECTOR('',#328,1000.);
#175=VECTOR('',#329,1000.);
#176=VECTOR('',#330,1000.);
#177=VECTOR('',#333,1000.);
#178=VECTOR('',#334,1000.);
#179=VECTOR('',#339,1000.);
#180=VECTOR('',#340,1000.);
#181=VECTOR('',#341,1000.);
#182=VECTOR('',#342,1000.);
#183=VECTOR('',#371,1000.);
#184=VECTOR('',#372,1000.);
#185=VECTOR('',#375,1000.);
#186=VECTOR('',#378,1000.);
#187=EDGE_LOOP('',(#35,#36,#37,#38));
#188=EDGE_LOOP('',(#39,#40,#41,#42));
#189=EDGE_LOOP('',(#43,#44,#45,#46));
#190=EDGE_LOOP('',(#47,#48,#49,#50));
#191=EDGE_LOOP('',(#51));
#192=EDGE_LOOP('',(#52,#53,#54,#55));
#193=EDGE_LOOP('',(#56));
#194=EDGE_LOOP('',(#57));
#195=EDGE_LOOP('',(#58));
#196=EDGE_LOOP('',(#59));
#197=EDGE_LOOP('',(#60));
#198=EDGE_LOOP('',(#61));
#199=EDGE_LOOP('',(#62));
#200=EDGE_LOOP('',(#63));
#201=EDGE_LOOP('',(#64,#65,#66,#67));
#202=EDGE_LOOP('',(#68));
#203=EDGE_LOOP('',(#69));
#204=EDGE_LOOP('',(#70));
#205=EDGE_LOOP('',(#71));
#206=EDGE_LOOP('',(#72));
#207=EDGE_LOOP('',(#73));
#208=EDGE_LOOP('',(#74));
#209=EDGE_LOOP('',(#75));
#210=EDGE_LOOP('',(#76,#77,#78,#79));
#211=EDGE_LOOP('',(#80,#81,#82,#83));
#212=EDGE_LOOP('',(#84,#85,#86,#87));
#213=EDGE_LOOP('',(#88,#89,#90,#91));
#214=EDGE_LOOP('',(#92));
#215=EDGE_LOOP('',(#93));
#216=EDGE_LOOP('',(#94));
#217=FACE_BOUND('',#187,.T.);
#218=FACE_BOUND('',#188,.T.);
#219=FACE_BOUND('',#189,.T.);
#220=FACE_BOUND('',#190,.T.);
#221=FACE_BOUND('',#191,.T.);
#222=FACE_BOUND('',#192,.T.);
#223=FACE_BOUND('',#193,.T.);
#224=FACE_BOUND('',#194,.T.);
#225=FACE_BOUND('',#195,.T.);
#226=FACE_BOUND('',#196,.T.);
#227=FACE_BOUND('',#197,.T.);
#228=FACE_BOUND('',#198,.T.);
#229=FACE_BOUND('',#199,.T.);
#230=FACE_BOUND('',#200,.T.);
#231=FACE_BOUND('',#201,.T.);
#232=FACE_BOUND('',#202,.T.);
#233=FACE_BOUND('',#203,.T.);
#234=FACE_BOUND('',#204,.T.);
#235=FACE_BOUND('',#205,.T.);
#236=FACE_BOUND('',#206,.T.);
#237=FACE_BOUND('',#207,.T.);
#238=FACE_BOUND('',#208,.T.);
#239=FACE_BOUND('',#209,.T.);
#240=FACE_BOUND('',#210,.T.);
#241=FACE_BOUND('',#211,.T.);
#242=FACE_BOUND('',#212,.T.);
#243=FACE_BOUND('',#213,.T.);
#244=FACE_BOUND('',#214,.T.);
#245=FACE_BOUND('',#215,.T.);
#246=FACE_BOUND('',#216,.T.);
#247=PLANE('',#287);
#248=PLANE('',#288);
#249=PLANE('',#289);
#250=PLANE('',#290);
#251=PLANE('',#291);
#252=PLANE('',#297);
#253=PLANE('',#306);
#254=PLANE('',#307);
#255=PLANE('',#308);
#256=PLANE('',#309);
#257=PLANE('',#312);
#258=ADVANCED_FACE('',(#217),#247,.T.);
#259=ADVANCED_FACE('',(#218),#248,.T.);
#260=ADVANCED_FACE('',(#219),#249,.T.);
#261=ADVANCED_FACE('',(#220),#250,.T.);
#262=ADVANCED_FACE('',(#221,#222,#223,#224,#225,#226),#251,.F.);
#263=ADVANCED_FACE('',(#227,#228,#229,#230,#231),#252,.T.);
#264=ADVANCED_FACE('',(#232,#233),#20,.F.);
#265=ADVANCED_FACE('',(#234,#235),#21,.F.);
#266=ADVANCED_FACE('',(#236,#237),#22,.F.);
#267=ADVANCED_FACE('',(#238,#239),#23,.F.);
#268=ADVANCED_FACE('',(#240),#253,.T.);
#269=ADVANCED_FACE('',(#241),#254,.T.);
#270=ADVANCED_FACE('',(#242),#255,.T.);
#271=ADVANCED_FACE('',(#243),#256,.T.);
#272=ADVANCED_FACE('',(#244,#245),#24,.F.);
#273=ADVANCED_FACE('',(#246),#257,.F.);
#274=CLOSED_SHELL('',(#258,#259,#260,#261,#262,#263,#264,#265,#266,#267,
#268,#269,#270,#271,#272,#273));
#275=STYLED_ITEM('',(#276),#283);
#276=PRESENTATION_STYLE_ASSIGNMENT((#277));
#277=SURFACE_STYLE_USAGE(.BOTH.,#278);
#278=SURFACE_SIDE_STYLE('',(#279));
#279=SURFACE_STYLE_FILL_AREA(#280);
#280=FILL_AREA_STYLE('',(#281));
#281=FILL_AREA_STYLE_COLOUR('',#282);
#282=COLOUR_RGB('',0.506983280181885,0.531564235687256,0.550000011920929);
#283=MANIFOLD_SOLID_BREP('',#274);
#284=SHAPE_DEFINITION_REPRESENTATION(#462,#285);
#285=SHAPE_REPRESENTATION('´¥Åö¿ª',(#286),#457);
#286=AXIS2_PLACEMENT_3D('',#387,#313,#314);
#287=AXIS2_PLACEMENT_3D('',#388,#315,#316);
#288=AXIS2_PLACEMENT_3D('',#397,#321,#322);
#289=AXIS2_PLACEMENT_3D('',#403,#326,#327);
#290=AXIS2_PLACEMENT_3D('',#409,#331,#332);
#291=AXIS2_PLACEMENT_3D('',#412,#335,#336);
#292=AXIS2_PLACEMENT_3D('',#413,#337,#338);
#293=AXIS2_PLACEMENT_3D('',#423,#343,#344);
#294=AXIS2_PLACEMENT_3D('',#425,#345,#346);
#295=AXIS2_PLACEMENT_3D('',#427,#347,#348);
#296=AXIS2_PLACEMENT_3D('',#429,#349,#350);
#297=AXIS2_PLACEMENT_3D('',#431,#351,#352);
#298=AXIS2_PLACEMENT_3D('',#432,#353,#354);
#299=AXIS2_PLACEMENT_3D('',#434,#355,#356);
#300=AXIS2_PLACEMENT_3D('',#436,#357,#358);
#301=AXIS2_PLACEMENT_3D('',#438,#359,#360);
#302=AXIS2_PLACEMENT_3D('',#440,#361,#362);
#303=AXIS2_PLACEMENT_3D('',#441,#363,#364);
#304=AXIS2_PLACEMENT_3D('',#442,#365,#366);
#305=AXIS2_PLACEMENT_3D('',#443,#367,#368);
#306=AXIS2_PLACEMENT_3D('',#444,#369,#370);
#307=AXIS2_PLACEMENT_3D('',#447,#373,#374);
#308=AXIS2_PLACEMENT_3D('',#449,#376,#377);
#309=AXIS2_PLACEMENT_3D('',#451,#379,#380);
#310=AXIS2_PLACEMENT_3D('',#452,#381,#382);
#311=AXIS2_PLACEMENT_3D('',#453,#383,#384);
#312=AXIS2_PLACEMENT_3D('',#455,#385,#386);
#313=DIRECTION('',(0.,0.,1.));
#314=DIRECTION('',(1.,0.,0.));
#315=DIRECTION('',(0.,-1.,0.));
#316=DIRECTION('',(0.,0.,-1.));
#317=DIRECTION('',(0.,0.,1.));
#318=DIRECTION('',(1.,0.,0.));
#319=DIRECTION('',(0.,0.,1.));
#320=DIRECTION('',(1.,0.,0.));
#321=DIRECTION('',(1.,0.,0.));
#322=DIRECTION('',(0.,0.,-1.));
#323=DIRECTION('',(0.,1.,0.));
#324=DIRECTION('',(0.,0.,1.));
#325=DIRECTION('',(0.,1.,0.));
#326=DIRECTION('',(0.,1.,0.));
#327=DIRECTION('',(0.,0.,1.));
#328=DIRECTION('',(-1.,0.,0.));
#329=DIRECTION('',(0.,0.,1.));
#330=DIRECTION('',(-1.,0.,0.));
#331=DIRECTION('',(-1.,0.,0.));
#332=DIRECTION('',(0.,0.,1.));
#333=DIRECTION('',(0.,-1.,0.));
#334=DIRECTION('',(0.,-1.,0.));
#335=DIRECTION('',(0.,0.,1.));
#336=DIRECTION('',(1.,0.,0.));
#337=DIRECTION('',(0.,0.,1.));
#338=DIRECTION('',(1.,0.,0.));
#339=DIRECTION('',(-1.,0.,0.));
#340=DIRECTION('',(0.,1.,0.));
#341=DIRECTION('',(1.,0.,0.));
#342=DIRECTION('',(0.,-1.,0.));
#343=DIRECTION('',(0.,0.,1.));
#344=DIRECTION('',(1.,0.,0.));
#345=DIRECTION('',(0.,0.,1.));
#346=DIRECTION('',(1.,0.,0.));
#347=DIRECTION('',(0.,0.,1.));
#348=DIRECTION('',(1.,0.,0.));
#349=DIRECTION('',(0.,0.,1.));
#350=DIRECTION('',(1.,0.,0.));
#351=DIRECTION('',(0.,0.,1.));
#352=DIRECTION('',(1.,0.,0.));
#353=DIRECTION('',(0.,0.,1.));
#354=DIRECTION('',(1.,0.,0.));
#355=DIRECTION('',(0.,0.,1.));
#356=DIRECTION('',(1.,0.,0.));
#357=DIRECTION('',(0.,0.,1.));
#358=DIRECTION('',(1.,0.,0.));
#359=DIRECTION('',(0.,0.,1.));
#360=DIRECTION('',(1.,0.,0.));
#361=DIRECTION('',(0.,0.,-1.));
#362=DIRECTION('',(-1.,0.,0.));
#363=DIRECTION('',(0.,0.,-1.));
#364=DIRECTION('',(-1.,0.,0.));
#365=DIRECTION('',(0.,0.,-1.));
#366=DIRECTION('',(-1.,0.,0.));
#367=DIRECTION('',(0.,0.,-1.));
#368=DIRECTION('',(-1.,0.,0.));
#369=DIRECTION('',(0.707106781186547,0.,-0.707106781186547));
#370=DIRECTION('',(0.,-1.,0.));
#371=DIRECTION('',(0.577350269189626,-0.577350269189626,0.577350269189626));
#372=DIRECTION('',(0.577350269189626,0.577350269189626,0.577350269189626));
#373=DIRECTION('',(0.,0.707106781186547,-0.707106781186547));
#374=DIRECTION('',(1.,0.,0.));
#375=DIRECTION('',(-0.577350269189626,0.577350269189626,0.577350269189626));
#376=DIRECTION('',(0.,-0.707106781186547,-0.707106781186547));
#377=DIRECTION('',(-1.,0.,0.));
#378=DIRECTION('',(0.577350269189626,0.577350269189626,-0.577350269189626));
#379=DIRECTION('',(-0.707106781186547,0.,-0.707106781186547));
#380=DIRECTION('',(0.,1.,0.));
#381=DIRECTION('',(0.,0.,-1.));
#382=DIRECTION('',(-1.,0.,0.));
#383=DIRECTION('',(0.,0.,1.));
#384=DIRECTION('',(1.,0.,0.));
#385=DIRECTION('',(0.,0.,1.));
#386=DIRECTION('',(1.,0.,0.));
#387=CARTESIAN_POINT('',(0.,0.,0.));
#388=CARTESIAN_POINT('',(-37.,-15.,-20.));
#389=CARTESIAN_POINT('',(-37.,-15.,-20.));
#390=CARTESIAN_POINT('',(-37.,-15.,-19.));
#391=CARTESIAN_POINT('',(-37.,-15.,0.));
#392=CARTESIAN_POINT('',(37.,-15.,-19.));
#393=CARTESIAN_POINT('',(37.,-15.,-19.));
#394=CARTESIAN_POINT('',(37.,-15.,-20.));
#395=CARTESIAN_POINT('',(37.,-15.,0.));
#396=CARTESIAN_POINT('',(-37.,-15.,0.));
#397=CARTESIAN_POINT('',(37.,-15.,-20.));
#398=CARTESIAN_POINT('',(37.,15.,-19.));
#399=CARTESIAN_POINT('',(37.,15.,-19.));
#400=CARTESIAN_POINT('',(37.,15.,-20.));
#401=CARTESIAN_POINT('',(37.,15.,0.));
#402=CARTESIAN_POINT('',(37.,-15.,0.));
#403=CARTESIAN_POINT('',(37.,15.,-20.));
#404=CARTESIAN_POINT('',(-37.,15.,-19.));
#405=CARTESIAN_POINT('',(-37.,15.,-19.));
#406=CARTESIAN_POINT('',(-37.,15.,-20.));
#407=CARTESIAN_POINT('',(-37.,15.,0.));
#408=CARTESIAN_POINT('',(37.,15.,0.));
#409=CARTESIAN_POINT('',(-37.,15.,-20.));
#410=CARTESIAN_POINT('',(-37.,-15.,-19.));
#411=CARTESIAN_POINT('',(-37.,15.,0.));
#412=CARTESIAN_POINT('',(0.,0.,-20.));
#413=CARTESIAN_POINT('',(21.,1.21972744404619E-15,-20.));
#414=CARTESIAN_POINT('',(26.,1.21972744404619E-15,-20.));
#415=CARTESIAN_POINT('',(-37.,-14.,-20.));
#416=CARTESIAN_POINT('',(36.,-14.,-20.));
#417=CARTESIAN_POINT('',(-36.,-14.,-20.));
#418=CARTESIAN_POINT('',(-36.,15.,-20.));
#419=CARTESIAN_POINT('',(-36.,14.,-20.));
#420=CARTESIAN_POINT('',(37.,14.,-20.));
#421=CARTESIAN_POINT('',(36.,14.,-20.));
#422=CARTESIAN_POINT('',(36.,-15.,-20.));
#423=CARTESIAN_POINT('',(31.,10.5,-20.));
#424=CARTESIAN_POINT('',(34.,10.5,-20.));
#425=CARTESIAN_POINT('',(31.,-10.5,-20.));
#426=CARTESIAN_POINT('',(34.,-10.5,-20.));
#427=CARTESIAN_POINT('',(-31.,10.5,-20.));
#428=CARTESIAN_POINT('',(-28.,10.5,-20.));
#429=CARTESIAN_POINT('',(-31.,-10.5,-20.));
#430=CARTESIAN_POINT('',(-28.,-10.5,-20.));
#431=CARTESIAN_POINT('',(0.,0.,0.));
#432=CARTESIAN_POINT('',(31.,10.5,0.));
#433=CARTESIAN_POINT('',(34.,10.5,0.));
#434=CARTESIAN_POINT('',(31.,-10.5,0.));
#435=CARTESIAN_POINT('',(34.,-10.5,0.));
#436=CARTESIAN_POINT('',(-31.,10.5,0.));
#437=CARTESIAN_POINT('',(-28.,10.5,0.));
#438=CARTESIAN_POINT('',(-31.,-10.5,0.));
#439=CARTESIAN_POINT('',(-28.,-10.5,0.));
#440=CARTESIAN_POINT('',(-31.,-10.5,11.7554473412205));
#441=CARTESIAN_POINT('',(-31.,10.5,11.7554473412205));
#442=CARTESIAN_POINT('',(31.,-10.5,11.7554473412205));
#443=CARTESIAN_POINT('',(31.,10.5,11.7554473412205));
#444=CARTESIAN_POINT('',(37.,-15.,-19.));
#445=CARTESIAN_POINT('',(12.3333333333333,9.66666666666667,-43.6666666666667));
#446=CARTESIAN_POINT('',(27.,5.,-29.));
#447=CARTESIAN_POINT('',(37.,15.,-19.));
#448=CARTESIAN_POINT('',(-12.3333333333333,-9.66666666666667,-43.6666666666667));
#449=CARTESIAN_POINT('',(-37.,-15.,-19.));
#450=CARTESIAN_POINT('',(-37.,-15.,-19.));
#451=CARTESIAN_POINT('',(-37.,15.,-19.));
#452=CARTESIAN_POINT('',(21.,1.21972744404619E-15,-10.));
#453=CARTESIAN_POINT('',(21.,1.21972744404619E-15,-10.));
#454=CARTESIAN_POINT('',(26.,1.21972744404619E-15,-10.));
#455=CARTESIAN_POINT('',(21.,1.21972744404619E-15,-10.));
#456=MECHANICAL_DESIGN_GEOMETRIC_PRESENTATION_REPRESENTATION('',(#275),
#457);
#457=(
GEOMETRIC_REPRESENTATION_CONTEXT(3)
GLOBAL_UNCERTAINTY_ASSIGNED_CONTEXT((#458))
GLOBAL_UNIT_ASSIGNED_CONTEXT((#461,#460,#459))
REPRESENTATION_CONTEXT('´¥Åö¿ªip;step-gzip','TOP_LEVEL_ASSEMBLY_PART')
);
#458=UNCERTAINTY_MEASURE_WITH_UNIT(LENGTH_MEASURE(0.005),#461,
'DISTANCE_ACCURACY_VALUE','Maximum Tolerance applied to model');
#459=(
NAMED_UNIT(*)
SI_UNIT($,.STERADIAN.)
SOLID_ANGLE_UNIT()
);
#460=(
NAMED_UNIT(*)
PLANE_ANGLE_UNIT()
SI_UNIT($,.RADIAN.)
);
#461=(
LENGTH_UNIT()
NAMED_UNIT(*)
SI_UNIT(.MILLI.,.METRE.)
);
#462=PRODUCT_DEFINITION_SHAPE('','',#463);
#463=PRODUCT_DEFINITION('','',#465,#464);
#464=PRODUCT_DEFINITION_CONTEXT('',#471,'design');
#465=PRODUCT_DEFINITION_FORMATION_WITH_SPECIFIED_SOURCE('','',#467,
 .NOT_KNOWN.);
#466=PRODUCT_RELATED_PRODUCT_CATEGORY('','',(#467));
#467=PRODUCT('´¥Åö¿ªip;step-gzip','´¥Åö¿ªip;step-gzip',
'´¥Åö¿ªip;step-gzip',(#469));
#468=PRODUCT_CATEGORY('','');
#469=PRODUCT_CONTEXT('',#471,'mechanical');
#470=APPLICATION_PROTOCOL_DEFINITION('international standard',
'automotive_design',2010,#471);
#471=APPLICATION_CONTEXT(
'core data for automotive mechanical design processes');
ENDSEC;
END-ISO-10303-21;
