ISO-10303-21;
HEADER;
/* Generated by software containing ST-Developer
 * from STEP Tools, Inc. (www.steptools.com) 
 */
/* OPTION: strings as raw bytes, not using required /X/ escapes */

FILE_DESCRIPTION(
/* description */ ('Unknown'),
/* implementation_level */ '2;1');

FILE_NAME(
/* name */ 'è§¦ç¢°å¼€å…³',
/* time_stamp */ '2024-10-29T11:35:54+08:00',
/* author */ ('Unknown'),
/* organization */ ('Unknown'),
/* preprocessor_version */ 'ST-DEVELOPER v16.7',
/* originating_system */ 'Solid Edge',
/* authorisation */ 'Unknown');

FILE_SCHEMA (('AUTOMOTIVE_DESIGN {1 0 10303 214 3 1 1}'));
ENDSEC;

DATA;
#10=PROPERTY_DEFINITION_REPRESENTATION(#14,#12);
#11=PROPERTY_DEFINITION_REPRESENTATION(#15,#13);
#12=REPRESENTATION('',(#16),#209);
#13=REPRESENTATION('',(#17),#209);
#14=PROPERTY_DEFINITION('pmi validation property','',#214);
#15=PROPERTY_DEFINITION('pmi validation property','',#214);
#16=VALUE_REPRESENTATION_ITEM('number of annotations',COUNT_MEASURE(0.));
#17=VALUE_REPRESENTATION_ITEM('number of views',COUNT_MEASURE(0.));
#18=SHAPE_REPRESENTATION_RELATIONSHIP('','',#130,#19);
#19=ADVANCED_BREP_SHAPE_REPRESENTATION('',(#128),#209);
#20=PLANE('',#136);
#21=PLANE('',#138);
#22=PLANE('',#139);
#23=PLANE('',#142);
#24=PLANE('',#143);
#25=LINE('',#185,#33);
#26=LINE('',#189,#34);
#27=LINE('',#191,#35);
#28=LINE('',#195,#36);
#29=LINE('',#198,#37);
#30=LINE('',#200,#38);
#31=LINE('',#204,#39);
#32=LINE('',#206,#40);
#33=VECTOR('',#152,1000.);
#34=VECTOR('',#155,1000.);
#35=VECTOR('',#158,1000.);
#36=VECTOR('',#161,1000.);
#37=VECTOR('',#166,1000.);
#38=VECTOR('',#167,1000.);
#39=VECTOR('',#172,1000.);
#40=VECTOR('',#175,1000.);
#41=ORIENTED_EDGE('',*,*,#67,.F.);
#42=ORIENTED_EDGE('',*,*,#68,.T.);
#43=ORIENTED_EDGE('',*,*,#69,.T.);
#44=ORIENTED_EDGE('',*,*,#70,.T.);
#45=ORIENTED_EDGE('',*,*,#71,.F.);
#46=ORIENTED_EDGE('',*,*,#70,.F.);
#47=ORIENTED_EDGE('',*,*,#72,.F.);
#48=ORIENTED_EDGE('',*,*,#73,.F.);
#49=ORIENTED_EDGE('',*,*,#74,.F.);
#50=ORIENTED_EDGE('',*,*,#67,.T.);
#51=ORIENTED_EDGE('',*,*,#72,.T.);
#52=ORIENTED_EDGE('',*,*,#69,.F.);
#53=ORIENTED_EDGE('',*,*,#75,.F.);
#54=ORIENTED_EDGE('',*,*,#76,.T.);
#55=ORIENTED_EDGE('',*,*,#73,.T.);
#56=ORIENTED_EDGE('',*,*,#76,.F.);
#57=ORIENTED_EDGE('',*,*,#77,.F.);
#58=ORIENTED_EDGE('',*,*,#78,.T.);
#59=ORIENTED_EDGE('',*,*,#74,.T.);
#60=ORIENTED_EDGE('',*,*,#78,.F.);
#61=ORIENTED_EDGE('',*,*,#79,.F.);
#62=ORIENTED_EDGE('',*,*,#71,.T.);
#63=ORIENTED_EDGE('',*,*,#68,.F.);
#64=ORIENTED_EDGE('',*,*,#79,.T.);
#65=ORIENTED_EDGE('',*,*,#77,.T.);
#66=ORIENTED_EDGE('',*,*,#75,.T.);
#67=EDGE_CURVE('',#80,#80,#89,.T.);
#68=EDGE_CURVE('',#81,#82,#90,.F.);
#69=EDGE_CURVE('',#82,#83,#25,.T.);
#70=EDGE_CURVE('',#83,#84,#91,.T.);
#71=EDGE_CURVE('',#81,#84,#26,.T.);
#72=EDGE_CURVE('',#85,#83,#27,.T.);
#73=EDGE_CURVE('',#86,#85,#92,.T.);
#74=EDGE_CURVE('',#84,#86,#28,.T.);
#75=EDGE_CURVE('',#87,#82,#29,.T.);
#76=EDGE_CURVE('',#87,#85,#30,.T.);
#77=EDGE_CURVE('',#88,#87,#93,.T.);
#78=EDGE_CURVE('',#88,#86,#31,.T.);
#79=EDGE_CURVE('',#81,#88,#32,.T.);
#80=VERTEX_POINT('',#181);
#81=VERTEX_POINT('',#183);
#82=VERTEX_POINT('',#184);
#83=VERTEX_POINT('',#186);
#84=VERTEX_POINT('',#188);
#85=VERTEX_POINT('',#192);
#86=VERTEX_POINT('',#194);
#87=VERTEX_POINT('',#199);
#88=VERTEX_POINT('',#203);
#89=CIRCLE('',#133,5.);
#90=CIRCLE('',#134,5.);
#91=CIRCLE('',#135,5.);
#92=CIRCLE('',#137,7.37751742613649);
#93=CIRCLE('',#141,7.37751742613649);
#94=EDGE_LOOP('',(#41));
#95=EDGE_LOOP('',(#42,#43,#44,#45));
#96=EDGE_LOOP('',(#46,#47,#48,#49));
#97=EDGE_LOOP('',(#50));
#98=EDGE_LOOP('',(#51,#52,#53,#54));
#99=EDGE_LOOP('',(#55,#56,#57,#58));
#100=EDGE_LOOP('',(#59,#60,#61,#62));
#101=EDGE_LOOP('',(#63,#64,#65,#66));
#102=FACE_BOUND('',#94,.T.);
#103=FACE_BOUND('',#95,.T.);
#104=FACE_BOUND('',#96,.T.);
#105=FACE_BOUND('',#97,.T.);
#106=FACE_BOUND('',#98,.T.);
#107=FACE_BOUND('',#99,.T.);
#108=FACE_BOUND('',#100,.T.);
#109=FACE_BOUND('',#101,.T.);
#110=CYLINDRICAL_SURFACE('',#132,5.);
#111=CYLINDRICAL_SURFACE('',#140,7.37751742613649);
#112=ADVANCED_FACE('',(#102,#103),#110,.T.);
#113=ADVANCED_FACE('',(#104),#20,.F.);
#114=ADVANCED_FACE('',(#105),#21,.T.);
#115=ADVANCED_FACE('',(#106),#22,.F.);
#116=ADVANCED_FACE('',(#107),#111,.T.);
#117=ADVANCED_FACE('',(#108),#23,.F.);
#118=ADVANCED_FACE('',(#109),#24,.F.);
#119=CLOSED_SHELL('',(#112,#113,#114,#115,#116,#117,#118));
#120=STYLED_ITEM('',(#121),#128);
#121=PRESENTATION_STYLE_ASSIGNMENT((#122));
#122=SURFACE_STYLE_USAGE(.BOTH.,#123);
#123=SURFACE_SIDE_STYLE('',(#124));
#124=SURFACE_STYLE_FILL_AREA(#125);
#125=FILL_AREA_STYLE('',(#126));
#126=FILL_AREA_STYLE_COLOUR('',#127);
#127=COLOUR_RGB('',0.506983280181885,0.531564235687256,0.550000011920929);
#128=MANIFOLD_SOLID_BREP('',#119);
#129=SHAPE_DEFINITION_REPRESENTATION(#214,#130);
#130=SHAPE_REPRESENTATION('´¥ÅödEdge/MNKR_ATTR_CID',(#131),#209);
#131=AXIS2_PLACEMENT_3D('',#178,#144,#145);
#132=AXIS2_PLACEMENT_3D('',#179,#146,#147);
#133=AXIS2_PLACEMENT_3D('',#180,#148,#149);
#134=AXIS2_PLACEMENT_3D('',#182,#150,#151);
#135=AXIS2_PLACEMENT_3D('',#187,#153,#154);
#136=AXIS2_PLACEMENT_3D('',#190,#156,#157);
#137=AXIS2_PLACEMENT_3D('',#193,#159,#160);
#138=AXIS2_PLACEMENT_3D('',#196,#162,#163);
#139=AXIS2_PLACEMENT_3D('',#197,#164,#165);
#140=AXIS2_PLACEMENT_3D('',#201,#168,#169);
#141=AXIS2_PLACEMENT_3D('',#202,#170,#171);
#142=AXIS2_PLACEMENT_3D('',#205,#173,#174);
#143=AXIS2_PLACEMENT_3D('',#207,#176,#177);
#144=DIRECTION('',(0.,0.,1.));
#145=DIRECTION('',(1.,0.,0.));
#146=DIRECTION('',(0.,0.,-1.));
#147=DIRECTION('',(-1.,0.,0.));
#148=DIRECTION('',(0.,0.,-1.));
#149=DIRECTION('',(1.,0.,0.));
#150=DIRECTION('',(0.,0.,1.));
#151=DIRECTION('',(1.,0.,0.));
#152=DIRECTION('',(0.,0.,1.));
#153=DIRECTION('',(0.,0.,-1.));
#154=DIRECTION('',(1.,0.,0.));
#155=DIRECTION('',(0.,0.,1.));
#156=DIRECTION('',(0.,0.,-1.));
#157=DIRECTION('',(-1.,0.,0.));
#158=DIRECTION('',(1.04975143532993E-16,-1.,0.));
#159=DIRECTION('',(0.,0.,-1.));
#160=DIRECTION('',(0.,-1.,0.));
#161=DIRECTION('',(-1.22471000788491E-16,1.,0.));
#162=DIRECTION('',(0.,0.,-1.));
#163=DIRECTION('',(-1.,0.,0.));
#164=DIRECTION('',(-1.,-1.04975143532993E-16,0.));
#165=DIRECTION('',(1.04975143532993E-16,-1.,0.));
#166=DIRECTION('',(1.04975143532993E-16,-1.,0.));
#167=DIRECTION('',(0.,0.,1.));
#168=DIRECTION('',(0.,0.,1.));
#169=DIRECTION('',(1.,0.,0.));
#170=DIRECTION('',(0.,0.,-1.));
#171=DIRECTION('',(0.,-1.,0.));
#172=DIRECTION('',(0.,0.,1.));
#173=DIRECTION('',(1.,1.22471000788491E-16,0.));
#174=DIRECTION('',(-1.22471000788491E-16,1.,0.));
#175=DIRECTION('',(-1.22471000788491E-16,1.,0.));
#176=DIRECTION('',(0.,0.,1.));
#177=DIRECTION('',(1.,0.,0.));
#178=CARTESIAN_POINT('',(0.,0.,0.));
#179=CARTESIAN_POINT('',(0.,0.,15.));
#180=CARTESIAN_POINT('',(0.,0.,0.));
#181=CARTESIAN_POINT('',(5.,0.,0.));
#182=CARTESIAN_POINT('',(0.,0.,10.));
#183=CARTESIAN_POINT('',(-5.,-9.02056207507939E-16,10.));
#184=CARTESIAN_POINT('',(5.,0.,10.));
#185=CARTESIAN_POINT('',(5.,0.,10.));
#186=CARTESIAN_POINT('',(5.,5.24875717664963E-16,15.));
#187=CARTESIAN_POINT('',(0.,0.,15.));
#188=CARTESIAN_POINT('',(-5.,-9.02056207507939E-16,15.));
#189=CARTESIAN_POINT('',(-5.,-9.02056207507939E-16,10.));
#190=CARTESIAN_POINT('',(0.,0.,15.));
#191=CARTESIAN_POINT('',(4.99999999999999,49.5752637508403,15.));
#192=CARTESIAN_POINT('',(4.99999999999999,49.5752637508403,15.));
#193=CARTESIAN_POINT('',(6.09863722023098E-16,55.,15.));
#194=CARTESIAN_POINT('',(-5.00000000000001,49.5752637508403,15.));
#195=CARTESIAN_POINT('',(-5.,-9.02056207507939E-16,15.));
#196=CARTESIAN_POINT('',(0.,0.,0.));
#197=CARTESIAN_POINT('',(4.99999999999999,49.5752637508403,10.));
#198=CARTESIAN_POINT('',(4.99999999999999,49.5752637508403,10.));
#199=CARTESIAN_POINT('',(4.99999999999999,49.5752637508403,10.));
#200=CARTESIAN_POINT('',(4.99999999999999,49.5752637508403,10.));
#201=CARTESIAN_POINT('',(6.09863722023098E-16,55.,10.));
#202=CARTESIAN_POINT('',(6.09863722023098E-16,55.,10.));
#203=CARTESIAN_POINT('',(-5.00000000000001,49.5752637508403,10.));
#204=CARTESIAN_POINT('',(-5.00000000000001,49.5752637508403,10.));
#205=CARTESIAN_POINT('',(-5.,-9.02056207507939E-16,10.));
#206=CARTESIAN_POINT('',(-5.,-9.02056207507939E-16,10.));
#207=CARTESIAN_POINT('',(-8.67361737988404E-16,-4.5102810375397E-16,10.));
#208=MECHANICAL_DESIGN_GEOMETRIC_PRESENTATION_REPRESENTATION('',(#120),
#209);
#209=(
GEOMETRIC_REPRESENTATION_CONTEXT(3)
GLOBAL_UNCERTAINTY_ASSIGNED_CONTEXT((#210))
GLOBAL_UNIT_ASSIGNED_CONTEXT((#213,#212,#211))
REPRESENTATION_CONTEXT('´¥Åö2','TOP_LEVEL_ASSEMBLY_PART')
);
#210=UNCERTAINTY_MEASURE_WITH_UNIT(LENGTH_MEASURE(0.005),#213,
'DISTANCE_ACCURACY_VALUE','Maximum Tolerance applied to model');
#211=(
NAMED_UNIT(*)
SI_UNIT($,.STERADIAN.)
SOLID_ANGLE_UNIT()
);
#212=(
NAMED_UNIT(*)
PLANE_ANGLE_UNIT()
SI_UNIT($,.RADIAN.)
);
#213=(
LENGTH_UNIT()
NAMED_UNIT(*)
SI_UNIT(.MILLI.,.METRE.)
);
#214=PRODUCT_DEFINITION_SHAPE('','',#215);
#215=PRODUCT_DEFINITION('','',#217,#216);
#216=PRODUCT_DEFINITION_CONTEXT('',#223,'design');
#217=PRODUCT_DEFINITION_FORMATION_WITH_SPECIFIED_SOURCE('','',#219,
 .NOT_KNOWN.);
#218=PRODUCT_RELATED_PRODUCT_CATEGORY('','',(#219));
#219=PRODUCT('´¥Åö2','´¥Åö2','´¥Åö2',(#221));
#220=PRODUCT_CATEGORY('','');
#221=PRODUCT_CONTEXT('',#223,'mechanical');
#222=APPLICATION_PROTOCOL_DEFINITION('international standard',
'automotive_design',2010,#223);
#223=APPLICATION_CONTEXT(
'core data for automotive mechanical design processes');
ENDSEC;
END-ISO-10303-21;
