ISO-10303-21;
HEADER;
FILE_DESCRIPTION (( 'STEP AP203' ),
    '1' );
FILE_NAME ('ÈýÁªÖ§¼Ü.STEP',
    '2024-10-08T10:11:29',
    ( '' ),
    ( '' ),
    'SwSTEP 2.0',
    'SolidWorks 2024',
    '' );
FILE_SCHEMA (( 'CONFIG_CONTROL_DESIGN' ));
ENDSEC;

DATA;
#1 = CARTESIAN_POINT ( 'NONE',  ( 10.24999999999999822, -4.999999999999998224, 2.500000000000000000 ) ) ;
#2 = FACE_OUTER_BOUND ( 'NONE', #766, .T. ) ;
#3 = CARTESIAN_POINT ( 'NONE',  ( 10.25000000000000178, -2.072994553792284162E-14, -2.538686144951616381E-30 ) ) ;
#4 = VERTEX_POINT ( 'NONE', #488 ) ;
#5 = CYLINDRICAL_SURFACE ( 'NONE', #224, 3.000000000000002665 ) ;
#6 = VECTOR ( 'NONE', #732, 1000.000000000000227 ) ;
#7 = VECTOR ( 'NONE', #499, 1000.000000000000227 ) ;
#8 = DIRECTION ( 'NONE',  ( 1.000000000000000000, 0.000000000000000000, 0.000000000000000000 ) ) ;
#9 = EDGE_LOOP ( 'NONE', ( #662, #980, #560, #556 ) ) ;
#10 = CARTESIAN_POINT ( 'NONE',  ( 7.250000000000000888, 39.82643056465563802, -24.48390772414684946 ) ) ;
#11 = ORIENTED_EDGE ( 'NONE', *, *, #586, .T. ) ;
#12 = LINE ( 'NONE', #544, #820 ) ;
#13 = VECTOR ( 'NONE', #201, 1000.000000000000114 ) ;
#14 =( NAMED_UNIT ( * ) SI_UNIT ( $, .STERADIAN. ) SOLID_ANGLE_UNIT ( ) );
#15 = LINE ( 'NONE', #483, #760 ) ;
#16 = AXIS2_PLACEMENT_3D ( 'NONE', #581, #597, #517 ) ;
#17 = ORIENTED_EDGE ( 'NONE', *, *, #359, .T. ) ;
#18 = ADVANCED_BREP_SHAPE_REPRESENTATION ( '\X2\4e098054652f67b6\X0\', ( #796, #390 ), #138 ) ;
#19 = PRODUCT_RELATED_PRODUCT_CATEGORY ( 'detail', '', ( #527 ) ) ;
#20 = LINE ( 'NONE', #245, #705 ) ;
#21 = DIRECTION ( 'NONE',  ( 0.000000000000000000, 1.000000000000000000, 0.000000000000000000 ) ) ;
#22 = APPLICATION_PROTOCOL_DEFINITION ( 'international standard', 'config_control_design', 1994, #208 ) ;
#23 = ORIENTED_EDGE ( 'NONE', *, *, #570, .T. ) ;
#24 = ORIENTED_EDGE ( 'NONE', *, *, #807, .F. ) ;
#25 = DIRECTION ( 'NONE',  ( -1.000000000000000000, -0.000000000000000000, -0.000000000000000000 ) ) ;
#26 = PLANE ( 'NONE',  #757 ) ;
#27 = AXIS2_PLACEMENT_3D ( 'NONE', #525, #836, #831 ) ;
#28 = APPLICATION_PROTOCOL_DEFINITION ( 'international standard', 'config_control_design', 1994, #671 ) ;
#29 = CARTESIAN_POINT ( 'NONE',  ( 70.00000000000000000, 0.000000000000000000, -20.00000000000000000 ) ) ;
#30 = DIRECTION ( 'NONE',  ( 0.000000000000000000, 0.9848077530122073542, -0.1736481776669339394 ) ) ;
#31 = CARTESIAN_POINT ( 'NONE',  ( 59.75000000000000711, 32.59509689303129676, -94.28869132333605307 ) ) ;
#32 = EDGE_CURVE ( 'NONE', #808, #126, #15, .T. ) ;
#33 = FACE_OUTER_BOUND ( 'NONE', #637, .T. ) ;
#34 = LINE ( 'NONE', #948, #363 ) ;
#35 = LINE ( 'NONE', #803, #7 ) ;
#36 = EDGE_CURVE ( 'NONE', #927, #400, #195, .T. ) ;
#37 = AXIS2_PLACEMENT_3D ( 'NONE', #558, #267, #339 ) ;
#38 = ORIENTED_EDGE ( 'NONE', *, *, #428, .F. ) ;
#39 = EDGE_CURVE ( 'NONE', #4, #741, #255, .T. ) ;
#40 = CARTESIAN_POINT ( 'NONE',  ( 4.250000000000001776, 44.31634888554934548, -27.81416799501203840 ) ) ;
#41 = DIRECTION ( 'NONE',  ( 0.000000000000000000, 1.000000000000000000, 1.224646799147353207E-16 ) ) ;
#42 = UNCERTAINTY_MEASURE_WITH_UNIT (LENGTH_MEASURE( 1.000000000000000082E-05 ), #711, 'distance_accuracy_value', 'NONE');
#43 = VECTOR ( 'NONE', #295, 1000.000000000000227 ) ;
#44 = LOCAL_TIME ( 18, 11, 29.00000000000000000, #105 ) ;
#45 = EDGE_LOOP ( 'NONE', ( #940, #633, #617, #46, #747, #417, #899, #422 ) ) ;
#46 = ORIENTED_EDGE ( 'NONE', *, *, #32, .T. ) ;
#47 = VECTOR ( 'NONE', #394, 1000.000000000000000 ) ;
#48 = CARTESIAN_POINT ( 'NONE',  ( 7.250000000000000888, 27.67105812797025877, -93.42045043500138490 ) ) ;
#49 = APPROVAL_DATE_TIME ( #247, #298 ) ;
#50 = ORIENTED_EDGE ( 'NONE', *, *, #420, .F. ) ;
#51 = EDGE_CURVE ( 'NONE', #442, #269, #725, .T. ) ;
#52 = CARTESIAN_POINT ( 'NONE',  ( 59.75000000000000711, -10.00000000000000000, -67.50000000000000000 ) ) ;
#53 = ADVANCED_FACE ( 'NONE', ( #478, #872, #800 ), #106, .F. ) ;
#54 = LINE ( 'NONE', #742, #13 ) ;
#55 = ORIENTED_EDGE ( 'NONE', *, *, #36, .F. ) ;
#56 = DIRECTION ( 'NONE',  ( 0.000000000000000000, 6.938893903907227392E-16, -1.000000000000000000 ) ) ;
#57 = ORIENTED_EDGE ( 'NONE', *, *, #645, .T. ) ;
#58 = CARTESIAN_POINT ( 'NONE',  ( 0.000000000000000000, 0.000000000000000000, -20.00000000000000000 ) ) ;
#59 = PLANE ( 'NONE',  #175 ) ;
#60 = CIRCLE ( 'NONE', #193, 3.000000000000002665 ) ;
#61 = CIRCLE ( 'NONE', #708, 2.999999999999995559 ) ;
#62 = CARTESIAN_POINT ( 'NONE',  ( 70.00000000000000000, 0.000000000000000000, -20.00000000000000000 ) ) ;
#63 = EDGE_CURVE ( 'NONE', #713, #523, #951, .T. ) ;
#64 = DIRECTION ( 'NONE',  ( 0.000000000000000000, 0.9848077530122073542, -0.1736481776669339949 ) ) ;
#65 = DIRECTION ( 'NONE',  ( 0.000000000000000000, 0.9848077530122073542, -0.1736481776669339949 ) ) ;
#66 = CLOSED_SHELL ( 'NONE', ( #857, #313, #996, #776, #53, #823, #541, #83, #72, #307, #145, #227, #180, #434, #513, #722, #690, #605, #136, #647, #338, #501, #954, #337, #876, #906, #151, #538 ) ) ;
#67 = ORIENTED_EDGE ( 'NONE', *, *, #898, .F. ) ;
#68 = PLANE ( 'NONE',  #219 ) ;
#69 = DIRECTION ( 'NONE',  ( 1.000000000000000000, 0.000000000000000000, 0.000000000000000000 ) ) ;
#70 = LINE ( 'NONE', #988, #608 ) ;
#71 = LINE ( 'NONE', #89, #47 ) ;
#72 = ADVANCED_FACE ( 'NONE', ( #113, #416, #33 ), #652, .F. ) ;
#73 = CC_DESIGN_PERSON_AND_ORGANIZATION_ASSIGNMENT ( #640, #944, ( #527 ) ) ;
#74 = ORIENTED_EDGE ( 'NONE', *, *, #426, .T. ) ;
#75 = EDGE_CURVE ( 'NONE', #126, #166, #54, .T. ) ;
#76 = VECTOR ( 'NONE', #824, 1000.000000000000000 ) ;
#77 = CARTESIAN_POINT ( 'NONE',  ( 70.00000000000000000, 0.000000000000000000, 0.000000000000000000 ) ) ;
#78 = LINE ( 'NONE', #382, #688 ) ;
#79 = ORIENTED_EDGE ( 'NONE', *, *, #238, .T. ) ;
#80 = DIRECTION ( 'NONE',  ( -1.387778780781445281E-15, -1.000000000000000000, -1.224646799147353207E-16 ) ) ;
#81 = CARTESIAN_POINT ( 'NONE',  ( 65.75000000000000000, -10.00000000000000000, 2.499999999999999112 ) ) ;
#82 = DIRECTION ( 'NONE',  ( -0.000000000000000000, 1.000000000000000000, 0.000000000000000000 ) ) ;
#83 = ADVANCED_FACE ( 'NONE', ( #818 ), #974, .F. ) ;
#84 = VERTEX_POINT ( 'NONE', #358 ) ;
#85 = EDGE_CURVE ( 'NONE', #366, #269, #672, .T. ) ;
#86 = FACE_OUTER_BOUND ( 'NONE', #439, .T. ) ;
#87 = CARTESIAN_POINT ( 'NONE',  ( 0.000000000000000000, 0.000000000000000000, 0.000000000000000000 ) ) ;
#88 = ORIENTED_EDGE ( 'NONE', *, *, #586, .F. ) ;
#89 = CARTESIAN_POINT ( 'NONE',  ( 70.00000000000000000, 2.500000000000000444, -17.90225092205680824 ) ) ;
#90 = AXIS2_PLACEMENT_3D ( 'NONE', #160, #469, #303 ) ;
#91 = ORIENTED_EDGE ( 'NONE', *, *, #848, .T. ) ;
#92 = SECURITY_CLASSIFICATION ( '', '', #112 ) ;
#93 = PLANE ( 'NONE',  #463 ) ;
#94 = VECTOR ( 'NONE', #291, 1000.000000000000000 ) ;
#95 = CALENDAR_DATE ( 2024, 8, 10 ) ;
#96 = VERTEX_POINT ( 'NONE', #443 ) ;
#97 = ORIENTED_EDGE ( 'NONE', *, *, #677, .T. ) ;
#98 = FACE_OUTER_BOUND ( 'NONE', #461, .T. ) ;
#99 = DIRECTION ( 'NONE',  ( 0.000000000000000000, 0.000000000000000000, 1.000000000000000000 ) ) ;
#100 = ORIENTED_EDGE ( 'NONE', *, *, #788, .T. ) ;
#101 = ORIENTED_EDGE ( 'NONE', *, *, #63, .F. ) ;
#102 = DIRECTION ( 'NONE',  ( 0.000000000000000000, 0.000000000000000000, -1.000000000000000000 ) ) ;
#103 = LINE ( 'NONE', #875, #577 ) ;
#104 = DESIGN_CONTEXT ( 'detailed design', #671, 'design' ) ;
#105 = COORDINATED_UNIVERSAL_TIME_OFFSET ( 8, 0, .AHEAD. ) ;
#106 = PLANE ( 'NONE',  #632 ) ;
#107 = ORIENTED_EDGE ( 'NONE', *, *, #108, .T. ) ;
#108 = EDGE_CURVE ( 'NONE', #270, #124, #982, .T. ) ;
#109 = DIRECTION ( 'NONE',  ( -0.000000000000000000, -0.000000000000000000, 1.000000000000000000 ) ) ;
#110 = CARTESIAN_POINT ( 'NONE',  ( 10.25000000000000000, -10.00000000000000000, 2.500000000000000000 ) ) ;
#111 = AXIS2_PLACEMENT_3D ( 'NONE', #972, #373, #69 ) ;
#112 = SECURITY_CLASSIFICATION_LEVEL ( 'unclassified' ) ;
#113 = FACE_BOUND ( 'NONE', #515, .T. ) ;
#114 = ORIENTED_EDGE ( 'NONE', *, *, #420, .T. ) ;
#115 = DIRECTION ( 'NONE',  ( -1.000000000000000000, -0.000000000000000000, -0.000000000000000000 ) ) ;
#116 = LINE ( 'NONE', #791, #194 ) ;
#117 = ORIENTED_EDGE ( 'NONE', *, *, #681, .F. ) ;
#118 = EDGE_LOOP ( 'NONE', ( #717, #691, #55, #882 ) ) ;
#119 = DIRECTION ( 'NONE',  ( -0.000000000000000000, 0.1736481776669339394, 0.9848077530122073542 ) ) ;
#120 = FACE_OUTER_BOUND ( 'NONE', #494, .T. ) ;
#121 = ORIENTED_EDGE ( 'NONE', *, *, #751, .F. ) ;
#122 = ORIENTED_EDGE ( 'NONE', *, *, #869, .F. ) ;
#123 = FACE_OUTER_BOUND ( 'NONE', #588, .T. ) ;
#124 = VERTEX_POINT ( 'NONE', #58 ) ;
#125 = VECTOR ( 'NONE', #140, 1000.000000000000114 ) ;
#126 = VERTEX_POINT ( 'NONE', #438 ) ;
#127 = LINE ( 'NONE', #683, #377 ) ;
#128 = CIRCLE ( 'NONE', #915, 2.999999999999995559 ) ;
#129 = CARTESIAN_POINT ( 'NONE',  ( 0.000000000000000000, 0.000000000000000000, 0.000000000000000000 ) ) ;
#130 = ORIENTED_EDGE ( 'NONE', *, *, #898, .T. ) ;
#131 = DIRECTION ( 'NONE',  ( 0.000000000000000000, 0.1736481776669339672, 0.9848077530122075762 ) ) ;
#132 = EDGE_LOOP ( 'NONE', ( #189, #709, #401, #613, #294 ) ) ;
#133 = DIRECTION ( 'NONE',  ( 1.000000000000000000, 0.000000000000000000, 0.000000000000000000 ) ) ;
#134 = DIRECTION ( 'NONE',  ( 0.000000000000000000, -1.224646799147353207E-16, 1.000000000000000000 ) ) ;
#135 = ORIENTED_EDGE ( 'NONE', *, *, #466, .F. ) ;
#136 = ADVANCED_FACE ( 'NONE', ( #123 ), #746, .F. ) ;
#137 = CARTESIAN_POINT ( 'NONE',  ( 0.000000000000000000, 2.500000000000000444, -17.90225092205680824 ) ) ;
#138 =( GEOMETRIC_REPRESENTATION_CONTEXT ( 3 ) GLOBAL_UNCERTAINTY_ASSIGNED_CONTEXT ( ( #42 ) ) GLOBAL_UNIT_ASSIGNED_CONTEXT ( ( #711, #168, #14 ) ) REPRESENTATION_CONTEXT ( 'NONE', 'WORKASPACE' ) );
#139 = DIRECTION ( 'NONE',  ( 0.000000000000000000, -0.9848077530122073542, 0.1736481776669339949 ) ) ;
#140 = DIRECTION ( 'NONE',  ( 0.000000000000000000, -0.9848077530122073542, 0.1736481776669336619 ) ) ;
#141 = VECTOR ( 'NONE', #186, 1000.000000000000000 ) ;
#142 = VECTOR ( 'NONE', #564, 1000.000000000000227 ) ;
#143 = EDGE_CURVE ( 'NONE', #819, #435, #279, .T. ) ;
#144 = CARTESIAN_POINT ( 'NONE',  ( 59.75000000000000711, 0.000000000000000000, -20.00000000000000000 ) ) ;
#145 = ADVANCED_FACE ( 'NONE', ( #969 ), #891, .T. ) ;
#146 = CARTESIAN_POINT ( 'NONE',  ( 10.25000000000000000, -10.00000000000000000, -67.50000000000000000 ) ) ;
#147 = VECTOR ( 'NONE', #276, 1000.000000000000227 ) ;
#148 = CYLINDRICAL_SURFACE ( 'NONE', #656, 3.000000000000001332 ) ;
#149 = FACE_OUTER_BOUND ( 'NONE', #932, .T. ) ;
#150 = ORIENTED_EDGE ( 'NONE', *, *, #356, .F. ) ;
#151 = ADVANCED_FACE ( 'NONE', ( #272 ), #431, .F. ) ;
#152 = CARTESIAN_POINT ( 'NONE',  ( 70.00000000000000000, 54.59854685983874845, -27.08863038915084687 ) ) ;
#153 = EDGE_CURVE ( 'NONE', #994, #124, #902, .T. ) ;
#154 = LINE ( 'NONE', #460, #533 ) ;
#155 = ORIENTED_EDGE ( 'NONE', *, *, #85, .F. ) ;
#156 = AXIS2_PLACEMENT_3D ( 'NONE', #622, #549, #638 ) ;
#157 = CARTESIAN_POINT ( 'NONE',  ( 59.75000000000002132, 1.422473250300979924E-14, 1.742027312853826710E-30 ) ) ;
#158 = EDGE_CURVE ( 'NONE', #594, #393, #537, .T. ) ;
#159 = EDGE_CURVE ( 'NONE', #907, #854, #828, .T. ) ;
#160 = CARTESIAN_POINT ( 'NONE',  ( 7.250000000000000000, -10.00000000000000000, 2.500000000000000000 ) ) ;
#161 = CARTESIAN_POINT ( 'NONE',  ( 70.00000000000000000, 54.59854685983874845, -27.08863038915084687 ) ) ;
#162 = EDGE_LOOP ( 'NONE', ( #543, #367, #999, #88 ) ) ;
#163 = LINE ( 'NONE', #468, #659 ) ;
#164 = CALENDAR_DATE ( 2024, 8, 10 ) ;
#165 = CARTESIAN_POINT ( 'NONE',  ( 4.250000000000000000, -10.00000000000000000, 2.500000000000000000 ) ) ;
#166 = VERTEX_POINT ( 'NONE', #755 ) ;
#167 = CARTESIAN_POINT ( 'NONE',  ( 59.75000000000000711, 32.59509689303129676, -94.28869132333605307 ) ) ;
#168 =( NAMED_UNIT ( * ) PLANE_ANGLE_UNIT ( ) SI_UNIT ( $, .RADIAN. ) );
#169 = ORIENTED_EDGE ( 'NONE', *, *, #246, .F. ) ;
#170 = CIRCLE ( 'NONE', #740, 3.000000000000000888 ) ;
#171 = ORIENTED_EDGE ( 'NONE', *, *, #51, .T. ) ;
#172 = APPROVAL_PERSON_ORGANIZATION ( #704, #251, #877 ) ;
#173 = CARTESIAN_POINT ( 'NONE',  ( 70.00000000000000000, 0.000000000000000000, 0.000000000000000000 ) ) ;
#174 = DIRECTION ( 'NONE',  ( 0.000000000000000000, 0.000000000000000000, -1.000000000000000000 ) ) ;
#175 = AXIS2_PLACEMENT_3D ( 'NONE', #909, #82, #304 ) ;
#176 = VERTEX_POINT ( 'NONE', #510 ) ;
#177 = ORIENTED_EDGE ( 'NONE', *, *, #995, .F. ) ;
#178 = DIRECTION ( 'NONE',  ( -1.000000000000000000, 0.000000000000000000, 0.000000000000000000 ) ) ;
#179 = CARTESIAN_POINT ( 'NONE',  ( 4.250000000000000000, -10.00000000000000000, 2.500000000000000000 ) ) ;
#180 = ADVANCED_FACE ( 'NONE', ( #204 ), #821, .F. ) ;
#181 = COORDINATED_UNIVERSAL_TIME_OFFSET ( 8, 0, .AHEAD. ) ;
#182 = EDGE_CURVE ( 'NONE', #96, #548, #856, .T. ) ;
#183 = ORIENTED_EDGE ( 'NONE', *, *, #645, .F. ) ;
#184 = EDGE_CURVE ( 'NONE', #593, #84, #424, .T. ) ;
#185 = ORIENTED_EDGE ( 'NONE', *, *, #674, .T. ) ;
#186 = DIRECTION ( 'NONE',  ( -1.000000000000000000, -0.000000000000000000, -0.000000000000000000 ) ) ;
#187 = CARTESIAN_POINT ( 'NONE',  ( 70.00000000000000000, -15.00000000000000178, 2.499999999999998668 ) ) ;
#188 = COORDINATED_UNIVERSAL_TIME_OFFSET ( 8, 0, .AHEAD. ) ;
#189 = ORIENTED_EDGE ( 'NONE', *, *, #806, .T. ) ;
#190 = ORIENTED_EDGE ( 'NONE', *, *, #519, .F. ) ;
#191 = CARTESIAN_POINT ( 'NONE',  ( 10.25000000000000000, -10.00000000000000000, 0.000000000000000000 ) ) ;
#192 = DIRECTION ( 'NONE',  ( 0.000000000000000000, -1.224646799147353207E-16, 1.000000000000000000 ) ) ;
#193 = AXIS2_PLACEMENT_3D ( 'NONE', #336, #629, #178 ) ;
#194 = VECTOR ( 'NONE', #343, 1000.000000000000000 ) ;
#195 = LINE ( 'NONE', #945, #582 ) ;
#196 = DIRECTION ( 'NONE',  ( 0.000000000000000000, -0.9848077530122072432, 0.1736481776669351051 ) ) ;
#197 = CARTESIAN_POINT ( 'NONE',  ( 65.75000000000000000, 0.000000000000000000, 0.000000000000000000 ) ) ;
#198 = ORIENTED_EDGE ( 'NONE', *, *, #465, .F. ) ;
#199 = AXIS2_PLACEMENT_3D ( 'NONE', #340, #955, #264 ) ;
#200 = CARTESIAN_POINT ( 'NONE',  ( 70.00000000000000000, -15.00000000000000000, -1.836970198721029589E-15 ) ) ;
#201 = DIRECTION ( 'NONE',  ( -0.000000000000000000, -0.9848077530122073542, 0.1736481776669339117 ) ) ;
#202 = CC_DESIGN_DATE_AND_TIME_ASSIGNMENT ( #729, #399, ( #92 ) ) ;
#203 = ORIENTED_EDGE ( 'NONE', *, *, #143, .F. ) ;
#204 = FACE_OUTER_BOUND ( 'NONE', #935, .T. ) ;
#205 = EDGE_LOOP ( 'NONE', ( #11, #433, #79, #976 ) ) ;
#206 = CIRCLE ( 'NONE', #27, 2.999999999999999112 ) ;
#207 = CARTESIAN_POINT ( 'NONE',  ( 59.75000000000000711, -4.999999999999998224, 0.000000000000000000 ) ) ;
#208 = APPLICATION_CONTEXT ( 'configuration controlled 3d designs of mechanical parts and assemblies' ) ;
#209 = DIRECTION ( 'NONE',  ( -0.000000000000000000, -0.9848077530122073542, 0.1736481776669339117 ) ) ;
#210 = ORIENTED_EDGE ( 'NONE', *, *, #385, .F. ) ;
#211 = EDGE_CURVE ( 'NONE', #96, #234, #425, .T. ) ;
#212 = PRODUCT_DEFINITION_SHAPE ( 'NONE', 'NONE',  #968 ) ;
#213 = CARTESIAN_POINT ( 'NONE',  ( 70.00000000000000000, -15.00000000000000178, 2.499999999999998668 ) ) ;
#214 = DIRECTION ( 'NONE',  ( 0.000000000000000000, -1.000000000000000000, 0.000000000000000000 ) ) ;
#215 = VECTOR ( 'NONE', #880, 1000.000000000000227 ) ;
#216 = CARTESIAN_POINT ( 'NONE',  ( 10.25000000000000178, 39.82643056465563802, -24.48390772414684946 ) ) ;
#217 = DIRECTION ( 'NONE',  ( -1.000000000000000000, -1.734723475976807094E-16, 0.000000000000000000 ) ) ;
#218 = ORIENTED_EDGE ( 'NONE', *, *, #623, .F. ) ;
#219 = AXIS2_PLACEMENT_3D ( 'NONE', #986, #372, #540 ) ;
#220 = CC_DESIGN_SECURITY_CLASSIFICATION ( #92, ( #529 ) ) ;
#221 = ORIENTED_EDGE ( 'NONE', *, *, #692, .T. ) ;
#222 = FACE_OUTER_BOUND ( 'NONE', #9, .T. ) ;
#223 = CARTESIAN_POINT ( 'NONE',  ( 4.250000000000000000, -10.00000000000000000, -67.50000000000000000 ) ) ;
#224 = AXIS2_PLACEMENT_3D ( 'NONE', #325, #553, #867 ) ;
#225 = DIRECTION ( 'NONE',  ( -1.000000000000000000, -0.000000000000000000, -0.000000000000000000 ) ) ;
#226 = PLANE ( 'NONE',  #943 ) ;
#227 = ADVANCED_FACE ( 'NONE', ( #798 ), #403, .F. ) ;
#228 = FACE_BOUND ( 'NONE', #205, .T. ) ;
#229 = CARTESIAN_POINT ( 'NONE',  ( 59.75000000000000711, -10.00000000000000000, 0.000000000000000000 ) ) ;
#230 = ORIENTED_EDGE ( 'NONE', *, *, #330, .T. ) ;
#231 = CARTESIAN_POINT ( 'NONE',  ( 10.25000000000000000, 44.75046932971667957, -25.35214861248151763 ) ) ;
#232 = LINE ( 'NONE', #699, #350 ) ;
#233 = DIRECTION ( 'NONE',  ( -3.469446951953613203E-16, 1.000000000000000000, 1.224646799147353207E-16 ) ) ;
#234 = VERTEX_POINT ( 'NONE', #333 ) ;
#235 = PLANE ( 'NONE',  #979 ) ;
#236 = COORDINATED_UNIVERSAL_TIME_OFFSET ( 8, 0, .AHEAD. ) ;
#237 = DIRECTION ( 'NONE',  ( 0.000000000000000000, -0.9848077530122073542, 0.1736481776669339949 ) ) ;
#238 = EDGE_CURVE ( 'NONE', #388, #927, #733, .T. ) ;
#239 = ORIENTED_EDGE ( 'NONE', *, *, #263, .T. ) ;
#240 = FACE_OUTER_BOUND ( 'NONE', #290, .T. ) ;
#241 = CALENDAR_DATE ( 2024, 8, 10 ) ;
#242 = ORIENTED_EDGE ( 'NONE', *, *, #39, .T. ) ;
#243 = EDGE_CURVE ( 'NONE', #903, #400, #258, .T. ) ;
#244 = ORIENTED_EDGE ( 'NONE', *, *, #495, .F. ) ;
#245 = CARTESIAN_POINT ( 'NONE',  ( 4.250000000000000000, -10.00000000000000000, -67.50000000000000000 ) ) ;
#246 = EDGE_CURVE ( 'NONE', #864, #344, #289, .T. ) ;
#247 = DATE_AND_TIME ( #164, #657 ) ;
#248 = ORIENTED_EDGE ( 'NONE', *, *, #51, .F. ) ;
#249 = EDGE_LOOP ( 'NONE', ( #598, #706, #190, #177 ) ) ;
#250 = DIRECTION ( 'NONE',  ( 0.000000000000000000, -0.9848077530122073542, 0.1736481776669339949 ) ) ;
#251 = APPROVAL ( #950, 'æœª' ) ;
#252 = CARTESIAN_POINT ( 'NONE',  ( 7.250000000000000000, -10.00000000000000000, 0.000000000000000000 ) ) ;
#253 = AXIS2_PLACEMENT_3D ( 'NONE', #997, #917, #912 ) ;
#254 = EDGE_CURVE ( 'NONE', #388, #903, #103, .T. ) ;
#255 = LINE ( 'NONE', #555, #320 ) ;
#256 = ORIENTED_EDGE ( 'NONE', *, *, #924, .T. ) ;
#257 = LINE ( 'NONE', #568, #929 ) ;
#258 = LINE ( 'NONE', #639, #736 ) ;
#259 = CARTESIAN_POINT ( 'NONE',  ( 59.75000000000000711, -4.999999999999998224, -67.50000000000000000 ) ) ;
#260 = LINE ( 'NONE', #502, #809 ) ;
#261 = CARTESIAN_POINT ( 'NONE',  ( 0.000000000000000000, 0.000000000000000000, 0.000000000000000000 ) ) ;
#262 = EDGE_CURVE ( 'NONE', #354, #455, #35, .T. ) ;
#263 = EDGE_CURVE ( 'NONE', #84, #849, #811, .T. ) ;
#264 = DIRECTION ( 'NONE',  ( 0.000000000000000000, 1.000000000000000000, 9.912705577010325549E-17 ) ) ;
#265 = CARTESIAN_POINT ( 'NONE',  ( 65.75000000000000000, -5.000000000000000000, 2.500000000000000000 ) ) ;
#266 = AXIS2_PLACEMENT_3D ( 'NONE', #368, #524, #139 ) ;
#267 = DIRECTION ( 'NONE',  ( -0.000000000000000000, -0.000000000000000000, 1.000000000000000000 ) ) ;
#268 = AXIS2_PLACEMENT_3D ( 'NONE', #721, #557, #102 ) ;
#269 = VERTEX_POINT ( 'NONE', #723 ) ;
#270 = VERTEX_POINT ( 'NONE', #261 ) ;
#271 = CARTESIAN_POINT ( 'NONE',  ( 59.75000000000000711, -10.00000000000000000, -67.50000000000000000 ) ) ;
#272 = FACE_OUTER_BOUND ( 'NONE', #596, .T. ) ;
#273 = ORIENTED_EDGE ( 'NONE', *, *, #896, .F. ) ;
#274 = EDGE_LOOP ( 'NONE', ( #655, #748, #750, #734, #91 ) ) ;
#275 = VECTOR ( 'NONE', #664, 1000.000000000000000 ) ;
#276 = DIRECTION ( 'NONE',  ( -0.000000000000000000, 0.1736481776669339394, 0.9848077530122073542 ) ) ;
#277 = EDGE_LOOP ( 'NONE', ( #287, #567, #739, #911 ) ) ;
#278 = DIRECTION ( 'NONE',  ( 1.734723475976807094E-16, -1.000000000000000000, 0.000000000000000000 ) ) ;
#279 = LINE ( 'NONE', #137, #970 ) ;
#280 = EDGE_CURVE ( 'NONE', #594, #593, #116, .T. ) ;
#281 = EDGE_CURVE ( 'NONE', #427, #947, #482, .T. ) ;
#282 = ORIENTED_EDGE ( 'NONE', *, *, #518, .F. ) ;
#283 = CIRCLE ( 'NONE', #685, 3.000000000000000888 ) ;
#284 = CARTESIAN_POINT ( 'NONE',  ( 4.250000000000000000, 44.75046932971667957, -25.35214861248151763 ) ) ;
#285 = EDGE_LOOP ( 'NONE', ( #574, #670, #889, #379 ) ) ;
#286 = DIRECTION ( 'NONE',  ( -1.000000000000000000, -0.000000000000000000, -0.000000000000000000 ) ) ;
#287 = ORIENTED_EDGE ( 'NONE', *, *, #966, .T. ) ;
#288 = DIRECTION ( 'NONE',  ( 1.000000000000000000, 3.469446951953613203E-16, 0.000000000000000000 ) ) ;
#289 = CIRCLE ( 'NONE', #498, 3.000000000000000888 ) ;
#290 = EDGE_LOOP ( 'NONE', ( #504, #171, #155, #731 ) ) ;
#291 = DIRECTION ( 'NONE',  ( 0.000000000000000000, -1.000000000000000000, -9.912705577010325549E-17 ) ) ;
#292 = DIRECTION ( 'NONE',  ( 0.000000000000000000, -1.000000000000000000, -1.224646799147353207E-16 ) ) ;
#293 = CIRCLE ( 'NONE', #782, 3.000000000000000888 ) ;
#294 = ORIENTED_EDGE ( 'NONE', *, *, #182, .T. ) ;
#295 = DIRECTION ( 'NONE',  ( -0.000000000000000000, 0.1736481776669339394, 0.9848077530122073542 ) ) ;
#296 = LINE ( 'NONE', #355, #76 ) ;
#297 = AXIS2_PLACEMENT_3D ( 'NONE', #542, #769, #237 ) ;
#298 = APPROVAL ( #930, 'æœª' ) ;
#299 = DIRECTION ( 'NONE',  ( 0.000000000000000000, -0.9848077530122073542, 0.1736481776669339117 ) ) ;
#300 = DIRECTION ( 'NONE',  ( -0.000000000000000000, 0.1736481776669339394, 0.9848077530122073542 ) ) ;
#301 = ORIENTED_EDGE ( 'NONE', *, *, #254, .F. ) ;
#302 = DIRECTION ( 'NONE',  ( -0.000000000000000000, 0.1736481776669339394, 0.9848077530122075762 ) ) ;
#303 = DIRECTION ( 'NONE',  ( 1.000000000000000000, 0.000000000000000000, 0.000000000000000000 ) ) ;
#304 = DIRECTION ( 'NONE',  ( 0.000000000000000000, -0.000000000000000000, 1.000000000000000000 ) ) ;
#305 = EDGE_LOOP ( 'NONE', ( #185, #774, #789, #936 ) ) ;
#306 = CARTESIAN_POINT ( 'NONE',  ( 59.75000000000000711, 39.82643056465563802, -24.48390772414684946 ) ) ;
#307 = ADVANCED_FACE ( 'NONE', ( #326 ), #26, .F. ) ;
#308 = PERSON_AND_ORGANIZATION ( #793, #958 ) ;
#309 = DIRECTION ( 'NONE',  ( 0.000000000000000000, -0.1736481776669350219, -0.9848077530122071321 ) ) ;
#310 = VERTEX_POINT ( 'NONE', #887 ) ;
#311 = DIRECTION ( 'NONE',  ( -0.000000000000000000, 1.000000000000000000, 1.224646799147353207E-16 ) ) ;
#312 = VECTOR ( 'NONE', #569, 1000.000000000000000 ) ;
#313 = ADVANCED_FACE ( 'NONE', ( #120 ), #942, .F. ) ;
#314 = CALENDAR_DATE ( 2024, 8, 10 ) ;
#315 = ORIENTED_EDGE ( 'NONE', *, *, #763, .F. ) ;
#316 = DIRECTION ( 'NONE',  ( 0.000000000000000000, 0.1736481776669339672, 0.9848077530122075762 ) ) ;
#317 = ORIENTED_EDGE ( 'NONE', *, *, #674, .F. ) ;
#318 = CARTESIAN_POINT ( 'NONE',  ( 7.250000000000000000, 44.31634888554933838, -27.81416799501203130 ) ) ;
#319 = EDGE_CURVE ( 'NONE', #400, #523, #61, .T. ) ;
#320 = VECTOR ( 'NONE', #566, 1000.000000000000227 ) ;
#321 = AXIS2_PLACEMENT_3D ( 'NONE', #48, #591, #448 ) ;
#322 = MECHANICAL_CONTEXT ( 'NONE', #208, 'mechanical' ) ;
#323 = ORIENTED_EDGE ( 'NONE', *, *, #981, .F. ) ;
#324 = ORIENTED_EDGE ( 'NONE', *, *, #570, .F. ) ;
#325 = CARTESIAN_POINT ( 'NONE',  ( 62.75000000000000000, -4.999999999999999112, -67.50000000000000000 ) ) ;
#326 = FACE_OUTER_BOUND ( 'NONE', #914, .T. ) ;
#327 = DIRECTION ( 'NONE',  ( 0.000000000000000000, 0.000000000000000000, 1.000000000000000000 ) ) ;
#328 = ORIENTED_EDGE ( 'NONE', *, *, #781, .F. ) ;
#329 = ORIENTED_EDGE ( 'NONE', *, *, #623, .T. ) ;
#330 = EDGE_CURVE ( 'NONE', #552, #593, #863, .T. ) ;
#331 = CARTESIAN_POINT ( 'NONE',  ( 4.250000000000003553, 0.000000000000000000, -20.00000000000000000 ) ) ;
#332 = VECTOR ( 'NONE', #80, 1000.000000000000000 ) ;
#333 = CARTESIAN_POINT ( 'NONE',  ( 62.75000000000001421, 36.87200730561901452, -23.96296319114604501 ) ) ;
#334 = APPROVAL_STATUS ( 'not_yet_approved' ) ;
#335 = DIRECTION ( 'NONE',  ( -0.000000000000000000, 0.1736481776669339394, 0.9848077530122074652 ) ) ;
#336 = CARTESIAN_POINT ( 'NONE',  ( 62.75000000000001421, -10.00000000000000000, 2.500000000000000000 ) ) ;
#337 = ADVANCED_FACE ( 'NONE', ( #414 ), #728, .F. ) ;
#338 = ADVANCED_FACE ( 'NONE', ( #879 ), #580, .F. ) ;
#339 = DIRECTION ( 'NONE',  ( 1.000000000000000000, 0.000000000000000000, 0.000000000000000000 ) ) ;
#340 = CARTESIAN_POINT ( 'NONE',  ( 70.00000000000000000, 2.500000000000000444, 2.500000000000000444 ) ) ;
#341 = DIRECTION ( 'NONE',  ( 0.000000000000000000, 0.000000000000000000, 1.000000000000000000 ) ) ;
#342 = AXIS2_PLACEMENT_3D ( 'NONE', #409, #578, #716 ) ;
#343 = DIRECTION ( 'NONE',  ( -0.000000000000000000, -0.000000000000000000, 1.000000000000000000 ) ) ;
#344 = VERTEX_POINT ( 'NONE', #191 ) ;
#345 = LINE ( 'NONE', #874, #141 ) ;
#346 = VECTOR ( 'NONE', #225, 1000.000000000000000 ) ;
#347 = CC_DESIGN_APPROVAL ( #298, ( #92 ) ) ;
#348 = DIRECTION ( 'NONE',  ( 0.000000000000000000, -0.9848077530122072432, 0.1736481776669351051 ) ) ;
#349 = VECTOR ( 'NONE', #937, 1000.000000000000000 ) ;
#350 = VECTOR ( 'NONE', #604, 1000.000000000000000 ) ;
#351 = ORIENTED_EDGE ( 'NONE', *, *, #853, .T. ) ;
#352 = ORIENTED_EDGE ( 'NONE', *, *, #447, .F. ) ;
#353 = CARTESIAN_POINT ( 'NONE',  ( 65.75000000000000000, 32.59509689303129676, -94.28869132333605307 ) ) ;
#354 = VERTEX_POINT ( 'NONE', #817 ) ;
#355 = CARTESIAN_POINT ( 'NONE',  ( 70.00000000000000000, 2.500000000000000444, 2.500000000000000444 ) ) ;
#356 = EDGE_CURVE ( 'NONE', #344, #552, #890, .T. ) ;
#357 = CC_DESIGN_PERSON_AND_ORGANIZATION_ASSIGNMENT ( #804, #858, ( #529 ) ) ;
#358 = CARTESIAN_POINT ( 'NONE',  ( 4.249999999999999112, -5.000000000000000000, 2.500000000000000000 ) ) ;
#359 = EDGE_CURVE ( 'NONE', #514, #176, #260, .T. ) ;
#360 = ORIENTED_EDGE ( 'NONE', *, *, #975, .F. ) ;
#361 = CARTESIAN_POINT ( 'NONE',  ( 62.75000000000000000, -4.999999999999999112, 0.000000000000000000 ) ) ;
#362 = DIRECTION ( 'NONE',  ( 1.000000000000000000, 0.000000000000000000, 0.000000000000000000 ) ) ;
#363 = VECTOR ( 'NONE', #737, 1000.000000000000227 ) ;
#364 = ORIENTED_EDGE ( 'NONE', *, *, #330, .F. ) ;
#365 = CARTESIAN_POINT ( 'NONE',  ( 59.75000000000000711, 44.75046932971667957, -25.35214861248151763 ) ) ;
#366 = VERTEX_POINT ( 'NONE', #653 ) ;
#367 = ORIENTED_EDGE ( 'NONE', *, *, #465, .T. ) ;
#368 = CARTESIAN_POINT ( 'NONE',  ( 7.250000000000000888, 39.39231012048829683, -26.94592710667735602 ) ) ;
#369 = CARTESIAN_POINT ( 'NONE',  ( 4.249999999999999112, 39.82643056465563802, -24.48390772414684946 ) ) ;
#370 = VECTOR ( 'NONE', #859, 1000.000000000000114 ) ;
#371 = ORIENTED_EDGE ( 'NONE', *, *, #153, .F. ) ;
#372 = DIRECTION ( 'NONE',  ( 1.000000000000000000, 3.416738256948487913E-16, -6.024631407188431727E-17 ) ) ;
#373 = DIRECTION ( 'NONE',  ( -0.000000000000000000, -0.000000000000000000, 1.000000000000000000 ) ) ;
#374 = CC_DESIGN_PERSON_AND_ORGANIZATION_ASSIGNMENT ( #851, #415, ( #92 ) ) ;
#375 = ORIENTED_EDGE ( 'NONE', *, *, #853, .F. ) ;
#376 = DIRECTION ( 'NONE',  ( 0.000000000000000000, 0.9848077530122073542, -0.1736481776669339394 ) ) ;
#377 = VECTOR ( 'NONE', #595, 1000.000000000000000 ) ;
#378 = CARTESIAN_POINT ( 'NONE',  ( 62.75000000000001421, 39.39231012048829683, -26.94592710667735602 ) ) ;
#379 = ORIENTED_EDGE ( 'NONE', *, *, #158, .T. ) ;
#380 = CIRCLE ( 'NONE', #398, 3.000000000000000888 ) ;
#381 = DIRECTION ( 'NONE',  ( 0.000000000000000000, -1.224646799147353207E-16, 1.000000000000000000 ) ) ;
#382 = CARTESIAN_POINT ( 'NONE',  ( 10.25000000000000000, 44.75046932971667957, -25.35214861248151763 ) ) ;
#383 = ORIENTED_EDGE ( 'NONE', *, *, #75, .F. ) ;
#384 = CARTESIAN_POINT ( 'NONE',  ( 10.25000000000000355, -4.999999999999998224, -6.123233995736764310E-16 ) ) ;
#385 = EDGE_CURVE ( 'NONE', #509, #684, #658, .T. ) ;
#386 = LINE ( 'NONE', #152, #346 ) ;
#387 = LINE ( 'NONE', #547, #963 ) ;
#388 = VERTEX_POINT ( 'NONE', #575 ) ;
#389 = CARTESIAN_POINT ( 'NONE',  ( 70.00000000000000000, 2.500000000000000444, -17.90225092205680824 ) ) ;
#390 = AXIS2_PLACEMENT_3D ( 'NONE', #87, #327, #8 ) ;
#391 = APPROVAL_DATE_TIME ( #487, #720 ) ;
#392 = CC_DESIGN_APPROVAL ( #720, ( #968 ) ) ;
#393 = VERTEX_POINT ( 'NONE', #644 ) ;
#394 = DIRECTION ( 'NONE',  ( -1.000000000000000000, -0.000000000000000000, -0.000000000000000000 ) ) ;
#395 = ORIENTED_EDGE ( 'NONE', *, *, #505, .T. ) ;
#396 = VECTOR ( 'NONE', #311, 1000.000000000000000 ) ;
#397 = DIRECTION ( 'NONE',  ( 0.000000000000000000, -0.1736481776669339117, -0.9848077530122074652 ) ) ;
#398 = AXIS2_PLACEMENT_3D ( 'NONE', #10, #316, #707 ) ;
#399 = DATE_TIME_ROLE ( 'classification_date' ) ;
#400 = VERTEX_POINT ( 'NONE', #265 ) ;
#401 = ORIENTED_EDGE ( 'NONE', *, *, #983, .T. ) ;
#402 = FACE_BOUND ( 'NONE', #866, .T. ) ;
#403 = PLANE ( 'NONE',  #777 ) ;
#404 = DIRECTION ( 'NONE',  ( 0.000000000000000000, -1.000000000000000000, -1.224646799147353207E-16 ) ) ;
#405 = EDGE_CURVE ( 'NONE', #427, #4, #423, .T. ) ;
#406 = ORIENTED_EDGE ( 'NONE', *, *, #211, .T. ) ;
#407 = ORIENTED_EDGE ( 'NONE', *, *, #512, .F. ) ;
#408 = CARTESIAN_POINT ( 'NONE',  ( 10.25000000000000355, 44.31634888554934548, -27.81416799501203840 ) ) ;
#409 = CARTESIAN_POINT ( 'NONE',  ( 62.75000000000001421, 39.39231012048829683, -26.94592710667735602 ) ) ;
#410 = CALENDAR_DATE ( 2024, 8, 10 ) ;
#411 = ORIENTED_EDGE ( 'NONE', *, *, #966, .F. ) ;
#412 = LINE ( 'NONE', #964, #785 ) ;
#413 = CIRCLE ( 'NONE', #845, 3.000000000000000888 ) ;
#414 = FACE_OUTER_BOUND ( 'NONE', #812, .T. ) ;
#415 = PERSON_AND_ORGANIZATION_ROLE ( 'classification_officer' ) ;
#416 = FACE_BOUND ( 'NONE', #520, .T. ) ;
#417 = ORIENTED_EDGE ( 'NONE', *, *, #697, .T. ) ;
#418 = DIRECTION ( 'NONE',  ( -1.000000000000000000, -0.000000000000000000, -0.000000000000000000 ) ) ;
#419 = DIRECTION ( 'NONE',  ( 1.000000000000000000, 0.000000000000000000, 0.000000000000000000 ) ) ;
#420 = EDGE_CURVE ( 'NONE', #455, #561, #34, .T. ) ;
#421 = ORIENTED_EDGE ( 'NONE', *, *, #159, .F. ) ;
#422 = ORIENTED_EDGE ( 'NONE', *, *, #751, .T. ) ;
#423 = LINE ( 'NONE', #331, #6 ) ;
#424 = CIRCLE ( 'NONE', #910, 2.999999999999999112 ) ;
#425 = LINE ( 'NONE', #654, #215 ) ;
#426 = EDGE_CURVE ( 'NONE', #354, #897, #257, .T. ) ;
#427 = VERTEX_POINT ( 'NONE', #40 ) ;
#428 = EDGE_CURVE ( 'NONE', #961, #843, #345, .T. ) ;
#429 = AXIS2_PLACEMENT_3D ( 'NONE', #610, #456, #920 ) ;
#430 = LOCAL_TIME ( 18, 11, 29.00000000000000000, #188 ) ;
#431 = CYLINDRICAL_SURFACE ( 'NONE', #321, 3.000000000000001332 ) ;
#432 = AXIS2_PLACEMENT_3D ( 'NONE', #378, #631, #840 ) ;
#433 = ORIENTED_EDGE ( 'NONE', *, *, #609, .T. ) ;
#434 = ADVANCED_FACE ( 'NONE', ( #956 ), #886, .F. ) ;
#435 = VERTEX_POINT ( 'NONE', #496 ) ;
#436 = CYLINDRICAL_SURFACE ( 'NONE', #111, 3.000000000000000000 ) ;
#437 = EDGE_CURVE ( 'NONE', #808, #310, #412, .T. ) ;
#438 = CARTESIAN_POINT ( 'NONE',  ( 70.00000000000000000, 54.59854685983874845, -27.08863038915084687 ) ) ;
#439 = EDGE_LOOP ( 'NONE', ( #665, #676, #101, #315 ) ) ;
#440 = ORIENTED_EDGE ( 'NONE', *, *, #280, .F. ) ;
#441 = FACE_OUTER_BOUND ( 'NONE', #118, .T. ) ;
#442 = VERTEX_POINT ( 'NONE', #650 ) ;
#443 = CARTESIAN_POINT ( 'NONE',  ( 62.75000000000001421, 36.43788686145167333, -26.42498257367655157 ) ) ;
#444 = ORIENTED_EDGE ( 'NONE', *, *, #885, .F. ) ;
#445 = EDGE_CURVE ( 'NONE', #994, #808, #802, .T. ) ;
#446 = FACE_OUTER_BOUND ( 'NONE', #735, .T. ) ;
#447 = EDGE_CURVE ( 'NONE', #833, #903, #60, .T. ) ;
#448 = DIRECTION ( 'NONE',  ( 0.000000000000000000, -0.9848077530122072432, 0.1736481776669351051 ) ) ;
#449 = AXIS2_PLACEMENT_3D ( 'NONE', #31, #572, #341 ) ;
#450 = VECTOR ( 'NONE', #953, 1000.000000000000000 ) ;
#451 = ORIENTED_EDGE ( 'NONE', *, *, #719, .F. ) ;
#452 = LINE ( 'NONE', #144, #703 ) ;
#453 = LINE ( 'NONE', #600, #592 ) ;
#454 = VERTEX_POINT ( 'NONE', #861 ) ;
#455 = VERTEX_POINT ( 'NONE', #408 ) ;
#456 = DIRECTION ( 'NONE',  ( -0.000000000000000000, 0.1736481776669339394, 0.9848077530122075762 ) ) ;
#457 = LINE ( 'NONE', #516, #546 ) ;
#458 = VECTOR ( 'NONE', #286, 1000.000000000000000 ) ;
#459 = DIRECTION ( 'NONE',  ( 0.000000000000000000, -1.000000000000000000, -9.912705577010325549E-17 ) ) ;
#460 = CARTESIAN_POINT ( 'NONE',  ( 4.249999999999999112, -5.000000000000000000, -67.50000000000000000 ) ) ;
#461 = EDGE_LOOP ( 'NONE', ( #939, #97, #526, #795 ) ) ;
#462 = FACE_OUTER_BOUND ( 'NONE', #922, .T. ) ;
#463 = AXIS2_PLACEMENT_3D ( 'NONE', #389, #397, #618 ) ;
#464 = CARTESIAN_POINT ( 'NONE',  ( 59.75000000000000711, -10.00000000000000000, 2.500000000000000000 ) ) ;
#465 = EDGE_CURVE ( 'NONE', #523, #833, #562, .T. ) ;
#466 = EDGE_CURVE ( 'NONE', #509, #678, #698, .T. ) ;
#467 = ORIENTED_EDGE ( 'NONE', *, *, #184, .T. ) ;
#468 = CARTESIAN_POINT ( 'NONE',  ( 4.250000000000003553, -1.140580685454750665E-14, -1.396808485611454573E-30 ) ) ;
#469 = DIRECTION ( 'NONE',  ( 0.000000000000000000, 0.000000000000000000, 1.000000000000000000 ) ) ;
#470 = CARTESIAN_POINT ( 'NONE',  ( 4.250000000000000000, -10.00000000000000000, 0.000000000000000000 ) ) ;
#471 = ORIENTED_EDGE ( 'NONE', *, *, #719, .T. ) ;
#472 = CARTESIAN_POINT ( 'NONE',  ( 0.000000000000000000, 0.000000000000000000, 0.000000000000000000 ) ) ;
#473 = VECTOR ( 'NONE', #41, 1000.000000000000000 ) ;
#474 = DIRECTION ( 'NONE',  ( -0.000000000000000000, 0.1736481776669339672, 0.9848077530122075762 ) ) ;
#475 = ORIENTED_EDGE ( 'NONE', *, *, #159, .T. ) ;
#476 = PLANE ( 'NONE',  #156 ) ;
#477 = CIRCLE ( 'NONE', #266, 3.000000000000000888 ) ;
#478 = FACE_BOUND ( 'NONE', #274, .T. ) ;
#479 = ORIENTED_EDGE ( 'NONE', *, *, #807, .T. ) ;
#480 = DIRECTION ( 'NONE',  ( -0.000000000000000000, -0.000000000000000000, 1.000000000000000000 ) ) ;
#481 = VECTOR ( 'NONE', #233, 1000.000000000000000 ) ;
#482 = LINE ( 'NONE', #651, #142 ) ;
#483 = CARTESIAN_POINT ( 'NONE',  ( 70.00000000000000000, 54.59854685983874845, -27.08863038915084687 ) ) ;
#484 = EDGE_LOOP ( 'NONE', ( #753, #130, #150, #169 ) ) ;
#485 = DIRECTION ( 'NONE',  ( -0.000000000000000000, 1.000000000000000000, 1.224646799147353207E-16 ) ) ;
#486 = CARTESIAN_POINT ( 'NONE',  ( 7.249999999999999112, -4.999999999999999112, 2.500000000000000000 ) ) ;
#487 = DATE_AND_TIME ( #314, #832 ) ;
#488 = CARTESIAN_POINT ( 'NONE',  ( 4.250000000000001776, 39.39231012048830394, -26.94592710667736313 ) ) ;
#489 = ORIENTED_EDGE ( 'NONE', *, *, #385, .T. ) ;
#490 = DIRECTION ( 'NONE',  ( -1.387778780781445281E-15, -1.000000000000000000, 0.000000000000000000 ) ) ;
#491 = DIRECTION ( 'NONE',  ( 0.000000000000000000, -6.938893903907228378E-16, 1.000000000000000000 ) ) ;
#492 = PERSON_AND_ORGANIZATION_ROLE ( 'creator' ) ;
#493 = DIRECTION ( 'NONE',  ( -0.000000000000000000, -0.000000000000000000, 1.000000000000000000 ) ) ;
#494 = EDGE_LOOP ( 'NONE', ( #801, #406, #221, #589 ) ) ;
#495 = EDGE_CURVE ( 'NONE', #864, #849, #20, .T. ) ;
#496 = CARTESIAN_POINT ( 'NONE',  ( 0.000000000000000000, 2.500000000000000444, -17.90225092205680824 ) ) ;
#497 = AXIS2_PLACEMENT_3D ( 'NONE', #810, #952, #196 ) ;
#498 = AXIS2_PLACEMENT_3D ( 'NONE', #252, #192, #949 ) ;
#499 = DIRECTION ( 'NONE',  ( -3.469446951953610738E-16, 0.9848077530122073542, -0.1736481776669339117 ) ) ;
#500 = ORIENTED_EDGE ( 'NONE', *, *, #143, .T. ) ;
#501 = ADVANCED_FACE ( 'NONE', ( #240 ), #797, .F. ) ;
#502 = CARTESIAN_POINT ( 'NONE',  ( 70.00000000000000000, 2.500000000000000444, 2.500000000000000444 ) ) ;
#503 = DIRECTION ( 'NONE',  ( -0.000000000000000000, -0.000000000000000000, 1.000000000000000000 ) ) ;
#504 = ORIENTED_EDGE ( 'NONE', *, *, #825, .T. ) ;
#505 = EDGE_CURVE ( 'NONE', #684, #270, #702, .T. ) ;
#506 = EDGE_LOOP ( 'NONE', ( #971, #230, #440, #328 ) ) ;
#507 = CARTESIAN_POINT ( 'NONE',  ( 10.25000000000000000, -10.00000000000000000, -67.50000000000000000 ) ) ;
#508 = CARTESIAN_POINT ( 'NONE',  ( 70.00000000000000000, 2.500000000000000444, 2.500000000000000444 ) ) ;
#509 = VERTEX_POINT ( 'NONE', #714 ) ;
#510 = CARTESIAN_POINT ( 'NONE',  ( 0.000000000000000000, 2.500000000000000444, 2.500000000000000444 ) ) ;
#511 = CIRCLE ( 'NONE', #642, 3.000000000000000888 ) ;
#512 = EDGE_CURVE ( 'NONE', #455, #427, #530, .T. ) ;
#513 = ADVANCED_FACE ( 'NONE', ( #86 ), #5, .F. ) ;
#514 = VERTEX_POINT ( 'NONE', #933 ) ;
#515 = EDGE_LOOP ( 'NONE', ( #364, #67, #668, #967 ) ) ;
#516 = CARTESIAN_POINT ( 'NONE',  ( 70.00000000000000000, 0.000000000000000000, 0.000000000000000000 ) ) ;
#517 = DIRECTION ( 'NONE',  ( 0.000000000000000000, -1.000000000000000000, -1.224646799147353454E-16 ) ) ;
#518 = EDGE_CURVE ( 'NONE', #393, #864, #163, .T. ) ;
#519 = EDGE_CURVE ( 'NONE', #794, #881, #855, .T. ) ;
#520 = EDGE_LOOP ( 'NONE', ( #607, #352, #198, #873 ) ) ;
#521 = DIRECTION ( 'NONE',  ( 0.000000000000000000, -0.9848077530122073542, 0.1736481776669339949 ) ) ;
#522 = DIRECTION ( 'NONE',  ( 0.000000000000000000, 0.000000000000000000, -1.000000000000000000 ) ) ;
#523 = VERTEX_POINT ( 'NONE', #923 ) ;
#524 = DIRECTION ( 'NONE',  ( -0.000000000000000000, 0.1736481776669339394, 0.9848077530122075762 ) ) ;
#525 = CARTESIAN_POINT ( 'NONE',  ( 62.75000000000001421, -10.00000000000000000, 0.000000000000000000 ) ) ;
#526 = ORIENTED_EDGE ( 'NONE', *, *, #39, .F. ) ;
#527 = PRODUCT ( '\X2\4e098054652f67b6\X0\', '\X2\4e098054652f67b6\X0\', '', ( #322 ) ) ;
#528 = APPROVAL_PERSON_ORGANIZATION ( #871, #720, #565 ) ;
#529 = PRODUCT_DEFINITION_FORMATION_WITH_SPECIFIED_SOURCE ( 'ä»', '', #527, .NOT_KNOWN. ) ;
#530 = CIRCLE ( 'NONE', #962, 3.000000000000000888 ) ;
#531 = ORIENTED_EDGE ( 'NONE', *, *, #692, .F. ) ;
#532 = DIRECTION ( 'NONE',  ( 0.000000000000000000, 0.1736481776669339672, 0.9848077530122075762 ) ) ;
#533 = VECTOR ( 'NONE', #689, 1000.000000000000000 ) ;
#534 = DIRECTION ( 'NONE',  ( -0.000000000000000000, -0.000000000000000000, 1.000000000000000000 ) ) ;
#535 = CARTESIAN_POINT ( 'NONE',  ( 70.00000000000000000, 2.500000000000000444, 2.500000000000000444 ) ) ;
#536 = DIRECTION ( 'NONE',  ( -3.469446951953613203E-16, 1.000000000000000000, 0.000000000000000000 ) ) ;
#537 = CIRCLE ( 'NONE', #16, 2.999999999999999112 ) ;
#538 = ADVANCED_FACE ( 'NONE', ( #98 ), #476, .F. ) ;
#539 = CC_DESIGN_DATE_AND_TIME_ASSIGNMENT ( #724, #550, ( #968 ) ) ;
#540 = DIRECTION ( 'NONE',  ( -3.416738256948487913E-16, 1.000000000000000000, 0.000000000000000000 ) ) ;
#541 = ADVANCED_FACE ( 'NONE', ( #780, #402, #941 ), #93, .F. ) ;
#542 = CARTESIAN_POINT ( 'NONE',  ( 7.250000000000000888, 39.39231012048829683, -26.94592710667735602 ) ) ;
#543 = ORIENTED_EDGE ( 'NONE', *, *, #63, .T. ) ;
#544 = CARTESIAN_POINT ( 'NONE',  ( 0.000000000000000000, 54.59854685983874845, -27.08863038915084687 ) ) ;
#545 = LINE ( 'NONE', #682, #661 ) ;
#546 = VECTOR ( 'NONE', #900, 1000.000000000000000 ) ;
#547 = CARTESIAN_POINT ( 'NONE',  ( 65.75000000000000000, 0.000000000000000000, -20.00000000000000000 ) ) ;
#548 = VERTEX_POINT ( 'NONE', #850 ) ;
#549 = DIRECTION ( 'NONE',  ( -1.000000000000000000, -0.000000000000000000, 0.000000000000000000 ) ) ;
#550 = DATE_TIME_ROLE ( 'creation_date' ) ;
#551 = DIRECTION ( 'NONE',  ( -3.469446951953611231E-16, 0.9848077530122073542, -0.1736481776669336619 ) ) ;
#552 = VERTEX_POINT ( 'NONE', #710 ) ;
#553 = DIRECTION ( 'NONE',  ( -0.000000000000000000, -0.000000000000000000, 1.000000000000000000 ) ) ;
#554 = DATE_AND_TIME ( #241, #430 ) ;
#555 = CARTESIAN_POINT ( 'NONE',  ( 4.249999999999999112, 27.67105812797025877, -93.42045043500138490 ) ) ;
#556 = ORIENTED_EDGE ( 'NONE', *, *, #981, .T. ) ;
#557 = DIRECTION ( 'NONE',  ( 1.000000000000000000, 0.000000000000000000, 0.000000000000000000 ) ) ;
#558 = CARTESIAN_POINT ( 'NONE',  ( 62.75000000000001421, -10.00000000000000000, -67.50000000000000000 ) ) ;
#559 = CC_DESIGN_APPROVAL ( #251, ( #529 ) ) ;
#560 = ORIENTED_EDGE ( 'NONE', *, *, #960, .T. ) ;
#561 = VERTEX_POINT ( 'NONE', #231 ) ;
#562 = LINE ( 'NONE', #775, #349 ) ;
#563 = AXIS2_PLACEMENT_3D ( 'NONE', #998, #474, #620 ) ;
#564 = DIRECTION ( 'NONE',  ( -0.000000000000000000, 0.1736481776669339394, 0.9848077530122073542 ) ) ;
#565 = APPROVAL_ROLE ( '' ) ;
#566 = DIRECTION ( 'NONE',  ( -0.000000000000000000, 0.1736481776669339394, 0.9848077530122073542 ) ) ;
#567 = ORIENTED_EDGE ( 'NONE', *, *, #437, .F. ) ;
#568 = CARTESIAN_POINT ( 'NONE',  ( 10.25000000000000178, 27.67105812797025877, -93.42045043500138490 ) ) ;
#569 = DIRECTION ( 'NONE',  ( 1.734723475976807094E-16, -1.000000000000000000, -0.000000000000000000 ) ) ;
#570 = EDGE_CURVE ( 'NONE', #310, #819, #12, .T. ) ;
#571 = ORIENTED_EDGE ( 'NONE', *, *, #895, .T. ) ;
#572 = DIRECTION ( 'NONE',  ( -1.000000000000000000, -0.000000000000000000, 0.000000000000000000 ) ) ;
#573 = DIRECTION ( 'NONE',  ( 1.000000000000000000, 0.000000000000000000, 0.000000000000000000 ) ) ;
#574 = ORIENTED_EDGE ( 'NONE', *, *, #518, .T. ) ;
#575 = CARTESIAN_POINT ( 'NONE',  ( 65.75000000000000000, -10.00000000000000000, 0.000000000000000000 ) ) ;
#576 = AXIS2_PLACEMENT_3D ( 'NONE', #271, #813, #490 ) ;
#577 = VECTOR ( 'NONE', #503, 1000.000000000000000 ) ;
#578 = DIRECTION ( 'NONE',  ( -0.000000000000000000, 0.1736481776669339394, 0.9848077530122075762 ) ) ;
#579 = ORIENTED_EDGE ( 'NONE', *, *, #158, .F. ) ;
#580 = CYLINDRICAL_SURFACE ( 'NONE', #497, 3.000000000000001332 ) ;
#581 = CARTESIAN_POINT ( 'NONE',  ( 7.249999999999999112, -4.999999999999999112, 0.000000000000000000 ) ) ;
#582 = VECTOR ( 'NONE', #786, 1000.000000000000000 ) ;
#583 = EDGE_LOOP ( 'NONE', ( #916, #475, #57, #888 ) ) ;
#584 = AXIS2_PLACEMENT_3D ( 'NONE', #508, #214, #752 ) ;
#585 = ORIENTED_EDGE ( 'NONE', *, *, #695, .F. ) ;
#586 = EDGE_CURVE ( 'NONE', #713, #779, #844, .T. ) ;
#587 = CARTESIAN_POINT ( 'NONE',  ( 7.250000000000000888, 24.71663486893363526, -92.89950590200058400 ) ) ;
#588 = EDGE_LOOP ( 'NONE', ( #663, #467, #24, #579 ) ) ;
#589 = ORIENTED_EDGE ( 'NONE', *, *, #825, .F. ) ;
#590 = DIRECTION ( 'NONE',  ( 0.000000000000000000, 0.1736481776669339672, 0.9848077530122075762 ) ) ;
#591 = DIRECTION ( 'NONE',  ( -0.000000000000000000, 0.1736481776669339672, 0.9848077530122075762 ) ) ;
#592 = VECTOR ( 'NONE', #534, 1000.000000000000000 ) ;
#593 = VERTEX_POINT ( 'NONE', #1 ) ;
#594 = VERTEX_POINT ( 'NONE', #384 ) ;
#595 = DIRECTION ( 'NONE',  ( 0.000000000000000000, 0.000000000000000000, -1.000000000000000000 ) ) ;
#596 = EDGE_LOOP ( 'NONE', ( #421, #360, #242, #100 ) ) ;
#597 = DIRECTION ( 'NONE',  ( 0.000000000000000000, -1.224646799147353207E-16, 1.000000000000000000 ) ) ;
#598 = ORIENTED_EDGE ( 'NONE', *, *, #85, .T. ) ;
#599 = LINE ( 'NONE', #838, #43 ) ;
#600 = CARTESIAN_POINT ( 'NONE',  ( 0.000000000000000000, 2.500000000000000444, 2.500000000000000444 ) ) ;
#601 = ORIENTED_EDGE ( 'NONE', *, *, #428, .T. ) ;
#602 = VECTOR ( 'NONE', #894, 1000.000000000000227 ) ;
#603 = VERTEX_POINT ( 'NONE', #306 ) ;
#604 = DIRECTION ( 'NONE',  ( 0.000000000000000000, 6.938893903907227392E-16, -1.000000000000000000 ) ) ;
#605 = ADVANCED_FACE ( 'NONE', ( #928 ), #235, .F. ) ;
#606 = CARTESIAN_POINT ( 'NONE',  ( 65.75000000000000000, -10.00000000000000000, -67.50000000000000000 ) ) ;
#607 = ORIENTED_EDGE ( 'NONE', *, *, #243, .F. ) ;
#608 = VECTOR ( 'NONE', #376, 1000.000000000000114 ) ;
#609 = EDGE_CURVE ( 'NONE', #779, #388, #206, .T. ) ;
#610 = CARTESIAN_POINT ( 'NONE',  ( 62.75000000000001421, 44.31634888554933838, -27.81416799501203130 ) ) ;
#611 = VECTOR ( 'NONE', #56, 1000.000000000000000 ) ;
#612 = CARTESIAN_POINT ( 'NONE',  ( 7.250000000000000000, 44.75046932971667957, -25.35214861248151763 ) ) ;
#613 = ORIENTED_EDGE ( 'NONE', *, *, #870, .T. ) ;
#614 = CC_DESIGN_PERSON_AND_ORGANIZATION_ASSIGNMENT ( #799, #648, ( #968 ) ) ;
#615 = CARTESIAN_POINT ( 'NONE',  ( 65.75000000000000000, -5.000000000000000000, -6.123233995736766282E-16 ) ) ;
#616 = CARTESIAN_POINT ( 'NONE',  ( 0.000000000000000000, -15.00000000000000178, 2.499999999999998668 ) ) ;
#617 = ORIENTED_EDGE ( 'NONE', *, *, #445, .T. ) ;
#618 = DIRECTION ( 'NONE',  ( 0.000000000000000000, 0.9848077530122073542, -0.1736481776669338839 ) ) ;
#619 = DIRECTION ( 'NONE',  ( 0.000000000000000000, -0.9848077530122072432, 0.1736481776669351051 ) ) ;
#620 = DIRECTION ( 'NONE',  ( 0.000000000000000000, -0.9848077530122072432, 0.1736481776669351051 ) ) ;
#621 = EDGE_LOOP ( 'NONE', ( #628, #273, #837, #317, #203, #324, #411, #822 ) ) ;
#622 = CARTESIAN_POINT ( 'NONE',  ( 4.250000000000000000, 32.59509689303129676, -94.28869132333605307 ) ) ;
#623 = EDGE_CURVE ( 'NONE', #881, #603, #666, .T. ) ;
#624 = EDGE_CURVE ( 'NONE', #779, #833, #669, .T. ) ;
#625 = PERSON_AND_ORGANIZATION ( #793, #958 ) ;
#626 = VECTOR ( 'NONE', #30, 1000.000000000000114 ) ;
#627 = FACE_OUTER_BOUND ( 'NONE', #583, .T. ) ;
#628 = ORIENTED_EDGE ( 'NONE', *, *, #505, .F. ) ;
#629 = DIRECTION ( 'NONE',  ( 0.000000000000000000, 0.000000000000000000, 1.000000000000000000 ) ) ;
#630 = ORIENTED_EDGE ( 'NONE', *, *, #896, .T. ) ;
#631 = DIRECTION ( 'NONE',  ( -0.000000000000000000, 0.1736481776669339394, 0.9848077530122075762 ) ) ;
#632 = AXIS2_PLACEMENT_3D ( 'NONE', #29, #335, #649 ) ;
#633 = ORIENTED_EDGE ( 'NONE', *, *, #695, .T. ) ;
#634 = DIRECTION ( 'NONE',  ( -0.000000000000000000, 0.1736481776669339394, 0.9848077530122073542 ) ) ;
#635 = APPROVAL_DATE_TIME ( #554, #251 ) ;
#636 = ORIENTED_EDGE ( 'NONE', *, *, #447, .T. ) ;
#637 = EDGE_LOOP ( 'NONE', ( #571, #38, #444, #17 ) ) ;
#638 = DIRECTION ( 'NONE',  ( 0.000000000000000000, 0.000000000000000000, 1.000000000000000000 ) ) ;
#639 = CARTESIAN_POINT ( 'NONE',  ( 65.75000000000000000, -10.00000000000000000, 2.500000000000000000 ) ) ;
#640 = PERSON_AND_ORGANIZATION ( #793, #958 ) ;
#641 = DIRECTION ( 'NONE',  ( -0.000000000000000000, 0.1736481776669350219, 0.9848077530122071321 ) ) ;
#642 = AXIS2_PLACEMENT_3D ( 'NONE', #612, #131, #987 ) ;
#643 = EDGE_LOOP ( 'NONE', ( #479, #239, #244, #282 ) ) ;
#644 = CARTESIAN_POINT ( 'NONE',  ( 4.249999999999999112, -5.000000000000000000, 0.000000000000000000 ) ) ;
#645 = EDGE_CURVE ( 'NONE', #854, #897, #413, .T. ) ;
#646 = DIRECTION ( 'NONE',  ( -1.000000000000000000, 0.000000000000000000, 0.000000000000000000 ) ) ;
#647 = ADVANCED_FACE ( 'NONE', ( #978 ), #226, .F. ) ;
#648 = PERSON_AND_ORGANIZATION_ROLE ( 'creator' ) ;
#649 = DIRECTION ( 'NONE',  ( 0.000000000000000000, -0.9848077530122073542, 0.1736481776669339117 ) ) ;
#650 = CARTESIAN_POINT ( 'NONE',  ( 65.75000000000001421, 39.82643056465563802, -24.48390772414684946 ) ) ;
#651 = CARTESIAN_POINT ( 'NONE',  ( 4.250000000000000000, 32.59509689303129676, -94.28869132333605307 ) ) ;
#652 = PLANE ( 'NONE',  #199 ) ;
#653 = CARTESIAN_POINT ( 'NONE',  ( 65.75000000000000000, 44.31634888554934548, -27.81416799501203840 ) ) ;
#654 = CARTESIAN_POINT ( 'NONE',  ( 62.75000000000001421, 24.71663486893363526, -92.89950590200058400 ) ) ;
#655 = ORIENTED_EDGE ( 'NONE', *, *, #262, .T. ) ;
#656 = AXIS2_PLACEMENT_3D ( 'NONE', #764, #693, #619 ) ;
#657 = LOCAL_TIME ( 18, 11, 29.00000000000000000, #236 ) ;
#658 = LINE ( 'NONE', #200, #883 ) ;
#659 = VECTOR ( 'NONE', #790, 1000.000000000000000 ) ;
#660 = CARTESIAN_POINT ( 'NONE',  ( 62.75000000000000000, -4.999999999999999112, 2.500000000000000000 ) ) ;
#661 = VECTOR ( 'NONE', #459, 1000.000000000000000 ) ;
#662 = ORIENTED_EDGE ( 'NONE', *, *, #211, .F. ) ;
#663 = ORIENTED_EDGE ( 'NONE', *, *, #280, .T. ) ;
#664 = DIRECTION ( 'NONE',  ( 0.000000000000000000, 0.000000000000000000, -1.000000000000000000 ) ) ;
#665 = ORIENTED_EDGE ( 'NONE', *, *, #36, .T. ) ;
#666 = LINE ( 'NONE', #365, #125 ) ;
#667 = CARTESIAN_POINT ( 'NONE',  ( 70.00000000000000000, 0.000000000000000000, 0.000000000000000000 ) ) ;
#668 = ORIENTED_EDGE ( 'NONE', *, *, #263, .F. ) ;
#669 = LINE ( 'NONE', #52, #726 ) ;
#670 = ORIENTED_EDGE ( 'NONE', *, *, #246, .T. ) ;
#671 = APPLICATION_CONTEXT ( 'configuration controlled 3d designs of mechanical parts and assemblies' ) ;
#672 = LINE ( 'NONE', #353, #147 ) ;
#673 = VECTOR ( 'NONE', #745, 1000.000000000000114 ) ;
#674 = EDGE_CURVE ( 'NONE', #435, #176, #453, .T. ) ;
#675 = DIRECTION ( 'NONE',  ( -0.000000000000000000, -0.000000000000000000, 1.000000000000000000 ) ) ;
#676 = ORIENTED_EDGE ( 'NONE', *, *, #319, .T. ) ;
#677 = EDGE_CURVE ( 'NONE', #947, #741, #680, .T. ) ;
#678 = VERTEX_POINT ( 'NONE', #759 ) ;
#679 = LINE ( 'NONE', #535, #94 ) ;
#680 = LINE ( 'NONE', #284, #673 ) ;
#681 = EDGE_CURVE ( 'NONE', #678, #270, #457, .T. ) ;
#682 = CARTESIAN_POINT ( 'NONE',  ( 0.000000000000000000, 2.500000000000000444, 2.500000000000000444 ) ) ;
#683 = CARTESIAN_POINT ( 'NONE',  ( 70.00000000000000000, 0.000000000000000000, 0.000000000000000000 ) ) ;
#684 = VERTEX_POINT ( 'NONE', #984 ) ;
#685 = AXIS2_PLACEMENT_3D ( 'NONE', #990, #827, #65 ) ;
#686 = ORIENTED_EDGE ( 'NONE', *, *, #960, .F. ) ;
#687 = CARTESIAN_POINT ( 'NONE',  ( 70.00000000000000000, -15.00000000000000178, 2.499999999999998668 ) ) ;
#688 = VECTOR ( 'NONE', #551, 1000.000000000000114 ) ;
#689 = DIRECTION ( 'NONE',  ( -0.000000000000000000, -0.000000000000000000, 1.000000000000000000 ) ) ;
#690 = ADVANCED_FACE ( 'NONE', ( #762 ), #436, .F. ) ;
#691 = ORIENTED_EDGE ( 'NONE', *, *, #243, .T. ) ;
#692 = EDGE_CURVE ( 'NONE', #234, #442, #283, .T. ) ;
#693 = DIRECTION ( 'NONE',  ( -0.000000000000000000, 0.1736481776669339672, 0.9848077530122075762 ) ) ;
#694 = CARTESIAN_POINT ( 'NONE',  ( 7.250000000000000888, 36.87200730561901452, -23.96296319114604501 ) ) ;
#695 = EDGE_CURVE ( 'NONE', #678, #994, #127, .T. ) ;
#696 = ORIENTED_EDGE ( 'NONE', *, *, #624, .T. ) ;
#697 = EDGE_CURVE ( 'NONE', #166, #514, #296, .T. ) ;
#698 = LINE ( 'NONE', #173, #756 ) ;
#699 = CARTESIAN_POINT ( 'NONE',  ( 0.000000000000000000, -15.00000000000000178, 2.499999999999998668 ) ) ;
#700 = DIRECTION ( 'NONE',  ( 0.000000000000000000, 0.9848077530122073542, -0.1736481776669339117 ) ) ;
#701 = ORIENTED_EDGE ( 'NONE', *, *, #437, .T. ) ;
#702 = LINE ( 'NONE', #472, #396 ) ;
#703 = VECTOR ( 'NONE', #299, 1000.000000000000227 ) ;
#704 = PERSON_AND_ORGANIZATION ( #793, #958 ) ;
#705 = VECTOR ( 'NONE', #480, 1000.000000000000000 ) ;
#706 = ORIENTED_EDGE ( 'NONE', *, *, #973, .T. ) ;
#707 = DIRECTION ( 'NONE',  ( 0.000000000000000000, -0.9848077530122073542, 0.1736481776669339949 ) ) ;
#708 = AXIS2_PLACEMENT_3D ( 'NONE', #660, #965, #646 ) ;
#709 = ORIENTED_EDGE ( 'NONE', *, *, #995, .T. ) ;
#710 = CARTESIAN_POINT ( 'NONE',  ( 10.24999999999999822, -10.00000000000000000, 2.499999999999999112 ) ) ;
#711 =( LENGTH_UNIT ( ) NAMED_UNIT ( * ) SI_UNIT ( .MILLI., .METRE. ) );
#712 = EDGE_LOOP ( 'NONE', ( #829, #451, #375, #183, #770 ) ) ;
#713 = VERTEX_POINT ( 'NONE', #207 ) ;
#714 = CARTESIAN_POINT ( 'NONE',  ( 70.00000000000000000, -15.00000000000000000, -1.836970198721029589E-15 ) ) ;
#715 = AXIS2_PLACEMENT_3D ( 'NONE', #667, #362, #522 ) ;
#716 = DIRECTION ( 'NONE',  ( 0.000000000000000000, -0.9848077530122073542, 0.1736481776669339949 ) ) ;
#717 = ORIENTED_EDGE ( 'NONE', *, *, #254, .T. ) ;
#718 = EDGE_LOOP ( 'NONE', ( #23, #744, #805, #701 ) ) ;
#719 = EDGE_CURVE ( 'NONE', #561, #947, #511, .T. ) ;
#720 = APPROVAL ( #334, 'æœª' ) ;
#721 = CARTESIAN_POINT ( 'NONE',  ( 65.75000000000000000, 32.59509689303129676, -94.28869132333605307 ) ) ;
#722 = ADVANCED_FACE ( 'NONE', ( #441 ), #904, .F. ) ;
#723 = CARTESIAN_POINT ( 'NONE',  ( 65.75000000000000000, 44.75046932971667957, -25.35214861248151763 ) ) ;
#724 = DATE_AND_TIME ( #410, #44 ) ;
#725 = LINE ( 'NONE', #878, #370 ) ;
#726 = VECTOR ( 'NONE', #675, 1000.000000000000000 ) ;
#727 = CARTESIAN_POINT ( 'NONE',  ( 70.00000000000000000, 0.000000000000000000, -20.00000000000000000 ) ) ;
#728 = PLANE ( 'NONE',  #449 ) ;
#729 = DATE_AND_TIME ( #95, #959 ) ;
#730 = ORIENTED_EDGE ( 'NONE', *, *, #519, .T. ) ;
#731 = ORIENTED_EDGE ( 'NONE', *, *, #806, .F. ) ;
#732 = DIRECTION ( 'NONE',  ( 0.000000000000000000, -0.9848077530122073542, 0.1736481776669339117 ) ) ;
#733 = LINE ( 'NONE', #197, #473 ) ;
#734 = ORIENTED_EDGE ( 'NONE', *, *, #975, .T. ) ;
#735 = EDGE_LOOP ( 'NONE', ( #107, #371, #585, #985 ) ) ;
#736 = VECTOR ( 'NONE', #21, 1000.000000000000000 ) ;
#737 = DIRECTION ( 'NONE',  ( -0.000000000000000000, 0.1736481776669339394, 0.9848077530122073542 ) ) ;
#738 = CARTESIAN_POINT ( 'NONE',  ( 62.75000000000001421, 27.67105812797025877, -93.42045043500138490 ) ) ;
#739 = ORIENTED_EDGE ( 'NONE', *, *, #445, .F. ) ;
#740 = AXIS2_PLACEMENT_3D ( 'NONE', #835, #925, #64 ) ;
#741 = VERTEX_POINT ( 'NONE', #369 ) ;
#742 = CARTESIAN_POINT ( 'NONE',  ( 70.00000000000000000, 2.500000000000000444, -17.90225092205680824 ) ) ;
#743 = AXIS2_PLACEMENT_3D ( 'NONE', #161, #765, #309 ) ;
#744 = ORIENTED_EDGE ( 'NONE', *, *, #924, .F. ) ;
#745 = DIRECTION ( 'NONE',  ( 0.000000000000000000, -0.9848077530122073542, 0.1736481776669336619 ) ) ;
#746 = CYLINDRICAL_SURFACE ( 'NONE', #839, 2.999999999999999112 ) ;
#747 = ORIENTED_EDGE ( 'NONE', *, *, #75, .T. ) ;
#748 = ORIENTED_EDGE ( 'NONE', *, *, #512, .T. ) ;
#749 = DIRECTION ( 'NONE',  ( 0.000000000000000000, 0.000000000000000000, -1.000000000000000000 ) ) ;
#750 = ORIENTED_EDGE ( 'NONE', *, *, #405, .T. ) ;
#751 = EDGE_CURVE ( 'NONE', #961, #509, #754, .T. ) ;
#752 = DIRECTION ( 'NONE',  ( 0.000000000000000000, -0.000000000000000000, -1.000000000000000000 ) ) ;
#753 = ORIENTED_EDGE ( 'NONE', *, *, #495, .T. ) ;
#754 = LINE ( 'NONE', #213, #611 ) ;
#755 = CARTESIAN_POINT ( 'NONE',  ( 70.00000000000000000, 2.500000000000000444, -17.90225092205680824 ) ) ;
#756 = VECTOR ( 'NONE', #485, 1000.000000000000000 ) ;
#757 = AXIS2_PLACEMENT_3D ( 'NONE', #187, #957, #491 ) ;
#758 = CARTESIAN_POINT ( 'NONE',  ( 70.00000000000000000, 0.000000000000000000, -20.00000000000000000 ) ) ;
#759 = CARTESIAN_POINT ( 'NONE',  ( 70.00000000000000000, 0.000000000000000000, 0.000000000000000000 ) ) ;
#760 = VECTOR ( 'NONE', #641, 1000.000000000000227 ) ;
#761 = FACE_BOUND ( 'NONE', #285, .T. ) ;
#762 = FACE_OUTER_BOUND ( 'NONE', #484, .T. ) ;
#763 = EDGE_CURVE ( 'NONE', #927, #713, #128, .T. ) ;
#764 = CARTESIAN_POINT ( 'NONE',  ( 62.75000000000001421, 27.67105812797025877, -93.42045043500138490 ) ) ;
#765 = DIRECTION ( 'NONE',  ( 0.000000000000000000, -0.9848077530122072432, 0.1736481776669350496 ) ) ;
#766 = EDGE_LOOP ( 'NONE', ( #74, #351, #50, #893 ) ) ;
#767 = AXIS2_PLACEMENT_3D ( 'NONE', #606, #918, #749 ) ;
#768 = PLANE ( 'NONE',  #989 ) ;
#769 = DIRECTION ( 'NONE',  ( -0.000000000000000000, 0.1736481776669339394, 0.9848077530122075762 ) ) ;
#770 = ORIENTED_EDGE ( 'NONE', *, *, #788, .F. ) ;
#771 = DIRECTION ( 'NONE',  ( -0.000000000000000000, 0.1736481776669350219, 0.9848077530122071321 ) ) ;
#772 = CARTESIAN_POINT ( 'NONE',  ( 7.250000000000000888, 36.43788686145167333, -26.42498257367655157 ) ) ;
#773 = CYLINDRICAL_SURFACE ( 'NONE', #563, 3.000000000000001332 ) ;
#774 = ORIENTED_EDGE ( 'NONE', *, *, #359, .F. ) ;
#775 = CARTESIAN_POINT ( 'NONE',  ( 59.75000000000000711, -10.00000000000000000, 2.500000000000000000 ) ) ;
#776 = ADVANCED_FACE ( 'NONE', ( #446 ), #59, .F. ) ;
#777 = AXIS2_PLACEMENT_3D ( 'NONE', #814, #419, #174 ) ;
#778 = PLANE ( 'NONE',  #743 ) ;
#779 = VERTEX_POINT ( 'NONE', #229 ) ;
#780 = FACE_BOUND ( 'NONE', #712, .T. ) ;
#781 = EDGE_CURVE ( 'NONE', #344, #594, #993, .T. ) ;
#782 = AXIS2_PLACEMENT_3D ( 'NONE', #992, #532, #908 ) ;
#783 = APPROVAL_PERSON_ORGANIZATION ( #308, #298, #938 ) ;
#784 = COORDINATED_UNIVERSAL_TIME_OFFSET ( 8, 0, .AHEAD. ) ;
#785 = VECTOR ( 'NONE', #418, 1000.000000000000000 ) ;
#786 = DIRECTION ( 'NONE',  ( -0.000000000000000000, -0.000000000000000000, 1.000000000000000000 ) ) ;
#787 = CIRCLE ( 'NONE', #90, 3.000000000000000000 ) ;
#788 = EDGE_CURVE ( 'NONE', #741, #854, #380, .T. ) ;
#789 = ORIENTED_EDGE ( 'NONE', *, *, #697, .F. ) ;
#790 = DIRECTION ( 'NONE',  ( 1.734723475976807094E-16, -1.000000000000000000, -1.224646799147353207E-16 ) ) ;
#791 = CARTESIAN_POINT ( 'NONE',  ( 10.24999999999999822, -4.999999999999998224, -67.50000000000000000 ) ) ;
#792 = CC_DESIGN_PERSON_AND_ORGANIZATION_ASSIGNMENT ( #625, #492, ( #529 ) ) ;
#793 = PERSON ( 'æœª', 'æœª', 'æœª', ('æœª'), ('æœª'), ('æœª') ) ;
#794 = VERTEX_POINT ( 'NONE', #926 ) ;
#795 = ORIENTED_EDGE ( 'NONE', *, *, #405, .F. ) ;
#796 = MANIFOLD_SOLID_BREP ( 'ÇÐ³ý-À­Éì2', #66 ) ;
#797 = PLANE ( 'NONE',  #268 ) ;
#798 = FACE_OUTER_BOUND ( 'NONE', #621, .T. ) ;
#799 = PERSON_AND_ORGANIZATION ( #793, #958 ) ;
#800 = FACE_OUTER_BOUND ( 'NONE', #277, .T. ) ;
#801 = ORIENTED_EDGE ( 'NONE', *, *, #182, .F. ) ;
#802 = LINE ( 'NONE', #727, #626 ) ;
#803 = CARTESIAN_POINT ( 'NONE',  ( 10.25000000000002309, -2.041501108526721025E-14, -19.99999999999999645 ) ) ;
#804 = PERSON_AND_ORGANIZATION ( #793, #958 ) ;
#805 = ORIENTED_EDGE ( 'NONE', *, *, #32, .F. ) ;
#806 = EDGE_CURVE ( 'NONE', #548, #366, #387, .T. ) ;
#807 = EDGE_CURVE ( 'NONE', #393, #84, #154, .T. ) ;
#808 = VERTEX_POINT ( 'NONE', #847 ) ;
#809 = VECTOR ( 'NONE', #25, 1000.000000000000000 ) ;
#810 = CARTESIAN_POINT ( 'NONE',  ( 62.75000000000001421, 32.59509689303129676, -94.28869132333605307 ) ) ;
#811 = LINE ( 'NONE', #179, #312 ) ;
#812 = EDGE_LOOP ( 'NONE', ( #730, #329, #686, #816 ) ) ;
#813 = DIRECTION ( 'NONE',  ( -1.000000000000000000, 1.387778780781445281E-15, 0.000000000000000000 ) ) ;
#814 = CARTESIAN_POINT ( 'NONE',  ( 0.000000000000000000, 0.000000000000000000, 0.000000000000000000 ) ) ;
#815 = SHAPE_DEFINITION_REPRESENTATION ( #212, #18 ) ;
#816 = ORIENTED_EDGE ( 'NONE', *, *, #983, .F. ) ;
#817 = CARTESIAN_POINT ( 'NONE',  ( 10.25000000000000178, 39.39231012048829683, -26.94592710667735602 ) ) ;
#818 = FACE_OUTER_BOUND ( 'NONE', #305, .T. ) ;
#819 = VERTEX_POINT ( 'NONE', #842 ) ;
#820 = VECTOR ( 'NONE', #771, 1000.000000000000227 ) ;
#821 = CYLINDRICAL_SURFACE ( 'NONE', #37, 3.000000000000002665 ) ;
#822 = ORIENTED_EDGE ( 'NONE', *, *, #108, .F. ) ;
#823 = ADVANCED_FACE ( 'NONE', ( #921 ), #778, .F. ) ;
#824 = DIRECTION ( 'NONE',  ( -0.000000000000000000, -0.000000000000000000, 1.000000000000000000 ) ) ;
#825 = EDGE_CURVE ( 'NONE', #548, #442, #852, .T. ) ;
#826 = DIRECTION ( 'NONE',  ( -0.000000000000000000, -0.000000000000000000, 1.000000000000000000 ) ) ;
#827 = DIRECTION ( 'NONE',  ( 0.000000000000000000, 0.1736481776669339672, 0.9848077530122075762 ) ) ;
#828 = LINE ( 'NONE', #587, #602 ) ;
#829 = ORIENTED_EDGE ( 'NONE', *, *, #677, .F. ) ;
#830 = CARTESIAN_POINT ( 'NONE',  ( 4.250000000000003553, 44.75046932971668667, -25.35214861248150697 ) ) ;
#831 = DIRECTION ( 'NONE',  ( 0.000000000000000000, -1.000000000000000000, -1.224646799147353207E-16 ) ) ;
#832 = LOCAL_TIME ( 18, 11, 29.00000000000000000, #181 ) ;
#833 = VERTEX_POINT ( 'NONE', #464 ) ;
#834 = VECTOR ( 'NONE', #109, 1000.000000000000000 ) ;
#835 = CARTESIAN_POINT ( 'NONE',  ( 62.75000000000001421, 44.75046932971667957, -25.35214861248151763 ) ) ;
#836 = DIRECTION ( 'NONE',  ( 0.000000000000000000, -1.224646799147353207E-16, 1.000000000000000000 ) ) ;
#837 = ORIENTED_EDGE ( 'NONE', *, *, #895, .F. ) ;
#838 = CARTESIAN_POINT ( 'NONE',  ( 59.75000000000000711, 27.67105812797025877, -93.42045043500138490 ) ) ;
#839 = AXIS2_PLACEMENT_3D ( 'NONE', #905, #826, #133 ) ;
#840 = DIRECTION ( 'NONE',  ( 0.000000000000000000, -0.9848077530122073542, 0.1736481776669339949 ) ) ;
#841 = CARTESIAN_POINT ( 'NONE',  ( 59.75000000000000711, 44.75046932971668667, -25.35214861248150697 ) ) ;
#842 = CARTESIAN_POINT ( 'NONE',  ( 0.000000000000000000, 54.59854685983874845, -27.08863038915084687 ) ) ;
#843 = VERTEX_POINT ( 'NONE', #616 ) ;
#844 = LINE ( 'NONE', #157, #332 ) ;
#845 = AXIS2_PLACEMENT_3D ( 'NONE', #913, #590, #521 ) ;
#846 = CYLINDRICAL_SURFACE ( 'NONE', #253, 3.000000000000001332 ) ;
#847 = CARTESIAN_POINT ( 'NONE',  ( 70.00000000000000000, 54.16442641567140726, -29.55064977168136764 ) ) ;
#848 = EDGE_CURVE ( 'NONE', #907, #354, #991, .T. ) ;
#849 = VERTEX_POINT ( 'NONE', #165 ) ;
#850 = CARTESIAN_POINT ( 'NONE',  ( 65.75000000000001421, 39.39231012048829683, -26.94592710667735602 ) ) ;
#851 = PERSON_AND_ORGANIZATION ( #793, #958 ) ;
#852 = LINE ( 'NONE', #931, #946 ) ;
#853 = EDGE_CURVE ( 'NONE', #897, #561, #78, .T. ) ;
#854 = VERTEX_POINT ( 'NONE', #694 ) ;
#855 = LINE ( 'NONE', #167, #901 ) ;
#856 = CIRCLE ( 'NONE', #342, 3.000000000000000888 ) ;
#857 = ADVANCED_FACE ( 'NONE', ( #627 ), #773, .F. ) ;
#858 = PERSON_AND_ORGANIZATION_ROLE ( 'design_supplier' ) ;
#859 = DIRECTION ( 'NONE',  ( -0.000000000000000000, 0.9848077530122073542, -0.1736481776669336619 ) ) ;
#860 = ORIENTED_EDGE ( 'NONE', *, *, #281, .F. ) ;
#861 = CARTESIAN_POINT ( 'NONE',  ( 59.75000000000000711, 39.39231012048830394, -26.94592710667736313 ) ) ;
#862 = CIRCLE ( 'NONE', #429, 3.000000000000000888 ) ;
#863 = LINE ( 'NONE', #110, #450 ) ;
#864 = VERTEX_POINT ( 'NONE', #470 ) ;
#865 = CIRCLE ( 'NONE', #432, 3.000000000000000888 ) ;
#866 = EDGE_LOOP ( 'NONE', ( #218, #919, #248, #531, #323 ) ) ;
#867 = DIRECTION ( 'NONE',  ( 1.000000000000000000, 0.000000000000000000, 0.000000000000000000 ) ) ;
#868 = DIRECTION ( 'NONE',  ( -0.000000000000000000, 0.1736481776669339672, 0.9848077530122075762 ) ) ;
#869 = EDGE_CURVE ( 'NONE', #166, #435, #71, .T. ) ;
#870 = EDGE_CURVE ( 'NONE', #454, #96, #865, .T. ) ;
#871 = PERSON_AND_ORGANIZATION ( #793, #958 ) ;
#872 = FACE_BOUND ( 'NONE', #132, .T. ) ;
#873 = ORIENTED_EDGE ( 'NONE', *, *, #319, .F. ) ;
#874 = CARTESIAN_POINT ( 'NONE',  ( 70.00000000000000000, -15.00000000000000178, 2.499999999999998668 ) ) ;
#875 = CARTESIAN_POINT ( 'NONE',  ( 65.75000000000000000, -10.00000000000000000, -67.50000000000000000 ) ) ;
#876 = ADVANCED_FACE ( 'NONE', ( #149 ), #846, .F. ) ;
#877 = APPROVAL_ROLE ( '' ) ;
#878 = CARTESIAN_POINT ( 'NONE',  ( 65.75000000000000000, 44.75046932971667957, -25.35214861248151763 ) ) ;
#879 = FACE_OUTER_BOUND ( 'NONE', #249, .T. ) ;
#880 = DIRECTION ( 'NONE',  ( -0.000000000000000000, 0.1736481776669339394, 0.9848077530122073542 ) ) ;
#881 = VERTEX_POINT ( 'NONE', #841 ) ;
#882 = ORIENTED_EDGE ( 'NONE', *, *, #238, .F. ) ;
#883 = VECTOR ( 'NONE', #115, 1000.000000000000000 ) ;
#884 = AXIS2_PLACEMENT_3D ( 'NONE', #738, #868, #348 ) ;
#885 = EDGE_CURVE ( 'NONE', #514, #961, #679, .T. ) ;
#886 = PLANE ( 'NONE',  #576 ) ;
#887 = CARTESIAN_POINT ( 'NONE',  ( 0.000000000000000000, 54.16442641567140726, -29.55064977168136764 ) ) ;
#888 = ORIENTED_EDGE ( 'NONE', *, *, #426, .F. ) ;
#889 = ORIENTED_EDGE ( 'NONE', *, *, #781, .T. ) ;
#890 = LINE ( 'NONE', #507, #834 ) ;
#891 = PLANE ( 'NONE',  #715 ) ;
#892 = ORIENTED_EDGE ( 'NONE', *, *, #609, .F. ) ;
#893 = ORIENTED_EDGE ( 'NONE', *, *, #262, .F. ) ;
#894 = DIRECTION ( 'NONE',  ( -0.000000000000000000, 0.1736481776669339394, 0.9848077530122073542 ) ) ;
#895 = EDGE_CURVE ( 'NONE', #176, #843, #545, .T. ) ;
#896 = EDGE_CURVE ( 'NONE', #843, #684, #232, .T. ) ;
#897 = VERTEX_POINT ( 'NONE', #216 ) ;
#898 = EDGE_CURVE ( 'NONE', #849, #552, #787, .T. ) ;
#899 = ORIENTED_EDGE ( 'NONE', *, *, #885, .T. ) ;
#900 = DIRECTION ( 'NONE',  ( -1.000000000000000000, -0.000000000000000000, -0.000000000000000000 ) ) ;
#901 = VECTOR ( 'NONE', #634, 1000.000000000000227 ) ;
#902 = LINE ( 'NONE', #62, #458 ) ;
#903 = VERTEX_POINT ( 'NONE', #81 ) ;
#904 = PLANE ( 'NONE',  #767 ) ;
#905 = CARTESIAN_POINT ( 'NONE',  ( 7.249999999999999112, -4.999999999999999112, -67.50000000000000000 ) ) ;
#906 = ADVANCED_FACE ( 'NONE', ( #2 ), #68, .F. ) ;
#907 = VERTEX_POINT ( 'NONE', #772 ) ;
#908 = DIRECTION ( 'NONE',  ( 0.000000000000000000, 0.9848077530122073542, -0.1736481776669339949 ) ) ;
#909 = CARTESIAN_POINT ( 'NONE',  ( 70.00000000000000000, 0.000000000000000000, 0.000000000000000000 ) ) ;
#910 = AXIS2_PLACEMENT_3D ( 'NONE', #486, #99, #573 ) ;
#911 = ORIENTED_EDGE ( 'NONE', *, *, #153, .T. ) ;
#912 = DIRECTION ( 'NONE',  ( 0.000000000000000000, -0.9848077530122072432, 0.1736481776669351051 ) ) ;
#913 = CARTESIAN_POINT ( 'NONE',  ( 7.250000000000000888, 39.82643056465563802, -24.48390772414684946 ) ) ;
#914 = EDGE_LOOP ( 'NONE', ( #630, #210, #121, #601 ) ) ;
#915 = AXIS2_PLACEMENT_3D ( 'NONE', #361, #134, #292 ) ;
#916 = ORIENTED_EDGE ( 'NONE', *, *, #848, .F. ) ;
#917 = DIRECTION ( 'NONE',  ( -0.000000000000000000, 0.1736481776669339672, 0.9848077530122075762 ) ) ;
#918 = DIRECTION ( 'NONE',  ( 1.000000000000000000, -0.000000000000000000, 0.000000000000000000 ) ) ;
#919 = ORIENTED_EDGE ( 'NONE', *, *, #973, .F. ) ;
#920 = DIRECTION ( 'NONE',  ( 0.000000000000000000, -0.9848077530122073542, 0.1736481776669339949 ) ) ;
#921 = FACE_OUTER_BOUND ( 'NONE', #718, .T. ) ;
#922 = EDGE_LOOP ( 'NONE', ( #395, #117, #135, #489 ) ) ;
#923 = CARTESIAN_POINT ( 'NONE',  ( 59.75000000000000711, -4.999999999999998224, 2.500000000000000000 ) ) ;
#924 = EDGE_CURVE ( 'NONE', #126, #819, #386, .T. ) ;
#925 = DIRECTION ( 'NONE',  ( 0.000000000000000000, 0.1736481776669339672, 0.9848077530122075762 ) ) ;
#926 = CARTESIAN_POINT ( 'NONE',  ( 59.75000000000000711, 44.31634888554934548, -27.81416799501203840 ) ) ;
#927 = VERTEX_POINT ( 'NONE', #615 ) ;
#928 = FACE_OUTER_BOUND ( 'NONE', #643, .T. ) ;
#929 = VECTOR ( 'NONE', #119, 1000.000000000000227 ) ;
#930 = APPROVAL_STATUS ( 'not_yet_approved' ) ;
#931 = CARTESIAN_POINT ( 'NONE',  ( 65.75000000000001421, 27.67105812797025877, -93.42045043500138490 ) ) ;
#932 = EDGE_LOOP ( 'NONE', ( #114, #471, #860, #407 ) ) ;
#933 = CARTESIAN_POINT ( 'NONE',  ( 70.00000000000000000, 2.500000000000000444, 2.500000000000000444 ) ) ;
#934 = VECTOR ( 'NONE', #493, 1000.000000000000000 ) ;
#935 = EDGE_LOOP ( 'NONE', ( #696, #636, #301, #892 ) ) ;
#936 = ORIENTED_EDGE ( 'NONE', *, *, #869, .T. ) ;
#937 = DIRECTION ( 'NONE',  ( -1.387778780781445478E-15, -1.000000000000000000, -0.000000000000000000 ) ) ;
#938 = APPROVAL_ROLE ( '' ) ;
#939 = ORIENTED_EDGE ( 'NONE', *, *, #281, .T. ) ;
#940 = ORIENTED_EDGE ( 'NONE', *, *, #466, .T. ) ;
#941 = FACE_OUTER_BOUND ( 'NONE', #977, .T. ) ;
#942 = CYLINDRICAL_SURFACE ( 'NONE', #884, 3.000000000000001332 ) ;
#943 = AXIS2_PLACEMENT_3D ( 'NONE', #146, #288, #536 ) ;
#944 = PERSON_AND_ORGANIZATION_ROLE ( 'design_owner' ) ;
#945 = CARTESIAN_POINT ( 'NONE',  ( 65.75000000000000000, -5.000000000000000000, -67.50000000000000000 ) ) ;
#946 = VECTOR ( 'NONE', #300, 1000.000000000000227 ) ;
#947 = VERTEX_POINT ( 'NONE', #830 ) ;
#948 = CARTESIAN_POINT ( 'NONE',  ( 10.25000000000000000, 32.59509689303129676, -94.28869132333605307 ) ) ;
#949 = DIRECTION ( 'NONE',  ( 0.000000000000000000, -1.000000000000000000, -1.224646799147352961E-16 ) ) ;
#950 = APPROVAL_STATUS ( 'not_yet_approved' ) ;
#951 = LINE ( 'NONE', #259, #934 ) ;
#952 = DIRECTION ( 'NONE',  ( -0.000000000000000000, 0.1736481776669339672, 0.9848077530122075762 ) ) ;
#953 = DIRECTION ( 'NONE',  ( -3.469446951953613696E-16, 1.000000000000000000, 0.000000000000000000 ) ) ;
#954 = ADVANCED_FACE ( 'NONE', ( #222 ), #148, .F. ) ;
#955 = DIRECTION ( 'NONE',  ( 0.000000000000000000, 9.912705577010325549E-17, -1.000000000000000000 ) ) ;
#956 = FACE_OUTER_BOUND ( 'NONE', #162, .T. ) ;
#957 = DIRECTION ( 'NONE',  ( -0.000000000000000000, 1.000000000000000000, 6.938893903907228378E-16 ) ) ;
#958 = ORGANIZATION ( 'æœª', 'æœª', '' ) ;
#959 = LOCAL_TIME ( 18, 11, 29.00000000000000000, #784 ) ;
#960 = EDGE_CURVE ( 'NONE', #454, #603, #599, .T. ) ;
#961 = VERTEX_POINT ( 'NONE', #687 ) ;
#962 = AXIS2_PLACEMENT_3D ( 'NONE', #318, #302, #250 ) ;
#963 = VECTOR ( 'NONE', #700, 1000.000000000000227 ) ;
#964 = CARTESIAN_POINT ( 'NONE',  ( 70.00000000000000000, 54.16442641567140726, -29.55064977168136764 ) ) ;
#965 = DIRECTION ( 'NONE',  ( 0.000000000000000000, 0.000000000000000000, 1.000000000000000000 ) ) ;
#966 = EDGE_CURVE ( 'NONE', #124, #310, #70, .T. ) ;
#967 = ORIENTED_EDGE ( 'NONE', *, *, #184, .F. ) ;
#968 = PRODUCT_DEFINITION ( 'æœ', '', #529, #104 ) ;
#969 = FACE_OUTER_BOUND ( 'NONE', #45, .T. ) ;
#970 = VECTOR ( 'NONE', #209, 1000.000000000000114 ) ;
#971 = ORIENTED_EDGE ( 'NONE', *, *, #356, .T. ) ;
#972 = CARTESIAN_POINT ( 'NONE',  ( 7.250000000000000000, -10.00000000000000000, -67.50000000000000000 ) ) ;
#973 = EDGE_CURVE ( 'NONE', #269, #881, #170, .T. ) ;
#974 = PLANE ( 'NONE',  #584 ) ;
#975 = EDGE_CURVE ( 'NONE', #4, #907, #477, .T. ) ;
#976 = ORIENTED_EDGE ( 'NONE', *, *, #763, .T. ) ;
#977 = EDGE_LOOP ( 'NONE', ( #500, #122, #383, #256 ) ) ;
#978 = FACE_OUTER_BOUND ( 'NONE', #506, .T. ) ;
#979 = AXIS2_PLACEMENT_3D ( 'NONE', #223, #217, #278 ) ;
#980 = ORIENTED_EDGE ( 'NONE', *, *, #870, .F. ) ;
#981 = EDGE_CURVE ( 'NONE', #603, #234, #293, .T. ) ;
#982 = LINE ( 'NONE', #129, #275 ) ;
#983 = EDGE_CURVE ( 'NONE', #794, #454, #452, .T. ) ;
#984 = CARTESIAN_POINT ( 'NONE',  ( 0.000000000000000000, -15.00000000000000000, -1.836970198721029589E-15 ) ) ;
#985 = ORIENTED_EDGE ( 'NONE', *, *, #681, .T. ) ;
#986 = CARTESIAN_POINT ( 'NONE',  ( 10.25000000000000000, 32.59509689303129676, -94.28869132333605307 ) ) ;
#987 = DIRECTION ( 'NONE',  ( 0.000000000000000000, -0.9848077530122073542, 0.1736481776669339949 ) ) ;
#988 = CARTESIAN_POINT ( 'NONE',  ( 0.000000000000000000, 0.000000000000000000, -20.00000000000000000 ) ) ;
#989 = AXIS2_PLACEMENT_3D ( 'NONE', #77, #381, #404 ) ;
#990 = CARTESIAN_POINT ( 'NONE',  ( 62.75000000000001421, 39.82643056465563802, -24.48390772414684946 ) ) ;
#991 = CIRCLE ( 'NONE', #297, 3.000000000000000888 ) ;
#992 = CARTESIAN_POINT ( 'NONE',  ( 62.75000000000001421, 39.82643056465563802, -24.48390772414684946 ) ) ;
#993 = LINE ( 'NONE', #3, #481 ) ;
#994 = VERTEX_POINT ( 'NONE', #758 ) ;
#995 = EDGE_CURVE ( 'NONE', #366, #794, #862, .T. ) ;
#996 = ADVANCED_FACE ( 'NONE', ( #761, #228, #462 ), #768, .F. ) ;
#997 = CARTESIAN_POINT ( 'NONE',  ( 7.250000000000000000, 32.59509689303129676, -94.28869132333605307 ) ) ;
#998 = CARTESIAN_POINT ( 'NONE',  ( 7.250000000000000888, 27.67105812797025877, -93.42045043500138490 ) ) ;
#999 = ORIENTED_EDGE ( 'NONE', *, *, #624, .F. ) ;
ENDSEC;
END-ISO-10303-21;
