ISO-10303-21;
HEADER;
/* Generated by software containing ST-Developer
 * from STEP Tools, Inc. (www.steptools.com) 
 */
/* OPTION: strings as raw bytes, not using required /X/ escapes */

FILE_DESCRIPTION(
/* description */ ('Unknown'),
/* implementation_level */ '2;1');

FILE_NAME(
/* name */ 'ç®±ç›–',
/* time_stamp */ '2024-10-08T11:50:04+08:00',
/* author */ ('Unknown'),
/* organization */ ('Unknown'),
/* preprocessor_version */ 'ST-DEVELOPER v19.4',
/* originating_system */ 'Solid Edge',
/* authorisation */ 'Unknown');

FILE_SCHEMA (('AUTOMOTIVE_DESIGN {1 0 10303 214 3 1 1}'));
ENDSEC;

DATA;
#10=PROPERTY_DEFINITION_REPRESENTATION(#14,#12);
#11=PROPERTY_DEFINITION_REPRESENTATION(#15,#13);
#12=REPRESENTATION('',(#16),#903);
#13=REPRESENTATION('',(#17),#903);
#14=PROPERTY_DEFINITION('pmi validation property','',#908);
#15=PROPERTY_DEFINITION('pmi validation property','',#908);
#16=VALUE_REPRESENTATION_ITEM('number of annotations',COUNT_MEASURE(0.));
#17=VALUE_REPRESENTATION_ITEM('number of views',COUNT_MEASURE(0.));
#18=SHAPE_REPRESENTATION_RELATIONSHIP('','',#547,#19);
#19=ADVANCED_BREP_SHAPE_REPRESENTATION('',(#545),#903);
#20=CYLINDRICAL_SURFACE('',#593,11.);
#21=CYLINDRICAL_SURFACE('',#594,11.);
#22=CYLINDRICAL_SURFACE('',#595,11.);
#23=CYLINDRICAL_SURFACE('',#596,11.);
#24=CYLINDRICAL_SURFACE('',#597,11.);
#25=CYLINDRICAL_SURFACE('',#598,11.);
#26=CYLINDRICAL_SURFACE('',#599,11.);
#27=CYLINDRICAL_SURFACE('',#600,18.);
#28=CYLINDRICAL_SURFACE('',#601,6.);
#29=CYLINDRICAL_SURFACE('',#602,9.99999999999996);
#30=CYLINDRICAL_SURFACE('',#603,9.99999999999998);
#31=CYLINDRICAL_SURFACE('',#604,9.99999999999998);
#32=CYLINDRICAL_SURFACE('',#605,9.99999999999998);
#33=CYLINDRICAL_SURFACE('',#606,2.99999999999998);
#34=CYLINDRICAL_SURFACE('',#607,3.);
#35=CYLINDRICAL_SURFACE('',#608,3.);
#36=CYLINDRICAL_SURFACE('',#609,3.);
#37=CIRCLE('',#554,3.);
#38=CIRCLE('',#555,3.);
#39=CIRCLE('',#556,3.);
#40=CIRCLE('',#557,2.99999999999998);
#41=CIRCLE('',#558,6.);
#42=CIRCLE('',#559,18.);
#43=CIRCLE('',#560,11.);
#44=CIRCLE('',#561,11.);
#45=CIRCLE('',#562,11.);
#46=CIRCLE('',#563,11.);
#47=CIRCLE('',#564,11.);
#48=CIRCLE('',#565,11.);
#49=CIRCLE('',#566,11.);
#50=CIRCLE('',#567,9.99999999999998);
#51=CIRCLE('',#568,9.99999999999998);
#52=CIRCLE('',#569,9.99999999999996);
#53=CIRCLE('',#570,9.99999999999998);
#54=CIRCLE('',#572,3.);
#55=CIRCLE('',#573,3.);
#56=CIRCLE('',#574,3.);
#57=CIRCLE('',#575,2.99999999999998);
#58=CIRCLE('',#576,6.);
#59=CIRCLE('',#577,18.);
#60=CIRCLE('',#578,11.);
#61=CIRCLE('',#579,11.);
#62=CIRCLE('',#580,11.);
#63=CIRCLE('',#581,11.);
#64=CIRCLE('',#582,11.);
#65=CIRCLE('',#583,11.);
#66=CIRCLE('',#584,11.);
#67=CIRCLE('',#585,9.99999999999998);
#68=CIRCLE('',#586,9.99999999999998);
#69=CIRCLE('',#587,9.99999999999996);
#70=CIRCLE('',#588,9.99999999999998);
#71=ORIENTED_EDGE('',*,*,#195,.F.);
#72=ORIENTED_EDGE('',*,*,#196,.T.);
#73=ORIENTED_EDGE('',*,*,#197,.T.);
#74=ORIENTED_EDGE('',*,*,#198,.T.);
#75=ORIENTED_EDGE('',*,*,#199,.T.);
#76=ORIENTED_EDGE('',*,*,#200,.T.);
#77=ORIENTED_EDGE('',*,*,#201,.F.);
#78=ORIENTED_EDGE('',*,*,#202,.T.);
#79=ORIENTED_EDGE('',*,*,#203,.T.);
#80=ORIENTED_EDGE('',*,*,#204,.T.);
#81=ORIENTED_EDGE('',*,*,#205,.F.);
#82=ORIENTED_EDGE('',*,*,#206,.T.);
#83=ORIENTED_EDGE('',*,*,#207,.F.);
#84=ORIENTED_EDGE('',*,*,#208,.T.);
#85=ORIENTED_EDGE('',*,*,#209,.T.);
#86=ORIENTED_EDGE('',*,*,#210,.T.);
#87=ORIENTED_EDGE('',*,*,#211,.T.);
#88=ORIENTED_EDGE('',*,*,#212,.T.);
#89=ORIENTED_EDGE('',*,*,#213,.T.);
#90=ORIENTED_EDGE('',*,*,#214,.T.);
#91=ORIENTED_EDGE('',*,*,#215,.T.);
#92=ORIENTED_EDGE('',*,*,#216,.T.);
#93=ORIENTED_EDGE('',*,*,#217,.T.);
#94=ORIENTED_EDGE('',*,*,#218,.T.);
#95=ORIENTED_EDGE('',*,*,#219,.T.);
#96=ORIENTED_EDGE('',*,*,#220,.T.);
#97=ORIENTED_EDGE('',*,*,#221,.T.);
#98=ORIENTED_EDGE('',*,*,#222,.T.);
#99=ORIENTED_EDGE('',*,*,#223,.T.);
#100=ORIENTED_EDGE('',*,*,#224,.F.);
#101=ORIENTED_EDGE('',*,*,#225,.F.);
#102=ORIENTED_EDGE('',*,*,#226,.F.);
#103=ORIENTED_EDGE('',*,*,#227,.F.);
#104=ORIENTED_EDGE('',*,*,#205,.T.);
#105=ORIENTED_EDGE('',*,*,#228,.T.);
#106=ORIENTED_EDGE('',*,*,#207,.T.);
#107=ORIENTED_EDGE('',*,*,#229,.T.);
#108=ORIENTED_EDGE('',*,*,#195,.T.);
#109=ORIENTED_EDGE('',*,*,#230,.T.);
#110=ORIENTED_EDGE('',*,*,#201,.T.);
#111=ORIENTED_EDGE('',*,*,#231,.T.);
#112=ORIENTED_EDGE('',*,*,#232,.F.);
#113=ORIENTED_EDGE('',*,*,#233,.F.);
#114=ORIENTED_EDGE('',*,*,#234,.F.);
#115=ORIENTED_EDGE('',*,*,#235,.F.);
#116=ORIENTED_EDGE('',*,*,#236,.F.);
#117=ORIENTED_EDGE('',*,*,#237,.F.);
#118=ORIENTED_EDGE('',*,*,#238,.F.);
#119=ORIENTED_EDGE('',*,*,#239,.F.);
#120=ORIENTED_EDGE('',*,*,#240,.F.);
#121=ORIENTED_EDGE('',*,*,#241,.F.);
#122=ORIENTED_EDGE('',*,*,#242,.F.);
#123=ORIENTED_EDGE('',*,*,#243,.F.);
#124=ORIENTED_EDGE('',*,*,#244,.F.);
#125=ORIENTED_EDGE('',*,*,#245,.T.);
#126=ORIENTED_EDGE('',*,*,#246,.T.);
#127=ORIENTED_EDGE('',*,*,#247,.T.);
#128=ORIENTED_EDGE('',*,*,#248,.T.);
#129=ORIENTED_EDGE('',*,*,#209,.F.);
#130=ORIENTED_EDGE('',*,*,#249,.T.);
#131=ORIENTED_EDGE('',*,*,#203,.F.);
#132=ORIENTED_EDGE('',*,*,#250,.T.);
#133=ORIENTED_EDGE('',*,*,#199,.F.);
#134=ORIENTED_EDGE('',*,*,#251,.T.);
#135=ORIENTED_EDGE('',*,*,#197,.F.);
#136=ORIENTED_EDGE('',*,*,#252,.T.);
#137=ORIENTED_EDGE('',*,*,#253,.T.);
#138=ORIENTED_EDGE('',*,*,#224,.T.);
#139=ORIENTED_EDGE('',*,*,#254,.F.);
#140=ORIENTED_EDGE('',*,*,#246,.F.);
#141=ORIENTED_EDGE('',*,*,#254,.T.);
#142=ORIENTED_EDGE('',*,*,#227,.T.);
#143=ORIENTED_EDGE('',*,*,#255,.F.);
#144=ORIENTED_EDGE('',*,*,#247,.F.);
#145=ORIENTED_EDGE('',*,*,#255,.T.);
#146=ORIENTED_EDGE('',*,*,#226,.T.);
#147=ORIENTED_EDGE('',*,*,#256,.F.);
#148=ORIENTED_EDGE('',*,*,#248,.F.);
#149=ORIENTED_EDGE('',*,*,#256,.T.);
#150=ORIENTED_EDGE('',*,*,#225,.T.);
#151=ORIENTED_EDGE('',*,*,#253,.F.);
#152=ORIENTED_EDGE('',*,*,#245,.F.);
#153=ORIENTED_EDGE('',*,*,#223,.F.);
#154=ORIENTED_EDGE('',*,*,#244,.T.);
#155=ORIENTED_EDGE('',*,*,#222,.F.);
#156=ORIENTED_EDGE('',*,*,#243,.T.);
#157=ORIENTED_EDGE('',*,*,#221,.F.);
#158=ORIENTED_EDGE('',*,*,#242,.T.);
#159=ORIENTED_EDGE('',*,*,#220,.F.);
#160=ORIENTED_EDGE('',*,*,#241,.T.);
#161=ORIENTED_EDGE('',*,*,#219,.F.);
#162=ORIENTED_EDGE('',*,*,#240,.T.);
#163=ORIENTED_EDGE('',*,*,#218,.F.);
#164=ORIENTED_EDGE('',*,*,#239,.T.);
#165=ORIENTED_EDGE('',*,*,#217,.F.);
#166=ORIENTED_EDGE('',*,*,#238,.T.);
#167=ORIENTED_EDGE('',*,*,#216,.F.);
#168=ORIENTED_EDGE('',*,*,#237,.T.);
#169=ORIENTED_EDGE('',*,*,#215,.F.);
#170=ORIENTED_EDGE('',*,*,#236,.T.);
#171=ORIENTED_EDGE('',*,*,#230,.F.);
#172=ORIENTED_EDGE('',*,*,#198,.F.);
#173=ORIENTED_EDGE('',*,*,#251,.F.);
#174=ORIENTED_EDGE('',*,*,#202,.F.);
#175=ORIENTED_EDGE('',*,*,#229,.F.);
#176=ORIENTED_EDGE('',*,*,#210,.F.);
#177=ORIENTED_EDGE('',*,*,#252,.F.);
#178=ORIENTED_EDGE('',*,*,#196,.F.);
#179=ORIENTED_EDGE('',*,*,#231,.F.);
#180=ORIENTED_EDGE('',*,*,#200,.F.);
#181=ORIENTED_EDGE('',*,*,#250,.F.);
#182=ORIENTED_EDGE('',*,*,#206,.F.);
#183=ORIENTED_EDGE('',*,*,#228,.F.);
#184=ORIENTED_EDGE('',*,*,#204,.F.);
#185=ORIENTED_EDGE('',*,*,#249,.F.);
#186=ORIENTED_EDGE('',*,*,#208,.F.);
#187=ORIENTED_EDGE('',*,*,#214,.F.);
#188=ORIENTED_EDGE('',*,*,#235,.T.);
#189=ORIENTED_EDGE('',*,*,#213,.F.);
#190=ORIENTED_EDGE('',*,*,#234,.T.);
#191=ORIENTED_EDGE('',*,*,#212,.F.);
#192=ORIENTED_EDGE('',*,*,#233,.T.);
#193=ORIENTED_EDGE('',*,*,#211,.F.);
#194=ORIENTED_EDGE('',*,*,#232,.T.);
#195=EDGE_CURVE('',#257,#258,#307,.T.);
#196=EDGE_CURVE('',#257,#259,#308,.T.);
#197=EDGE_CURVE('',#259,#260,#309,.T.);
#198=EDGE_CURVE('',#260,#258,#310,.F.);
#199=EDGE_CURVE('',#261,#262,#311,.T.);
#200=EDGE_CURVE('',#262,#263,#312,.F.);
#201=EDGE_CURVE('',#264,#263,#313,.T.);
#202=EDGE_CURVE('',#264,#261,#314,.T.);
#203=EDGE_CURVE('',#265,#266,#315,.T.);
#204=EDGE_CURVE('',#266,#267,#316,.F.);
#205=EDGE_CURVE('',#268,#267,#317,.T.);
#206=EDGE_CURVE('',#268,#265,#318,.T.);
#207=EDGE_CURVE('',#269,#270,#319,.T.);
#208=EDGE_CURVE('',#269,#271,#320,.T.);
#209=EDGE_CURVE('',#271,#272,#321,.T.);
#210=EDGE_CURVE('',#272,#270,#322,.F.);
#211=EDGE_CURVE('',#273,#273,#37,.T.);
#212=EDGE_CURVE('',#274,#274,#38,.T.);
#213=EDGE_CURVE('',#275,#275,#39,.T.);
#214=EDGE_CURVE('',#276,#276,#40,.T.);
#215=EDGE_CURVE('',#277,#277,#41,.T.);
#216=EDGE_CURVE('',#278,#278,#42,.T.);
#217=EDGE_CURVE('',#279,#279,#43,.T.);
#218=EDGE_CURVE('',#280,#280,#44,.T.);
#219=EDGE_CURVE('',#281,#281,#45,.T.);
#220=EDGE_CURVE('',#282,#282,#46,.T.);
#221=EDGE_CURVE('',#283,#283,#47,.T.);
#222=EDGE_CURVE('',#284,#284,#48,.T.);
#223=EDGE_CURVE('',#285,#285,#49,.T.);
#224=EDGE_CURVE('',#286,#287,#323,.T.);
#225=EDGE_CURVE('',#288,#286,#324,.T.);
#226=EDGE_CURVE('',#289,#288,#325,.T.);
#227=EDGE_CURVE('',#287,#289,#326,.T.);
#228=EDGE_CURVE('',#267,#269,#50,.T.);
#229=EDGE_CURVE('',#270,#257,#51,.T.);
#230=EDGE_CURVE('',#258,#264,#52,.T.);
#231=EDGE_CURVE('',#263,#268,#53,.T.);
#232=EDGE_CURVE('',#290,#290,#54,.F.);
#233=EDGE_CURVE('',#291,#291,#55,.F.);
#234=EDGE_CURVE('',#292,#292,#56,.F.);
#235=EDGE_CURVE('',#293,#293,#57,.F.);
#236=EDGE_CURVE('',#294,#294,#58,.F.);
#237=EDGE_CURVE('',#295,#295,#59,.F.);
#238=EDGE_CURVE('',#296,#296,#60,.F.);
#239=EDGE_CURVE('',#297,#297,#61,.F.);
#240=EDGE_CURVE('',#298,#298,#62,.F.);
#241=EDGE_CURVE('',#299,#299,#63,.F.);
#242=EDGE_CURVE('',#300,#300,#64,.F.);
#243=EDGE_CURVE('',#301,#301,#65,.F.);
#244=EDGE_CURVE('',#302,#302,#66,.F.);
#245=EDGE_CURVE('',#303,#304,#327,.T.);
#246=EDGE_CURVE('',#304,#305,#328,.T.);
#247=EDGE_CURVE('',#305,#306,#329,.T.);
#248=EDGE_CURVE('',#306,#303,#330,.T.);
#249=EDGE_CURVE('',#271,#266,#67,.F.);
#250=EDGE_CURVE('',#265,#262,#68,.F.);
#251=EDGE_CURVE('',#261,#260,#69,.F.);
#252=EDGE_CURVE('',#259,#272,#70,.F.);
#253=EDGE_CURVE('',#304,#286,#331,.T.);
#254=EDGE_CURVE('',#305,#287,#332,.T.);
#255=EDGE_CURVE('',#306,#289,#333,.T.);
#256=EDGE_CURVE('',#303,#288,#334,.T.);
#257=VERTEX_POINT('',#765);
#258=VERTEX_POINT('',#766);
#259=VERTEX_POINT('',#768);
#260=VERTEX_POINT('',#770);
#261=VERTEX_POINT('',#774);
#262=VERTEX_POINT('',#775);
#263=VERTEX_POINT('',#777);
#264=VERTEX_POINT('',#779);
#265=VERTEX_POINT('',#783);
#266=VERTEX_POINT('',#784);
#267=VERTEX_POINT('',#786);
#268=VERTEX_POINT('',#788);
#269=VERTEX_POINT('',#792);
#270=VERTEX_POINT('',#793);
#271=VERTEX_POINT('',#795);
#272=VERTEX_POINT('',#797);
#273=VERTEX_POINT('',#801);
#274=VERTEX_POINT('',#803);
#275=VERTEX_POINT('',#805);
#276=VERTEX_POINT('',#807);
#277=VERTEX_POINT('',#809);
#278=VERTEX_POINT('',#811);
#279=VERTEX_POINT('',#813);
#280=VERTEX_POINT('',#815);
#281=VERTEX_POINT('',#817);
#282=VERTEX_POINT('',#819);
#283=VERTEX_POINT('',#821);
#284=VERTEX_POINT('',#823);
#285=VERTEX_POINT('',#825);
#286=VERTEX_POINT('',#827);
#287=VERTEX_POINT('',#828);
#288=VERTEX_POINT('',#830);
#289=VERTEX_POINT('',#832);
#290=VERTEX_POINT('',#840);
#291=VERTEX_POINT('',#842);
#292=VERTEX_POINT('',#844);
#293=VERTEX_POINT('',#846);
#294=VERTEX_POINT('',#848);
#295=VERTEX_POINT('',#850);
#296=VERTEX_POINT('',#852);
#297=VERTEX_POINT('',#854);
#298=VERTEX_POINT('',#856);
#299=VERTEX_POINT('',#858);
#300=VERTEX_POINT('',#860);
#301=VERTEX_POINT('',#862);
#302=VERTEX_POINT('',#864);
#303=VERTEX_POINT('',#866);
#304=VERTEX_POINT('',#867);
#305=VERTEX_POINT('',#869);
#306=VERTEX_POINT('',#871);
#307=LINE('',#764,#335);
#308=LINE('',#767,#336);
#309=LINE('',#769,#337);
#310=LINE('',#771,#338);
#311=LINE('',#773,#339);
#312=LINE('',#776,#340);
#313=LINE('',#778,#341);
#314=LINE('',#780,#342);
#315=LINE('',#782,#343);
#316=LINE('',#785,#344);
#317=LINE('',#787,#345);
#318=LINE('',#789,#346);
#319=LINE('',#791,#347);
#320=LINE('',#794,#348);
#321=LINE('',#796,#349);
#322=LINE('',#798,#350);
#323=LINE('',#826,#351);
#324=LINE('',#829,#352);
#325=LINE('',#831,#353);
#326=LINE('',#833,#354);
#327=LINE('',#865,#355);
#328=LINE('',#868,#356);
#329=LINE('',#870,#357);
#330=LINE('',#872,#358);
#331=LINE('',#878,#359);
#332=LINE('',#879,#360);
#333=LINE('',#881,#361);
#334=LINE('',#883,#362);
#335=VECTOR('',#614,1000.);
#336=VECTOR('',#615,1000.);
#337=VECTOR('',#616,1000.);
#338=VECTOR('',#617,1000.);
#339=VECTOR('',#620,1000.);
#340=VECTOR('',#621,1000.);
#341=VECTOR('',#622,1000.);
#342=VECTOR('',#623,1000.);
#343=VECTOR('',#626,1000.);
#344=VECTOR('',#627,1000.);
#345=VECTOR('',#628,1000.);
#346=VECTOR('',#629,1000.);
#347=VECTOR('',#632,1000.);
#348=VECTOR('',#633,1000.);
#349=VECTOR('',#634,1000.);
#350=VECTOR('',#635,1000.);
#351=VECTOR('',#664,1000.);
#352=VECTOR('',#665,1000.);
#353=VECTOR('',#666,1000.);
#354=VECTOR('',#667,1000.);
#355=VECTOR('',#704,1000.);
#356=VECTOR('',#705,1000.);
#357=VECTOR('',#706,1000.);
#358=VECTOR('',#707,1000.);
#359=VECTOR('',#718,1000.);
#360=VECTOR('',#719,1000.);
#361=VECTOR('',#722,1000.);
#362=VECTOR('',#725,1000.);
#363=EDGE_LOOP('',(#71,#72,#73,#74));
#364=EDGE_LOOP('',(#75,#76,#77,#78));
#365=EDGE_LOOP('',(#79,#80,#81,#82));
#366=EDGE_LOOP('',(#83,#84,#85,#86));
#367=EDGE_LOOP('',(#87));
#368=EDGE_LOOP('',(#88));
#369=EDGE_LOOP('',(#89));
#370=EDGE_LOOP('',(#90));
#371=EDGE_LOOP('',(#91));
#372=EDGE_LOOP('',(#92));
#373=EDGE_LOOP('',(#93));
#374=EDGE_LOOP('',(#94));
#375=EDGE_LOOP('',(#95));
#376=EDGE_LOOP('',(#96));
#377=EDGE_LOOP('',(#97));
#378=EDGE_LOOP('',(#98));
#379=EDGE_LOOP('',(#99));
#380=EDGE_LOOP('',(#100,#101,#102,#103));
#381=EDGE_LOOP('',(#104,#105,#106,#107,#108,#109,#110,#111));
#382=EDGE_LOOP('',(#112));
#383=EDGE_LOOP('',(#113));
#384=EDGE_LOOP('',(#114));
#385=EDGE_LOOP('',(#115));
#386=EDGE_LOOP('',(#116));
#387=EDGE_LOOP('',(#117));
#388=EDGE_LOOP('',(#118));
#389=EDGE_LOOP('',(#119));
#390=EDGE_LOOP('',(#120));
#391=EDGE_LOOP('',(#121));
#392=EDGE_LOOP('',(#122));
#393=EDGE_LOOP('',(#123));
#394=EDGE_LOOP('',(#124));
#395=EDGE_LOOP('',(#125,#126,#127,#128));
#396=EDGE_LOOP('',(#129,#130,#131,#132,#133,#134,#135,#136));
#397=EDGE_LOOP('',(#137,#138,#139,#140));
#398=EDGE_LOOP('',(#141,#142,#143,#144));
#399=EDGE_LOOP('',(#145,#146,#147,#148));
#400=EDGE_LOOP('',(#149,#150,#151,#152));
#401=EDGE_LOOP('',(#153));
#402=EDGE_LOOP('',(#154));
#403=EDGE_LOOP('',(#155));
#404=EDGE_LOOP('',(#156));
#405=EDGE_LOOP('',(#157));
#406=EDGE_LOOP('',(#158));
#407=EDGE_LOOP('',(#159));
#408=EDGE_LOOP('',(#160));
#409=EDGE_LOOP('',(#161));
#410=EDGE_LOOP('',(#162));
#411=EDGE_LOOP('',(#163));
#412=EDGE_LOOP('',(#164));
#413=EDGE_LOOP('',(#165));
#414=EDGE_LOOP('',(#166));
#415=EDGE_LOOP('',(#167));
#416=EDGE_LOOP('',(#168));
#417=EDGE_LOOP('',(#169));
#418=EDGE_LOOP('',(#170));
#419=EDGE_LOOP('',(#171,#172,#173,#174));
#420=EDGE_LOOP('',(#175,#176,#177,#178));
#421=EDGE_LOOP('',(#179,#180,#181,#182));
#422=EDGE_LOOP('',(#183,#184,#185,#186));
#423=EDGE_LOOP('',(#187));
#424=EDGE_LOOP('',(#188));
#425=EDGE_LOOP('',(#189));
#426=EDGE_LOOP('',(#190));
#427=EDGE_LOOP('',(#191));
#428=EDGE_LOOP('',(#192));
#429=EDGE_LOOP('',(#193));
#430=EDGE_LOOP('',(#194));
#431=FACE_BOUND('',#363,.T.);
#432=FACE_BOUND('',#364,.T.);
#433=FACE_BOUND('',#365,.T.);
#434=FACE_BOUND('',#366,.T.);
#435=FACE_BOUND('',#367,.T.);
#436=FACE_BOUND('',#368,.T.);
#437=FACE_BOUND('',#369,.T.);
#438=FACE_BOUND('',#370,.T.);
#439=FACE_BOUND('',#371,.T.);
#440=FACE_BOUND('',#372,.T.);
#441=FACE_BOUND('',#373,.T.);
#442=FACE_BOUND('',#374,.T.);
#443=FACE_BOUND('',#375,.T.);
#444=FACE_BOUND('',#376,.T.);
#445=FACE_BOUND('',#377,.T.);
#446=FACE_BOUND('',#378,.T.);
#447=FACE_BOUND('',#379,.T.);
#448=FACE_BOUND('',#380,.T.);
#449=FACE_BOUND('',#381,.T.);
#450=FACE_BOUND('',#382,.T.);
#451=FACE_BOUND('',#383,.T.);
#452=FACE_BOUND('',#384,.T.);
#453=FACE_BOUND('',#385,.T.);
#454=FACE_BOUND('',#386,.T.);
#455=FACE_BOUND('',#387,.T.);
#456=FACE_BOUND('',#388,.T.);
#457=FACE_BOUND('',#389,.T.);
#458=FACE_BOUND('',#390,.T.);
#459=FACE_BOUND('',#391,.T.);
#460=FACE_BOUND('',#392,.T.);
#461=FACE_BOUND('',#393,.T.);
#462=FACE_BOUND('',#394,.T.);
#463=FACE_BOUND('',#395,.T.);
#464=FACE_BOUND('',#396,.T.);
#465=FACE_BOUND('',#397,.T.);
#466=FACE_BOUND('',#398,.T.);
#467=FACE_BOUND('',#399,.T.);
#468=FACE_BOUND('',#400,.T.);
#469=FACE_BOUND('',#401,.T.);
#470=FACE_BOUND('',#402,.T.);
#471=FACE_BOUND('',#403,.T.);
#472=FACE_BOUND('',#404,.T.);
#473=FACE_BOUND('',#405,.T.);
#474=FACE_BOUND('',#406,.T.);
#475=FACE_BOUND('',#407,.T.);
#476=FACE_BOUND('',#408,.T.);
#477=FACE_BOUND('',#409,.T.);
#478=FACE_BOUND('',#410,.T.);
#479=FACE_BOUND('',#411,.T.);
#480=FACE_BOUND('',#412,.T.);
#481=FACE_BOUND('',#413,.T.);
#482=FACE_BOUND('',#414,.T.);
#483=FACE_BOUND('',#415,.T.);
#484=FACE_BOUND('',#416,.T.);
#485=FACE_BOUND('',#417,.T.);
#486=FACE_BOUND('',#418,.T.);
#487=FACE_BOUND('',#419,.T.);
#488=FACE_BOUND('',#420,.T.);
#489=FACE_BOUND('',#421,.T.);
#490=FACE_BOUND('',#422,.T.);
#491=FACE_BOUND('',#423,.T.);
#492=FACE_BOUND('',#424,.T.);
#493=FACE_BOUND('',#425,.T.);
#494=FACE_BOUND('',#426,.T.);
#495=FACE_BOUND('',#427,.T.);
#496=FACE_BOUND('',#428,.T.);
#497=FACE_BOUND('',#429,.T.);
#498=FACE_BOUND('',#430,.T.);
#499=PLANE('',#549);
#500=PLANE('',#550);
#501=PLANE('',#551);
#502=PLANE('',#552);
#503=PLANE('',#553);
#504=PLANE('',#571);
#505=PLANE('',#589);
#506=PLANE('',#590);
#507=PLANE('',#591);
#508=PLANE('',#592);
#509=ADVANCED_FACE('',(#431),#499,.F.);
#510=ADVANCED_FACE('',(#432),#500,.F.);
#511=ADVANCED_FACE('',(#433),#501,.F.);
#512=ADVANCED_FACE('',(#434),#502,.F.);
#513=ADVANCED_FACE('',(#435,#436,#437,#438,#439,#440,#441,#442,#443,#444,
#445,#446,#447,#448,#449),#503,.T.);
#514=ADVANCED_FACE('',(#450,#451,#452,#453,#454,#455,#456,#457,#458,#459,
#460,#461,#462,#463,#464),#504,.F.);
#515=ADVANCED_FACE('',(#465),#505,.F.);
#516=ADVANCED_FACE('',(#466),#506,.F.);
#517=ADVANCED_FACE('',(#467),#507,.F.);
#518=ADVANCED_FACE('',(#468),#508,.F.);
#519=ADVANCED_FACE('',(#469,#470),#20,.F.);
#520=ADVANCED_FACE('',(#471,#472),#21,.F.);
#521=ADVANCED_FACE('',(#473,#474),#22,.F.);
#522=ADVANCED_FACE('',(#475,#476),#23,.F.);
#523=ADVANCED_FACE('',(#477,#478),#24,.F.);
#524=ADVANCED_FACE('',(#479,#480),#25,.F.);
#525=ADVANCED_FACE('',(#481,#482),#26,.F.);
#526=ADVANCED_FACE('',(#483,#484),#27,.F.);
#527=ADVANCED_FACE('',(#485,#486),#28,.F.);
#528=ADVANCED_FACE('',(#487),#29,.T.);
#529=ADVANCED_FACE('',(#488),#30,.T.);
#530=ADVANCED_FACE('',(#489),#31,.T.);
#531=ADVANCED_FACE('',(#490),#32,.T.);
#532=ADVANCED_FACE('',(#491,#492),#33,.F.);
#533=ADVANCED_FACE('',(#493,#494),#34,.F.);
#534=ADVANCED_FACE('',(#495,#496),#35,.F.);
#535=ADVANCED_FACE('',(#497,#498),#36,.F.);
#536=CLOSED_SHELL('',(#509,#510,#511,#512,#513,#514,#515,#516,#517,#518,
#519,#520,#521,#522,#523,#524,#525,#526,#527,#528,#529,#530,#531,#532,#533,
#534,#535));
#537=STYLED_ITEM('',(#538),#545);
#538=PRESENTATION_STYLE_ASSIGNMENT((#539));
#539=SURFACE_STYLE_USAGE(.BOTH.,#540);
#540=SURFACE_SIDE_STYLE('',(#541));
#541=SURFACE_STYLE_FILL_AREA(#542);
#542=FILL_AREA_STYLE('',(#543));
#543=FILL_AREA_STYLE_COLOUR('',#544);
#544=COLOUR_RGB('',0.506983280181885,0.531564235687256,0.550000011920929);
#545=MANIFOLD_SOLID_BREP('',#536);
#546=SHAPE_DEFINITION_REPRESENTATION(#908,#547);
#547=SHAPE_REPRESENTATION('Áã¼þ3',(#548),#903);
#548=AXIS2_PLACEMENT_3D('',#762,#610,#611);
#549=AXIS2_PLACEMENT_3D('',#763,#612,#613);
#550=AXIS2_PLACEMENT_3D('',#772,#618,#619);
#551=AXIS2_PLACEMENT_3D('',#781,#624,#625);
#552=AXIS2_PLACEMENT_3D('',#790,#630,#631);
#553=AXIS2_PLACEMENT_3D('',#799,#636,#637);
#554=AXIS2_PLACEMENT_3D('',#800,#638,#639);
#555=AXIS2_PLACEMENT_3D('',#802,#640,#641);
#556=AXIS2_PLACEMENT_3D('',#804,#642,#643);
#557=AXIS2_PLACEMENT_3D('',#806,#644,#645);
#558=AXIS2_PLACEMENT_3D('',#808,#646,#647);
#559=AXIS2_PLACEMENT_3D('',#810,#648,#649);
#560=AXIS2_PLACEMENT_3D('',#812,#650,#651);
#561=AXIS2_PLACEMENT_3D('',#814,#652,#653);
#562=AXIS2_PLACEMENT_3D('',#816,#654,#655);
#563=AXIS2_PLACEMENT_3D('',#818,#656,#657);
#564=AXIS2_PLACEMENT_3D('',#820,#658,#659);
#565=AXIS2_PLACEMENT_3D('',#822,#660,#661);
#566=AXIS2_PLACEMENT_3D('',#824,#662,#663);
#567=AXIS2_PLACEMENT_3D('',#834,#668,#669);
#568=AXIS2_PLACEMENT_3D('',#835,#670,#671);
#569=AXIS2_PLACEMENT_3D('',#836,#672,#673);
#570=AXIS2_PLACEMENT_3D('',#837,#674,#675);
#571=AXIS2_PLACEMENT_3D('',#838,#676,#677);
#572=AXIS2_PLACEMENT_3D('',#839,#678,#679);
#573=AXIS2_PLACEMENT_3D('',#841,#680,#681);
#574=AXIS2_PLACEMENT_3D('',#843,#682,#683);
#575=AXIS2_PLACEMENT_3D('',#845,#684,#685);
#576=AXIS2_PLACEMENT_3D('',#847,#686,#687);
#577=AXIS2_PLACEMENT_3D('',#849,#688,#689);
#578=AXIS2_PLACEMENT_3D('',#851,#690,#691);
#579=AXIS2_PLACEMENT_3D('',#853,#692,#693);
#580=AXIS2_PLACEMENT_3D('',#855,#694,#695);
#581=AXIS2_PLACEMENT_3D('',#857,#696,#697);
#582=AXIS2_PLACEMENT_3D('',#859,#698,#699);
#583=AXIS2_PLACEMENT_3D('',#861,#700,#701);
#584=AXIS2_PLACEMENT_3D('',#863,#702,#703);
#585=AXIS2_PLACEMENT_3D('',#873,#708,#709);
#586=AXIS2_PLACEMENT_3D('',#874,#710,#711);
#587=AXIS2_PLACEMENT_3D('',#875,#712,#713);
#588=AXIS2_PLACEMENT_3D('',#876,#714,#715);
#589=AXIS2_PLACEMENT_3D('',#877,#716,#717);
#590=AXIS2_PLACEMENT_3D('',#880,#720,#721);
#591=AXIS2_PLACEMENT_3D('',#882,#723,#724);
#592=AXIS2_PLACEMENT_3D('',#884,#726,#727);
#593=AXIS2_PLACEMENT_3D('',#885,#728,#729);
#594=AXIS2_PLACEMENT_3D('',#886,#730,#731);
#595=AXIS2_PLACEMENT_3D('',#887,#732,#733);
#596=AXIS2_PLACEMENT_3D('',#888,#734,#735);
#597=AXIS2_PLACEMENT_3D('',#889,#736,#737);
#598=AXIS2_PLACEMENT_3D('',#890,#738,#739);
#599=AXIS2_PLACEMENT_3D('',#891,#740,#741);
#600=AXIS2_PLACEMENT_3D('',#892,#742,#743);
#601=AXIS2_PLACEMENT_3D('',#893,#744,#745);
#602=AXIS2_PLACEMENT_3D('',#894,#746,#747);
#603=AXIS2_PLACEMENT_3D('',#895,#748,#749);
#604=AXIS2_PLACEMENT_3D('',#896,#750,#751);
#605=AXIS2_PLACEMENT_3D('',#897,#752,#753);
#606=AXIS2_PLACEMENT_3D('',#898,#754,#755);
#607=AXIS2_PLACEMENT_3D('',#899,#756,#757);
#608=AXIS2_PLACEMENT_3D('',#900,#758,#759);
#609=AXIS2_PLACEMENT_3D('',#901,#760,#761);
#610=DIRECTION('',(0.,0.,1.));
#611=DIRECTION('',(1.,0.,0.));
#612=DIRECTION('',(0.,0.,1.));
#613=DIRECTION('',(1.,0.,0.));
#614=DIRECTION('',(1.,0.,0.));
#615=DIRECTION('',(0.,1.,0.));
#616=DIRECTION('',(1.,0.,0.));
#617=DIRECTION('',(0.,1.,0.));
#618=DIRECTION('',(-1.,0.,0.));
#619=DIRECTION('',(0.,0.,1.));
#620=DIRECTION('',(0.,0.,1.));
#621=DIRECTION('',(0.,1.,0.));
#622=DIRECTION('',(0.,0.,1.));
#623=DIRECTION('',(0.,1.,0.));
#624=DIRECTION('',(0.,0.,-1.));
#625=DIRECTION('',(-1.,0.,0.));
#626=DIRECTION('',(-1.,0.,0.));
#627=DIRECTION('',(0.,1.,0.));
#628=DIRECTION('',(-1.,0.,0.));
#629=DIRECTION('',(0.,1.,0.));
#630=DIRECTION('',(1.,0.,0.));
#631=DIRECTION('',(0.,0.,-1.));
#632=DIRECTION('',(0.,0.,-1.));
#633=DIRECTION('',(0.,1.,0.));
#634=DIRECTION('',(0.,0.,-1.));
#635=DIRECTION('',(0.,1.,0.));
#636=DIRECTION('',(0.,-1.,0.));
#637=DIRECTION('',(0.,0.,-1.));
#638=DIRECTION('',(0.,1.,0.));
#639=DIRECTION('',(1.,0.,0.));
#640=DIRECTION('',(0.,1.,0.));
#641=DIRECTION('',(1.,0.,0.));
#642=DIRECTION('',(0.,1.,0.));
#643=DIRECTION('',(1.,0.,0.));
#644=DIRECTION('',(0.,1.,0.));
#645=DIRECTION('',(1.,0.,0.));
#646=DIRECTION('',(0.,1.,0.));
#647=DIRECTION('',(1.,0.,0.));
#648=DIRECTION('',(0.,1.,0.));
#649=DIRECTION('',(1.,0.,0.));
#650=DIRECTION('',(0.,1.,0.));
#651=DIRECTION('',(1.,0.,0.));
#652=DIRECTION('',(0.,1.,0.));
#653=DIRECTION('',(1.,0.,0.));
#654=DIRECTION('',(0.,1.,0.));
#655=DIRECTION('',(1.,0.,0.));
#656=DIRECTION('',(0.,1.,0.));
#657=DIRECTION('',(-1.,0.,0.));
#658=DIRECTION('',(0.,1.,0.));
#659=DIRECTION('',(1.,0.,0.));
#660=DIRECTION('',(0.,1.,0.));
#661=DIRECTION('',(1.,0.,0.));
#662=DIRECTION('',(0.,1.,0.));
#663=DIRECTION('',(1.,0.,0.));
#664=DIRECTION('',(0.,0.,1.));
#665=DIRECTION('',(1.,0.,-4.55009436321785E-16));
#666=DIRECTION('',(0.,0.,-1.));
#667=DIRECTION('',(-1.,0.,0.));
#668=DIRECTION('',(0.,-1.,0.));
#669=DIRECTION('',(0.,0.,-1.));
#670=DIRECTION('',(0.,-1.,0.));
#671=DIRECTION('',(0.,0.,-1.));
#672=DIRECTION('',(0.,-1.,0.));
#673=DIRECTION('',(0.,0.,-1.));
#674=DIRECTION('',(0.,-1.,0.));
#675=DIRECTION('',(0.,0.,-1.));
#676=DIRECTION('',(0.,-1.,0.));
#677=DIRECTION('',(0.,0.,-1.));
#678=DIRECTION('',(0.,-1.,0.));
#679=DIRECTION('',(0.,0.,-1.));
#680=DIRECTION('',(0.,-1.,0.));
#681=DIRECTION('',(0.,0.,-1.));
#682=DIRECTION('',(0.,-1.,0.));
#683=DIRECTION('',(0.,0.,-1.));
#684=DIRECTION('',(0.,-1.,0.));
#685=DIRECTION('',(0.,0.,-1.));
#686=DIRECTION('',(0.,-1.,0.));
#687=DIRECTION('',(0.,0.,-1.));
#688=DIRECTION('',(0.,-1.,0.));
#689=DIRECTION('',(0.,0.,-1.));
#690=DIRECTION('',(0.,-1.,0.));
#691=DIRECTION('',(0.,0.,-1.));
#692=DIRECTION('',(0.,-1.,0.));
#693=DIRECTION('',(0.,0.,-1.));
#694=DIRECTION('',(0.,-1.,0.));
#695=DIRECTION('',(0.,0.,-1.));
#696=DIRECTION('',(0.,-1.,0.));
#697=DIRECTION('',(0.,0.,-1.));
#698=DIRECTION('',(0.,-1.,0.));
#699=DIRECTION('',(0.,0.,-1.));
#700=DIRECTION('',(0.,-1.,0.));
#701=DIRECTION('',(0.,0.,-1.));
#702=DIRECTION('',(0.,-1.,0.));
#703=DIRECTION('',(0.,0.,-1.));
#704=DIRECTION('',(1.,0.,-4.55009436321785E-16));
#705=DIRECTION('',(0.,0.,1.));
#706=DIRECTION('',(-1.,0.,0.));
#707=DIRECTION('',(0.,0.,-1.));
#708=DIRECTION('',(0.,-1.,0.));
#709=DIRECTION('',(0.,0.,-1.));
#710=DIRECTION('',(0.,-1.,0.));
#711=DIRECTION('',(0.,0.,-1.));
#712=DIRECTION('',(0.,-1.,0.));
#713=DIRECTION('',(0.,0.,-1.));
#714=DIRECTION('',(0.,-1.,0.));
#715=DIRECTION('',(0.,0.,-1.));
#716=DIRECTION('',(1.,0.,0.));
#717=DIRECTION('',(0.,0.,-1.));
#718=DIRECTION('',(0.,-1.,0.));
#719=DIRECTION('',(0.,-1.,0.));
#720=DIRECTION('',(0.,0.,1.));
#721=DIRECTION('',(1.,0.,0.));
#722=DIRECTION('',(0.,-1.,0.));
#723=DIRECTION('',(-1.,0.,0.));
#724=DIRECTION('',(0.,0.,1.));
#725=DIRECTION('',(0.,-1.,0.));
#726=DIRECTION('',(-4.55009436321785E-16,0.,-1.));
#727=DIRECTION('',(-1.,0.,4.55009436321785E-16));
#728=DIRECTION('',(0.,-1.,0.));
#729=DIRECTION('',(0.,0.,-1.));
#730=DIRECTION('',(0.,-1.,0.));
#731=DIRECTION('',(0.,0.,-1.));
#732=DIRECTION('',(0.,-1.,0.));
#733=DIRECTION('',(0.,0.,-1.));
#734=DIRECTION('',(0.,-1.,0.));
#735=DIRECTION('',(0.,0.,-1.));
#736=DIRECTION('',(0.,-1.,0.));
#737=DIRECTION('',(0.,0.,-1.));
#738=DIRECTION('',(0.,-1.,0.));
#739=DIRECTION('',(0.,0.,-1.));
#740=DIRECTION('',(0.,-1.,0.));
#741=DIRECTION('',(0.,0.,-1.));
#742=DIRECTION('',(0.,-1.,0.));
#743=DIRECTION('',(0.,0.,-1.));
#744=DIRECTION('',(0.,-1.,0.));
#745=DIRECTION('',(0.,0.,-1.));
#746=DIRECTION('',(0.,1.,0.));
#747=DIRECTION('',(0.,0.,1.));
#748=DIRECTION('',(0.,1.,0.));
#749=DIRECTION('',(0.,0.,1.));
#750=DIRECTION('',(0.,1.,0.));
#751=DIRECTION('',(0.,0.,1.));
#752=DIRECTION('',(0.,1.,0.));
#753=DIRECTION('',(0.,0.,1.));
#754=DIRECTION('',(0.,-1.,0.));
#755=DIRECTION('',(0.,0.,-1.));
#756=DIRECTION('',(0.,-1.,0.));
#757=DIRECTION('',(0.,0.,-1.));
#758=DIRECTION('',(0.,-1.,0.));
#759=DIRECTION('',(0.,0.,-1.));
#760=DIRECTION('',(0.,-1.,0.));
#761=DIRECTION('',(0.,0.,-1.));
#762=CARTESIAN_POINT('',(0.,0.,0.));
#763=CARTESIAN_POINT('',(-204.,-5.,-304.));
#764=CARTESIAN_POINT('',(-204.,-5.,-304.));
#765=CARTESIAN_POINT('',(-194.,-5.,-304.));
#766=CARTESIAN_POINT('',(194.,-5.,-304.));
#767=CARTESIAN_POINT('',(-194.,-5.,-304.));
#768=CARTESIAN_POINT('',(-194.,0.,-304.));
#769=CARTESIAN_POINT('',(-204.,0.,-304.));
#770=CARTESIAN_POINT('',(194.,0.,-304.));
#771=CARTESIAN_POINT('',(194.,-5.,-304.));
#772=CARTESIAN_POINT('',(204.,-5.,-304.));
#773=CARTESIAN_POINT('',(204.,0.,-304.));
#774=CARTESIAN_POINT('',(204.,0.,-294.));
#775=CARTESIAN_POINT('',(204.,0.,294.));
#776=CARTESIAN_POINT('',(204.,-5.,294.));
#777=CARTESIAN_POINT('',(204.,-5.,294.));
#778=CARTESIAN_POINT('',(204.,-5.,-304.));
#779=CARTESIAN_POINT('',(204.,-5.,-294.));
#780=CARTESIAN_POINT('',(204.,-5.,-294.));
#781=CARTESIAN_POINT('',(204.,-5.,304.));
#782=CARTESIAN_POINT('',(204.,0.,304.));
#783=CARTESIAN_POINT('',(194.,0.,304.));
#784=CARTESIAN_POINT('',(-194.,0.,304.));
#785=CARTESIAN_POINT('',(-194.,-5.,304.));
#786=CARTESIAN_POINT('',(-194.,-5.,304.));
#787=CARTESIAN_POINT('',(204.,-5.,304.));
#788=CARTESIAN_POINT('',(194.,-5.,304.));
#789=CARTESIAN_POINT('',(194.,-5.,304.));
#790=CARTESIAN_POINT('',(-204.,-5.,304.));
#791=CARTESIAN_POINT('',(-204.,-5.,304.));
#792=CARTESIAN_POINT('',(-204.,-5.,294.));
#793=CARTESIAN_POINT('',(-204.,-5.,-294.));
#794=CARTESIAN_POINT('',(-204.,-5.,294.));
#795=CARTESIAN_POINT('',(-204.,0.,294.));
#796=CARTESIAN_POINT('',(-204.,0.,304.));
#797=CARTESIAN_POINT('',(-204.,0.,-294.));
#798=CARTESIAN_POINT('',(-204.,-5.,-294.));
#799=CARTESIAN_POINT('',(0.,-5.,0.));
#800=CARTESIAN_POINT('',(-174.,-5.,-194.));
#801=CARTESIAN_POINT('',(-171.,-5.,-194.));
#802=CARTESIAN_POINT('',(-174.,-5.,-144.));
#803=CARTESIAN_POINT('',(-171.,-5.,-144.));
#804=CARTESIAN_POINT('',(-174.,-5.,144.));
#805=CARTESIAN_POINT('',(-171.,-5.,144.));
#806=CARTESIAN_POINT('',(-174.,-5.,194.));
#807=CARTESIAN_POINT('',(-171.,-5.,194.));
#808=CARTESIAN_POINT('',(-3.99999999999998,-5.,-204.));
#809=CARTESIAN_POINT('',(2.00000000000002,-5.,-204.));
#810=CARTESIAN_POINT('',(146.,-5.,1.38777878078145E-14));
#811=CARTESIAN_POINT('',(164.,-5.,1.38777878078145E-14));
#812=CARTESIAN_POINT('',(96.,-5.,-204.));
#813=CARTESIAN_POINT('',(107.,-5.,-204.));
#814=CARTESIAN_POINT('',(-104.,-5.,-204.));
#815=CARTESIAN_POINT('',(-93.,-5.,-204.));
#816=CARTESIAN_POINT('',(-104.,-5.,128.344438571223));
#817=CARTESIAN_POINT('',(-93.,-5.,128.344438571223));
#818=CARTESIAN_POINT('',(96.,-5.,53.3444385712235));
#819=CARTESIAN_POINT('',(85.,-5.,53.3444385712235));
#820=CARTESIAN_POINT('',(-3.99999999999998,-5.,53.3444385712235));
#821=CARTESIAN_POINT('',(7.00000000000002,-5.,53.3444385712235));
#822=CARTESIAN_POINT('',(96.,-5.,203.344438571223));
#823=CARTESIAN_POINT('',(107.,-5.,203.344438571223));
#824=CARTESIAN_POINT('',(-4.,-5.,203.344438571223));
#825=CARTESIAN_POINT('',(7.,-5.,203.344438571223));
#826=CARTESIAN_POINT('',(-73.5,-5.,-93.3277807143883));
#827=CARTESIAN_POINT('',(-73.5,-5.,-93.3277807143883));
#828=CARTESIAN_POINT('',(-73.5,-5.,-57.3277807143883));
#829=CARTESIAN_POINT('',(-134.5,-5.,-93.3277807143883));
#830=CARTESIAN_POINT('',(-134.5,-5.,-93.3277807143883));
#831=CARTESIAN_POINT('',(-134.5,-5.,-57.3277807143883));
#832=CARTESIAN_POINT('',(-134.5,-5.,-57.3277807143883));
#833=CARTESIAN_POINT('',(-104.,-5.,-57.3277807143883));
#834=CARTESIAN_POINT('',(-194.,-5.,294.));
#835=CARTESIAN_POINT('',(-194.,-5.,-294.));
#836=CARTESIAN_POINT('',(194.,-5.,-294.));
#837=CARTESIAN_POINT('',(194.,-5.,294.));
#838=CARTESIAN_POINT('',(0.,0.,0.));
#839=CARTESIAN_POINT('',(-174.,0.,-194.));
#840=CARTESIAN_POINT('',(-174.,0.,-197.));
#841=CARTESIAN_POINT('',(-174.,0.,-144.));
#842=CARTESIAN_POINT('',(-174.,0.,-147.));
#843=CARTESIAN_POINT('',(-174.,0.,144.));
#844=CARTESIAN_POINT('',(-174.,0.,141.));
#845=CARTESIAN_POINT('',(-174.,0.,194.));
#846=CARTESIAN_POINT('',(-174.,0.,191.));
#847=CARTESIAN_POINT('',(-3.99999999999998,0.,-204.));
#848=CARTESIAN_POINT('',(-3.99999999999998,0.,-210.));
#849=CARTESIAN_POINT('',(146.,0.,1.38777878078145E-14));
#850=CARTESIAN_POINT('',(146.,0.,-18.));
#851=CARTESIAN_POINT('',(96.,0.,-204.));
#852=CARTESIAN_POINT('',(96.,0.,-215.));
#853=CARTESIAN_POINT('',(-104.,0.,-204.));
#854=CARTESIAN_POINT('',(-104.,0.,-215.));
#855=CARTESIAN_POINT('',(-104.,0.,128.344438571223));
#856=CARTESIAN_POINT('',(-104.,0.,117.344438571223));
#857=CARTESIAN_POINT('',(96.,0.,53.3444385712235));
#858=CARTESIAN_POINT('',(96.,0.,42.3444385712235));
#859=CARTESIAN_POINT('',(-3.99999999999998,0.,53.3444385712235));
#860=CARTESIAN_POINT('',(-3.99999999999998,0.,42.3444385712235));
#861=CARTESIAN_POINT('',(96.,0.,203.344438571223));
#862=CARTESIAN_POINT('',(96.,0.,192.344438571223));
#863=CARTESIAN_POINT('',(-4.,0.,203.344438571223));
#864=CARTESIAN_POINT('',(-4.,0.,192.344438571223));
#865=CARTESIAN_POINT('',(-4.2465020896017E-14,0.,-93.3277807143883));
#866=CARTESIAN_POINT('',(-134.5,0.,-93.3277807143883));
#867=CARTESIAN_POINT('',(-73.5,0.,-93.3277807143883));
#868=CARTESIAN_POINT('',(-73.5,0.,0.));
#869=CARTESIAN_POINT('',(-73.5,0.,-57.3277807143883));
#870=CARTESIAN_POINT('',(0.,0.,-57.3277807143883));
#871=CARTESIAN_POINT('',(-134.5,0.,-57.3277807143883));
#872=CARTESIAN_POINT('',(-134.5,0.,0.));
#873=CARTESIAN_POINT('',(-194.,0.,294.));
#874=CARTESIAN_POINT('',(194.,0.,294.));
#875=CARTESIAN_POINT('',(194.,0.,-294.));
#876=CARTESIAN_POINT('',(-194.,0.,-294.));
#877=CARTESIAN_POINT('',(-73.5,16.8564432523772,-93.3277807143883));
#878=CARTESIAN_POINT('',(-73.5,16.8564432523772,-93.3277807143883));
#879=CARTESIAN_POINT('',(-73.5,16.8564432523772,-57.3277807143883));
#880=CARTESIAN_POINT('',(-104.,16.8564432523772,-57.3277807143883));
#881=CARTESIAN_POINT('',(-134.5,16.8564432523772,-57.3277807143883));
#882=CARTESIAN_POINT('',(-134.5,16.8564432523772,-57.3277807143883));
#883=CARTESIAN_POINT('',(-134.5,16.8564432523772,-93.3277807143883));
#884=CARTESIAN_POINT('',(-134.5,16.8564432523772,-93.3277807143883));
#885=CARTESIAN_POINT('',(-4.,71.844398148231,203.344438571223));
#886=CARTESIAN_POINT('',(96.,58.7076540386802,203.344438571223));
#887=CARTESIAN_POINT('',(-3.99999999999998,98.1331984889527,53.3444385712235));
#888=CARTESIAN_POINT('',(96.,29.0395615849271,53.3444385712235));
#889=CARTESIAN_POINT('',(-104.,13.9804384099059,128.344438571223));
#890=CARTESIAN_POINT('',(-104.,55.4933006146598,-204.));
#891=CARTESIAN_POINT('',(96.,28.6663649179957,-204.));
#892=CARTESIAN_POINT('',(146.,62.4678959301809,1.38777878078145E-14));
#893=CARTESIAN_POINT('',(-3.99999999999998,21.6210946474568,-204.));
#894=CARTESIAN_POINT('',(194.,-5.,-294.));
#895=CARTESIAN_POINT('',(-194.,-5.,-294.));
#896=CARTESIAN_POINT('',(194.,-5.,294.));
#897=CARTESIAN_POINT('',(-194.,-5.,294.));
#898=CARTESIAN_POINT('',(-174.,80.1280073737051,194.));
#899=CARTESIAN_POINT('',(-174.,96.9001691688442,144.));
#900=CARTESIAN_POINT('',(-174.,17.7716370301741,-144.));
#901=CARTESIAN_POINT('',(-174.,21.8575553843535,-194.));
#902=MECHANICAL_DESIGN_GEOMETRIC_PRESENTATION_REPRESENTATION('',(#537),
#903);
#903=(
GEOMETRIC_REPRESENTATION_CONTEXT(3)
GLOBAL_UNCERTAINTY_ASSIGNED_CONTEXT((#904))
GLOBAL_UNIT_ASSIGNED_CONTEXT((#907,#906,#905))
REPRESENTATION_CONTEXT('Áã¼þ»¶3','TOP_LEVEL_ASSEMBLY_PART')
);
#904=UNCERTAINTY_MEASURE_WITH_UNIT(LENGTH_MEASURE(0.005),#907,
'DISTANCE_ACCURACY_VALUE','Maximum Tolerance applied to model');
#905=(
NAMED_UNIT(*)
SI_UNIT($,.STERADIAN.)
SOLID_ANGLE_UNIT()
);
#906=(
NAMED_UNIT(*)
PLANE_ANGLE_UNIT()
SI_UNIT($,.RADIAN.)
);
#907=(
LENGTH_UNIT()
NAMED_UNIT(*)
SI_UNIT(.MILLI.,.METRE.)
);
#908=PRODUCT_DEFINITION_SHAPE('','',#909);
#909=PRODUCT_DEFINITION('','',#911,#910);
#910=PRODUCT_DEFINITION_CONTEXT('',#917,'design');
#911=PRODUCT_DEFINITION_FORMATION_WITH_SPECIFIED_SOURCE('','',#913,
 .NOT_KNOWN.);
#912=PRODUCT_RELATED_PRODUCT_CATEGORY('','',(#913));
#913=PRODUCT('Áã¼þ»¶3','Áã¼þ»¶3','Áã¼þ»¶3',(#915));
#914=PRODUCT_CATEGORY('','');
#915=PRODUCT_CONTEXT('',#917,'mechanical');
#916=APPLICATION_PROTOCOL_DEFINITION('international standard',
'automotive_design',2010,#917);
#917=APPLICATION_CONTEXT(
'core data for automotive mechanical design processes');
ENDSEC;
END-ISO-10303-21;
