ISO-10303-21;
HEADER;
/* Generated by software containing ST-Developer
 * from STEP Tools, Inc. (www.steptools.com) 
 */
/* OPTION: strings as raw bytes, not using required /X/ escapes */

FILE_DESCRIPTION(
/* description */ ('Unknown'),
/* implementation_level */ '2;1');

FILE_NAME(
/* name */ '閿佽姱',
/* time_stamp */ '2024-10-08T17:33:06+08:00',
/* author */ ('Unknown'),
/* organization */ ('Unknown'),
/* preprocessor_version */ 'ST-DEVELOPER v19.4',
/* originating_system */ 'Solid Edge',
/* authorisation */ 'Unknown');

FILE_SCHEMA (('AUTOMOTIVE_DESIGN {1 0 10303 214 3 1 1}'));
ENDSEC;

DATA;
#10=PROPERTY_DEFINITION_REPRESENTATION(#14,#12);
#11=PROPERTY_DEFINITION_REPRESENTATION(#15,#13);
#12=REPRESENTATION('',(#16),#285);
#13=REPRESENTATION('',(#17),#285);
#14=PROPERTY_DEFINITION('pmi validation property','',#290);
#15=PROPERTY_DEFINITION('pmi validation property','',#290);
#16=VALUE_REPRESENTATION_ITEM('number of annotations',COUNT_MEASURE(0.));
#17=VALUE_REPRESENTATION_ITEM('number of views',COUNT_MEASURE(0.));
#18=SHAPE_REPRESENTATION_RELATIONSHIP('','',#178,#19);
#19=ADVANCED_BREP_SHAPE_REPRESENTATION('',(#176),#285);
#20=CONICAL_SURFACE('',#190,25.,0.785398163397448);
#21=LINE('',#256,#33);
#22=LINE('',#259,#34);
#23=LINE('',#261,#35);
#24=LINE('',#263,#36);
#25=LINE('',#268,#37);
#26=LINE('',#270,#38);
#27=LINE('',#272,#39);
#28=LINE('',#274,#40);
#29=LINE('',#276,#41);
#30=LINE('',#278,#42);
#31=LINE('',#280,#43);
#32=LINE('',#282,#44);
#33=VECTOR('',#216,1000.);
#34=VECTOR('',#217,1000.);
#35=VECTOR('',#218,1000.);
#36=VECTOR('',#219,1000.);
#37=VECTOR('',#226,1000.);
#38=VECTOR('',#227,1000.);
#39=VECTOR('',#228,1000.);
#40=VECTOR('',#231,1000.);
#41=VECTOR('',#232,1000.);
#42=VECTOR('',#235,1000.);
#43=VECTOR('',#236,1000.);
#44=VECTOR('',#239,1000.);
#45=PLANE('',#183);
#46=PLANE('',#187);
#47=PLANE('',#188);
#48=PLANE('',#191);
#49=PLANE('',#192);
#50=PLANE('',#193);
#51=PLANE('',#194);
#52=PLANE('',#195);
#53=ORIENTED_EDGE('',*,*,#87,.F.);
#54=ORIENTED_EDGE('',*,*,#88,.F.);
#55=ORIENTED_EDGE('',*,*,#88,.T.);
#56=ORIENTED_EDGE('',*,*,#89,.T.);
#57=ORIENTED_EDGE('',*,*,#90,.F.);
#58=ORIENTED_EDGE('',*,*,#87,.T.);
#59=ORIENTED_EDGE('',*,*,#90,.T.);
#60=ORIENTED_EDGE('',*,*,#91,.F.);
#61=ORIENTED_EDGE('',*,*,#92,.F.);
#62=ORIENTED_EDGE('',*,*,#93,.F.);
#63=ORIENTED_EDGE('',*,*,#94,.F.);
#64=ORIENTED_EDGE('',*,*,#95,.T.);
#65=ORIENTED_EDGE('',*,*,#95,.F.);
#66=ORIENTED_EDGE('',*,*,#89,.F.);
#67=ORIENTED_EDGE('',*,*,#92,.T.);
#68=ORIENTED_EDGE('',*,*,#96,.F.);
#69=ORIENTED_EDGE('',*,*,#97,.F.);
#70=ORIENTED_EDGE('',*,*,#98,.T.);
#71=ORIENTED_EDGE('',*,*,#91,.T.);
#72=ORIENTED_EDGE('',*,*,#99,.F.);
#73=ORIENTED_EDGE('',*,*,#100,.F.);
#74=ORIENTED_EDGE('',*,*,#96,.T.);
#75=ORIENTED_EDGE('',*,*,#94,.T.);
#76=ORIENTED_EDGE('',*,*,#101,.F.);
#77=ORIENTED_EDGE('',*,*,#102,.F.);
#78=ORIENTED_EDGE('',*,*,#99,.T.);
#79=ORIENTED_EDGE('',*,*,#93,.T.);
#80=ORIENTED_EDGE('',*,*,#98,.F.);
#81=ORIENTED_EDGE('',*,*,#103,.F.);
#82=ORIENTED_EDGE('',*,*,#101,.T.);
#83=ORIENTED_EDGE('',*,*,#97,.T.);
#84=ORIENTED_EDGE('',*,*,#100,.T.);
#85=ORIENTED_EDGE('',*,*,#102,.T.);
#86=ORIENTED_EDGE('',*,*,#103,.T.);
#87=EDGE_CURVE('',#104,#104,#117,.F.);
#88=EDGE_CURVE('',#105,#105,#118,.T.);
#89=EDGE_CURVE('',#106,#106,#119,.T.);
#90=EDGE_CURVE('',#107,#107,#120,.T.);
#91=EDGE_CURVE('',#108,#109,#21,.T.);
#92=EDGE_CURVE('',#110,#108,#22,.T.);
#93=EDGE_CURVE('',#111,#110,#23,.T.);
#94=EDGE_CURVE('',#109,#111,#24,.T.);
#95=EDGE_CURVE('',#112,#112,#121,.F.);
#96=EDGE_CURVE('',#113,#108,#25,.T.);
#97=EDGE_CURVE('',#114,#113,#26,.T.);
#98=EDGE_CURVE('',#114,#110,#27,.T.);
#99=EDGE_CURVE('',#115,#109,#28,.T.);
#100=EDGE_CURVE('',#113,#115,#29,.T.);
#101=EDGE_CURVE('',#116,#111,#30,.T.);
#102=EDGE_CURVE('',#115,#116,#31,.T.);
#103=EDGE_CURVE('',#116,#114,#32,.T.);
#104=VERTEX_POINT('',#245);
#105=VERTEX_POINT('',#247);
#106=VERTEX_POINT('',#251);
#107=VERTEX_POINT('',#253);
#108=VERTEX_POINT('',#257);
#109=VERTEX_POINT('',#258);
#110=VERTEX_POINT('',#260);
#111=VERTEX_POINT('',#262);
#112=VERTEX_POINT('',#265);
#113=VERTEX_POINT('',#269);
#114=VERTEX_POINT('',#271);
#115=VERTEX_POINT('',#275);
#116=VERTEX_POINT('',#279);
#117=CIRCLE('',#181,18.);
#118=CIRCLE('',#182,18.);
#119=CIRCLE('',#185,25.);
#120=CIRCLE('',#186,25.);
#121=CIRCLE('',#189,20.);
#122=EDGE_LOOP('',(#53));
#123=EDGE_LOOP('',(#54));
#124=EDGE_LOOP('',(#55));
#125=EDGE_LOOP('',(#56));
#126=EDGE_LOOP('',(#57));
#127=EDGE_LOOP('',(#58));
#128=EDGE_LOOP('',(#59));
#129=EDGE_LOOP('',(#60,#61,#62,#63));
#130=EDGE_LOOP('',(#64));
#131=EDGE_LOOP('',(#65));
#132=EDGE_LOOP('',(#66));
#133=EDGE_LOOP('',(#67,#68,#69,#70));
#134=EDGE_LOOP('',(#71,#72,#73,#74));
#135=EDGE_LOOP('',(#75,#76,#77,#78));
#136=EDGE_LOOP('',(#79,#80,#81,#82));
#137=EDGE_LOOP('',(#83,#84,#85,#86));
#138=FACE_BOUND('',#122,.T.);
#139=FACE_BOUND('',#123,.T.);
#140=FACE_BOUND('',#124,.T.);
#141=FACE_BOUND('',#125,.T.);
#142=FACE_BOUND('',#126,.T.);
#143=FACE_BOUND('',#127,.T.);
#144=FACE_BOUND('',#128,.T.);
#145=FACE_BOUND('',#129,.T.);
#146=FACE_BOUND('',#130,.T.);
#147=FACE_BOUND('',#131,.T.);
#148=FACE_BOUND('',#132,.T.);
#149=FACE_BOUND('',#133,.T.);
#150=FACE_BOUND('',#134,.T.);
#151=FACE_BOUND('',#135,.T.);
#152=FACE_BOUND('',#136,.T.);
#153=FACE_BOUND('',#137,.T.);
#154=CYLINDRICAL_SURFACE('',#180,18.);
#155=CYLINDRICAL_SURFACE('',#184,25.);
#156=ADVANCED_FACE('',(#138,#139),#154,.T.);
#157=ADVANCED_FACE('',(#140),#45,.T.);
#158=ADVANCED_FACE('',(#141,#142),#155,.T.);
#159=ADVANCED_FACE('',(#143,#144),#46,.T.);
#160=ADVANCED_FACE('',(#145,#146),#47,.F.);
#161=ADVANCED_FACE('',(#147,#148),#20,.T.);
#162=ADVANCED_FACE('',(#149),#48,.F.);
#163=ADVANCED_FACE('',(#150),#49,.F.);
#164=ADVANCED_FACE('',(#151),#50,.F.);
#165=ADVANCED_FACE('',(#152),#51,.F.);
#166=ADVANCED_FACE('',(#153),#52,.T.);
#167=CLOSED_SHELL('',(#156,#157,#158,#159,#160,#161,#162,#163,#164,#165,
#166));
#168=STYLED_ITEM('',(#169),#176);
#169=PRESENTATION_STYLE_ASSIGNMENT((#170));
#170=SURFACE_STYLE_USAGE(.BOTH.,#171);
#171=SURFACE_SIDE_STYLE('',(#172));
#172=SURFACE_STYLE_FILL_AREA(#173);
#173=FILL_AREA_STYLE('',(#174));
#174=FILL_AREA_STYLE_COLOUR('',#175);
#175=COLOUR_RGB('',0.506983280181885,0.531564235687256,0.550000011920929);
#176=MANIFOLD_SOLID_BREP('',#167);
#177=SHAPE_DEFINITION_REPRESENTATION(#290,#178);
#178=SHAPE_REPRESENTATION('零件2',(#179),#285);
#179=AXIS2_PLACEMENT_3D('',#242,#196,#197);
#180=AXIS2_PLACEMENT_3D('',#243,#198,#199);
#181=AXIS2_PLACEMENT_3D('',#244,#200,#201);
#182=AXIS2_PLACEMENT_3D('',#246,#202,#203);
#183=AXIS2_PLACEMENT_3D('',#248,#204,#205);
#184=AXIS2_PLACEMENT_3D('',#249,#206,#207);
#185=AXIS2_PLACEMENT_3D('',#250,#208,#209);
#186=AXIS2_PLACEMENT_3D('',#252,#210,#211);
#187=AXIS2_PLACEMENT_3D('',#254,#212,#213);
#188=AXIS2_PLACEMENT_3D('',#255,#214,#215);
#189=AXIS2_PLACEMENT_3D('',#264,#220,#221);
#190=AXIS2_PLACEMENT_3D('',#266,#222,#223);
#191=AXIS2_PLACEMENT_3D('',#267,#224,#225);
#192=AXIS2_PLACEMENT_3D('',#273,#229,#230);
#193=AXIS2_PLACEMENT_3D('',#277,#233,#234);
#194=AXIS2_PLACEMENT_3D('',#281,#237,#238);
#195=AXIS2_PLACEMENT_3D('',#283,#240,#241);
#196=DIRECTION('',(0.,0.,1.));
#197=DIRECTION('',(1.,0.,0.));
#198=DIRECTION('',(0.,1.,0.));
#199=DIRECTION('',(0.,0.,1.));
#200=DIRECTION('',(0.,1.,0.));
#201=DIRECTION('',(0.,0.,1.));
#202=DIRECTION('',(0.,1.,0.));
#203=DIRECTION('',(1.,0.,0.));
#204=DIRECTION('',(0.,1.,0.));
#205=DIRECTION('',(0.,0.,1.));
#206=DIRECTION('',(0.,-1.,0.));
#207=DIRECTION('',(0.,0.,-1.));
#208=DIRECTION('',(0.,1.,0.));
#209=DIRECTION('',(0.,0.,1.));
#210=DIRECTION('',(0.,1.,0.));
#211=DIRECTION('',(1.,0.,0.));
#212=DIRECTION('',(0.,1.,0.));
#213=DIRECTION('',(0.,0.,1.));
#214=DIRECTION('',(0.,1.,0.));
#215=DIRECTION('',(0.,0.,1.));
#216=DIRECTION('',(0.,0.,1.));
#217=DIRECTION('',(1.,0.,0.));
#218=DIRECTION('',(0.,0.,-1.));
#219=DIRECTION('',(-1.,0.,0.));
#220=DIRECTION('',(0.,1.,0.));
#221=DIRECTION('',(0.,0.,1.));
#222=DIRECTION('',(0.,1.,0.));
#223=DIRECTION('',(0.,0.,1.));
#224=DIRECTION('',(0.,0.,-1.));
#225=DIRECTION('',(-1.,0.,0.));
#226=DIRECTION('',(0.,-1.,0.));
#227=DIRECTION('',(1.,0.,0.));
#228=DIRECTION('',(0.,-1.,0.));
#229=DIRECTION('',(1.,0.,0.));
#230=DIRECTION('',(0.,0.,-1.));
#231=DIRECTION('',(0.,-1.,0.));
#232=DIRECTION('',(0.,0.,1.));
#233=DIRECTION('',(0.,0.,1.));
#234=DIRECTION('',(1.,0.,0.));
#235=DIRECTION('',(0.,-1.,0.));
#236=DIRECTION('',(-1.,0.,0.));
#237=DIRECTION('',(-1.,0.,0.));
#238=DIRECTION('',(0.,0.,1.));
#239=DIRECTION('',(0.,0.,-1.));
#240=DIRECTION('',(0.,-1.,0.));
#241=DIRECTION('',(0.,0.,-1.));
#242=CARTESIAN_POINT('',(0.,0.,0.));
#243=CARTESIAN_POINT('',(0.,-50.,0.));
#244=CARTESIAN_POINT('',(0.,-43.2869916461915,0.));
#245=CARTESIAN_POINT('',(0.,-43.2869916461915,18.));
#246=CARTESIAN_POINT('',(0.,0.,0.));
#247=CARTESIAN_POINT('',(18.,0.,0.));
#248=CARTESIAN_POINT('',(0.,0.,0.));
#249=CARTESIAN_POINT('',(0.,-35.4079380288961,0.));
#250=CARTESIAN_POINT('',(0.,-45.,0.));
#251=CARTESIAN_POINT('',(0.,-45.,25.));
#252=CARTESIAN_POINT('',(0.,-43.2869916461915,0.));
#253=CARTESIAN_POINT('',(25.,-43.2869916461915,0.));
#254=CARTESIAN_POINT('',(0.,-43.2869916461915,0.));
#255=CARTESIAN_POINT('',(0.,-50.,0.));
#256=CARTESIAN_POINT('',(1.,-50.,-10.));
#257=CARTESIAN_POINT('',(1.,-50.,-10.));
#258=CARTESIAN_POINT('',(1.,-50.,10.));
#259=CARTESIAN_POINT('',(-1.,-50.,-10.));
#260=CARTESIAN_POINT('',(-1.,-50.,-10.));
#261=CARTESIAN_POINT('',(-1.,-50.,10.));
#262=CARTESIAN_POINT('',(-1.,-50.,10.));
#263=CARTESIAN_POINT('',(1.,-50.,10.));
#264=CARTESIAN_POINT('',(0.,-50.,0.));
#265=CARTESIAN_POINT('',(0.,-50.,20.));
#266=CARTESIAN_POINT('',(0.,-45.,0.));
#267=CARTESIAN_POINT('',(-1.,-20.3817985485741,-10.));
#268=CARTESIAN_POINT('',(1.,-20.3817985485741,-10.));
#269=CARTESIAN_POINT('',(1.,-20.3817985485741,-10.));
#270=CARTESIAN_POINT('',(-1.,-20.3817985485741,-10.));
#271=CARTESIAN_POINT('',(-1.,-20.3817985485741,-10.));
#272=CARTESIAN_POINT('',(-1.,-20.3817985485741,-10.));
#273=CARTESIAN_POINT('',(1.,-20.3817985485741,-10.));
#274=CARTESIAN_POINT('',(1.,-20.3817985485741,10.));
#275=CARTESIAN_POINT('',(1.,-20.3817985485741,10.));
#276=CARTESIAN_POINT('',(1.,-20.3817985485741,-10.));
#277=CARTESIAN_POINT('',(1.,-20.3817985485741,10.));
#278=CARTESIAN_POINT('',(-1.,-20.3817985485741,10.));
#279=CARTESIAN_POINT('',(-1.,-20.3817985485741,10.));
#280=CARTESIAN_POINT('',(1.,-20.3817985485741,10.));
#281=CARTESIAN_POINT('',(-1.,-20.3817985485741,10.));
#282=CARTESIAN_POINT('',(-1.,-20.3817985485741,10.));
#283=CARTESIAN_POINT('',(0.,-20.3817985485741,0.));
#284=MECHANICAL_DESIGN_GEOMETRIC_PRESENTATION_REPRESENTATION('',(#168),
#285);
#285=(
GEOMETRIC_REPRESENTATION_CONTEXT(3)
GLOBAL_UNCERTAINTY_ASSIGNED_CONTEXT((#286))
GLOBAL_UNIT_ASSIGNED_CONTEXT((#289,#288,#287))
REPRESENTATION_CONTEXT('零件','TOP_LEVEL_ASSEMBLY_PART')
);
#286=UNCERTAINTY_MEASURE_WITH_UNIT(LENGTH_MEASURE(0.005),#289,
'DISTANCE_ACCURACY_VALUE','Maximum Tolerance applied to model');
#287=(
NAMED_UNIT(*)
SI_UNIT($,.STERADIAN.)
SOLID_ANGLE_UNIT()
);
#288=(
NAMED_UNIT(*)
PLANE_ANGLE_UNIT()
SI_UNIT($,.RADIAN.)
);
#289=(
LENGTH_UNIT()
NAMED_UNIT(*)
SI_UNIT(.MILLI.,.METRE.)
);
#290=PRODUCT_DEFINITION_SHAPE('','',#291);
#291=PRODUCT_DEFINITION('','',#293,#292);
#292=PRODUCT_DEFINITION_CONTEXT('',#299,'design');
#293=PRODUCT_DEFINITION_FORMATION_WITH_SPECIFIED_SOURCE('','',#295,
 .NOT_KNOWN.);
#294=PRODUCT_RELATED_PRODUCT_CATEGORY('','',(#295));
#295=PRODUCT('零件','零件','零件',(#297));
#296=PRODUCT_CATEGORY('','');
#297=PRODUCT_CONTEXT('',#299,'mechanical');
#298=APPLICATION_PROTOCOL_DEFINITION('international standard',
'automotive_design',2010,#299);
#299=APPLICATION_CONTEXT(
'core data for automotive mechanical design processes');
ENDSEC;
END-ISO-10303-21;
