ISO-10303-21;
HEADER;
FILE_DESCRIPTION (( 'STEP AP203' ),
    '1' );
FILE_NAME ('¼ÆÊýÆ÷2.stp.STEP',
    '2024-10-22T03:22:28',
    ( '' ),
    ( '' ),
    'SwSTEP 2.0',
    'SolidWorks 2024',
    '' );
FILE_SCHEMA (( 'CONFIG_CONTROL_DESIGN' ));
ENDSEC;

DATA;
#1 = LINE ( 'NONE', #137, #388 ) ;
#2 = DIRECTION ( 'NONE',  ( 0.000000000000000000, 0.000000000000000000, 1.000000000000000000 ) ) ;
#3 =( BOUNDED_CURVE ( )  B_SPLINE_CURVE ( 3, ( #368, #460, #323, #106 ),
 .UNSPECIFIED., .F., .F. ) 
 B_SPLINE_CURVE_WITH_KNOTS ( ( 4, 4 ),
 ( 0.3994515123943959134, 1.570796326794896558 ),
 .UNSPECIFIED. ) 
 CURVE ( )  GEOMETRIC_REPRESENTATION_ITEM ( )  RATIONAL_B_SPLINE_CURVE ( ( 1.000000000000000000, 0.8888937297337650145, 0.8888937297337650145, 1.000000000000000000 ) ) 
 REPRESENTATION_ITEM ( '' )  );
#4 = VECTOR ( 'NONE', #559, 1000.000000000000000 ) ;
#5 = CARTESIAN_POINT ( 'NONE',  ( 35.00000000000000000, -23.88913093218720007, 20.00000000000000000 ) ) ;
#6 = LOCAL_TIME ( 11, 22, 28.00000000000000000, #294 ) ;
#7 = VERTEX_POINT ( 'NONE', #81 ) ;
#8 =( BOUNDED_CURVE ( )  B_SPLINE_CURVE ( 3, ( #85, #582, #426, #540 ),
 .UNSPECIFIED., .F., .T. ) 
 B_SPLINE_CURVE_WITH_KNOTS ( ( 4, 4 ),
 ( 3.957845979980000539, 4.533318380347675536 ),
 .UNSPECIFIED. ) 
 CURVE ( )  GEOMETRIC_REPRESENTATION_ITEM ( )  RATIONAL_B_SPLINE_CURVE ( ( 1.000000000000000000, 0.9725925054375530454, 0.9725925054375530454, 1.000000000000000000 ) ) 
 REPRESENTATION_ITEM ( '' )  );
#9 = LINE ( 'NONE', #469, #375 ) ;
#10 = ORIENTED_EDGE ( 'NONE', *, *, #123, .F. ) ;
#11 = DIRECTION ( 'NONE',  ( 0.000000000000000000, -1.000000000000000000, 0.000000000000000000 ) ) ;
#12 = EDGE_CURVE ( 'NONE', #73, #437, #253, .T. ) ;
#13 = ORIENTED_EDGE ( 'NONE', *, *, #269, .F. ) ;
#14 = LINE ( 'NONE', #188, #494 ) ;
#15 = ORIENTED_EDGE ( 'NONE', *, *, #230, .F. ) ;
#16 = EDGE_CURVE ( 'NONE', #296, #114, #1, .T. ) ;
#17 = DIRECTION ( 'NONE',  ( 1.000000000000000000, 0.000000000000000000, 0.000000000000000000 ) ) ;
#18 = VERTEX_POINT ( 'NONE', #409 ) ;
#19 = APPROVAL_DATE_TIME ( #394, #557 ) ;
#20 = CARTESIAN_POINT ( 'NONE',  ( -30.50000000000000000, -23.88913093218720007, 18.00000000000000000 ) ) ;
#21 = ORIENTED_EDGE ( 'NONE', *, *, #12, .F. ) ;
#22 = ADVANCED_FACE ( 'NONE', ( #177 ), #314, .T. ) ;
#23 = AXIS2_PLACEMENT_3D ( 'NONE', #313, #129, #497 ) ;
#24 = COORDINATED_UNIVERSAL_TIME_OFFSET ( 8, 0, .AHEAD. ) ;
#25 = CARTESIAN_POINT ( 'NONE',  ( 19.34955777307730074, -30.00000000000000000, -10.78725553419049987 ) ) ;
#26 = ORIENTED_EDGE ( 'NONE', *, *, #160, .F. ) ;
#27 = ORIENTED_EDGE ( 'NONE', *, *, #418, .F. ) ;
#28 = CC_DESIGN_PERSON_AND_ORGANIZATION_ASSIGNMENT ( #282, #203, ( #72 ) ) ;
#29 = APPROVAL_STATUS ( 'not_yet_approved' ) ;
#30 = CARTESIAN_POINT ( 'NONE',  ( -18.75185686744755387, -30.00000000000001421, -11.38495643982024674 ) ) ;
#31 = ORIENTED_EDGE ( 'NONE', *, *, #230, .T. ) ;
#32 = FACE_OUTER_BOUND ( 'NONE', #159, .T. ) ;
#33 = DIRECTION ( 'NONE',  ( 1.000000000000000000, 0.000000000000000000, 0.000000000000000000 ) ) ;
#34 = CARTESIAN_POINT ( 'NONE',  ( 19.34955777307730074, -30.00000000000000000, 10.78725553419049987 ) ) ;
#35 = EDGE_LOOP ( 'NONE', ( #156, #424, #62, #117 ) ) ;
#36 = FACE_OUTER_BOUND ( 'NONE', #76, .T. ) ;
#37 = DIRECTION ( 'NONE',  ( 0.000000000000000000, -1.000000000000000000, 0.000000000000000000 ) ) ;
#38 = APPLICATION_CONTEXT ( 'configuration controlled 3d designs of mechanical parts and assemblies' ) ;
#39 = DIRECTION ( 'NONE',  ( 1.000000000000000000, 0.000000000000000000, 0.000000000000000000 ) ) ;
#40 = CARTESIAN_POINT ( 'NONE',  ( -19.34955777307730074, -20.00000000000000000, 7.500000000000000000 ) ) ;
#41 = CARTESIAN_POINT ( 'NONE',  ( 35.00000000000000000, -23.88913093218720007, -20.00000000000000000 ) ) ;
#42 = ADVANCED_FACE ( 'NONE', ( #447 ), #222, .T. ) ;
#43 = CYLINDRICAL_SURFACE ( 'NONE', #511, 10.00000000000000000 ) ;
#44 = CARTESIAN_POINT ( 'NONE',  ( 30.50000000000000000, -30.00000000000000000, -18.00000000000000000 ) ) ;
#45 = AXIS2_PLACEMENT_3D ( 'NONE', #534, #545, #366 ) ;
#46 = AXIS2_PLACEMENT_3D ( 'NONE', #365, #358, #39 ) ;
#47 = CARTESIAN_POINT ( 'NONE',  ( -35.00000000000000000, -20.00000000000000000, -10.78725553419049987 ) ) ;
#48 = CARTESIAN_POINT ( 'NONE',  ( 35.00000000000000000, -23.88913093218720007, 20.00000000000000000 ) ) ;
#49 = CARTESIAN_POINT ( 'NONE',  ( 35.00000000000000000, -20.00000000000000000, 10.78725553419049987 ) ) ;
#50 = CARTESIAN_POINT ( 'NONE',  ( -19.34955777307730074, -30.00000000000000000, 10.78725553419049987 ) ) ;
#51 = CC_DESIGN_DATE_AND_TIME_ASSIGNMENT ( #382, #435, ( #190 ) ) ;
#52 = AXIS2_PLACEMENT_3D ( 'NONE', #149, #429, #17 ) ;
#53 = DIRECTION ( 'NONE',  ( -1.000000000000000000, 0.000000000000000000, 0.000000000000000000 ) ) ;
#54 = VECTOR ( 'NONE', #165, 1000.000000000000000 ) ;
#55 = ORIENTED_EDGE ( 'NONE', *, *, #418, .T. ) ;
#56 = DIRECTION ( 'NONE',  ( 0.000000000000000000, 0.000000000000000000, -1.000000000000000000 ) ) ;
#57 = EDGE_CURVE ( 'NONE', #328, #147, #217, .T. ) ;
#58 = ORIENTED_EDGE ( 'NONE', *, *, #316, .F. ) ;
#59 = CARTESIAN_POINT ( 'NONE',  ( -25.78725553419050343, -30.00000000000000000, 10.78725553419049987 ) ) ;
#60 = EDGE_CURVE ( 'NONE', #233, #205, #89, .T. ) ;
#61 = CALENDAR_DATE ( 2024, 22, 10 ) ;
#62 = ORIENTED_EDGE ( 'NONE', *, *, #340, .F. ) ;
#63 = CARTESIAN_POINT ( 'NONE',  ( 12.50000000000000000, -27.28584643766780005, 7.500000000000000000 ) ) ;
#64 =( BOUNDED_CURVE ( )  B_SPLINE_CURVE ( 3, ( #295, #574, #567, #204 ),
 .UNSPECIFIED., .F., .T. ) 
 B_SPLINE_CURVE_WITH_KNOTS ( ( 4, 4 ),
 ( 0.3994515123943959134, 1.570796326794896558 ),
 .UNSPECIFIED. ) 
 CURVE ( )  GEOMETRIC_REPRESENTATION_ITEM ( )  RATIONAL_B_SPLINE_CURVE ( ( 1.000000000000000000, 0.8888937297337650145, 0.8888937297337650145, 1.000000000000000000 ) ) 
 REPRESENTATION_ITEM ( '' )  );
#65 = EDGE_LOOP ( 'NONE', ( #555, #396, #479, #300 ) ) ;
#66 = ADVANCED_FACE ( 'NONE', ( #588 ), #402, .T. ) ;
#67 = APPROVAL_ROLE ( '' ) ;
#68 = ORIENTED_EDGE ( 'NONE', *, *, #176, .T. ) ;
#69 = APPROVAL_STATUS ( 'not_yet_approved' ) ;
#70 = CARTESIAN_POINT ( 'NONE',  ( 25.78725553419050343, -30.00000000000000000, -10.78725553419049987 ) ) ;
#71 = ORIENTED_EDGE ( 'NONE', *, *, #176, .F. ) ;
#72 = PRODUCT_DEFINITION ( 'æœ', '', #386, #457 ) ;
#73 = VERTEX_POINT ( 'NONE', #133 ) ;
#74 = VECTOR ( 'NONE', #197, 1000.000000000000000 ) ;
#75 = LINE ( 'NONE', #154, #146 ) ;
#76 = EDGE_LOOP ( 'NONE', ( #143, #335, #292, #306 ) ) ;
#77 = EDGE_CURVE ( 'NONE', #247, #184, #500, .T. ) ;
#78 = FACE_OUTER_BOUND ( 'NONE', #122, .T. ) ;
#79 = CARTESIAN_POINT ( 'NONE',  ( -30.50000000000000000, -23.88913093218720007, -18.00000000000000000 ) ) ;
#80 = CARTESIAN_POINT ( 'NONE',  ( -12.50000000000000000, -27.28584643766780005, 7.500000000000000000 ) ) ;
#81 = CARTESIAN_POINT ( 'NONE',  ( -30.50000000000000000, -23.88913093218720007, 18.00000000000000000 ) ) ;
#82 = CARTESIAN_POINT ( 'NONE',  ( -17.56840665363390031, -29.84009657928750059, -12.56840665363390031 ) ) ;
#83 = CARTESIAN_POINT ( 'NONE',  ( 0.000000000000000000, -30.00000000000000000, 0.000000000000000000 ) ) ;
#84 = CC_DESIGN_APPROVAL ( #172, ( #72 ) ) ;
#85 = CARTESIAN_POINT ( 'NONE',  ( 12.50000000000000000, -27.28584643766780005, 7.500000000000000000 ) ) ;
#86 = VECTOR ( 'NONE', #224, 1000.000000000000000 ) ;
#87 = EDGE_CURVE ( 'NONE', #564, #478, #550, .T. ) ;
#88 = CYLINDRICAL_SURFACE ( 'NONE', #94, 10.00000000000000000 ) ;
#89 = LINE ( 'NONE', #542, #543 ) ;
#90 = CARTESIAN_POINT ( 'NONE',  ( -17.56840665363390031, -29.84009657928750059, 12.56840665363390031 ) ) ;
#91 = DIRECTION ( 'NONE',  ( 0.000000000000000000, 0.000000000000000000, 1.000000000000000000 ) ) ;
#92 = LINE ( 'NONE', #134, #302 ) ;
#93 = DIRECTION ( 'NONE',  ( -1.000000000000000000, 0.000000000000000000, 0.000000000000000000 ) ) ;
#94 = AXIS2_PLACEMENT_3D ( 'NONE', #40, #215, #353 ) ;
#95 = CARTESIAN_POINT ( 'NONE',  ( 12.50000000000000000, -27.28584643766780005, 7.500000000000000000 ) ) ;
#96 = CARTESIAN_POINT ( 'NONE',  ( 0.000000000000000000, 0.000000000000000000, 0.000000000000000000 ) ) ;
#97 = VERTEX_POINT ( 'NONE', #171 ) ;
#98 = CARTESIAN_POINT ( 'NONE',  ( -15.65431659321815339, -29.49362806382585944, 10.65431659321815339 ) ) ;
#99 = VECTOR ( 'NONE', #135, 1000.000000000000000 ) ;
#100 = ADVANCED_FACE ( 'NONE', ( #498 ), #449, .F. ) ;
#101 = ORIENTED_EDGE ( 'NONE', *, *, #269, .T. ) ;
#102 = CARTESIAN_POINT ( 'NONE',  ( -30.50000000000000000, -23.88913093218720007, -18.00000000000000000 ) ) ;
#103 = EDGE_CURVE ( 'NONE', #343, #377, #270, .T. ) ;
#104 = APPROVAL_STATUS ( 'not_yet_approved' ) ;
#105 = ORIENTED_EDGE ( 'NONE', *, *, #501, .T. ) ;
#106 = CARTESIAN_POINT ( 'NONE',  ( 25.78725553419050343, -30.00000000000000000, 10.78725553419049987 ) ) ;
#107 = DATE_AND_TIME ( #566, #470 ) ;
#108 = ORIENTED_EDGE ( 'NONE', *, *, #170, .T. ) ;
#109 = PERSON_AND_ORGANIZATION ( #389, #311 ) ;
#110 = ORIENTED_EDGE ( 'NONE', *, *, #316, .T. ) ;
#111 = ORIENTED_EDGE ( 'NONE', *, *, #77, .F. ) ;
#112 = APPROVAL_ROLE ( '' ) ;
#113 = CARTESIAN_POINT ( 'NONE',  ( -19.34955777307730074, -30.00000000000000000, -10.78725553419049987 ) ) ;
#114 = VERTEX_POINT ( 'NONE', #219 ) ;
#115 = EDGE_CURVE ( 'NONE', #114, #575, #267, .T. ) ;
#116 = CYLINDRICAL_SURFACE ( 'NONE', #201, 10.00000000000000000 ) ;
#117 = ORIENTED_EDGE ( 'NONE', *, *, #586, .F. ) ;
#118 = AXIS2_PLACEMENT_3D ( 'NONE', #218, #357, #398 ) ;
#119 = VECTOR ( 'NONE', #93, 1000.000000000000000 ) ;
#120 = CARTESIAN_POINT ( 'NONE',  ( -12.50000000000000000, -27.28584643766780005, -7.500000000000000000 ) ) ;
#121 = CARTESIAN_POINT ( 'NONE',  ( 30.50000000000000000, -23.88913093218720007, -18.00000000000000000 ) ) ;
#122 = EDGE_LOOP ( 'NONE', ( #291, #68, #15, #331, #413, #111, #433, #198 ) ) ;
#123 = EDGE_CURVE ( 'NONE', #377, #564, #456, .T. ) ;
#124 =( BOUNDED_CURVE ( )  B_SPLINE_CURVE ( 3, ( #466, #98, #554, #284 ),
 .UNSPECIFIED., .F., .F. ) 
 B_SPLINE_CURVE_WITH_KNOTS ( ( 4, 4 ),
 ( 4.891459580421703812, 5.466931980789379253 ),
 .UNSPECIFIED. ) 
 CURVE ( )  GEOMETRIC_REPRESENTATION_ITEM ( )  RATIONAL_B_SPLINE_CURVE ( ( 1.000000000000000000, 0.9725925054375530454, 0.9725925054375530454, 1.000000000000000000 ) ) 
 REPRESENTATION_ITEM ( '' )  );
#125 = DIRECTION ( 'NONE',  ( 0.000000000000000000, 0.000000000000000000, 1.000000000000000000 ) ) ;
#126 =( NAMED_UNIT ( * ) SI_UNIT ( $, .STERADIAN. ) SOLID_ANGLE_UNIT ( ) );
#127 = EDGE_CURVE ( 'NONE', #355, #372, #8, .T. ) ;
#128 = VECTOR ( 'NONE', #148, 1000.000000000000000 ) ;
#129 = DIRECTION ( 'NONE',  ( 1.000000000000000000, 0.000000000000000000, 0.000000000000000000 ) ) ;
#130 = CARTESIAN_POINT ( 'NONE',  ( 0.000000000000000000, -30.00000000000000000, 0.000000000000000000 ) ) ;
#131 = CARTESIAN_POINT ( 'NONE',  ( 30.50000000000000000, -23.88913093218720007, -18.00000000000000000 ) ) ;
#132 = CC_DESIGN_PERSON_AND_ORGANIZATION_ASSIGNMENT ( #525, #298, ( #190 ) ) ;
#133 = CARTESIAN_POINT ( 'NONE',  ( -19.34955777307730074, -30.00000000000000000, 10.78725553419049987 ) ) ;
#134 = CARTESIAN_POINT ( 'NONE',  ( -30.50000000000000000, -30.00000000000000000, 18.00000000000000000 ) ) ;
#135 = DIRECTION ( 'NONE',  ( 0.000000000000000000, 1.000000000000000000, 0.000000000000000000 ) ) ;
#136 = PLANE ( 'NONE',  #560 ) ;
#137 = CARTESIAN_POINT ( 'NONE',  ( 30.50000000000000000, -30.00000000000000000, 18.00000000000000000 ) ) ;
#138 = FACE_OUTER_BOUND ( 'NONE', #369, .T. ) ;
#139 = LINE ( 'NONE', #63, #422 ) ;
#140 = ORIENTED_EDGE ( 'NONE', *, *, #570, .F. ) ;
#141 = DIRECTION ( 'NONE',  ( -1.000000000000000000, 0.000000000000000000, 0.000000000000000000 ) ) ;
#142 = ADVANCED_FACE ( 'NONE', ( #162 ), #116, .T. ) ;
#143 = ORIENTED_EDGE ( 'NONE', *, *, #185, .F. ) ;
#144 = VECTOR ( 'NONE', #551, 1000.000000000000000 ) ;
#145 = DIRECTION ( 'NONE',  ( 0.000000000000000000, 0.000000000000000000, -1.000000000000000000 ) ) ;
#146 = VECTOR ( 'NONE', #346, 1000.000000000000000 ) ;
#147 = VERTEX_POINT ( 'NONE', #259 ) ;
#148 = DIRECTION ( 'NONE',  ( 1.000000000000000000, 0.000000000000000000, 0.000000000000000000 ) ) ;
#149 = CARTESIAN_POINT ( 'NONE',  ( 0.000000000000000000, 0.000000000000000000, 0.000000000000000000 ) ) ;
#150 = ORIENTED_EDGE ( 'NONE', *, *, #127, .F. ) ;
#151 = VERTEX_POINT ( 'NONE', #488 ) ;
#152 = APPROVAL ( #104, 'æœª' ) ;
#153 = AXIS2_PLACEMENT_3D ( 'NONE', #130, #407, #544 ) ;
#154 = CARTESIAN_POINT ( 'NONE',  ( -35.00000000000000000, -23.88913093218720007, -20.00000000000000000 ) ) ;
#155 = VERTEX_POINT ( 'NONE', #310 ) ;
#156 = ORIENTED_EDGE ( 'NONE', *, *, #553, .F. ) ;
#157 = DIRECTION ( 'NONE',  ( 0.000000000000000000, 0.000000000000000000, -1.000000000000000000 ) ) ;
#158 = ORIENTED_EDGE ( 'NONE', *, *, #501, .F. ) ;
#159 = EDGE_LOOP ( 'NONE', ( #280, #349, #568, #231 ) ) ;
#160 = EDGE_CURVE ( 'NONE', #338, #372, #202, .T. ) ;
#161 = PERSON_AND_ORGANIZATION ( #389, #311 ) ;
#162 = FACE_OUTER_BOUND ( 'NONE', #472, .T. ) ;
#163 = ORIENTED_EDGE ( 'NONE', *, *, #453, .F. ) ;
#164 = AXIS2_PLACEMENT_3D ( 'NONE', #281, #56, #53 ) ;
#165 = DIRECTION ( 'NONE',  ( 0.000000000000000000, 0.000000000000000000, 1.000000000000000000 ) ) ;
#166 = CARTESIAN_POINT ( 'NONE',  ( -19.34955777307730074, -30.00000000000000000, 7.500000000000000000 ) ) ;
#167 = EDGE_LOOP ( 'NONE', ( #199, #163, #438, #579 ) ) ;
#168 = PLANE ( 'NONE',  #118 ) ;
#169 = DIRECTION ( 'NONE',  ( 0.000000000000000000, 0.000000000000000000, -1.000000000000000000 ) ) ;
#170 = EDGE_CURVE ( 'NONE', #184, #233, #183, .T. ) ;
#171 = CARTESIAN_POINT ( 'NONE',  ( -30.50000000000000000, 0.000000000000000000, -18.00000000000000000 ) ) ;
#172 = APPROVAL ( #69, 'æœª' ) ;
#173 = DIRECTION ( 'NONE',  ( 1.000000000000000000, 0.000000000000000000, 0.000000000000000000 ) ) ;
#174 = VECTOR ( 'NONE', #225, 1000.000000000000000 ) ;
#175 = CARTESIAN_POINT ( 'NONE',  ( -30.50000000000000000, 0.000000000000000000, -18.00000000000000000 ) ) ;
#176 = EDGE_CURVE ( 'NONE', #478, #343, #75, .T. ) ;
#177 = FACE_OUTER_BOUND ( 'NONE', #527, .T. ) ;
#178 = DIRECTION ( 'NONE',  ( -1.000000000000000000, 0.000000000000000000, 0.000000000000000000 ) ) ;
#179 = DIRECTION ( 'NONE',  ( 1.000000000000000000, 0.000000000000000000, 0.000000000000000000 ) ) ;
#180 = EDGE_CURVE ( 'NONE', #195, #247, #330, .T. ) ;
#181 = CYLINDRICAL_SURFACE ( 'NONE', #45, 10.00000000000000000 ) ;
#182 = CARTESIAN_POINT ( 'NONE',  ( -25.78725553419050343, -30.00000000000000000, -20.00000000000000000 ) ) ;
#183 =( BOUNDED_CURVE ( )  B_SPLINE_CURVE ( 3, ( #342, #481, #356, #25 ),
 .UNSPECIFIED., .F., .F. ) 
 B_SPLINE_CURVE_WITH_KNOTS ( ( 4, 4 ),
 ( 1.391725726757882420, 1.570796326794896558 ),
 .UNSPECIFIED. ) 
 CURVE ( )  GEOMETRIC_REPRESENTATION_ITEM ( )  RATIONAL_B_SPLINE_CURVE ( ( 1.000000000000000000, 0.9973295946897341446, 0.9973295946897341446, 1.000000000000000000 ) ) 
 REPRESENTATION_ITEM ( '' )  );
#184 = VERTEX_POINT ( 'NONE', #445 ) ;
#185 = EDGE_CURVE ( 'NONE', #7, #526, #399, .T. ) ;
#186 = DIRECTION ( 'NONE',  ( 0.000000000000000000, 0.000000000000000000, -1.000000000000000000 ) ) ;
#187 = ORIENTED_EDGE ( 'NONE', *, *, #226, .T. ) ;
#188 = CARTESIAN_POINT ( 'NONE',  ( 25.78725553419050343, -30.00000000000000000, 20.00000000000000000 ) ) ;
#189 = EDGE_LOOP ( 'NONE', ( #381, #110, #475, #241 ) ) ;
#190 = SECURITY_CLASSIFICATION ( '', '', #467 ) ;
#191 = LINE ( 'NONE', #379, #229 ) ;
#192 = CLOSED_SHELL ( 'NONE', ( #403, #378, #333, #42, #22, #548, #142, #393, #326, #66, #440, #446, #524, #546, #274, #100, #266 ) ) ;
#193 = ORIENTED_EDGE ( 'NONE', *, *, #415, .T. ) ;
#194 = CALENDAR_DATE ( 2024, 22, 10 ) ;
#195 = VERTEX_POINT ( 'NONE', #113 ) ;
#196 = APPROVAL_ROLE ( '' ) ;
#197 = DIRECTION ( 'NONE',  ( 0.000000000000000000, 0.000000000000000000, -1.000000000000000000 ) ) ;
#198 = ORIENTED_EDGE ( 'NONE', *, *, #485, .F. ) ;
#199 = ORIENTED_EDGE ( 'NONE', *, *, #401, .F. ) ;
#200 = CC_DESIGN_SECURITY_CLASSIFICATION ( #190, ( #386 ) ) ;
#201 = AXIS2_PLACEMENT_3D ( 'NONE', #354, #299, #213 ) ;
#202 =( BOUNDED_CURVE ( )  B_SPLINE_CURVE ( 3, ( #34, #305, #430, #436 ),
 .UNSPECIFIED., .F., .T. ) 
 B_SPLINE_CURVE_WITH_KNOTS ( ( 4, 4 ),
 ( 1.570796326794896558, 1.749866926831910918 ),
 .UNSPECIFIED. ) 
 CURVE ( )  GEOMETRIC_REPRESENTATION_ITEM ( )  RATIONAL_B_SPLINE_CURVE ( ( 1.000000000000000000, 0.9973295946897341446, 0.9973295946897341446, 1.000000000000000000 ) ) 
 REPRESENTATION_ITEM ( '' )  );
#203 = PERSON_AND_ORGANIZATION_ROLE ( 'creator' ) ;
#204 = CARTESIAN_POINT ( 'NONE',  ( -25.78725553419050343, -30.00000000000000000, 10.78725553419049987 ) ) ;
#205 = VERTEX_POINT ( 'NONE', #208 ) ;
#206 = EDGE_CURVE ( 'NONE', #155, #513, #395, .T. ) ;
#207 = APPLICATION_PROTOCOL_DEFINITION ( 'international standard', 'config_control_design', 1994, #538 ) ;
#208 = CARTESIAN_POINT ( 'NONE',  ( 25.78725553419050343, -30.00000000000000000, -10.78725553419049987 ) ) ;
#209 = EDGE_LOOP ( 'NONE', ( #383, #336, #416, #101 ) ) ;
#210 = MANIFOLD_SOLID_BREP ( '¼ÆÊýÆ÷.stp<1>', #192 ) ;
#211 = DIRECTION ( 'NONE',  ( 0.000000000000000000, -1.000000000000000000, 0.000000000000000000 ) ) ;
#212 = CARTESIAN_POINT ( 'NONE',  ( -33.38769220324822129, -27.70843657931114024, -18.38769220324821418 ) ) ;
#213 = DIRECTION ( 'NONE',  ( -1.000000000000000000, 0.000000000000000000, 0.000000000000000000 ) ) ;
#214 = ORIENTED_EDGE ( 'NONE', *, *, #285, .F. ) ;
#215 = DIRECTION ( 'NONE',  ( 0.000000000000000000, 0.000000000000000000, 1.000000000000000000 ) ) ;
#216 = LINE ( 'NONE', #258, #223 ) ;
#217 = LINE ( 'NONE', #44, #99 ) ;
#218 = CARTESIAN_POINT ( 'NONE',  ( 30.50000000000000000, -30.00000000000000000, 18.00000000000000000 ) ) ;
#219 = CARTESIAN_POINT ( 'NONE',  ( 30.50000000000000000, 0.000000000000000000, 18.00000000000000000 ) ) ;
#220 = EDGE_CURVE ( 'NONE', #564, #437, #64, .T. ) ;
#221 = DIRECTION ( 'NONE',  ( -1.000000000000000000, 0.000000000000000000, 0.000000000000000000 ) ) ;
#222 = CYLINDRICAL_SURFACE ( 'NONE', #46, 9.999999999999998224 ) ;
#223 = VECTOR ( 'NONE', #221, 1000.000000000000000 ) ;
#224 = DIRECTION ( 'NONE',  ( 0.000000000000000000, 0.000000000000000000, -1.000000000000000000 ) ) ;
#225 = DIRECTION ( 'NONE',  ( -1.000000000000000000, 0.000000000000000000, 0.000000000000000000 ) ) ;
#226 = EDGE_CURVE ( 'NONE', #195, #73, #578, .T. ) ;
#227 = DIRECTION ( 'NONE',  ( 1.000000000000000000, 0.000000000000000000, 0.000000000000000000 ) ) ;
#228 = CARTESIAN_POINT ( 'NONE',  ( -30.50000000000000000, -30.00000000000000000, -18.00000000000000000 ) ) ;
#229 = VECTOR ( 'NONE', #262, 1000.000000000000000 ) ;
#230 = EDGE_CURVE ( 'NONE', #205, #343, #242, .T. ) ;
#231 = ORIENTED_EDGE ( 'NONE', *, *, #16, .F. ) ;
#232 = DIRECTION ( 'NONE',  ( 0.000000000000000000, 0.000000000000000000, -1.000000000000000000 ) ) ;
#233 = VERTEX_POINT ( 'NONE', #571 ) ;
#234 = CC_DESIGN_PERSON_AND_ORGANIZATION_ASSIGNMENT ( #573, #252, ( #386 ) ) ;
#235 = ORIENTED_EDGE ( 'NONE', *, *, #279, .F. ) ;
#236 = FACE_BOUND ( 'NONE', #189, .T. ) ;
#237 = PERSON_AND_ORGANIZATION ( #389, #311 ) ;
#238 = ORIENTED_EDGE ( 'NONE', *, *, #415, .F. ) ;
#239 = CC_DESIGN_APPROVAL ( #557, ( #386 ) ) ;
#240 = PLANE ( 'NONE',  #351 ) ;
#241 = ORIENTED_EDGE ( 'NONE', *, *, #505, .T. ) ;
#242 =( BOUNDED_CURVE ( )  B_SPLINE_CURVE ( 3, ( #70, #257, #246, #536 ),
 .UNSPECIFIED., .F., .T. ) 
 B_SPLINE_CURVE_WITH_KNOTS ( ( 4, 4 ),
 ( 1.570796326794896558, 2.742141141195397314 ),
 .UNSPECIFIED. ) 
 CURVE ( )  GEOMETRIC_REPRESENTATION_ITEM ( )  RATIONAL_B_SPLINE_CURVE ( ( 1.000000000000000000, 0.8888937297337650145, 0.8888937297337650145, 1.000000000000000000 ) ) 
 REPRESENTATION_ITEM ( '' )  );
#243 = COORDINATED_UNIVERSAL_TIME_OFFSET ( 8, 0, .AHEAD. ) ;
#244 = ORIENTED_EDGE ( 'NONE', *, *, #103, .F. ) ;
#245 = DATE_AND_TIME ( #61, #6 ) ;
#246 = CARTESIAN_POINT ( 'NONE',  ( 33.38769220324822129, -27.70843657931114024, -18.38769220324821418 ) ) ;
#247 = VERTEX_POINT ( 'NONE', #348 ) ;
#248 = EDGE_CURVE ( 'NONE', #328, #296, #442, .T. ) ;
#249 = ORIENTED_EDGE ( 'NONE', *, *, #586, .T. ) ;
#250 = VECTOR ( 'NONE', #514, 1000.000000000000000 ) ;
#251 = AXIS2_PLACEMENT_3D ( 'NONE', #83, #37, #169 ) ;
#252 = PERSON_AND_ORGANIZATION_ROLE ( 'design_supplier' ) ;
#253 = LINE ( 'NONE', #443, #533 ) ;
#254 = EDGE_LOOP ( 'NONE', ( #530, #350, #283, #427, #238, #419 ) ) ;
#255 = CYLINDRICAL_SURFACE ( 'NONE', #339, 10.00000000000000000 ) ;
#256 = CARTESIAN_POINT ( 'NONE',  ( -35.00000000000000000, -23.88913093218720007, 20.00000000000000000 ) ) ;
#257 = CARTESIAN_POINT ( 'NONE',  ( 29.93293184302351051, -30.00000000000001421, -14.93293184302350518 ) ) ;
#258 = CARTESIAN_POINT ( 'NONE',  ( -35.00000000000000000, -30.00000000000000000, 10.78725553419049987 ) ) ;
#259 = CARTESIAN_POINT ( 'NONE',  ( 30.50000000000000000, 0.000000000000000000, -18.00000000000000000 ) ) ;
#260 = LOCAL_TIME ( 11, 22, 28.00000000000000000, #243 ) ;
#261 = DIRECTION ( 'NONE',  ( 0.000000000000000000, 1.000000000000000000, 0.000000000000000000 ) ) ;
#262 = DIRECTION ( 'NONE',  ( 0.000000000000000000, 0.000000000000000000, -1.000000000000000000 ) ) ;
#263 = CARTESIAN_POINT ( 'NONE',  ( -30.50000000000000000, -30.00000000000000000, -18.00000000000000000 ) ) ;
#264 = LINE ( 'NONE', #175, #144 ) ;
#265 = ADVANCED_BREP_SHAPE_REPRESENTATION ( '\X2\8ba165705668\X0\2.stp', ( #210, #52 ), #565 ) ;
#266 = ADVANCED_FACE ( 'NONE', ( #308 ), #491, .T. ) ;
#267 = LINE ( 'NONE', #404, #119 ) ;
#268 = CARTESIAN_POINT ( 'NONE',  ( -17.56840665363390031, -29.84009657928750059, 12.56840665363390031 ) ) ;
#269 = EDGE_CURVE ( 'NONE', #18, #338, #216, .T. ) ;
#270 = LINE ( 'NONE', #41, #434 ) ;
#271 = VECTOR ( 'NONE', #125, 1000.000000000000000 ) ;
#272 = LINE ( 'NONE', #439, #54 ) ;
#273 = CARTESIAN_POINT ( 'NONE',  ( 30.50000000000000000, -23.88913093218720007, 18.00000000000000000 ) ) ;
#274 = ADVANCED_FACE ( 'NONE', ( #32 ), #136, .F. ) ;
#275 = DIRECTION ( 'NONE',  ( -1.000000000000000000, 0.000000000000000000, 0.000000000000000000 ) ) ;
#276 = VECTOR ( 'NONE', #410, 1000.000000000000000 ) ;
#277 = ORIENTED_EDGE ( 'NONE', *, *, #293, .T. ) ;
#278 = CARTESIAN_POINT ( 'NONE',  ( -35.00000000000000000, -23.88913093218720007, -20.00000000000000000 ) ) ;
#279 = EDGE_CURVE ( 'NONE', #7, #575, #92, .T. ) ;
#280 = ORIENTED_EDGE ( 'NONE', *, *, #248, .F. ) ;
#281 = CARTESIAN_POINT ( 'NONE',  ( 25.78725553419050343, -20.00000000000000000, -20.00000000000000000 ) ) ;
#282 = PERSON_AND_ORGANIZATION ( #389, #311 ) ;
#283 = ORIENTED_EDGE ( 'NONE', *, *, #553, .T. ) ;
#284 = CARTESIAN_POINT ( 'NONE',  ( -12.50000000000000000, -27.28584643766780005, 7.500000000000000000 ) ) ;
#285 = EDGE_CURVE ( 'NONE', #400, #73, #287, .T. ) ;
#286 = PRODUCT ( '\X2\8ba165705668\X0\2.stp', '\X2\8ba165705668\X0\2.stp', '', ( #380 ) ) ;
#287 =( BOUNDED_CURVE ( )  B_SPLINE_CURVE ( 3, ( #268, #397, #576, #50 ),
 .UNSPECIFIED., .F., .F. ) 
 B_SPLINE_CURVE_WITH_KNOTS ( ( 4, 4 ),
 ( 1.391725726757882420, 1.570796326794896558 ),
 .UNSPECIFIED. ) 
 CURVE ( )  GEOMETRIC_REPRESENTATION_ITEM ( )  RATIONAL_B_SPLINE_CURVE ( ( 1.000000000000000000, 0.9973295946897341446, 0.9973295946897341446, 1.000000000000000000 ) ) 
 REPRESENTATION_ITEM ( '' )  );
#288 = APPROVAL_DATE_TIME ( #107, #172 ) ;
#289 = ORIENTED_EDGE ( 'NONE', *, *, #480, .F. ) ;
#290 = APPROVAL_DATE_TIME ( #245, #152 ) ;
#291 = ORIENTED_EDGE ( 'NONE', *, *, #570, .T. ) ;
#292 = ORIENTED_EDGE ( 'NONE', *, *, #453, .T. ) ;
#293 = EDGE_CURVE ( 'NONE', #437, #521, #589, .T. ) ;
#294 = COORDINATED_UNIVERSAL_TIME_OFFSET ( 8, 0, .AHEAD. ) ;
#295 = CARTESIAN_POINT ( 'NONE',  ( -35.00000000000000000, -23.88913093218720007, 20.00000000000000000 ) ) ;
#296 = VERTEX_POINT ( 'NONE', #528 ) ;
#297 = EDGE_LOOP ( 'NONE', ( #249, #105, #561, #482 ) ) ;
#298 = PERSON_AND_ORGANIZATION_ROLE ( 'classification_officer' ) ;
#299 = DIRECTION ( 'NONE',  ( 0.000000000000000000, 0.000000000000000000, -1.000000000000000000 ) ) ;
#300 = ORIENTED_EDGE ( 'NONE', *, *, #57, .F. ) ;
#301 = VECTOR ( 'NONE', #33, 1000.000000000000000 ) ;
#302 = VECTOR ( 'NONE', #587, 1000.000000000000000 ) ;
#303 = CARTESIAN_POINT ( 'NONE',  ( 12.50000000000000000, -27.28584643766780005, -7.500000000000000000 ) ) ;
#304 = CARTESIAN_POINT ( 'NONE',  ( -30.50000000000000000, 0.000000000000000000, 18.00000000000000000 ) ) ;
#305 = CARTESIAN_POINT ( 'NONE',  ( 18.75185686744755387, -30.00000000000001421, 11.38495643982024674 ) ) ;
#306 = ORIENTED_EDGE ( 'NONE', *, *, #373, .F. ) ;
#307 = CARTESIAN_POINT ( 'NONE',  ( -12.50000000000000000, -27.28584643766780005, -7.500000000000000000 ) ) ;
#308 = FACE_OUTER_BOUND ( 'NONE', #209, .T. ) ;
#309 = FACE_OUTER_BOUND ( 'NONE', #572, .T. ) ;
#310 = CARTESIAN_POINT ( 'NONE',  ( -12.50000000000000000, -27.28584643766780005, 7.500000000000000000 ) ) ;
#311 = ORGANIZATION ( 'æœª', 'æœª', '' ) ;
#312 = VECTOR ( 'NONE', #503, 1000.000000000000000 ) ;
#313 = CARTESIAN_POINT ( 'NONE',  ( -30.50000000000000000, -30.00000000000000000, 18.00000000000000000 ) ) ;
#314 = CYLINDRICAL_SURFACE ( 'NONE', #461, 10.00000000000000000 ) ;
#315 = FACE_OUTER_BOUND ( 'NONE', #532, .T. ) ;
#316 = EDGE_CURVE ( 'NONE', #296, #7, #454, .T. ) ;
#317 =( BOUNDED_CURVE ( )  B_SPLINE_CURVE ( 3, ( #82, #529, #577, #120 ),
 .UNSPECIFIED., .F., .T. ) 
 B_SPLINE_CURVE_WITH_KNOTS ( ( 4, 4 ),
 ( 4.891459580421703812, 5.466931980789379253 ),
 .UNSPECIFIED. ) 
 CURVE ( )  GEOMETRIC_REPRESENTATION_ITEM ( )  RATIONAL_B_SPLINE_CURVE ( ( 1.000000000000000000, 0.9725925054375530454, 0.9725925054375530454, 1.000000000000000000 ) ) 
 REPRESENTATION_ITEM ( '' )  );
#318 = DIRECTION ( 'NONE',  ( 0.000000000000000000, 0.000000000000000000, 1.000000000000000000 ) ) ;
#319 = LINE ( 'NONE', #228, #483 ) ;
#320 = DIRECTION ( 'NONE',  ( 1.000000000000000000, 0.000000000000000000, 0.000000000000000000 ) ) ;
#321 = CARTESIAN_POINT ( 'NONE',  ( 0.000000000000000000, -27.28584643766780005, 0.000000000000000000 ) ) ;
#322 = CARTESIAN_POINT ( 'NONE',  ( 17.56840665363390031, -29.84009657928750059, -12.56840665363390031 ) ) ;
#323 = CARTESIAN_POINT ( 'NONE',  ( 29.93293184302351051, -30.00000000000001421, 14.93293184302350518 ) ) ;
#324 = ORIENTED_EDGE ( 'NONE', *, *, #417, .F. ) ;
#325 = DIRECTION ( 'NONE',  ( 0.000000000000000000, 0.000000000000000000, 1.000000000000000000 ) ) ;
#326 = ADVANCED_FACE ( 'NONE', ( #364 ), #405, .T. ) ;
#327 = VECTOR ( 'NONE', #585, 1000.000000000000000 ) ;
#328 = VERTEX_POINT ( 'NONE', #131 ) ;
#329 = CARTESIAN_POINT ( 'NONE',  ( 12.50000000000000000, -27.28584643766780005, -7.500000000000000000 ) ) ;
#330 =( BOUNDED_CURVE ( )  B_SPLINE_CURVE ( 3, ( #493, #30, #391, #522 ),
 .UNSPECIFIED., .F., .T. ) 
 B_SPLINE_CURVE_WITH_KNOTS ( ( 4, 4 ),
 ( 1.570796326794896558, 1.749866926831910918 ),
 .UNSPECIFIED. ) 
 CURVE ( )  GEOMETRIC_REPRESENTATION_ITEM ( )  RATIONAL_B_SPLINE_CURVE ( ( 1.000000000000000000, 0.9973295946897341446, 0.9973295946897341446, 1.000000000000000000 ) ) 
 REPRESENTATION_ITEM ( '' )  );
#331 = ORIENTED_EDGE ( 'NONE', *, *, #60, .F. ) ;
#332 = CARTESIAN_POINT ( 'NONE',  ( 0.000000000000000000, -23.88913093218720007, 0.000000000000000000 ) ) ;
#333 = ADVANCED_FACE ( 'NONE', ( #78 ), #255, .T. ) ;
#334 = PERSON_AND_ORGANIZATION_ROLE ( 'creator' ) ;
#335 = ORIENTED_EDGE ( 'NONE', *, *, #279, .T. ) ;
#336 = ORIENTED_EDGE ( 'NONE', *, *, #60, .T. ) ;
#337 = APPROVAL_PERSON_ORGANIZATION ( #161, #172, #196 ) ;
#338 = VERTEX_POINT ( 'NONE', #504 ) ;
#339 = AXIS2_PLACEMENT_3D ( 'NONE', #47, #451, #2 ) ;
#340 = EDGE_CURVE ( 'NONE', #151, #184, #428, .T. ) ;
#341 = DATE_TIME_ROLE ( 'creation_date' ) ;
#342 = CARTESIAN_POINT ( 'NONE',  ( 17.56840665363390031, -29.84009657928750059, -12.56840665363390031 ) ) ;
#343 = VERTEX_POINT ( 'NONE', #549 ) ;
#344 = CC_DESIGN_DATE_AND_TIME_ASSIGNMENT ( #476, #341, ( #72 ) ) ;
#345 = COORDINATED_UNIVERSAL_TIME_OFFSET ( 8, 0, .AHEAD. ) ;
#346 = DIRECTION ( 'NONE',  ( 1.000000000000000000, 0.000000000000000000, 0.000000000000000000 ) ) ;
#347 = ORIENTED_EDGE ( 'NONE', *, *, #462, .T. ) ;
#348 = CARTESIAN_POINT ( 'NONE',  ( -17.56840665363390031, -29.84009657928750059, -12.56840665363390031 ) ) ;
#349 = ORIENTED_EDGE ( 'NONE', *, *, #57, .T. ) ;
#350 = ORIENTED_EDGE ( 'NONE', *, *, #180, .T. ) ;
#351 = AXIS2_PLACEMENT_3D ( 'NONE', #96, #414, #145 ) ;
#352 = FACE_OUTER_BOUND ( 'NONE', #35, .T. ) ;
#353 = DIRECTION ( 'NONE',  ( 1.000000000000000000, 0.000000000000000000, 0.000000000000000000 ) ) ;
#354 = CARTESIAN_POINT ( 'NONE',  ( 19.34955777307730074, -20.00000000000000000, -7.500000000000000000 ) ) ;
#355 = VERTEX_POINT ( 'NONE', #95 ) ;
#356 = CARTESIAN_POINT ( 'NONE',  ( 18.75185686744755387, -30.00000000000001421, -11.38495643982024674 ) ) ;
#357 = DIRECTION ( 'NONE',  ( 0.000000000000000000, 0.000000000000000000, -1.000000000000000000 ) ) ;
#358 = DIRECTION ( 'NONE',  ( 0.000000000000000000, 0.000000000000000000, 1.000000000000000000 ) ) ;
#359 = CC_DESIGN_APPROVAL ( #152, ( #190 ) ) ;
#360 = EDGE_CURVE ( 'NONE', #147, #114, #272, .T. ) ;
#361 = CARTESIAN_POINT ( 'NONE',  ( 12.50000000000000000, -20.00000000000000000, 14.34955777307730074 ) ) ;
#362 = DIRECTION ( 'NONE',  ( 0.000000000000000000, 0.000000000000000000, -1.000000000000000000 ) ) ;
#363 = DIRECTION ( 'NONE',  ( 0.000000000000000000, 0.000000000000000000, -1.000000000000000000 ) ) ;
#364 = FACE_OUTER_BOUND ( 'NONE', #297, .T. ) ;
#365 = CARTESIAN_POINT ( 'NONE',  ( -25.78725553419050343, -20.00000000000000000, 20.00000000000000000 ) ) ;
#366 = DIRECTION ( 'NONE',  ( 0.000000000000000000, 0.000000000000000000, 1.000000000000000000 ) ) ;
#367 = AXIS2_PLACEMENT_3D ( 'NONE', #332, #11, #232 ) ;
#368 = CARTESIAN_POINT ( 'NONE',  ( 35.00000000000000000, -23.88913093218720007, 20.00000000000000000 ) ) ;
#369 = EDGE_LOOP ( 'NONE', ( #31, #463, #55, #289 ) ) ;
#370 = LINE ( 'NONE', #556, #455 ) ;
#371 =( BOUNDED_CURVE ( )  B_SPLINE_CURVE ( 3, ( #490, #444, #212, #492 ),
 .UNSPECIFIED., .F., .F. ) 
 B_SPLINE_CURVE_WITH_KNOTS ( ( 4, 4 ),
 ( 1.570796326794896558, 2.742141141195397314 ),
 .UNSPECIFIED. ) 
 CURVE ( )  GEOMETRIC_REPRESENTATION_ITEM ( )  RATIONAL_B_SPLINE_CURVE ( ( 1.000000000000000000, 0.8888937297337650145, 0.8888937297337650145, 1.000000000000000000 ) ) 
 REPRESENTATION_ITEM ( '' )  );
#372 = VERTEX_POINT ( 'NONE', #458 ) ;
#373 = EDGE_CURVE ( 'NONE', #526, #97, #319, .T. ) ;
#374 = CARTESIAN_POINT ( 'NONE',  ( 35.00000000000000000, -30.00000000000000000, -10.78725553419049987 ) ) ;
#375 = VECTOR ( 'NONE', #186, 1000.000000000000000 ) ;
#376 = AXIS2_PLACEMENT_3D ( 'NONE', #263, #318, #320 ) ;
#377 = VERTEX_POINT ( 'NONE', #5 ) ;
#378 = ADVANCED_FACE ( 'NONE', ( #315 ), #43, .T. ) ;
#379 = CARTESIAN_POINT ( 'NONE',  ( 19.34955777307730074, -30.00000000000000000, -7.500000000000000000 ) ) ;
#380 = MECHANICAL_CONTEXT ( 'NONE', #38, 'mechanical' ) ;
#381 = ORIENTED_EDGE ( 'NONE', *, *, #248, .T. ) ;
#382 = DATE_AND_TIME ( #519, #580 ) ;
#383 = ORIENTED_EDGE ( 'NONE', *, *, #508, .T. ) ;
#384 = PERSON_AND_ORGANIZATION ( #389, #311 ) ;
#385 = ORIENTED_EDGE ( 'NONE', *, *, #220, .T. ) ;
#386 = PRODUCT_DEFINITION_FORMATION_WITH_SPECIFIED_SOURCE ( 'ä»', '', #286, .NOT_KNOWN. ) ;
#387 = ORIENTED_EDGE ( 'NONE', *, *, #115, .T. ) ;
#388 = VECTOR ( 'NONE', #261, 1000.000000000000000 ) ;
#389 = PERSON ( 'æœª', 'æœª', 'æœª', ('æœª'), ('æœª'), ('æœª') ) ;
#390 = PERSON_AND_ORGANIZATION ( #389, #311 ) ;
#391 = CARTESIAN_POINT ( 'NONE',  ( -18.15655011732632573, -29.94655614300299007, -11.98026318994147310 ) ) ;
#392 = ORIENTED_EDGE ( 'NONE', *, *, #340, .T. ) ;
#393 = ADVANCED_FACE ( 'NONE', ( #352 ), #181, .T. ) ;
#394 = DATE_AND_TIME ( #515, #260 ) ;
#395 = LINE ( 'NONE', #80, #484 ) ;
#396 = ORIENTED_EDGE ( 'NONE', *, *, #373, .T. ) ;
#397 = CARTESIAN_POINT ( 'NONE',  ( -18.15655011732632573, -29.94655614300299007, 11.98026318994147310 ) ) ;
#398 = DIRECTION ( 'NONE',  ( 0.000000000000000000, -1.000000000000000000, 0.000000000000000000 ) ) ;
#399 = LINE ( 'NONE', #20, #74 ) ;
#400 = VERTEX_POINT ( 'NONE', #90 ) ;
#401 = EDGE_CURVE ( 'NONE', #97, #147, #264, .T. ) ;
#402 = PLANE ( 'NONE',  #153 ) ;
#403 = ADVANCED_FACE ( 'NONE', ( #138 ), #506, .T. ) ;
#404 = CARTESIAN_POINT ( 'NONE',  ( 30.50000000000000000, 0.000000000000000000, 18.00000000000000000 ) ) ;
#405 = PLANE ( 'NONE',  #495 ) ;
#406 = PRODUCT_RELATED_PRODUCT_CATEGORY ( 'detail', '', ( #286 ) ) ;
#407 = DIRECTION ( 'NONE',  ( 0.000000000000000000, -1.000000000000000000, 0.000000000000000000 ) ) ;
#408 = DIRECTION ( 'NONE',  ( 0.000000000000000000, 0.000000000000000000, -1.000000000000000000 ) ) ;
#409 = CARTESIAN_POINT ( 'NONE',  ( 25.78725553419050343, -30.00000000000000000, 10.78725553419049987 ) ) ;
#410 = DIRECTION ( 'NONE',  ( -1.000000000000000000, 0.000000000000000000, 0.000000000000000000 ) ) ;
#411 = DIRECTION ( 'NONE',  ( 0.000000000000000000, 1.000000000000000000, 0.000000000000000000 ) ) ;
#412 = APPROVAL_PERSON_ORGANIZATION ( #237, #557, #112 ) ;
#413 = ORIENTED_EDGE ( 'NONE', *, *, #170, .F. ) ;
#414 = DIRECTION ( 'NONE',  ( 0.000000000000000000, -1.000000000000000000, 0.000000000000000000 ) ) ;
#415 = EDGE_CURVE ( 'NONE', #400, #155, #124, .T. ) ;
#416 = ORIENTED_EDGE ( 'NONE', *, *, #480, .T. ) ;
#417 = EDGE_CURVE ( 'NONE', #355, #155, #139, .T. ) ;
#418 = EDGE_CURVE ( 'NONE', #377, #18, #3, .T. ) ;
#419 = ORIENTED_EDGE ( 'NONE', *, *, #285, .T. ) ;
#420 = LINE ( 'NONE', #329, #250 ) ;
#421 = PRODUCT_DEFINITION_SHAPE ( 'NONE', 'NONE',  #72 ) ;
#422 = VECTOR ( 'NONE', #275, 1000.000000000000000 ) ;
#423 = SHAPE_DEFINITION_REPRESENTATION ( #421, #265 ) ;
#424 = ORIENTED_EDGE ( 'NONE', *, *, #77, .T. ) ;
#425 = ORIENTED_EDGE ( 'NONE', *, *, #160, .T. ) ;
#426 = CARTESIAN_POINT ( 'NONE',  ( 15.65431659321814983, -29.49362806382585944, 10.65431659321815161 ) ) ;
#427 = ORIENTED_EDGE ( 'NONE', *, *, #206, .F. ) ;
#428 =( BOUNDED_CURVE ( )  B_SPLINE_CURVE ( 3, ( #303, #499, #486, #322 ),
 .UNSPECIFIED., .F., .F. ) 
 B_SPLINE_CURVE_WITH_KNOTS ( ( 4, 4 ),
 ( 3.957845979980000539, 4.533318380347675536 ),
 .UNSPECIFIED. ) 
 CURVE ( )  GEOMETRIC_REPRESENTATION_ITEM ( )  RATIONAL_B_SPLINE_CURVE ( ( 1.000000000000000000, 0.9725925054375530454, 0.9725925054375530454, 1.000000000000000000 ) ) 
 REPRESENTATION_ITEM ( '' )  );
#429 = DIRECTION ( 'NONE',  ( 0.000000000000000000, 0.000000000000000000, 1.000000000000000000 ) ) ;
#430 = CARTESIAN_POINT ( 'NONE',  ( 18.15655011732632573, -29.94655614300299007, 11.98026318994147310 ) ) ;
#431 = ORIENTED_EDGE ( 'NONE', *, *, #87, .F. ) ;
#432 = LOCAL_TIME ( 11, 22, 28.00000000000000000, #345 ) ;
#433 = ORIENTED_EDGE ( 'NONE', *, *, #180, .F. ) ;
#434 = VECTOR ( 'NONE', #91, 1000.000000000000000 ) ;
#435 = DATE_TIME_ROLE ( 'classification_date' ) ;
#436 = CARTESIAN_POINT ( 'NONE',  ( 17.56840665363390031, -29.84009657928750059, 12.56840665363390031 ) ) ;
#437 = VERTEX_POINT ( 'NONE', #59 ) ;
#438 = ORIENTED_EDGE ( 'NONE', *, *, #115, .F. ) ;
#439 = CARTESIAN_POINT ( 'NONE',  ( 30.50000000000000000, 0.000000000000000000, -18.00000000000000000 ) ) ;
#440 = ADVANCED_FACE ( 'NONE', ( #507, #236 ), #517, .F. ) ;
#441 = LINE ( 'NONE', #487, #301 ) ;
#442 = LINE ( 'NONE', #121, #271 ) ;
#443 = CARTESIAN_POINT ( 'NONE',  ( -35.00000000000000000, -30.00000000000000000, 10.78725553419049987 ) ) ;
#444 = CARTESIAN_POINT ( 'NONE',  ( -29.93293184302351051, -30.00000000000001421, -14.93293184302350518 ) ) ;
#445 = CARTESIAN_POINT ( 'NONE',  ( 17.56840665363390031, -29.84009657928750059, -12.56840665363390031 ) ) ;
#446 = ADVANCED_FACE ( 'NONE', ( #510 ), #240, .F. ) ;
#447 = FACE_OUTER_BOUND ( 'NONE', #468, .T. ) ;
#448 = PLANE ( 'NONE',  #23 ) ;
#449 = PLANE ( 'NONE',  #376 ) ;
#450 = CC_DESIGN_PERSON_AND_ORGANIZATION_ASSIGNMENT ( #384, #473, ( #286 ) ) ;
#451 = DIRECTION ( 'NONE',  ( -1.000000000000000000, 0.000000000000000000, 0.000000000000000000 ) ) ;
#452 = DIRECTION ( 'NONE',  ( -1.000000000000000000, 0.000000000000000000, 0.000000000000000000 ) ) ;
#453 = EDGE_CURVE ( 'NONE', #575, #97, #9, .T. ) ;
#454 = LINE ( 'NONE', #273, #276 ) ;
#455 = VECTOR ( 'NONE', #141, 1000.000000000000000 ) ;
#456 = LINE ( 'NONE', #48, #174 ) ;
#457 = DESIGN_CONTEXT ( 'detailed design', #538, 'design' ) ;
#458 = CARTESIAN_POINT ( 'NONE',  ( 17.56840665363390031, -29.84009657928750059, 12.56840665363390031 ) ) ;
#459 = CARTESIAN_POINT ( 'NONE',  ( 30.50000000000000000, -30.00000000000000000, -18.00000000000000000 ) ) ;
#460 = CARTESIAN_POINT ( 'NONE',  ( 33.38769220324822129, -27.70843657931114024, 18.38769220324821418 ) ) ;
#461 = AXIS2_PLACEMENT_3D ( 'NONE', #361, #179, #363 ) ;
#462 = EDGE_CURVE ( 'NONE', #372, #400, #370, .T. ) ;
#463 = ORIENTED_EDGE ( 'NONE', *, *, #103, .T. ) ;
#464 = LINE ( 'NONE', #374, #4 ) ;
#465 = EDGE_LOOP ( 'NONE', ( #277, #489, #187, #569 ) ) ;
#466 = CARTESIAN_POINT ( 'NONE',  ( -17.56840665363390031, -29.84009657928750059, 12.56840665363390031 ) ) ;
#467 = SECURITY_CLASSIFICATION_LEVEL ( 'unclassified' ) ;
#468 = EDGE_LOOP ( 'NONE', ( #563, #523, #140, #520 ) ) ;
#469 = CARTESIAN_POINT ( 'NONE',  ( -30.50000000000000000, 0.000000000000000000, 18.00000000000000000 ) ) ;
#470 = LOCAL_TIME ( 11, 22, 28.00000000000000000, #24 ) ;
#471 = COORDINATED_UNIVERSAL_TIME_OFFSET ( 8, 0, .AHEAD. ) ;
#472 = EDGE_LOOP ( 'NONE', ( #392, #108, #474, #425, #150, #158 ) ) ;
#473 = PERSON_AND_ORGANIZATION_ROLE ( 'design_owner' ) ;
#474 = ORIENTED_EDGE ( 'NONE', *, *, #508, .F. ) ;
#475 = ORIENTED_EDGE ( 'NONE', *, *, #185, .T. ) ;
#476 = DATE_AND_TIME ( #194, #432 ) ;
#477 = DIRECTION ( 'NONE',  ( 0.000000000000000000, 0.000000000000000000, 1.000000000000000000 ) ) ;
#478 = VERTEX_POINT ( 'NONE', #278 ) ;
#479 = ORIENTED_EDGE ( 'NONE', *, *, #401, .T. ) ;
#480 = EDGE_CURVE ( 'NONE', #205, #18, #14, .T. ) ;
#481 = CARTESIAN_POINT ( 'NONE',  ( 18.15655011732632573, -29.94655614300299007, -11.98026318994147310 ) ) ;
#482 = ORIENTED_EDGE ( 'NONE', *, *, #206, .T. ) ;
#483 = VECTOR ( 'NONE', #411, 1000.000000000000000 ) ;
#484 = VECTOR ( 'NONE', #157, 1000.000000000000000 ) ;
#485 = EDGE_CURVE ( 'NONE', #521, #195, #464, .T. ) ;
#486 = CARTESIAN_POINT ( 'NONE',  ( 15.65431659321814983, -29.49362806382585944, -10.65431659321815161 ) ) ;
#487 = CARTESIAN_POINT ( 'NONE',  ( -12.50000000000000000, -27.28584643766780005, -7.500000000000000000 ) ) ;
#488 = CARTESIAN_POINT ( 'NONE',  ( 12.50000000000000000, -27.28584643766780005, -7.500000000000000000 ) ) ;
#489 = ORIENTED_EDGE ( 'NONE', *, *, #485, .T. ) ;
#490 = CARTESIAN_POINT ( 'NONE',  ( -25.78725553419050343, -30.00000000000000000, -10.78725553419049987 ) ) ;
#491 = PLANE ( 'NONE',  #251 ) ;
#492 = CARTESIAN_POINT ( 'NONE',  ( -35.00000000000000000, -23.88913093218720007, -20.00000000000000000 ) ) ;
#493 = CARTESIAN_POINT ( 'NONE',  ( -19.34955777307730074, -30.00000000000000000, -10.78725553419049987 ) ) ;
#494 = VECTOR ( 'NONE', #325, 1000.000000000000000 ) ;
#495 = AXIS2_PLACEMENT_3D ( 'NONE', #321, #211, #408 ) ;
#496 = CC_DESIGN_PERSON_AND_ORGANIZATION_ASSIGNMENT ( #390, #334, ( #386 ) ) ;
#497 = DIRECTION ( 'NONE',  ( 0.000000000000000000, 1.000000000000000000, 0.000000000000000000 ) ) ;
#498 = FACE_OUTER_BOUND ( 'NONE', #65, .T. ) ;
#499 = CARTESIAN_POINT ( 'NONE',  ( 13.91723875733192273, -28.61821856898279037, -8.917238757331926280 ) ) ;
#500 = LINE ( 'NONE', #547, #327 ) ;
#501 = EDGE_CURVE ( 'NONE', #151, #355, #420, .T. ) ;
#502 = DIRECTION ( 'NONE',  ( 0.000000000000000000, 0.000000000000000000, 1.000000000000000000 ) ) ;
#503 = DIRECTION ( 'NONE',  ( 0.000000000000000000, 0.000000000000000000, -1.000000000000000000 ) ) ;
#504 = CARTESIAN_POINT ( 'NONE',  ( 19.34955777307730074, -30.00000000000000000, 10.78725553419049987 ) ) ;
#505 = EDGE_CURVE ( 'NONE', #526, #328, #562, .T. ) ;
#506 = CYLINDRICAL_SURFACE ( 'NONE', #164, 9.999999999999998224 ) ;
#507 = FACE_OUTER_BOUND ( 'NONE', #509, .T. ) ;
#508 = EDGE_CURVE ( 'NONE', #338, #233, #191, .T. ) ;
#509 = EDGE_LOOP ( 'NONE', ( #71, #431, #10, #244 ) ) ;
#510 = FACE_OUTER_BOUND ( 'NONE', #167, .T. ) ;
#511 = AXIS2_PLACEMENT_3D ( 'NONE', #49, #227, #362 ) ;
#512 = VECTOR ( 'NONE', #477, 1000.000000000000000 ) ;
#513 = VERTEX_POINT ( 'NONE', #307 ) ;
#514 = DIRECTION ( 'NONE',  ( 0.000000000000000000, 0.000000000000000000, 1.000000000000000000 ) ) ;
#515 = CALENDAR_DATE ( 2024, 22, 10 ) ;
#516 = ORIENTED_EDGE ( 'NONE', *, *, #123, .T. ) ;
#517 = PLANE ( 'NONE',  #367 ) ;
#518 = ORIENTED_EDGE ( 'NONE', *, *, #127, .T. ) ;
#519 = CALENDAR_DATE ( 2024, 22, 10 ) ;
#520 = ORIENTED_EDGE ( 'NONE', *, *, #293, .F. ) ;
#521 = VERTEX_POINT ( 'NONE', #541 ) ;
#522 = CARTESIAN_POINT ( 'NONE',  ( -17.56840665363390031, -29.84009657928750059, -12.56840665363390031 ) ) ;
#523 = ORIENTED_EDGE ( 'NONE', *, *, #87, .T. ) ;
#524 = ADVANCED_FACE ( 'NONE', ( #36 ), #448, .F. ) ;
#525 = PERSON_AND_ORGANIZATION ( #389, #311 ) ;
#526 = VERTEX_POINT ( 'NONE', #79 ) ;
#527 = EDGE_LOOP ( 'NONE', ( #518, #347, #193, #324 ) ) ;
#528 = CARTESIAN_POINT ( 'NONE',  ( 30.50000000000000000, -23.88913093218720007, 18.00000000000000000 ) ) ;
#529 = CARTESIAN_POINT ( 'NONE',  ( -15.65431659321815339, -29.49362806382585944, -10.65431659321815339 ) ) ;
#530 = ORIENTED_EDGE ( 'NONE', *, *, #226, .F. ) ;
#531 = APPROVAL_PERSON_ORGANIZATION ( #109, #152, #67 ) ;
#532 = EDGE_LOOP ( 'NONE', ( #26, #13, #27, #516, #385, #21, #214, #537 ) ) ;
#533 = VECTOR ( 'NONE', #452, 1000.000000000000000 ) ;
#534 = CARTESIAN_POINT ( 'NONE',  ( -12.50000000000000000, -20.00000000000000000, -14.34955777307730074 ) ) ;
#535 =( LENGTH_UNIT ( ) NAMED_UNIT ( * ) SI_UNIT ( .MILLI., .METRE. ) );
#536 = CARTESIAN_POINT ( 'NONE',  ( 35.00000000000000000, -23.88913093218720007, -20.00000000000000000 ) ) ;
#537 = ORIENTED_EDGE ( 'NONE', *, *, #462, .F. ) ;
#538 = APPLICATION_CONTEXT ( 'configuration controlled 3d designs of mechanical parts and assemblies' ) ;
#539 = FACE_OUTER_BOUND ( 'NONE', #254, .T. ) ;
#540 = CARTESIAN_POINT ( 'NONE',  ( 17.56840665363390031, -29.84009657928750059, 12.56840665363390031 ) ) ;
#541 = CARTESIAN_POINT ( 'NONE',  ( -25.78725553419050343, -30.00000000000000000, -10.78725553419049987 ) ) ;
#542 = CARTESIAN_POINT ( 'NONE',  ( 35.00000000000000000, -30.00000000000000000, -10.78725553419049987 ) ) ;
#543 = VECTOR ( 'NONE', #173, 1000.000000000000000 ) ;
#544 = DIRECTION ( 'NONE',  ( 0.000000000000000000, 0.000000000000000000, -1.000000000000000000 ) ) ;
#545 = DIRECTION ( 'NONE',  ( -1.000000000000000000, 0.000000000000000000, 0.000000000000000000 ) ) ;
#546 = ADVANCED_FACE ( 'NONE', ( #309 ), #168, .F. ) ;
#547 = CARTESIAN_POINT ( 'NONE',  ( -17.56840665363390031, -29.84009657928750059, -12.56840665363390031 ) ) ;
#548 = ADVANCED_FACE ( 'NONE', ( #539 ), #88, .T. ) ;
#549 = CARTESIAN_POINT ( 'NONE',  ( 35.00000000000000000, -23.88913093218720007, -20.00000000000000000 ) ) ;
#550 = LINE ( 'NONE', #584, #312 ) ;
#551 = DIRECTION ( 'NONE',  ( 1.000000000000000000, 0.000000000000000000, 0.000000000000000000 ) ) ;
#552 = UNCERTAINTY_MEASURE_WITH_UNIT (LENGTH_MEASURE( 1.000000000000000082E-05 ), #535, 'distance_accuracy_value', 'NONE');
#553 = EDGE_CURVE ( 'NONE', #247, #513, #317, .T. ) ;
#554 = CARTESIAN_POINT ( 'NONE',  ( -13.91723875733192450, -28.61821856898279037, 8.917238757331928056 ) ) ;
#555 = ORIENTED_EDGE ( 'NONE', *, *, #505, .F. ) ;
#556 = CARTESIAN_POINT ( 'NONE',  ( 17.56840665363390031, -29.84009657928750059, 12.56840665363390031 ) ) ;
#557 = APPROVAL ( #29, 'æœª' ) ;
#558 = ORIENTED_EDGE ( 'NONE', *, *, #16, .T. ) ;
#559 = DIRECTION ( 'NONE',  ( 1.000000000000000000, 0.000000000000000000, 0.000000000000000000 ) ) ;
#560 = AXIS2_PLACEMENT_3D ( 'NONE', #459, #178, #502 ) ;
#561 = ORIENTED_EDGE ( 'NONE', *, *, #417, .T. ) ;
#562 = LINE ( 'NONE', #102, #128 ) ;
#563 = ORIENTED_EDGE ( 'NONE', *, *, #220, .F. ) ;
#564 = VERTEX_POINT ( 'NONE', #256 ) ;
#565 =( GEOMETRIC_REPRESENTATION_CONTEXT ( 3 ) GLOBAL_UNCERTAINTY_ASSIGNED_CONTEXT ( ( #552 ) ) GLOBAL_UNIT_ASSIGNED_CONTEXT ( ( #535, #581, #126 ) ) REPRESENTATION_CONTEXT ( 'NONE', 'WORKASPACE' ) );
#566 = CALENDAR_DATE ( 2024, 22, 10 ) ;
#567 = CARTESIAN_POINT ( 'NONE',  ( -29.93293184302351051, -30.00000000000001421, 14.93293184302350518 ) ) ;
#568 = ORIENTED_EDGE ( 'NONE', *, *, #360, .T. ) ;
#569 = ORIENTED_EDGE ( 'NONE', *, *, #12, .T. ) ;
#570 = EDGE_CURVE ( 'NONE', #521, #478, #371, .T. ) ;
#571 = CARTESIAN_POINT ( 'NONE',  ( 19.34955777307730074, -30.00000000000000000, -10.78725553419049987 ) ) ;
#572 = EDGE_LOOP ( 'NONE', ( #58, #558, #387, #235 ) ) ;
#573 = PERSON_AND_ORGANIZATION ( #389, #311 ) ;
#574 = CARTESIAN_POINT ( 'NONE',  ( -33.38769220324822129, -27.70843657931114024, 18.38769220324821418 ) ) ;
#575 = VERTEX_POINT ( 'NONE', #304 ) ;
#576 = CARTESIAN_POINT ( 'NONE',  ( -18.75185686744755387, -30.00000000000001421, 11.38495643982024674 ) ) ;
#577 = CARTESIAN_POINT ( 'NONE',  ( -13.91723875733192450, -28.61821856898279037, -8.917238757331928056 ) ) ;
#578 = LINE ( 'NONE', #166, #512 ) ;
#579 = ORIENTED_EDGE ( 'NONE', *, *, #360, .F. ) ;
#580 = LOCAL_TIME ( 11, 22, 28.00000000000000000, #471 ) ;
#581 =( NAMED_UNIT ( * ) PLANE_ANGLE_UNIT ( ) SI_UNIT ( $, .RADIAN. ) );
#582 = CARTESIAN_POINT ( 'NONE',  ( 13.91723875733192273, -28.61821856898279037, 8.917238757331926280 ) ) ;
#583 = APPLICATION_PROTOCOL_DEFINITION ( 'international standard', 'config_control_design', 1994, #38 ) ;
#584 = CARTESIAN_POINT ( 'NONE',  ( -35.00000000000000000, -23.88913093218720007, 20.00000000000000000 ) ) ;
#585 = DIRECTION ( 'NONE',  ( 1.000000000000000000, 0.000000000000000000, 0.000000000000000000 ) ) ;
#586 = EDGE_CURVE ( 'NONE', #513, #151, #441, .T. ) ;
#587 = DIRECTION ( 'NONE',  ( 0.000000000000000000, 1.000000000000000000, 0.000000000000000000 ) ) ;
#588 = FACE_OUTER_BOUND ( 'NONE', #465, .T. ) ;
#589 = LINE ( 'NONE', #182, #86 ) ;
ENDSEC;
END-ISO-10303-21;
