ISO-10303-21;
HEADER;
FILE_DESCRIPTION (( 'STEP AP203' ),
    '1' );
FILE_NAME ('¹âÖá.STEP',
    '2024-10-08T10:11:03',
    ( '' ),
    ( '' ),
    'SwSTEP 2.0',
    'SolidWorks 2024',
    '' );
FILE_SCHEMA (( 'CONFIG_CONTROL_DESIGN' ));
ENDSEC;

DATA;
#1 = CIRCLE ( 'NONE', #435, 2.999999999999999112 ) ;
#2 = ORIENTED_EDGE ( 'NONE', *, *, #77, .T. ) ;
#3 = CARTESIAN_POINT ( 'NONE',  ( 0.000000000000000000, 355.0000000000000000, 0.000000000000000000 ) ) ;
#4 = ORIENTED_EDGE ( 'NONE', *, *, #371, .T. ) ;
#5 = CC_DESIGN_PERSON_AND_ORGANIZATION_ASSIGNMENT ( #182, #103, ( #349 ) ) ;
#6 = CARTESIAN_POINT ( 'NONE',  ( 0.000000000000000000, 0.000000000000000000, -3.000000000000000444 ) ) ;
#7 = ORIENTED_EDGE ( 'NONE', *, *, #235, .F. ) ;
#8 = FACE_OUTER_BOUND ( 'NONE', #321, .T. ) ;
#9 = EDGE_LOOP ( 'NONE', ( #438, #143, #55, #480 ) ) ;
#10 = DIRECTION ( 'NONE',  ( -0.000000000000000000, -1.000000000000000000, -0.000000000000000000 ) ) ;
#11 = VERTEX_POINT ( 'NONE', #161 ) ;
#12 = DATE_AND_TIME ( #510, #279 ) ;
#13 = CC_DESIGN_APPROVAL ( #387, ( #433 ) ) ;
#14 = DIRECTION ( 'NONE',  ( 0.000000000000000000, 0.000000000000000000, 1.000000000000000000 ) ) ;
#15 = ORIENTED_EDGE ( 'NONE', *, *, #409, .T. ) ;
#16 = EDGE_CURVE ( 'NONE', #237, #463, #212, .T. ) ;
#17 = VECTOR ( 'NONE', #19, 1000.000000000000000 ) ;
#18 = APPROVAL_DATE_TIME ( #470, #551 ) ;
#19 = DIRECTION ( 'NONE',  ( 0.000000000000000000, -0.7071067811865315855, -0.7071067811865634489 ) ) ;
#20 = VERTEX_POINT ( 'NONE', #346 ) ;
#21 = CIRCLE ( 'NONE', #92, 12.50000000000000000 ) ;
#22 = FACE_OUTER_BOUND ( 'NONE', #505, .T. ) ;
#23 = ORIENTED_EDGE ( 'NONE', *, *, #16, .F. ) ;
#24 = CARTESIAN_POINT ( 'NONE',  ( 0.000000000000000000, 374.0000000000000000, 0.000000000000000000 ) ) ;
#25 = APPROVAL_PERSON_ORGANIZATION ( #542, #551, #518 ) ;
#26 = ORIENTED_EDGE ( 'NONE', *, *, #59, .T. ) ;
#27 = VECTOR ( 'NONE', #131, 1000.000000000000000 ) ;
#28 = DIRECTION ( 'NONE',  ( 0.000000000000000000, 1.000000000000000000, 0.000000000000000000 ) ) ;
#29 = EDGE_CURVE ( 'NONE', #11, #237, #21, .T. ) ;
#30 = CARTESIAN_POINT ( 'NONE',  ( 0.000000000000000000, 374.0000000000000000, 0.000000000000000000 ) ) ;
#31 = CYLINDRICAL_SURFACE ( 'NONE', #481, 2.999999999999999112 ) ;
#32 = CARTESIAN_POINT ( 'NONE',  ( -10.00000000000000000, 325.0000000000000000, -7.500000000000001776 ) ) ;
#33 = ADVANCED_FACE ( 'NONE', ( #442, #396 ), #571, .T. ) ;
#34 = EDGE_CURVE ( 'NONE', #231, #208, #582, .T. ) ;
#35 = CARTESIAN_POINT ( 'NONE',  ( -10.00000000000000000, 325.0000000000000000, 0.000000000000000000 ) ) ;
#36 = EDGE_CURVE ( 'NONE', #60, #419, #1, .T. ) ;
#37 = DIRECTION ( 'NONE',  ( 0.000000000000000000, 0.000000000000000000, 1.000000000000000000 ) ) ;
#38 = DIRECTION ( 'NONE',  ( 0.000000000000000000, -0.000000000000000000, -1.000000000000000000 ) ) ;
#39 = DIRECTION ( 'NONE',  ( -0.000000000000000000, 1.000000000000000000, -0.000000000000000000 ) ) ;
#40 = CARTESIAN_POINT ( 'NONE',  ( 1.408343819019450654E-15, 375.0000000000000000, 11.49999999999995381 ) ) ;
#41 = LOCAL_TIME ( 18, 11, 3.000000000000000000, #429 ) ;
#42 = ADVANCED_FACE ( 'NONE', ( #125, #81 ), #493, .F. ) ;
#43 = DIRECTION ( 'NONE',  ( 0.000000000000000000, 1.000000000000000000, -0.000000000000000000 ) ) ;
#44 = AXIS2_PLACEMENT_3D ( 'NONE', #124, #39, #401 ) ;
#45 = VECTOR ( 'NONE', #465, 1000.000000000000000 ) ;
#46 = CARTESIAN_POINT ( 'NONE',  ( -10.00000000000000000, 325.0000000000000000, 7.500000000000001776 ) ) ;
#47 = VERTEX_POINT ( 'NONE', #537 ) ;
#48 = CARTESIAN_POINT ( 'NONE',  ( -10.00000000000000000, 355.0000000000000000, -7.500000000000001776 ) ) ;
#49 = AXIS2_PLACEMENT_3D ( 'NONE', #172, #214, #450 ) ;
#50 = ORIENTED_EDGE ( 'NONE', *, *, #203, .T. ) ;
#51 = CARTESIAN_POINT ( 'NONE',  ( 0.000000000000000000, 20.00000000000000000, 0.000000000000000000 ) ) ;
#52 = ORIENTED_EDGE ( 'NONE', *, *, #371, .F. ) ;
#53 = DIRECTION ( 'NONE',  ( -0.000000000000000000, 1.000000000000000000, -0.000000000000000000 ) ) ;
#54 = CONICAL_SURFACE ( 'NONE', #292, 11.49999999999995381, 0.7853981633974708165 ) ;
#55 = ORIENTED_EDGE ( 'NONE', *, *, #576, .T. ) ;
#56 = FACE_OUTER_BOUND ( 'NONE', #502, .T. ) ;
#57 = ORIENTED_EDGE ( 'NONE', *, *, #253, .F. ) ;
#58 = DIRECTION ( 'NONE',  ( 0.000000000000000000, 0.000000000000000000, 1.000000000000000000 ) ) ;
#59 = EDGE_CURVE ( 'NONE', #66, #152, #358, .T. ) ;
#60 = VERTEX_POINT ( 'NONE', #486 ) ;
#61 = SHAPE_DEFINITION_REPRESENTATION ( #560, #451 ) ;
#62 = DIRECTION ( 'NONE',  ( 0.000000000000000000, 0.000000000000000000, 1.000000000000000000 ) ) ;
#63 = ORIENTED_EDGE ( 'NONE', *, *, #87, .F. ) ;
#64 = AXIS2_PLACEMENT_3D ( 'NONE', #142, #53, #377 ) ;
#65 = DIRECTION ( 'NONE',  ( -0.000000000000000000, 1.000000000000000000, -0.000000000000000000 ) ) ;
#66 = VERTEX_POINT ( 'NONE', #351 ) ;
#67 = CC_DESIGN_PERSON_AND_ORGANIZATION_ASSIGNMENT ( #311, #74, ( #323 ) ) ;
#68 = CYLINDRICAL_SURFACE ( 'NONE', #209, 12.50000000000000000 ) ;
#69 = VERTEX_POINT ( 'NONE', #535 ) ;
#70 = CARTESIAN_POINT ( 'NONE',  ( 0.000000000000000000, 375.0000000000000000, 0.000000000000000000 ) ) ;
#71 = AXIS2_PLACEMENT_3D ( 'NONE', #484, #578, #313 ) ;
#72 = ORIENTED_EDGE ( 'NONE', *, *, #572, .T. ) ;
#73 = VECTOR ( 'NONE', #180, 1000.000000000000000 ) ;
#74 = PERSON_AND_ORGANIZATION_ROLE ( 'design_owner' ) ;
#75 = DIRECTION ( 'NONE',  ( 0.000000000000000000, 1.000000000000000000, 0.000000000000000000 ) ) ;
#76 = AXIS2_PLACEMENT_3D ( 'NONE', #402, #43, #579 ) ;
#77 = EDGE_CURVE ( 'NONE', #145, #237, #123, .T. ) ;
#78 = LINE ( 'NONE', #166, #385 ) ;
#79 = DIRECTION ( 'NONE',  ( 0.000000000000000000, 0.000000000000000000, 1.000000000000000000 ) ) ;
#80 = PERSON_AND_ORGANIZATION ( #127, #372 ) ;
#81 = FACE_BOUND ( 'NONE', #102, .T. ) ;
#82 = PLANE ( 'NONE',  #390 ) ;
#83 = FACE_OUTER_BOUND ( 'NONE', #522, .T. ) ;
#84 = ADVANCED_FACE ( 'NONE', ( #83 ), #304, .T. ) ;
#85 = FACE_OUTER_BOUND ( 'NONE', #319, .T. ) ;
#86 = VECTOR ( 'NONE', #14, 1000.000000000000000 ) ;
#87 = EDGE_CURVE ( 'NONE', #11, #69, #574, .T. ) ;
#88 = FACE_OUTER_BOUND ( 'NONE', #386, .T. ) ;
#89 = EDGE_LOOP ( 'NONE', ( #191, #305, #109, #15 ) ) ;
#90 = EDGE_CURVE ( 'NONE', #419, #47, #78, .T. ) ;
#91 = CARTESIAN_POINT ( 'NONE',  ( -10.00000000000000000, 355.0000000000000000, 0.000000000000000000 ) ) ;
#92 = AXIS2_PLACEMENT_3D ( 'NONE', #30, #297, #255 ) ;
#93 = ORIENTED_EDGE ( 'NONE', *, *, #519, .T. ) ;
#94 = DIRECTION ( 'NONE',  ( -0.000000000000000000, 1.000000000000000000, -0.000000000000000000 ) ) ;
#95 = EDGE_LOOP ( 'NONE', ( #249, #414 ) ) ;
#96 = CARTESIAN_POINT ( 'NONE',  ( 3.673940397442058882E-16, 355.0000000000000000, -2.999999999999999112 ) ) ;
#97 = AXIS2_PLACEMENT_3D ( 'NONE', #154, #523, #58 ) ;
#98 = VERTEX_POINT ( 'NONE', #260 ) ;
#99 = APPROVAL_STATUS ( 'not_yet_approved' ) ;
#100 = ADVANCED_FACE ( 'NONE', ( #362, #309 ), #169, .T. ) ;
#101 = DIRECTION ( 'NONE',  ( 0.000000000000000000, 1.000000000000000000, 0.000000000000000000 ) ) ;
#102 = EDGE_LOOP ( 'NONE', ( #478, #157 ) ) ;
#103 = PERSON_AND_ORGANIZATION_ROLE ( 'creator' ) ;
#104 = DIRECTION ( 'NONE',  ( 0.000000000000000000, -1.000000000000000000, 0.000000000000000000 ) ) ;
#105 = ORIENTED_EDGE ( 'NONE', *, *, #190, .T. ) ;
#106 = PERSON_AND_ORGANIZATION ( #127, #372 ) ;
#107 = CC_DESIGN_PERSON_AND_ORGANIZATION_ASSIGNMENT ( #139, #286, ( #349 ) ) ;
#108 = DIRECTION ( 'NONE',  ( 0.000000000000000000, 0.000000000000000000, 1.000000000000000000 ) ) ;
#109 = ORIENTED_EDGE ( 'NONE', *, *, #482, .F. ) ;
#110 = CARTESIAN_POINT ( 'NONE',  ( 0.000000000000000000, 375.0000000000000000, 0.000000000000000000 ) ) ;
#111 = DIRECTION ( 'NONE',  ( -0.000000000000000000, -1.000000000000000000, -0.000000000000000000 ) ) ;
#112 = CARTESIAN_POINT ( 'NONE',  ( 3.673940397442060361E-16, 20.00000000000000000, 3.000000000000000444 ) ) ;
#113 = EDGE_LOOP ( 'NONE', ( #226, #147, #234, #240 ) ) ;
#114 = APPLICATION_CONTEXT ( 'configuration controlled 3d designs of mechanical parts and assemblies' ) ;
#115 = VECTOR ( 'NONE', #338, 1000.000000000000000 ) ;
#116 = DIRECTION ( 'NONE',  ( -1.000000000000000000, 0.000000000000000000, 0.000000000000000000 ) ) ;
#117 = CIRCLE ( 'NONE', #141, 2.999999999999999112 ) ;
#118 = CARTESIAN_POINT ( 'NONE',  ( 0.000000000000000000, 20.00000000000000000, 0.000000000000000000 ) ) ;
#119 = DIRECTION ( 'NONE',  ( 8.659560562355127608E-17, -0.7071067811865315855, 0.7071067811865634489 ) ) ;
#120 = VERTEX_POINT ( 'NONE', #410 ) ;
#121 = AXIS2_PLACEMENT_3D ( 'NONE', #267, #223, #489 ) ;
#122 = FACE_OUTER_BOUND ( 'NONE', #159, .T. ) ;
#123 = LINE ( 'NONE', #40, #534 ) ;
#124 = CARTESIAN_POINT ( 'NONE',  ( 0.000000000000000000, 1.000000000000056399, 0.000000000000000000 ) ) ;
#125 = FACE_OUTER_BOUND ( 'NONE', #569, .T. ) ;
#126 = AXIS2_PLACEMENT_3D ( 'NONE', #447, #583, #38 ) ;
#127 = PERSON ( 'æœª', 'æœª', 'æœª', ('æœª'), ('æœª'), ('æœª') ) ;
#128 = CARTESIAN_POINT ( 'NONE',  ( 0.000000000000000000, 20.00000000000000000, -3.000000000000000444 ) ) ;
#129 = CARTESIAN_POINT ( 'NONE',  ( 0.000000000000000000, 0.000000000000000000, 0.000000000000000000 ) ) ;
#130 = EDGE_CURVE ( 'NONE', #20, #562, #588, .T. ) ;
#131 = DIRECTION ( 'NONE',  ( -0.000000000000000000, -1.000000000000000000, -0.000000000000000000 ) ) ;
#132 = ORIENTED_EDGE ( 'NONE', *, *, #77, .F. ) ;
#133 = ADVANCED_FACE ( 'NONE', ( #366 ), #301, .T. ) ;
#134 = CALENDAR_DATE ( 2024, 8, 10 ) ;
#135 = LINE ( 'NONE', #91, #73 ) ;
#136 = ORIENTED_EDGE ( 'NONE', *, *, #355, .T. ) ;
#137 = CONICAL_SURFACE ( 'NONE', #331, 12.50000000000000000, 0.7853981633974430610 ) ;
#138 = ADVANCED_FACE ( 'NONE', ( #491 ), #263, .T. ) ;
#139 = PERSON_AND_ORGANIZATION ( #127, #372 ) ;
#140 = EDGE_CURVE ( 'NONE', #184, #454, #224, .T. ) ;
#141 = AXIS2_PLACEMENT_3D ( 'NONE', #485, #75, #258 ) ;
#142 = CARTESIAN_POINT ( 'NONE',  ( 0.000000000000000000, 1.000000000000056399, 0.000000000000000000 ) ) ;
#143 = ORIENTED_EDGE ( 'NONE', *, *, #299, .F. ) ;
#144 = DIRECTION ( 'NONE',  ( 0.000000000000000000, -0.000000000000000000, 1.000000000000000000 ) ) ;
#145 = VERTEX_POINT ( 'NONE', #221 ) ;
#146 = DIRECTION ( 'NONE',  ( 0.000000000000000000, 0.000000000000000000, 1.000000000000000000 ) ) ;
#147 = ORIENTED_EDGE ( 'NONE', *, *, #545, .F. ) ;
#148 = EDGE_CURVE ( 'NONE', #47, #404, #117, .T. ) ;
#149 = APPLICATION_CONTEXT ( 'configuration controlled 3d designs of mechanical parts and assemblies' ) ;
#150 = CARTESIAN_POINT ( 'NONE',  ( 0.000000000000000000, 355.0000000000000000, 0.000000000000000000 ) ) ;
#151 = AXIS2_PLACEMENT_3D ( 'NONE', #504, #187, #146 ) ;
#152 = VERTEX_POINT ( 'NONE', #445 ) ;
#153 = CALENDAR_DATE ( 2024, 8, 10 ) ;
#154 = CARTESIAN_POINT ( 'NONE',  ( 0.000000000000000000, 355.0000000000000000, 0.000000000000000000 ) ) ;
#155 = ORIENTED_EDGE ( 'NONE', *, *, #140, .F. ) ;
#156 = FACE_OUTER_BOUND ( 'NONE', #378, .T. ) ;
#157 = ORIENTED_EDGE ( 'NONE', *, *, #243, .F. ) ;
#158 = CARTESIAN_POINT ( 'NONE',  ( 0.000000000000000000, 355.0000000000000000, 0.000000000000000000 ) ) ;
#159 = EDGE_LOOP ( 'NONE', ( #460, #432, #50, #476 ) ) ;
#160 = LINE ( 'NONE', #392, #17 ) ;
#161 = CARTESIAN_POINT ( 'NONE',  ( 0.000000000000000000, 374.0000000000000000, -12.50000000000000000 ) ) ;
#162 = CALENDAR_DATE ( 2024, 8, 10 ) ;
#163 = EDGE_LOOP ( 'NONE', ( #457, #417, #469, #63 ) ) ;
#164 = DIRECTION ( 'NONE',  ( 0.000000000000000000, 0.000000000000000000, -1.000000000000000000 ) ) ;
#165 = LOCAL_TIME ( 18, 11, 3.000000000000000000, #425 ) ;
#166 = CARTESIAN_POINT ( 'NONE',  ( 0.000000000000000000, 355.0000000000000000, 2.999999999999999112 ) ) ;
#167 = VECTOR ( 'NONE', #557, 1000.000000000000000 ) ;
#168 = CARTESIAN_POINT ( 'NONE',  ( 0.000000000000000000, 0.000000000000000000, 0.000000000000000000 ) ) ;
#169 = PLANE ( 'NONE',  #121 ) ;
#170 = CC_DESIGN_DATE_AND_TIME_ASSIGNMENT ( #12, #412, ( #461 ) ) ;
#171 = VECTOR ( 'NONE', #179, 1000.000000000000000 ) ;
#172 = CARTESIAN_POINT ( 'NONE',  ( 0.000000000000000000, 0.000000000000000000, 0.000000000000000000 ) ) ;
#173 = CARTESIAN_POINT ( 'NONE',  ( 10.00000000000000000, 325.0000000000000000, -7.500000000000001776 ) ) ;
#174 = CONICAL_SURFACE ( 'NONE', #44, 12.50000000000000000, 0.7853981633974430610 ) ;
#175 = DIRECTION ( 'NONE',  ( -0.000000000000000000, 1.000000000000000000, -0.000000000000000000 ) ) ;
#176 = DESIGN_CONTEXT ( 'detailed design', #149, 'design' ) ;
#177 = CIRCLE ( 'NONE', #483, 12.50000000000000000 ) ;
#178 = CALENDAR_DATE ( 2024, 8, 10 ) ;
#179 = DIRECTION ( 'NONE',  ( 0.000000000000000000, 0.000000000000000000, -1.000000000000000000 ) ) ;
#180 = DIRECTION ( 'NONE',  ( 0.000000000000000000, 0.000000000000000000, -1.000000000000000000 ) ) ;
#181 = ORIENTED_EDGE ( 'NONE', *, *, #59, .F. ) ;
#182 = PERSON_AND_ORGANIZATION ( #127, #372 ) ;
#183 = CARTESIAN_POINT ( 'NONE',  ( 0.000000000000000000, 375.0000000000000000, 0.000000000000000000 ) ) ;
#184 = VERTEX_POINT ( 'NONE', #32 ) ;
#185 = DIRECTION ( 'NONE',  ( 0.000000000000000000, 0.000000000000000000, -1.000000000000000000 ) ) ;
#186 = ORIENTED_EDGE ( 'NONE', *, *, #190, .F. ) ;
#187 = DIRECTION ( 'NONE',  ( 0.000000000000000000, 1.000000000000000000, 0.000000000000000000 ) ) ;
#188 = EDGE_LOOP ( 'NONE', ( #132, #57, #344, #201 ) ) ;
#189 = DIRECTION ( 'NONE',  ( 0.000000000000000000, 0.000000000000000000, -1.000000000000000000 ) ) ;
#190 = EDGE_CURVE ( 'NONE', #419, #60, #364, .T. ) ;
#191 = ORIENTED_EDGE ( 'NONE', *, *, #354, .T. ) ;
#192 = COORDINATED_UNIVERSAL_TIME_OFFSET ( 8, 0, .AHEAD. ) ;
#193 = AXIS2_PLACEMENT_3D ( 'NONE', #158, #341, #62 ) ;
#194 = CYLINDRICAL_SURFACE ( 'NONE', #530, 3.000000000000000444 ) ;
#195 = CIRCLE ( 'NONE', #64, 12.50000000000000000 ) ;
#196 = ORIENTED_EDGE ( 'NONE', *, *, #307, .T. ) ;
#197 = EDGE_CURVE ( 'NONE', #474, #208, #546, .T. ) ;
#198 = MANIFOLD_SOLID_BREP ( 'µ¹½Ç2', #503 ) ;
#199 = CARTESIAN_POINT ( 'NONE',  ( 1.530808498934191521E-15, 1.000000000000056399, -12.50000000000000000 ) ) ;
#200 = EDGE_CURVE ( 'NONE', #98, #205, #135, .T. ) ;
#201 = ORIENTED_EDGE ( 'NONE', *, *, #467, .F. ) ;
#202 = VECTOR ( 'NONE', #540, 1000.000000000000000 ) ;
#203 = EDGE_CURVE ( 'NONE', #152, #463, #507, .T. ) ;
#204 = CARTESIAN_POINT ( 'NONE',  ( 0.000000000000000000, 20.00000000000000000, 0.000000000000000000 ) ) ;
#205 = VERTEX_POINT ( 'NONE', #48 ) ;
#206 = AXIS2_PLACEMENT_3D ( 'NONE', #443, #361, #257 ) ;
#207 = LINE ( 'NONE', #199, #440 ) ;
#208 = VERTEX_POINT ( 'NONE', #418 ) ;
#209 = AXIS2_PLACEMENT_3D ( 'NONE', #563, #382, #520 ) ;
#210 = DIRECTION ( 'NONE',  ( 1.000000000000000000, 0.000000000000000000, 0.000000000000000000 ) ) ;
#211 = ADVANCED_FACE ( 'NONE', ( #8 ), #462, .T. ) ;
#212 = LINE ( 'NONE', #524, #458 ) ;
#213 = DIRECTION ( 'NONE',  ( -0.000000000000000000, 1.000000000000000000, -0.000000000000000000 ) ) ;
#214 = DIRECTION ( 'NONE',  ( -0.000000000000000000, -1.000000000000000000, -0.000000000000000000 ) ) ;
#215 = CIRCLE ( 'NONE', #206, 11.49999999999995381 ) ;
#216 = DIRECTION ( 'NONE',  ( 0.000000000000000000, 1.000000000000000000, 0.000000000000000000 ) ) ;
#217 = CC_DESIGN_DATE_AND_TIME_ASSIGNMENT ( #368, #241, ( #433 ) ) ;
#218 = VECTOR ( 'NONE', #94, 1000.000000000000000 ) ;
#219 = DIRECTION ( 'NONE',  ( 0.000000000000000000, 1.000000000000000000, -0.000000000000000000 ) ) ;
#220 = FACE_OUTER_BOUND ( 'NONE', #293, .T. ) ;
#221 = CARTESIAN_POINT ( 'NONE',  ( 1.469576158976820989E-15, 375.0000000000000000, 11.49999999999995381 ) ) ;
#222 = APPROVAL_DATE_TIME ( #559, #488 ) ;
#223 = DIRECTION ( 'NONE',  ( 0.000000000000000000, 1.000000000000000000, 0.000000000000000000 ) ) ;
#224 = CIRCLE ( 'NONE', #587, 12.50000000000000000 ) ;
#225 = CARTESIAN_POINT ( 'NONE',  ( 0.000000000000000000, 1.000000000000056399, 12.50000000000000000 ) ) ;
#226 = ORIENTED_EDGE ( 'NONE', *, *, #415, .T. ) ;
#227 = PERSON_AND_ORGANIZATION_ROLE ( 'classification_officer' ) ;
#228 = CARTESIAN_POINT ( 'NONE',  ( 10.00000000000000000, 355.0000000000000000, 7.500000000000001776 ) ) ;
#229 = ORIENTED_EDGE ( 'NONE', *, *, #308, .F. ) ;
#230 = DIRECTION ( 'NONE',  ( 0.000000000000000000, -1.000000000000000000, 0.000000000000000000 ) ) ;
#231 = VERTEX_POINT ( 'NONE', #6 ) ;
#232 = AXIS2_PLACEMENT_3D ( 'NONE', #459, #413, #275 ) ;
#233 = DIRECTION ( 'NONE',  ( 0.000000000000000000, 0.000000000000000000, 1.000000000000000000 ) ) ;
#234 = ORIENTED_EDGE ( 'NONE', *, *, #580, .F. ) ;
#235 = EDGE_CURVE ( 'NONE', #20, #246, #325, .T. ) ;
#236 = CYLINDRICAL_SURFACE ( 'NONE', #352, 3.000000000000000444 ) ;
#237 = VERTEX_POINT ( 'NONE', #317 ) ;
#238 = PERSON_AND_ORGANIZATION_ROLE ( 'creator' ) ;
#239 = FACE_BOUND ( 'NONE', #113, .T. ) ;
#240 = ORIENTED_EDGE ( 'NONE', *, *, #235, .T. ) ;
#241 = DATE_TIME_ROLE ( 'creation_date' ) ;
#242 = CIRCLE ( 'NONE', #71, 12.50000000000000000 ) ;
#243 = EDGE_CURVE ( 'NONE', #208, #231, #411, .T. ) ;
#244 = DIRECTION ( 'NONE',  ( 0.000000000000000000, 0.000000000000000000, -1.000000000000000000 ) ) ;
#245 = AXIS2_PLACEMENT_3D ( 'NONE', #398, #416, #494 ) ;
#246 = VERTEX_POINT ( 'NONE', #228 ) ;
#247 = ADVANCED_FACE ( 'NONE', ( #591 ), #269, .T. ) ;
#248 = LINE ( 'NONE', #294, #115 ) ;
#249 = ORIENTED_EDGE ( 'NONE', *, *, #253, .T. ) ;
#250 = DIRECTION ( 'NONE',  ( 0.000000000000000000, 1.000000000000000000, 0.000000000000000000 ) ) ;
#251 = ORIENTED_EDGE ( 'NONE', *, *, #140, .T. ) ;
#252 = CIRCLE ( 'NONE', #400, 12.50000000000000000 ) ;
#253 = EDGE_CURVE ( 'NONE', #120, #145, #464, .T. ) ;
#254 = DIRECTION ( 'NONE',  ( -0.000000000000000000, 1.000000000000000000, -0.000000000000000000 ) ) ;
#255 = DIRECTION ( 'NONE',  ( 0.000000000000000000, 0.000000000000000000, 1.000000000000000000 ) ) ;
#256 = AXIS2_PLACEMENT_3D ( 'NONE', #51, #230, #185 ) ;
#257 = DIRECTION ( 'NONE',  ( 0.000000000000000000, 0.000000000000000000, 1.000000000000000000 ) ) ;
#258 = DIRECTION ( 'NONE',  ( 0.000000000000000000, 0.000000000000000000, 1.000000000000000000 ) ) ;
#259 =( NAMED_UNIT ( * ) SI_UNIT ( $, .STERADIAN. ) SOLID_ANGLE_UNIT ( ) );
#260 = CARTESIAN_POINT ( 'NONE',  ( -10.00000000000000000, 355.0000000000000000, 7.500000000000001776 ) ) ;
#261 = ADVANCED_FACE ( 'NONE', ( #88 ), #54, .T. ) ;
#262 = DIRECTION ( 'NONE',  ( 0.000000000000000000, -1.000000000000000000, 0.000000000000000000 ) ) ;
#263 = PLANE ( 'NONE',  #126 ) ;
#264 = LINE ( 'NONE', #531, #538 ) ;
#265 = CARTESIAN_POINT ( 'NONE',  ( 0.000000000000000000, 355.0000000000000000, 0.000000000000000000 ) ) ;
#266 = APPLICATION_PROTOCOL_DEFINITION ( 'international standard', 'config_control_design', 1994, #114 ) ;
#267 = CARTESIAN_POINT ( 'NONE',  ( 0.000000000000000000, 375.0000000000000000, 0.000000000000000000 ) ) ;
#268 = LOCAL_TIME ( 18, 11, 3.000000000000000000, #570 ) ;
#269 = PLANE ( 'NONE',  #499 ) ;
#270 = ORIENTED_EDGE ( 'NONE', *, *, #36, .T. ) ;
#271 = CIRCLE ( 'NONE', #97, 12.50000000000000000 ) ;
#272 = DIRECTION ( 'NONE',  ( 0.000000000000000000, 0.000000000000000000, -1.000000000000000000 ) ) ;
#273 = ORIENTED_EDGE ( 'NONE', *, *, #580, .T. ) ;
#274 = AXIS2_PLACEMENT_3D ( 'NONE', #35, #116, #79 ) ;
#275 = DIRECTION ( 'NONE',  ( 0.000000000000000000, 0.000000000000000000, -1.000000000000000000 ) ) ;
#276 = CC_DESIGN_PERSON_AND_ORGANIZATION_ASSIGNMENT ( #381, #227, ( #461 ) ) ;
#277 = ORIENTED_EDGE ( 'NONE', *, *, #482, .T. ) ;
#278 = DIRECTION ( 'NONE',  ( 0.000000000000000000, 0.7071067811865512365, 0.7071067811865439090 ) ) ;
#279 = LOCAL_TIME ( 18, 11, 3.000000000000000000, #316 ) ;
#280 = ORIENTED_EDGE ( 'NONE', *, *, #299, .T. ) ;
#281 = AXIS2_PLACEMENT_3D ( 'NONE', #543, #552, #320 ) ;
#282 = DIRECTION ( 'NONE',  ( 0.000000000000000000, -0.000000000000000000, 1.000000000000000000 ) ) ;
#283 = ORIENTED_EDGE ( 'NONE', *, *, #243, .T. ) ;
#284 = LINE ( 'NONE', #291, #167 ) ;
#285 = DIRECTION ( 'NONE',  ( 0.000000000000000000, 0.000000000000000000, -1.000000000000000000 ) ) ;
#286 = PERSON_AND_ORGANIZATION_ROLE ( 'design_supplier' ) ;
#287 = LINE ( 'NONE', #468, #86 ) ;
#288 = EDGE_CURVE ( 'NONE', #463, #69, #195, .T. ) ;
#289 = VERTEX_POINT ( 'NONE', #328 ) ;
#290 = AXIS2_PLACEMENT_3D ( 'NONE', #168, #37, #210 ) ;
#291 = CARTESIAN_POINT ( 'NONE',  ( -10.00000000000000000, 325.0000000000000000, 0.000000000000000000 ) ) ;
#292 = AXIS2_PLACEMENT_3D ( 'NONE', #183, #549, #272 ) ;
#293 = EDGE_LOOP ( 'NONE', ( #408, #370, #196, #374 ) ) ;
#294 = CARTESIAN_POINT ( 'NONE',  ( -10.00000000000000000, 325.0000000000000000, -7.500000000000001776 ) ) ;
#295 = ORIENTED_EDGE ( 'NONE', *, *, #422, .F. ) ;
#296 = DIRECTION ( 'NONE',  ( -0.000000000000000000, -1.000000000000000000, -0.000000000000000000 ) ) ;
#297 = DIRECTION ( 'NONE',  ( 0.000000000000000000, -1.000000000000000000, 0.000000000000000000 ) ) ;
#298 = AXIS2_PLACEMENT_3D ( 'NONE', #441, #28, #379 ) ;
#299 = EDGE_CURVE ( 'NONE', #544, #474, #509, .T. ) ;
#300 = DIRECTION ( 'NONE',  ( 0.000000000000000000, 0.000000000000000000, 1.000000000000000000 ) ) ;
#301 = PLANE ( 'NONE',  #274 ) ;
#302 = ADVANCED_FACE ( 'NONE', ( #85 ), #420, .F. ) ;
#303 = CARTESIAN_POINT ( 'NONE',  ( 0.000000000000000000, 355.0000000000000000, 0.000000000000000000 ) ) ;
#304 = PLANE ( 'NONE',  #76 ) ;
#305 = ORIENTED_EDGE ( 'NONE', *, *, #200, .T. ) ;
#306 = AXIS2_PLACEMENT_3D ( 'NONE', #348, #529, #285 ) ;
#307 = EDGE_CURVE ( 'NONE', #404, #47, #334, .T. ) ;
#308 = EDGE_CURVE ( 'NONE', #60, #404, #330, .T. ) ;
#309 = FACE_BOUND ( 'NONE', #513, .T. ) ;
#310 = CIRCLE ( 'NONE', #575, 12.50000000000000000 ) ;
#311 = PERSON_AND_ORGANIZATION ( #127, #372 ) ;
#312 = DIRECTION ( 'NONE',  ( 0.000000000000000000, -1.000000000000000000, 0.000000000000000000 ) ) ;
#313 = DIRECTION ( 'NONE',  ( 0.000000000000000000, 0.000000000000000000, 1.000000000000000000 ) ) ;
#314 = DIRECTION ( 'NONE',  ( 0.000000000000000000, 0.000000000000000000, 1.000000000000000000 ) ) ;
#315 = ADVANCED_FACE ( 'NONE', ( #56 ), #236, .F. ) ;
#316 = COORDINATED_UNIVERSAL_TIME_OFFSET ( 8, 0, .AHEAD. ) ;
#317 = CARTESIAN_POINT ( 'NONE',  ( 1.530808498934191521E-15, 374.0000000000000000, 12.50000000000000000 ) ) ;
#318 = CC_DESIGN_SECURITY_CLASSIFICATION ( #461, ( #349 ) ) ;
#319 = EDGE_LOOP ( 'NONE', ( #547, #564 ) ) ;
#320 = DIRECTION ( 'NONE',  ( 0.000000000000000000, 0.000000000000000000, -1.000000000000000000 ) ) ;
#321 = EDGE_LOOP ( 'NONE', ( #336, #4, #7, #566 ) ) ;
#322 = AXIS2_PLACEMENT_3D ( 'NONE', #110, #250, #565 ) ;
#323 = PRODUCT ( '\X2\51498f74\X0\', '\X2\51498f74\X0\', '', ( #581 ) ) ;
#324 = CC_DESIGN_PERSON_AND_ORGANIZATION_ASSIGNMENT ( #337, #238, ( #433 ) ) ;
#325 = LINE ( 'NONE', #369, #218 ) ;
#326 = ORIENTED_EDGE ( 'NONE', *, *, #409, .F. ) ;
#327 = AXIS2_PLACEMENT_3D ( 'NONE', #129, #312, #585 ) ;
#328 = CARTESIAN_POINT ( 'NONE',  ( 10.00000000000000000, 355.0000000000000000, -7.500000000000001776 ) ) ;
#329 = ORIENTED_EDGE ( 'NONE', *, *, #197, .T. ) ;
#330 = LINE ( 'NONE', #96, #45 ) ;
#331 = AXIS2_PLACEMENT_3D ( 'NONE', #475, #65, #343 ) ;
#332 = ORIENTED_EDGE ( 'NONE', *, *, #399, .T. ) ;
#333 = APPROVAL_DATE_TIME ( #528, #387 ) ;
#334 = CIRCLE ( 'NONE', #151, 2.999999999999999112 ) ;
#335 = CYLINDRICAL_SURFACE ( 'NONE', #193, 2.999999999999999112 ) ;
#336 = ORIENTED_EDGE ( 'NONE', *, *, #545, .T. ) ;
#337 = PERSON_AND_ORGANIZATION ( #127, #372 ) ;
#338 = DIRECTION ( 'NONE',  ( -0.000000000000000000, 1.000000000000000000, -0.000000000000000000 ) ) ;
#339 = AXIS2_PLACEMENT_3D ( 'NONE', #407, #357, #532 ) ;
#340 = ORIENTED_EDGE ( 'NONE', *, *, #288, .F. ) ;
#341 = DIRECTION ( 'NONE',  ( -0.000000000000000000, 1.000000000000000000, -0.000000000000000000 ) ) ;
#342 = EDGE_LOOP ( 'NONE', ( #280, #93 ) ) ;
#343 = DIRECTION ( 'NONE',  ( 0.000000000000000000, 0.000000000000000000, 1.000000000000000000 ) ) ;
#344 = ORIENTED_EDGE ( 'NONE', *, *, #367, .T. ) ;
#345 = CARTESIAN_POINT ( 'NONE',  ( 3.673940397442058882E-16, 375.0000000000000000, -2.999999999999999112 ) ) ;
#346 = CARTESIAN_POINT ( 'NONE',  ( 10.00000000000000000, 325.0000000000000000, 7.500000000000001776 ) ) ;
#347 = CARTESIAN_POINT ( 'NONE',  ( 0.000000000000000000, 325.0000000000000000, 0.000000000000000000 ) ) ;
#348 = CARTESIAN_POINT ( 'NONE',  ( 0.000000000000000000, 375.0000000000000000, 0.000000000000000000 ) ) ;
#349 = PRODUCT_DEFINITION_FORMATION_WITH_SPECIFIED_SOURCE ( 'ä»', '', #323, .NOT_KNOWN. ) ;
#350 = CARTESIAN_POINT ( 'NONE',  ( 10.00000000000000000, 325.0000000000000000, -7.500000000000001776 ) ) ;
#351 = CARTESIAN_POINT ( 'NONE',  ( 1.469576158976820989E-15, 0.000000000000000000, -11.49999999999995381 ) ) ;
#352 = AXIS2_PLACEMENT_3D ( 'NONE', #423, #10, #189 ) ;
#353 = UNCERTAINTY_MEASURE_WITH_UNIT (LENGTH_MEASURE( 1.000000000000000082E-05 ), #492, 'distance_accuracy_value', 'NONE');
#354 = EDGE_CURVE ( 'NONE', #454, #98, #453, .T. ) ;
#355 = EDGE_CURVE ( 'NONE', #69, #463, #177, .T. ) ;
#356 = DIRECTION ( 'NONE',  ( 0.000000000000000000, 0.000000000000000000, 1.000000000000000000 ) ) ;
#357 = DIRECTION ( 'NONE',  ( 0.000000000000000000, 1.000000000000000000, 0.000000000000000000 ) ) ;
#358 = CIRCLE ( 'NONE', #49, 11.49999999999995381 ) ;
#359 = DIRECTION ( 'NONE',  ( 0.000000000000000000, 0.000000000000000000, 1.000000000000000000 ) ) ;
#360 = LOCAL_TIME ( 18, 11, 3.000000000000000000, #192 ) ;
#361 = DIRECTION ( 'NONE',  ( -0.000000000000000000, -1.000000000000000000, -0.000000000000000000 ) ) ;
#362 = FACE_OUTER_BOUND ( 'NONE', #95, .T. ) ;
#363 = ADVANCED_FACE ( 'NONE', ( #437 ), #194, .F. ) ;
#364 = CIRCLE ( 'NONE', #245, 2.999999999999999112 ) ;
#365 = APPROVAL_STATUS ( 'not_yet_approved' ) ;
#366 = FACE_OUTER_BOUND ( 'NONE', #89, .T. ) ;
#367 = EDGE_CURVE ( 'NONE', #120, #11, #160, .T. ) ;
#368 = DATE_AND_TIME ( #134, #360 ) ;
#369 = CARTESIAN_POINT ( 'NONE',  ( 10.00000000000000000, 325.0000000000000000, 7.500000000000001776 ) ) ;
#370 = ORIENTED_EDGE ( 'NONE', *, *, #308, .T. ) ;
#371 = EDGE_CURVE ( 'NONE', #289, #246, #287, .T. ) ;
#372 = ORGANIZATION ( 'æœª', 'æœª', '' ) ;
#373 = CARTESIAN_POINT ( 'NONE',  ( 0.000000000000000000, 375.0000000000000000, 0.000000000000000000 ) ) ;
#374 = ORIENTED_EDGE ( 'NONE', *, *, #90, .F. ) ;
#375 = DIRECTION ( 'NONE',  ( 0.000000000000000000, 1.000000000000000000, 0.000000000000000000 ) ) ;
#376 = ORIENTED_EDGE ( 'NONE', *, *, #415, .F. ) ;
#377 = DIRECTION ( 'NONE',  ( 0.000000000000000000, 0.000000000000000000, 1.000000000000000000 ) ) ;
#378 = EDGE_LOOP ( 'NONE', ( #229, #186, #383, #500 ) ) ;
#379 = DIRECTION ( 'NONE',  ( 0.000000000000000000, -0.000000000000000000, 1.000000000000000000 ) ) ;
#380 = ORIENTED_EDGE ( 'NONE', *, *, #367, .F. ) ;
#381 = PERSON_AND_ORGANIZATION ( #127, #372 ) ;
#382 = DIRECTION ( 'NONE',  ( -0.000000000000000000, -1.000000000000000000, -0.000000000000000000 ) ) ;
#383 = ORIENTED_EDGE ( 'NONE', *, *, #90, .T. ) ;
#384 = CARTESIAN_POINT ( 'NONE',  ( 0.000000000000000000, 1.000000000000056399, 0.000000000000000000 ) ) ;
#385 = VECTOR ( 'NONE', #175, 1000.000000000000000 ) ;
#386 = EDGE_LOOP ( 'NONE', ( #295, #2, #550, #380 ) ) ;
#387 = APPROVAL ( #395, 'æœª' ) ;
#388 = FACE_OUTER_BOUND ( 'NONE', #163, .T. ) ;
#389 = EDGE_LOOP ( 'NONE', ( #23, #424, #495, #136 ) ) ;
#390 = AXIS2_PLACEMENT_3D ( 'NONE', #347, #536, #300 ) ;
#391 = VECTOR ( 'NONE', #434, 1000.000000000000000 ) ;
#392 = CARTESIAN_POINT ( 'NONE',  ( 0.000000000000000000, 375.0000000000000000, -11.49999999999995381 ) ) ;
#393 = PRODUCT_RELATED_PRODUCT_CATEGORY ( 'detail', '', ( #323 ) ) ;
#394 = ORIENTED_EDGE ( 'NONE', *, *, #515, .T. ) ;
#395 = APPROVAL_STATUS ( 'not_yet_approved' ) ;
#396 = FACE_BOUND ( 'NONE', #466, .T. ) ;
#397 = DIRECTION ( 'NONE',  ( -0.000000000000000000, 1.000000000000000000, -0.000000000000000000 ) ) ;
#398 = CARTESIAN_POINT ( 'NONE',  ( 0.000000000000000000, 355.0000000000000000, 0.000000000000000000 ) ) ;
#399 = EDGE_CURVE ( 'NONE', #66, #69, #207, .T. ) ;
#400 = AXIS2_PLACEMENT_3D ( 'NONE', #24, #426, #108 ) ;
#401 = DIRECTION ( 'NONE',  ( 0.000000000000000000, 0.000000000000000000, 1.000000000000000000 ) ) ;
#402 = CARTESIAN_POINT ( 'NONE',  ( 0.000000000000000000, 325.0000000000000000, 0.000000000000000000 ) ) ;
#403 = AXIS2_PLACEMENT_3D ( 'NONE', #373, #498, #233 ) ;
#404 = VERTEX_POINT ( 'NONE', #345 ) ;
#405 = CARTESIAN_POINT ( 'NONE',  ( 0.000000000000000000, 375.0000000000000000, -12.50000000000000000 ) ) ;
#406 = FACE_OUTER_BOUND ( 'NONE', #553, .T. ) ;
#407 = CARTESIAN_POINT ( 'NONE',  ( 0.000000000000000000, 0.000000000000000000, 0.000000000000000000 ) ) ;
#408 = ORIENTED_EDGE ( 'NONE', *, *, #36, .F. ) ;
#409 = EDGE_CURVE ( 'NONE', #184, #454, #284, .T. ) ;
#410 = CARTESIAN_POINT ( 'NONE',  ( 0.000000000000000000, 375.0000000000000000, -11.49999999999995381 ) ) ;
#411 = CIRCLE ( 'NONE', #281, 3.000000000000000444 ) ;
#412 = DATE_TIME_ROLE ( 'classification_date' ) ;
#413 = DIRECTION ( 'NONE',  ( 1.000000000000000000, 0.000000000000000000, 0.000000000000000000 ) ) ;
#414 = ORIENTED_EDGE ( 'NONE', *, *, #422, .T. ) ;
#415 = EDGE_CURVE ( 'NONE', #246, #289, #271, .T. ) ;
#416 = DIRECTION ( 'NONE',  ( 0.000000000000000000, 1.000000000000000000, 0.000000000000000000 ) ) ;
#417 = ORIENTED_EDGE ( 'NONE', *, *, #16, .T. ) ;
#418 = CARTESIAN_POINT ( 'NONE',  ( 3.673940397442060361E-16, 0.000000000000000000, 3.000000000000000444 ) ) ;
#419 = VERTEX_POINT ( 'NONE', #471 ) ;
#420 = PLANE ( 'NONE',  #567 ) ;
#421 = ORIENTED_EDGE ( 'NONE', *, *, #576, .F. ) ;
#422 = EDGE_CURVE ( 'NONE', #145, #120, #577, .T. ) ;
#423 = CARTESIAN_POINT ( 'NONE',  ( 0.000000000000000000, 20.00000000000000000, 0.000000000000000000 ) ) ;
#424 = ORIENTED_EDGE ( 'NONE', *, *, #467, .T. ) ;
#425 = COORDINATED_UNIVERSAL_TIME_OFFSET ( 8, 0, .AHEAD. ) ;
#426 = DIRECTION ( 'NONE',  ( 0.000000000000000000, -1.000000000000000000, 0.000000000000000000 ) ) ;
#427 = APPROVAL_PERSON_ORGANIZATION ( #106, #488, #514 ) ;
#428 = ORIENTED_EDGE ( 'NONE', *, *, #307, .F. ) ;
#429 = COORDINATED_UNIVERSAL_TIME_OFFSET ( 8, 0, .AHEAD. ) ;
#430 = VECTOR ( 'NONE', #278, 999.9999999999998863 ) ;
#431 = DIRECTION ( 'NONE',  ( 0.000000000000000000, 0.000000000000000000, -1.000000000000000000 ) ) ;
#432 = ORIENTED_EDGE ( 'NONE', *, *, #572, .F. ) ;
#433 = PRODUCT_DEFINITION ( 'æœ', '', #349, #176 ) ;
#434 = DIRECTION ( 'NONE',  ( -0.000000000000000000, 1.000000000000000000, -0.000000000000000000 ) ) ;
#435 = AXIS2_PLACEMENT_3D ( 'NONE', #265, #216, #314 ) ;
#436 = ORIENTED_EDGE ( 'NONE', *, *, #354, .F. ) ;
#437 = FACE_OUTER_BOUND ( 'NONE', #9, .T. ) ;
#438 = ORIENTED_EDGE ( 'NONE', *, *, #197, .F. ) ;
#439 = APPROVAL_PERSON_ORGANIZATION ( #80, #387, #448 ) ;
#440 = VECTOR ( 'NONE', #568, 999.9999999999998863 ) ;
#441 = CARTESIAN_POINT ( 'NONE',  ( 0.000000000000000000, 355.0000000000000000, 0.000000000000000000 ) ) ;
#442 = FACE_OUTER_BOUND ( 'NONE', #389, .T. ) ;
#443 = CARTESIAN_POINT ( 'NONE',  ( 0.000000000000000000, 0.000000000000000000, 0.000000000000000000 ) ) ;
#444 = ADVANCED_FACE ( 'NONE', ( #239, #388 ), #68, .T. ) ;
#445 = CARTESIAN_POINT ( 'NONE',  ( 0.000000000000000000, 0.000000000000000000, 11.49999999999995381 ) ) ;
#446 = CARTESIAN_POINT ( 'NONE',  ( 10.00000000000000000, 325.0000000000000000, 0.000000000000000000 ) ) ;
#447 = CARTESIAN_POINT ( 'NONE',  ( 0.000000000000000000, 20.00000000000000000, 0.000000000000000000 ) ) ;
#448 = APPROVAL_ROLE ( '' ) ;
#449 = CARTESIAN_POINT ( 'NONE',  ( 0.000000000000000000, 325.0000000000000000, 0.000000000000000000 ) ) ;
#450 = DIRECTION ( 'NONE',  ( 0.000000000000000000, 0.000000000000000000, 1.000000000000000000 ) ) ;
#451 = ADVANCED_BREP_SHAPE_REPRESENTATION ( '\X2\51498f74\X0\', ( #198, #290 ), #556 ) ;
#452 = CIRCLE ( 'NONE', #506, 3.000000000000000444 ) ;
#453 = LINE ( 'NONE', #46, #391 ) ;
#454 = VERTEX_POINT ( 'NONE', #479 ) ;
#455 = CARTESIAN_POINT ( 'NONE',  ( 3.673940397442060361E-16, 20.00000000000000000, 3.000000000000000444 ) ) ;
#456 = ADVANCED_FACE ( 'NONE', ( #156 ), #335, .F. ) ;
#457 = ORIENTED_EDGE ( 'NONE', *, *, #29, .T. ) ;
#458 = VECTOR ( 'NONE', #111, 1000.000000000000000 ) ;
#459 = CARTESIAN_POINT ( 'NONE',  ( 10.00000000000000000, 325.0000000000000000, 0.000000000000000000 ) ) ;
#460 = ORIENTED_EDGE ( 'NONE', *, *, #399, .F. ) ;
#461 = SECURITY_CLASSIFICATION ( '', '', #590 ) ;
#462 = PLANE ( 'NONE',  #232 ) ;
#463 = VERTEX_POINT ( 'NONE', #525 ) ;
#464 = CIRCLE ( 'NONE', #403, 11.49999999999995381 ) ;
#465 = DIRECTION ( 'NONE',  ( -0.000000000000000000, 1.000000000000000000, -0.000000000000000000 ) ) ;
#466 = EDGE_LOOP ( 'NONE', ( #277, #394, #436, #155 ) ) ;
#467 = EDGE_CURVE ( 'NONE', #237, #11, #252, .T. ) ;
#468 = CARTESIAN_POINT ( 'NONE',  ( 10.00000000000000000, 355.0000000000000000, 0.000000000000000000 ) ) ;
#469 = ORIENTED_EDGE ( 'NONE', *, *, #288, .T. ) ;
#470 = DATE_AND_TIME ( #153, #41 ) ;
#471 = CARTESIAN_POINT ( 'NONE',  ( 0.000000000000000000, 355.0000000000000000, 2.999999999999999112 ) ) ;
#472 = ADVANCED_FACE ( 'NONE', ( #561 ), #137, .T. ) ;
#473 = CONICAL_SURFACE ( 'NONE', #548, 11.49999999999995381, 0.7853981633974708165 ) ;
#474 = VERTEX_POINT ( 'NONE', #112 ) ;
#475 = CARTESIAN_POINT ( 'NONE',  ( 0.000000000000000000, 1.000000000000056399, 0.000000000000000000 ) ) ;
#476 = ORIENTED_EDGE ( 'NONE', *, *, #355, .F. ) ;
#477 = PLANE ( 'NONE',  #298 ) ;
#478 = ORIENTED_EDGE ( 'NONE', *, *, #34, .F. ) ;
#479 = CARTESIAN_POINT ( 'NONE',  ( -10.00000000000000000, 325.0000000000000000, 7.500000000000001776 ) ) ;
#480 = ORIENTED_EDGE ( 'NONE', *, *, #34, .T. ) ;
#481 = AXIS2_PLACEMENT_3D ( 'NONE', #303, #397, #533 ) ;
#482 = EDGE_CURVE ( 'NONE', #184, #205, #248, .T. ) ;
#483 = AXIS2_PLACEMENT_3D ( 'NONE', #384, #254, #512 ) ;
#484 = CARTESIAN_POINT ( 'NONE',  ( 0.000000000000000000, 325.0000000000000000, 0.000000000000000000 ) ) ;
#485 = CARTESIAN_POINT ( 'NONE',  ( 0.000000000000000000, 375.0000000000000000, 0.000000000000000000 ) ) ;
#486 = CARTESIAN_POINT ( 'NONE',  ( 3.673940397442058882E-16, 355.0000000000000000, -2.999999999999999112 ) ) ;
#487 =( NAMED_UNIT ( * ) PLANE_ANGLE_UNIT ( ) SI_UNIT ( $, .RADIAN. ) );
#488 = APPROVAL ( #365, 'æœª' ) ;
#489 = DIRECTION ( 'NONE',  ( 0.000000000000000000, -0.000000000000000000, 1.000000000000000000 ) ) ;
#490 = APPLICATION_PROTOCOL_DEFINITION ( 'international standard', 'config_control_design', 1994, #149 ) ;
#491 = FACE_OUTER_BOUND ( 'NONE', #342, .T. ) ;
#492 =( LENGTH_UNIT ( ) NAMED_UNIT ( * ) SI_UNIT ( .MILLI., .METRE. ) );
#493 = PLANE ( 'NONE',  #339 ) ;
#494 = DIRECTION ( 'NONE',  ( 0.000000000000000000, 0.000000000000000000, 1.000000000000000000 ) ) ;
#495 = ORIENTED_EDGE ( 'NONE', *, *, #87, .T. ) ;
#496 = CC_DESIGN_APPROVAL ( #488, ( #349 ) ) ;
#497 = ADVANCED_FACE ( 'NONE', ( #516 ), #473, .T. ) ;
#498 = DIRECTION ( 'NONE',  ( 0.000000000000000000, 1.000000000000000000, 0.000000000000000000 ) ) ;
#499 = AXIS2_PLACEMENT_3D ( 'NONE', #3, #501, #144 ) ;
#500 = ORIENTED_EDGE ( 'NONE', *, *, #148, .T. ) ;
#501 = DIRECTION ( 'NONE',  ( 0.000000000000000000, 1.000000000000000000, 0.000000000000000000 ) ) ;
#502 = EDGE_LOOP ( 'NONE', ( #558, #329, #283, #421 ) ) ;
#503 = CLOSED_SHELL ( 'NONE', ( #261, #472, #589, #315, #444, #133, #211, #33, #100, #42, #363, #138, #521, #84, #511, #302, #456, #247, #527, #497 ) ) ;
#504 = CARTESIAN_POINT ( 'NONE',  ( 0.000000000000000000, 375.0000000000000000, 0.000000000000000000 ) ) ;
#505 = EDGE_LOOP ( 'NONE', ( #52, #376 ) ) ;
#506 = AXIS2_PLACEMENT_3D ( 'NONE', #118, #262, #164 ) ;
#507 = LINE ( 'NONE', #225, #430 ) ;
#508 = EDGE_LOOP ( 'NONE', ( #105, #270 ) ) ;
#509 = CIRCLE ( 'NONE', #256, 3.000000000000000444 ) ;
#510 = CALENDAR_DATE ( 2024, 8, 10 ) ;
#511 = ADVANCED_FACE ( 'NONE', ( #22 ), #477, .F. ) ;
#512 = DIRECTION ( 'NONE',  ( 0.000000000000000000, 0.000000000000000000, 1.000000000000000000 ) ) ;
#513 = EDGE_LOOP ( 'NONE', ( #541, #428 ) ) ;
#514 = APPROVAL_ROLE ( '' ) ;
#515 = EDGE_CURVE ( 'NONE', #205, #98, #310, .T. ) ;
#516 = FACE_OUTER_BOUND ( 'NONE', #188, .T. ) ;
#517 = EDGE_LOOP ( 'NONE', ( #181, #332, #340, #526 ) ) ;
#518 = APPROVAL_ROLE ( '' ) ;
#519 = EDGE_CURVE ( 'NONE', #474, #544, #452, .T. ) ;
#520 = DIRECTION ( 'NONE',  ( 0.000000000000000000, 0.000000000000000000, -1.000000000000000000 ) ) ;
#521 = ADVANCED_FACE ( 'NONE', ( #406 ), #82, .T. ) ;
#522 = EDGE_LOOP ( 'NONE', ( #555, #273 ) ) ;
#523 = DIRECTION ( 'NONE',  ( 0.000000000000000000, 1.000000000000000000, 0.000000000000000000 ) ) ;
#524 = CARTESIAN_POINT ( 'NONE',  ( 1.530808498934191521E-15, 375.0000000000000000, 12.50000000000000000 ) ) ;
#525 = CARTESIAN_POINT ( 'NONE',  ( 1.530808498934191521E-15, 1.000000000000056399, 12.50000000000000000 ) ) ;
#526 = ORIENTED_EDGE ( 'NONE', *, *, #203, .F. ) ;
#527 = ADVANCED_FACE ( 'NONE', ( #122 ), #174, .T. ) ;
#528 = DATE_AND_TIME ( #162, #268 ) ;
#529 = DIRECTION ( 'NONE',  ( -0.000000000000000000, -1.000000000000000000, -0.000000000000000000 ) ) ;
#530 = AXIS2_PLACEMENT_3D ( 'NONE', #204, #296, #431 ) ;
#531 = CARTESIAN_POINT ( 'NONE',  ( 0.000000000000000000, 20.00000000000000000, -3.000000000000000444 ) ) ;
#532 = DIRECTION ( 'NONE',  ( 0.000000000000000000, -0.000000000000000000, 1.000000000000000000 ) ) ;
#533 = DIRECTION ( 'NONE',  ( 0.000000000000000000, 0.000000000000000000, 1.000000000000000000 ) ) ;
#534 = VECTOR ( 'NONE', #119, 1000.000000000000000 ) ;
#535 = CARTESIAN_POINT ( 'NONE',  ( 0.000000000000000000, 1.000000000000056399, -12.50000000000000000 ) ) ;
#536 = DIRECTION ( 'NONE',  ( 0.000000000000000000, 1.000000000000000000, -0.000000000000000000 ) ) ;
#537 = CARTESIAN_POINT ( 'NONE',  ( 0.000000000000000000, 375.0000000000000000, 2.999999999999999112 ) ) ;
#538 = VECTOR ( 'NONE', #539, 1000.000000000000000 ) ;
#539 = DIRECTION ( 'NONE',  ( -0.000000000000000000, -1.000000000000000000, -0.000000000000000000 ) ) ;
#540 = DIRECTION ( 'NONE',  ( -0.000000000000000000, -1.000000000000000000, -0.000000000000000000 ) ) ;
#541 = ORIENTED_EDGE ( 'NONE', *, *, #148, .F. ) ;
#542 = PERSON_AND_ORGANIZATION ( #127, #372 ) ;
#543 = CARTESIAN_POINT ( 'NONE',  ( 0.000000000000000000, 0.000000000000000000, 0.000000000000000000 ) ) ;
#544 = VERTEX_POINT ( 'NONE', #128 ) ;
#545 = EDGE_CURVE ( 'NONE', #562, #289, #584, .T. ) ;
#546 = LINE ( 'NONE', #455, #27 ) ;
#547 = ORIENTED_EDGE ( 'NONE', *, *, #200, .F. ) ;
#548 = AXIS2_PLACEMENT_3D ( 'NONE', #70, #104, #244 ) ;
#549 = DIRECTION ( 'NONE',  ( 0.000000000000000000, -1.000000000000000000, 0.000000000000000000 ) ) ;
#550 = ORIENTED_EDGE ( 'NONE', *, *, #29, .F. ) ;
#551 = APPROVAL ( #99, 'æœª' ) ;
#552 = DIRECTION ( 'NONE',  ( 0.000000000000000000, -1.000000000000000000, 0.000000000000000000 ) ) ;
#553 = EDGE_LOOP ( 'NONE', ( #326, #251 ) ) ;
#554 = CARTESIAN_POINT ( 'NONE',  ( 0.000000000000000000, 355.0000000000000000, 0.000000000000000000 ) ) ;
#555 = ORIENTED_EDGE ( 'NONE', *, *, #130, .F. ) ;
#556 =( GEOMETRIC_REPRESENTATION_CONTEXT ( 3 ) GLOBAL_UNCERTAINTY_ASSIGNED_CONTEXT ( ( #353 ) ) GLOBAL_UNIT_ASSIGNED_CONTEXT ( ( #492, #487, #259 ) ) REPRESENTATION_CONTEXT ( 'NONE', 'WORKASPACE' ) );
#557 = DIRECTION ( 'NONE',  ( 0.000000000000000000, 0.000000000000000000, 1.000000000000000000 ) ) ;
#558 = ORIENTED_EDGE ( 'NONE', *, *, #519, .F. ) ;
#559 = DATE_AND_TIME ( #178, #165 ) ;
#560 = PRODUCT_DEFINITION_SHAPE ( 'NONE', 'NONE',  #433 ) ;
#561 = FACE_OUTER_BOUND ( 'NONE', #517, .T. ) ;
#562 = VERTEX_POINT ( 'NONE', #350 ) ;
#563 = CARTESIAN_POINT ( 'NONE',  ( 0.000000000000000000, 375.0000000000000000, 0.000000000000000000 ) ) ;
#564 = ORIENTED_EDGE ( 'NONE', *, *, #515, .F. ) ;
#565 = DIRECTION ( 'NONE',  ( 0.000000000000000000, 0.000000000000000000, 1.000000000000000000 ) ) ;
#566 = ORIENTED_EDGE ( 'NONE', *, *, #130, .T. ) ;
#567 = AXIS2_PLACEMENT_3D ( 'NONE', #554, #375, #282 ) ;
#568 = DIRECTION ( 'NONE',  ( 8.659560562354888485E-17, 0.7071067811865512365, -0.7071067811865439090 ) ) ;
#569 = EDGE_LOOP ( 'NONE', ( #72, #26 ) ) ;
#570 = COORDINATED_UNIVERSAL_TIME_OFFSET ( 8, 0, .AHEAD. ) ;
#571 = CYLINDRICAL_SURFACE ( 'NONE', #306, 12.50000000000000000 ) ;
#572 = EDGE_CURVE ( 'NONE', #152, #66, #215, .T. ) ;
#573 = CC_DESIGN_APPROVAL ( #551, ( #461 ) ) ;
#574 = LINE ( 'NONE', #405, #202 ) ;
#575 = AXIS2_PLACEMENT_3D ( 'NONE', #150, #101, #356 ) ;
#576 = EDGE_CURVE ( 'NONE', #544, #231, #264, .T. ) ;
#577 = CIRCLE ( 'NONE', #322, 11.49999999999995381 ) ;
#578 = DIRECTION ( 'NONE',  ( 0.000000000000000000, 1.000000000000000000, -0.000000000000000000 ) ) ;
#579 = DIRECTION ( 'NONE',  ( 0.000000000000000000, 0.000000000000000000, 1.000000000000000000 ) ) ;
#580 = EDGE_CURVE ( 'NONE', #20, #562, #242, .T. ) ;
#581 = MECHANICAL_CONTEXT ( 'NONE', #114, 'mechanical' ) ;
#582 = CIRCLE ( 'NONE', #327, 3.000000000000000444 ) ;
#583 = DIRECTION ( 'NONE',  ( 0.000000000000000000, -1.000000000000000000, 0.000000000000000000 ) ) ;
#584 = LINE ( 'NONE', #173, #586 ) ;
#585 = DIRECTION ( 'NONE',  ( 0.000000000000000000, 0.000000000000000000, -1.000000000000000000 ) ) ;
#586 = VECTOR ( 'NONE', #213, 1000.000000000000000 ) ;
#587 = AXIS2_PLACEMENT_3D ( 'NONE', #449, #219, #359 ) ;
#588 = LINE ( 'NONE', #446, #171 ) ;
#589 = ADVANCED_FACE ( 'NONE', ( #220 ), #31, .F. ) ;
#590 = SECURITY_CLASSIFICATION_LEVEL ( 'unclassified' ) ;
#591 = FACE_OUTER_BOUND ( 'NONE', #508, .T. ) ;
ENDSEC;
END-ISO-10303-21;
