ISO-10303-21;
HEADER;
FILE_DESCRIPTION (( 'STEP AP203' ),
    '1' );
FILE_NAME ('µ××ùÖ§¼Ü.STEP',
    '2024-10-08T10:10:19',
    ( '' ),
    ( '' ),
    'SwSTEP 2.0',
    'SolidWorks 2024',
    '' );
FILE_SCHEMA (( 'CONFIG_CONTROL_DESIGN' ));
ENDSEC;

DATA;
#1 = AXIS2_PLACEMENT_3D ( 'NONE', #768, #122, #256 ) ;
#2 = DIRECTION ( 'NONE',  ( 0.000000000000000000, 1.000000000000000000, 0.000000000000000000 ) ) ;
#3 = APPROVAL_STATUS ( 'not_yet_approved' ) ;
#4 = VECTOR ( 'NONE', #501, 1000.000000000000000 ) ;
#5 = ORIENTED_EDGE ( 'NONE', *, *, #462, .T. ) ;
#6 = APPROVAL_DATE_TIME ( #924, #742 ) ;
#7 = ADVANCED_FACE ( 'NONE', ( #336 ), #756, .F. ) ;
#8 = CARTESIAN_POINT ( 'NONE',  ( 167.0013311528745987, 172.6438150289541795, -25.00000000000003197 ) ) ;
#9 = VERTEX_POINT ( 'NONE', #894 ) ;
#10 = COORDINATED_UNIVERSAL_TIME_OFFSET ( 8, 0, .AHEAD. ) ;
#11 = CARTESIAN_POINT ( 'NONE',  ( 15.00000000000000000, 0.000000000000000000, -25.00000000000000000 ) ) ;
#12 = ADVANCED_FACE ( 'NONE', ( #827, #39, #403 ), #685, .T. ) ;
#13 = EDGE_LOOP ( 'NONE', ( #421, #730, #647 ) ) ;
#14 = CALENDAR_DATE ( 2024, 8, 10 ) ;
#15 = LINE ( 'NONE', #664, #323 ) ;
#16 = CARTESIAN_POINT ( 'NONE',  ( 350.0000000000000000, 0.000000000000000000, -50.00000000000000000 ) ) ;
#17 = EDGE_CURVE ( 'NONE', #412, #473, #265, .T. ) ;
#18 = ORIENTED_EDGE ( 'NONE', *, *, #605, .F. ) ;
#19 = CIRCLE ( 'NONE', #84, 8.999999999999996447 ) ;
#20 = FACE_OUTER_BOUND ( 'NONE', #650, .T. ) ;
#21 = CARTESIAN_POINT ( 'NONE',  ( 15.00000000000000000, 10.00000000000000000, -29.00000000000000000 ) ) ;
#22 = AXIS2_PLACEMENT_3D ( 'NONE', #173, #588, #801 ) ;
#23 = ORIENTED_EDGE ( 'NONE', *, *, #442, .F. ) ;
#24 = DIRECTION ( 'NONE',  ( 0.000000000000000000, -0.000000000000000000, -1.000000000000000000 ) ) ;
#25 = DIRECTION ( 'NONE',  ( 0.9917305794448423306, 0.1283372813877461660, -0.000000000000000000 ) ) ;
#26 = ORIENTED_EDGE ( 'NONE', *, *, #165, .T. ) ;
#27 = EDGE_CURVE ( 'NONE', #175, #506, #478, .T. ) ;
#28 = FACE_BOUND ( 'NONE', #798, .T. ) ;
#29 = AXIS2_PLACEMENT_3D ( 'NONE', #38, #327, #606 ) ;
#30 = APPLICATION_CONTEXT ( 'configuration controlled 3d designs of mechanical parts and assemblies' ) ;
#31 = ORIENTED_EDGE ( 'NONE', *, *, #326, .T. ) ;
#32 = DIRECTION ( 'NONE',  ( 0.1283372813877467766, -0.9917305794448421086, 0.000000000000000000 ) ) ;
#33 = PLANE ( 'NONE',  #77 ) ;
#34 = AXIS2_PLACEMENT_3D ( 'NONE', #235, #176, #516 ) ;
#35 = ORIENTED_EDGE ( 'NONE', *, *, #584, .T. ) ;
#36 = EDGE_CURVE ( 'NONE', #675, #113, #208, .T. ) ;
#37 = PLANE ( 'NONE',  #793 ) ;
#38 = CARTESIAN_POINT ( 'NONE',  ( 173.9315443478128884, 119.0903637389326661, -25.00000000000002487 ) ) ;
#39 = FACE_OUTER_BOUND ( 'NONE', #229, .T. ) ;
#40 = ORIENTED_EDGE ( 'NONE', *, *, #139, .F. ) ;
#41 = LINE ( 'NONE', #352, #232 ) ;
#42 = CARTESIAN_POINT ( 'NONE',  ( 0.000000000000000000, 10.00000000000000000, 0.000000000000000000 ) ) ;
#43 = EDGE_CURVE ( 'NONE', #113, #188, #908, .T. ) ;
#44 = CARTESIAN_POINT ( 'NONE',  ( 334.9999999999999432, 10.00000000000000000, -25.00000000000000000 ) ) ;
#45 = VERTEX_POINT ( 'NONE', #423 ) ;
#46 = DIRECTION ( 'NONE',  ( -0.1283372813877467489, 0.9917305794448421086, 0.000000000000000000 ) ) ;
#47 = CIRCLE ( 'NONE', #378, 9.000000000000010658 ) ;
#48 = LINE ( 'NONE', #135, #246 ) ;
#49 = EDGE_CURVE ( 'NONE', #129, #470, #679, .T. ) ;
#50 = ORIENTED_EDGE ( 'NONE', *, *, #509, .T. ) ;
#51 = CARTESIAN_POINT ( 'NONE',  ( 85.88654178720832988, -58.80761708082212635, -20.00000000000000000 ) ) ;
#52 = AXIS2_PLACEMENT_3D ( 'NONE', #627, #632, #835 ) ;
#53 = CARTESIAN_POINT ( 'NONE',  ( 161.0509476762055954, 171.8737913406277187, -25.00000000000003197 ) ) ;
#54 = APPLICATION_PROTOCOL_DEFINITION ( 'international standard', 'config_control_design', 1994, #81 ) ;
#55 = CARTESIAN_POINT ( 'NONE',  ( 350.0000000000000000, 10.00000000000000000, 0.000000000000000000 ) ) ;
#56 = VERTEX_POINT ( 'NONE', #616 ) ;
#57 = CARTESIAN_POINT ( 'NONE',  ( 350.0000000000000000, 10.00000000000000000, 0.000000000000000000 ) ) ;
#58 = LINE ( 'NONE', #485, #367 ) ;
#59 = LINE ( 'NONE', #358, #853 ) ;
#60 = ORIENTED_EDGE ( 'NONE', *, *, #187, .T. ) ;
#61 = ORIENTED_EDGE ( 'NONE', *, *, #234, .F. ) ;
#62 = CIRCLE ( 'NONE', #512, 8.999999999999996447 ) ;
#63 = DIRECTION ( 'NONE',  ( 0.1283372813877464713, -0.9917305794448422196, 0.000000000000000000 ) ) ;
#64 = PLANE ( 'NONE',  #132 ) ;
#65 = CARTESIAN_POINT ( 'NONE',  ( 15.00000000000000000, 0.000000000000000000, -25.00000000000000000 ) ) ;
#66 = AXIS2_PLACEMENT_3D ( 'NONE', #609, #267, #130 ) ;
#67 = CIRCLE ( 'NONE', #797, 6.000000000000016875 ) ;
#68 = CARTESIAN_POINT ( 'NONE',  ( 0.000000000000000000, 10.00000000000000000, 0.000000000000000000 ) ) ;
#69 = ADVANCED_FACE ( 'NONE', ( #697 ), #201, .F. ) ;
#70 = ORIENTED_EDGE ( 'NONE', *, *, #821, .F. ) ;
#71 = PERSON_AND_ORGANIZATION_ROLE ( 'creator' ) ;
#72 = LINE ( 'NONE', #698, #341 ) ;
#73 = APPROVAL_DATE_TIME ( #706, #744 ) ;
#74 = VERTEX_POINT ( 'NONE', #279 ) ;
#75 = EDGE_CURVE ( 'NONE', #840, #803, #41, .T. ) ;
#76 = DATE_AND_TIME ( #14, #677 ) ;
#77 = AXIS2_PLACEMENT_3D ( 'NONE', #42, #818, #111 ) ;
#78 = DIRECTION ( 'NONE',  ( -1.000000000000000000, 3.857919237662786152E-17, 0.000000000000000000 ) ) ;
#79 = AXIS2_PLACEMENT_3D ( 'NONE', #406, #380, #836 ) ;
#80 = VERTEX_POINT ( 'NONE', #631 ) ;
#81 = APPLICATION_CONTEXT ( 'configuration controlled 3d designs of mechanical parts and assemblies' ) ;
#82 = ADVANCED_FACE ( 'NONE', ( #125 ), #405, .T. ) ;
#83 = CARTESIAN_POINT ( 'NONE',  ( 166.2313074645481095, 178.5941985056232113, -25.00000000000003197 ) ) ;
#84 = AXIS2_PLACEMENT_3D ( 'NONE', #562, #844, #814 ) ;
#85 = CC_DESIGN_DATE_AND_TIME_ASSIGNMENT ( #916, #569, ( #372 ) ) ;
#86 = EDGE_LOOP ( 'NONE', ( #140, #782, #445, #40 ) ) ;
#87 = DIRECTION ( 'NONE',  ( 0.9917305794448421086, 0.1283372813877471652, 0.000000000000000000 ) ) ;
#88 = EDGE_CURVE ( 'NONE', #74, #199, #189, .T. ) ;
#89 = EDGE_CURVE ( 'NONE', #404, #9, #557, .T. ) ;
#90 = ORIENTED_EDGE ( 'NONE', *, *, #619, .F. ) ;
#91 = FACE_BOUND ( 'NONE', #272, .T. ) ;
#92 = DIRECTION ( 'NONE',  ( 0.9917305794448421086, 0.1283372813877471652, 0.000000000000000000 ) ) ;
#93 = ADVANCED_FACE ( 'NONE', ( #752 ), #770, .F. ) ;
#94 = CARTESIAN_POINT ( 'NONE',  ( 170.8178678598847284, 65.23172081241052922, -30.00000000000000355 ) ) ;
#95 = EDGE_LOOP ( 'NONE', ( #915, #847, #636, #901 ) ) ;
#96 = VECTOR ( 'NONE', #144, 999.9999999999998863 ) ;
#97 = AXIS2_PLACEMENT_3D ( 'NONE', #260, #912, #552 ) ;
#98 = DIRECTION ( 'NONE',  ( -0.9917305794448421086, -0.1283372813877467766, -0.000000000000000000 ) ) ;
#99 = LINE ( 'NONE', #644, #394 ) ;
#100 = VERTEX_POINT ( 'NONE', #896 ) ;
#101 = CARTESIAN_POINT ( 'NONE',  ( 177.9652615596935163, 10.00000000000000178, -50.00000000000000000 ) ) ;
#102 = LINE ( 'NONE', #387, #910 ) ;
#103 = ORIENTED_EDGE ( 'NONE', *, *, #786, .F. ) ;
#104 = DIRECTION ( 'NONE',  ( 0.1283372813877462493, -0.9917305794448422196, 0.000000000000000000 ) ) ;
#105 = EDGE_CURVE ( 'NONE', #342, #396, #703, .T. ) ;
#106 =( LENGTH_UNIT ( ) NAMED_UNIT ( * ) SI_UNIT ( .MILLI., .METRE. ) );
#107 = AXIS2_PLACEMENT_3D ( 'NONE', #519, #170, #585 ) ;
#108 = DIRECTION ( 'NONE',  ( 0.000000000000000000, 0.000000000000000000, -1.000000000000000000 ) ) ;
#109 = DIRECTION ( 'NONE',  ( -1.000000000000000000, -0.000000000000000000, -0.000000000000000000 ) ) ;
#110 = EDGE_CURVE ( 'NONE', #158, #254, #903, .T. ) ;
#111 = DIRECTION ( 'NONE',  ( 0.000000000000000000, -0.000000000000000000, -1.000000000000000000 ) ) ;
#112 = ORIENTED_EDGE ( 'NONE', *, *, #117, .F. ) ;
#113 = VERTEX_POINT ( 'NONE', #57 ) ;
#114 = ORIENTED_EDGE ( 'NONE', *, *, #185, .T. ) ;
#115 = DIRECTION ( 'NONE',  ( 0.000000000000000000, 1.000000000000000000, -0.000000000000000000 ) ) ;
#116 = DIRECTION ( 'NONE',  ( -0.000000000000000000, -0.000000000000000000, 1.000000000000000000 ) ) ;
#117 = EDGE_CURVE ( 'NONE', #375, #80, #413, .T. ) ;
#118 = DIRECTION ( 'NONE',  ( 0.000000000000000000, 0.000000000000000000, 1.000000000000000000 ) ) ;
#119 = CARTESIAN_POINT ( 'NONE',  ( 334.9999999999999432, 10.00000000000000000, -25.00000000000000000 ) ) ;
#120 = ORIENTED_EDGE ( 'NONE', *, *, #110, .T. ) ;
#121 = AXIS2_PLACEMENT_3D ( 'NONE', #755, #118, #694 ) ;
#122 = DIRECTION ( 'NONE',  ( -0.9917305794448421086, -0.1283372813877467766, -0.000000000000000000 ) ) ;
#123 = DIRECTION ( 'NONE',  ( 0.1283372813877462493, -0.9917305794448422196, 0.000000000000000000 ) ) ;
#124 = ORIENTED_EDGE ( 'NONE', *, *, #654, .F. ) ;
#125 = FACE_OUTER_BOUND ( 'NONE', #620, .T. ) ;
#126 = EDGE_CURVE ( 'NONE', #199, #435, #19, .T. ) ;
#127 = FACE_OUTER_BOUND ( 'NONE', #233, .T. ) ;
#128 = VERTEX_POINT ( 'NONE', #386 ) ;
#129 = VERTEX_POINT ( 'NONE', #461 ) ;
#130 = DIRECTION ( 'NONE',  ( 0.1283372813877464713, -0.9917305794448422196, 0.000000000000000000 ) ) ;
#131 = CARTESIAN_POINT ( 'NONE',  ( 162.8592030208748156, 126.7325661400588217, -25.00000000000002487 ) ) ;
#132 = AXIS2_PLACEMENT_3D ( 'NONE', #293, #202, #418 ) ;
#133 = CARTESIAN_POINT ( 'NONE',  ( 170.8178678598847284, 65.23172081241052922, -29.99999999999999289 ) ) ;
#134 = PERSON_AND_ORGANIZATION ( #624, #641 ) ;
#135 = CARTESIAN_POINT ( 'NONE',  ( 0.000000000000000000, 10.00000000000000000, -50.00000000000000000 ) ) ;
#136 = ORIENTED_EDGE ( 'NONE', *, *, #849, .T. ) ;
#137 = FACE_OUTER_BOUND ( 'NONE', #843, .T. ) ;
#138 = CARTESIAN_POINT ( 'NONE',  ( 173.1615206594863992, 125.0407472156017121, -25.00000000000002487 ) ) ;
#139 = EDGE_CURVE ( 'NONE', #45, #354, #15, .T. ) ;
#140 = ORIENTED_EDGE ( 'NONE', *, *, #159, .F. ) ;
#141 = LINE ( 'NONE', #553, #251 ) ;
#142 = FACE_OUTER_BOUND ( 'NONE', #774, .T. ) ;
#143 = AXIS2_PLACEMENT_3D ( 'NONE', #119, #683, #108 ) ;
#144 = DIRECTION ( 'NONE',  ( 0.9917305794448423306, 0.1283372813877461660, -0.000000000000000000 ) ) ;
#145 = DIRECTION ( 'NONE',  ( -0.9917305794448422196, -0.1283372813877468044, 0.000000000000000000 ) ) ;
#146 = ORIENTED_EDGE ( 'NONE', *, *, #741, .F. ) ;
#147 = APPROVAL_DATE_TIME ( #76, #455 ) ;
#148 = DIRECTION ( 'NONE',  ( -1.000000000000000000, 0.000000000000000000, -0.000000000000000000 ) ) ;
#149 = EDGE_LOOP ( 'NONE', ( #31, #828 ) ) ;
#150 = LINE ( 'NONE', #646, #917 ) ;
#151 = COORDINATED_UNIVERSAL_TIME_OFFSET ( 8, 0, .AHEAD. ) ;
#152 = ADVANCED_FACE ( 'NONE', ( #463, #180 ), #743, .T. ) ;
#153 = VERTEX_POINT ( 'NONE', #101 ) ;
#154 = APPROVAL_ROLE ( '' ) ;
#155 = CIRCLE ( 'NONE', #29, 6.000000000000016875 ) ;
#156 = CARTESIAN_POINT ( 'NONE',  ( 188.0486453004648979, 10.00000000000000178, -50.00000000000000711 ) ) ;
#157 = CC_DESIGN_PERSON_AND_ORGANIZATION_ASSIGNMENT ( #432, #71, ( #571 ) ) ;
#158 = VERTEX_POINT ( 'NONE', #731 ) ;
#159 = EDGE_CURVE ( 'NONE', #840, #45, #472, .T. ) ;
#160 = UNCERTAINTY_MEASURE_WITH_UNIT (LENGTH_MEASURE( 1.000000000000000082E-05 ), #106, 'distance_accuracy_value', 'NONE');
#161 = DIRECTION ( 'NONE',  ( -0.1283372813877481922, 0.9917305794448418865, 0.000000000000000000 ) ) ;
#162 = VECTOR ( 'NONE', #661, 1000.000000000000000 ) ;
#163 = ORIENTED_EDGE ( 'NONE', *, *, #680, .T. ) ;
#164 = APPROVAL_STATUS ( 'not_yet_approved' ) ;
#165 = EDGE_CURVE ( 'NONE', #388, #614, #738, .T. ) ;
#166 = DIRECTION ( 'NONE',  ( -0.9917305794448421086, -0.1283372813877467766, 0.000000000000000000 ) ) ;
#167 = CARTESIAN_POINT ( 'NONE',  ( 176.3068522947273209, 22.81541235342615082, -50.00000000000000711 ) ) ;
#168 = EDGE_CURVE ( 'NONE', #430, #506, #747, .T. ) ;
#169 = APPROVAL_PERSON_ORGANIZATION ( #436, #455, #154 ) ;
#170 = DIRECTION ( 'NONE',  ( -0.9917305794448422196, -0.1283372813877468044, 0.000000000000000000 ) ) ;
#171 = ORIENTED_EDGE ( 'NONE', *, *, #257, .F. ) ;
#172 = LINE ( 'NONE', #449, #431 ) ;
#173 = CARTESIAN_POINT ( 'NONE',  ( 176.3068522947273209, 22.81541235342615082, -50.00000000000000711 ) ) ;
#174 = LINE ( 'NONE', #736, #762 ) ;
#175 = VERTEX_POINT ( 'NONE', #587 ) ;
#176 = DIRECTION ( 'NONE',  ( 0.000000000000000000, 0.000000000000000000, 1.000000000000000000 ) ) ;
#177 = ADVANCED_FACE ( 'NONE', ( #245, #28, #667 ), #322, .F. ) ;
#178 = CARTESIAN_POINT ( 'NONE',  ( 156.3140016700997421, 177.3108256917457766, -25.00000000000003197 ) ) ;
#179 = ORIENTED_EDGE ( 'NONE', *, *, #264, .T. ) ;
#180 = FACE_BOUND ( 'NONE', #244, .T. ) ;
#181 = DIRECTION ( 'NONE',  ( -0.000000000000000000, -0.000000000000000000, -1.000000000000000000 ) ) ;
#182 = CARTESIAN_POINT ( 'NONE',  ( 160.2809239878791061, 177.8241748172967505, -25.00000000000003197 ) ) ;
#183 = CIRCLE ( 'NONE', #307, 5.999999999999989342 ) ;
#184 = CARTESIAN_POINT ( 'NONE',  ( 160.2809239878791061, 177.8241748172967505, -25.00000000000003197 ) ) ;
#185 = EDGE_CURVE ( 'NONE', #477, #283, #310, .T. ) ;
#186 = EDGE_LOOP ( 'NONE', ( #704, #832 ) ) ;
#187 = EDGE_CURVE ( 'NONE', #686, #453, #443, .T. ) ;
#188 = VERTEX_POINT ( 'NONE', #880 ) ;
#189 = LINE ( 'NONE', #763, #221 ) ;
#190 = DIRECTION ( 'NONE',  ( -0.000000000000000000, -1.000000000000000000, -0.000000000000000000 ) ) ;
#191 = DIRECTION ( 'NONE',  ( 0.9917305794448422196, 0.1283372813877468044, -0.000000000000000000 ) ) ;
#192 = CIRCLE ( 'NONE', #662, 3.999999999999993339 ) ;
#193 = ORIENTED_EDGE ( 'NONE', *, *, #286, .F. ) ;
#194 = ORIENTED_EDGE ( 'NONE', *, *, #919, .T. ) ;
#195 = CARTESIAN_POINT ( 'NONE',  ( 176.3068522947273209, 22.81541235342615082, 0.000000000000000000 ) ) ;
#196 = EDGE_CURVE ( 'NONE', #473, #412, #192, .T. ) ;
#197 = DIRECTION ( 'NONE',  ( 0.9917305794448422196, 0.1283372813877461383, -0.000000000000000000 ) ) ;
#198 = DIRECTION ( 'NONE',  ( -1.000000000000000000, -0.000000000000000000, -0.000000000000000000 ) ) ;
#199 = VERTEX_POINT ( 'NONE', #884 ) ;
#200 = ORIENTED_EDGE ( 'NONE', *, *, #196, .F. ) ;
#201 = CYLINDRICAL_SURFACE ( 'NONE', #499, 8.999999999999996447 ) ;
#202 = DIRECTION ( 'NONE',  ( 1.000000000000000000, -0.000000000000000000, 0.000000000000000000 ) ) ;
#203 = FACE_OUTER_BOUND ( 'NONE', #629, .T. ) ;
#204 = EDGE_CURVE ( 'NONE', #546, #607, #67, .T. ) ;
#205 = DIRECTION ( 'NONE',  ( -1.000000000000000000, 0.000000000000000000, 0.000000000000000000 ) ) ;
#206 = CIRCLE ( 'NONE', #319, 4.000000000000000000 ) ;
#207 = ORIENTED_EDGE ( 'NONE', *, *, #773, .T. ) ;
#208 = LINE ( 'NONE', #540, #748 ) ;
#209 = DIRECTION ( 'NONE',  ( -0.9917305794448421086, -0.1283372813877467766, 0.000000000000000000 ) ) ;
#210 = DIRECTION ( 'NONE',  ( 0.000000000000000000, 1.000000000000000000, 0.000000000000000000 ) ) ;
#211 = EDGE_LOOP ( 'NONE', ( #338, #112, #171, #179 ) ) ;
#212 = CARTESIAN_POINT ( 'NONE',  ( 133.0000000000000000, 10.00000000000000000, -20.00000000000000000 ) ) ;
#213 = LINE ( 'NONE', #68, #451 ) ;
#214 = ORIENTED_EDGE ( 'NONE', *, *, #359, .T. ) ;
#215 = PLANE ( 'NONE',  #335 ) ;
#216 = DIRECTION ( 'NONE',  ( 1.000000000000000000, 0.000000000000000000, 0.000000000000000000 ) ) ;
#217 = ORIENTED_EDGE ( 'NONE', *, *, #861, .F. ) ;
#218 = CARTESIAN_POINT ( 'NONE',  ( 350.0000000000000000, 0.000000000000000000, 0.000000000000000000 ) ) ;
#219 = SECURITY_CLASSIFICATION_LEVEL ( 'unclassified' ) ;
#220 = CIRCLE ( 'NONE', #767, 3.999999999999993339 ) ;
#221 = VECTOR ( 'NONE', #339, 1000.000000000000000 ) ;
#222 = CARTESIAN_POINT ( 'NONE',  ( 15.00000000000000000, 10.00000000000000000, -25.00000000000000000 ) ) ;
#223 = AXIS2_PLACEMENT_3D ( 'NONE', #83, #369, #161 ) ;
#224 = ADVANCED_FACE ( 'NONE', ( #809 ), #305, .F. ) ;
#225 = CC_DESIGN_PERSON_AND_ORGANIZATION_ASSIGNMENT ( #134, #637, ( #337 ) ) ;
#226 = EDGE_LOOP ( 'NONE', ( #200, #301 ) ) ;
#227 = PERSON_AND_ORGANIZATION_ROLE ( 'creator' ) ;
#228 = LINE ( 'NONE', #653, #672 ) ;
#229 = EDGE_LOOP ( 'NONE', ( #709, #613, #309, #492 ) ) ;
#230 = CARTESIAN_POINT ( 'NONE',  ( 157.4690372025894476, 168.3852504767421863, -25.00000000000003197 ) ) ;
#231 = VECTOR ( 'NONE', #674, 1000.000000000000000 ) ;
#232 = VECTOR ( 'NONE', #398, 1000.000000000000000 ) ;
#233 = EDGE_LOOP ( 'NONE', ( #717, #893, #392, #299 ) ) ;
#234 = EDGE_CURVE ( 'NONE', #686, #250, #800, .T. ) ;
#235 = CARTESIAN_POINT ( 'NONE',  ( 0.000000000000000000, 10.00000000000000000, -50.00000000000000000 ) ) ;
#236 = DIRECTION ( 'NONE',  ( 0.000000000000000000, 0.000000000000000000, 1.000000000000000000 ) ) ;
#237 = AXIS2_PLACEMENT_3D ( 'NONE', #182, #598, #104 ) ;
#238 = EDGE_LOOP ( 'NONE', ( #599, #750, #533, #422, #551, #50, #26, #124 ) ) ;
#239 = CARTESIAN_POINT ( 'NONE',  ( 0.000000000000000000, 10.00000000000000000, 0.000000000000000000 ) ) ;
#240 = FACE_BOUND ( 'NONE', #813, .T. ) ;
#241 = LOCAL_TIME ( 18, 10, 19.00000000000000000, #302 ) ;
#242 = DIRECTION ( 'NONE',  ( 0.9917305794448422196, 0.1283372813877461383, -0.000000000000000000 ) ) ;
#243 = LINE ( 'NONE', #815, #865 ) ;
#244 = EDGE_LOOP ( 'NONE', ( #214, #582 ) ) ;
#245 = FACE_BOUND ( 'NONE', #642, .T. ) ;
#246 = VECTOR ( 'NONE', #198, 1000.000000000000000 ) ;
#247 = ADVANCED_FACE ( 'NONE', ( #91, #20 ), #874, .F. ) ;
#248 = VECTOR ( 'NONE', #764, 999.9999999999998863 ) ;
#249 = FACE_OUTER_BOUND ( 'NONE', #95, .T. ) ;
#250 = VERTEX_POINT ( 'NONE', #804 ) ;
#251 = VECTOR ( 'NONE', #424, 1000.000000000000000 ) ;
#252 = CARTESIAN_POINT ( 'NONE',  ( 0.000000000000000000, 0.000000000000000000, -50.00000000000000000 ) ) ;
#253 = EDGE_CURVE ( 'NONE', #254, #80, #172, .T. ) ;
#254 = VERTEX_POINT ( 'NONE', #871 ) ;
#255 = DIRECTION ( 'NONE',  ( 0.9917305794448423306, 0.1283372813877461660, 0.000000000000000000 ) ) ;
#256 = DIRECTION ( 'NONE',  ( 0.1283372813877462493, -0.9917305794448422196, 0.000000000000000000 ) ) ;
#257 = EDGE_CURVE ( 'NONE', #483, #375, #99, .T. ) ;
#258 = CARTESIAN_POINT ( 'NONE',  ( 186.2241580891756314, 24.09878516730349673, 0.000000000000000000 ) ) ;
#259 = VERTEX_POINT ( 'NONE', #437 ) ;
#260 = CARTESIAN_POINT ( 'NONE',  ( 0.000000000000000000, 0.000000000000000000, -20.00000000000000000 ) ) ;
#261 = CARTESIAN_POINT ( 'NONE',  ( 167.9811608711438851, 118.3203400506062053, -25.00000000000002487 ) ) ;
#262 = CARTESIAN_POINT ( 'NONE',  ( 0.000000000000000000, 10.00000000000000000, 0.000000000000000000 ) ) ;
#263 = CARTESIAN_POINT ( 'NONE',  ( 0.000000000000000000, 0.000000000000000000, 0.000000000000000000 ) ) ;
#264 = EDGE_CURVE ( 'NONE', #483, #254, #150, .T. ) ;
#265 = CIRCLE ( 'NONE', #379, 3.999999999999993339 ) ;
#266 = ORIENTED_EDGE ( 'NONE', *, *, #654, .T. ) ;
#267 = DIRECTION ( 'NONE',  ( -0.9917305794448421086, -0.1283372813877467766, -0.000000000000000000 ) ) ;
#268 = CARTESIAN_POINT ( 'NONE',  ( 170.8178678598847284, 65.23172081241052922, -30.00000000000000355 ) ) ;
#269 = LINE ( 'NONE', #817, #510 ) ;
#270 = AXIS2_PLACEMENT_3D ( 'NONE', #600, #317, #887 ) ;
#271 = DIRECTION ( 'NONE',  ( 0.000000000000000000, -0.000000000000000000, -1.000000000000000000 ) ) ;
#272 = EDGE_LOOP ( 'NONE', ( #761, #886 ) ) ;
#273 = DIRECTION ( 'NONE',  ( -0.000000000000000000, -1.000000000000000000, -0.000000000000000000 ) ) ;
#274 = LINE ( 'NONE', #913, #578 ) ;
#275 = CYLINDRICAL_SURFACE ( 'NONE', #79, 3.999999999999993339 ) ;
#276 = MECHANICAL_CONTEXT ( 'NONE', #81, 'mechanical' ) ;
#277 = FACE_OUTER_BOUND ( 'NONE', #86, .T. ) ;
#278 = ORIENTED_EDGE ( 'NONE', *, *, #786, .T. ) ;
#279 = CARTESIAN_POINT ( 'NONE',  ( 169.1361964036336190, 109.3947648356026292, -25.00000000000002487 ) ) ;
#280 = CARTESIAN_POINT ( 'NONE',  ( 350.0000000000000000, 10.00000000000000000, -50.00000000000000000 ) ) ;
#281 = DIRECTION ( 'NONE',  ( 0.1283372813877462493, -0.9917305794448422196, 0.000000000000000000 ) ) ;
#282 = VECTOR ( 'NONE', #190, 1000.000000000000000 ) ;
#283 = VERTEX_POINT ( 'NONE', #156 ) ;
#284 = DIRECTION ( 'NONE',  ( 0.000000000000000000, 0.000000000000000000, 1.000000000000000000 ) ) ;
#285 = DIRECTION ( 'NONE',  ( -0.1283372813877478869, 0.9917305794448419975, 0.000000000000000000 ) ) ;
#286 = EDGE_CURVE ( 'NONE', #128, #506, #648, .T. ) ;
#287 = DIRECTION ( 'NONE',  ( 0.1283372813877478869, -0.9917305794448419975, 0.000000000000000000 ) ) ;
#288 = CARTESIAN_POINT ( 'NONE',  ( 164.0142385533645211, 117.8069909250552314, -25.00000000000002487 ) ) ;
#289 = ADVANCED_FACE ( 'NONE', ( #719 ), #715, .F. ) ;
#290 = ORIENTED_EDGE ( 'NONE', *, *, #89, .T. ) ;
#291 = LOCAL_TIME ( 18, 10, 19.00000000000000000, #573 ) ;
#292 = APPLICATION_PROTOCOL_DEFINITION ( 'international standard', 'config_control_design', 1994, #30 ) ;
#293 = CARTESIAN_POINT ( 'NONE',  ( 0.000000000000000000, 10.00000000000000000, 0.000000000000000000 ) ) ;
#294 = DIRECTION ( 'NONE',  ( 0.8251140600022710547, -0.5649661830468869494, 0.000000000000000000 ) ) ;
#295 = DIRECTION ( 'NONE',  ( 0.9917305794448422196, 0.1283372813877461383, -0.000000000000000000 ) ) ;
#296 = EDGE_CURVE ( 'NONE', #321, #435, #576, .T. ) ;
#297 = PLANE ( 'NONE',  #635 ) ;
#298 = CC_DESIGN_PERSON_AND_ORGANIZATION_ASSIGNMENT ( #507, #791, ( #571 ) ) ;
#299 = ORIENTED_EDGE ( 'NONE', *, *, #43, .T. ) ;
#300 = DIRECTION ( 'NONE',  ( 0.000000000000000000, 0.000000000000000000, 1.000000000000000000 ) ) ;
#301 = ORIENTED_EDGE ( 'NONE', *, *, #17, .F. ) ;
#302 = COORDINATED_UNIVERSAL_TIME_OFFSET ( 8, 0, .AHEAD. ) ;
#303 = DIRECTION ( 'NONE',  ( -0.9917305794448421086, -0.1283372813877467766, -0.000000000000000000 ) ) ;
#304 = ORIENTED_EDGE ( 'NONE', *, *, #746, .F. ) ;
#305 = PLANE ( 'NONE',  #34 ) ;
#306 = LINE ( 'NONE', #167, #456 ) ;
#307 = AXIS2_PLACEMENT_3D ( 'NONE', #184, #191, #534 ) ;
#308 = CLOSED_SHELL ( 'NONE', ( #881, #93, #659, #649, #289, #735, #673, #634, #888, #452, #247, #794, #12, #515, #879, #224, #385, #778, #177, #347, #374, #82, #434, #152, #69, #493, #7 ) ) ;
#309 = ORIENTED_EDGE ( 'NONE', *, *, #481, .F. ) ;
#310 = LINE ( 'NONE', #595, #487 ) ;
#311 = CARTESIAN_POINT ( 'NONE',  ( 334.9999999999999432, 10.00000000000000000, -21.00000000000000711 ) ) ;
#312 = CIRCLE ( 'NONE', #830, 6.000000000000002665 ) ;
#313 = ORIENTED_EDGE ( 'NONE', *, *, #766, .T. ) ;
#314 = DIRECTION ( 'NONE',  ( 0.000000000000000000, 0.000000000000000000, -1.000000000000000000 ) ) ;
#315 = CARTESIAN_POINT ( 'NONE',  ( 159.5109002995526168, 183.7745582939658107, -25.00000000000003197 ) ) ;
#316 = EDGE_LOOP ( 'NONE', ( #146, #539, #35, #822 ) ) ;
#317 = DIRECTION ( 'NONE',  ( -0.9917305794448422196, -0.1283372813877461938, 0.000000000000000000 ) ) ;
#318 = EDGE_CURVE ( 'NONE', #329, #250, #591, .T. ) ;
#319 = AXIS2_PLACEMENT_3D ( 'NONE', #826, #739, #749 ) ;
#320 = CIRCLE ( 'NONE', #107, 8.999999999999996447 ) ;
#321 = VERTEX_POINT ( 'NONE', #366 ) ;
#322 = PLANE ( 'NONE',  #270 ) ;
#323 = VECTOR ( 'NONE', #98, 1000.000000000000000 ) ;
#324 = DIRECTION ( 'NONE',  ( -0.9917305794448422196, -0.1283372813877468044, 0.000000000000000000 ) ) ;
#325 = ORIENTED_EDGE ( 'NONE', *, *, #117, .T. ) ;
#326 = EDGE_CURVE ( 'NONE', #9, #470, #355, .T. ) ;
#327 = DIRECTION ( 'NONE',  ( 0.9917305794448423306, 0.1283372813877461660, 0.000000000000000000 ) ) ;
#328 = ORIENTED_EDGE ( 'NONE', *, *, #866, .T. ) ;
#329 = VERTEX_POINT ( 'NONE', #8 ) ;
#330 = ORIENTED_EDGE ( 'NONE', *, *, #682, .T. ) ;
#331 = DIRECTION ( 'NONE',  ( -0.000000000000000000, -1.000000000000000000, -0.000000000000000000 ) ) ;
#332 = CARTESIAN_POINT ( 'NONE',  ( 177.9652615596935448, 10.00000000000000000, -20.00000000000000000 ) ) ;
#333 = LINE ( 'NONE', #688, #480 ) ;
#334 = ORIENTED_EDGE ( 'NONE', *, *, #718, .F. ) ;
#335 = AXIS2_PLACEMENT_3D ( 'NONE', #771, #209, #845 ) ;
#336 = FACE_OUTER_BOUND ( 'NONE', #684, .T. ) ;
#337 = PRODUCT ( '\X2\5e955ea7652f67b6\X0\', '\X2\5e955ea7652f67b6\X0\', '', ( #276 ) ) ;
#338 = ORIENTED_EDGE ( 'NONE', *, *, #253, .T. ) ;
#339 = DIRECTION ( 'NONE',  ( -0.9917305794448421086, -0.1283372813877467766, -0.000000000000000000 ) ) ;
#340 = DIRECTION ( 'NONE',  ( 0.5649661830468869494, 0.8251140600022710547, 0.000000000000000000 ) ) ;
#341 = VECTOR ( 'NONE', #363, 1000.000000000000000 ) ;
#342 = VERTEX_POINT ( 'NONE', #579 ) ;
#343 = DIRECTION ( 'NONE',  ( -0.5649661830468870605, -0.8251140600022710547, 0.000000000000000000 ) ) ;
#344 = PLANE ( 'NONE',  #787 ) ;
#345 = CARTESIAN_POINT ( 'NONE',  ( 167.2111371828173958, 124.2707235272752513, -25.00000000000002487 ) ) ;
#346 = ORIENTED_EDGE ( 'NONE', *, *, #88, .T. ) ;
#347 = ADVANCED_FACE ( 'NONE', ( #583, #240, #503 ), #864, .F. ) ;
#348 = DIRECTION ( 'NONE',  ( 0.1283372813877461938, -0.9917305794448422196, 0.000000000000000000 ) ) ;
#349 = AXIS2_PLACEMENT_3D ( 'NONE', #802, #197, #693 ) ;
#350 = ORIENTED_EDGE ( 'NONE', *, *, #27, .T. ) ;
#351 = ORIENTED_EDGE ( 'NONE', *, *, #187, .F. ) ;
#352 = CARTESIAN_POINT ( 'NONE',  ( 159.1258884553893722, 186.7497500323003408, -25.00000000000003197 ) ) ;
#353 = DIRECTION ( 'NONE',  ( 0.000000000000000000, 1.000000000000000000, -0.000000000000000000 ) ) ;
#354 = VERTEX_POINT ( 'NONE', #230 ) ;
#355 = CIRCLE ( 'NONE', #549, 4.000000000000000000 ) ;
#356 = DIRECTION ( 'NONE',  ( 0.9917305794448422196, 0.1283372813877468044, -0.000000000000000000 ) ) ;
#357 = SHAPE_DEFINITION_REPRESENTATION ( #401, #457 ) ;
#358 = CARTESIAN_POINT ( 'NONE',  ( 186.2241580891756314, 24.09878516730349673, -50.00000000000000711 ) ) ;
#359 = EDGE_CURVE ( 'NONE', #665, #100, #858, .T. ) ;
#360 = ORIENTED_EDGE ( 'NONE', *, *, #75, .F. ) ;
#361 = CC_DESIGN_APPROVAL ( #742, ( #525 ) ) ;
#362 = PERSON_AND_ORGANIZATION ( #624, #641 ) ;
#363 = DIRECTION ( 'NONE',  ( 0.000000000000000000, 0.000000000000000000, 1.000000000000000000 ) ) ;
#364 = CIRCLE ( 'NONE', #716, 9.000000000000010658 ) ;
#365 = VECTOR ( 'NONE', #415, 1000.000000000000000 ) ;
#366 = CARTESIAN_POINT ( 'NONE',  ( 166.8261253386541796, 127.2459152656097956, -25.00000000000002487 ) ) ;
#367 = VECTOR ( 'NONE', #427, 1000.000000000000000 ) ;
#368 = ORIENTED_EDGE ( 'NONE', *, *, #799, .F. ) ;
#369 = DIRECTION ( 'NONE',  ( 0.9917305794448423306, 0.1283372813877461660, 0.000000000000000000 ) ) ;
#370 = EDGE_CURVE ( 'NONE', #283, #675, #228, .T. ) ;
#371 = ORIENTED_EDGE ( 'NONE', *, *, #861, .T. ) ;
#372 = SECURITY_CLASSIFICATION ( '', '', #219 ) ;
#373 = DIRECTION ( 'NONE',  ( -0.000000000000000000, -1.000000000000000000, -0.000000000000000000 ) ) ;
#374 = ADVANCED_FACE ( 'NONE', ( #513 ), #297, .F. ) ;
#375 = VERTEX_POINT ( 'NONE', #508 ) ;
#376 = CARTESIAN_POINT ( 'NONE',  ( 167.9811608711438851, 118.3203400506062053, -25.00000000000002487 ) ) ;
#377 = CARTESIAN_POINT ( 'NONE',  ( 166.8261253386541796, 127.2459152656097956, -25.00000000000002487 ) ) ;
#378 = AXIS2_PLACEMENT_3D ( 'NONE', #922, #145, #281 ) ;
#379 = AXIS2_PLACEMENT_3D ( 'NONE', #44, #115, #759 ) ;
#380 = DIRECTION ( 'NONE',  ( -0.000000000000000000, -1.000000000000000000, -0.000000000000000000 ) ) ;
#381 = ORIENTED_EDGE ( 'NONE', *, *, #393, .F. ) ;
#382 = CARTESIAN_POINT ( 'NONE',  ( 173.9315443478128884, 119.0903637389326661, -25.00000000000002487 ) ) ;
#383 = AXIS2_PLACEMENT_3D ( 'NONE', #239, #454, #24 ) ;
#384 = ORIENTED_EDGE ( 'NONE', *, *, #799, .T. ) ;
#385 = ADVANCED_FACE ( 'NONE', ( #796 ), #723, .F. ) ;
#386 = CARTESIAN_POINT ( 'NONE',  ( 177.9652615596935448, 10.00000000000000000, -20.00000000000000000 ) ) ;
#387 = CARTESIAN_POINT ( 'NONE',  ( 177.9652615596935163, 10.00000000000000178, -30.00000000000000355 ) ) ;
#388 = VERTEX_POINT ( 'NONE', #16 ) ;
#389 = CARTESIAN_POINT ( 'NONE',  ( 133.0000000000000000, 9.999999999999998224, -50.00000000000000711 ) ) ;
#390 = AXIS2_PLACEMENT_3D ( 'NONE', #877, #242, #610 ) ;
#391 = FACE_BOUND ( 'NONE', #226, .T. ) ;
#392 = ORIENTED_EDGE ( 'NONE', *, *, #850, .F. ) ;
#393 = EDGE_CURVE ( 'NONE', #153, #483, #306, .T. ) ;
#394 = VECTOR ( 'NONE', #87, 1000.000000000000114 ) ;
#395 = CARTESIAN_POINT ( 'NONE',  ( 159.1258884553893722, 186.7497500323003408, -25.00000000000003197 ) ) ;
#396 = VERTEX_POINT ( 'NONE', #657 ) ;
#397 = EDGE_LOOP ( 'NONE', ( #368, #90 ) ) ;
#398 = DIRECTION ( 'NONE',  ( -0.9917305794448421086, -0.1283372813877467766, -0.000000000000000000 ) ) ;
#399 = CYLINDRICAL_SURFACE ( 'NONE', #390, 5.999999999999989342 ) ;
#400 = LOCAL_TIME ( 18, 10, 19.00000000000000000, #151 ) ;
#401 = PRODUCT_DEFINITION_SHAPE ( 'NONE', 'NONE',  #525 ) ;
#402 = EDGE_LOOP ( 'NONE', ( #663, #439, #163, #514 ) ) ;
#403 = FACE_BOUND ( 'NONE', #868, .T. ) ;
#404 = VERTEX_POINT ( 'NONE', #21 ) ;
#405 = PLANE ( 'NONE',  #97 ) ;
#406 = CARTESIAN_POINT ( 'NONE',  ( 334.9999999999999432, 10.00000000000000000, -25.00000000000000000 ) ) ;
#407 = AXIS2_PLACEMENT_3D ( 'NONE', #425, #702, #633 ) ;
#408 =( NAMED_UNIT ( * ) PLANE_ANGLE_UNIT ( ) SI_UNIT ( $, .RADIAN. ) );
#409 = DIRECTION ( 'NONE',  ( -0.9917305794448422196, -0.1283372813877468044, 0.000000000000000000 ) ) ;
#410 = ORIENTED_EDGE ( 'NONE', *, *, #866, .F. ) ;
#411 = AXIS2_PLACEMENT_3D ( 'NONE', #559, #210, #785 ) ;
#412 = VERTEX_POINT ( 'NONE', #311 ) ;
#413 = LINE ( 'NONE', #692, #544 ) ;
#414 = DIRECTION ( 'NONE',  ( 0.000000000000000000, 0.000000000000000000, -1.000000000000000000 ) ) ;
#415 = DIRECTION ( 'NONE',  ( 0.1283372813877466101, -0.9917305794448422196, 0.000000000000000000 ) ) ;
#416 = DIRECTION ( 'NONE',  ( -0.1283372813877481922, 0.9917305794448418865, 0.000000000000000000 ) ) ;
#417 = EDGE_LOOP ( 'NONE', ( #304, #819, #695, #920 ) ) ;
#418 = DIRECTION ( 'NONE',  ( 0.000000000000000000, 0.000000000000000000, -1.000000000000000000 ) ) ;
#419 = CYLINDRICAL_SURFACE ( 'NONE', #531, 6.000000000000002665 ) ;
#420 = PRODUCT_RELATED_PRODUCT_CATEGORY ( 'detail', '', ( #337 ) ) ;
#421 = ORIENTED_EDGE ( 'NONE', *, *, #746, .T. ) ;
#422 = ORIENTED_EDGE ( 'NONE', *, *, #566, .T. ) ;
#423 = CARTESIAN_POINT ( 'NONE',  ( 161.4359595203688116, 168.8985996022931602, -25.00000000000003197 ) ) ;
#424 = DIRECTION ( 'NONE',  ( -0.000000000000000000, -1.000000000000000000, -0.000000000000000000 ) ) ;
#425 = CARTESIAN_POINT ( 'NONE',  ( 15.00000000000000000, 10.00000000000000000, -25.00000000000000000 ) ) ;
#426 = VECTOR ( 'NONE', #46, 1000.000000000000114 ) ;
#427 = DIRECTION ( 'NONE',  ( 1.000000000000000000, 0.000000000000000000, 0.000000000000000000 ) ) ;
#428 = PERSON_AND_ORGANIZATION ( #624, #641 ) ;
#429 = CARTESIAN_POINT ( 'NONE',  ( 0.000000000000000000, 10.00000000000000000, -50.00000000000000000 ) ) ;
#430 = VERTEX_POINT ( 'NONE', #592 ) ;
#431 = VECTOR ( 'NONE', #92, 1000.000000000000114 ) ;
#432 = PERSON_AND_ORGANIZATION ( #624, #641 ) ;
#433 = DIRECTION ( 'NONE',  ( 0.000000000000000000, 0.000000000000000000, -1.000000000000000000 ) ) ;
#434 = ADVANCED_FACE ( 'NONE', ( #523 ), #775, .T. ) ;
#435 = VERTEX_POINT ( 'NONE', #131 ) ;
#436 = PERSON_AND_ORGANIZATION ( #624, #641 ) ;
#437 = CARTESIAN_POINT ( 'NONE',  ( 0.000000000000000000, 10.00000000000000000, -50.00000000000000000 ) ) ;
#438 = AXIS2_PLACEMENT_3D ( 'NONE', #476, #409, #760 ) ;
#439 = ORIENTED_EDGE ( 'NONE', *, *, #359, .F. ) ;
#440 = CARTESIAN_POINT ( 'NONE',  ( 3.857919237662788864E-16, 10.00000000000000711, -20.00000000000000000 ) ) ;
#441 = EDGE_LOOP ( 'NONE', ( #678, #914, #290, #448 ) ) ;
#442 = EDGE_CURVE ( 'NONE', #100, #665, #312, .T. ) ;
#443 = CIRCLE ( 'NONE', #617, 5.999999999999989342 ) ;
#444 = DIRECTION ( 'NONE',  ( 0.9917305794448422196, 0.1283372813877461383, -0.000000000000000000 ) ) ;
#445 = ORIENTED_EDGE ( 'NONE', *, *, #619, .T. ) ;
#446 = CARTESIAN_POINT ( 'NONE',  ( 145.6266721873247718, 181.9778363545373452, -25.00000000000003197 ) ) ;
#447 = DIRECTION ( 'NONE',  ( -0.1283372813877478869, 0.9917305794448419975, 0.000000000000000000 ) ) ;
#448 = ORIENTED_EDGE ( 'NONE', *, *, #580, .F. ) ;
#449 = CARTESIAN_POINT ( 'NONE',  ( -23.84296906626012813, 184.2473307216648095, 0.000000000000000000 ) ) ;
#450 = DIRECTION ( 'NONE',  ( 0.9917305794448422196, 0.1283372813877468044, -0.000000000000000000 ) ) ;
#451 = VECTOR ( 'NONE', #216, 1000.000000000000000 ) ;
#452 = ADVANCED_FACE ( 'NONE', ( #783 ), #344, .F. ) ;
#453 = VERTEX_POINT ( 'NONE', #53 ) ;
#454 = DIRECTION ( 'NONE',  ( 0.000000000000000000, -1.000000000000000000, 0.000000000000000000 ) ) ;
#455 = APPROVAL ( #164, 'æœª' ) ;
#456 = VECTOR ( 'NONE', #729, 1000.000000000000114 ) ;
#457 = ADVANCED_BREP_SHAPE_REPRESENTATION ( '\X2\5e955ea7652f67b6\X0\', ( #806, #121 ), #725 ) ;
#458 = EDGE_CURVE ( 'NONE', #714, #175, #72, .T. ) ;
#459 = DIRECTION ( 'NONE',  ( 0.1283372813877462493, -0.9917305794448422196, 0.000000000000000000 ) ) ;
#460 = ORIENTED_EDGE ( 'NONE', *, *, #601, .T. ) ;
#461 = CARTESIAN_POINT ( 'NONE',  ( 15.00000000000000000, 10.00000000000000000, -21.00000000000000000 ) ) ;
#462 = EDGE_CURVE ( 'NONE', #259, #488, #274, .T. ) ;
#463 = FACE_OUTER_BOUND ( 'NONE', #186, .T. ) ;
#464 = VECTOR ( 'NONE', #116, 1000.000000000000000 ) ;
#465 = FACE_OUTER_BOUND ( 'NONE', #417, .T. ) ;
#466 = CYLINDRICAL_SURFACE ( 'NONE', #143, 3.999999999999993339 ) ;
#467 = AXIS2_PLACEMENT_3D ( 'NONE', #263, #545, #271 ) ;
#468 = ORIENTED_EDGE ( 'NONE', *, *, #605, .T. ) ;
#469 = EDGE_LOOP ( 'NONE', ( #120, #769, #381, #577, #721, #550, #859, #689 ) ) ;
#470 = VERTEX_POINT ( 'NONE', #489 ) ;
#471 = CARTESIAN_POINT ( 'NONE',  ( 15.00000000000000000, 10.00000000000000000, -21.00000000000000000 ) ) ;
#472 = CIRCLE ( 'NONE', #237, 9.000000000000010658 ) ;
#473 = VERTEX_POINT ( 'NONE', #563 ) ;
#474 = ORIENTED_EDGE ( 'NONE', *, *, #500, .T. ) ;
#475 = DIRECTION ( 'NONE',  ( 1.000000000000000000, 0.000000000000000000, 0.000000000000000000 ) ) ;
#476 = CARTESIAN_POINT ( 'NONE',  ( 160.2809239878791061, 177.8241748172967505, -25.00000000000003197 ) ) ;
#477 = VERTEX_POINT ( 'NONE', #280 ) ;
#478 = LINE ( 'NONE', #51, #898 ) ;
#479 = CARTESIAN_POINT ( 'NONE',  ( 188.0486453004648979, 10.00000000000000000, 0.000000000000000000 ) ) ;
#480 = VECTOR ( 'NONE', #831, 1000.000000000000000 ) ;
#481 = EDGE_CURVE ( 'NONE', #188, #388, #779, .T. ) ;
#482 = DIRECTION ( 'NONE',  ( 0.000000000000000000, 0.000000000000000000, 1.000000000000000000 ) ) ;
#483 = VERTEX_POINT ( 'NONE', #848 ) ;
#484 = CARTESIAN_POINT ( 'NONE',  ( 15.00000000000000000, 10.00000000000000000, -29.00000000000000000 ) ) ;
#485 = CARTESIAN_POINT ( 'NONE',  ( 0.000000000000000000, 0.000000000000000000, 0.000000000000000000 ) ) ;
#486 = DIRECTION ( 'NONE',  ( 0.000000000000000000, 0.000000000000000000, 1.000000000000000000 ) ) ;
#487 = VECTOR ( 'NONE', #109, 1000.000000000000000 ) ;
#488 = VERTEX_POINT ( 'NONE', #841 ) ;
#489 = CARTESIAN_POINT ( 'NONE',  ( 15.00000000000000000, 0.000000000000000000, -21.00000000000000000 ) ) ;
#490 = CARTESIAN_POINT ( 'NONE',  ( 176.3068522947273209, 22.81541235342620766, -20.00000000000000000 ) ) ;
#491 = CC_DESIGN_APPROVAL ( #744, ( #372 ) ) ;
#492 = ORIENTED_EDGE ( 'NONE', *, *, #505, .F. ) ;
#493 = ADVANCED_FACE ( 'NONE', ( #705, #638 ), #215, .T. ) ;
#494 = LINE ( 'NONE', #921, #96 ) ;
#495 = FACE_OUTER_BOUND ( 'NONE', #402, .T. ) ;
#496 = ORIENTED_EDGE ( 'NONE', *, *, #811, .T. ) ;
#497 = COORDINATED_UNIVERSAL_TIME_OFFSET ( 8, 0, .AHEAD. ) ;
#498 = CIRCLE ( 'NONE', #575, 8.999999999999996447 ) ;
#499 = AXIS2_PLACEMENT_3D ( 'NONE', #621, #823, #63 ) ;
#500 = EDGE_CURVE ( 'NONE', #100, #607, #494, .T. ) ;
#501 = DIRECTION ( 'NONE',  ( -0.000000000000000000, -1.000000000000000000, -0.000000000000000000 ) ) ;
#502 = ORIENTED_EDGE ( 'NONE', *, *, #43, .F. ) ;
#503 = FACE_OUTER_BOUND ( 'NONE', #469, .T. ) ;
#504 = PERSON_AND_ORGANIZATION ( #624, #641 ) ;
#505 = EDGE_CURVE ( 'NONE', #895, #188, #58, .T. ) ;
#506 = VERTEX_POINT ( 'NONE', #212 ) ;
#507 = PERSON_AND_ORGANIZATION ( #624, #641 ) ;
#508 = CARTESIAN_POINT ( 'NONE',  ( 162.3811890229156916, 208.3461158889685123, -50.00000000000000711 ) ) ;
#509 = EDGE_CURVE ( 'NONE', #477, #388, #141, .T. ) ;
#510 = VECTOR ( 'NONE', #765, 1000.000000000000000 ) ;
#511 = ORIENTED_EDGE ( 'NONE', *, *, #505, .T. ) ;
#512 = AXIS2_PLACEMENT_3D ( 'NONE', #261, #542, #899 ) ;
#513 = FACE_OUTER_BOUND ( 'NONE', #211, .T. ) ;
#514 = ORIENTED_EDGE ( 'NONE', *, *, #204, .T. ) ;
#515 = ADVANCED_FACE ( 'NONE', ( #137 ), #64, .F. ) ;
#516 = DIRECTION ( 'NONE',  ( 1.000000000000000000, 0.000000000000000000, -0.000000000000000000 ) ) ;
#517 = VECTOR ( 'NONE', #728, 999.9999999999998863 ) ;
#518 = DIRECTION ( 'NONE',  ( 0.1283372813877478869, -0.9917305794448419975, 0.000000000000000000 ) ) ;
#519 = CARTESIAN_POINT ( 'NONE',  ( 167.9811608711438851, 118.3203400506062053, -25.00000000000002487 ) ) ;
#520 = ORIENTED_EDGE ( 'NONE', *, *, #842, .F. ) ;
#521 = LOCAL_TIME ( 18, 10, 19.00000000000000000, #10 ) ;
#522 = CARTESIAN_POINT ( 'NONE',  ( 160.2809239878791061, 177.8241748172967505, -25.00000000000003197 ) ) ;
#523 = FACE_OUTER_BOUND ( 'NONE', #13, .T. ) ;
#524 = EDGE_CURVE ( 'NONE', #473, #342, #572, .T. ) ;
#525 = PRODUCT_DEFINITION ( 'æœ', '', #571, #622 ) ;
#526 = LINE ( 'NONE', #807, #248 ) ;
#527 = FACE_OUTER_BOUND ( 'NONE', #691, .T. ) ;
#528 = ORIENTED_EDGE ( 'NONE', *, *, #36, .F. ) ;
#529 = DIRECTION ( 'NONE',  ( 0.000000000000000000, 1.000000000000000000, -0.000000000000000000 ) ) ;
#530 = VECTOR ( 'NONE', #574, 1000.000000000000000 ) ;
#531 = AXIS2_PLACEMENT_3D ( 'NONE', #699, #295, #285 ) ;
#532 = LINE ( 'NONE', #258, #541 ) ;
#533 = ORIENTED_EDGE ( 'NONE', *, *, #257, .T. ) ;
#534 = DIRECTION ( 'NONE',  ( 0.1283372813877481922, -0.9917305794448418865, 0.000000000000000000 ) ) ;
#535 = EDGE_LOOP ( 'NONE', ( #902, #18, #136, #511, #502, #528, #103, #556 ) ) ;
#536 = DIRECTION ( 'NONE',  ( -1.000000000000000000, 0.000000000000000000, 0.000000000000000000 ) ) ;
#537 = ORIENTED_EDGE ( 'NONE', *, *, #318, .F. ) ;
#538 = EDGE_LOOP ( 'NONE', ( #838, #671, #596, #670 ) ) ;
#539 = ORIENTED_EDGE ( 'NONE', *, *, #296, .T. ) ;
#540 = CARTESIAN_POINT ( 'NONE',  ( 0.000000000000000000, 10.00000000000000000, 0.000000000000000000 ) ) ;
#541 = VECTOR ( 'NONE', #812, 1000.000000000000000 ) ;
#542 = DIRECTION ( 'NONE',  ( -0.9917305794448422196, -0.1283372813877468044, 0.000000000000000000 ) ) ;
#543 = DIRECTION ( 'NONE',  ( -0.000000000000000000, -1.000000000000000000, -0.000000000000000000 ) ) ;
#544 = VECTOR ( 'NONE', #284, 1000.000000000000000 ) ;
#545 = DIRECTION ( 'NONE',  ( 0.000000000000000000, -1.000000000000000000, 0.000000000000000000 ) ) ;
#546 = VERTEX_POINT ( 'NONE', #138 ) ;
#547 = DIRECTION ( 'NONE',  ( 0.000000000000000000, 1.000000000000000000, -0.000000000000000000 ) ) ;
#548 = CYLINDRICAL_SURFACE ( 'NONE', #349, 5.999999999999989342 ) ;
#549 = AXIS2_PLACEMENT_3D ( 'NONE', #11, #2, #300 ) ;
#550 = ORIENTED_EDGE ( 'NONE', *, *, #458, .T. ) ;
#551 = ORIENTED_EDGE ( 'NONE', *, *, #185, .F. ) ;
#552 = DIRECTION ( 'NONE',  ( 1.000000000000000000, 0.000000000000000000, 0.000000000000000000 ) ) ;
#553 = CARTESIAN_POINT ( 'NONE',  ( 350.0000000000000000, 10.00000000000000000, -50.00000000000000000 ) ) ;
#554 = EDGE_CURVE ( 'NONE', #129, #404, #897, .T. ) ;
#555 = CYLINDRICAL_SURFACE ( 'NONE', #1, 9.000000000000010658 ) ;
#556 = ORIENTED_EDGE ( 'NONE', *, *, #253, .F. ) ;
#557 = LINE ( 'NONE', #484, #869 ) ;
#558 = DIRECTION ( 'NONE',  ( 0.000000000000000000, 0.000000000000000000, -1.000000000000000000 ) ) ;
#559 = CARTESIAN_POINT ( 'NONE',  ( 15.00000000000000000, 10.00000000000000000, -25.00000000000000000 ) ) ;
#560 = AXIS2_PLACEMENT_3D ( 'NONE', #612, #837, #416 ) ;
#561 = ORIENTED_EDGE ( 'NONE', *, *, #584, .F. ) ;
#562 = CARTESIAN_POINT ( 'NONE',  ( 164.0142385533645211, 117.8069909250552314, -25.00000000000002487 ) ) ;
#563 = CARTESIAN_POINT ( 'NONE',  ( 334.9999999999999432, 10.00000000000000000, -28.99999999999999289 ) ) ;
#564 = LINE ( 'NONE', #490, #810 ) ;
#565 = VECTOR ( 'NONE', #78, 1000.000000000000000 ) ;
#566 = EDGE_CURVE ( 'NONE', #375, #283, #59, .T. ) ;
#567 = ORIENTED_EDGE ( 'NONE', *, *, #126, .F. ) ;
#568 = DIRECTION ( 'NONE',  ( -0.000000000000000000, -0.000000000000000000, 1.000000000000000000 ) ) ;
#569 = DATE_TIME_ROLE ( 'classification_date' ) ;
#570 = DIRECTION ( 'NONE',  ( 0.000000000000000000, 1.000000000000000000, 0.000000000000000000 ) ) ;
#571 = PRODUCT_DEFINITION_FORMATION_WITH_SPECIFIED_SOURCE ( 'ä»', '', #337, .NOT_KNOWN. ) ;
#572 = LINE ( 'NONE', #851, #4 ) ;
#573 = COORDINATED_UNIVERSAL_TIME_OFFSET ( 8, 0, .AHEAD. ) ;
#574 = DIRECTION ( 'NONE',  ( -0.000000000000000000, -1.000000000000000000, -0.000000000000000000 ) ) ;
#575 = AXIS2_PLACEMENT_3D ( 'NONE', #288, #772, #707 ) ;
#576 = LINE ( 'NONE', #377, #904 ) ;
#577 = ORIENTED_EDGE ( 'NONE', *, *, #766, .F. ) ;
#578 = VECTOR ( 'NONE', #568, 1000.000000000000000 ) ;
#579 = CARTESIAN_POINT ( 'NONE',  ( 334.9999999999999432, 0.000000000000000000, -28.99999999999999289 ) ) ;
#580 = EDGE_CURVE ( 'NONE', #470, #9, #885, .T. ) ;
#581 = CC_DESIGN_DATE_AND_TIME_ASSIGNMENT ( #710, #651, ( #525 ) ) ;
#582 = ORIENTED_EDGE ( 'NONE', *, *, #442, .T. ) ;
#583 = FACE_BOUND ( 'NONE', #397, .T. ) ;
#584 = EDGE_CURVE ( 'NONE', #435, #199, #498, .T. ) ;
#585 = DIRECTION ( 'NONE',  ( 0.1283372813877464713, -0.9917305794448422196, 0.000000000000000000 ) ) ;
#586 = ORIENTED_EDGE ( 'NONE', *, *, #318, .T. ) ;
#587 = CARTESIAN_POINT ( 'NONE',  ( 170.8178678598847284, 65.23172081241051501, -20.00000000000000000 ) ) ;
#588 = DIRECTION ( 'NONE',  ( 0.9917305794448421086, 0.1283372813877467489, -0.000000000000000000 ) ) ;
#589 = EDGE_LOOP ( 'NONE', ( #60, #207 ) ) ;
#590 = DIRECTION ( 'NONE',  ( 0.1283372813877481922, -0.9917305794448418865, 0.000000000000000000 ) ) ;
#591 = CIRCLE ( 'NONE', #223, 5.999999999999989342 ) ;
#592 = CARTESIAN_POINT ( 'NONE',  ( 133.0000000000000000, 10.00000000000000178, -30.00000000000000355 ) ) ;
#593 = LINE ( 'NONE', #332, #464 ) ;
#594 = ORIENTED_EDGE ( 'NONE', *, *, #850, .T. ) ;
#595 = CARTESIAN_POINT ( 'NONE',  ( 0.000000000000000000, 10.00000000000000000, -50.00000000000000000 ) ) ;
#596 = ORIENTED_EDGE ( 'NONE', *, *, #105, .F. ) ;
#597 = CIRCLE ( 'NONE', #438, 9.000000000000010658 ) ;
#598 = DIRECTION ( 'NONE',  ( -0.9917305794448422196, -0.1283372813877468044, 0.000000000000000000 ) ) ;
#599 = ORIENTED_EDGE ( 'NONE', *, *, #856, .F. ) ;
#600 = CARTESIAN_POINT ( 'NONE',  ( 186.2241580891756314, 24.09878516730349673, -50.00000000000000711 ) ) ;
#601 = EDGE_CURVE ( 'NONE', #396, #342, #220, .T. ) ;
#602 = CARTESIAN_POINT ( 'NONE',  ( 155.1589661376100082, 186.2364009067493669, -25.00000000000003197 ) ) ;
#603 = CARTESIAN_POINT ( 'NONE',  ( 160.2809239878791061, 177.8241748172967505, -25.00000000000003197 ) ) ;
#604 = CC_DESIGN_SECURITY_CLASSIFICATION ( #372, ( #571 ) ) ;
#605 = EDGE_CURVE ( 'NONE', #488, #158, #213, .T. ) ;
#606 = DIRECTION ( 'NONE',  ( -0.1283372813877475815, 0.9917305794448421086, 0.000000000000000000 ) ) ;
#607 = VERTEX_POINT ( 'NONE', #713 ) ;
#608 = EDGE_LOOP ( 'NONE', ( #278, #700, #740, #325 ) ) ;
#609 = CARTESIAN_POINT ( 'NONE',  ( 167.9811608711438851, 118.3203400506062053, -25.00000000000002487 ) ) ;
#610 = DIRECTION ( 'NONE',  ( -0.1283372813877481922, 0.9917305794448418865, 0.000000000000000000 ) ) ;
#611 = AXIS2_PLACEMENT_3D ( 'NONE', #65, #570, #486 ) ;
#612 = CARTESIAN_POINT ( 'NONE',  ( 166.2313074645481095, 178.5941985056232113, -25.00000000000003197 ) ) ;
#613 = ORIENTED_EDGE ( 'NONE', *, *, #165, .F. ) ;
#614 = VERTEX_POINT ( 'NONE', #640 ) ;
#615 = ORIENTED_EDGE ( 'NONE', *, *, #168, .F. ) ;
#616 = CARTESIAN_POINT ( 'NONE',  ( 177.9652615596935163, 10.00000000000000178, -30.00000000000000355 ) ) ;
#617 = AXIS2_PLACEMENT_3D ( 'NONE', #522, #652, #590 ) ;
#618 =( NAMED_UNIT ( * ) SI_UNIT ( $, .STERADIAN. ) SOLID_ANGLE_UNIT ( ) );
#619 = EDGE_CURVE ( 'NONE', #803, #354, #47, .T. ) ;
#620 = EDGE_LOOP ( 'NONE', ( #193, #630, #350 ) ) ;
#621 = CARTESIAN_POINT ( 'NONE',  ( 167.9811608711438851, 118.3203400506062053, -25.00000000000002487 ) ) ;
#622 = DESIGN_CONTEXT ( 'detailed design', #30, 'design' ) ;
#623 = CARTESIAN_POINT ( 'NONE',  ( 167.9811608711438851, 118.3203400506061911, -25.00000000000002487 ) ) ;
#624 = PERSON ( 'æœª', 'æœª', 'æœª', ('æœª'), ('æœª'), ('æœª') ) ;
#625 = CARTESIAN_POINT ( 'NONE',  ( 334.9999999999999432, 10.00000000000000000, -21.00000000000000711 ) ) ;
#626 = ORIENTED_EDGE ( 'NONE', *, *, #326, .F. ) ;
#627 = CARTESIAN_POINT ( 'NONE',  ( 0.000000000000000000, 0.000000000000000000, -29.99999999999998934 ) ) ;
#628 = CARTESIAN_POINT ( 'NONE',  ( 334.9999999999999432, 0.000000000000000000, -25.00000000000000000 ) ) ;
#629 = EDGE_LOOP ( 'NONE', ( #676, #351, #660, #371 ) ) ;
#630 = ORIENTED_EDGE ( 'NONE', *, *, #645, .F. ) ;
#631 = CARTESIAN_POINT ( 'NONE',  ( 162.3811890229156916, 208.3461158889685123, 0.000000000000000000 ) ) ;
#632 = DIRECTION ( 'NONE',  ( 0.000000000000000000, 0.000000000000000000, -1.000000000000000000 ) ) ;
#633 = DIRECTION ( 'NONE',  ( 0.000000000000000000, 0.000000000000000000, -1.000000000000000000 ) ) ;
#634 = ADVANCED_FACE ( 'NONE', ( #495 ), #419, .F. ) ;
#635 = AXIS2_PLACEMENT_3D ( 'NONE', #732, #855, #805 ) ;
#636 = ORIENTED_EDGE ( 'NONE', *, *, #524, .T. ) ;
#637 = PERSON_AND_ORGANIZATION_ROLE ( 'design_owner' ) ;
#638 = FACE_BOUND ( 'NONE', #589, .T. ) ;
#639 = APPROVAL_ROLE ( '' ) ;
#640 = CARTESIAN_POINT ( 'NONE',  ( 0.000000000000000000, 0.000000000000000000, -50.00000000000000000 ) ) ;
#641 = ORGANIZATION ( 'æœª', 'æœª', '' ) ;
#642 = EDGE_LOOP ( 'NONE', ( #790, #520 ) ) ;
#643 = APPROVAL_STATUS ( 'not_yet_approved' ) ;
#644 = CARTESIAN_POINT ( 'NONE',  ( -23.84296906626012813, 184.2473307216648095, -50.00000000000000711 ) ) ;
#645 = EDGE_CURVE ( 'NONE', #175, #128, #564, .T. ) ;
#646 = CARTESIAN_POINT ( 'NONE',  ( 152.4638832284672390, 207.0627430750910207, -50.00000000000000711 ) ) ;
#647 = ORIENTED_EDGE ( 'NONE', *, *, #821, .T. ) ;
#648 = LINE ( 'NONE', #440, #565 ) ;
#649 = ADVANCED_FACE ( 'NONE', ( #142 ), #780, .F. ) ;
#650 = EDGE_LOOP ( 'NONE', ( #615, #70, #313, #883, #5, #468, #696, #891 ) ) ;
#651 = DATE_TIME_ROLE ( 'creation_date' ) ;
#652 = DIRECTION ( 'NONE',  ( 0.9917305794448422196, 0.1283372813877468044, -0.000000000000000000 ) ) ;
#653 = CARTESIAN_POINT ( 'NONE',  ( 188.0486453004648979, 10.00000000000000178, -50.00000000000000711 ) ) ;
#654 = EDGE_CURVE ( 'NONE', #259, #614, #918, .T. ) ;
#655 = ORIENTED_EDGE ( 'NONE', *, *, #105, .T. ) ;
#656 = DIRECTION ( 'NONE',  ( 0.000000000000000000, 0.000000000000000000, 1.000000000000000000 ) ) ;
#657 = CARTESIAN_POINT ( 'NONE',  ( 334.9999999999999432, 0.000000000000000000, -21.00000000000000711 ) ) ;
#658 = AXIS2_PLACEMENT_3D ( 'NONE', #603, #820, #123 ) ;
#659 = ADVANCED_FACE ( 'NONE', ( #852 ), #275, .F. ) ;
#660 = ORIENTED_EDGE ( 'NONE', *, *, #234, .T. ) ;
#661 = DIRECTION ( 'NONE',  ( -1.000000000000000000, -0.000000000000000000, -0.000000000000000000 ) ) ;
#662 = AXIS2_PLACEMENT_3D ( 'NONE', #870, #529, #314 ) ;
#663 = ORIENTED_EDGE ( 'NONE', *, *, #500, .F. ) ;
#664 = CARTESIAN_POINT ( 'NONE',  ( 161.4359595203688116, 168.8985996022931602, -25.00000000000003197 ) ) ;
#665 = VERTEX_POINT ( 'NONE', #345 ) ;
#666 = AXIS2_PLACEMENT_3D ( 'NONE', #55, #205, #482 ) ;
#667 = FACE_OUTER_BOUND ( 'NONE', #608, .T. ) ;
#668 = EDGE_CURVE ( 'NONE', #128, #158, #593, .T. ) ;
#669 = CC_DESIGN_PERSON_AND_ORGANIZATION_ASSIGNMENT ( #727, #227, ( #525 ) ) ;
#670 = ORIENTED_EDGE ( 'NONE', *, *, #524, .F. ) ;
#671 = ORIENTED_EDGE ( 'NONE', *, *, #690, .T. ) ;
#672 = VECTOR ( 'NONE', #789, 1000.000000000000000 ) ;
#673 = ADVANCED_FACE ( 'NONE', ( #203 ), #399, .F. ) ;
#674 = DIRECTION ( 'NONE',  ( 0.5649661830468869494, 0.8251140600022711658, -0.000000000000000000 ) ) ;
#675 = VERTEX_POINT ( 'NONE', #479 ) ;
#676 = ORIENTED_EDGE ( 'NONE', *, *, #682, .F. ) ;
#677 = LOCAL_TIME ( 18, 10, 19.00000000000000000, #497 ) ;
#678 = ORIENTED_EDGE ( 'NONE', *, *, #49, .F. ) ;
#679 = LINE ( 'NONE', #471, #781 ) ;
#680 = EDGE_CURVE ( 'NONE', #665, #546, #526, .T. ) ;
#681 = LINE ( 'NONE', #625, #282 ) ;
#682 = EDGE_CURVE ( 'NONE', #453, #329, #174, .T. ) ;
#683 = DIRECTION ( 'NONE',  ( -0.000000000000000000, -1.000000000000000000, -0.000000000000000000 ) ) ;
#684 = EDGE_LOOP ( 'NONE', ( #360, #410, #795, #384 ) ) ;
#685 = PLANE ( 'NONE',  #467 ) ;
#686 = VERTEX_POINT ( 'NONE', #315 ) ;
#687 = CARTESIAN_POINT ( 'NONE',  ( 334.9999999999999432, 0.000000000000000000, -25.00000000000000000 ) ) ;
#688 = CARTESIAN_POINT ( 'NONE',  ( 350.0000000000000000, 10.00000000000000000, 0.000000000000000000 ) ) ;
#689 = ORIENTED_EDGE ( 'NONE', *, *, #668, .T. ) ;
#690 = EDGE_CURVE ( 'NONE', #412, #396, #681, .T. ) ;
#691 = EDGE_LOOP ( 'NONE', ( #114, #777, #808, #594 ) ) ;
#692 = CARTESIAN_POINT ( 'NONE',  ( 162.3811890229156916, 208.3461158889685123, -50.00000000000000711 ) ) ;
#693 = DIRECTION ( 'NONE',  ( -0.1283372813877481922, 0.9917305794448418865, 0.000000000000000000 ) ) ;
#694 = DIRECTION ( 'NONE',  ( 1.000000000000000000, 0.000000000000000000, 0.000000000000000000 ) ) ;
#695 = ORIENTED_EDGE ( 'NONE', *, *, #27, .F. ) ;
#696 = ORIENTED_EDGE ( 'NONE', *, *, #668, .F. ) ;
#697 = FACE_OUTER_BOUND ( 'NONE', #833, .T. ) ;
#698 = CARTESIAN_POINT ( 'NONE',  ( 170.8178678598847284, 65.23172081241052922, -50.00000000000000711 ) ) ;
#699 = CARTESIAN_POINT ( 'NONE',  ( 154.0969327589160400, 116.5236181111777398, -25.00000000000002487 ) ) ;
#700 = ORIENTED_EDGE ( 'NONE', *, *, #370, .F. ) ;
#701 = DIRECTION ( 'NONE',  ( -0.000000000000000000, -1.000000000000000000, -0.000000000000000000 ) ) ;
#702 = DIRECTION ( 'NONE',  ( -0.000000000000000000, -1.000000000000000000, -0.000000000000000000 ) ) ;
#703 = CIRCLE ( 'NONE', #824, 3.999999999999993339 ) ;
#704 = ORIENTED_EDGE ( 'NONE', *, *, #718, .T. ) ;
#705 = FACE_OUTER_BOUND ( 'NONE', #907, .T. ) ;
#706 = DATE_AND_TIME ( #857, #291 ) ;
#707 = DIRECTION ( 'NONE',  ( 0.1283372813877464713, -0.9917305794448422196, 0.000000000000000000 ) ) ;
#708 = AXIS2_PLACEMENT_3D ( 'NONE', #222, #373, #792 ) ;
#709 = ORIENTED_EDGE ( 'NONE', *, *, #919, .F. ) ;
#710 = DATE_AND_TIME ( #863, #241 ) ;
#711 = CARTESIAN_POINT ( 'NONE',  ( 0.000000000000000000, 10.00000000000000000, 0.000000000000000000 ) ) ;
#712 = CALENDAR_DATE ( 2024, 8, 10 ) ;
#713 = CARTESIAN_POINT ( 'NONE',  ( 174.7015680361393777, 113.1399802622636201, -25.00000000000002487 ) ) ;
#714 = VERTEX_POINT ( 'NONE', #133 ) ;
#715 = CYLINDRICAL_SURFACE ( 'NONE', #753, 6.000000000000002665 ) ;
#716 = AXIS2_PLACEMENT_3D ( 'NONE', #178, #324, #459 ) ;
#717 = ORIENTED_EDGE ( 'NONE', *, *, #481, .T. ) ;
#718 = EDGE_CURVE ( 'NONE', #74, #321, #62, .T. ) ;
#719 = FACE_OUTER_BOUND ( 'NONE', #878, .T. ) ;
#720 = AXIS2_PLACEMENT_3D ( 'NONE', #376, #166, #32 ) ;
#721 = ORIENTED_EDGE ( 'NONE', *, *, #724, .F. ) ;
#722 = APPROVAL_ROLE ( '' ) ;
#723 = CYLINDRICAL_SURFACE ( 'NONE', #708, 4.000000000000000000 ) ;
#724 = EDGE_CURVE ( 'NONE', #714, #56, #825, .T. ) ;
#725 =( GEOMETRIC_REPRESENTATION_CONTEXT ( 3 ) GLOBAL_UNCERTAINTY_ASSIGNED_CONTEXT ( ( #160 ) ) GLOBAL_UNIT_ASSIGNED_CONTEXT ( ( #106, #408, #618 ) ) REPRESENTATION_CONTEXT ( 'NONE', 'WORKASPACE' ) );
#726 = ORIENTED_EDGE ( 'NONE', *, *, #296, .F. ) ;
#727 = PERSON_AND_ORGANIZATION ( #624, #641 ) ;
#728 = DIRECTION ( 'NONE',  ( 0.9917305794448423306, 0.1283372813877461660, -0.000000000000000000 ) ) ;
#729 = DIRECTION ( 'NONE',  ( -0.1283372813877467489, 0.9917305794448421086, 0.000000000000000000 ) ) ;
#730 = ORIENTED_EDGE ( 'NONE', *, *, #724, .T. ) ;
#731 = CARTESIAN_POINT ( 'NONE',  ( 177.9652615596935448, 10.00000000000000000, 0.000000000000000000 ) ) ;
#732 = CARTESIAN_POINT ( 'NONE',  ( -23.84296906626012813, 184.2473307216648095, -50.00000000000000711 ) ) ;
#733 = VECTOR ( 'NONE', #558, 1000.000000000000000 ) ;
#734 = VECTOR ( 'NONE', #273, 1000.000000000000000 ) ;
#735 = ADVANCED_FACE ( 'NONE', ( #754 ), #548, .F. ) ;
#736 = CARTESIAN_POINT ( 'NONE',  ( 147.1667195639777503, 170.0770694011992532, -25.00000000000003197 ) ) ;
#737 = ORIENTED_EDGE ( 'NONE', *, *, #462, .F. ) ;
#738 = LINE ( 'NONE', #252, #162 ) ;
#739 = DIRECTION ( 'NONE',  ( 0.000000000000000000, 1.000000000000000000, 0.000000000000000000 ) ) ;
#740 = ORIENTED_EDGE ( 'NONE', *, *, #566, .F. ) ;
#741 = EDGE_CURVE ( 'NONE', #321, #74, #320, .T. ) ;
#742 = APPROVAL ( #643, 'æœª' ) ;
#743 = PLANE ( 'NONE',  #720 ) ;
#744 = APPROVAL ( #3, 'æœª' ) ;
#745 = CARTESIAN_POINT ( 'NONE',  ( 0.000000000000000000, 0.000000000000000000, 0.000000000000000000 ) ) ;
#746 = EDGE_CURVE ( 'NONE', #430, #714, #867, .T. ) ;
#747 = LINE ( 'NONE', #389, #846 ) ;
#748 = VECTOR ( 'NONE', #475, 1000.000000000000000 ) ;
#749 = DIRECTION ( 'NONE',  ( 0.000000000000000000, 0.000000000000000000, 1.000000000000000000 ) ) ;
#750 = ORIENTED_EDGE ( 'NONE', *, *, #393, .T. ) ;
#751 = ORIENTED_EDGE ( 'NONE', *, *, #159, .T. ) ;
#752 = FACE_OUTER_BOUND ( 'NONE', #316, .T. ) ;
#753 = AXIS2_PLACEMENT_3D ( 'NONE', #875, #444, #447 ) ;
#754 = FACE_OUTER_BOUND ( 'NONE', #889, .T. ) ;
#755 = CARTESIAN_POINT ( 'NONE',  ( 0.000000000000000000, 0.000000000000000000, 0.000000000000000000 ) ) ;
#756 = CYLINDRICAL_SURFACE ( 'NONE', #658, 9.000000000000010658 ) ;
#757 = APPROVAL_PERSON_ORGANIZATION ( #362, #742, #722 ) ;
#758 = ORIENTED_EDGE ( 'NONE', *, *, #49, .T. ) ;
#759 = DIRECTION ( 'NONE',  ( 0.000000000000000000, 0.000000000000000000, -1.000000000000000000 ) ) ;
#760 = DIRECTION ( 'NONE',  ( 0.1283372813877462493, -0.9917305794448422196, 0.000000000000000000 ) ) ;
#761 = ORIENTED_EDGE ( 'NONE', *, *, #811, .F. ) ;
#762 = VECTOR ( 'NONE', #25, 999.9999999999998863 ) ;
#763 = CARTESIAN_POINT ( 'NONE',  ( 169.1361964036336190, 109.3947648356026292, -25.00000000000002487 ) ) ;
#764 = DIRECTION ( 'NONE',  ( 0.9917305794448423306, 0.1283372813877461660, -0.000000000000000000 ) ) ;
#765 = DIRECTION ( 'NONE',  ( -0.000000000000000000, -0.000000000000000000, 1.000000000000000000 ) ) ;
#766 = EDGE_CURVE ( 'NONE', #56, #153, #243, .T. ) ;
#767 = AXIS2_PLACEMENT_3D ( 'NONE', #628, #353, #433 ) ;
#768 = CARTESIAN_POINT ( 'NONE',  ( 160.2809239878791061, 177.8241748172967505, -25.00000000000003197 ) ) ;
#769 = ORIENTED_EDGE ( 'NONE', *, *, #264, .F. ) ;
#770 = CYLINDRICAL_SURFACE ( 'NONE', #66, 8.999999999999996447 ) ;
#771 = CARTESIAN_POINT ( 'NONE',  ( 160.2809239878791061, 177.8241748172967505, -25.00000000000003197 ) ) ;
#772 = DIRECTION ( 'NONE',  ( -0.9917305794448422196, -0.1283372813877468044, 0.000000000000000000 ) ) ;
#773 = EDGE_CURVE ( 'NONE', #453, #686, #183, .T. ) ;
#774 = EDGE_LOOP ( 'NONE', ( #496, #758, #626, #788 ) ) ;
#775 = PLANE ( 'NONE',  #52 ) ;
#776 = DIRECTION ( 'NONE',  ( 0.1283372813877471097, -0.9917305794448421086, 0.000000000000000000 ) ) ;
#777 = ORIENTED_EDGE ( 'NONE', *, *, #370, .T. ) ;
#778 = ADVANCED_FACE ( 'NONE', ( #249 ), #466, .F. ) ;
#779 = LINE ( 'NONE', #218, #733 ) ;
#780 = CYLINDRICAL_SURFACE ( 'NONE', #407, 4.000000000000000000 ) ;
#781 = VECTOR ( 'NONE', #701, 1000.000000000000000 ) ;
#782 = ORIENTED_EDGE ( 'NONE', *, *, #75, .T. ) ;
#783 = FACE_OUTER_BOUND ( 'NONE', #535, .T. ) ;
#784 = PERSON_AND_ORGANIZATION_ROLE ( 'classification_officer' ) ;
#785 = DIRECTION ( 'NONE',  ( 0.000000000000000000, 0.000000000000000000, 1.000000000000000000 ) ) ;
#786 = EDGE_CURVE ( 'NONE', #80, #675, #532, .T. ) ;
#787 = AXIS2_PLACEMENT_3D ( 'NONE', #711, #414, #148 ) ;
#788 = ORIENTED_EDGE ( 'NONE', *, *, #89, .F. ) ;
#789 = DIRECTION ( 'NONE',  ( 0.000000000000000000, 0.000000000000000000, 1.000000000000000000 ) ) ;
#790 = ORIENTED_EDGE ( 'NONE', *, *, #204, .F. ) ;
#791 = PERSON_AND_ORGANIZATION_ROLE ( 'design_supplier' ) ;
#792 = DIRECTION ( 'NONE',  ( 0.000000000000000000, 0.000000000000000000, -1.000000000000000000 ) ) ;
#793 = AXIS2_PLACEMENT_3D ( 'NONE', #900, #294, #340 ) ;
#794 = ADVANCED_FACE ( 'NONE', ( #527, #391 ), #33, .F. ) ;
#795 = ORIENTED_EDGE ( 'NONE', *, *, #139, .T. ) ;
#796 = FACE_OUTER_BOUND ( 'NONE', #441, .T. ) ;
#797 = AXIS2_PLACEMENT_3D ( 'NONE', #382, #255, #816 ) ;
#798 = EDGE_LOOP ( 'NONE', ( #217, #537 ) ) ;
#799 = EDGE_CURVE ( 'NONE', #354, #803, #364, .T. ) ;
#800 = LINE ( 'NONE', #446, #517 ) ;
#801 = DIRECTION ( 'NONE',  ( -0.1283372813877467489, 0.9917305794448421086, 0.000000000000000000 ) ) ;
#802 = CARTESIAN_POINT ( 'NONE',  ( 146.3966958756512611, 176.0274528778683134, -25.00000000000003197 ) ) ;
#803 = VERTEX_POINT ( 'NONE', #602 ) ;
#804 = CARTESIAN_POINT ( 'NONE',  ( 165.4612837762216202, 184.5445819822922715, -25.00000000000003197 ) ) ;
#805 = DIRECTION ( 'NONE',  ( 0.9917305794448421086, 0.1283372813877471652, 0.000000000000000000 ) ) ;
#806 = MANIFOLD_SOLID_BREP ( 'ÇÐ³ý-À­Éì4', #308 ) ;
#807 = CARTESIAN_POINT ( 'NONE',  ( 153.3269090705895508, 122.4740015878468000, -25.00000000000002487 ) ) ;
#808 = ORIENTED_EDGE ( 'NONE', *, *, #36, .T. ) ;
#809 = FACE_OUTER_BOUND ( 'NONE', #238, .T. ) ;
#810 = VECTOR ( 'NONE', #776, 1000.000000000000114 ) ;
#811 = EDGE_CURVE ( 'NONE', #404, #129, #206, .T. ) ;
#812 = DIRECTION ( 'NONE',  ( 0.1283372813877461938, -0.9917305794448422196, 0.000000000000000000 ) ) ;
#813 = EDGE_LOOP ( 'NONE', ( #567, #561 ) ) ;
#814 = DIRECTION ( 'NONE',  ( 0.1283372813877464713, -0.9917305794448422196, 0.000000000000000000 ) ) ;
#815 = CARTESIAN_POINT ( 'NONE',  ( 177.9652615596935163, 10.00000000000000178, -30.00000000000000355 ) ) ;
#816 = DIRECTION ( 'NONE',  ( -0.1283372813877475815, 0.9917305794448421086, 0.000000000000000000 ) ) ;
#817 = CARTESIAN_POINT ( 'NONE',  ( 0.000000000000000000, 0.000000000000000000, 0.000000000000000000 ) ) ;
#818 = DIRECTION ( 'NONE',  ( 0.000000000000000000, -1.000000000000000000, 0.000000000000000000 ) ) ;
#819 = ORIENTED_EDGE ( 'NONE', *, *, #168, .T. ) ;
#820 = DIRECTION ( 'NONE',  ( -0.9917305794448421086, -0.1283372813877467766, -0.000000000000000000 ) ) ;
#821 = EDGE_CURVE ( 'NONE', #56, #430, #102, .T. ) ;
#822 = ORIENTED_EDGE ( 'NONE', *, *, #88, .F. ) ;
#823 = DIRECTION ( 'NONE',  ( -0.9917305794448421086, -0.1283372813877467766, -0.000000000000000000 ) ) ;
#824 = AXIS2_PLACEMENT_3D ( 'NONE', #687, #547, #829 ) ;
#825 = LINE ( 'NONE', #268, #365 ) ;
#826 = CARTESIAN_POINT ( 'NONE',  ( 15.00000000000000000, 10.00000000000000000, -25.00000000000000000 ) ) ;
#827 = FACE_BOUND ( 'NONE', #149, .T. ) ;
#828 = ORIENTED_EDGE ( 'NONE', *, *, #580, .T. ) ;
#829 = DIRECTION ( 'NONE',  ( 0.000000000000000000, 0.000000000000000000, -1.000000000000000000 ) ) ;
#830 = AXIS2_PLACEMENT_3D ( 'NONE', #623, #356, #287 ) ;
#831 = DIRECTION ( 'NONE',  ( 0.000000000000000000, 0.000000000000000000, -1.000000000000000000 ) ) ;
#832 = ORIENTED_EDGE ( 'NONE', *, *, #741, .T. ) ;
#833 = EDGE_LOOP ( 'NONE', ( #726, #334, #346, #862 ) ) ;
#834 = CARTESIAN_POINT ( 'NONE',  ( 350.0000000000000000, 10.00000000000000000, 0.000000000000000000 ) ) ;
#835 = DIRECTION ( 'NONE',  ( -1.000000000000000000, 0.000000000000000000, 0.000000000000000000 ) ) ;
#836 = DIRECTION ( 'NONE',  ( 0.000000000000000000, 0.000000000000000000, -1.000000000000000000 ) ) ;
#837 = DIRECTION ( 'NONE',  ( 0.9917305794448423306, 0.1283372813877461660, 0.000000000000000000 ) ) ;
#838 = ORIENTED_EDGE ( 'NONE', *, *, #196, .T. ) ;
#839 = CIRCLE ( 'NONE', #560, 5.999999999999989342 ) ;
#840 = VERTEX_POINT ( 'NONE', #395 ) ;
#841 = CARTESIAN_POINT ( 'NONE',  ( 0.000000000000000000, 10.00000000000000000, 0.000000000000000000 ) ) ;
#842 = EDGE_CURVE ( 'NONE', #607, #546, #155, .T. ) ;
#843 = EDGE_LOOP ( 'NONE', ( #194, #911, #737, #266 ) ) ;
#844 = DIRECTION ( 'NONE',  ( -0.9917305794448422196, -0.1283372813877468044, 0.000000000000000000 ) ) ;
#845 = DIRECTION ( 'NONE',  ( 0.1283372813877467766, -0.9917305794448421086, 0.000000000000000000 ) ) ;
#846 = VECTOR ( 'NONE', #656, 1000.000000000000000 ) ;
#847 = ORIENTED_EDGE ( 'NONE', *, *, #17, .T. ) ;
#848 = CARTESIAN_POINT ( 'NONE',  ( 152.4638832284672390, 207.0627430750910207, -50.00000000000000711 ) ) ;
#849 = EDGE_CURVE ( 'NONE', #488, #895, #892, .T. ) ;
#850 = EDGE_CURVE ( 'NONE', #113, #477, #333, .T. ) ;
#851 = CARTESIAN_POINT ( 'NONE',  ( 334.9999999999999432, 10.00000000000000000, -28.99999999999999289 ) ) ;
#852 = FACE_OUTER_BOUND ( 'NONE', #538, .T. ) ;
#853 = VECTOR ( 'NONE', #348, 1000.000000000000000 ) ;
#854 = CALENDAR_DATE ( 2024, 8, 10 ) ;
#855 = DIRECTION ( 'NONE',  ( 0.1283372813877471652, -0.9917305794448421086, 0.000000000000000000 ) ) ;
#856 = EDGE_CURVE ( 'NONE', #153, #259, #48, .T. ) ;
#857 = CALENDAR_DATE ( 2024, 8, 10 ) ;
#858 = CIRCLE ( 'NONE', #872, 6.000000000000002665 ) ;
#859 = ORIENTED_EDGE ( 'NONE', *, *, #645, .T. ) ;
#860 = CARTESIAN_POINT ( 'NONE',  ( 167.9811608711438851, 118.3203400506061911, -25.00000000000002487 ) ) ;
#861 = EDGE_CURVE ( 'NONE', #250, #329, #839, .T. ) ;
#862 = ORIENTED_EDGE ( 'NONE', *, *, #126, .T. ) ;
#863 = CALENDAR_DATE ( 2024, 8, 10 ) ;
#864 = PLANE ( 'NONE',  #22 ) ;
#865 = VECTOR ( 'NONE', #181, 1000.000000000000000 ) ;
#866 = EDGE_CURVE ( 'NONE', #45, #840, #597, .T. ) ;
#867 = LINE ( 'NONE', #94, #231 ) ;
#868 = EDGE_LOOP ( 'NONE', ( #655, #460 ) ) ;
#869 = VECTOR ( 'NONE', #331, 1000.000000000000000 ) ;
#870 = CARTESIAN_POINT ( 'NONE',  ( 334.9999999999999432, 10.00000000000000000, -25.00000000000000000 ) ) ;
#871 = CARTESIAN_POINT ( 'NONE',  ( 152.4638832284672390, 207.0627430750910207, 0.000000000000000000 ) ) ;
#872 = AXIS2_PLACEMENT_3D ( 'NONE', #860, #450, #518 ) ;
#873 = ORIENTED_EDGE ( 'NONE', *, *, #680, .F. ) ;
#874 = PLANE ( 'NONE',  #383 ) ;
#875 = CARTESIAN_POINT ( 'NONE',  ( 154.0969327589160400, 116.5236181111777398, -25.00000000000002487 ) ) ;
#876 = CC_DESIGN_APPROVAL ( #455, ( #571 ) ) ;
#877 = CARTESIAN_POINT ( 'NONE',  ( 146.3966958756512611, 176.0274528778683134, -25.00000000000003197 ) ) ;
#878 = EDGE_LOOP ( 'NONE', ( #23, #474, #906, #873 ) ) ;
#879 = ADVANCED_FACE ( 'NONE', ( #127 ), #905, .F. ) ;
#880 = CARTESIAN_POINT ( 'NONE',  ( 350.0000000000000000, 0.000000000000000000, 0.000000000000000000 ) ) ;
#881 = ADVANCED_FACE ( 'NONE', ( #277 ), #555, .F. ) ;
#882 = VECTOR ( 'NONE', #543, 1000.000000000000000 ) ;
#883 = ORIENTED_EDGE ( 'NONE', *, *, #856, .T. ) ;
#884 = CARTESIAN_POINT ( 'NONE',  ( 165.1692740858542550, 108.8814157100516553, -25.00000000000002487 ) ) ;
#885 = CIRCLE ( 'NONE', #611, 4.000000000000000000 ) ;
#886 = ORIENTED_EDGE ( 'NONE', *, *, #554, .F. ) ;
#887 = DIRECTION ( 'NONE',  ( 0.1283372813877461938, -0.9917305794448422196, 0.000000000000000000 ) ) ;
#888 = ADVANCED_FACE ( 'NONE', ( #465 ), #37, .F. ) ;
#889 = EDGE_LOOP ( 'NONE', ( #923, #330, #586, #61 ) ) ;
#890 = APPROVAL_PERSON_ORGANIZATION ( #428, #744, #639 ) ;
#891 = ORIENTED_EDGE ( 'NONE', *, *, #286, .T. ) ;
#892 = LINE ( 'NONE', #262, #882 ) ;
#893 = ORIENTED_EDGE ( 'NONE', *, *, #509, .F. ) ;
#894 = CARTESIAN_POINT ( 'NONE',  ( 15.00000000000000000, 0.000000000000000000, -29.00000000000000000 ) ) ;
#895 = VERTEX_POINT ( 'NONE', #745 ) ;
#896 = CARTESIAN_POINT ( 'NONE',  ( 168.7511845594703743, 112.3699565739371451, -25.00000000000002487 ) ) ;
#897 = CIRCLE ( 'NONE', #411, 4.000000000000000000 ) ;
#898 = VECTOR ( 'NONE', #343, 999.9999999999998863 ) ;
#899 = DIRECTION ( 'NONE',  ( 0.1283372813877464713, -0.9917305794448422196, 0.000000000000000000 ) ) ;
#900 = CARTESIAN_POINT ( 'NONE',  ( 85.88654178720832988, -58.80761708082213346, -50.00000000000000711 ) ) ;
#901 = ORIENTED_EDGE ( 'NONE', *, *, #601, .F. ) ;
#902 = ORIENTED_EDGE ( 'NONE', *, *, #110, .F. ) ;
#903 = LINE ( 'NONE', #195, #426 ) ;
#904 = VECTOR ( 'NONE', #303, 1000.000000000000000 ) ;
#905 = PLANE ( 'NONE',  #666 ) ;
#906 = ORIENTED_EDGE ( 'NONE', *, *, #842, .T. ) ;
#907 = EDGE_LOOP ( 'NONE', ( #328, #751 ) ) ;
#908 = LINE ( 'NONE', #834, #734 ) ;
#909 = CC_DESIGN_PERSON_AND_ORGANIZATION_ASSIGNMENT ( #504, #784, ( #372 ) ) ;
#910 = VECTOR ( 'NONE', #536, 1000.000000000000000 ) ;
#911 = ORIENTED_EDGE ( 'NONE', *, *, #849, .F. ) ;
#912 = DIRECTION ( 'NONE',  ( -0.000000000000000000, 0.000000000000000000, 1.000000000000000000 ) ) ;
#913 = CARTESIAN_POINT ( 'NONE',  ( 0.000000000000000000, 10.00000000000000000, 0.000000000000000000 ) ) ;
#914 = ORIENTED_EDGE ( 'NONE', *, *, #554, .T. ) ;
#915 = ORIENTED_EDGE ( 'NONE', *, *, #690, .F. ) ;
#916 = DATE_AND_TIME ( #712, #400 ) ;
#917 = VECTOR ( 'NONE', #236, 1000.000000000000000 ) ;
#918 = LINE ( 'NONE', #429, #530 ) ;
#919 = EDGE_CURVE ( 'NONE', #614, #895, #269, .T. ) ;
#920 = ORIENTED_EDGE ( 'NONE', *, *, #458, .F. ) ;
#921 = CARTESIAN_POINT ( 'NONE',  ( 154.8669564472425293, 110.5732346345086938, -25.00000000000002487 ) ) ;
#922 = CARTESIAN_POINT ( 'NONE',  ( 156.3140016700997421, 177.3108256917457766, -25.00000000000003197 ) ) ;
#923 = ORIENTED_EDGE ( 'NONE', *, *, #773, .F. ) ;
#924 = DATE_AND_TIME ( #854, #521 ) ;
ENDSEC;
END-ISO-10303-21;
