ISO-10303-21;
HEADER;
FILE_DESCRIPTION (( 'STEP AP203' ),
    '1' );
FILE_NAME ('µ×°å.STEP',
    '2024-10-22T03:31:10',
    ( '' ),
    ( '' ),
    'SwSTEP 2.0',
    'SolidWorks 2024',
    '' );
FILE_SCHEMA (( 'CONFIG_CONTROL_DESIGN' ));
ENDSEC;

DATA;
#1 = EDGE_CURVE ( 'NONE', #890, #921, #654, .T. ) ;
#2 = CARTESIAN_POINT ( 'NONE',  ( -17.50000000000000000, 9.000000000000000000, 85.49999999999998579 ) ) ;
#3 = DIRECTION ( 'NONE',  ( -1.000000000000000000, -0.000000000000000000, 8.326672684688675286E-17 ) ) ;
#4 = FACE_OUTER_BOUND ( 'NONE', #380, .T. ) ;
#5 = CARTESIAN_POINT ( 'NONE',  ( 0.000000000000000000, 0.000000000000000000, 0.000000000000000000 ) ) ;
#6 = CIRCLE ( 'NONE', #579, 8.000000000000007105 ) ;
#7 = EDGE_CURVE ( 'NONE', #742, #33, #551, .T. ) ;
#8 = PLANE ( 'NONE',  #25 ) ;
#9 = PLANE ( 'NONE',  #207 ) ;
#10 = CARTESIAN_POINT ( 'NONE',  ( -50.00000000000000000, 25.00000000000000000, 125.0000000000000000 ) ) ;
#11 = CIRCLE ( 'NONE', #510, 12.49999999999999645 ) ;
#12 = PRODUCT_DEFINITION_SHAPE ( 'NONE', 'NONE',  #306 ) ;
#13 = DIRECTION ( 'NONE',  ( 0.000000000000000000, 0.000000000000000000, -1.000000000000000000 ) ) ;
#14 = LINE ( 'NONE', #175, #360 ) ;
#15 = ORIENTED_EDGE ( 'NONE', *, *, #909, .F. ) ;
#16 = CIRCLE ( 'NONE', #138, 4.500000000000003553 ) ;
#17 = DIRECTION ( 'NONE',  ( 1.000000000000000000, -0.000000000000000000, 0.000000000000000000 ) ) ;
#18 = EDGE_CURVE ( 'NONE', #390, #422, #224, .T. ) ;
#19 = CARTESIAN_POINT ( 'NONE',  ( -17.50000000000000000, 9.000000000000000000, 90.00000000000000000 ) ) ;
#20 = PERSON ( 'æœª', 'æœª', 'æœª', ('æœª'), ('æœª'), ('æœª') ) ;
#21 = ADVANCED_FACE ( 'NONE', ( #617 ), #342, .T. ) ;
#22 = ORIENTED_EDGE ( 'NONE', *, *, #926, .T. ) ;
#23 = VECTOR ( 'NONE', #17, 1000.000000000000000 ) ;
#24 = CARTESIAN_POINT ( 'NONE',  ( -2.081668171172168513E-14, 12.50000000000000711, -112.0000000000000000 ) ) ;
#25 = AXIS2_PLACEMENT_3D ( 'NONE', #290, #641, #577 ) ;
#26 = EDGE_LOOP ( 'NONE', ( #394, #567, #660, #751 ) ) ;
#27 = AXIS2_PLACEMENT_3D ( 'NONE', #755, #29, #108 ) ;
#28 = LINE ( 'NONE', #233, #326 ) ;
#29 = DIRECTION ( 'NONE',  ( -1.000000000000000000, -0.000000000000000000, 8.326672684688675286E-17 ) ) ;
#30 = DATE_AND_TIME ( #669, #72 ) ;
#31 = VERTEX_POINT ( 'NONE', #554 ) ;
#32 = EDGE_CURVE ( 'NONE', #517, #315, #100, .T. ) ;
#33 = VERTEX_POINT ( 'NONE', #203 ) ;
#34 = DIRECTION ( 'NONE',  ( 0.000000000000000000, -1.000000000000000000, 0.000000000000000000 ) ) ;
#35 = DIRECTION ( 'NONE',  ( 0.000000000000000000, 1.000000000000000000, 0.000000000000000000 ) ) ;
#36 = ORIENTED_EDGE ( 'NONE', *, *, #829, .F. ) ;
#37 = COORDINATED_UNIVERSAL_TIME_OFFSET ( 8, 0, .AHEAD. ) ;
#38 = EDGE_LOOP ( 'NONE', ( #54, #484 ) ) ;
#39 = VECTOR ( 'NONE', #425, 1000.000000000000000 ) ;
#40 = ADVANCED_FACE ( 'NONE', ( #486 ), #504, .T. ) ;
#41 = CARTESIAN_POINT ( 'NONE',  ( -17.50000000000000000, 9.000000000000000000, 98.00000000000000000 ) ) ;
#42 = ORIENTED_EDGE ( 'NONE', *, *, #536, .T. ) ;
#43 = AXIS2_PLACEMENT_3D ( 'NONE', #321, #101, #303 ) ;
#44 = ORIENTED_EDGE ( 'NONE', *, *, #91, .T. ) ;
#45 = AXIS2_PLACEMENT_3D ( 'NONE', #895, #680, #234 ) ;
#46 = FACE_BOUND ( 'NONE', #444, .T. ) ;
#47 = ORIENTED_EDGE ( 'NONE', *, *, #773, .T. ) ;
#48 = CARTESIAN_POINT ( 'NONE',  ( -17.50000000000002132, 25.00000000000000000, 77.49999999999998579 ) ) ;
#49 = VERTEX_POINT ( 'NONE', #569 ) ;
#50 = ORIENTED_EDGE ( 'NONE', *, *, #288, .T. ) ;
#51 = LINE ( 'NONE', #485, #705 ) ;
#52 = VECTOR ( 'NONE', #873, 1000.000000000000000 ) ;
#53 = ORIENTED_EDGE ( 'NONE', *, *, #803, .T. ) ;
#54 = ORIENTED_EDGE ( 'NONE', *, *, #259, .T. ) ;
#55 = DIRECTION ( 'NONE',  ( -1.000000000000000000, 0.000000000000000000, 8.326672684688675286E-17 ) ) ;
#56 = AXIS2_PLACEMENT_3D ( 'NONE', #844, #55, #906 ) ;
#57 = ORIENTED_EDGE ( 'NONE', *, *, #58, .T. ) ;
#58 = EDGE_CURVE ( 'NONE', #633, #104, #489, .T. ) ;
#59 = ORIENTED_EDGE ( 'NONE', *, *, #773, .F. ) ;
#60 = CC_DESIGN_DATE_AND_TIME_ASSIGNMENT ( #555, #544, ( #306 ) ) ;
#61 = CIRCLE ( 'NONE', #347, 4.500000000000003553 ) ;
#62 = CARTESIAN_POINT ( 'NONE',  ( -17.50000000000000000, 9.000000000000000000, -90.00000000000000000 ) ) ;
#63 = DIRECTION ( 'NONE',  ( 0.000000000000000000, 1.000000000000000000, -0.000000000000000000 ) ) ;
#64 = ORIENTED_EDGE ( 'NONE', *, *, #440, .F. ) ;
#65 = ORIENTED_EDGE ( 'NONE', *, *, #357, .T. ) ;
#66 = CARTESIAN_POINT ( 'NONE',  ( -17.50000000000000000, 14.00000000000000178, 90.00000000000000000 ) ) ;
#67 = LINE ( 'NONE', #369, #487 ) ;
#68 = CARTESIAN_POINT ( 'NONE',  ( -17.50000000000000000, 14.00000000000000178, 90.00000000000000000 ) ) ;
#69 = COORDINATED_UNIVERSAL_TIME_OFFSET ( 8, 0, .AHEAD. ) ;
#70 = CIRCLE ( 'NONE', #566, 12.49999999999999645 ) ;
#71 = AXIS2_PLACEMENT_3D ( 'NONE', #337, #774, #845 ) ;
#72 = LOCAL_TIME ( 11, 31, 10.00000000000000000, #383 ) ;
#73 = ORIENTED_EDGE ( 'NONE', *, *, #229, .F. ) ;
#74 = DIRECTION ( 'NONE',  ( 0.000000000000000000, 0.000000000000000000, -1.000000000000000000 ) ) ;
#75 = ADVANCED_FACE ( 'NONE', ( #356 ), #796, .F. ) ;
#76 = CARTESIAN_POINT ( 'NONE',  ( 50.00000000000000000, 25.00000000000000000, -119.9999999999999716 ) ) ;
#77 = AXIS2_PLACEMENT_3D ( 'NONE', #157, #870, #280 ) ;
#78 = DIRECTION ( 'NONE',  ( 0.000000000000000000, -1.000000000000000000, 0.000000000000000000 ) ) ;
#79 = CARTESIAN_POINT ( 'NONE',  ( -17.50000000000000000, 14.00000000000000178, -85.49999999999998579 ) ) ;
#80 = DIRECTION ( 'NONE',  ( -0.000000000000000000, -1.000000000000000000, -0.000000000000000000 ) ) ;
#81 = APPROVAL ( #560, 'æœª' ) ;
#82 = DIRECTION ( 'NONE',  ( 0.000000000000000000, 0.000000000000000000, -1.000000000000000000 ) ) ;
#83 = CARTESIAN_POINT ( 'NONE',  ( 44.99999999999997158, 0.000000000000000000, 125.0000000000000000 ) ) ;
#84 = AXIS2_PLACEMENT_3D ( 'NONE', #294, #709, #726 ) ;
#85 = LOCAL_TIME ( 11, 31, 10.00000000000000000, #37 ) ;
#86 = VECTOR ( 'NONE', #935, 1000.000000000000000 ) ;
#87 = CIRCLE ( 'NONE', #927, 4.000000000000003553 ) ;
#88 = DIRECTION ( 'NONE',  ( -0.000000000000000000, 1.000000000000000000, -0.000000000000000000 ) ) ;
#89 = DIRECTION ( 'NONE',  ( -0.000000000000000000, -1.000000000000000000, -0.000000000000000000 ) ) ;
#90 = ORIENTED_EDGE ( 'NONE', *, *, #310, .T. ) ;
#91 = EDGE_CURVE ( 'NONE', #315, #122, #655, .T. ) ;
#92 = CARTESIAN_POINT ( 'NONE',  ( -50.00000000000001421, 0.000000000000000000, 4.163336342344338604E-15 ) ) ;
#93 = CC_DESIGN_PERSON_AND_ORGANIZATION_ASSIGNMENT ( #478, #409, ( #193 ) ) ;
#94 = CARTESIAN_POINT ( 'NONE',  ( -17.50000000000002132, 14.00000000000000178, -77.49999999999998579 ) ) ;
#95 = ORIENTED_EDGE ( 'NONE', *, *, #462, .T. ) ;
#96 = CYLINDRICAL_SURFACE ( 'NONE', #879, 12.49999999999999645 ) ;
#97 = LINE ( 'NONE', #531, #523 ) ;
#98 = EDGE_LOOP ( 'NONE', ( #552, #701 ) ) ;
#99 = APPROVAL_ROLE ( '' ) ;
#100 = CIRCLE ( 'NONE', #71, 8.000000000000007105 ) ;
#101 = DIRECTION ( 'NONE',  ( 0.000000000000000000, 1.000000000000000000, -0.000000000000000000 ) ) ;
#102 = CARTESIAN_POINT ( 'NONE',  ( -17.50000000000000000, 9.000000000000000000, -81.99999999999998579 ) ) ;
#103 = EDGE_CURVE ( 'NONE', #911, #449, #638, .T. ) ;
#104 = VERTEX_POINT ( 'NONE', #642 ) ;
#105 = AXIS2_PLACEMENT_3D ( 'NONE', #189, #127, #416 ) ;
#106 = VERTEX_POINT ( 'NONE', #786 ) ;
#107 = FACE_OUTER_BOUND ( 'NONE', #524, .T. ) ;
#108 = DIRECTION ( 'NONE',  ( 8.326672684688674053E-17, 0.000000000000000000, 1.000000000000000000 ) ) ;
#109 = ORIENTED_EDGE ( 'NONE', *, *, #803, .F. ) ;
#110 = EDGE_CURVE ( 'NONE', #742, #172, #801, .T. ) ;
#111 = ORIENTED_EDGE ( 'NONE', *, *, #231, .T. ) ;
#112 = DIRECTION ( 'NONE',  ( 0.000000000000000000, 0.000000000000000000, 1.000000000000000000 ) ) ;
#113 = CARTESIAN_POINT ( 'NONE',  ( -17.50000000000000000, 9.000000000000000000, -98.00000000000000000 ) ) ;
#114 = EDGE_LOOP ( 'NONE', ( #676, #42, #65, #928 ) ) ;
#115 = ORIENTED_EDGE ( 'NONE', *, *, #110, .T. ) ;
#116 = AXIS2_PLACEMENT_3D ( 'NONE', #251, #331, #540 ) ;
#117 = DIRECTION ( 'NONE',  ( 0.000000000000000000, 1.000000000000000000, 0.000000000000000000 ) ) ;
#118 = ORIENTED_EDGE ( 'NONE', *, *, #732, .F. ) ;
#119 = ORIENTED_EDGE ( 'NONE', *, *, #593, .T. ) ;
#120 = DIRECTION ( 'NONE',  ( -0.000000000000000000, 1.000000000000000000, -0.000000000000000000 ) ) ;
#121 = PRODUCT_RELATED_PRODUCT_CATEGORY ( 'detail', '', ( #159 ) ) ;
#122 = VERTEX_POINT ( 'NONE', #301 ) ;
#123 = ORIENTED_EDGE ( 'NONE', *, *, #745, .T. ) ;
#124 = DIRECTION ( 'NONE',  ( -0.000000000000000000, -1.000000000000000000, -0.000000000000000000 ) ) ;
#125 = CARTESIAN_POINT ( 'NONE',  ( -6.938893903907228378E-15, 12.50000000000000711, 112.0000000000000000 ) ) ;
#126 = ORIENTED_EDGE ( 'NONE', *, *, #144, .F. ) ;
#127 = DIRECTION ( 'NONE',  ( -0.000000000000000000, -1.000000000000000000, -0.000000000000000000 ) ) ;
#128 = AXIS2_PLACEMENT_3D ( 'NONE', #466, #758, #284 ) ;
#129 = ORIENTED_EDGE ( 'NONE', *, *, #325, .F. ) ;
#130 = DIRECTION ( 'NONE',  ( -1.000000000000000000, 0.000000000000000000, 8.326672684688675286E-17 ) ) ;
#131 = ADVANCED_FACE ( 'NONE', ( #439 ), #432, .F. ) ;
#132 = VERTEX_POINT ( 'NONE', #723 ) ;
#133 = CARTESIAN_POINT ( 'NONE',  ( -17.50000000000000000, 0.000000000000000000, 90.00000000000000000 ) ) ;
#134 = CARTESIAN_POINT ( 'NONE',  ( -6.938893903907228378E-15, 12.50000000000000711, 112.0000000000000000 ) ) ;
#135 = LINE ( 'NONE', #379, #556 ) ;
#136 = EDGE_LOOP ( 'NONE', ( #109, #897 ) ) ;
#137 = EDGE_CURVE ( 'NONE', #346, #335, #220, .T. ) ;
#138 = AXIS2_PLACEMENT_3D ( 'NONE', #929, #429, #352 ) ;
#139 = CARTESIAN_POINT ( 'NONE',  ( -50.00000000000000711, 12.50000000000000711, 108.0000000000000000 ) ) ;
#140 = PLANE ( 'NONE',  #639 ) ;
#141 = FACE_BOUND ( 'NONE', #454, .T. ) ;
#142 = PERSON_AND_ORGANIZATION ( #20, #491 ) ;
#143 = ORIENTED_EDGE ( 'NONE', *, *, #137, .T. ) ;
#144 = EDGE_CURVE ( 'NONE', #399, #343, #298, .T. ) ;
#145 = LINE ( 'NONE', #359, #217 ) ;
#146 = DIRECTION ( 'NONE',  ( -0.000000000000000000, -1.000000000000000000, 0.000000000000000000 ) ) ;
#147 = CARTESIAN_POINT ( 'NONE',  ( -2.081668171172168513E-14, 12.50000000000000711, -112.0000000000000000 ) ) ;
#148 = CIRCLE ( 'NONE', #84, 12.49999999999999645 ) ;
#149 = AXIS2_PLACEMENT_3D ( 'NONE', #578, #366, #862 ) ;
#150 = DIRECTION ( 'NONE',  ( -0.000000000000000000, 1.000000000000000000, -0.000000000000000000 ) ) ;
#151 = DIRECTION ( 'NONE',  ( -1.000000000000000000, 0.000000000000000000, 8.326672684688675286E-17 ) ) ;
#152 = FACE_OUTER_BOUND ( 'NONE', #837, .T. ) ;
#153 = EDGE_CURVE ( 'NONE', #921, #694, #215, .T. ) ;
#154 = AXIS2_PLACEMENT_3D ( 'NONE', #541, #702, #768 ) ;
#155 = FACE_BOUND ( 'NONE', #136, .T. ) ;
#156 = DIRECTION ( 'NONE',  ( 0.000000000000000000, 0.000000000000000000, 1.000000000000000000 ) ) ;
#157 = CARTESIAN_POINT ( 'NONE',  ( 45.00000000000000711, 25.00000000000000000, -120.0000000000000000 ) ) ;
#158 = PLANE ( 'NONE',  #684 ) ;
#159 = PRODUCT ( '\X2\5e95677f\X0\', '\X2\5e95677f\X0\', '', ( #585 ) ) ;
#160 = CYLINDRICAL_SURFACE ( 'NONE', #497, 4.000000000000003553 ) ;
#161 = ORIENTED_EDGE ( 'NONE', *, *, #787, .T. ) ;
#162 = AXIS2_PLACEMENT_3D ( 'NONE', #649, #3, #854 ) ;
#163 = ADVANCED_FACE ( 'NONE', ( #285, #141 ), #799, .T. ) ;
#164 = LOCAL_TIME ( 11, 31, 10.00000000000000000, #69 ) ;
#165 = CC_DESIGN_PERSON_AND_ORGANIZATION_ASSIGNMENT ( #693, #483, ( #193 ) ) ;
#166 = FACE_OUTER_BOUND ( 'NONE', #621, .T. ) ;
#167 = CARTESIAN_POINT ( 'NONE',  ( 50.00000000000000000, 0.000000000000000000, 119.9999999999999716 ) ) ;
#168 = ORIENTED_EDGE ( 'NONE', *, *, #182, .F. ) ;
#169 = AXIS2_PLACEMENT_3D ( 'NONE', #613, #375, #659 ) ;
#170 = DIRECTION ( 'NONE',  ( 0.000000000000000000, 0.000000000000000000, 1.000000000000000000 ) ) ;
#171 = LINE ( 'NONE', #453, #434 ) ;
#172 = VERTEX_POINT ( 'NONE', #83 ) ;
#173 = CARTESIAN_POINT ( 'NONE',  ( -17.50000000000000000, 9.000000000000000000, 90.00000000000000000 ) ) ;
#174 = ADVANCED_FACE ( 'NONE', ( #574 ), #160, .F. ) ;
#175 = CARTESIAN_POINT ( 'NONE',  ( 0.000000000000000000, 25.00000000000000000, 125.0000000000000000 ) ) ;
#176 = ORIENTED_EDGE ( 'NONE', *, *, #299, .F. ) ;
#177 = APPROVAL_DATE_TIME ( #908, #273 ) ;
#178 = VECTOR ( 'NONE', #218, 1000.000000000000000 ) ;
#179 = AXIS2_PLACEMENT_3D ( 'NONE', #421, #710, #766 ) ;
#180 = CARTESIAN_POINT ( 'NONE',  ( 44.99999999999997158, 0.000000000000000000, -125.0000000000000000 ) ) ;
#181 = DIRECTION ( 'NONE',  ( 0.000000000000000000, -1.000000000000000000, 0.000000000000000000 ) ) ;
#182 = EDGE_CURVE ( 'NONE', #904, #351, #931, .T. ) ;
#183 = VERTEX_POINT ( 'NONE', #223 ) ;
#184 = DIRECTION ( 'NONE',  ( 0.000000000000000000, 0.000000000000000000, -1.000000000000000000 ) ) ;
#185 = CARTESIAN_POINT ( 'NONE',  ( -17.50000000000002132, 14.00000000000000178, -102.4999999999999858 ) ) ;
#186 = EDGE_LOOP ( 'NONE', ( #73, #706 ) ) ;
#187 = APPROVAL_DATE_TIME ( #254, #81 ) ;
#188 = CIRCLE ( 'NONE', #304, 4.000000000000003553 ) ;
#189 = CARTESIAN_POINT ( 'NONE',  ( 45.00000000000000711, 25.00000000000000000, 120.0000000000000000 ) ) ;
#190 = DIRECTION ( 'NONE',  ( 0.000000000000000000, 1.000000000000000000, -0.000000000000000000 ) ) ;
#191 = ADVANCED_FACE ( 'NONE', ( #152 ), #350, .T. ) ;
#192 = ADVANCED_FACE ( 'NONE', ( #436, #4, #924 ), #889, .T. ) ;
#193 = PRODUCT_DEFINITION_FORMATION_WITH_SPECIFIED_SOURCE ( 'ä»', '', #159, .NOT_KNOWN. ) ;
#194 = CYLINDRICAL_SURFACE ( 'NONE', #468, 12.49999999999999645 ) ;
#195 = VERTEX_POINT ( 'NONE', #456 ) ;
#196 = ORIENTED_EDGE ( 'NONE', *, *, #91, .F. ) ;
#197 = CIRCLE ( 'NONE', #724, 4.000000000000003553 ) ;
#198 = DIRECTION ( 'NONE',  ( -0.000000000000000000, 1.000000000000000000, -0.000000000000000000 ) ) ;
#199 = ORIENTED_EDGE ( 'NONE', *, *, #481, .F. ) ;
#200 = EDGE_LOOP ( 'NONE', ( #802, #269, #760, #615 ) ) ;
#201 = DIRECTION ( 'NONE',  ( -0.000000000000000000, 1.000000000000000000, -0.000000000000000000 ) ) ;
#202 = ADVANCED_FACE ( 'NONE', ( #663 ), #591, .F. ) ;
#203 = CARTESIAN_POINT ( 'NONE',  ( 50.00000000000000000, 25.00000000000000000, 119.9999999999999716 ) ) ;
#204 = PERSON_AND_ORGANIZATION ( #20, #491 ) ;
#205 = ORIENTED_EDGE ( 'NONE', *, *, #636, .F. ) ;
#206 = CARTESIAN_POINT ( 'NONE',  ( -50.00000000000002132, 12.50000000000000711, -116.0000000000000000 ) ) ;
#207 = AXIS2_PLACEMENT_3D ( 'NONE', #438, #583, #499 ) ;
#208 = VERTEX_POINT ( 'NONE', #185 ) ;
#209 = EDGE_CURVE ( 'NONE', #911, #742, #14, .T. ) ;
#210 = AXIS2_PLACEMENT_3D ( 'NONE', #572, #794, #82 ) ;
#211 = EDGE_LOOP ( 'NONE', ( #788, #457 ) ) ;
#212 = LINE ( 'NONE', #498, #652 ) ;
#213 = CIRCLE ( 'NONE', #316, 8.000000000000007105 ) ;
#214 = DIRECTION ( 'NONE',  ( -1.000000000000000000, -0.000000000000000000, 8.326672684688675286E-17 ) ) ;
#215 = LINE ( 'NONE', #76, #448 ) ;
#216 = ORIENTED_EDGE ( 'NONE', *, *, #1, .F. ) ;
#217 = VECTOR ( 'NONE', #293, 1000.000000000000000 ) ;
#218 = DIRECTION ( 'NONE',  ( -0.000000000000000000, -1.000000000000000000, -0.000000000000000000 ) ) ;
#219 = CARTESIAN_POINT ( 'NONE',  ( -50.00000000000000711, 12.50000000000000711, 112.0000000000000000 ) ) ;
#220 = LINE ( 'NONE', #500, #52 ) ;
#221 = DIRECTION ( 'NONE',  ( 0.000000000000000000, 0.000000000000000000, 1.000000000000000000 ) ) ;
#222 = FACE_OUTER_BOUND ( 'NONE', #762, .T. ) ;
#223 = CARTESIAN_POINT ( 'NONE',  ( -2.048361480433413817E-14, 12.50000000000000711, -108.0000000000000000 ) ) ;
#224 = CIRCLE ( 'NONE', #719, 4.000000000000003553 ) ;
#225 = AXIS2_PLACEMENT_3D ( 'NONE', #133, #78, #74 ) ;
#226 = DIRECTION ( 'NONE',  ( -1.000000000000000000, 0.000000000000000000, -0.000000000000000000 ) ) ;
#227 = DIRECTION ( 'NONE',  ( 0.000000000000000000, -1.000000000000000000, 0.000000000000000000 ) ) ;
#228 = LINE ( 'NONE', #518, #445 ) ;
#229 = EDGE_CURVE ( 'NONE', #841, #195, #843, .T. ) ;
#230 = DIRECTION ( 'NONE',  ( -1.000000000000000000, -0.000000000000000000, 8.326672684688675286E-17 ) ) ;
#231 = EDGE_CURVE ( 'NONE', #106, #122, #809, .T. ) ;
#232 = EDGE_LOOP ( 'NONE', ( #496, #118, #123, #812 ) ) ;
#233 = CARTESIAN_POINT ( 'NONE',  ( 0.000000000000000000, 0.000000000000000000, -125.0000000000000000 ) ) ;
#234 = DIRECTION ( 'NONE',  ( 0.000000000000000000, 0.000000000000000000, 1.000000000000000000 ) ) ;
#235 = PERSON_AND_ORGANIZATION_ROLE ( 'creator' ) ;
#236 = ORIENTED_EDGE ( 'NONE', *, *, #536, .F. ) ;
#237 = CARTESIAN_POINT ( 'NONE',  ( -17.50000000000000000, 14.00000000000000178, 85.49999999999998579 ) ) ;
#238 = DIRECTION ( 'NONE',  ( 0.000000000000000000, 0.000000000000000000, 1.000000000000000000 ) ) ;
#239 = VERTEX_POINT ( 'NONE', #94 ) ;
#240 = EDGE_CURVE ( 'NONE', #561, #911, #97, .T. ) ;
#241 = CARTESIAN_POINT ( 'NONE',  ( -17.50000000000000000, 9.000000000000000000, 90.00000000000000000 ) ) ;
#242 = DIRECTION ( 'NONE',  ( 0.000000000000000000, -1.000000000000000000, 0.000000000000000000 ) ) ;
#243 = ORIENTED_EDGE ( 'NONE', *, *, #462, .F. ) ;
#244 = CC_DESIGN_PERSON_AND_ORGANIZATION_ASSIGNMENT ( #246, #235, ( #306 ) ) ;
#245 = CARTESIAN_POINT ( 'NONE',  ( -2.081668171172168513E-14, 12.50000000000000711, -112.0000000000000000 ) ) ;
#246 = PERSON_AND_ORGANIZATION ( #20, #491 ) ;
#247 = EDGE_LOOP ( 'NONE', ( #920, #44, #479, #64 ) ) ;
#248 = AXIS2_PLACEMENT_3D ( 'NONE', #66, #502, #789 ) ;
#249 = EDGE_LOOP ( 'NONE', ( #631, #851, #571, #276 ) ) ;
#250 = DIRECTION ( 'NONE',  ( 0.000000000000000000, 1.000000000000000000, -0.000000000000000000 ) ) ;
#251 = CARTESIAN_POINT ( 'NONE',  ( -17.50000000000000000, 9.000000000000000000, -90.00000000000000000 ) ) ;
#252 = DIRECTION ( 'NONE',  ( 1.000000000000000000, 0.000000000000000000, -8.326672684688675286E-17 ) ) ;
#253 = ORIENTED_EDGE ( 'NONE', *, *, #732, .T. ) ;
#254 = DATE_AND_TIME ( #622, #85 ) ;
#255 = CIRCLE ( 'NONE', #900, 5.000000000000004441 ) ;
#256 = CARTESIAN_POINT ( 'NONE',  ( -17.50000000000000000, 9.000000000000000000, -94.50000000000000000 ) ) ;
#257 = ADVANCED_FACE ( 'NONE', ( #322 ), #305, .F. ) ;
#258 = ORIENTED_EDGE ( 'NONE', *, *, #575, .T. ) ;
#259 = EDGE_CURVE ( 'NONE', #183, #289, #197, .T. ) ;
#260 = CARTESIAN_POINT ( 'NONE',  ( -17.50000000000002132, 14.00000000000000178, -89.99999999999998579 ) ) ;
#261 = ORIENTED_EDGE ( 'NONE', *, *, #344, .F. ) ;
#262 = EDGE_LOOP ( 'NONE', ( #168, #718, #899, #685 ) ) ;
#263 = SECURITY_CLASSIFICATION ( '', '', #917 ) ;
#264 = DIRECTION ( 'NONE',  ( -8.326672684688674053E-17, 0.000000000000000000, -1.000000000000000000 ) ) ;
#265 = ORIENTED_EDGE ( 'NONE', *, *, #182, .T. ) ;
#266 = EDGE_CURVE ( 'NONE', #561, #890, #135, .T. ) ;
#267 = EDGE_LOOP ( 'NONE', ( #712, #600, #15, #243 ) ) ;
#268 = CARTESIAN_POINT ( 'NONE',  ( -17.50000000000000000, 9.000000000000000000, -85.49999999999998579 ) ) ;
#269 = ORIENTED_EDGE ( 'NONE', *, *, #110, .F. ) ;
#270 = CALENDAR_DATE ( 2024, 22, 10 ) ;
#271 = ORIENTED_EDGE ( 'NONE', *, *, #153, .T. ) ;
#272 = DIRECTION ( 'NONE',  ( 0.000000000000000000, 1.000000000000000000, -0.000000000000000000 ) ) ;
#273 = APPROVAL ( #833, 'æœª' ) ;
#274 = ORIENTED_EDGE ( 'NONE', *, *, #815, .F. ) ;
#275 = PERSON_AND_ORGANIZATION ( #20, #491 ) ;
#276 = ORIENTED_EDGE ( 'NONE', *, *, #137, .F. ) ;
#277 = FACE_BOUND ( 'NONE', #211, .T. ) ;
#278 = CIRCLE ( 'NONE', #400, 12.49999999999999645 ) ;
#279 = CARTESIAN_POINT ( 'NONE',  ( -17.50000000000000000, 0.000000000000000000, 81.99999999999998579 ) ) ;
#280 = DIRECTION ( 'NONE',  ( 0.000000000000000000, 0.000000000000000000, -1.000000000000000000 ) ) ;
#281 = VERTEX_POINT ( 'NONE', #167 ) ;
#282 = CYLINDRICAL_SURFACE ( 'NONE', #735, 4.500000000000003553 ) ;
#283 = AXIS2_PLACEMENT_3D ( 'NONE', #695, #117, #840 ) ;
#284 = DIRECTION ( 'NONE',  ( 0.000000000000000000, 0.000000000000000000, 1.000000000000000000 ) ) ;
#285 = FACE_OUTER_BOUND ( 'NONE', #348, .T. ) ;
#286 = APPLICATION_PROTOCOL_DEFINITION ( 'international standard', 'config_control_design', 1994, #546 ) ;
#287 = ADVANCED_FACE ( 'NONE', ( #314 ), #807, .F. ) ;
#288 = EDGE_CURVE ( 'NONE', #678, #694, #255, .T. ) ;
#289 = VERTEX_POINT ( 'NONE', #886 ) ;
#290 = CARTESIAN_POINT ( 'NONE',  ( -50.00000000000001421, 25.00000000000000000, 4.163336342344338604E-15 ) ) ;
#291 = CARTESIAN_POINT ( 'NONE',  ( 50.00000000000000000, 25.00000000000000000, -119.9999999999999716 ) ) ;
#292 = DIRECTION ( 'NONE',  ( 0.000000000000000000, 0.000000000000000000, -1.000000000000000000 ) ) ;
#293 = DIRECTION ( 'NONE',  ( -0.000000000000000000, -1.000000000000000000, -0.000000000000000000 ) ) ;
#294 = CARTESIAN_POINT ( 'NONE',  ( -17.50000000000002132, 14.00000000000000178, -89.99999999999998579 ) ) ;
#295 = AXIS2_PLACEMENT_3D ( 'NONE', #880, #810, #170 ) ;
#296 = CARTESIAN_POINT ( 'NONE',  ( -17.50000000000000000, 9.000000000000000000, -81.99999999999998579 ) ) ;
#297 = DIRECTION ( 'NONE',  ( 0.000000000000000000, 0.000000000000000000, 1.000000000000000000 ) ) ;
#298 = CIRCLE ( 'NONE', #822, 4.500000000000003553 ) ;
#299 = EDGE_CURVE ( 'NONE', #823, #31, #11, .T. ) ;
#300 = LINE ( 'NONE', #872, #442 ) ;
#301 = CARTESIAN_POINT ( 'NONE',  ( -17.50000000000000000, 0.000000000000000000, -81.99999999999998579 ) ) ;
#302 = VECTOR ( 'NONE', #201, 1000.000000000000000 ) ;
#303 = DIRECTION ( 'NONE',  ( 0.000000000000000000, 0.000000000000000000, 1.000000000000000000 ) ) ;
#304 = AXIS2_PLACEMENT_3D ( 'NONE', #910, #562, #264 ) ;
#305 = CYLINDRICAL_SURFACE ( 'NONE', #603, 12.49999999999999645 ) ;
#306 = PRODUCT_DEFINITION ( 'æœ', '', #193, #850 ) ;
#307 = ORIENTED_EDGE ( 'NONE', *, *, #299, .T. ) ;
#308 = CARTESIAN_POINT ( 'NONE',  ( -50.00000000000002132, 0.000000000000000000, -125.0000000000000000 ) ) ;
#309 = DIRECTION ( 'NONE',  ( 0.000000000000000000, 0.000000000000000000, -1.000000000000000000 ) ) ;
#310 = EDGE_CURVE ( 'NONE', #289, #422, #171, .T. ) ;
#311 = ORIENTED_EDGE ( 'NONE', *, *, #229, .T. ) ;
#312 = VECTOR ( 'NONE', #818, 1000.000000000000000 ) ;
#313 = DIRECTION ( 'NONE',  ( 0.000000000000000000, 0.000000000000000000, 1.000000000000000000 ) ) ;
#314 = FACE_OUTER_BOUND ( 'NONE', #262, .T. ) ;
#315 = VERTEX_POINT ( 'NONE', #102 ) ;
#316 = AXIS2_PLACEMENT_3D ( 'NONE', #667, #242, #526 ) ;
#317 = ADVANCED_FACE ( 'NONE', ( #746 ), #382, .F. ) ;
#318 = DIRECTION ( 'NONE',  ( -0.000000000000000000, 1.000000000000000000, -0.000000000000000000 ) ) ;
#319 = DIRECTION ( 'NONE',  ( 0.000000000000000000, 0.000000000000000000, -1.000000000000000000 ) ) ;
#320 = ORIENTED_EDGE ( 'NONE', *, *, #32, .T. ) ;
#321 = CARTESIAN_POINT ( 'NONE',  ( -17.50000000000002132, 14.00000000000000178, -89.99999999999998579 ) ) ;
#322 = FACE_OUTER_BOUND ( 'NONE', #690, .T. ) ;
#323 = ORIENTED_EDGE ( 'NONE', *, *, #839, .F. ) ;
#324 = CIRCLE ( 'NONE', #898, 4.000000000000003553 ) ;
#325 = EDGE_CURVE ( 'NONE', #122, #106, #213, .T. ) ;
#326 = VECTOR ( 'NONE', #387, 1000.000000000000000 ) ;
#327 = DIRECTION ( 'NONE',  ( -0.000000000000000000, 1.000000000000000000, -0.000000000000000000 ) ) ;
#328 = ADVANCED_FACE ( 'NONE', ( #816 ), #608, .F. ) ;
#329 = EDGE_LOOP ( 'NONE', ( #932, #90, #703, #36 ) ) ;
#330 = EDGE_LOOP ( 'NONE', ( #417, #403 ) ) ;
#331 = DIRECTION ( 'NONE',  ( -0.000000000000000000, -1.000000000000000000, -0.000000000000000000 ) ) ;
#332 = PLANE ( 'NONE',  #538 ) ;
#333 = VERTEX_POINT ( 'NONE', #472 ) ;
#334 = PERSON_AND_ORGANIZATION ( #20, #491 ) ;
#335 = VERTEX_POINT ( 'NONE', #835 ) ;
#336 = FACE_OUTER_BOUND ( 'NONE', #501, .T. ) ;
#337 = CARTESIAN_POINT ( 'NONE',  ( -17.50000000000000000, 9.000000000000000000, -90.00000000000000000 ) ) ;
#338 = ADVANCED_FACE ( 'NONE', ( #336 ), #763, .T. ) ;
#339 = EDGE_LOOP ( 'NONE', ( #846, #176 ) ) ;
#340 = VECTOR ( 'NONE', #588, 1000.000000000000000 ) ;
#341 = CYLINDRICAL_SURFACE ( 'NONE', #813, 12.49999999999999645 ) ;
#342 = PLANE ( 'NONE',  #765 ) ;
#343 = VERTEX_POINT ( 'NONE', #256 ) ;
#344 = EDGE_CURVE ( 'NONE', #358, #333, #629, .T. ) ;
#345 = FACE_OUTER_BOUND ( 'NONE', #739, .T. ) ;
#346 = VERTEX_POINT ( 'NONE', #687 ) ;
#347 = AXIS2_PLACEMENT_3D ( 'NONE', #368, #780, #860 ) ;
#348 = EDGE_LOOP ( 'NONE', ( #320, #907 ) ) ;
#349 = CARTESIAN_POINT ( 'NONE',  ( -50.00000000000002132, 25.00000000000000000, -125.0000000000000000 ) ) ;
#350 = CYLINDRICAL_SURFACE ( 'NONE', #77, 5.000000000000004441 ) ;
#351 = VERTEX_POINT ( 'NONE', #411 ) ;
#352 = DIRECTION ( 'NONE',  ( 0.000000000000000000, 0.000000000000000000, -1.000000000000000000 ) ) ;
#353 = VECTOR ( 'NONE', #318, 1000.000000000000000 ) ;
#354 = ADVANCED_FACE ( 'NONE', ( #831 ), #776, .F. ) ;
#355 = CARTESIAN_POINT ( 'NONE',  ( 0.000000000000000000, 14.00000000000000178, 0.000000000000000000 ) ) ;
#356 = FACE_OUTER_BOUND ( 'NONE', #329, .T. ) ;
#357 = EDGE_CURVE ( 'NONE', #195, #841, #754, .T. ) ;
#358 = VERTEX_POINT ( 'NONE', #48 ) ;
#359 = CARTESIAN_POINT ( 'NONE',  ( 50.00000000000000000, 25.00000000000000000, 119.9999999999999716 ) ) ;
#360 = VECTOR ( 'NONE', #826, 1000.000000000000000 ) ;
#361 = DIRECTION ( 'NONE',  ( -0.000000000000000000, -1.000000000000000000, 0.000000000000000000 ) ) ;
#362 = DIRECTION ( 'NONE',  ( -1.000000000000000000, -0.000000000000000000, 8.326672684688675286E-17 ) ) ;
#363 = CARTESIAN_POINT ( 'NONE',  ( -6.938893903907228378E-15, 12.50000000000000711, 112.0000000000000000 ) ) ;
#364 = LINE ( 'NONE', #708, #661 ) ;
#365 = FACE_OUTER_BOUND ( 'NONE', #624, .T. ) ;
#366 = DIRECTION ( 'NONE',  ( 1.000000000000000000, 0.000000000000000000, 0.000000000000000000 ) ) ;
#367 = ADVANCED_FACE ( 'NONE', ( #46, #772 ), #332, .T. ) ;
#368 = CARTESIAN_POINT ( 'NONE',  ( -17.50000000000000000, 9.000000000000000000, -90.00000000000000000 ) ) ;
#369 = CARTESIAN_POINT ( 'NONE',  ( -2.048361480433413817E-14, 12.50000000000000711, -108.0000000000000000 ) ) ;
#370 = AXIS2_PLACEMENT_3D ( 'NONE', #892, #250, #112 ) ;
#371 = DIRECTION ( 'NONE',  ( 8.326672684688674053E-17, 0.000000000000000000, 1.000000000000000000 ) ) ;
#372 = AXIS2_PLACEMENT_3D ( 'NONE', #692, #190, #777 ) ;
#373 = AXIS2_PLACEMENT_3D ( 'NONE', #374, #658, #596 ) ;
#374 = CARTESIAN_POINT ( 'NONE',  ( 0.000000000000000000, 0.000000000000000000, 0.000000000000000000 ) ) ;
#375 = DIRECTION ( 'NONE',  ( -0.000000000000000000, -1.000000000000000000, -0.000000000000000000 ) ) ;
#376 = ORIENTED_EDGE ( 'NONE', *, *, #636, .T. ) ;
#377 = DIRECTION ( 'NONE',  ( 0.000000000000000000, -0.000000000000000000, -1.000000000000000000 ) ) ;
#378 = VECTOR ( 'NONE', #150, 1000.000000000000000 ) ;
#379 = CARTESIAN_POINT ( 'NONE',  ( 0.000000000000000000, 25.00000000000000000, -125.0000000000000000 ) ) ;
#380 = EDGE_LOOP ( 'NONE', ( #419, #808, #604, #216, #756, #775 ) ) ;
#381 = CARTESIAN_POINT ( 'NONE',  ( -17.50000000000002132, 14.00000000000000178, 89.99999999999998579 ) ) ;
#382 = CYLINDRICAL_SURFACE ( 'NONE', #27, 4.000000000000003553 ) ;
#383 = COORDINATED_UNIVERSAL_TIME_OFFSET ( 8, 0, .AHEAD. ) ;
#384 = EDGE_CURVE ( 'NONE', #422, #390, #464, .T. ) ;
#385 = EDGE_LOOP ( 'NONE', ( #459, #830, #57, #527 ) ) ;
#386 = VECTOR ( 'NONE', #441, 1000.000000000000000 ) ;
#387 = DIRECTION ( 'NONE',  ( 1.000000000000000000, -0.000000000000000000, 0.000000000000000000 ) ) ;
#388 = DIRECTION ( 'NONE',  ( -0.000000000000000000, -1.000000000000000000, 0.000000000000000000 ) ) ;
#389 = PERSON_AND_ORGANIZATION_ROLE ( 'classification_officer' ) ;
#390 = VERTEX_POINT ( 'NONE', #914 ) ;
#391 = ORIENTED_EDGE ( 'NONE', *, *, #153, .F. ) ;
#392 = CARTESIAN_POINT ( 'NONE',  ( -17.50000000000002132, 25.00000000000000000, -89.99999999999998579 ) ) ;
#393 = CARTESIAN_POINT ( 'NONE',  ( -17.50000000000000000, 0.000000000000000000, -90.00000000000000000 ) ) ;
#394 = ORIENTED_EDGE ( 'NONE', *, *, #396, .F. ) ;
#395 = EDGE_CURVE ( 'NONE', #239, #644, #51, .T. ) ;
#396 = EDGE_CURVE ( 'NONE', #465, #633, #616, .T. ) ;
#397 = CARTESIAN_POINT ( 'NONE',  ( -17.50000000000000000, 9.000000000000000000, 94.50000000000000000 ) ) ;
#398 = CYLINDRICAL_SURFACE ( 'NONE', #542, 4.500000000000003553 ) ;
#399 = VERTEX_POINT ( 'NONE', #268 ) ;
#400 = AXIS2_PLACEMENT_3D ( 'NONE', #431, #146, #722 ) ;
#401 = ORIENTED_EDGE ( 'NONE', *, *, #829, .T. ) ;
#402 = CARTESIAN_POINT ( 'NONE',  ( -17.50000000000000000, 9.000000000000000000, 90.00000000000000000 ) ) ;
#403 = ORIENTED_EDGE ( 'NONE', *, *, #647, .T. ) ;
#404 = DATE_TIME_ROLE ( 'classification_date' ) ;
#405 = ORIENTED_EDGE ( 'NONE', *, *, #761, .F. ) ;
#406 = DIRECTION ( 'NONE',  ( -0.000000000000000000, 1.000000000000000000, -0.000000000000000000 ) ) ;
#407 = ADVANCED_FACE ( 'NONE', ( #345 ), #341, .F. ) ;
#408 = ORIENTED_EDGE ( 'NONE', *, *, #395, .T. ) ;
#409 = PERSON_AND_ORGANIZATION_ROLE ( 'creator' ) ;
#410 = ORIENTED_EDGE ( 'NONE', *, *, #481, .T. ) ;
#411 = CARTESIAN_POINT ( 'NONE',  ( -17.50000000000000000, 9.000000000000000000, 81.99999999999998579 ) ) ;
#412 = ORIENTED_EDGE ( 'NONE', *, *, #656, .T. ) ;
#413 = EDGE_CURVE ( 'NONE', #904, #828, #548, .T. ) ;
#414 = AXIS2_PLACEMENT_3D ( 'NONE', #534, #825, #184 ) ;
#415 = ORIENTED_EDGE ( 'NONE', *, *, #288, .F. ) ;
#416 = DIRECTION ( 'NONE',  ( 0.000000000000000000, 0.000000000000000000, -1.000000000000000000 ) ) ;
#417 = ORIENTED_EDGE ( 'NONE', *, *, #839, .T. ) ;
#418 = PERSON_AND_ORGANIZATION_ROLE ( 'design_owner' ) ;
#419 = ORIENTED_EDGE ( 'NONE', *, *, #209, .T. ) ;
#420 = LINE ( 'NONE', #568, #614 ) ;
#421 = CARTESIAN_POINT ( 'NONE',  ( 45.00000000000000711, 25.00000000000000000, -120.0000000000000000 ) ) ;
#422 = VERTEX_POINT ( 'NONE', #206 ) ;
#423 = ADVANCED_FACE ( 'NONE', ( #623 ), #194, .F. ) ;
#424 = DIRECTION ( 'NONE',  ( -0.000000000000000000, 1.000000000000000000, -0.000000000000000000 ) ) ;
#425 = DIRECTION ( 'NONE',  ( -0.000000000000000000, -1.000000000000000000, -0.000000000000000000 ) ) ;
#426 = CARTESIAN_POINT ( 'NONE',  ( -17.50000000000000000, 9.000000000000000000, -90.00000000000000000 ) ) ;
#427 = APPROVAL_STATUS ( 'not_yet_approved' ) ;
#428 = EDGE_LOOP ( 'NONE', ( #520, #918, #696, #863 ) ) ;
#429 = DIRECTION ( 'NONE',  ( -0.000000000000000000, 1.000000000000000000, -0.000000000000000000 ) ) ;
#430 = CIRCLE ( 'NONE', #414, 4.500000000000003553 ) ;
#431 = CARTESIAN_POINT ( 'NONE',  ( -17.50000000000002132, 14.00000000000000178, 89.99999999999998579 ) ) ;
#432 = CYLINDRICAL_SURFACE ( 'NONE', #582, 4.500000000000003553 ) ;
#433 = LINE ( 'NONE', #645, #378 ) ;
#434 = VECTOR ( 'NONE', #675, 1000.000000000000000 ) ;
#435 = EDGE_CURVE ( 'NONE', #289, #183, #188, .T. ) ;
#436 = FACE_BOUND ( 'NONE', #626, .T. ) ;
#437 = CARTESIAN_POINT ( 'NONE',  ( -17.50000000000000000, -0.9999999999999974465, -94.50000000000000000 ) ) ;
#438 = CARTESIAN_POINT ( 'NONE',  ( 0.000000000000000000, 25.00000000000000000, -125.0000000000000000 ) ) ;
#439 = FACE_OUTER_BOUND ( 'NONE', #26, .T. ) ;
#440 = EDGE_CURVE ( 'NONE', #517, #106, #759, .T. ) ;
#441 = DIRECTION ( 'NONE',  ( 8.326672684688674053E-17, 0.000000000000000000, 1.000000000000000000 ) ) ;
#442 = VECTOR ( 'NONE', #490, 1000.000000000000000 ) ;
#443 = CARTESIAN_POINT ( 'NONE',  ( -6.938893903907228378E-15, 12.50000000000000711, 112.0000000000000000 ) ) ;
#444 = EDGE_LOOP ( 'NONE', ( #564, #488 ) ) ;
#445 = VECTOR ( 'NONE', #515, 1000.000000000000000 ) ;
#446 = LINE ( 'NONE', #740, #23 ) ;
#447 = DIRECTION ( 'NONE',  ( -8.326672684688675286E-17, 0.000000000000000000, -1.000000000000000000 ) ) ;
#448 = VECTOR ( 'NONE', #715, 1000.000000000000000 ) ;
#449 = VERTEX_POINT ( 'NONE', #480 ) ;
#450 = ADVANCED_FACE ( 'NONE', ( #558 ), #398, .F. ) ;
#451 = FACE_BOUND ( 'NONE', #98, .T. ) ;
#452 = EDGE_CURVE ( 'NONE', #465, #783, #16, .T. ) ;
#453 = CARTESIAN_POINT ( 'NONE',  ( -2.114974861910923210E-14, 12.50000000000000711, -116.0000000000000000 ) ) ;
#454 = EDGE_LOOP ( 'NONE', ( #576, #533 ) ) ;
#455 = LINE ( 'NONE', #92, #386 ) ;
#456 = CARTESIAN_POINT ( 'NONE',  ( -17.50000000000000000, 14.00000000000000178, -94.50000000000000000 ) ) ;
#457 = ORIENTED_EDGE ( 'NONE', *, *, #384, .F. ) ;
#458 = LOCAL_TIME ( 11, 31, 10.00000000000000000, #697 ) ;
#459 = ORIENTED_EDGE ( 'NONE', *, *, #452, .F. ) ;
#460 = CARTESIAN_POINT ( 'NONE',  ( -17.50000000000002132, 25.00000000000000000, -77.49999999999998579 ) ) ;
#461 = DIRECTION ( 'NONE',  ( -8.326672684688674053E-17, 0.000000000000000000, -1.000000000000000000 ) ) ;
#462 = EDGE_CURVE ( 'NONE', #31, #333, #364, .T. ) ;
#463 = ORIENTED_EDGE ( 'NONE', *, *, #440, .T. ) ;
#464 = CIRCLE ( 'NONE', #56, 4.000000000000003553 ) ;
#465 = VERTEX_POINT ( 'NONE', #2 ) ;
#466 = CARTESIAN_POINT ( 'NONE',  ( -50.00000000000000711, 12.50000000000000711, 112.0000000000000000 ) ) ;
#467 = DIRECTION ( 'NONE',  ( 1.000000000000000000, -0.000000000000000000, 0.000000000000000000 ) ) ;
#468 = AXIS2_PLACEMENT_3D ( 'NONE', #476, #406, #919 ) ;
#469 = ORIENTED_EDGE ( 'NONE', *, *, #647, .F. ) ;
#470 = EDGE_CURVE ( 'NONE', #208, #132, #433, .T. ) ;
#471 = VERTEX_POINT ( 'NONE', #139 ) ;
#472 = CARTESIAN_POINT ( 'NONE',  ( -17.50000000000002132, 25.00000000000000000, 102.4999999999999858 ) ) ;
#473 = ORIENTED_EDGE ( 'NONE', *, *, #734, .F. ) ;
#474 = AXIS2_PLACEMENT_3D ( 'NONE', #219, #512, #156 ) ;
#475 = EDGE_CURVE ( 'NONE', #315, #517, #905, .T. ) ;
#476 = CARTESIAN_POINT ( 'NONE',  ( -17.50000000000002132, 14.00000000000000178, 89.99999999999998579 ) ) ;
#477 = DIRECTION ( 'NONE',  ( 8.326672684688675286E-17, 0.000000000000000000, 1.000000000000000000 ) ) ;
#478 = PERSON_AND_ORGANIZATION ( #20, #491 ) ;
#479 = ORIENTED_EDGE ( 'NONE', *, *, #325, .T. ) ;
#480 = CARTESIAN_POINT ( 'NONE',  ( -50.00000000000000000, 0.000000000000000000, 125.0000000000000000 ) ) ;
#481 = EDGE_CURVE ( 'NONE', #33, #281, #145, .T. ) ;
#482 = DIRECTION ( 'NONE',  ( -1.000000000000000000, 0.000000000000000000, 8.326672684688675286E-17 ) ) ;
#483 = PERSON_AND_ORGANIZATION_ROLE ( 'design_supplier' ) ;
#484 = ORIENTED_EDGE ( 'NONE', *, *, #435, .T. ) ;
#485 = CARTESIAN_POINT ( 'NONE',  ( -17.50000000000002132, 14.00000000000000178, -77.49999999999998579 ) ) ;
#486 = FACE_OUTER_BOUND ( 'NONE', #878, .T. ) ;
#487 = VECTOR ( 'NONE', #214, 1000.000000000000000 ) ;
#488 = ORIENTED_EDGE ( 'NONE', *, *, #58, .F. ) ;
#489 = CIRCLE ( 'NONE', #625, 4.500000000000003553 ) ;
#490 = DIRECTION ( 'NONE',  ( 0.000000000000000000, 0.000000000000000000, 1.000000000000000000 ) ) ;
#491 = ORGANIZATION ( 'æœª', 'æœª', '' ) ;
#492 = LINE ( 'NONE', #781, #39 ) ;
#493 = ORIENTED_EDGE ( 'NONE', *, *, #395, .F. ) ;
#494 = ADVANCED_FACE ( 'NONE', ( #581 ), #922, .F. ) ;
#495 = ADVANCED_BREP_SHAPE_REPRESENTATION ( '\X2\5e95677f\X0\', ( #733, #792 ), #717 ) ;
#496 = ORIENTED_EDGE ( 'NONE', *, *, #413, .F. ) ;
#497 = AXIS2_PLACEMENT_3D ( 'NONE', #443, #362, #727 ) ;
#498 = CARTESIAN_POINT ( 'NONE',  ( -17.50000000000000000, -0.9999999999999974465, -85.49999999999998579 ) ) ;
#499 = DIRECTION ( 'NONE',  ( -1.000000000000000000, 0.000000000000000000, -0.000000000000000000 ) ) ;
#500 = CARTESIAN_POINT ( 'NONE',  ( -6.605826996519681416E-15, 12.50000000000000711, 116.0000000000000000 ) ) ;
#501 = EDGE_LOOP ( 'NONE', ( #47, #199, #891, #115 ) ) ;
#502 = DIRECTION ( 'NONE',  ( 0.000000000000000000, 1.000000000000000000, -0.000000000000000000 ) ) ;
#503 = DIRECTION ( 'NONE',  ( 0.000000000000000000, 0.000000000000000000, 1.000000000000000000 ) ) ;
#504 = PLANE ( 'NONE',  #149 ) ;
#505 = EDGE_CURVE ( 'NONE', #343, #399, #61, .T. ) ;
#506 = DIRECTION ( 'NONE',  ( 0.000000000000000000, 0.000000000000000000, 1.000000000000000000 ) ) ;
#507 = CYLINDRICAL_SURFACE ( 'NONE', #162, 4.000000000000003553 ) ;
#508 = DIRECTION ( 'NONE',  ( 0.000000000000000000, 0.000000000000000000, 1.000000000000000000 ) ) ;
#509 =( LENGTH_UNIT ( ) NAMED_UNIT ( * ) SI_UNIT ( .MILLI., .METRE. ) );
#510 = AXIS2_PLACEMENT_3D ( 'NONE', #881, #388, #238 ) ;
#511 = CARTESIAN_POINT ( 'NONE',  ( -17.50000000000000000, 9.000000000000000000, -98.00000000000000000 ) ) ;
#512 = DIRECTION ( 'NONE',  ( -1.000000000000000000, 0.000000000000000000, 8.326672684688675286E-17 ) ) ;
#513 = DIRECTION ( 'NONE',  ( -0.000000000000000000, 1.000000000000000000, -0.000000000000000000 ) ) ;
#514 = EDGE_CURVE ( 'NONE', #883, #828, #875, .T. ) ;
#515 = DIRECTION ( 'NONE',  ( -0.000000000000000000, -1.000000000000000000, -0.000000000000000000 ) ) ;
#516 = DIRECTION ( 'NONE',  ( 0.000000000000000000, 0.000000000000000000, -1.000000000000000000 ) ) ;
#517 = VERTEX_POINT ( 'NONE', #511 ) ;
#518 = CARTESIAN_POINT ( 'NONE',  ( -17.50000000000000000, 9.000000000000000000, 81.99999999999998579 ) ) ;
#519 = DIRECTION ( 'NONE',  ( -1.000000000000000000, 0.000000000000000000, 8.326672684688675286E-17 ) ) ;
#520 = ORIENTED_EDGE ( 'NONE', *, *, #656, .F. ) ;
#521 = LINE ( 'NONE', #736, #353 ) ;
#522 = DIRECTION ( 'NONE',  ( 8.326672684688674053E-17, 0.000000000000000000, 1.000000000000000000 ) ) ;
#523 = VECTOR ( 'NONE', #522, 1000.000000000000000 ) ;
#524 = EDGE_LOOP ( 'NONE', ( #253, #265 ) ) ;
#525 = LINE ( 'NONE', #876, #852 ) ;
#526 = DIRECTION ( 'NONE',  ( 0.000000000000000000, 0.000000000000000000, -1.000000000000000000 ) ) ;
#527 = ORIENTED_EDGE ( 'NONE', *, *, #686, .F. ) ;
#528 = UNCERTAINTY_MEASURE_WITH_UNIT (LENGTH_MEASURE( 1.000000000000000082E-05 ), #509, 'distance_accuracy_value', 'NONE');
#529 = FACE_BOUND ( 'NONE', #628, .T. ) ;
#530 = ADVANCED_FACE ( 'NONE', ( #155, #277, #721 ), #8, .F. ) ;
#531 = CARTESIAN_POINT ( 'NONE',  ( -50.00000000000001421, 25.00000000000000000, 4.163336342344338604E-15 ) ) ;
#532 = CIRCLE ( 'NONE', #295, 5.000000000000004441 ) ;
#533 = ORIENTED_EDGE ( 'NONE', *, *, #505, .T. ) ;
#534 = CARTESIAN_POINT ( 'NONE',  ( -17.50000000000000000, 9.000000000000000000, 90.00000000000000000 ) ) ;
#535 = DIRECTION ( 'NONE',  ( 0.000000000000000000, 0.000000000000000000, 1.000000000000000000 ) ) ;
#536 = EDGE_CURVE ( 'NONE', #343, #195, #713, .T. ) ;
#537 = EDGE_LOOP ( 'NONE', ( #549, #22 ) ) ;
#538 = AXIS2_PLACEMENT_3D ( 'NONE', #619, #272, #691 ) ;
#539 = ORIENTED_EDGE ( 'NONE', *, *, #310, .F. ) ;
#540 = DIRECTION ( 'NONE',  ( 0.000000000000000000, 0.000000000000000000, -1.000000000000000000 ) ) ;
#541 = CARTESIAN_POINT ( 'NONE',  ( -17.50000000000002132, 25.00000000000000000, 89.99999999999998579 ) ) ;
#542 = AXIS2_PLACEMENT_3D ( 'NONE', #683, #327, #221 ) ;
#543 = DIRECTION ( 'NONE',  ( -1.000000000000000000, 0.000000000000000000, 8.326672684688675286E-17 ) ) ;
#544 = DATE_TIME_ROLE ( 'creation_date' ) ;
#545 = PERSON_AND_ORGANIZATION ( #20, #491 ) ;
#546 = APPLICATION_CONTEXT ( 'configuration controlled 3d designs of mechanical parts and assemblies' ) ;
#547 = ORIENTED_EDGE ( 'NONE', *, *, #798, .T. ) ;
#548 = LINE ( 'NONE', #41, #728 ) ;
#549 = ORIENTED_EDGE ( 'NONE', *, *, #815, .T. ) ;
#550 = CIRCLE ( 'NONE', #128, 4.000000000000003553 ) ;
#551 = CIRCLE ( 'NONE', #372, 5.000000000000004441 ) ;
#552 = ORIENTED_EDGE ( 'NONE', *, *, #514, .F. ) ;
#553 = DIRECTION ( 'NONE',  ( -0.000000000000000000, -1.000000000000000000, -0.000000000000000000 ) ) ;
#554 = CARTESIAN_POINT ( 'NONE',  ( -17.50000000000002132, 14.00000000000000178, 102.4999999999999858 ) ) ;
#555 = DATE_AND_TIME ( #270, #458 ) ;
#556 = VECTOR ( 'NONE', #467, 1000.000000000000000 ) ;
#557 = ORIENTED_EDGE ( 'NONE', *, *, #909, .T. ) ;
#558 = FACE_OUTER_BOUND ( 'NONE', #859, .T. ) ;
#559 = EDGE_LOOP ( 'NONE', ( #473, #307, #95, #261 ) ) ;
#560 = APPROVAL_STATUS ( 'not_yet_approved' ) ;
#561 = VERTEX_POINT ( 'NONE', #349 ) ;
#562 = DIRECTION ( 'NONE',  ( -1.000000000000000000, 0.000000000000000000, 8.326672684688675286E-17 ) ) ;
#563 = ADVANCED_FACE ( 'NONE', ( #729 ), #282, .F. ) ;
#564 = ORIENTED_EDGE ( 'NONE', *, *, #630, .F. ) ;
#565 = EDGE_CURVE ( 'NONE', #828, #883, #597, .T. ) ;
#566 = AXIS2_PLACEMENT_3D ( 'NONE', #865, #361, #503 ) ;
#567 = ORIENTED_EDGE ( 'NONE', *, *, #798, .F. ) ;
#568 = CARTESIAN_POINT ( 'NONE',  ( 50.00000000000000000, 0.000000000000000000, -0.000000000000000000 ) ) ;
#569 = CARTESIAN_POINT ( 'NONE',  ( -7.271960811294775340E-15, 12.50000000000000711, 108.0000000000000000 ) ) ;
#570 = DIRECTION ( 'NONE',  ( 1.000000000000000000, 0.000000000000000000, 0.000000000000000000 ) ) ;
#571 = ORIENTED_EDGE ( 'NONE', *, *, #856, .T. ) ;
#572 = CARTESIAN_POINT ( 'NONE',  ( -17.50000000000000000, 0.000000000000000000, 90.00000000000000000 ) ) ;
#573 = CARTESIAN_POINT ( 'NONE',  ( -17.50000000000000000, 9.000000000000000000, 98.00000000000000000 ) ) ;
#574 = FACE_OUTER_BOUND ( 'NONE', #849, .T. ) ;
#575 = EDGE_CURVE ( 'NONE', #561, #767, #653, .T. ) ;
#576 = ORIENTED_EDGE ( 'NONE', *, *, #144, .T. ) ;
#577 = DIRECTION ( 'NONE',  ( -8.326672684688675286E-17, 0.000000000000000000, -1.000000000000000000 ) ) ;
#578 = CARTESIAN_POINT ( 'NONE',  ( 50.00000000000000000, 25.00000000000000000, 0.000000000000000000 ) ) ;
#579 = AXIS2_PLACEMENT_3D ( 'NONE', #173, #673, #13 ) ;
#580 = APPROVAL ( #427, 'æœª' ) ;
#581 = FACE_OUTER_BOUND ( 'NONE', #200, .T. ) ;
#582 = AXIS2_PLACEMENT_3D ( 'NONE', #855, #513, #508 ) ;
#583 = DIRECTION ( 'NONE',  ( 0.000000000000000000, 0.000000000000000000, -1.000000000000000000 ) ) ;
#584 = DIRECTION ( 'NONE',  ( 0.000000000000000000, -0.000000000000000000, -1.000000000000000000 ) ) ;
#585 = MECHANICAL_CONTEXT ( 'NONE', #546, 'mechanical' ) ;
#586 = AXIS2_PLACEMENT_3D ( 'NONE', #19, #89, #309 ) ;
#587 = CARTESIAN_POINT ( 'NONE',  ( -17.50000000000000000, -0.9999999999999974465, -90.00000000000000000 ) ) ;
#588 = DIRECTION ( 'NONE',  ( -0.000000000000000000, -1.000000000000000000, -0.000000000000000000 ) ) ;
#589 = DIRECTION ( 'NONE',  ( 0.000000000000000000, 0.000000000000000000, 1.000000000000000000 ) ) ;
#590 = EDGE_CURVE ( 'NONE', #921, #33, #300, .T. ) ;
#591 = PLANE ( 'NONE',  #915 ) ;
#592 = APPROVAL_DATE_TIME ( #882, #580 ) ;
#593 = EDGE_CURVE ( 'NONE', #694, #281, #420, .T. ) ;
#594 = ORIENTED_EDGE ( 'NONE', *, *, #259, .F. ) ;
#595 = APPLICATION_CONTEXT ( 'configuration controlled 3d designs of mechanical parts and assemblies' ) ;
#596 = DIRECTION ( 'NONE',  ( 0.000000000000000000, 0.000000000000000000, 1.000000000000000000 ) ) ;
#597 = CIRCLE ( 'NONE', #210, 8.000000000000007105 ) ;
#598 = DIRECTION ( 'NONE',  ( -0.000000000000000000, -1.000000000000000000, 0.000000000000000000 ) ) ;
#599 = CC_DESIGN_APPROVAL ( #580, ( #306 ) ) ;
#600 = ORIENTED_EDGE ( 'NONE', *, *, #734, .T. ) ;
#601 = LINE ( 'NONE', #748, #312 ) ;
#602 = CARTESIAN_POINT ( 'NONE',  ( 45.00000000000000711, 0.000000000000000000, -120.0000000000000000 ) ) ;
#603 = AXIS2_PLACEMENT_3D ( 'NONE', #749, #877, #535 ) ;
#604 = ORIENTED_EDGE ( 'NONE', *, *, #590, .F. ) ;
#605 = SHAPE_DEFINITION_REPRESENTATION ( #12, #495 ) ;
#606 = EDGE_CURVE ( 'NONE', #399, #841, #212, .T. ) ;
#607 = DIRECTION ( 'NONE',  ( 0.000000000000000000, 0.000000000000000000, 1.000000000000000000 ) ) ;
#608 = CYLINDRICAL_SURFACE ( 'NONE', #169, 8.000000000000007105 ) ;
#609 = ORIENTED_EDGE ( 'NONE', *, *, #18, .T. ) ;
#610 = CALENDAR_DATE ( 2024, 22, 10 ) ;
#611 = DIRECTION ( 'NONE',  ( -0.000000000000000000, 1.000000000000000000, -0.000000000000000000 ) ) ;
#612 = CC_DESIGN_PERSON_AND_ORGANIZATION_ASSIGNMENT ( #275, #418, ( #159 ) ) ;
#613 = CARTESIAN_POINT ( 'NONE',  ( -17.50000000000000000, 9.000000000000000000, -90.00000000000000000 ) ) ;
#614 = VECTOR ( 'NONE', #853, 1000.000000000000000 ) ;
#615 = ORIENTED_EDGE ( 'NONE', *, *, #103, .T. ) ;
#616 = LINE ( 'NONE', #901, #302 ) ;
#617 = FACE_OUTER_BOUND ( 'NONE', #537, .T. ) ;
#618 = ORIENTED_EDGE ( 'NONE', *, *, #593, .F. ) ;
#619 = CARTESIAN_POINT ( 'NONE',  ( 0.000000000000000000, 14.00000000000000178, 0.000000000000000000 ) ) ;
#620 = AXIS2_PLACEMENT_3D ( 'NONE', #62, #648, #933 ) ;
#621 = EDGE_LOOP ( 'NONE', ( #405, #205, #412, #50, #119, #59 ) ) ;
#622 = CALENDAR_DATE ( 2024, 22, 10 ) ;
#623 = FACE_OUTER_BOUND ( 'NONE', #559, .T. ) ;
#624 = EDGE_LOOP ( 'NONE', ( #539, #594, #401, #609 ) ) ;
#625 = AXIS2_PLACEMENT_3D ( 'NONE', #68, #791, #292 ) ;
#626 = EDGE_LOOP ( 'NONE', ( #557, #817 ) ) ;
#627 = DIRECTION ( 'NONE',  ( 0.000000000000000000, 0.000000000000000000, -1.000000000000000000 ) ) ;
#628 = EDGE_LOOP ( 'NONE', ( #547, #634 ) ) ;
#629 = CIRCLE ( 'NONE', #154, 12.49999999999999645 ) ;
#630 = EDGE_CURVE ( 'NONE', #104, #633, #804, .T. ) ;
#631 = ORIENTED_EDGE ( 'NONE', *, *, #926, .F. ) ;
#632 = DIRECTION ( 'NONE',  ( 0.000000000000000000, 0.000000000000000000, 1.000000000000000000 ) ) ;
#633 = VERTEX_POINT ( 'NONE', #237 ) ;
#634 = ORIENTED_EDGE ( 'NONE', *, *, #452, .T. ) ;
#635 = CARTESIAN_POINT ( 'NONE',  ( -50.00000000000002132, 25.00000000000000000, -125.0000000000000000 ) ) ;
#636 = EDGE_CURVE ( 'NONE', #767, #449, #455, .T. ) ;
#637 = CARTESIAN_POINT ( 'NONE',  ( -17.50000000000002132, 14.00000000000000178, 77.49999999999998579 ) ) ;
#638 = LINE ( 'NONE', #10, #86 ) ;
#639 = AXIS2_PLACEMENT_3D ( 'NONE', #355, #63, #848 ) ;
#640 = ORIENTED_EDGE ( 'NONE', *, *, #894, .F. ) ;
#641 = DIRECTION ( 'NONE',  ( 1.000000000000000000, 0.000000000000000000, -8.326672684688675286E-17 ) ) ;
#642 = CARTESIAN_POINT ( 'NONE',  ( -17.50000000000000000, 14.00000000000000178, 94.50000000000000000 ) ) ;
#643 =( NAMED_UNIT ( * ) SI_UNIT ( $, .STERADIAN. ) SOLID_ANGLE_UNIT ( ) );
#644 = VERTEX_POINT ( 'NONE', #460 ) ;
#645 = CARTESIAN_POINT ( 'NONE',  ( -17.50000000000002132, 14.00000000000000178, -102.4999999999999858 ) ) ;
#646 = CARTESIAN_POINT ( 'NONE',  ( -17.50000000000000000, 9.000000000000000000, 90.00000000000000000 ) ) ;
#647 = EDGE_CURVE ( 'NONE', #208, #239, #819, .T. ) ;
#648 = DIRECTION ( 'NONE',  ( 0.000000000000000000, -1.000000000000000000, 0.000000000000000000 ) ) ;
#649 = CARTESIAN_POINT ( 'NONE',  ( -2.081668171172168513E-14, 12.50000000000000711, -112.0000000000000000 ) ) ;
#650 = CARTESIAN_POINT ( 'NONE',  ( -17.50000000000000000, 9.000000000000000000, -90.00000000000000000 ) ) ;
#651 =( NAMED_UNIT ( * ) PLANE_ANGLE_UNIT ( ) SI_UNIT ( $, .RADIAN. ) );
#652 = VECTOR ( 'NONE', #784, 1000.000000000000000 ) ;
#653 = LINE ( 'NONE', #635, #178 ) ;
#654 = CIRCLE ( 'NONE', #179, 5.000000000000004441 ) ;
#655 = LINE ( 'NONE', #296, #340 ) ;
#656 = EDGE_CURVE ( 'NONE', #767, #678, #28, .T. ) ;
#657 = AXIS2_PLACEMENT_3D ( 'NONE', #741, #35, #821 ) ;
#658 = DIRECTION ( 'NONE',  ( 0.000000000000000000, 1.000000000000000000, -0.000000000000000000 ) ) ;
#659 = DIRECTION ( 'NONE',  ( 0.000000000000000000, 0.000000000000000000, -1.000000000000000000 ) ) ;
#660 = ORIENTED_EDGE ( 'NONE', *, *, #686, .T. ) ;
#661 = VECTOR ( 'NONE', #725, 1000.000000000000000 ) ;
#662 = CARTESIAN_POINT ( 'NONE',  ( -17.50000000000000000, -0.9999999999999974465, 90.00000000000000000 ) ) ;
#663 = FACE_OUTER_BOUND ( 'NONE', #38, .T. ) ;
#664 = ORIENTED_EDGE ( 'NONE', *, *, #240, .F. ) ;
#665 = DIRECTION ( 'NONE',  ( -0.000000000000000000, 1.000000000000000000, -0.000000000000000000 ) ) ;
#666 = CIRCLE ( 'NONE', #474, 4.000000000000003553 ) ;
#667 = CARTESIAN_POINT ( 'NONE',  ( -17.50000000000000000, 0.000000000000000000, -90.00000000000000000 ) ) ;
#668 = CALENDAR_DATE ( 2024, 22, 10 ) ;
#669 = CALENDAR_DATE ( 2024, 22, 10 ) ;
#670 = CC_DESIGN_APPROVAL ( #81, ( #193 ) ) ;
#671 = EDGE_CURVE ( 'NONE', #49, #471, #601, .T. ) ;
#672 = ORIENTED_EDGE ( 'NONE', *, *, #103, .F. ) ;
#673 = DIRECTION ( 'NONE',  ( 0.000000000000000000, -1.000000000000000000, 0.000000000000000000 ) ) ;
#674 = AXIS2_PLACEMENT_3D ( 'NONE', #646, #866, #737 ) ;
#675 = DIRECTION ( 'NONE',  ( -1.000000000000000000, -0.000000000000000000, 8.326672684688675286E-17 ) ) ;
#676 = ORIENTED_EDGE ( 'NONE', *, *, #505, .F. ) ;
#677 = ADVANCED_FACE ( 'NONE', ( #107, #529 ), #158, .T. ) ;
#678 = VERTEX_POINT ( 'NONE', #180 ) ;
#679 = DIRECTION ( 'NONE',  ( 0.000000000000000000, 1.000000000000000000, -0.000000000000000000 ) ) ;
#680 = DIRECTION ( 'NONE',  ( 0.000000000000000000, 1.000000000000000000, -0.000000000000000000 ) ) ;
#681 = ORIENTED_EDGE ( 'NONE', *, *, #787, .F. ) ;
#682 = ORIENTED_EDGE ( 'NONE', *, *, #590, .T. ) ;
#683 = CARTESIAN_POINT ( 'NONE',  ( -17.50000000000000000, -0.9999999999999974465, -90.00000000000000000 ) ) ;
#684 = AXIS2_PLACEMENT_3D ( 'NONE', #241, #34, #377 ) ;
#685 = ORIENTED_EDGE ( 'NONE', *, *, #745, .F. ) ;
#686 = EDGE_CURVE ( 'NONE', #783, #104, #521, .T. ) ;
#687 = CARTESIAN_POINT ( 'NONE',  ( -6.605826996519681416E-15, 12.50000000000000711, 116.0000000000000000 ) ) ;
#688 = EDGE_LOOP ( 'NONE', ( #681, #757 ) ) ;
#689 = COORDINATED_UNIVERSAL_TIME_OFFSET ( 8, 0, .AHEAD. ) ;
#690 = EDGE_LOOP ( 'NONE', ( #469, #782, #779, #493 ) ) ;
#691 = DIRECTION ( 'NONE',  ( 0.000000000000000000, 0.000000000000000000, 1.000000000000000000 ) ) ;
#692 = CARTESIAN_POINT ( 'NONE',  ( 45.00000000000000711, 25.00000000000000000, 120.0000000000000000 ) ) ;
#693 = PERSON_AND_ORGANIZATION ( #20, #491 ) ;
#694 = VERTEX_POINT ( 'NONE', #814 ) ;
#695 = CARTESIAN_POINT ( 'NONE',  ( -17.50000000000000000, 14.00000000000000178, -90.00000000000000000 ) ) ;
#696 = ORIENTED_EDGE ( 'NONE', *, *, #266, .T. ) ;
#697 = COORDINATED_UNIVERSAL_TIME_OFFSET ( 8, 0, .AHEAD. ) ;
#698 = CIRCLE ( 'NONE', #836, 12.49999999999999645 ) ;
#699 = ADVANCED_FACE ( 'NONE', ( #885 ), #753, .F. ) ;
#700 = CLOSED_SHELL ( 'NONE', ( #317, #75, #287, #328, #257, #778, #563, #699, #131, #450, #192, #494, #338, #40, #191, #858, #530, #750, #423, #367, #407, #874, #163, #923, #677, #354, #827, #202, #174, #21 ) ) ;
#701 = ORIENTED_EDGE ( 'NONE', *, *, #565, .F. ) ;
#702 = DIRECTION ( 'NONE',  ( -0.000000000000000000, -1.000000000000000000, 0.000000000000000000 ) ) ;
#703 = ORIENTED_EDGE ( 'NONE', *, *, #384, .T. ) ;
#704 = APPLICATION_PROTOCOL_DEFINITION ( 'international standard', 'config_control_design', 1994, #595 ) ;
#705 = VECTOR ( 'NONE', #120, 1000.000000000000000 ) ;
#706 = ORIENTED_EDGE ( 'NONE', *, *, #357, .F. ) ;
#707 = EDGE_CURVE ( 'NONE', #132, #644, #698, .T. ) ;
#708 = CARTESIAN_POINT ( 'NONE',  ( -17.50000000000002132, 14.00000000000000178, 102.4999999999999858 ) ) ;
#709 = DIRECTION ( 'NONE',  ( 0.000000000000000000, 1.000000000000000000, -0.000000000000000000 ) ) ;
#710 = DIRECTION ( 'NONE',  ( -0.000000000000000000, -1.000000000000000000, 0.000000000000000000 ) ) ;
#711 = VECTOR ( 'NONE', #553, 1000.000000000000000 ) ;
#712 = ORIENTED_EDGE ( 'NONE', *, *, #913, .T. ) ;
#713 = LINE ( 'NONE', #437, #752 ) ;
#714 = CARTESIAN_POINT ( 'NONE',  ( 44.99999999999997158, 25.00000000000000000, -125.0000000000000000 ) ) ;
#715 = DIRECTION ( 'NONE',  ( -0.000000000000000000, -1.000000000000000000, -0.000000000000000000 ) ) ;
#716 = APPROVAL_ROLE ( '' ) ;
#717 =( GEOMETRIC_REPRESENTATION_CONTEXT ( 3 ) GLOBAL_UNCERTAINTY_ASSIGNED_CONTEXT ( ( #528 ) ) GLOBAL_UNIT_ASSIGNED_CONTEXT ( ( #509, #651, #643 ) ) REPRESENTATION_CONTEXT ( 'NONE', 'WORKASPACE' ) );
#718 = ORIENTED_EDGE ( 'NONE', *, *, #413, .T. ) ;
#719 = AXIS2_PLACEMENT_3D ( 'NONE', #769, #482, #916 ) ;
#720 = CC_DESIGN_APPROVAL ( #273, ( #263 ) ) ;
#721 = FACE_OUTER_BOUND ( 'NONE', #903, .T. ) ;
#722 = DIRECTION ( 'NONE',  ( 0.000000000000000000, 0.000000000000000000, 1.000000000000000000 ) ) ;
#723 = CARTESIAN_POINT ( 'NONE',  ( -17.50000000000002132, 25.00000000000000000, -102.4999999999999858 ) ) ;
#724 = AXIS2_PLACEMENT_3D ( 'NONE', #24, #519, #461 ) ;
#725 = DIRECTION ( 'NONE',  ( -0.000000000000000000, 1.000000000000000000, -0.000000000000000000 ) ) ;
#726 = DIRECTION ( 'NONE',  ( 0.000000000000000000, 0.000000000000000000, 1.000000000000000000 ) ) ;
#727 = DIRECTION ( 'NONE',  ( 8.326672684688674053E-17, 0.000000000000000000, 1.000000000000000000 ) ) ;
#728 = VECTOR ( 'NONE', #124, 1000.000000000000000 ) ;
#729 = FACE_OUTER_BOUND ( 'NONE', #114, .T. ) ;
#730 = FACE_OUTER_BOUND ( 'NONE', #428, .T. ) ;
#731 = DIRECTION ( 'NONE',  ( -0.000000000000000000, 1.000000000000000000, -0.000000000000000000 ) ) ;
#732 = EDGE_CURVE ( 'NONE', #351, #904, #6, .T. ) ;
#733 = MANIFOLD_SOLID_BREP ( 'ÇÐ³ý-À­Éì4', #700 ) ;
#734 = EDGE_CURVE ( 'NONE', #823, #358, #525, .T. ) ;
#735 = AXIS2_PLACEMENT_3D ( 'NONE', #587, #424, #506 ) ;
#736 = CARTESIAN_POINT ( 'NONE',  ( -17.50000000000000000, -0.9999999999999974465, 94.50000000000000000 ) ) ;
#737 = DIRECTION ( 'NONE',  ( 0.000000000000000000, 0.000000000000000000, -1.000000000000000000 ) ) ;
#738 = APPROVAL_PERSON_ORGANIZATION ( #142, #580, #716 ) ;
#739 = EDGE_LOOP ( 'NONE', ( #771, #323, #408, #161 ) ) ;
#740 = CARTESIAN_POINT ( 'NONE',  ( 0.000000000000000000, 0.000000000000000000, 125.0000000000000000 ) ) ;
#741 = CARTESIAN_POINT ( 'NONE',  ( -17.50000000000000000, 14.00000000000000178, -90.00000000000000000 ) ) ;
#742 = VERTEX_POINT ( 'NONE', #888 ) ;
#743 = AXIS2_PLACEMENT_3D ( 'NONE', #868, #864, #226 ) ;
#744 = FACE_OUTER_BOUND ( 'NONE', #267, .T. ) ;
#745 = EDGE_CURVE ( 'NONE', #351, #883, #228, .T. ) ;
#746 = FACE_OUTER_BOUND ( 'NONE', #249, .T. ) ;
#747 = ORIENTED_EDGE ( 'NONE', *, *, #671, .F. ) ;
#748 = CARTESIAN_POINT ( 'NONE',  ( -7.271960811294775340E-15, 12.50000000000000711, 108.0000000000000000 ) ) ;
#749 = CARTESIAN_POINT ( 'NONE',  ( -17.50000000000002132, 14.00000000000000178, -89.99999999999998579 ) ) ;
#750 = ADVANCED_FACE ( 'NONE', ( #451, #800, #166 ), #805, .F. ) ;
#751 = ORIENTED_EDGE ( 'NONE', *, *, #630, .T. ) ;
#752 = VECTOR ( 'NONE', #797, 1000.000000000000000 ) ;
#753 = CYLINDRICAL_SURFACE ( 'NONE', #764, 4.500000000000003553 ) ;
#754 = CIRCLE ( 'NONE', #283, 4.500000000000003553 ) ;
#755 = CARTESIAN_POINT ( 'NONE',  ( -6.938893903907228378E-15, 12.50000000000000711, 112.0000000000000000 ) ) ;
#756 = ORIENTED_EDGE ( 'NONE', *, *, #266, .F. ) ;
#757 = ORIENTED_EDGE ( 'NONE', *, *, #707, .F. ) ;
#758 = DIRECTION ( 'NONE',  ( -1.000000000000000000, 0.000000000000000000, 8.326672684688675286E-17 ) ) ;
#759 = LINE ( 'NONE', #113, #711 ) ;
#760 = ORIENTED_EDGE ( 'NONE', *, *, #209, .F. ) ;
#761 = EDGE_CURVE ( 'NONE', #449, #172, #446, .T. ) ;
#762 = EDGE_LOOP ( 'NONE', ( #196, #887, #463, #111 ) ) ;
#763 = CYLINDRICAL_SURFACE ( 'NONE', #105, 5.000000000000004441 ) ;
#764 = AXIS2_PLACEMENT_3D ( 'NONE', #662, #88, #589 ) ;
#765 = AXIS2_PLACEMENT_3D ( 'NONE', #125, #543, #477 ) ;
#766 = DIRECTION ( 'NONE',  ( 0.000000000000000000, 0.000000000000000000, 1.000000000000000000 ) ) ;
#767 = VERTEX_POINT ( 'NONE', #308 ) ;
#768 = DIRECTION ( 'NONE',  ( 0.000000000000000000, 0.000000000000000000, 1.000000000000000000 ) ) ;
#769 = CARTESIAN_POINT ( 'NONE',  ( -50.00000000000002132, 12.50000000000000711, -112.0000000000000000 ) ) ;
#770 = AXIS2_PLACEMENT_3D ( 'NONE', #650, #227, #584 ) ;
#771 = ORIENTED_EDGE ( 'NONE', *, *, #470, .F. ) ;
#772 = FACE_OUTER_BOUND ( 'NONE', #339, .T. ) ;
#773 = EDGE_CURVE ( 'NONE', #172, #281, #532, .T. ) ;
#774 = DIRECTION ( 'NONE',  ( 0.000000000000000000, -1.000000000000000000, 0.000000000000000000 ) ) ;
#775 = ORIENTED_EDGE ( 'NONE', *, *, #240, .T. ) ;
#776 = CYLINDRICAL_SURFACE ( 'NONE', #871, 8.000000000000007105 ) ;
#777 = DIRECTION ( 'NONE',  ( 0.000000000000000000, 0.000000000000000000, 1.000000000000000000 ) ) ;
#778 = ADVANCED_FACE ( 'NONE', ( #744 ), #96, .F. ) ;
#779 = ORIENTED_EDGE ( 'NONE', *, *, #707, .T. ) ;
#780 = DIRECTION ( 'NONE',  ( -0.000000000000000000, 1.000000000000000000, -0.000000000000000000 ) ) ;
#781 = CARTESIAN_POINT ( 'NONE',  ( 44.99999999999997158, 25.00000000000000000, -125.0000000000000000 ) ) ;
#782 = ORIENTED_EDGE ( 'NONE', *, *, #470, .T. ) ;
#783 = VERTEX_POINT ( 'NONE', #397 ) ;
#784 = DIRECTION ( 'NONE',  ( -0.000000000000000000, 1.000000000000000000, -0.000000000000000000 ) ) ;
#785 = FACE_OUTER_BOUND ( 'NONE', #330, .T. ) ;
#786 = CARTESIAN_POINT ( 'NONE',  ( -17.50000000000000000, 0.000000000000000000, -98.00000000000000000 ) ) ;
#787 = EDGE_CURVE ( 'NONE', #644, #132, #893, .T. ) ;
#788 = ORIENTED_EDGE ( 'NONE', *, *, #18, .F. ) ;
#789 = DIRECTION ( 'NONE',  ( 0.000000000000000000, 0.000000000000000000, -1.000000000000000000 ) ) ;
#790 = CARTESIAN_POINT ( 'NONE',  ( -50.00000000000000000, 25.00000000000000000, 125.0000000000000000 ) ) ;
#791 = DIRECTION ( 'NONE',  ( 0.000000000000000000, 1.000000000000000000, -0.000000000000000000 ) ) ;
#792 = AXIS2_PLACEMENT_3D ( 'NONE', #5, #297, #570 ) ;
#793 = LOCAL_TIME ( 11, 31, 10.00000000000000000, #689 ) ;
#794 = DIRECTION ( 'NONE',  ( 0.000000000000000000, -1.000000000000000000, 0.000000000000000000 ) ) ;
#795 = CYLINDRICAL_SURFACE ( 'NONE', #116, 8.000000000000007105 ) ;
#796 = CYLINDRICAL_SURFACE ( 'NONE', #867, 4.000000000000003553 ) ;
#797 = DIRECTION ( 'NONE',  ( -0.000000000000000000, 1.000000000000000000, -0.000000000000000000 ) ) ;
#798 = EDGE_CURVE ( 'NONE', #783, #465, #430, .T. ) ;
#799 = PLANE ( 'NONE',  #770 ) ;
#800 = FACE_BOUND ( 'NONE', #834, .T. ) ;
#801 = LINE ( 'NONE', #930, #896 ) ;
#802 = ORIENTED_EDGE ( 'NONE', *, *, #761, .T. ) ;
#803 = EDGE_CURVE ( 'NONE', #335, #471, #550, .T. ) ;
#804 = CIRCLE ( 'NONE', #248, 4.500000000000003553 ) ;
#805 = PLANE ( 'NONE',  #373 ) ;
#806 = CC_DESIGN_SECURITY_CLASSIFICATION ( #263, ( #193 ) ) ;
#807 = CYLINDRICAL_SURFACE ( 'NONE', #586, 8.000000000000007105 ) ;
#808 = ORIENTED_EDGE ( 'NONE', *, *, #7, .T. ) ;
#809 = CIRCLE ( 'NONE', #857, 8.000000000000007105 ) ;
#810 = DIRECTION ( 'NONE',  ( 0.000000000000000000, 1.000000000000000000, -0.000000000000000000 ) ) ;
#811 = DIRECTION ( 'NONE',  ( 0.000000000000000000, 0.000000000000000000, 1.000000000000000000 ) ) ;
#812 = ORIENTED_EDGE ( 'NONE', *, *, #514, .T. ) ;
#813 = AXIS2_PLACEMENT_3D ( 'NONE', #260, #198, #632 ) ;
#814 = CARTESIAN_POINT ( 'NONE',  ( 50.00000000000000000, 0.000000000000000000, -119.9999999999999716 ) ) ;
#815 = EDGE_CURVE ( 'NONE', #346, #49, #324, .T. ) ;
#816 = FACE_OUTER_BOUND ( 'NONE', #247, .T. ) ;
#817 = ORIENTED_EDGE ( 'NONE', *, *, #344, .T. ) ;
#818 = DIRECTION ( 'NONE',  ( -1.000000000000000000, -0.000000000000000000, 8.326672684688675286E-17 ) ) ;
#819 = CIRCLE ( 'NONE', #43, 12.49999999999999645 ) ;
#820 = APPROVAL_PERSON_ORGANIZATION ( #545, #273, #99 ) ;
#821 = DIRECTION ( 'NONE',  ( 0.000000000000000000, 0.000000000000000000, 1.000000000000000000 ) ) ;
#822 = AXIS2_PLACEMENT_3D ( 'NONE', #426, #731, #516 ) ;
#823 = VERTEX_POINT ( 'NONE', #637 ) ;
#824 = ORIENTED_EDGE ( 'NONE', *, *, #606, .T. ) ;
#825 = DIRECTION ( 'NONE',  ( -0.000000000000000000, 1.000000000000000000, -0.000000000000000000 ) ) ;
#826 = DIRECTION ( 'NONE',  ( 1.000000000000000000, -0.000000000000000000, 0.000000000000000000 ) ) ;
#827 = ADVANCED_FACE ( 'NONE', ( #365 ), #507, .F. ) ;
#828 = VERTEX_POINT ( 'NONE', #869 ) ;
#829 = EDGE_CURVE ( 'NONE', #183, #390, #67, .T. ) ;
#830 = ORIENTED_EDGE ( 'NONE', *, *, #396, .T. ) ;
#831 = FACE_OUTER_BOUND ( 'NONE', #232, .T. ) ;
#832 = ORIENTED_EDGE ( 'NONE', *, *, #231, .F. ) ;
#833 = APPROVAL_STATUS ( 'not_yet_approved' ) ;
#834 = EDGE_LOOP ( 'NONE', ( #832, #129 ) ) ;
#835 = CARTESIAN_POINT ( 'NONE',  ( -50.00000000000000711, 12.50000000000000711, 116.0000000000000000 ) ) ;
#836 = AXIS2_PLACEMENT_3D ( 'NONE', #392, #679, #607 ) ;
#837 = EDGE_LOOP ( 'NONE', ( #415, #640, #912, #271 ) ) ;
#838 = APPROVAL_PERSON_ORGANIZATION ( #334, #81, #842 ) ;
#839 = EDGE_CURVE ( 'NONE', #239, #208, #148, .T. ) ;
#840 = DIRECTION ( 'NONE',  ( 0.000000000000000000, 0.000000000000000000, 1.000000000000000000 ) ) ;
#841 = VERTEX_POINT ( 'NONE', #79 ) ;
#842 = APPROVAL_ROLE ( '' ) ;
#843 = CIRCLE ( 'NONE', #657, 4.500000000000003553 ) ;
#844 = CARTESIAN_POINT ( 'NONE',  ( -50.00000000000002132, 12.50000000000000711, -112.0000000000000000 ) ) ;
#845 = DIRECTION ( 'NONE',  ( 0.000000000000000000, 0.000000000000000000, -1.000000000000000000 ) ) ;
#846 = ORIENTED_EDGE ( 'NONE', *, *, #913, .F. ) ;
#847 = DIRECTION ( 'NONE',  ( -0.000000000000000000, -1.000000000000000000, -0.000000000000000000 ) ) ;
#848 = DIRECTION ( 'NONE',  ( 0.000000000000000000, 0.000000000000000000, 1.000000000000000000 ) ) ;
#849 = EDGE_LOOP ( 'NONE', ( #747, #274, #143, #53 ) ) ;
#850 = DESIGN_CONTEXT ( 'detailed design', #595, 'design' ) ;
#851 = ORIENTED_EDGE ( 'NONE', *, *, #671, .T. ) ;
#852 = VECTOR ( 'NONE', #611, 1000.000000000000000 ) ;
#853 = DIRECTION ( 'NONE',  ( 0.000000000000000000, 0.000000000000000000, 1.000000000000000000 ) ) ;
#854 = DIRECTION ( 'NONE',  ( 8.326672684688674053E-17, 0.000000000000000000, 1.000000000000000000 ) ) ;
#855 = CARTESIAN_POINT ( 'NONE',  ( -17.50000000000000000, -0.9999999999999974465, 90.00000000000000000 ) ) ;
#856 = EDGE_CURVE ( 'NONE', #471, #335, #666, .T. ) ;
#857 = AXIS2_PLACEMENT_3D ( 'NONE', #393, #181, #319 ) ;
#858 = ADVANCED_FACE ( 'NONE', ( #730 ), #9, .T. ) ;
#859 = EDGE_LOOP ( 'NONE', ( #236, #126, #824, #311 ) ) ;
#860 = DIRECTION ( 'NONE',  ( 0.000000000000000000, 0.000000000000000000, -1.000000000000000000 ) ) ;
#861 = FACE_BOUND ( 'NONE', #186, .T. ) ;
#862 = DIRECTION ( 'NONE',  ( 0.000000000000000000, 0.000000000000000000, -1.000000000000000000 ) ) ;
#863 = ORIENTED_EDGE ( 'NONE', *, *, #894, .T. ) ;
#864 = DIRECTION ( 'NONE',  ( 0.000000000000000000, 0.000000000000000000, -1.000000000000000000 ) ) ;
#865 = CARTESIAN_POINT ( 'NONE',  ( -17.50000000000002132, 25.00000000000000000, 89.99999999999998579 ) ) ;
#866 = DIRECTION ( 'NONE',  ( 0.000000000000000000, -1.000000000000000000, 0.000000000000000000 ) ) ;
#867 = AXIS2_PLACEMENT_3D ( 'NONE', #147, #230, #371 ) ;
#868 = CARTESIAN_POINT ( 'NONE',  ( 0.000000000000000000, 25.00000000000000000, 125.0000000000000000 ) ) ;
#869 = CARTESIAN_POINT ( 'NONE',  ( -17.50000000000000000, 0.000000000000000000, 98.00000000000000000 ) ) ;
#870 = DIRECTION ( 'NONE',  ( -0.000000000000000000, -1.000000000000000000, -0.000000000000000000 ) ) ;
#871 = AXIS2_PLACEMENT_3D ( 'NONE', #402, #847, #627 ) ;
#872 = CARTESIAN_POINT ( 'NONE',  ( 50.00000000000000000, 25.00000000000000000, 0.000000000000000000 ) ) ;
#873 = DIRECTION ( 'NONE',  ( -1.000000000000000000, -0.000000000000000000, 8.326672684688675286E-17 ) ) ;
#874 = ADVANCED_FACE ( 'NONE', ( #861, #785 ), #140, .T. ) ;
#875 = CIRCLE ( 'NONE', #225, 8.000000000000007105 ) ;
#876 = CARTESIAN_POINT ( 'NONE',  ( -17.50000000000002132, 14.00000000000000178, 77.49999999999998579 ) ) ;
#877 = DIRECTION ( 'NONE',  ( -0.000000000000000000, 1.000000000000000000, -0.000000000000000000 ) ) ;
#878 = EDGE_LOOP ( 'NONE', ( #618, #391, #682, #410 ) ) ;
#879 = AXIS2_PLACEMENT_3D ( 'NONE', #381, #665, #313 ) ;
#880 = CARTESIAN_POINT ( 'NONE',  ( 45.00000000000000711, 0.000000000000000000, 120.0000000000000000 ) ) ;
#881 = CARTESIAN_POINT ( 'NONE',  ( -17.50000000000002132, 14.00000000000000178, 89.99999999999998579 ) ) ;
#882 = DATE_AND_TIME ( #668, #164 ) ;
#883 = VERTEX_POINT ( 'NONE', #279 ) ;
#884 = CC_DESIGN_DATE_AND_TIME_ASSIGNMENT ( #30, #404, ( #263 ) ) ;
#885 = FACE_OUTER_BOUND ( 'NONE', #385, .T. ) ;
#886 = CARTESIAN_POINT ( 'NONE',  ( -2.114974861910923210E-14, 12.50000000000000711, -116.0000000000000000 ) ) ;
#887 = ORIENTED_EDGE ( 'NONE', *, *, #32, .F. ) ;
#888 = CARTESIAN_POINT ( 'NONE',  ( 44.99999999999997158, 25.00000000000000000, 125.0000000000000000 ) ) ;
#889 = PLANE ( 'NONE',  #45 ) ;
#890 = VERTEX_POINT ( 'NONE', #714 ) ;
#891 = ORIENTED_EDGE ( 'NONE', *, *, #7, .F. ) ;
#892 = CARTESIAN_POINT ( 'NONE',  ( -17.50000000000002132, 25.00000000000000000, -89.99999999999998579 ) ) ;
#893 = CIRCLE ( 'NONE', #370, 12.49999999999999645 ) ;
#894 = EDGE_CURVE ( 'NONE', #890, #678, #492, .T. ) ;
#895 = CARTESIAN_POINT ( 'NONE',  ( 0.000000000000000000, 25.00000000000000000, 0.000000000000000000 ) ) ;
#896 = VECTOR ( 'NONE', #80, 1000.000000000000000 ) ;
#897 = ORIENTED_EDGE ( 'NONE', *, *, #856, .F. ) ;
#898 = AXIS2_PLACEMENT_3D ( 'NONE', #134, #151, #934 ) ;
#899 = ORIENTED_EDGE ( 'NONE', *, *, #565, .T. ) ;
#900 = AXIS2_PLACEMENT_3D ( 'NONE', #602, #598, #811 ) ;
#901 = CARTESIAN_POINT ( 'NONE',  ( -17.50000000000000000, -0.9999999999999974465, 85.49999999999998579 ) ) ;
#902 = CC_DESIGN_PERSON_AND_ORGANIZATION_ASSIGNMENT ( #204, #389, ( #263 ) ) ;
#903 = EDGE_LOOP ( 'NONE', ( #376, #672, #664, #258 ) ) ;
#904 = VERTEX_POINT ( 'NONE', #573 ) ;
#905 = CIRCLE ( 'NONE', #620, 8.000000000000007105 ) ;
#906 = DIRECTION ( 'NONE',  ( 0.000000000000000000, 0.000000000000000000, -1.000000000000000000 ) ) ;
#907 = ORIENTED_EDGE ( 'NONE', *, *, #475, .T. ) ;
#908 = DATE_AND_TIME ( #610, #793 ) ;
#909 = EDGE_CURVE ( 'NONE', #333, #358, #70, .T. ) ;
#910 = CARTESIAN_POINT ( 'NONE',  ( -2.081668171172168513E-14, 12.50000000000000711, -112.0000000000000000 ) ) ;
#911 = VERTEX_POINT ( 'NONE', #790 ) ;
#912 = ORIENTED_EDGE ( 'NONE', *, *, #1, .T. ) ;
#913 = EDGE_CURVE ( 'NONE', #31, #823, #278, .T. ) ;
#914 = CARTESIAN_POINT ( 'NONE',  ( -50.00000000000002132, 12.50000000000000711, -108.0000000000000000 ) ) ;
#915 = AXIS2_PLACEMENT_3D ( 'NONE', #245, #252, #447 ) ;
#916 = DIRECTION ( 'NONE',  ( 0.000000000000000000, 0.000000000000000000, -1.000000000000000000 ) ) ;
#917 = SECURITY_CLASSIFICATION_LEVEL ( 'unclassified' ) ;
#918 = ORIENTED_EDGE ( 'NONE', *, *, #575, .F. ) ;
#919 = DIRECTION ( 'NONE',  ( 0.000000000000000000, 0.000000000000000000, 1.000000000000000000 ) ) ;
#920 = ORIENTED_EDGE ( 'NONE', *, *, #475, .F. ) ;
#921 = VERTEX_POINT ( 'NONE', #291 ) ;
#922 = PLANE ( 'NONE',  #743 ) ;
#923 = ADVANCED_FACE ( 'NONE', ( #222 ), #795, .F. ) ;
#924 = FACE_BOUND ( 'NONE', #688, .T. ) ;
#925 = DIRECTION ( 'NONE',  ( 8.326672684688674053E-17, 0.000000000000000000, 1.000000000000000000 ) ) ;
#926 = EDGE_CURVE ( 'NONE', #49, #346, #87, .T. ) ;
#927 = AXIS2_PLACEMENT_3D ( 'NONE', #363, #130, #925 ) ;
#928 = ORIENTED_EDGE ( 'NONE', *, *, #606, .F. ) ;
#929 = CARTESIAN_POINT ( 'NONE',  ( -17.50000000000000000, 9.000000000000000000, 90.00000000000000000 ) ) ;
#930 = CARTESIAN_POINT ( 'NONE',  ( 44.99999999999997158, 25.00000000000000000, 125.0000000000000000 ) ) ;
#931 = CIRCLE ( 'NONE', #674, 8.000000000000007105 ) ;
#932 = ORIENTED_EDGE ( 'NONE', *, *, #435, .F. ) ;
#933 = DIRECTION ( 'NONE',  ( 0.000000000000000000, 0.000000000000000000, -1.000000000000000000 ) ) ;
#934 = DIRECTION ( 'NONE',  ( 8.326672684688674053E-17, 0.000000000000000000, 1.000000000000000000 ) ) ;
#935 = DIRECTION ( 'NONE',  ( -0.000000000000000000, -1.000000000000000000, -0.000000000000000000 ) ) ;
ENDSEC;
END-ISO-10303-21;
