ISO-10303-21;
HEADER;
FILE_DESCRIPTION (( 'STEP AP203' ),
    '1' );
FILE_NAME ('µçºÐÖ§³Ö¼Ü.STEP',
    '2024-10-08T10:10:31',
    ( '' ),
    ( '' ),
    'SwSTEP 2.0',
    'SolidWorks 2024',
    '' );
FILE_SCHEMA (( 'CONFIG_CONTROL_DESIGN' ));
ENDSEC;

DATA;
#1 = CARTESIAN_POINT ( 'NONE',  ( 162.0000000000000284, 10.00000000000001243, 6.000000000000000000 ) ) ;
#2 = CARTESIAN_POINT ( 'NONE',  ( 115.0000000000000000, 13.00000000000002132, 0.000000000000000000 ) ) ;
#3 = EDGE_CURVE ( 'NONE', #72, #422, #156, .T. ) ;
#4 = CARTESIAN_POINT ( 'NONE',  ( 15.00000000000000000, 10.00000000000000000, 6.000000000000000000 ) ) ;
#5 = DIRECTION ( 'NONE',  ( -0.000000000000000000, -0.000000000000000000, -1.000000000000000000 ) ) ;
#6 = ORIENTED_EDGE ( 'NONE', *, *, #398, .T. ) ;
#7 = DIRECTION ( 'NONE',  ( 1.000000000000000000, -1.908195823574488050E-16, 0.000000000000000000 ) ) ;
#8 = DIRECTION ( 'NONE',  ( 0.000000000000000000, -0.000000000000000000, 1.000000000000000000 ) ) ;
#9 = CARTESIAN_POINT ( 'NONE',  ( 0.000000000000000000, 20.00000000000000000, 6.000000000000000000 ) ) ;
#10 = VERTEX_POINT ( 'NONE', #12 ) ;
#11 = VECTOR ( 'NONE', #54, 1000.000000000000000 ) ;
#12 = CARTESIAN_POINT ( 'NONE',  ( 165.0000000000000284, 7.000000000000012434, 6.000000000000000000 ) ) ;
#13 = DIRECTION ( 'NONE',  ( -0.000000000000000000, -0.000000000000000000, -1.000000000000000000 ) ) ;
#14 = CARTESIAN_POINT ( 'NONE',  ( 165.0000000000000284, 10.00000000000001243, 6.000000000000000000 ) ) ;
#15 = VECTOR ( 'NONE', #94, 1000.000000000000000 ) ;
#16 = ORIENTED_EDGE ( 'NONE', *, *, #370, .F. ) ;
#17 = LINE ( 'NONE', #200, #242 ) ;
#18 = ORIENTED_EDGE ( 'NONE', *, *, #43, .F. ) ;
#19 = ORIENTED_EDGE ( 'NONE', *, *, #3, .F. ) ;
#20 = DIRECTION ( 'NONE',  ( 0.000000000000000000, 0.000000000000000000, -1.000000000000000000 ) ) ;
#21 = ORIENTED_EDGE ( 'NONE', *, *, #95, .T. ) ;
#22 = VECTOR ( 'NONE', #358, 1000.000000000000000 ) ;
#23 = ORIENTED_EDGE ( 'NONE', *, *, #73, .T. ) ;
#24 = ORIENTED_EDGE ( 'NONE', *, *, #213, .F. ) ;
#25 = FACE_OUTER_BOUND ( 'NONE', #159, .T. ) ;
#26 = VECTOR ( 'NONE', #319, 1000.000000000000000 ) ;
#27 = DATE_AND_TIME ( #523, #334 ) ;
#28 = CYLINDRICAL_SURFACE ( 'NONE', #474, 3.000000000000002665 ) ;
#29 = DIRECTION ( 'NONE',  ( -1.000000000000000000, 1.821459649775647696E-16, 0.000000000000000000 ) ) ;
#30 = AXIS2_PLACEMENT_3D ( 'NONE', #280, #191, #330 ) ;
#31 = EDGE_CURVE ( 'NONE', #257, #10, #391, .T. ) ;
#32 = PERSON_AND_ORGANIZATION_ROLE ( 'classification_officer' ) ;
#33 = CARTESIAN_POINT ( 'NONE',  ( 0.000000000000000000, 0.000000000000000000, 0.000000000000000000 ) ) ;
#34 = DIRECTION ( 'NONE',  ( -1.000000000000000000, -1.821459649775647449E-16, 0.000000000000000000 ) ) ;
#35 = AXIS2_PLACEMENT_3D ( 'NONE', #491, #359, #172 ) ;
#36 = DIRECTION ( 'NONE',  ( 1.821459649775647696E-16, 1.000000000000000000, -0.000000000000000000 ) ) ;
#37 = LINE ( 'NONE', #535, #99 ) ;
#38 = PERSON_AND_ORGANIZATION ( #371, #57 ) ;
#39 = FACE_BOUND ( 'NONE', #248, .T. ) ;
#40 = VECTOR ( 'NONE', #525, 1000.000000000000000 ) ;
#41 = DIRECTION ( 'NONE',  ( -0.000000000000000000, -0.000000000000000000, -1.000000000000000000 ) ) ;
#42 = LINE ( 'NONE', #543, #224 ) ;
#43 = EDGE_CURVE ( 'NONE', #348, #140, #285, .T. ) ;
#44 = ORIENTED_EDGE ( 'NONE', *, *, #546, .T. ) ;
#45 = FACE_OUTER_BOUND ( 'NONE', #565, .T. ) ;
#46 = CARTESIAN_POINT ( 'NONE',  ( 15.00000000000000000, 13.00000000000000355, 6.000000000000000000 ) ) ;
#47 = ORIENTED_EDGE ( 'NONE', *, *, #69, .F. ) ;
#48 = CYLINDRICAL_SURFACE ( 'NONE', #494, 3.000000000000002665 ) ;
#49 = VECTOR ( 'NONE', #344, 1000.000000000000000 ) ;
#50 = CARTESIAN_POINT ( 'NONE',  ( 0.000000000000000000, 20.00000000000000000, 0.000000000000000000 ) ) ;
#51 = CC_DESIGN_APPROVAL ( #289, ( #439 ) ) ;
#52 = ORIENTED_EDGE ( 'NONE', *, *, #241, .T. ) ;
#53 = CARTESIAN_POINT ( 'NONE',  ( 0.000000000000000000, 0.000000000000000000, 6.000000000000000000 ) ) ;
#54 = DIRECTION ( 'NONE',  ( -0.000000000000000000, -0.000000000000000000, -1.000000000000000000 ) ) ;
#55 = VERTEX_POINT ( 'NONE', #70 ) ;
#56 = AXIS2_PLACEMENT_3D ( 'NONE', #91, #221, #7 ) ;
#57 = ORGANIZATION ( 'æœª', 'æœª', '' ) ;
#58 = DIRECTION ( 'NONE',  ( -1.000000000000000000, -0.000000000000000000, -0.000000000000000000 ) ) ;
#59 = ADVANCED_FACE ( 'NONE', ( #105 ), #470, .F. ) ;
#60 = VERTEX_POINT ( 'NONE', #238 ) ;
#61 = DIRECTION ( 'NONE',  ( 0.000000000000000000, 0.000000000000000000, -1.000000000000000000 ) ) ;
#62 = CARTESIAN_POINT ( 'NONE',  ( 15.00000000000000000, 10.00000000000000000, 6.000000000000000000 ) ) ;
#63 = VECTOR ( 'NONE', #228, 1000.000000000000000 ) ;
#64 = EDGE_CURVE ( 'NONE', #205, #339, #418, .T. ) ;
#65 = ORIENTED_EDGE ( 'NONE', *, *, #519, .F. ) ;
#66 = FACE_BOUND ( 'NONE', #107, .T. ) ;
#67 = ORIENTED_EDGE ( 'NONE', *, *, #158, .F. ) ;
#68 = ORIENTED_EDGE ( 'NONE', *, *, #80, .F. ) ;
#69 = EDGE_CURVE ( 'NONE', #75, #205, #190, .T. ) ;
#70 = CARTESIAN_POINT ( 'NONE',  ( 15.00000000000000000, 6.999999999999997335, 6.000000000000000000 ) ) ;
#71 = ORIENTED_EDGE ( 'NONE', *, *, #416, .F. ) ;
#72 = VERTEX_POINT ( 'NONE', #514 ) ;
#73 = EDGE_CURVE ( 'NONE', #203, #419, #145, .T. ) ;
#74 = AXIS2_PLACEMENT_3D ( 'NONE', #337, #189, #61 ) ;
#75 = VERTEX_POINT ( 'NONE', #466 ) ;
#76 = SHAPE_DEFINITION_REPRESENTATION ( #271, #151 ) ;
#77 = LINE ( 'NONE', #169, #540 ) ;
#78 = VECTOR ( 'NONE', #382, 1000.000000000000000 ) ;
#79 = DATE_AND_TIME ( #83, #455 ) ;
#80 = EDGE_CURVE ( 'NONE', #60, #72, #504, .T. ) ;
#81 = PERSON_AND_ORGANIZATION ( #371, #57 ) ;
#82 = CARTESIAN_POINT ( 'NONE',  ( 115.0000000000000000, 7.000000000000016875, 6.000000000000000000 ) ) ;
#83 = CALENDAR_DATE ( 2024, 8, 10 ) ;
#84 = DIRECTION ( 'NONE',  ( 0.000000000000000000, -0.000000000000000000, -1.000000000000000000 ) ) ;
#85 = EDGE_CURVE ( 'NONE', #98, #465, #508, .T. ) ;
#86 = PERSON_AND_ORGANIZATION_ROLE ( 'design_owner' ) ;
#87 = LINE ( 'NONE', #324, #331 ) ;
#88 = CARTESIAN_POINT ( 'NONE',  ( 0.000000000000000000, 0.000000000000000000, 0.000000000000000000 ) ) ;
#89 = ORIENTED_EDGE ( 'NONE', *, *, #512, .T. ) ;
#90 = AXIS2_PLACEMENT_3D ( 'NONE', #493, #403, #272 ) ;
#91 = CARTESIAN_POINT ( 'NONE',  ( 265.0000000000000000, 12.99999999999999645, 6.000000000000000000 ) ) ;
#92 = DESIGN_CONTEXT ( 'detailed design', #206, 'design' ) ;
#93 = DIRECTION ( 'NONE',  ( 0.000000000000000000, -1.000000000000000000, 0.000000000000000000 ) ) ;
#94 = DIRECTION ( 'NONE',  ( -0.000000000000000000, -0.000000000000000000, -1.000000000000000000 ) ) ;
#95 = EDGE_CURVE ( 'NONE', #524, #98, #282, .T. ) ;
#96 = CARTESIAN_POINT ( 'NONE',  ( 165.0000000000000284, 7.000000000000011546, 0.000000000000000000 ) ) ;
#97 = CARTESIAN_POINT ( 'NONE',  ( 162.0000000000000284, 10.00000000000001243, 0.000000000000000000 ) ) ;
#98 = VERTEX_POINT ( 'NONE', #244 ) ;
#99 = VECTOR ( 'NONE', #125, 1000.000000000000000 ) ;
#100 = CARTESIAN_POINT ( 'NONE',  ( 0.000000000000000000, 20.00000000000000000, 6.000000000000000000 ) ) ;
#101 = DIRECTION ( 'NONE',  ( 0.000000000000000000, 1.000000000000000000, 0.000000000000000000 ) ) ;
#102 = CC_DESIGN_DATE_AND_TIME_ASSIGNMENT ( #123, #401, ( #176 ) ) ;
#103 = ORIENTED_EDGE ( 'NONE', *, *, #406, .F. ) ;
#104 = VECTOR ( 'NONE', #380, 1000.000000000000000 ) ;
#105 = FACE_OUTER_BOUND ( 'NONE', #433, .T. ) ;
#106 = EDGE_CURVE ( 'NONE', #281, #513, #17, .T. ) ;
#107 = EDGE_LOOP ( 'NONE', ( #103, #199, #229, #24, #67 ) ) ;
#108 = FACE_BOUND ( 'NONE', #343, .T. ) ;
#109 = EDGE_LOOP ( 'NONE', ( #552, #47, #445, #89 ) ) ;
#110 = PLANE ( 'NONE',  #265 ) ;
#111 = DIRECTION ( 'NONE',  ( 0.000000000000000000, 0.000000000000000000, 1.000000000000000000 ) ) ;
#112 = APPROVAL ( #536, 'æœª' ) ;
#113 = ORIENTED_EDGE ( 'NONE', *, *, #309, .T. ) ;
#114 = DIRECTION ( 'NONE',  ( 1.908195823574487804E-16, -1.000000000000000000, 0.000000000000000000 ) ) ;
#115 = LOCAL_TIME ( 18, 10, 31.00000000000000000, #405 ) ;
#116 = ORIENTED_EDGE ( 'NONE', *, *, #362, .F. ) ;
#117 = DIRECTION ( 'NONE',  ( 1.000000000000000000, -1.821459649775647696E-16, -0.000000000000000000 ) ) ;
#118 = VECTOR ( 'NONE', #117, 1000.000000000000000 ) ;
#119 = APPROVAL_STATUS ( 'not_yet_approved' ) ;
#120 = PRODUCT ( '\X2\753576d2652f630167b6\X0\', '\X2\753576d2652f630167b6\X0\', '', ( #587 ) ) ;
#121 = EDGE_CURVE ( 'NONE', #60, #55, #259, .T. ) ;
#122 = CARTESIAN_POINT ( 'NONE',  ( 265.0000000000000000, 6.999999999999993783, 6.000000000000000000 ) ) ;
#123 = DATE_AND_TIME ( #315, #235 ) ;
#124 = AXIS2_PLACEMENT_3D ( 'NONE', #364, #542, #501 ) ;
#125 = DIRECTION ( 'NONE',  ( 0.000000000000000000, 1.000000000000000000, 0.000000000000000000 ) ) ;
#126 = PERSON_AND_ORGANIZATION ( #371, #57 ) ;
#127 = ADVANCED_FACE ( 'NONE', ( #108, #293, #66 ), #251, .F. ) ;
#128 = FACE_OUTER_BOUND ( 'NONE', #204, .T. ) ;
#129 = APPROVAL_DATE_TIME ( #79, #289 ) ;
#130 = VECTOR ( 'NONE', #148, 1000.000000000000000 ) ;
#131 = CARTESIAN_POINT ( 'NONE',  ( 15.00000000000000000, 6.999999999999997335, 6.000000000000000000 ) ) ;
#132 = VECTOR ( 'NONE', #311, 1000.000000000000000 ) ;
#133 = ORIENTED_EDGE ( 'NONE', *, *, #406, .T. ) ;
#134 = CYLINDRICAL_SURFACE ( 'NONE', #247, 3.000000000000002665 ) ;
#135 = CARTESIAN_POINT ( 'NONE',  ( 165.0000000000000284, 10.00000000000001243, 0.000000000000000000 ) ) ;
#136 = VERTEX_POINT ( 'NONE', #256 ) ;
#137 = VECTOR ( 'NONE', #409, 1000.000000000000000 ) ;
#138 = DIRECTION ( 'NONE',  ( -1.000000000000000000, 0.000000000000000000, 0.000000000000000000 ) ) ;
#139 = LINE ( 'NONE', #413, #505 ) ;
#140 = VERTEX_POINT ( 'NONE', #573 ) ;
#141 = PLANE ( 'NONE',  #207 ) ;
#142 = DIRECTION ( 'NONE',  ( 1.000000000000000000, 1.821459649775647449E-16, 0.000000000000000000 ) ) ;
#143 = CIRCLE ( 'NONE', #489, 3.000000000000002665 ) ;
#144 = CARTESIAN_POINT ( 'NONE',  ( 280.0000000000000000, 0.000000000000000000, 6.000000000000000000 ) ) ;
#145 = LINE ( 'NONE', #329, #563 ) ;
#146 = DIRECTION ( 'NONE',  ( 1.000000000000000000, 0.000000000000000000, 0.000000000000000000 ) ) ;
#147 = ORIENTED_EDGE ( 'NONE', *, *, #167, .T. ) ;
#148 = DIRECTION ( 'NONE',  ( -0.000000000000000000, -0.000000000000000000, -1.000000000000000000 ) ) ;
#149 = APPROVAL_PERSON_ORGANIZATION ( #219, #289, #171 ) ;
#150 = ORIENTED_EDGE ( 'NONE', *, *, #80, .T. ) ;
#151 = ADVANCED_BREP_SHAPE_REPRESENTATION ( '\X2\753576d2652f630167b6\X0\', ( #222, #35 ), #461 ) ;
#152 = PLANE ( 'NONE',  #74 ) ;
#153 = DIRECTION ( 'NONE',  ( 1.000000000000000000, 0.000000000000000000, 0.000000000000000000 ) ) ;
#154 = EDGE_CURVE ( 'NONE', #98, #162, #400, .T. ) ;
#155 = ORIENTED_EDGE ( 'NONE', *, *, #370, .T. ) ;
#156 = CIRCLE ( 'NONE', #340, 3.000000000000002665 ) ;
#157 = DIRECTION ( 'NONE',  ( 1.000000000000000000, 0.000000000000000000, 0.000000000000000000 ) ) ;
#158 = EDGE_CURVE ( 'NONE', #75, #322, #77, .T. ) ;
#159 = EDGE_LOOP ( 'NONE', ( #503, #428, #44, #346 ) ) ;
#160 = DIRECTION ( 'NONE',  ( -0.000000000000000000, -0.000000000000000000, -1.000000000000000000 ) ) ;
#161 = ADVANCED_FACE ( 'NONE', ( #481 ), #449, .T. ) ;
#162 = VERTEX_POINT ( 'NONE', #313 ) ;
#163 = DIRECTION ( 'NONE',  ( -0.000000000000000000, -0.000000000000000000, -1.000000000000000000 ) ) ;
#164 = VERTEX_POINT ( 'NONE', #323 ) ;
#165 = VECTOR ( 'NONE', #160, 1000.000000000000000 ) ;
#166 = DIRECTION ( 'NONE',  ( 1.000000000000000000, 0.000000000000000000, 0.000000000000000000 ) ) ;
#167 = EDGE_CURVE ( 'NONE', #55, #422, #545, .T. ) ;
#168 = AXIS2_PLACEMENT_3D ( 'NONE', #502, #13, #316 ) ;
#169 = CARTESIAN_POINT ( 'NONE',  ( 265.0000000000000000, 12.99999999999999645, 6.000000000000000000 ) ) ;
#170 = ADVANCED_FACE ( 'NONE', ( #128 ), #134, .F. ) ;
#171 = APPROVAL_ROLE ( '' ) ;
#172 = DIRECTION ( 'NONE',  ( 1.000000000000000000, 0.000000000000000000, 0.000000000000000000 ) ) ;
#173 = CARTESIAN_POINT ( 'NONE',  ( 0.000000000000000000, 20.00000000000000000, 0.000000000000000000 ) ) ;
#174 = APPLICATION_PROTOCOL_DEFINITION ( 'international standard', 'config_control_design', 1994, #277 ) ;
#175 = VECTOR ( 'NONE', #142, 1000.000000000000000 ) ;
#176 = SECURITY_CLASSIFICATION ( '', '', #361 ) ;
#177 = LINE ( 'NONE', #269, #15 ) ;
#178 = COORDINATED_UNIVERSAL_TIME_OFFSET ( 8, 0, .AHEAD. ) ;
#179 = DIRECTION ( 'NONE',  ( 0.000000000000000000, 0.000000000000000000, 1.000000000000000000 ) ) ;
#180 = CLOSED_SHELL ( 'NONE', ( #196, #170, #127, #568, #424, #59, #274, #249, #262, #581, #258, #515, #410, #161, #432, #530 ) ) ;
#181 = CC_DESIGN_PERSON_AND_ORGANIZATION_ASSIGNMENT ( #126, #533, ( #439 ) ) ;
#182 = CARTESIAN_POINT ( 'NONE',  ( 0.000000000000000000, 20.00000000000000000, 6.000000000000000000 ) ) ;
#183 = DIRECTION ( 'NONE',  ( 0.000000000000000000, 0.000000000000000000, 1.000000000000000000 ) ) ;
#184 = VERTEX_POINT ( 'NONE', #173 ) ;
#185 = CARTESIAN_POINT ( 'NONE',  ( 15.00000000000000000, 10.00000000000000000, 6.000000000000000000 ) ) ;
#186 = EDGE_CURVE ( 'NONE', #339, #411, #395, .T. ) ;
#187 = DIRECTION ( 'NONE',  ( 0.000000000000000000, 0.000000000000000000, 1.000000000000000000 ) ) ;
#188 = ORIENTED_EDGE ( 'NONE', *, *, #3, .T. ) ;
#189 = DIRECTION ( 'NONE',  ( 1.000000000000000000, 0.000000000000000000, 0.000000000000000000 ) ) ;
#190 = LINE ( 'NONE', #338, #130 ) ;
#191 = DIRECTION ( 'NONE',  ( 0.000000000000000000, 0.000000000000000000, 1.000000000000000000 ) ) ;
#192 = CIRCLE ( 'NONE', #299, 3.000000000000002665 ) ;
#193 = ORIENTED_EDGE ( 'NONE', *, *, #499, .T. ) ;
#194 = UNCERTAINTY_MEASURE_WITH_UNIT (LENGTH_MEASURE( 1.000000000000000082E-05 ), #215, 'distance_accuracy_value', 'NONE');
#195 = DIRECTION ( 'NONE',  ( -1.000000000000000000, 0.000000000000000000, 0.000000000000000000 ) ) ;
#196 = ADVANCED_FACE ( 'NONE', ( #490 ), #48, .F. ) ;
#197 = CIRCLE ( 'NONE', #90, 3.000000000000002665 ) ;
#198 = CARTESIAN_POINT ( 'NONE',  ( 265.0000000000000000, 12.99999999999999645, 0.000000000000000000 ) ) ;
#199 = ORIENTED_EDGE ( 'NONE', *, *, #478, .F. ) ;
#200 = CARTESIAN_POINT ( 'NONE',  ( 0.000000000000000000, 0.000000000000000000, 6.000000000000000000 ) ) ;
#201 = ORIENTED_EDGE ( 'NONE', *, *, #106, .F. ) ;
#202 = CARTESIAN_POINT ( 'NONE',  ( 0.000000000000000000, 0.000000000000000000, 0.000000000000000000 ) ) ;
#203 = VERTEX_POINT ( 'NONE', #82 ) ;
#204 = EDGE_LOOP ( 'NONE', ( #488, #150, #71, #374 ) ) ;
#205 = VERTEX_POINT ( 'NONE', #442 ) ;
#206 = APPLICATION_CONTEXT ( 'configuration controlled 3d designs of mechanical parts and assemblies' ) ;
#207 = AXIS2_PLACEMENT_3D ( 'NONE', #227, #236, #179 ) ;
#208 = ORIENTED_EDGE ( 'NONE', *, *, #303, .T. ) ;
#209 = ORIENTED_EDGE ( 'NONE', *, *, #64, .T. ) ;
#210 = CARTESIAN_POINT ( 'NONE',  ( 15.00000000000000000, 13.00000000000000355, 0.000000000000000000 ) ) ;
#211 = DIRECTION ( 'NONE',  ( -1.821459649775647449E-16, 1.000000000000000000, 0.000000000000000000 ) ) ;
#212 = LINE ( 'NONE', #210, #40 ) ;
#213 = EDGE_CURVE ( 'NONE', #322, #257, #197, .T. ) ;
#214 = CIRCLE ( 'NONE', #30, 3.000000000000002665 ) ;
#215 =( LENGTH_UNIT ( ) NAMED_UNIT ( * ) SI_UNIT ( .MILLI., .METRE. ) );
#216 = COORDINATED_UNIVERSAL_TIME_OFFSET ( 8, 0, .AHEAD. ) ;
#217 = DIRECTION ( 'NONE',  ( 0.000000000000000000, 0.000000000000000000, -1.000000000000000000 ) ) ;
#218 = LOCAL_TIME ( 18, 10, 31.00000000000000000, #216 ) ;
#219 = PERSON_AND_ORGANIZATION ( #371, #57 ) ;
#220 = CARTESIAN_POINT ( 'NONE',  ( 115.0000000000000000, 10.00000000000001954, 6.000000000000000000 ) ) ;
#221 = DIRECTION ( 'NONE',  ( -1.908195823574488050E-16, -1.000000000000000000, 0.000000000000000000 ) ) ;
#222 = MANIFOLD_SOLID_BREP ( 'Í¹Ì¨-À­Éì2', #180 ) ;
#223 = APPLICATION_PROTOCOL_DEFINITION ( 'international standard', 'config_control_design', 1994, #206 ) ;
#224 = VECTOR ( 'NONE', #146, 1000.000000000000000 ) ;
#225 = DIRECTION ( 'NONE',  ( -1.000000000000000000, 0.000000000000000000, -0.000000000000000000 ) ) ;
#226 = APPROVAL_PERSON_ORGANIZATION ( #584, #112, #487 ) ;
#227 = CARTESIAN_POINT ( 'NONE',  ( 280.0000000000000000, 0.000000000000000000, 6.000000000000000000 ) ) ;
#228 = DIRECTION ( 'NONE',  ( -0.000000000000000000, -0.000000000000000000, -1.000000000000000000 ) ) ;
#229 = ORIENTED_EDGE ( 'NONE', *, *, #31, .F. ) ;
#230 = CARTESIAN_POINT ( 'NONE',  ( 15.00000000000000000, 6.999999999999997335, 0.000000000000000000 ) ) ;
#231 = AXIS2_PLACEMENT_3D ( 'NONE', #53, #101, #8 ) ;
#232 = LINE ( 'NONE', #553, #137 ) ;
#233 = EDGE_LOOP ( 'NONE', ( #417, #472, #384, #548 ) ) ;
#234 = DIRECTION ( 'NONE',  ( -0.000000000000000000, -0.000000000000000000, -1.000000000000000000 ) ) ;
#235 = LOCAL_TIME ( 18, 10, 31.00000000000000000, #178 ) ;
#236 = DIRECTION ( 'NONE',  ( -1.000000000000000000, 0.000000000000000000, 0.000000000000000000 ) ) ;
#237 = CARTESIAN_POINT ( 'NONE',  ( 265.0000000000000000, 9.999999999999992895, 0.000000000000000000 ) ) ;
#238 = CARTESIAN_POINT ( 'NONE',  ( 11.99999999999999645, 10.00000000000000000, 6.000000000000000000 ) ) ;
#239 = CC_DESIGN_PERSON_AND_ORGANIZATION_ASSIGNMENT ( #38, #32, ( #176 ) ) ;
#240 = CARTESIAN_POINT ( 'NONE',  ( 15.00000000000000000, 6.999999999999997335, 0.000000000000000000 ) ) ;
#241 = EDGE_CURVE ( 'NONE', #422, #419, #365, .T. ) ;
#242 = VECTOR ( 'NONE', #463, 1000.000000000000000 ) ;
#243 = AXIS2_PLACEMENT_3D ( 'NONE', #131, #211, #34 ) ;
#244 = CARTESIAN_POINT ( 'NONE',  ( 280.0000000000000000, 20.00000000000000000, 6.000000000000000000 ) ) ;
#245 = ORIENTED_EDGE ( 'NONE', *, *, #451, .T. ) ;
#246 = FACE_OUTER_BOUND ( 'NONE', #345, .T. ) ;
#247 = AXIS2_PLACEMENT_3D ( 'NONE', #4, #498, #360 ) ;
#248 = EDGE_LOOP ( 'NONE', ( #113, #155, #209, #555, #544 ) ) ;
#249 = ADVANCED_FACE ( 'NONE', ( #412 ), #446, .F. ) ;
#250 = ORIENTED_EDGE ( 'NONE', *, *, #121, .T. ) ;
#251 = PLANE ( 'NONE',  #312 ) ;
#252 = ORIENTED_EDGE ( 'NONE', *, *, #31, .T. ) ;
#253 = DIRECTION ( 'NONE',  ( -1.000000000000000000, 0.000000000000000000, -0.000000000000000000 ) ) ;
#254 = EDGE_LOOP ( 'NONE', ( #462, #6, #379, #431 ) ) ;
#255 = CARTESIAN_POINT ( 'NONE',  ( 0.000000000000000000, 20.00000000000000000, 6.000000000000000000 ) ) ;
#256 = CARTESIAN_POINT ( 'NONE',  ( 15.00000000000000000, 13.00000000000000355, -0.000000000000000000 ) ) ;
#257 = VERTEX_POINT ( 'NONE', #1 ) ;
#258 = ADVANCED_FACE ( 'NONE', ( #45 ), #276, .F. ) ;
#259 = CIRCLE ( 'NONE', #511, 3.000000000000002665 ) ;
#260 = PERSON_AND_ORGANIZATION ( #371, #57 ) ;
#261 = CC_DESIGN_PERSON_AND_ORGANIZATION_ASSIGNMENT ( #260, #438, ( #439 ) ) ;
#262 = ADVANCED_FACE ( 'NONE', ( #408 ), #267, .F. ) ;
#263 = PLANE ( 'NONE',  #522 ) ;
#264 = DIRECTION ( 'NONE',  ( -1.000000000000000000, 0.000000000000000000, 0.000000000000000000 ) ) ;
#265 = AXIS2_PLACEMENT_3D ( 'NONE', #576, #114, #347 ) ;
#266 = DATE_AND_TIME ( #268, #218 ) ;
#267 = CYLINDRICAL_SURFACE ( 'NONE', #453, 3.000000000000002665 ) ;
#268 = CALENDAR_DATE ( 2024, 8, 10 ) ;
#269 = CARTESIAN_POINT ( 'NONE',  ( 115.0000000000000000, 13.00000000000002132, 6.000000000000000000 ) ) ;
#270 = ORIENTED_EDGE ( 'NONE', *, *, #309, .F. ) ;
#271 = PRODUCT_DEFINITION_SHAPE ( 'NONE', 'NONE',  #327 ) ;
#272 = DIRECTION ( 'NONE',  ( -1.000000000000000000, 0.000000000000000000, 0.000000000000000000 ) ) ;
#273 = CARTESIAN_POINT ( 'NONE',  ( 265.0000000000000000, 6.999999999999993783, 0.000000000000000000 ) ) ;
#274 = ADVANCED_FACE ( 'NONE', ( #549 ), #141, .F. ) ;
#275 = EDGE_LOOP ( 'NONE', ( #427, #448, #469, #23 ) ) ;
#276 = CYLINDRICAL_SURFACE ( 'NONE', #528, 3.000000000000002665 ) ;
#277 = APPLICATION_CONTEXT ( 'configuration controlled 3d designs of mechanical parts and assemblies' ) ;
#278 = ORIENTED_EDGE ( 'NONE', *, *, #398, .F. ) ;
#279 = DIRECTION ( 'NONE',  ( 1.000000000000000000, 1.821459649775647449E-16, 0.000000000000000000 ) ) ;
#280 = CARTESIAN_POINT ( 'NONE',  ( 15.00000000000000000, 10.00000000000000000, 0.000000000000000000 ) ) ;
#281 = VERTEX_POINT ( 'NONE', #440 ) ;
#282 = LINE ( 'NONE', #559, #78 ) ;
#283 = CARTESIAN_POINT ( 'NONE',  ( 165.0000000000000284, 13.00000000000001421, 6.000000000000000000 ) ) ;
#284 = ORIENTED_EDGE ( 'NONE', *, *, #306, .F. ) ;
#285 = LINE ( 'NONE', #372, #479 ) ;
#286 = VECTOR ( 'NONE', #58, 1000.000000000000000 ) ;
#287 = ORIENTED_EDGE ( 'NONE', *, *, #328, .F. ) ;
#288 = CARTESIAN_POINT ( 'NONE',  ( 11.99999999999999645, 10.00000000000000000, 6.000000000000000000 ) ) ;
#289 = APPROVAL ( #354, 'æœª' ) ;
#290 = ORIENTED_EDGE ( 'NONE', *, *, #554, .F. ) ;
#291 = CARTESIAN_POINT ( 'NONE',  ( 280.0000000000000000, 0.000000000000000000, 0.000000000000000000 ) ) ;
#292 = VECTOR ( 'NONE', #279, 1000.000000000000000 ) ;
#293 = FACE_OUTER_BOUND ( 'NONE', #556, .T. ) ;
#294 = EDGE_CURVE ( 'NONE', #419, #414, #302, .T. ) ;
#295 = ORIENTED_EDGE ( 'NONE', *, *, #294, .T. ) ;
#296 = DIRECTION ( 'NONE',  ( 0.000000000000000000, 0.000000000000000000, 1.000000000000000000 ) ) ;
#297 = EDGE_LOOP ( 'NONE', ( #16, #18, #133, #366 ) ) ;
#298 = VERTEX_POINT ( 'NONE', #96 ) ;
#299 = AXIS2_PLACEMENT_3D ( 'NONE', #521, #300, #166 ) ;
#300 = DIRECTION ( 'NONE',  ( 0.000000000000000000, 0.000000000000000000, 1.000000000000000000 ) ) ;
#301 = EDGE_LOOP ( 'NONE', ( #208, #560, #520, #381 ) ) ;
#302 = CIRCLE ( 'NONE', #124, 3.000000000000002665 ) ;
#303 = EDGE_CURVE ( 'NONE', #162, #184, #586, .T. ) ;
#304 = DIRECTION ( 'NONE',  ( -1.000000000000000000, -1.908195823574487804E-16, -0.000000000000000000 ) ) ;
#305 = CALENDAR_DATE ( 2024, 8, 10 ) ;
#306 = EDGE_CURVE ( 'NONE', #471, #162, #37, .T. ) ;
#307 = EDGE_CURVE ( 'NONE', #164, #414, #177, .T. ) ;
#308 = PERSON_AND_ORGANIZATION_ROLE ( 'creator' ) ;
#309 = EDGE_CURVE ( 'NONE', #298, #140, #320, .T. ) ;
#310 = CARTESIAN_POINT ( 'NONE',  ( 165.0000000000000284, 10.00000000000001243, 6.000000000000000000 ) ) ;
#311 = DIRECTION ( 'NONE',  ( 1.000000000000000000, 0.000000000000000000, 0.000000000000000000 ) ) ;
#312 = AXIS2_PLACEMENT_3D ( 'NONE', #430, #20, #253 ) ;
#313 = CARTESIAN_POINT ( 'NONE',  ( 280.0000000000000000, 20.00000000000000000, 0.000000000000000000 ) ) ;
#314 = VECTOR ( 'NONE', #304, 1000.000000000000000 ) ;
#315 = CALENDAR_DATE ( 2024, 8, 10 ) ;
#316 = DIRECTION ( 'NONE',  ( -1.000000000000000000, 0.000000000000000000, 0.000000000000000000 ) ) ;
#317 = LINE ( 'NONE', #531, #314 ) ;
#318 = EDGE_LOOP ( 'NONE', ( #245, #518, #188, #52, #295 ) ) ;
#319 = DIRECTION ( 'NONE',  ( -0.000000000000000000, -0.000000000000000000, -1.000000000000000000 ) ) ;
#320 = LINE ( 'NONE', #273, #434 ) ;
#321 = AXIS2_PLACEMENT_3D ( 'NONE', #135, #187, #492 ) ;
#322 = VERTEX_POINT ( 'NONE', #283 ) ;
#323 = CARTESIAN_POINT ( 'NONE',  ( 115.0000000000000000, 13.00000000000002132, 6.000000000000000000 ) ) ;
#324 = CARTESIAN_POINT ( 'NONE',  ( 162.0000000000000284, 10.00000000000001243, 6.000000000000000000 ) ) ;
#325 = DIRECTION ( 'NONE',  ( -1.000000000000000000, 0.000000000000000000, 0.000000000000000000 ) ) ;
#326 = CYLINDRICAL_SURFACE ( 'NONE', #168, 3.000000000000002665 ) ;
#327 = PRODUCT_DEFINITION ( 'æœ', '', #439, #92 ) ;
#328 = EDGE_CURVE ( 'NONE', #281, #524, #42, .T. ) ;
#329 = CARTESIAN_POINT ( 'NONE',  ( 115.0000000000000000, 7.000000000000016875, 6.000000000000000000 ) ) ;
#330 = DIRECTION ( 'NONE',  ( 1.000000000000000000, 0.000000000000000000, 0.000000000000000000 ) ) ;
#331 = VECTOR ( 'NONE', #5, 1000.000000000000000 ) ;
#332 = ORIENTED_EDGE ( 'NONE', *, *, #106, .T. ) ;
#333 = EDGE_CURVE ( 'NONE', #411, #298, #378, .T. ) ;
#334 = LOCAL_TIME ( 18, 10, 31.00000000000000000, #441 ) ;
#335 = DIRECTION ( 'NONE',  ( -0.000000000000000000, -0.000000000000000000, -1.000000000000000000 ) ) ;
#336 = EDGE_LOOP ( 'NONE', ( #473, #467, #284, #290 ) ) ;
#337 = CARTESIAN_POINT ( 'NONE',  ( 0.000000000000000000, 0.000000000000000000, 6.000000000000000000 ) ) ;
#338 = CARTESIAN_POINT ( 'NONE',  ( 265.0000000000000000, 12.99999999999999645, 6.000000000000000000 ) ) ;
#339 = VERTEX_POINT ( 'NONE', #550 ) ;
#340 = AXIS2_PLACEMENT_3D ( 'NONE', #510, #111, #153 ) ;
#341 = EDGE_LOOP ( 'NONE', ( #270, #564, #383, #436 ) ) ;
#342 = CARTESIAN_POINT ( 'NONE',  ( 265.0000000000000000, 6.999999999999993783, 6.000000000000000000 ) ) ;
#343 = EDGE_LOOP ( 'NONE', ( #65, #458, #500, #116, #516 ) ) ;
#344 = DIRECTION ( 'NONE',  ( -0.000000000000000000, -0.000000000000000000, -1.000000000000000000 ) ) ;
#345 = EDGE_LOOP ( 'NONE', ( #278, #252, #193, #570 ) ) ;
#346 = ORIENTED_EDGE ( 'NONE', *, *, #394, .T. ) ;
#347 = DIRECTION ( 'NONE',  ( 1.000000000000000000, 1.908195823574487804E-16, 0.000000000000000000 ) ) ;
#348 = VERTEX_POINT ( 'NONE', #557 ) ;
#349 = EDGE_CURVE ( 'NONE', #465, #281, #232, .T. ) ;
#350 = AXIS2_PLACEMENT_3D ( 'NONE', #457, #183, #195 ) ;
#351 = CARTESIAN_POINT ( 'NONE',  ( 280.0000000000000000, 20.00000000000000000, 6.000000000000000000 ) ) ;
#352 = EDGE_CURVE ( 'NONE', #465, #184, #377, .T. ) ;
#353 = DIRECTION ( 'NONE',  ( -1.000000000000000000, 1.908195823574488050E-16, 0.000000000000000000 ) ) ;
#354 = APPROVAL_STATUS ( 'not_yet_approved' ) ;
#355 =( NAMED_UNIT ( * ) PLANE_ANGLE_UNIT ( ) SI_UNIT ( $, .RADIAN. ) );
#356 = PLANE ( 'NONE',  #575 ) ;
#357 = COORDINATED_UNIVERSAL_TIME_OFFSET ( 8, 0, .AHEAD. ) ;
#358 = DIRECTION ( 'NONE',  ( -1.000000000000000000, -0.000000000000000000, -0.000000000000000000 ) ) ;
#359 = DIRECTION ( 'NONE',  ( 0.000000000000000000, 0.000000000000000000, 1.000000000000000000 ) ) ;
#360 = DIRECTION ( 'NONE',  ( -1.000000000000000000, 0.000000000000000000, 0.000000000000000000 ) ) ;
#361 = SECURITY_CLASSIFICATION_LEVEL ( 'unclassified' ) ;
#362 = EDGE_CURVE ( 'NONE', #55, #203, #496, .T. ) ;
#363 = AXIS2_PLACEMENT_3D ( 'NONE', #14, #296, #426 ) ;
#364 = CARTESIAN_POINT ( 'NONE',  ( 115.0000000000000000, 10.00000000000001954, 0.000000000000000000 ) ) ;
#365 = LINE ( 'NONE', #230, #292 ) ;
#366 = ORIENTED_EDGE ( 'NONE', *, *, #69, .T. ) ;
#367 = DIRECTION ( 'NONE',  ( -1.000000000000000000, 0.000000000000000000, 0.000000000000000000 ) ) ;
#368 = APPROVAL ( #119, 'æœª' ) ;
#369 = DIRECTION ( 'NONE',  ( 1.000000000000000000, -1.821459649775647696E-16, -0.000000000000000000 ) ) ;
#370 = EDGE_CURVE ( 'NONE', #140, #205, #404, .T. ) ;
#371 = PERSON ( 'æœª', 'æœª', 'æœª', ('æœª'), ('æœª'), ('æœª') ) ;
#372 = CARTESIAN_POINT ( 'NONE',  ( 265.0000000000000000, 6.999999999999993783, 6.000000000000000000 ) ) ;
#373 = APPROVAL_PERSON_ORGANIZATION ( #81, #368, #539 ) ;
#374 = ORIENTED_EDGE ( 'NONE', *, *, #394, .F. ) ;
#375 = EDGE_LOOP ( 'NONE', ( #68, #250, #147, #19 ) ) ;
#376 = ORIENTED_EDGE ( 'NONE', *, *, #85, .T. ) ;
#377 = LINE ( 'NONE', #9, #63 ) ;
#378 = CIRCLE ( 'NONE', #321, 3.000000000000002665 ) ;
#379 = ORIENTED_EDGE ( 'NONE', *, *, #186, .F. ) ;
#380 = DIRECTION ( 'NONE',  ( -1.000000000000000000, 1.908195823574488050E-16, 0.000000000000000000 ) ) ;
#381 = ORIENTED_EDGE ( 'NONE', *, *, #154, .T. ) ;
#382 = DIRECTION ( 'NONE',  ( 0.000000000000000000, 1.000000000000000000, 0.000000000000000000 ) ) ;
#383 = ORIENTED_EDGE ( 'NONE', *, *, #478, .T. ) ;
#384 = ORIENTED_EDGE ( 'NONE', *, *, #95, .F. ) ;
#385 = CARTESIAN_POINT ( 'NONE',  ( 165.0000000000000284, 10.00000000000001243, 6.000000000000000000 ) ) ;
#386 = VERTEX_POINT ( 'NONE', #46 ) ;
#387 = ORIENTED_EDGE ( 'NONE', *, *, #294, .F. ) ;
#388 = DIRECTION ( 'NONE',  ( -1.000000000000000000, 0.000000000000000000, 0.000000000000000000 ) ) ;
#389 = AXIS2_PLACEMENT_3D ( 'NONE', #538, #452, #264 ) ;
#390 = ORIENTED_EDGE ( 'NONE', *, *, #349, .F. ) ;
#391 = CIRCLE ( 'NONE', #363, 3.000000000000002665 ) ;
#392 = LINE ( 'NONE', #566, #165 ) ;
#393 = DIRECTION ( 'NONE',  ( 0.000000000000000000, 0.000000000000000000, 1.000000000000000000 ) ) ;
#394 = EDGE_CURVE ( 'NONE', #386, #136, #139, .T. ) ;
#395 = CIRCLE ( 'NONE', #389, 3.000000000000002665 ) ;
#396 = APPROVAL_DATE_TIME ( #27, #112 ) ;
#397 = DIRECTION ( 'NONE',  ( 1.000000000000000000, 0.000000000000000000, 0.000000000000000000 ) ) ;
#398 = EDGE_CURVE ( 'NONE', #257, #411, #87, .T. ) ;
#399 = FACE_OUTER_BOUND ( 'NONE', #275, .T. ) ;
#400 = LINE ( 'NONE', #351, #574 ) ;
#401 = DATE_TIME_ROLE ( 'classification_date' ) ;
#402 = LINE ( 'NONE', #88, #132 ) ;
#403 = DIRECTION ( 'NONE',  ( 0.000000000000000000, 0.000000000000000000, 1.000000000000000000 ) ) ;
#404 = CIRCLE ( 'NONE', #464, 3.000000000000002665 ) ;
#405 = COORDINATED_UNIVERSAL_TIME_OFFSET ( 8, 0, .AHEAD. ) ;
#406 = EDGE_CURVE ( 'NONE', #348, #75, #585, .T. ) ;
#407 = LINE ( 'NONE', #144, #11 ) ;
#408 = FACE_OUTER_BOUND ( 'NONE', #375, .T. ) ;
#409 = DIRECTION ( 'NONE',  ( -0.000000000000000000, -1.000000000000000000, -0.000000000000000000 ) ) ;
#410 = ADVANCED_FACE ( 'NONE', ( #547 ), #326, .F. ) ;
#411 = VERTEX_POINT ( 'NONE', #97 ) ;
#412 = FACE_OUTER_BOUND ( 'NONE', #301, .T. ) ;
#413 = CARTESIAN_POINT ( 'NONE',  ( 15.00000000000000000, 13.00000000000000355, 6.000000000000000000 ) ) ;
#414 = VERTEX_POINT ( 'NONE', #2 ) ;
#415 = DIRECTION ( 'NONE',  ( -0.000000000000000000, -0.000000000000000000, -1.000000000000000000 ) ) ;
#416 = EDGE_CURVE ( 'NONE', #136, #72, #214, .T. ) ;
#417 = ORIENTED_EDGE ( 'NONE', *, *, #306, .T. ) ;
#418 = LINE ( 'NONE', #198, #104 ) ;
#419 = VERTEX_POINT ( 'NONE', #506 ) ;
#420 = DIRECTION ( 'NONE',  ( -0.000000000000000000, -0.000000000000000000, -1.000000000000000000 ) ) ;
#421 = FACE_OUTER_BOUND ( 'NONE', #567, .T. ) ;
#422 = VERTEX_POINT ( 'NONE', #240 ) ;
#423 = ORIENTED_EDGE ( 'NONE', *, *, #352, .T. ) ;
#424 = ADVANCED_FACE ( 'NONE', ( #421 ), #152, .F. ) ;
#425 = ORIENTED_EDGE ( 'NONE', *, *, #577, .F. ) ;
#426 = DIRECTION ( 'NONE',  ( -1.000000000000000000, 0.000000000000000000, 0.000000000000000000 ) ) ;
#427 = ORIENTED_EDGE ( 'NONE', *, *, #241, .F. ) ;
#428 = ORIENTED_EDGE ( 'NONE', *, *, #307, .F. ) ;
#429 = LINE ( 'NONE', #202, #569 ) ;
#430 = CARTESIAN_POINT ( 'NONE',  ( 0.000000000000000000, 0.000000000000000000, 6.000000000000000000 ) ) ;
#431 = ORIENTED_EDGE ( 'NONE', *, *, #512, .F. ) ;
#432 = ADVANCED_FACE ( 'NONE', ( #246 ), #28, .F. ) ;
#433 = EDGE_LOOP ( 'NONE', ( #456, #425, #287, #332 ) ) ;
#434 = VECTOR ( 'NONE', #369, 1000.000000000000000 ) ;
#435 = CC_DESIGN_APPROVAL ( #112, ( #176 ) ) ;
#436 = ORIENTED_EDGE ( 'NONE', *, *, #43, .T. ) ;
#437 = CARTESIAN_POINT ( 'NONE',  ( 165.0000000000000284, 7.000000000000011546, 6.000000000000000000 ) ) ;
#438 = PERSON_AND_ORGANIZATION_ROLE ( 'design_supplier' ) ;
#439 = PRODUCT_DEFINITION_FORMATION_WITH_SPECIFIED_SOURCE ( 'ä»', '', #120, .NOT_KNOWN. ) ;
#440 = CARTESIAN_POINT ( 'NONE',  ( 0.000000000000000000, 0.000000000000000000, 6.000000000000000000 ) ) ;
#441 = COORDINATED_UNIVERSAL_TIME_OFFSET ( 8, 0, .AHEAD. ) ;
#442 = CARTESIAN_POINT ( 'NONE',  ( 265.0000000000000000, 12.99999999999999645, 0.000000000000000000 ) ) ;
#443 = DATE_AND_TIME ( #305, #115 ) ;
#444 = DIRECTION ( 'NONE',  ( 0.000000000000000000, 0.000000000000000000, 1.000000000000000000 ) ) ;
#445 = ORIENTED_EDGE ( 'NONE', *, *, #158, .T. ) ;
#446 = PLANE ( 'NONE',  #578 ) ;
#447 = CARTESIAN_POINT ( 'NONE',  ( 15.00000000000000000, 6.999999999999997335, 6.000000000000000000 ) ) ;
#448 = ORIENTED_EDGE ( 'NONE', *, *, #167, .F. ) ;
#449 = PLANE ( 'NONE',  #56 ) ;
#450 = DIRECTION ( 'NONE',  ( -0.000000000000000000, -0.000000000000000000, -1.000000000000000000 ) ) ;
#451 = EDGE_CURVE ( 'NONE', #414, #136, #212, .T. ) ;
#452 = DIRECTION ( 'NONE',  ( 0.000000000000000000, 0.000000000000000000, 1.000000000000000000 ) ) ;
#453 = AXIS2_PLACEMENT_3D ( 'NONE', #185, #41, #367 ) ;
#454 = DIRECTION ( 'NONE',  ( -1.000000000000000000, 0.000000000000000000, 0.000000000000000000 ) ) ;
#455 = LOCAL_TIME ( 18, 10, 31.00000000000000000, #357 ) ;
#456 = ORIENTED_EDGE ( 'NONE', *, *, #554, .T. ) ;
#457 = CARTESIAN_POINT ( 'NONE',  ( 265.0000000000000000, 9.999999999999992895, 6.000000000000000000 ) ) ;
#458 = ORIENTED_EDGE ( 'NONE', *, *, #546, .F. ) ;
#459 = DIRECTION ( 'NONE',  ( -0.000000000000000000, -0.000000000000000000, -1.000000000000000000 ) ) ;
#460 = VECTOR ( 'NONE', #335, 1000.000000000000000 ) ;
#461 =( GEOMETRIC_REPRESENTATION_CONTEXT ( 3 ) GLOBAL_UNCERTAINTY_ASSIGNED_CONTEXT ( ( #194 ) ) GLOBAL_UNIT_ASSIGNED_CONTEXT ( ( #215, #355, #582 ) ) REPRESENTATION_CONTEXT ( 'NONE', 'WORKASPACE' ) );
#462 = ORIENTED_EDGE ( 'NONE', *, *, #213, .T. ) ;
#463 = DIRECTION ( 'NONE',  ( -0.000000000000000000, -0.000000000000000000, -1.000000000000000000 ) ) ;
#464 = AXIS2_PLACEMENT_3D ( 'NONE', #237, #444, #454 ) ;
#465 = VERTEX_POINT ( 'NONE', #255 ) ;
#466 = CARTESIAN_POINT ( 'NONE',  ( 265.0000000000000000, 12.99999999999999645, 6.000000000000000000 ) ) ;
#467 = ORIENTED_EDGE ( 'NONE', *, *, #303, .F. ) ;
#468 = CC_DESIGN_DATE_AND_TIME_ASSIGNMENT ( #443, #579, ( #327 ) ) ;
#469 = ORIENTED_EDGE ( 'NONE', *, *, #362, .T. ) ;
#470 = PLANE ( 'NONE',  #231 ) ;
#471 = VERTEX_POINT ( 'NONE', #291 ) ;
#472 = ORIENTED_EDGE ( 'NONE', *, *, #154, .F. ) ;
#473 = ORIENTED_EDGE ( 'NONE', *, *, #485, .F. ) ;
#474 = AXIS2_PLACEMENT_3D ( 'NONE', #385, #163, #388 ) ;
#475 = CC_DESIGN_SECURITY_CLASSIFICATION ( #176, ( #439 ) ) ;
#476 = LINE ( 'NONE', #437, #49 ) ;
#477 = ORIENTED_EDGE ( 'NONE', *, *, #307, .T. ) ;
#478 = EDGE_CURVE ( 'NONE', #10, #348, #561, .T. ) ;
#479 = VECTOR ( 'NONE', #459, 1000.000000000000000 ) ;
#480 = FACE_BOUND ( 'NONE', #318, .T. ) ;
#481 = FACE_OUTER_BOUND ( 'NONE', #109, .T. ) ;
#482 = APPROVAL_DATE_TIME ( #266, #368 ) ;
#483 = PLANE ( 'NONE',  #243 ) ;
#484 = PERSON_AND_ORGANIZATION ( #371, #57 ) ;
#485 = EDGE_CURVE ( 'NONE', #184, #513, #429, .T. ) ;
#486 = CARTESIAN_POINT ( 'NONE',  ( 15.00000000000000000, 6.999999999999997335, 6.000000000000000000 ) ) ;
#487 = APPROVAL_ROLE ( '' ) ;
#488 = ORIENTED_EDGE ( 'NONE', *, *, #519, .T. ) ;
#489 = AXIS2_PLACEMENT_3D ( 'NONE', #220, #393, #397 ) ;
#490 = FACE_OUTER_BOUND ( 'NONE', #254, .T. ) ;
#491 = CARTESIAN_POINT ( 'NONE',  ( 0.000000000000000000, 0.000000000000000000, 0.000000000000000000 ) ) ;
#492 = DIRECTION ( 'NONE',  ( -1.000000000000000000, 0.000000000000000000, 0.000000000000000000 ) ) ;
#493 = CARTESIAN_POINT ( 'NONE',  ( 165.0000000000000284, 10.00000000000001243, 6.000000000000000000 ) ) ;
#494 = AXIS2_PLACEMENT_3D ( 'NONE', #310, #415, #138 ) ;
#495 = CC_DESIGN_PERSON_AND_ORGANIZATION_ASSIGNMENT ( #484, #86, ( #120 ) ) ;
#496 = LINE ( 'NONE', #447, #175 ) ;
#497 = ORIENTED_EDGE ( 'NONE', *, *, #328, .T. ) ;
#498 = DIRECTION ( 'NONE',  ( -0.000000000000000000, -0.000000000000000000, -1.000000000000000000 ) ) ;
#499 = EDGE_CURVE ( 'NONE', #10, #298, #476, .T. ) ;
#500 = ORIENTED_EDGE ( 'NONE', *, *, #541, .F. ) ;
#501 = DIRECTION ( 'NONE',  ( 1.000000000000000000, 0.000000000000000000, 0.000000000000000000 ) ) ;
#502 = CARTESIAN_POINT ( 'NONE',  ( 265.0000000000000000, 9.999999999999992895, 6.000000000000000000 ) ) ;
#503 = ORIENTED_EDGE ( 'NONE', *, *, #451, .F. ) ;
#504 = LINE ( 'NONE', #288, #460 ) ;
#505 = VECTOR ( 'NONE', #450, 1000.000000000000000 ) ;
#506 = CARTESIAN_POINT ( 'NONE',  ( 115.0000000000000000, 7.000000000000016875, 0.000000000000000000 ) ) ;
#507 = ORIENTED_EDGE ( 'NONE', *, *, #73, .F. ) ;
#508 = LINE ( 'NONE', #100, #286 ) ;
#509 = ORIENTED_EDGE ( 'NONE', *, *, #349, .T. ) ;
#510 = CARTESIAN_POINT ( 'NONE',  ( 15.00000000000000000, 10.00000000000000000, 0.000000000000000000 ) ) ;
#511 = AXIS2_PLACEMENT_3D ( 'NONE', #62, #562, #157 ) ;
#512 = EDGE_CURVE ( 'NONE', #322, #339, #392, .T. ) ;
#513 = VERTEX_POINT ( 'NONE', #517 ) ;
#514 = CARTESIAN_POINT ( 'NONE',  ( 11.99999999999999645, 10.00000000000000000, 0.000000000000000000 ) ) ;
#515 = ADVANCED_FACE ( 'NONE', ( #25 ), #110, .T. ) ;
#516 = ORIENTED_EDGE ( 'NONE', *, *, #121, .F. ) ;
#517 = CARTESIAN_POINT ( 'NONE',  ( 0.000000000000000000, 0.000000000000000000, 0.000000000000000000 ) ) ;
#518 = ORIENTED_EDGE ( 'NONE', *, *, #416, .T. ) ;
#519 = EDGE_CURVE ( 'NONE', #386, #60, #192, .T. ) ;
#520 = ORIENTED_EDGE ( 'NONE', *, *, #85, .F. ) ;
#521 = CARTESIAN_POINT ( 'NONE',  ( 15.00000000000000000, 10.00000000000000000, 6.000000000000000000 ) ) ;
#522 = AXIS2_PLACEMENT_3D ( 'NONE', #122, #36, #29 ) ;
#523 = CALENDAR_DATE ( 2024, 8, 10 ) ;
#524 = VERTEX_POINT ( 'NONE', #527 ) ;
#525 = DIRECTION ( 'NONE',  ( -1.000000000000000000, -1.908195823574487804E-16, -0.000000000000000000 ) ) ;
#526 = PRODUCT_RELATED_PRODUCT_CATEGORY ( 'detail', '', ( #120 ) ) ;
#527 = CARTESIAN_POINT ( 'NONE',  ( 280.0000000000000000, 0.000000000000000000, 6.000000000000000000 ) ) ;
#528 = AXIS2_PLACEMENT_3D ( 'NONE', #583, #234, #325 ) ;
#529 = DIRECTION ( 'NONE',  ( -0.000000000000000000, -0.000000000000000000, -1.000000000000000000 ) ) ;
#530 = ADVANCED_FACE ( 'NONE', ( #537 ), #263, .T. ) ;
#531 = CARTESIAN_POINT ( 'NONE',  ( 15.00000000000000000, 13.00000000000000355, 6.000000000000000000 ) ) ;
#532 = PERSON_AND_ORGANIZATION ( #371, #57 ) ;
#533 = PERSON_AND_ORGANIZATION_ROLE ( 'creator' ) ;
#534 = CC_DESIGN_PERSON_AND_ORGANIZATION_ASSIGNMENT ( #532, #308, ( #327 ) ) ;
#535 = CARTESIAN_POINT ( 'NONE',  ( 280.0000000000000000, 0.000000000000000000, 0.000000000000000000 ) ) ;
#536 = APPROVAL_STATUS ( 'not_yet_approved' ) ;
#537 = FACE_OUTER_BOUND ( 'NONE', #341, .T. ) ;
#538 = CARTESIAN_POINT ( 'NONE',  ( 165.0000000000000284, 10.00000000000001243, 0.000000000000000000 ) ) ;
#539 = APPROVAL_ROLE ( '' ) ;
#540 = VECTOR ( 'NONE', #353, 1000.000000000000000 ) ;
#541 = EDGE_CURVE ( 'NONE', #203, #164, #143, .T. ) ;
#542 = DIRECTION ( 'NONE',  ( 0.000000000000000000, 0.000000000000000000, 1.000000000000000000 ) ) ;
#543 = CARTESIAN_POINT ( 'NONE',  ( 0.000000000000000000, 0.000000000000000000, 6.000000000000000000 ) ) ;
#544 = ORIENTED_EDGE ( 'NONE', *, *, #333, .T. ) ;
#545 = LINE ( 'NONE', #486, #26 ) ;
#546 = EDGE_CURVE ( 'NONE', #164, #386, #317, .T. ) ;
#547 = FACE_OUTER_BOUND ( 'NONE', #297, .T. ) ;
#548 = ORIENTED_EDGE ( 'NONE', *, *, #577, .T. ) ;
#549 = FACE_OUTER_BOUND ( 'NONE', #233, .T. ) ;
#550 = CARTESIAN_POINT ( 'NONE',  ( 165.0000000000000284, 13.00000000000001421, 0.000000000000000000 ) ) ;
#551 = CC_DESIGN_APPROVAL ( #368, ( #327 ) ) ;
#552 = ORIENTED_EDGE ( 'NONE', *, *, #64, .F. ) ;
#553 = CARTESIAN_POINT ( 'NONE',  ( 0.000000000000000000, 0.000000000000000000, 6.000000000000000000 ) ) ;
#554 = EDGE_CURVE ( 'NONE', #513, #471, #402, .T. ) ;
#555 = ORIENTED_EDGE ( 'NONE', *, *, #186, .T. ) ;
#556 = EDGE_LOOP ( 'NONE', ( #509, #497, #21, #376 ) ) ;
#557 = CARTESIAN_POINT ( 'NONE',  ( 265.0000000000000000, 6.999999999999993783, 6.000000000000000000 ) ) ;
#558 = ORIENTED_EDGE ( 'NONE', *, *, #485, .T. ) ;
#559 = CARTESIAN_POINT ( 'NONE',  ( 280.0000000000000000, 0.000000000000000000, 6.000000000000000000 ) ) ;
#560 = ORIENTED_EDGE ( 'NONE', *, *, #352, .F. ) ;
#561 = LINE ( 'NONE', #342, #118 ) ;
#562 = DIRECTION ( 'NONE',  ( 0.000000000000000000, 0.000000000000000000, 1.000000000000000000 ) ) ;
#563 = VECTOR ( 'NONE', #420, 1000.000000000000000 ) ;
#564 = ORIENTED_EDGE ( 'NONE', *, *, #499, .F. ) ;
#565 = EDGE_LOOP ( 'NONE', ( #387, #507, #572, #477 ) ) ;
#566 = CARTESIAN_POINT ( 'NONE',  ( 165.0000000000000284, 13.00000000000001421, 6.000000000000000000 ) ) ;
#567 = EDGE_LOOP ( 'NONE', ( #558, #201, #390, #423 ) ) ;
#568 = ADVANCED_FACE ( 'NONE', ( #580, #480, #39 ), #356, .T. ) ;
#569 = VECTOR ( 'NONE', #571, 1000.000000000000000 ) ;
#570 = ORIENTED_EDGE ( 'NONE', *, *, #333, .F. ) ;
#571 = DIRECTION ( 'NONE',  ( -0.000000000000000000, -1.000000000000000000, -0.000000000000000000 ) ) ;
#572 = ORIENTED_EDGE ( 'NONE', *, *, #541, .T. ) ;
#573 = CARTESIAN_POINT ( 'NONE',  ( 265.0000000000000000, 6.999999999999993783, 0.000000000000000000 ) ) ;
#574 = VECTOR ( 'NONE', #529, 1000.000000000000000 ) ;
#575 = AXIS2_PLACEMENT_3D ( 'NONE', #33, #217, #225 ) ;
#576 = CARTESIAN_POINT ( 'NONE',  ( 15.00000000000000000, 13.00000000000000355, 6.000000000000000000 ) ) ;
#577 = EDGE_CURVE ( 'NONE', #524, #471, #407, .T. ) ;
#578 = AXIS2_PLACEMENT_3D ( 'NONE', #182, #93, #84 ) ;
#579 = DATE_TIME_ROLE ( 'creation_date' ) ;
#580 = FACE_OUTER_BOUND ( 'NONE', #336, .T. ) ;
#581 = ADVANCED_FACE ( 'NONE', ( #399 ), #483, .T. ) ;
#582 =( NAMED_UNIT ( * ) SI_UNIT ( $, .STERADIAN. ) SOLID_ANGLE_UNIT ( ) );
#583 = CARTESIAN_POINT ( 'NONE',  ( 115.0000000000000000, 10.00000000000001954, 6.000000000000000000 ) ) ;
#584 = PERSON_AND_ORGANIZATION ( #371, #57 ) ;
#585 = CIRCLE ( 'NONE', #350, 3.000000000000002665 ) ;
#586 = LINE ( 'NONE', #50, #22 ) ;
#587 = MECHANICAL_CONTEXT ( 'NONE', #277, 'mechanical' ) ;
ENDSEC;
END-ISO-10303-21;
